/* XPM */
static char *result[] = {
/* columns rows colors chars-per-pixel */
"51 51 2 1 ",
"  c #000000",
". c #FF7700",
/* pixels */
"                                                   ",
" ................................................. ",
" ................................................. ",
" ................................................. ",
" ................................................. ",
" ................................................. ",
" ................................................. ",
" ................................................. ",
" ................................................. ",
" ................................................. ",
" ................................................. ",
" ................................................. ",
" ................................................. ",
" ................................................. ",
" ................................................. ",
" ................................................. ",
" ................................................. ",
" ................................................. ",
" ................................................. ",
" ................................................. ",
" ................................................. ",
" ................................................. ",
" ................................................. ",
" ................................................. ",
" ................................................. ",
" ................................................. ",
" ................................................. ",
" ................................................. ",
" ................................................. ",
" ................................................. ",
" ................................................. ",
" ................................................. ",
" ................................................. ",
" ................................................. ",
" ................................................. ",
" ................................................. ",
" ................................................. ",
" ................................................. ",
" ................................................. ",
" ................................................. ",
" ................................................. ",
" ................................................. ",
" ................................................. ",
" ................................................. ",
" ................................................. ",
" ................................................. ",
" ................................................. ",
" ................................................. ",
" ................................................. ",
" ................................................. ",
"                                                   "
};
