/* XPM */
static char *result[] = {
/* columns rows colors chars-per-pixel */
"50 50 229 2 ",
"   c black",
".  c #021D1D",
"X  c #001E1E",
"o  c #011E1E",
"O  c #001F1F",
"+  c #021E1E",
"@  c #051D1D",
"#  c #061C1C",
"$  c #071C1C",
"%  c #071D1D",
"&  c #0F1B1B",
"*  c #081C1C",
"=  c #091C1C",
"-  c #081D1D",
";  c #091D1D",
":  c #0A1C1C",
">  c #0B1C1C",
",  c #0B1D1D",
"<  c #0C1C1C",
"1  c #0E1C1C",
"2  c #0F1C1C",
"3  c #101B1B",
"4  c #131B1B",
"5  c #141B1B",
"6  c #151B1B",
"7  c #161A1A",
"8  c #161B1B",
"9  c #101C1C",
"0  c #131C1C",
"q  c #141C1C",
"w  c #181A1A",
"e  c #191A1A",
"r  c #181B1B",
"t  c #191B1B",
"y  c gray10",
"u  c #1B1B1B",
"i  c #201919",
"p  c #211919",
"a  c #221919",
"s  c #231919",
"d  c #201A1A",
"f  c #251919",
"g  c #271919",
"h  c #291818",
"j  c #281919",
"k  c #2A1818",
"l  c #2B1818",
"z  c #2A1919",
"x  c #2D1818",
"c  c #2E1818",
"v  c #2F1818",
"b  c #301717",
"n  c #321717",
"m  c #331717",
"M  c #351717",
"N  c #361717",
"B  c #371717",
"V  c #381717",
"C  c #3A1717",
"Z  c #3B1717",
"A  c #3C1616",
"S  c #3E1616",
"D  c #3F1616",
"F  c #311818",
"G  c #331818",
"H  c #002020",
"J  c #002121",
"K  c #002222",
"L  c #401616",
"P  c #401717",
"I  c #421616",
"U  c #441515",
"Y  c #461515",
"T  c #471515",
"R  c #451616",
"E  c #481515",
"W  c #4A1515",
"Q  c #4B1616",
"!  c #4C1414",
"~  c #4D1414",
"^  c #4C1515",
"/  c #4F1414",
"(  c #521313",
")  c #561313",
"_  c #501414",
"`  c #511414",
"'  c #531414",
"]  c #591313",
"[  c #5A1313",
"{  c #5C1212",
"}  c #5C1313",
"|  c #5E1212",
" . c #5F1313",
".. c #7A0F0F",
"X. c #7C0F0F",
"o. c #7F0E0E",
"O. c #7E0F0F",
"+. c #7F0F0F",
"@. c #601212",
"#. c #611212",
"$. c #621212",
"%. c #621313",
"&. c #651111",
"*. c #661111",
"=. c #671111",
"-. c #641212",
";. c #651212",
":. c #661212",
">. c #681111",
",. c #6B1111",
"<. c #6D1111",
"1. c #6E1111",
"2. c #711010",
"3. c #701111",
"4. c #721010",
"5. c #731010",
"6. c #761010",
"7. c #771010",
"8. c #7E1010",
"9. c #216464",
"0. c #2F6060",
"q. c #336767",
"w. c #376464",
"e. c #447C7C",
"r. c #800F0F",
"t. c #810F0F",
"y. c #820E0E",
"u. c #830E0E",
"i. c #840E0E",
"p. c #860E0E",
"a. c #870E0E",
"s. c #880D0D",
"d. c #8A0D0D",
"f. c #8C0D0D",
"g. c #8E0D0D",
"h. c #8F0D0D",
"j. c #900D0D",
"k. c #940C0C",
"l. c #960C0C",
"z. c #9E0B0B",
"x. c #9F0B0B",
"c. c #980C0C",
"v. c #990C0C",
"b. c #9A0C0C",
"n. c #9C0C0C",
"m. c #A00B0B",
"M. c #A30B0B",
"N. c #A40B0B",
"B. c #AA0A0A",
"V. c #BF0707",
"C. c #B30909",
"Z. c #B40909",
"A. c #B60808",
"S. c #B80909",
"D. c #BB0808",
"F. c #C00707",
"G. c #C20707",
"H. c #C50606",
"J. c #C40707",
"K. c #C60707",
"L. c #C90606",
"P. c #CA0606",
"I. c #CB0606",
"U. c #CF0505",
"Y. c #CC0606",
"T. c #CD0606",
"R. c #CF0606",
"E. c #C10808",
"W. c #D10505",
"Q. c #D20505",
"!. c #D50505",
"~. c #D80404",
"^. c #D90505",
"/. c #DA0404",
"(. c #DB0404",
"). c #DC0404",
"_. c #DD0404",
"`. c #DE0404",
"'. c #E00303",
"]. c #E20303",
"[. c #E30303",
"{. c #E40303",
"}. c #E60303",
"|. c #E70303",
" X c #E20404",
".X c #E80303",
"XX c #EB0202",
"oX c #EB0303",
"OX c #ED0202",
"+X c #F30000",
"@X c #F20101",
"#X c #F30101",
"$X c #F10202",
"%X c #F50101",
"&X c #F60000",
"*X c #F60101",
"=X c #F70101",
"-X c #F40202",
";X c #F60202",
":X c #F80101",
">X c #F90101",
",X c #FA0000",
"<X c #FB0000",
"1X c #FA0101",
"2X c #FB0101",
"3X c #FC0000",
"4X c #FD0000",
"5X c red",
"6X c #FF0101",
"7X c #EE1C1C",
"8X c #ED3030",
"9X c #FF3939",
"0X c #836363",
"qX c #966B6B",
"wX c #EC4040",
"eX c #EE4242",
"rX c #EF4646",
"tX c #E24E4E",
"yX c #EB4C4C",
"uX c #ED7676",
"iX c #568D8D",
"pX c #76A2A2",
"aX c #73B0B0",
"sX c #E59393",
"dX c #FFBABA",
"fX c #FFC7C7",
"gX c #C9FFFF",
"hX c #D3F2F2",
"jX c None",
/* pixels */
"jXjXjXjXjXjXjXjXjXjXjXjXjXjXjXjXjXjXjXjXjXjXjXjXjXjXjXjXjXjXjXjXjXjXjXjXjXjXjXjXjXjXjXjXjXjXjXjXjXjX",
"jXjXjXjXjXjXjXjXjXjXjXjXjXjXjXjXjXjXjXjXjXjXjXjXjXjXjXjXjXjXjXjXjXjXjXjXjXjXjXjXjXjXjXjXjXjXjXjXjXjX",
"jXjXjXjXjXjXjXjXjXjXjXjXjXjXjXjXjXjXjXjXjXjXjXjXjXjXjXjXjXjXjXjXjXjXjXjXjXjXjXjXjXjXjXjXjXjXjXjXjXjX",
"jXjXjXjXjXjXjXjXjXjXjXjXjXjXjXjXjXjXjXjXjXjXjXjXjXjXjXjXjXjXjXjXjXjXjXjXjXjXjXjXjXjXjXjXjXjXjXjXjXjX",
"jXjXjXjXjXjXjXjXjXjXjXjXjXjXjXjXjXjXjXjXjXjXjXjXjXjXjXjXjXjXjXjXjXjXjXjXjXjXjXjXjXjXjXjXjXjXjXjXjXjX",
"jXjXjXjXjXjXjXjXjXjXjXjXjXjXjXjXjXjXjXjXjXjXjXjXjXjXjXjXjXjXjXjXjXjXjXjXjXjXjXjXjXjXjXjXjXjXjXjXjXjX",
"jXjXjXjXjXjXjXjXjXjXjXjXjXjXjXjXjXjXjXjXjXjXjXjXjXjXjXjXjXjXjXjXjXjXjXjXjXjXjXjXjXjXjXjXjXjXjXjXjXjX",
"jXjXjXjXjXjXjXjXjXjXjXjXjXjXjXjXjXjXjXjXjXjXjXjXjXjXjXjXjXjXjXjXjXjXjXjXjXjXjXjXjXjXjXjXjXjXjXjXjXjX",
"jXjXjXjXjXjXjXjXjXjXjXjXjXjXjXjXjXjXjXjXjXjXjXjXjXjXjXjXjXjXjXjXjXjXjXjXjXjXjXjXjXjXjXjXjXjXjXjXjXjX",
"jXjXjXjXjXjXjXjXjXjXjXjXjXjXjXjXjXjXjXjXjXjXjXjXjXjXjXjXjXjXjXjXjXjXjXjXjXjXjXjXjXjXjXjXjXjXjXjXjXjX",
"jXjXjXjXjXjXjXjXjXjXjXjXjXjXjXjXjXjXjXjXjXjXjXjXjXjXjXjXjXjXjXjXjXjXjXjXjXjXjXjXjXjXjXjXjXjXjXjXjXjX",
"jXjXjXjXjXjXjXjXjXjXjXjXjXjXjXjXjXjXjXjXjX$ f D L x e # jXjXjXjXjXjXjXjXjXjXjXjXjXjXjXjXjXjXjXjXjXjX",
"jXjXjXjXjXjXjXjXjXjXjXjXjXjXjXjXjXjXjXc p.I.$X5X5X>X[.L.b.>.V < jXjXjXjXjXjXjXjXjXjXjXjXjXjXjXjXjXjX",
"jXjXjXjXjXjXjXjXjXjXjXjXjXjXjXjXjX2 j.3X5X5X5X5X5X5X5X5X5X5X5X!.x.&.c # jXjXjXjXjXjXjXjXjXjXjXjXjXjX",
"jXjXjXjXjXjXjXjXjXjXjXjXjXjXjXjXz /.5X5X5X5X5X5X5X5X5X5X5X5X5X5X5X5X1XY.k.$.B 4 jXjXjXjXjXjXjXjXjXjX",
"jXjXjXjXjXjXjXjXjXjXjXjXjXjXjXf %X5X5X5X5X5X5X5X5X5X5X5X5X5X5X5X5X5X5X5X5X5X5X5X^.c.' j 7 e jXjXjXjX",
"jXjXjXjXjXjXjXjXjXjXjXjXjXjXo (.5X5X5X5X5X5X5X5X5X5X5X5X5X5X5X5X5X5X5X5X5X^.Z.h.6._ c jXjXjXjXjXjXjX",
"jXjXjXjXjXjXjXjXjXjXjXjXjXjXd.5X5X5X5X5X5X5X5X5X5X5X5X5X5X5X5X5X5X5X5XA., O jXjXjXjXjXjXjXjXjXjXjXjX",
"jXjXjXjXjXjXjXjXjXjXjXjXjXp 5X5X5X5X5X5X5X5X5X5X5X5X5X5X5X5X5X5X5X5X5XH.R G l jXjXjXjXjXjXjXjXjXjXjX",
"jXjXjXjXjXjXjXjXjXjXjXjXjXu.5X5X5X9XuX7X&X5X5X5X5X5X5X5X5X5X5X5X5X5X5X5X5X5X5X/.v.:.a jXjXjXjXjXjXjX",
"jXjXjXjXjXjXjXjXjXjXjXjX. L.5X5XeXw.e.hX8X5X5X5X5X5X5X5X5X5X5X5X5X5X5X5X5X5XK.u n jXjXjXjXjXjXjXjXjX",
"jXjXjXjXjXjXjXjXjXjXjXjXf =X5X6XqX0.  aXdX&X5X5X5X5X5X5X5X5X5X5X5X5X5X5X5X5X].P @ jXjXjXjXjXjXjXjXjX",
"jXjXjXjXjXjXjXjXjXjXjXjXS 5X5X6X0XpX  iXfX+X5X5X5X5X5X5X5X5X5X5X5X5X5X5X~.#.E U jXjXjXjXjXjXjXjXjXjX",
"jXjXjXjXjXjXjXjXjXjXjXjXR 5X5X5XtX9.q.gXrX5X5X5X5X5X5X5X5X5X5X5X5X5X5X5XF.X J jXjXjXjXjXjXjXjXjXjXjX",
"jXjXjXjXjXjXjXjXjXjXjXjXL 5X5X5X5XyXsXwX+X5X5X5X5X5X5X5X5X5X5X5X5X5X5X5X5X4XL.n.7.@._ ~ m 6 e jXjXjX",
"jXjXjXjXjXjXjXjXjXjXjXjXh ,X5X5X5X5X5X5X5X5X5X5X5X5X5X5X5X5X5X5X5X5X5X5X5X5X5X5X5X5X5XN.C & e jXjXjX",
"jXjXjXjXjXjXjXjXjXjXjXjX@ U.5X5X5X5X5X5X5X5X5X5X5X5X5X5X5X5X5X5X5X5X5X5X5X5X5X5X'.g.D jXjXjXjXjXjXjX",
"jXjXjXjXjXjXjXjXjXjXjXjXjXf.5X5X5X5X5X5X|.5X5X5X5X5X5X5X5X5X5X5X5X5X5X5X5X5XS.[ * jXjXjXjXjXjXjXjXjX",
"jXjXjXjXjXjXjXjXjXjXjXjXjXg 5X5X5X5X!.q s.5X5X5X5X5X5X5X5X5X5X5X5X5X5XOXr.r K H v b w y jXjXjXjXjXjX",
"jXjXjXjXjXjXjXjXjXjXjXjXjXjX$.u.1.I 0  .@X5X5X5X5X5X5X5X5X5X5X5X5X5XY.0 X ^ c.i.] l 5 jXjXjXjXjXjXjX",
"jXjXjXjXjXjXjXjXjXjXjXjXjXjXH T ;.2.Q.5X5X5X5X5X5X5X5X5X5X5X5X5X5X5XOX_.5XR.y.F jXjXjXjXjXjXjXjXjXjX",
"jXjXjXjXjXjXjXjXjXjXjXjXjXjXjX| 5X5X5X5X5X5X5X5X5X5X5X5X5X5X5X5X5X5X5XQ.} . jXjXjXjXjXjXjXjXjXjXjXjX",
"jXjXjXjXjXjXjXjXjXjXjXjXjXjXjXjXB }.5X5X5X5X5X5X5X5X5X5X5X5X5X5X:Xz.Z X jXjXjXjXjXjXjXjXjXjXjXjXjXjX",
"jXjXjXjXjXjXjXjXjXjXjXjXjX& 4 jXH e a.<X5X5X5X5X5X5X5X5X5X5XQ.X.g jXjXjXjXjXjXjXjXjXjXjXjXjXjXjXjXjX",
"jXjXjXjXjXjXjXjXjXjXjXd B.~.).`.{.G.$.Q 8.E.#X5X5X5XXXJ.l.! = jXjXjXjXjXjXjXjXjXjXjXjXjXjXjXjXjXjXjX",
"jXjXjXjXjXjXjXjXjXjXjXN 5X5X5X5X5X5X5X Xt.%.) j l c g O jXjXjXjXjXjXjXjXjXjXjXjXjXjXjXjXjXjXjXjXjXjX",
"jXjXjXjXjXjXjXjXjXjXjXjXY >.*.$.-./ M / ....W A 5.M.W.n.jXjXjXjXjXjXjXjXjXjXjXjXjXjXjXjXjXjXjXjXjXjX",
"jXjXjXjXjXjXjXjXjXjXjXjXjXjXjXjXjX> ,.j.V.|.5X5X5X5X5XK.% jXjXjXjXjXjXjXjXjXjXjXjXjXjXjXjXjXjXjXjXjX",
"jXjXjXjXjXjXjXjXjXjXjXjXjXjXjXjXjXO.5X5X5X5X!.l.6.<.T & jXjXjXjXjXjXjXjXjXjXjXjXjXjXjXjXjXjXjXjXjXjX",
"jXjXjXjXjXjXjXjXjXjXjXjXjXjXjXjXjXg o.X.) t s 7.m.g a.3.jXjXjXjXjXjXjXjXjXjXjXjXjXjXjXjXjXjXjXjXjXjX",
"jXjXjXjXjXjXjXjXjXjXjXjXjXjXjXjXjXjXjXjXjXK D.5X5X{ 5X.X+ jXjXjXjXjXjXjXjXjXjXjXjXjXjXjXjXjXjXjXjXjX",
"jXjXjXjXjXjXjXjXjXjXjXjXjXjXjXjXjXjXjXjXjXY 5X5X] r.5X5X=.jXjXjXjXjXjXjXjXjXjXjXjXjXjXjXjXjXjXjXjXjX",
"jXjXjXjXjXjXjXjXjXjXjXjXjXjXjXjXjXjXjXjXO P.5X-XX A 5X5X.X: jXjXjXjXjXjXjXjXjXjXjXjXjXjXjXjXjXjXjXjX",
"jXjXjXjXjXjXjXjXjXjXjXjXjXjXjXjXjXjXjXjX( 5X5X+.jXjXC.5X5X4.jXjXjXjXjXjXjXjXjXjXjXjXjXjXjXjXjXjXjXjX",
"jXjXjXjXjXjXjXjXjXjXjXjXjXjXjXjXjXjXjXX W.5XoX< jXjXk 5X5XXX1 jXjXjXjXjXjXjXjXjXjXjXjXjXjXjXjXjXjXjX",
"jXjXjXjXjXjXjXjXjXjXjXjXjXjXjXjXjXjXjX` 5X5X2.jXjXjXjXx.5X5Xi.jXjXjXjXjXjXjXjXjXjXjXjXjXjXjXjXjXjXjX",
"jXjXjXjXjXjXjXjXjXjXjXjXjXjXjXjXjXjX; W.5X|.- jXjXjXjXi 3X5X;X8 jXjXjXjXjXjXjXjXjXjXjXjXjXjXjXjXjXjX",
"jXjXjXjXjXjXjXjXjXjXjXjXjXjXjXjXjXjX` 5X5X;.jXjXjXjXjXjXg.5X5Xl.jXjXjXjXjXjXjXjXjXjXjXjXjXjXjXjXjXjX",
"jXjXjXjXjXjXjXjXjXjXjXjXjXjXjXjXjXjXg T.Z.@ jXjXjXjXjXjX9 2X5X*Xw jXjXjXjXjXjXjXjXjXjXjXjXjXjXjXjXjX",
"jXjXjXjXjXjXjXjXjXjXjXjXjXjXjXjXjXjXjX= jXjXjXjXjXjXjXjXjX@.5XXX3 jXjXjXjXjXjXjXjXjXjXjXjXjXjXjXjXjX"
};
