/* XPM */
static char *result[] = {
/* columns rows colors chars-per-pixel */
"50 50 247 2 ",
"   c #000001",
".  c #000303",
"X  c #040101",
"o  c #001D1D",
"O  c #011D1D",
"+  c #031C1C",
"@  c #021D1D",
"#  c #001E1E",
"$  c #001F1F",
"%  c #051C1C",
"&  c #041D1D",
"*  c #051D1D",
"=  c #0C1B1B",
"-  c #0D1B1B",
";  c #0E1A1A",
":  c #0E1B1B",
">  c #081C1C",
",  c #091C1C",
"<  c #0B1C1C",
"1  c #0C1C1C",
"2  c #0D1C1C",
"3  c #0E1C1C",
"4  c #121B1B",
"5  c #131B1B",
"6  c #141B1B",
"7  c #151B1B",
"8  c #161A1A",
"9  c #101C1C",
"0  c #171C1C",
"q  c #181A1A",
"w  c #191B1B",
"e  c gray10",
"r  c #1D1919",
"t  c #1E1919",
"y  c #1C1A1A",
"u  c #221919",
"i  c #241919",
"p  c #251919",
"a  c #261818",
"s  c #261919",
"d  c #271919",
"f  c #281818",
"g  c #291818",
"h  c #2A1818",
"j  c #2D1818",
"k  c #2E1818",
"l  c #2F1818",
"z  c #301717",
"x  c #311717",
"c  c #341616",
"v  c #341717",
"b  c #351717",
"n  c #371717",
"m  c #3A1717",
"M  c #3C1616",
"N  c #3D1616",
"B  c #3F1616",
"V  c #002222",
"C  c #002323",
"Z  c #002424",
"A  c #002626",
"S  c #411515",
"D  c #421515",
"F  c #411616",
"G  c #421616",
"H  c #441515",
"J  c #451515",
"K  c #471515",
"L  c #441616",
"P  c #491515",
"I  c #4C1414",
"U  c #4D1414",
"Y  c #4D1515",
"T  c #571313",
"R  c #501414",
"E  c #511414",
"W  c #561414",
"Q  c #571414",
"!  c #581313",
"~  c #591313",
"^  c #5C1212",
"/  c #5D1212",
"(  c #5C1313",
")  c #5D1313",
"_  c #5E1212",
"`  c #5F1212",
"'  c #5E1313",
"]  c #5A1616",
"[  c #780F0F",
"{  c #7E0F0F",
"}  c #7F0F0F",
"|  c #601212",
" . c #611212",
".. c #621212",
"X. c #631212",
"o. c #651212",
"O. c #681111",
"+. c #6A1111",
"@. c #6B1111",
"#. c #6C1111",
"$. c #6F1010",
"%. c #6E1111",
"&. c #6F1212",
"*. c #701010",
"=. c #741010",
"-. c #751010",
";. c #771010",
":. c #7A1010",
">. c #7C1010",
",. c #7D1010",
"<. c #114747",
"1. c #1F5656",
"2. c #155C5C",
"3. c #324343",
"4. c #3E5A5A",
"5. c #2C7C7C",
"6. c #404747",
"7. c #485E5E",
"8. c #744444",
"9. c #556B6B",
"0. c #810F0F",
"q. c #820E0E",
"w. c #830E0E",
"e. c #850E0E",
"r. c #870E0E",
"t. c #8A0D0D",
"y. c #8B0D0D",
"u. c #890E0E",
"i. c #8C0D0D",
"p. c #8D0D0D",
"a. c #8E0D0D",
"s. c #8F0D0D",
"d. c #900D0D",
"f. c #920C0C",
"g. c #920D0D",
"h. c #950D0D",
"j. c #970C0C",
"k. c #9A0B0B",
"l. c #9B0B0B",
"z. c #9C0B0B",
"x. c #990C0C",
"c. c #9C0C0C",
"v. c #9D0C0C",
"b. c #A00B0B",
"n. c #A10B0B",
"m. c #A20B0B",
"M. c #AC0909",
"N. c #AD0909",
"B. c #AE0909",
"V. c #AF0909",
"C. c #AC0A0A",
"Z. c #AE0A0A",
"A. c #BD0707",
"S. c #BF0707",
"D. c #B00909",
"F. c #B10909",
"G. c #B20909",
"H. c #B30909",
"J. c #B50808",
"K. c #B40909",
"L. c #B50909",
"P. c #B70808",
"I. c #BA0808",
"U. c #C20707",
"Y. c #C50707",
"T. c #C70606",
"R. c #C80707",
"E. c #CB0606",
"W. c #CC0606",
"Q. c #CF0606",
"!. c #D10505",
"~. c #D20505",
"^. c #D30505",
"/. c #D40505",
"(. c #D50505",
"). c #D70404",
"_. c #D60505",
"`. c #D70505",
"'. c #DF0303",
"]. c #D90404",
"[. c #DA0404",
"{. c #DC0404",
"}. c #DD0404",
"|. c #DE0404",
" X c #DF0404",
".X c #E00404",
"XX c #E90202",
"oX c #E90303",
"OX c #EB0303",
"+X c #EE0000",
"@X c #EE0202",
"#X c #EF0202",
"$X c #EF0C0C",
"%X c #F00000",
"&X c #F20000",
"*X c #F30101",
"=X c #F00202",
"-X c #F20202",
";X c #F40101",
":X c #F50101",
">X c #F60101",
",X c #F70101",
"<X c #F80101",
"1X c #F90101",
"2X c #FA0000",
"3X c #FB0000",
"4X c #FB0101",
"5X c #FD0000",
"6X c #FE0000",
"7X c red",
"8X c #FF0101",
"9X c #FF0909",
"0X c #F81313",
"qX c #F81616",
"wX c #FD1616",
"eX c #FF1C1C",
"rX c #FF1D1D",
"tX c #CD3C3C",
"yX c #F72424",
"uX c #FF2D2D",
"iX c #F53434",
"pX c #F83535",
"aX c #FF3434",
"sX c #FF3838",
"dX c #AF5555",
"fX c #A55E5E",
"gX c #B65555",
"hX c #ED5757",
"jX c #F55252",
"kX c #F46060",
"lX c #FD6D6D",
"zX c #F97575",
"xX c #549898",
"cX c #708F8F",
"vX c #64A3A3",
"bX c #8D9D9D",
"nX c #96BABA",
"mX c #A9B7B7",
"MX c #C99696",
"NX c #F18F8F",
"BX c #E89494",
"VX c #F0A9A9",
"CX c #88D5D5",
"ZX c #B2F6F6",
"AX c #E3CECE",
"SX c #C5FFFF",
"DX c None",
/* pixels */
"DXDXDXDXDXDXDXDXDXDXDXDXDXDXDXDXDXDXDXDXDXDXDXDXDXDXDXDXDXDXDXDXDXDXDXDXDXDXDXDXDXDXDXDXDXDXDXDXDXDX",
"DXDXDXDXDXDXDXDXDXDXDXDXDXDXDXDXDXDXDXDXDXDXDXDX: 4 DXDXDXDXDXDXDXDXDXDXDXDXDXDXDXDXDXDXDXDXDXDXDXDX",
"DXDXDXDXDXDXDXDXDXDXDXDXDXDXDXDXDXDXDXDXDXDXDXDXv M DXDXDXDXDXDXt n DXDXDXDXDXDXDXDXDXDXDXDXDXDXDXDX",
"DXDXDXDXDXDXDXDXDXDXDXDXDXDXDXDXDXDXDX6 8 DXDXDXn.=.DXDXDXDXDX@ `.f.DXDXDXDXDXDXDXDXDXDXDXDXDXDXDXDX",
"DXDXDXDXDXDXDXDXDXDXDXDXDXDXDXDXDXDXDXu s DXDXe 4XX.DXDXDXDXDX) 7X*.DXDXDXDXDXDXDXDXDXDXDXDXDXDXDXDX",
"DXDXDXDXDXDXDXDXDXDXDXDXDXDXDXDXDXDXDX..G DXDX$.7XR DXDX5 DXDXC.7X+.DXDXDXDXDXDXDXDXDXDXDXDXDXDXDXDX",
"DXDXDXDXDXDXDXDXDXDXDXDXDXDXDXDXDXDXd Z.a DX# (.7XT DXDXh DXDX_.7X[ DXDXDXDXDXDXDXDXDXDXDXDXDXDXDXDX",
"DXDXDXDXDXDXDXDXDXDXDXDXDXDXDXDXDXDX0.}.DXDXJ 7X7XX.DXDX@.DXf 1X7Xa.DXDXDXDXDXDXDXDXDXDXDXDXDXDXDXDX",
"DXDXDXDXDXDXDXDXDXDXDXDXDXDXDXDXDX$ oXY.DXDXK.7X7X=.DXDXx., n 7X7XG.DXDXDXDXDXDXDXDXDXDXDXDXDXDXDXDX",
"DXDXDXDXDXDXDXDXDXDXDXDXDXDXDXDXDXb 7Xi.DXz 7X7X7Xn.DXDXJ.- B 7X7X!.> DXDXDXDXDXDXDXDXDXDXDXDXDXDXDX",
"DXDXDXDXDXDXDXDXDXDXDXDXDXDXDXDXDXc.7X/ A H.7X7X7XXXo :  X8 F 7X7X@Xy DXDXDXDXDXDXDXDXDXDXDXDXDXDXDX",
"DXDXDXDXDXDXDXDXDXDXDXDXDXDXDXDXw ,X7Xe.I 7X7X7X7X7X#.+ 7Xm P 7X7X7XS DXDXDXDXDXDXDXDXDXDXDXDXDXDXDX",
"DXDXDXDXDXDXDXDXDXDXDXDXDXDXDXDX;.7X7X7X7X7X7X7X7X7X7X].7X[.].7X7X7XO.DXDXDXDXDXDXDXDXDXDXDXDXDXDXDX",
"DXDXDXDXDXDXDXDXDXDXDXDXDXDXDX& |.7X7X7X7X7X7X7X7X7X7X7X7X7X7X7X7X7Xu.DXDXDXDXDXDXDXDXDXDXDXDXDXDXDX",
"DXDXDXDXDXDXDXDXDXDXDXDXDXDXDXE 7X7X7X7X7X7X7X7X7X7X7X7X7X7X7X7X7X7XI.DXDXDXDXDXDXDXDXDXDXDXDXDXDXDX",
"DXDXDXDXDXDXDXDXDXDXDXDXDXDXDXK.7X7X7X7X7X7X7X7X7X7X7X7X7X7X7X7X7X7X X: DXDXDXDXDXDXDXDXDXDXDXDXDXDX",
"DXDXDXDXDXDXDXDXDXDXDXDXDXDXp 6X7X7X7X7X7X7X7X7X7X7X7X7X7X7X7X7X7X7X3Xk DXDXDXDXDXDXDXDXDXDXDXDXDXDX",
"DXDXDXDXDXDXDXDXDXDXDXDXDXDX:.7X7X7X7X7X7X7X7X7X7X7X7X7X7X7X7X7X7X7X7X! DXDXDXDXDXDXDXDXDXDXDXDXDXDX",
"DXDXDXDXDXDXDXDXDXDXDXDXDXO R.7X7X6X+XzXkX7X7X7X7X7X7XeXhXwX3X7X7X7X7X-.DXDXDXDXDXDXDXDXDXDXDXDXDXDX",
"DXDXDXDXDXDXDXDXDXDXDXDXDXg 7X7X7X$XAXvX<.dX9X7X7X7XiX3.1.mXpX7X7X7X7Xf.DXDXDXDXDXDXDXDXDXDXDXDXDXDX",
"DXDXDXDXDXDXDXDXDXDXDXDXDXW 7X7X7XlXZX  6.cXyX7X7X7XfXxXX 2.VX5X7X7X7XP.DXDXDXDXDXDXDXDXDXDXDXDXDXDX",
"DXDXDXDXDXDXDXDXDXDXDXDXDXr.7X7X7XjXSX. 4.bXqX7X7X7XgXCX; 5.NX5X7X7X7XW.% DXDXDXDXDXDXDXDXDXDXDXDXDX",
"DXDXDXDXDXDXDXDXDXDXDXDXDXz.7X7X7X%XBXnX7.tX8X7X7X7XrX8.9.MX0X7X7X7X7X/.3 DXDXDXDXDXDXDXDXDXDXDXDXDX",
"DXDXDXDXDXDXDXDXDXDXDXDXDXj.7X7X7X7X&XsXaX7X7X7X7X7X7X7XuX7X7X7X7X7X7X).1 DXDXDXDXDXDXDXDXDXDXDXDXDX",
"DXDXDXDXDXDXDXDXDXDXDXDXDX=.7X7X7X7X7X7X7X7X7X7X7X7X7X7X7X7X7X7X7X7X7XA.DXDXDXDXDXDXDXDXDXDXDXDXDXDX",
"DXDXDXDXDXDXDXDXDXDXDXDXDXN 7X7X7X7X7X7X7X7X7X7X7X7X7X7X7X7X7X7X7X7X7X0.DXDXDXDXDXDXDXDXDXDXDXDXDXDX",
"DXDXDXDXDXDXDXDXDXDXDXDXDX* `.7X7X7X7X7X=X<X7X7X7X7X7X7X7X7X7X7X7X7X7Xx DXDXDXDXDXDXDXDXDXDXDXDXDXDX",
"DXDXDXDXDXDXDXDXDXDXDXDXDXDX/ 7X7X7X7X7XY.9 v.7X7X7X7X7X7X7X7X7X7X7XM.DXDXDXDXDXDXDXDXDXDXDXDXDXDXDX",
"DXDXDXDXDXDXDXDXDXDXDXDXDXDX$ S.7X7X7X7X6Xh.0 j o.[ _ ~.7X7X7X7X7X<Xq DXDXDXDXDXDXDXDXDXDXDXDXDXDXDX",
"DXDXDXDXDXDXDXDXDXDXDXDXDXDXDX2 |.7X7X7X7X7X2Xg.T Y U ^.7X7X7X7X7XF DXDXDXDXDXDXDXDXDXDXDXDXDXDXDXDX",
"DXDXDXDXDXDXDXDXDXDXDXDXDXDXDXDX7 T.7X7X7X7X7X7X7X7X7X7X7X7X7X-XL DXDXDXDXDXDXDXDXDXDXDXDXDXDXDXDXDX",
"DXDXDXDXDXDXDXDXDXDXDXDXDXDXDXDXDX# ` [.7X7X7X7X7X7X7X7X7X;Xd.s DXDXDXDXDXDXDXDXDXDXDXDXDXDXDXDXDXDX",
"DXDXDXDXDXDXDXDXDXDXDXDXDXDXDXDXDXr %.' &.c.(.;X7X2X'.B.>. .y DXDXDXDXDXDXDXDXDXDXDXDXDXDXDXDXDXDXDX",
"DXDXDXDXDXDXDXDXDXDXDXDXDXDXDXDXDX+.7X(.Q O.| ( ~ ( | ) ,.OX*X3 DXDXDXDXDXDXDXDXDXDXDXDXDXDXDXDXDXDX",
"DXDXDXDXDXDXDXDXDXDXDXDXDXDXDXDX# ~.7X{ b.7X7X.X!.[.,X7XL.{.7Xl.DXDXDXDXDXDXDXDXDXDXDXDXDXDXDXDXDXDX",
"DXDXDXDXDXDXDXDXDXDXDXDXDXDXDXDXD 7X7X8 s.7X7X7X7X7X7X7XT c 7X7Xn DXDXDXDXDXDXDXDXDXDXDXDXDXDXDXDXDX",
"DXDXDXDXDXDXDXDXDXDXDXDXDXDXDXDXm.7XY.V N.7X7X7X7X7X7X7Xw.Z E.7X~.# DXDXDXDXDXDXDXDXDXDXDXDXDXDXDXDX",
"DXDXDXDXDXDXDXDXDXDXDXDXDXDXDXz 7X7X .C F.7X7X7X7X7X7X7Xp.DXl 7X7Xq.DXDXDXDXDXDXDXDXDXDXDXDXDXDXDXDX",
"DXDXDXDXDXDXDXDXDXDXDXDXDXDXDXD 7X;X< DXV.7X7X7X7X7X7X7Xt.DXDXi.,X;.DXDXDXDXDXDXDXDXDXDXDXDXDXDXDXDX",
"DXDXDXDXDXDXDXDXDXDXDXDXDXDXDXDXL n DXDXV.7X7X7X7X7X7X7Xt.DXDX: h DXDXDXDXDXDXDXDXDXDXDXDXDXDXDXDXDX",
"DXDXDXDXDXDXDXDXDXDXDXDXDXDXDXDXDXDXDXDXV.7X7X7X7X7X7X7Xt.DXDXDXDXDXDXDXDXDXDXDXDXDXDXDXDXDXDXDXDXDX",
"DXDXDXDXDXDXDXDXDXDXDXDXDXDXDXDXDXDXDXDXV.7X7X7X7X7X7X7Xt.DXDXDXDXDXDXDXDXDXDXDXDXDXDXDXDXDXDXDXDXDX",
"DXDXDXDXDXDXDXDXDXDXDXDXDXDXDXDXDXDXDXDXV.7X7X7X7X7X7X7Xt.DXDXDXDXDXDXDXDXDXDXDXDXDXDXDXDXDXDXDXDXDX",
"DXDXDXDXDXDXDXDXDXDXDXDXDXDXDXDXDXDXDXDXV.7X7Xz.] F.7X7Xt.DXDXDXDXDXDXDXDXDXDXDXDXDXDXDXDXDXDXDXDXDX",
"DXDXDXDXDXDXDXDXDXDXDXDXDXDXDXDXDXDXDXDXV.7X>X= DXk 7X7Xt.DXDXDXDXDXDXDXDXDXDXDXDXDXDXDXDXDXDXDXDXDX",
"DXDXDXDXDXDXDXDXDXDXDXDXDXDXDXDXDXDXDXDXV.7X;Xa DXH 7X7Xt.DXDXDXDXDXDXDXDXDXDXDXDXDXDXDXDXDXDXDXDXDX",
"DXDXDXDXDXDXDXDXDXDXDXDXDXDXDXDXDXDXDXDXV.7X:Xg DXK 7X7Xt.DXDXDXDXDXDXDXDXDXDXDXDXDXDXDXDXDXDXDXDXDX",
"DXDXDXDXDXDXDXDXDXDXDXDXDXDXDXDXDXDXDXDXD.7X>Xh DXK 7X7Xy.DXDXDXDXDXDXDXDXDXDXDXDXDXDXDXDXDXDXDXDXDX",
"DXDXDXDXDXDXDXDXDXDXDXDXDXDXDXDXDXDXDX# U.7X7Xj DXE 7X7Xk.DXDXDXDXDXDXDXDXDXDXDXDXDXDXDXDXDXDXDXDXDX",
"DXDXDXDXDXDXDXDXDXDXDXDXDXDXDXDXDXDXDXDX} 7XQ.9 DXi #X7X^ DXDXDXDXDXDXDXDXDXDXDXDXDXDXDXDXDXDXDXDXDX"
};
