/* XPM */
static char *result[] = {
/* columns rows colors chars-per-pixel */
"50 50 231 2 ",
"   c black",
".  c #001D1D",
"X  c #011D1D",
"o  c #021D1D",
"O  c #001E1E",
"+  c #001F1F",
"@  c #031E1E",
"#  c #041D1D",
"$  c #071C1C",
"%  c #071D1D",
"&  c #051E1E",
"*  c #0E1B1B",
"=  c #0F1B1B",
"-  c #081C1C",
";  c #091C1C",
":  c #0A1C1C",
">  c #0B1C1C",
",  c #0F1C1C",
"<  c #101B1B",
"1  c #111B1B",
"2  c #121B1B",
"3  c #131B1B",
"4  c #141B1B",
"5  c #151B1B",
"6  c #171B1B",
"7  c #111C1C",
"8  c gray10",
"9  c #1F1919",
"0  c #1C1A1A",
"q  c #1D1A1A",
"w  c #1E1A1A",
"e  c #1F1A1A",
"r  c #201919",
"t  c #211919",
"y  c #221919",
"u  c #211A1A",
"i  c #221A1A",
"p  c #241919",
"a  c #261818",
"s  c #261919",
"d  c #271919",
"f  c #261A1A",
"g  c #281919",
"h  c #2A1818",
"j  c #2C1818",
"k  c #2D1818",
"l  c #2E1818",
"z  c #2F1818",
"x  c #321717",
"c  c #341717",
"v  c #351717",
"b  c #371717",
"n  c #391616",
"m  c #381717",
"M  c #391717",
"N  c #3A1616",
"B  c #3B1616",
"V  c #3A1717",
"C  c #3D1616",
"Z  c #3E1616",
"A  c #3E1717",
"S  c #301818",
"D  c #002121",
"F  c #002222",
"G  c #002525",
"H  c #002828",
"J  c #293838",
"K  c #363434",
"L  c #401616",
"P  c #411616",
"I  c #421616",
"U  c #451515",
"Y  c #461515",
"T  c #471515",
"R  c #481414",
"E  c #481515",
"W  c #491515",
"Q  c #4A1414",
"!  c #4B1515",
"~  c #4C1414",
"^  c #4D1515",
"/  c #4F1515",
"(  c #571313",
")  c #501414",
"_  c #511414",
"`  c #531414",
"'  c #551414",
"]  c #561414",
"[  c #5B1212",
"{  c #5A1313",
"}  c #5B1313",
"|  c #5D1212",
" . c #5C1313",
".. c #5D1313",
"X. c #5F1212",
"o. c #5E1313",
"O. c #5A1515",
"+. c #780F0F",
"@. c #7D0F0F",
"#. c #7F0F0F",
"$. c #621212",
"%. c #661111",
"&. c #671111",
"*. c #651212",
"=. c #6A1111",
"-. c #6B1111",
";. c #6B1212",
":. c #6D1111",
">. c #711010",
",. c #711111",
"<. c #721010",
"1. c #721111",
"2. c #751010",
"3. c #771010",
"4. c #781010",
"5. c #791010",
"6. c #2D7676",
"7. c #427F7F",
"8. c #5A7979",
"9. c #810E0E",
"0. c #830E0E",
"q. c #830F0F",
"w. c #870D0D",
"e. c #860E0E",
"r. c #870E0E",
"t. c #890D0D",
"y. c #8A0D0D",
"u. c #8B0D0D",
"i. c #8C0D0D",
"p. c #8D0D0D",
"a. c #8F0D0D",
"s. c #8C0E0E",
"d. c #930C0C",
"f. c #940C0C",
"g. c #950C0C",
"h. c #960C0C",
"j. c #970C0C",
"k. c #9C0B0B",
"l. c #980C0C",
"z. c #990C0C",
"x. c #A10B0B",
"c. c #A50A0A",
"v. c #A70A0A",
"b. c #A60B0B",
"n. c #A80A0A",
"m. c #A90A0A",
"M. c #AA0A0A",
"N. c #AB0A0A",
"B. c #AF0909",
"V. c #AC0A0A",
"C. c #BF0707",
"Z. c #B00909",
"A. c #B20909",
"S. c #B30909",
"D. c #B40808",
"F. c #B40909",
"G. c #B60808",
"H. c #B80808",
"J. c #BB0808",
"K. c #BE0808",
"L. c #C00707",
"P. c #C10707",
"I. c #C20707",
"U. c #C30707",
"Y. c #C50707",
"T. c #C70606",
"R. c #C90707",
"E. c #CA0606",
"W. c #CB0606",
"Q. c #CD0606",
"!. c #CF0606",
"~. c #D10505",
"^. c #D30505",
"/. c #D50505",
"(. c #D60505",
"). c #D70505",
"_. c #D90404",
"`. c #D90505",
"'. c #DA0404",
"]. c #DA0505",
"[. c #DC0404",
"{. c #DD0404",
"}. c #E20303",
"|. c #E30303",
" X c #E40000",
".X c #E50000",
"XX c #E40303",
"oX c #E50303",
"OX c #E70303",
"+X c #E00404",
"@X c #EB0000",
"#X c #EA0202",
"$X c #EB0202",
"%X c #EC0202",
"&X c #EE0202",
"*X c #F10101",
"=X c #F00202",
"-X c #F10202",
";X c #F20202",
":X c #F30202",
">X c #F50000",
",X c #F40101",
"<X c #F70000",
"1X c #F70101",
"2X c #F80101",
"3X c #F90101",
"4X c #FA0000",
"5X c #FB0000",
"6X c #FD0000",
"7X c #FC0101",
"8X c #FE0000",
"9X c red",
"0X c #FF1616",
"qX c #F02929",
"wX c #F03636",
"eX c #9D4141",
"rX c #866666",
"tX c #DF4949",
"yX c IndianRed",
"uX c #E84848",
"iX c #FF6868",
"pX c #4A8181",
"aX c #81B6B6",
"sX c #EA9E9E",
"dX c #D9BFBF",
"fX c #F1A1A1",
"gX c #9DE2E2",
"hX c #CEF1F1",
"jX c #E7E8E8",
"kX c #F5E2E2",
"lX c None",
/* pixels */
"lXlXlXlXlXlXlXlXlXlXlXlXlXlXlXlXlXlXlXlXlXlXlXlXlXlXlXlXlXlXlXlXlXlXlXlXlXlXlXlXlXlXlXlXlXlXlXlXlXlX",
"lXlXlXlXlXlXlXlXlXlXlXlXlXlXlXlXlXlXlXlXlXlXlXlXlXlXlXlXlXlXlXlXlXlXlXlXlXlXlXlXlXlXlXlXlXlXlXlXlXlX",
"lXlXlXlXlXlXlXlXlXlXlXlXlXlXlXlXlXlXlXlXlXlXlXlXlXlXlXlXlXlXlXlXlXlXlXlXlXlXlXlXlXlXlXlXlXlXlXlXlXlX",
"lXlXlXlXlXlXlXlXlXlXlXlXlXlXlXlXlXlXlXlXlXlXlXlXlXlXlXlXlXlXlXlXlXlXlXlXlXlXlXlXlXlXlXlXlXlXlXlXlXlX",
"lXlXlXlXlXlXlXlXlXlXlXlXlXlXlXlXlXlXlXlXlXlXlXlXlXlXlXlXlXlXlXlXlXlXlXlXlXlXlXlXlXlXlXlXlXlXlXlXlXlX",
"lXlXlXlXlXlXlXlXlXlXlXlXlXlXlXlXlXlXlXlXlXlXlXlXlXlXlXlXlXlXlXlXlXlXlXlXlXlXlXlXlXlXlXlXlXlXlXlXlXlX",
"lXlXlXlXlXlXlXlXlXlXlXlXlXlXlXlXlXlXlXlXlXlXlXlXlXlXlXlXlXlXlXlXlXlXlXlXlXlXlXlXlXlXlXlXlXlXlXlXlXlX",
"lXlXlXlXlXlXlXlXlXlXlXlXlXlXlXlXlXlXlXlXlXlXlXlXlXlXlXlXlXlXlXlXlXlXlXlXlXlXlXlXlXlXlXlXlXlXlXlXlXlX",
"lXlXlXlXlXlXlXlXlXlXlXlXlXlXlXlXlXlXlXlXlXlXlXlXlXlXlXlXlXlXlXlXlXlXlXlXlXlXlXlXlXlXlXlXlXlXlXlXlXlX",
"lXlXlXlXlXlXlXlXlXlXlXlXlXlXlXlXlXlXlXlXlXlXlXlXlXlXlXlXlXlXlXlXlXlXlXlXlXlXlXlXlXlXlXlXlXlXlXlXlXlX",
"lXlXlXlXlXlXlXlXlXlXlXlXlXlXlXlXlXlXlXlXlXlXlXlXlXlXlXlXlXlXlXlXlXlXlXlXlXlXlXlXlXlXlXlXlXlXlXlXlXlX",
"lXlXlXlXlXlXlXlXlXlXlXlXlXlXlXlXlXlXlX# t b V k q = lXlXlXlXlXlXlXlXlXlXlXlXlXlXlXlXlXlXlXlXlXlXlXlX",
"lXlXlXlXlXlXlXlXlXlXlXlXlXlXlXlXlXu #.E.:X9X9X3X#X`.L.h.2.( j * lXlXlXlXlXlXlXlXlXlXlXlXlXlXlXlXlXlX",
"lXlXlXlXlXlXlXlXlXlXlXlXlXlXlXO t.8X9X9X9X9X9X9X9X9X9X9X9X9X4X{.J.s.-.~ s 1 lXlXlXlXlXlXlXlXlXlXlXlX",
"lXlXlXlXlXlXlXlXlXlXlXlXlXlX3 ~.9X9X9X9X9X9X9X9X9X9X9X9X9X9X9X9X9X9X9X9X1X[.T.B.f.e.V.g.3 lXlXlXlXlX",
"lXlXlXlXlXlXlXlXlXlXlXlXlX7 [.9X9X9X9X9X9X9X9X9X9X9X9X9X9X9X9X9X9X9X9X9X9X9X9X9X9X9X9Xy.lXlXlXlXlXlX",
"lXlXlXlXlXlXlXlXlXlXlXlXX L.9X9X9X9X9X9X9X9X9X9X9X9X9X9X9X9X9X9X9X9X9X9X9X9X2X).A.5.0 lXlXlXlXlXlXlX",
"lXlXlXlXlXlXlXlXlXlXlXlX1.9X9X9X9X9X9X9X9X9X9X9X9X9X9X9X9X9X9X9X9XR.b b b c a > lXlXlXlXlXlXlXlXlXlX",
"lXlXlXlXlXlXlXlXlXlXlX5 +X9X9X9X9X9X9X9X9X9X9X9X9X9X9X9X9X9X9X9X9XW.z 9 2 X lXlXlXlXlXlXlXlXlXlXlXlX",
"lXlXlXlXlXlXlXlXlXlXlX$.9X9X9X0XiXqX>X9X9X9X9X9X9X9X9X9X9X9X9X9X9X9X9X-XQ.n.y.X.9 3 lXlXlXlXlXlXlXlX",
"lXlXlXlXlXlXlXlXlXlXlXm.9X9X0XrX7.hXuX9X9X9X9X9X9X9X9X9X9X9X9X9X9XY.# 8 lXC Z v lXlXlXlXlXlXlXlXlXlX",
"lXlXlXlXlXlXlXlXlXlX= /.9X9XyX6.  8.kX@X9X9X9X9X9X9X9X9X9X9X9X9X9X=XR + lXlXlXlXlXlXlXlXlXlXlXlXlXlX",
"lXlXlXlXlXlXlXlXlXlXe $X9X9XeXaXK J jX X9X9X9X9X9X9X9X9X9X9X9X9X9X9X9X].d.&.W L m v E [ x 3 lXlXlXlX",
"lXlXlXlXlXlXlXlXlXlXd ,X9X9XwXpXG gXfX<X9X9X9X9X9X9X9X9X9X9X9X9X9X9X9X9X9X9X9X9X9X9X;Xz.S * lXlXlXlX",
"lXlXlXlXlXlXlXlXlXlXr %X9X9X9XtXdXsX.X9X9X9X9X9X9X9X9X9X9X9X9X9X9X9X9X9X9X9X9X9X|.#.p lXlXlXlXlXlXlX",
"lXlXlXlXlXlXlXlXlXlX< (.9X9X9X9X8X5X9X9X9X9X9X9X9X9X9X9X9X9X9X9X9X9X9X9X9X7XM.E X lXlXlXlXlXlXlXlXlX",
"lXlXlXlXlXlXlXlXlXlXlXN.9X9X9X9X9X9X9X9X9X9X9X9X9X9X9X9X9X9X9X9X9X9X9X1Xp.y lXlXlXlXlXlXlXlXlXlXlXlX",
"lXlXlXlXlXlXlXlXlXlXlX*.9X9X9X9X9X8X6X9X9X9X9X9X9X9X9X9X9X9X9X9X9X9Xw.O lXlXlXlXlXlXlXlXlXlXlXlXlXlX",
"lXlXlXlXlXlXlXlXlXlXlX6 XX9X9X9X9X .Y 9X9X9X9X9X9X9X9X9X9X9X9X9X9X9XB - I o.a.n.i.( y 3 lXlXlXlXlXlX",
"lXlXlXlXlXlXlXlXlXlXlXlXX.C.l.5.w 4 U.9X9X9X9X9X9X9X9X9X9X9X9X9X9X9X9X9X9X9X-Xx.) lXlXlXlXlXlXlXlXlX",
"lXlXlXlXlXlXlXlXlXlXlXlX+ g $.L j.9X9X9X9X9X9X9X9X9X9X9X9X9X9X9X9X9X9X9XS.Q o lXlXlXlXlXlXlXlXlXlXlX",
"lXlXlXlXlXlXlXlXlXlXlXlXlXv ;X9X9X9X9X9X9X9X9X9X9X9X9X9X9X9X9X9X9XoXr.s lXlXlXlXlXlXlXlXlXlXlXlXlXlX",
"lXlXlXlXlXlXlXlXlXlXlXlXlXlX0 '.9X9X9X9X9X9X9X9X9X9X9X9X9X9X9XH.{ : lXlXlXlXlXlXlXlXlXlXlXlXlXlXlXlX",
"lXlXlXlXlXlXlXlXlXlXlXlXlXlXlX@ f.9X9X9X9X9X9X9X9X9X9X9X).9.h lXlXlXlXlXlXlXlXlXlXlXlXlXlXlXlXlXlXlX",
"lXlXlXlXlXlXlXlXlXlXlXlXlXlXlXlXlXd p.Q.^.oX9X;X(.j.%.n % lXlXlXlXlXlXlXlXlXlXlXlXlXlXlXlXlXlXlXlXlX",
"lXlXlXlXlXlXlXlXlXlXlXlXlXlXlXlXlXlXlX& _ @.( w k 0.c.f lXlXlXlXlXlXlXlXlXlXlXlXlXlXlXlXlXlXlXlXlXlX",
"lXlXlXlXlXlXlXlXlXlXlXlXlXlXlXlXlXlXlX] 9X9XM b.3.U.9Xq.lXlXlXlXlXlXlXlXlXlXlXlXlXlXlXlXlXlXlXlXlXlX",
"lXlXlXlXlXlXlXlXlXlXlXlXlXlXlXlXlXlX- ).9Xa./ 9X4.o.9X/.> lXlXlXlXlXlXlXlXlXlXlXlXlXlXlXlXlXlXlXlXlX",
"lXlXlXlXlXlXlXlXlXlXlXlXlXlXlXlXlXlX<.9X8XA K.9X+., 9X9X' lXlXlXlXlXlXlXlXlXlXlXlXlXlXlXlXlXlXlXlXlX",
"lXlXlXlXlXlXlXlXlXlXlXlXlXlXlXlXlXl ;X9X;.^ 9X9X=.F K.9XD.. lXlXlXlXlXlXlXlXlXlXlXlXlXlXlXlXlXlXlXlX",
"lXlXlXlXlXlXlXlXlXlXlXlXlXlXlXlXlX$.9X*X+ e.9X9XU H O.9X_.= lXlXlXlXlXlXlXlXlXlXlXlXlXlXlXlXlXlXlXlX",
"lXlXlXlXlXlXlXlXlXlXlXlXlXlXlXlXlX8 j.} F G.9XOX! f.Q =.m D lXlXlXlXlXlXlXlXlXlXlXlXlXlXlXlXlXlXlXlX",
"lXlXlXlXlXlXlXlXlXlXlXlXlXlXlXlXlXlXlXlX> !.9XP.` 9X1Xv.n.r.I $ lXlXlXlXlXlXlXlXlXlXlXlXlXlXlXlXlXlX",
"lXlXlXlXlXlXlXlXlXlXlXlXlXlXlXlXlXlXlXlXi &X9Xv.| 9X9X9X9X9X9X;X:.lXlXlXlXlXlXlXlXlXlXlXlXlXlXlXlXlX",
"lXlXlXlXlXlXlXlXlXlXlXlXlXlXlXlXlXlXlXlXP 9X9XN.$ ,.I.2X9X9X9X9X$X9 lXlXlXlXlXlXlXlXlXlXlXlXlXlXlXlX",
"lXlXlXlXlXlXlXlXlXlXlXlXlXlXlXlXlXlXlXlX} 9X9Xj.lXlXlXy ..k.|.9XF.; lXlXlXlXlXlXlXlXlXlXlXlXlXlXlXlX",
"lXlXlXlXlXlXlXlXlXlXlXlXlXlXlXlXlXlXlXlX>.9X9X4.lXlXlXlXlXlX3 N 3 lXlXlXlXlXlXlXlXlXlXlXlXlXlXlXlXlX",
"lXlXlXlXlXlXlXlXlXlXlXlXlXlXlXlXlXlXlXlXu.9X9X$.lXlXlXlXlXlXlXlXlXlXlXlXlXlXlXlXlXlXlXlXlXlXlXlXlXlX",
"lXlXlXlXlXlXlXlXlXlXlXlXlXlXlXlXlXlXlXlXZ.9X9XT lXlXlXlXlXlXlXlXlXlXlXlXlXlXlXlXlXlXlXlXlXlXlXlXlXlX",
"lXlXlXlXlXlXlXlXlXlXlXlXlXlXlXlXlXlXlXlXg.9X}.8 lXlXlXlXlXlXlXlXlXlXlXlXlXlXlXlXlXlXlXlXlXlXlXlXlXlX"
};
