/* XPM */
static char *result[] = {
/* columns rows colors chars-per-pixel */
"50 50 237 2 ",
"   c #000001",
".  c #000505",
"X  c #001D1D",
"o  c #011D1D",
"O  c #021D1D",
"+  c #031D1D",
"@  c #001E1E",
"#  c #001F1F",
"$  c #051C1C",
"%  c #051D1D",
"&  c #071C1C",
"*  c #0E1B1B",
"=  c #081C1C",
"-  c #091D1D",
";  c #0C1C1C",
":  c #101B1B",
">  c #111B1B",
",  c #121B1B",
"<  c #131B1B",
"1  c #141B1B",
"2  c #151B1B",
"3  c #161A1A",
"4  c #171B1B",
"5  c #191A1A",
"6  c gray10",
"7  c #1A1B1B",
"8  c #1F1919",
"9  c #1C1A1A",
"0  c #1E1A1A",
"q  c #2E1717",
"w  c #2F1717",
"e  c #211919",
"r  c #211A1A",
"t  c #241919",
"y  c #251919",
"u  c #271818",
"i  c #261919",
"p  c #271A1A",
"a  c #291818",
"s  c #281919",
"d  c #2C1818",
"f  c #2E1818",
"g  c #2F1818",
"h  c #301717",
"j  c #311717",
"k  c #321717",
"l  c #3B1616",
"z  c #3B1717",
"x  c #3C1616",
"c  c #3D1616",
"v  c #3C1717",
"b  c #311818",
"n  c #321818",
"m  c #331818",
"M  c #002020",
"N  c #002222",
"B  c #002323",
"V  c #002525",
"C  c #421515",
"Z  c #431515",
"A  c #401616",
"S  c #421616",
"D  c #431717",
"F  c #441515",
"G  c #451515",
"H  c #461515",
"J  c #471515",
"K  c #481515",
"L  c #491515",
"P  c #4C1515",
"I  c #521313",
"U  c #541313",
"Y  c #551313",
"T  c #511414",
"R  c #521414",
"E  c #531414",
"W  c #541414",
"Q  c #581313",
"!  c #591313",
"~  c #5B1313",
"^  c #5D1313",
"/  c #780F0F",
"(  c #790F0F",
")  c #7B0F0F",
"_  c #7C0F0F",
"`  c #7F0E0E",
"'  c #601212",
"]  c #631212",
"[  c #651212",
"{  c #681111",
"}  c #6B1111",
"|  c #681212",
" . c #6F1010",
".. c #6E1111",
"X. c #6F1111",
"o. c #721010",
"O. c #741010",
"+. c #751010",
"@. c #771010",
"#. c #761111",
"$. c #7C1010",
"%. c #124747",
"&. c #0A5454",
"*. c #255E5E",
"=. c #216666",
"-. c #206B6B",
";. c #397272",
":. c #716969",
">. c #6A7F7F",
",. c #717777",
"<. c #7E7575",
"1. c #800E0E",
"2. c #810E0E",
"3. c #810F0F",
"4. c #840E0E",
"5. c #850E0E",
"6. c #860E0E",
"7. c #870E0E",
"8. c #8B0D0D",
"9. c #890E0E",
"0. c #8B0E0E",
"q. c #8D0D0D",
"w. c #8E0D0D",
"e. c #8F0D0D",
"r. c #900C0C",
"t. c #900D0D",
"y. c #920C0C",
"u. c #930C0C",
"i. c #940C0C",
"p. c #950C0C",
"a. c #9E0B0B",
"s. c #9F0B0B",
"d. c #9A0C0C",
"f. c #9B0C0C",
"g. c #A00B0B",
"h. c #A40A0A",
"j. c #A70A0A",
"k. c #AB0909",
"l. c #A80A0A",
"z. c #A90A0A",
"x. c #AD0909",
"c. c #AE0909",
"v. c #AF0909",
"b. c #AC0A0A",
"n. c #B30909",
"m. c #B40808",
"M. c #B60808",
"N. c #B70808",
"B. c #BA0808",
"V. c #BB0808",
"C. c #BD0808",
"Z. c #C00707",
"A. c #C60606",
"S. c #C70606",
"D. c #C60707",
"F. c #C90606",
"G. c #C80707",
"H. c #CA0606",
"J. c #CB0606",
"K. c #CD0505",
"L. c #CC0606",
"P. c #CE0606",
"I. c #C00808",
"U. c #C10808",
"Y. c #D00505",
"T. c #D30505",
"R. c #D40505",
"E. c #D50505",
"W. c #D60404",
"Q. c #D60505",
"!. c #D70505",
"~. c #D90505",
"^. c #DB0404",
"/. c #DC0404",
"(. c #DD0404",
"). c #DE0404",
"_. c #E20303",
"`. c #E40303",
"'. c #E50303",
"]. c #E60303",
"[. c #E70303",
"{. c #E20404",
"}. c #E90202",
"|. c #E90303",
" X c #EB0202",
".X c #EC0000",
"XX c #ED0202",
"oX c #F20101",
"OX c #F30101",
"+X c #F10202",
"@X c #F20202",
"#X c #F30202",
"$X c #F60000",
"%X c #F70000",
"&X c #FA0000",
"*X c #FB0000",
"=X c #FA0101",
"-X c #FC0000",
";X c #FD0000",
":X c #FC0101",
">X c red",
",X c #FF0808",
"<X c #FE0A0A",
"1X c #FF1111",
"2X c #FF1A1A",
"3X c #FF1D1D",
"4X c #FF1E1E",
"5X c #EE2525",
"6X c #E92929",
"7X c #F12D2D",
"8X c #F62F2F",
"9X c #FF2828",
"0X c #EC3333",
"qX c #855252",
"wX c #856A6A",
"eX c #977979",
"rX c #AE6464",
"tX c #CD5B5B",
"yX c #DF5F5F",
"uX c #E34646",
"iX c #E45353",
"pX c #DC7979",
"aX c #FA7474",
"sX c #4E8383",
"dX c #65B2B2",
"fX c #7ABEBE",
"gX c #8E9999",
"hX c #84B7B7",
"jX c #A1AFAF",
"kX c #E58686",
"lX c #F58181",
"zX c #E5A0A0",
"xX c #FFA4A4",
"cX c #FFBCBC",
"vX c #ABF9F9",
"bX c #CEF3F3",
"nX c None",
/* pixels */
"nXnXnXnXnXnXnXnXnXnXnXnXnXnXnXnXnXnXnXnXnXnXnXnXnXnXnXnXnXnXnXnXnXnXnXnXnXnXnXnXnXnXnXnXnXnXnXnXnXnX",
"nXnXnXnXnXnXnXnXnXnXnXnXnXnXnXnXnXnXnXnXnX5 5 nXnXnXnXnXnXnXnXnXnXnXnXnXnXnXnXnXnXnXnXnXnXnXnXnXnXnX",
"nXnXnXnXnXnXnXnXnXnXnXnXnXnXnXnXnXnXnXnXnX; 1 nXnXnXnXnXnXnXnX6 nXnXnXnXnXnXnXnXnXnXnXnXnXnXnXnXnXnX",
"nXnXnXnXnXnXnXnXnXnXnXnXnXnXnXnXnXnXnXnXnXl k nXnXnXnXnXnXnX2 2 nXnXnXnXnXnXnXnXnXnXnXnXnXnXnXnXnXnX",
"nXnXnXnXnXnXnXnXnXnXnXnXnXnXnXnXnXnX6 nXnXZ.I nXnXnXnX> nXnX8 t nXnXnXnXnXnXnXnXnXnXnXnXnXnXnXnXnXnX",
"nXnXnXnXnXnXnXnXnXnXnXnXnXnXnXnXnX< 3 nXF >XK nXnXnXe y nXnXU T nXnXnXnXnXnXnXnXnXnXnXnXnXnXnXnXnXnX",
"nXnXnXnXnXnXnXnXnXnXnXnXnXnXnXnXnXi b nXa.>XQ nXnXnXH ..nXnX8._ nXnXnXnXnXnXnXnXnXnXnXnXnXnXnXnXnXnX",
"nXnXnXnXnXnXnXnXnXnXnXnXnXnXnXnXnX~ q ; #X>X7.nXr @ L x.nXnXA.x.nXnXnXnXnXnXnXnXnXnXnXnXnXnXnXnXnXnX",
"nXnXnXnXnXnXnXnXnXnXnXnXnXnXnXnXg p.M } >X>Xk.nXQ 4.q.!.nXnX&XL.nXnXnXnXnXnXnXnXnXnXnXnXnXnXnXnXnXnX",
"nXnXnXnXnXnXnXnXnXnXnXnXnXnXnXnXw.b.N Q.>X>X].B U >X>X_.X 3 >XoX* nXnXnXnXnXnXnXnXnXnXnXnXnXnXnXnXnX",
"nXnXnXnXnXnXnXnXnXnXnXnXnXnXnX% |.P y >X>X>X>X1.B.>X>X>X@ j >X>Xx nXnXnXnXnXnXnXnXnXnXnXnXnXnXnXnXnX",
"nXnXnXnXnXnXnXnXnXnXnXnXnXnXnX' >X# h.>X>X>X>X>X>X>X>X>Xq.c.>X>X+.nXnXnXnXnXnXnXnXnXnXnXnXnXnXnXnXnX",
"nXnXnXnXnXnXnXnXnXnXnXnXnXnX# J.>Xs.>X>X>X>X>X>X>X>X>X>X>X>X>X>Xn.nXnXnXnXnXnXnXnXnXnXnXnXnXnXnXnXnX",
"nXnXnXnXnXnXnXnXnXnXnXnXnXnXc >X>X>X>X>X>X>X>X>X>X>X>X>X>X>X>X>X@X6 nXnXnXnXnXnXnXnXnXnXnXnXnXnXnXnX",
"nXnXnXnXnXnXnXnXnXnXnXnXnXnXx.>X>X>X>X>X>X>X>X>X>X>X>X>X>X>X>X>X>XU nXnXnXnXnXnXnXnXnXnXnXnXnXnXnXnX",
"nXnXnXnXnXnXnXnXnXnXnXnXnXu >X>X>X>X>X>X>X>X>X>X>X>X>X>X>X>X>X>X>Xi.nXnXnXnXnXnXnXnXnXnXnXnXnXnXnXnX",
"nXnXnXnXnXnXnXnXnXnXnXnXnX5.>X>X>X>X>X>X>X>X>X>X>X>X>X>X>X>X>X>X>XY.$ nXnXnXnXnXnXnXnXnXnXnXnXnXnXnX",
"nXnXnXnXnXnXnXnXnXnXnXnX= (.>X>X>X%X9X1X>X>X>X>X>X>X>X2X>X>X>X>X>X>Xw nXnXnXnXnXnXnXnXnXnXnXnXnXnXnX",
"nXnXnXnXnXnXnXnXnXnXnXnXG >X>X>X.XzXgX:.7X>X>X>X>X4XqX<.pX%X>X>X>X>X^ nXnXnXnXnXnXnXnXnXnXnXnXnXnXnX",
"nXnXnXnXnXnXnXnXnXnXnXnX/ >X>X;XlXvX  %.eX,X>X>X>XrX&.. dXaX>X>X>X>Xr.nXnXnXnXnXnXnXnXnXnXnXnXnXnXnX",
"nXnXnXnXnXnXnXnXnXnXnXnXl.>X>X*XcXfX  >.,.<X>X>X>XwXhX  -.xX>X>X>X>Xc.nXnXnXnXnXnXnXnXnXnXnXnXnXnXnX",
"nXnXnXnXnXnXnXnXnXnXnXO H.>X>X>X0XbX;.=.tX>X>X>X>XuXsX*.jX8X>X>X>X>XI.X nXnXnXnXnXnXnXnXnXnXnXnXnXnX",
"nXnXnXnXnXnXnXnXnXnXnX+ K.>X>X>X$X5XkXiX>X>X>X>X>X>X6XyX3X&X>X>X>X>XD.o nXnXnXnXnXnXnXnXnXnXnXnXnXnX",
"nXnXnXnXnXnXnXnXnXnXnXnXN.>X>X>X>X>X>X>X>X>X>X>X>X>X>X>X>X>X>X>X>X>XB.@ nXnXnXnXnXnXnXnXnXnXnXnXnXnX",
"nXnXnXnXnXnXnXnXnXnXnXnX9.>X>X>X>X>X>X>X>X>X>X>X>X>X>X>X>X>X>X>X>X>Xt.nXnXnXnXnXnXnXnXnXnXnXnXnXnXnX",
"nXnXnXnXnXnXnXnXnXnXnXnXZ >X>X>X>X>X>X>X>X>X>X>X>X>X>X>X>X>X>X>X>X>XS nXnXnXnXnXnXnXnXnXnXnXnXnXnXnX",
"nXnXnXnXnXnXnXnXnXnXnXnX@ L.>X>X>X>X>Xl.] >X>X>X>X>X>X>X>X>X>X>X>XP.@ nXnXnXnXnXnXnXnXnXnXnXnXnXnXnX",
"nXnXnXnXnXnXnXnXnXnXnXnXnXz >X>X>X>X>XS.7 p 7.R.`.F.+X>X>X>X>X>X>Xv nXnXnXnXnXnXnXnXnXnXnXnXnXnXnXnX",
"nXnXnXnXnXnXnXnXnXnXnXnXnXnX_ >X>X>X>X>X>X3.m f s h ).>X>X>X>X>X` nXnXnXnXnXnXnXnXnXnXnXnXnXnXnXnXnX",
"nXnXnXnXnXnXnXnXnXnXnXnXnXnX# 9.>X>X>X>X>X>X>X}.^.OX>X>X>X>X>X0.# nXnXnXnXnXnXnXnXnXnXnXnXnXnXnXnXnX",
"nXnXnXnXnXnXnXnXnXnXnXnXnXnXnX# W T.>X>X>X>X>X>X>X>X>X>X>X}.[ M nXnXnXnXnXnXnXnXnXnXnXnXnXnXnXnXnXnX",
"nXnXnXnXnXnXnXnXnXnXnXnXnXnXnXnXX J #.G.>X>X>X>X>X>X>XU.O.< nXnXnXnXnXnXnXnXnXnXnXnXnXnXnXnXnXnXnXnX",
"nXnXnXnXnXnXnXnXnXnXnXnXnXnXnXnX1.+X$.D ! ..3.6.2.X.T | f.q.nXnXnXnXnXnXnXnXnXnXnXnXnXnXnXnXnXnXnXnX",
"nXnXnXnXnXnXnXnXnXnXnXnXnXnXnXO E.>Xm.M.Y.s.e.7.e.s.F.W.>X>XA nXnXnXnXnXnXnXnXnXnXnXnXnXnXnXnXnXnXnX",
"nXnXnXnXnXnXnXnXnXnXnXnXnXnXnXL >X>Xa V.>X>X>X>X>X>X>XE y.>X/.@ nXnXnXnXnXnXnXnXnXnXnXnXnXnXnXnXnXnX",
"nXnXnXnXnXnXnXnXnXnXnXnXnXnXnXz.>XC.# R.>X>X>X>X>X>X>XY ; >X>X@.nXnXnXnXnXnXnXnXnXnXnXnXnXnXnXnXnXnX",
"nXnXnXnXnXnXnXnXnXnXnXnXnXnXa :X>XQ M ~.>X>X>X>X>X>X>X) V u.>X*Xn nXnXnXnXnXnXnXnXnXnXnXnXnXnXnXnXnX",
"nXnXnXnXnXnXnXnXnXnXnXnXnXnX5.>X=X% nXQ.>X>X>X>X>X>X>X( nX% XX>Xq.nXnXnXnXnXnXnXnXnXnXnXnXnXnXnXnXnX",
"nXnXnXnXnXnXnXnXnXnXnXnXnXnXx v.{ nXnXQ.>X>X>X>X>X>X>X/ nXnXC 2.d nXnXnXnXnXnXnXnXnXnXnXnXnXnXnXnXnX",
"nXnXnXnXnXnXnXnXnXnXnXnXnXnXnXnXnXnX> Q.>X>X>X>X>X>X>X/ nXnXnXnXnXnXnXnXnXnXnXnXnXnXnXnXnXnXnXnXnXnX",
"nXnXnXnXnXnXnXnXnXnXnXnXnXnXnXnXnXnX: Q.>X>X>X>X>X>X>X/ nXnXnXnXnXnXnXnXnXnXnXnXnXnXnXnXnXnXnXnXnXnX",
"nXnXnXnXnXnXnXnXnXnXnXnXnXnXnXnXnXnX: Q.>X>X>X>X>X>X>X/ nXnXnXnXnXnXnXnXnXnXnXnXnXnXnXnXnXnXnXnXnXnX",
"nXnXnXnXnXnXnXnXnXnXnXnXnXnXnXnXnXnX: Q.>X>X[.P.-X>X>X/ nXnXnXnXnXnXnXnXnXnXnXnXnXnXnXnXnXnXnXnXnXnX",
"nXnXnXnXnXnXnXnXnXnXnXnXnXnXnXnXnXnX: Q.>X X0 N _ >X>X/ nXnXnXnXnXnXnXnXnXnXnXnXnXnXnXnXnXnXnXnXnXnX",
"nXnXnXnXnXnXnXnXnXnXnXnXnXnXnXnXnXnX: Q.>X!.nXnX! >X>X/ nXnXnXnXnXnXnXnXnXnXnXnXnXnXnXnXnXnXnXnXnXnX",
"nXnXnXnXnXnXnXnXnXnXnXnXnXnXnXnXnXnX: Q.>X(.1 nX{ >X>X/ nXnXnXnXnXnXnXnXnXnXnXnXnXnXnXnXnXnXnXnXnXnX",
"nXnXnXnXnXnXnXnXnXnXnXnXnXnXnXnXnXnX: Q.>X(.1 nX{ >X>X/ nXnXnXnXnXnXnXnXnXnXnXnXnXnXnXnXnXnXnXnXnXnX",
"nXnXnXnXnXnXnXnXnXnXnXnXnXnXnXnXnXnX, (.>X'.4 nX .>X>X1.nXnXnXnXnXnXnXnXnXnXnXnXnXnXnXnXnXnXnXnXnXnX",
"nXnXnXnXnXnXnXnXnXnXnXnXnXnXnXnXnXnX& {.>X[.- nX' >X>Xo.nXnXnXnXnXnXnXnXnXnXnXnXnXnXnXnXnXnXnXnXnXnX",
"nXnXnXnXnXnXnXnXnXnXnXnXnXnXnXnXnXnXnXR j.Y nXnX4 d.g.9 nXnXnXnXnXnXnXnXnXnXnXnXnXnXnXnXnXnXnXnXnXnX"
};
