/* XPM */
static char *result[] = {
/* columns rows colors chars-per-pixel */
"50 50 222 2 ",
"   c black",
".  c #001D1D",
"X  c #031D1D",
"o  c #001E1E",
"O  c #011E1E",
"+  c #001F1F",
"@  c #061D1D",
"#  c #0A1B1B",
"$  c #0D1B1B",
"%  c #0E1B1B",
"&  c #081C1C",
"*  c #091C1C",
"=  c #0A1C1C",
"-  c #0B1C1C",
";  c #0E1C1C",
":  c #101B1B",
">  c #121B1B",
",  c #131B1B",
"<  c #141B1B",
"1  c #151B1B",
"2  c #161A1A",
"3  c #101C1C",
"4  c #161C1C",
"5  c #181A1A",
"6  c #181B1B",
"7  c gray10",
"8  c #1A1B1B",
"9  c #1F1919",
"0  c #1C1A1A",
"q  c #1D1A1A",
"w  c #201919",
"e  c #211919",
"r  c #231919",
"t  c #261919",
"y  c #281818",
"u  c #291818",
"i  c #281919",
"p  c #2A1818",
"a  c #2A1919",
"s  c #2C1818",
"d  c #2E1818",
"f  c #301717",
"g  c #311717",
"h  c #321717",
"j  c #331717",
"k  c #341717",
"l  c #351717",
"z  c #361717",
"x  c #371717",
"c  c #391616",
"v  c #381717",
"b  c #391717",
"n  c #3B1616",
"m  c #3A1717",
"M  c #3B1717",
"N  c #3C1616",
"B  c #3D1616",
"V  c #3E1616",
"C  c #3F1616",
"Z  c #301818",
"A  c #311818",
"S  c #331818",
"D  c #002020",
"F  c #002121",
"G  c #421515",
"H  c #411616",
"J  c #411717",
"K  c #441515",
"L  c #451515",
"P  c #471515",
"I  c #441616",
"U  c #481515",
"Y  c #491515",
"T  c #4A1515",
"R  c #4B1515",
"E  c #4A1616",
"W  c #4C1515",
"Q  c #4D1515",
"!  c #4E1414",
"~  c #4F1414",
"^  c #4E1515",
"/  c #551313",
"(  c #561212",
")  c #561313",
"_  c #571313",
"`  c #511414",
"'  c #521414",
"]  c #591313",
"[  c #5A1313",
"{  c #5B1313",
"}  c #5D1212",
"|  c #5F1212",
" . c #5E1313",
".. c #780F0F",
"X. c #7B0F0F",
"o. c #7D0E0E",
"O. c #7F0E0E",
"+. c #7E0F0F",
"@. c #621111",
"#. c #611212",
"$. c #631212",
"%. c #661111",
"&. c #6A1111",
"*. c #6C1111",
"=. c #6D1111",
"-. c #6F1010",
";. c #731010",
":. c #751111",
">. c #761010",
",. c #0F4646",
"<. c #234848",
"1. c #1C6B6B",
"2. c #795555",
"3. c #5D6D6D",
"4. c #810E0E",
"5. c #810F0F",
"6. c #860E0E",
"7. c #870E0E",
"8. c #880D0D",
"9. c #880E0E",
"0. c #8A0E0E",
"q. c #8B0E0E",
"w. c #8E0D0D",
"e. c #910C0C",
"r. c #910D0D",
"t. c #930C0C",
"y. c #920D0D",
"u. c #940C0C",
"i. c #950C0C",
"p. c #960C0C",
"a. c #970C0C",
"s. c #9B0B0B",
"d. c #9C0B0B",
"f. c #9D0B0B",
"g. c #9E0B0B",
"h. c #980C0C",
"j. c #9B0C0C",
"k. c #A20A0A",
"l. c #A20B0B",
"z. c #A30B0B",
"x. c #A50A0A",
"c. c #A40B0B",
"v. c #A90A0A",
"b. c #AA0A0A",
"n. c #AE0909",
"m. c #AF0909",
"M. c #BF0707",
"N. c #B00909",
"B. c #B10909",
"V. c #B20909",
"C. c #B30909",
"Z. c #B80808",
"A. c #BB0808",
"S. c #C00707",
"D. c #C60606",
"F. c #C70606",
"G. c #C90606",
"H. c #CB0606",
"J. c #CE0606",
"K. c #D20505",
"L. c #D00606",
"P. c #D50505",
"I. c #D60505",
"U. c #DA0404",
"Y. c #DB0404",
"T. c #DC0404",
"R. c #DD0404",
"E. c #DF0404",
"W. c #E00303",
"Q. c #E30303",
"!. c #E40303",
"~. c #E50303",
"^. c #E70303",
"/. c #E90202",
"(. c #E80303",
"). c #E90303",
"_. c #EA0202",
"`. c #EB0202",
"'. c #EF0000",
"]. c #EC0202",
"[. c #EE0202",
"{. c #EF0202",
"}. c #EA0D0D",
"|. c #F10000",
" X c #F20101",
".X c #F30101",
"XX c #F00202",
"oX c #F20202",
"OX c #F40000",
"+X c #F40101",
"@X c #F50101",
"#X c #F60101",
"$X c #F70101",
"%X c #F40202",
"&X c #F90000",
"*X c #F90101",
"=X c #FA0101",
"-X c #FB0101",
";X c #FC0000",
":X c #FD0000",
">X c #FE0000",
",X c red",
"<X c #FF0101",
"1X c #FD0707",
"2X c #FF2323",
"3X c #F63838",
"4X c #A86A6A",
"5X c #D25C5C",
"6X c #ED5656",
"7X c #FF5353",
"8X c #CD6A6A",
"9X c #EA6262",
"0X c #5A9090",
"qX c #709696",
"wX c #7FA1A1",
"eX c #D4A7A7",
"rX c #F9A5A5",
"tX c #98E0E0",
"yX c #E1CDCD",
"uX c #FFDBDB",
"iX c #C4FFFF",
"pX c None",
/* pixels */
"pXpXpXpXpXpXpXpXpXpXpXpXpXpXpXpXpXpXpXpXpXpXpXpXpXpXpXpXpXpXpXpXpXpXpXpXpXpXpXpXpXpXpXpXpXpXpXpXpXpX",
"pXpXpXpXpXpXpXpXpXpXpXpXpXpXpXpXpXpXpXpXpXpXpXpXpXpXpXpXpXpXpXpXpXpXpXpXpXpXpXpXpXpXpXpXpXpXpXpXpXpX",
"pXpXpXpXpXpXpXpXpXpXpXpXpXpXpXpXpXpXpXpXpXpXpXpXpXpXpXpXpXpXpXpXpXpXpXpXpXpXpXpXpXpXpXpXpXpXpXpXpXpX",
"pXpXpXpXpXpXpXpXpXpXpXpXpXpXpXpXpXpXpXpXpXpXpXpXpXpXpXpXpXpXpXpXpXpXpXpXpXpXpXpXpXpXpXpXpXpXpXpXpXpX",
"pXpXpXpXpXpXpXpXpXpXpXpXpXpXpXpXpXpXpXpXpXpXpXpXpXpXpXpXpXpXpXpXpXpXpXpXpXpXpXpXpXpXpXpXpXpXpXpXpXpX",
"pXpXpXpXpXpXpXpXpXpXpXpXpXpXpXpXpXpXpXpXpXpXpXpXpXpXpXpXpXpXpXpXpXpXpXpXpXpXpXpXpXpXpXpXpXpXpXpXpXpX",
"pXpXpXpXpXpXpXpXpXpXpXpXpXpXpXpXpXpXpXpXpXpXpXpXpXpXpXpXpXpXpXpXpXpXpXpXpXpXpXpXpXpXpXpXpXpXpXpXpXpX",
"pXpXpXpXpXpXpXpXpXpXpXpXpXpXpXpXpXpXpXpXpXpXpXpXpXpXpXpXpXpXpXpXpXpXpXpXpXpXpXpXpXpXpXpXpXpXpXpXpXpX",
"pXpXpXpXpXpXpXpXpXpXpXpXpXpXpXpXpXpXpXpXpXpXpXpXpXpXpXpXpXpXpXpXpXpXpXpXpXpXpXpXpXpXpXpXpXpXpXpXpXpX",
"pXpXpXpXpXpXpXpXpXpXpXpXpXpXpXpXpXpXpXpXpXpXpXpXpXpXpXpXpXpXpXpXpXpXpXpXpXpXpXpXpXpXpXpXpXpXpXpXpXpX",
"pXpXpXpXpXpXpXpXpXpXpXpXpXpXpXpXpXpXpXpXpXpXpXpXpXpXpXpXpXpXpXpXpXpXpXpXpXpXpXpXpXpXpXpXpXpXpXpXpXpX",
"pXpXpXpXpXpXpXpXpXpXpXpXpXpXpXpXpXpXpXpXpXpXpX, e Z k t - pXpXpXpXpXpXpXpXpXpXpXpXpXpXpXpXpXpXpXpXpX",
"pXpXpXpXpXpXpXpXpXpXpXpXpXpXpXpXpX< l } X.c.F.T.[.-X>X XK.w.m pXpXpXpXpXpXpXpXpXpXpXpXpXpXpXpXpXpXpX",
"pXpXpXpXpXpXpXpXpXpXpX> y ! =.e.S.E.,X,X,X,X,X,X,X,X,X,X,X,X,Xl.q pXpXpXpXpXpXpXpXpXpXpXpXpXpXpXpXpX",
"pXpXpXpX5 a.u.7.i.n.D.Y.#X,X,X,X,X,X,X,X,X,X,X,X,X,X,X,X,X,X,X,X].M pXpXpXpXpXpXpXpXpXpXpXpXpXpXpXpX",
"pXpXpXpXpXq.,X,X,X,X,X,X,X,X,X,X,X,X,X,X,X,X,X,X,X,X,X,X,X,X,X,X,X,XS pXpXpXpXpXpXpXpXpXpXpXpXpXpXpX",
"pXpXpXpXpXpXi X.N.Y.$X,X,X,X,X,X,X,X,X,X,X,X,X,X,X,X,X,X,X,X,X,X,X,X{.> pXpXpXpXpXpXpXpXpXpXpXpXpXpX",
"pXpXpXpXpXpXpXpXpX> u x N m ] _.,X,X,X,X,X,X,X,X,X,X,X,X,X,X,X,X,X,X,Xx.pXpXpXpXpXpXpXpXpXpXpXpXpXpX",
"pXpXpXpXpXpXpXpXpXpXpX. : 6 U (.,X,X,X,X,X,X,X,X,X,X,X,X,X,X,X,X,X,X,X,Xf pXpXpXpXpXpXpXpXpXpXpXpXpX",
"pXpXpXpXpXpXpX, t $.0.b.L.@X,X,X,X,X,X,X,X,X,X,X,X,X,X,X,X>X|.7X2X>X,X,Xr.pXpXpXpXpXpXpXpXpXpXpXpXpX",
"pXpXpXpXpXpXpXpXpXv V N z , l .X,X,X,X,X,X,X,X,X,X,X,X,X,X}.yXqX3.3X,X,XI.& pXpXpXpXpXpXpXpXpXpXpXpX",
"pXpXpXpXpXpXpXpXpXpXpXpXpXo -.*X,X,X,X,X,X,X,X,X,X,X,X,X&XrXtX  ,.4X<X,X,Xf pXpXpXpXpXpXpXpXpXpXpXpX",
"pXpXpX< g ` G k v C T &.a.Q.,X,X,X,X,X,X,X,X,X,X,X,X,X,XOXuX0X  wX2.<X,X,XP pXpXpXpXpXpXpXpXpXpXpXpX",
"pXpXpX3 k y.).,X,X,X,X,X,X,X,X,X,X,X,X,X,X,X,X,X,X,X,X,X>X6XiX<.1.5X,X,X,XW pXpXpXpXpXpXpXpXpXpXpXpX",
"pXpXpXpXpXpXs 9.W.,X,X,X,X,X,X,X,X,X,X,X,X,X,X,X,X,X,X,X,X'.9XeX8X1X,X,X,XU pXpXpXpXpXpXpXpXpXpXpXpX",
"pXpXpXpXpXpXpXpX* ' m.,X,X,X,X,X,X,X,X,X,X,X,X,X,X,X,X,X,X,X,X>X,X,X,X,X,Xj pXpXpXpXpXpXpXpXpXpXpXpX",
"pXpXpXpXpXpXpXpXpXpXpXx g.,X,X,X,X,X,X,X,X,X,X,X,X,X,X,X,X,X,X,X,X,X,X,XU.= pXpXpXpXpXpXpXpXpXpXpXpX",
"pXpXpXpXpXpXpXpXpXpXpXpXpX8 B.,X,X,X,X,X,X,X,X,X,X,X,X,X,X;X,X,X,X,X,X,Xp.pXpXpXpXpXpXpXpXpXpXpXpXpX",
"pXpXpXpXpX< t [ 7.s.+.) x O ;.,X,X,X,X,X,X,X,X,X,X,X,X,X,Xw.d XX,X,X,X,XA pXpXpXpXpXpXpXpXpXpXpXpXpX",
"pXpXpXpXpXpXpXr [ z.oX,X,X,X,X,X,X,X,X,X,X,X,X,X,X,X,X,X,XE.J 4  .t.x.o.pXpXpXpXpXpXpXpXpXpXpXpXpXpX",
"pXpXpXpXpXpXpXpXpXpX; { S.,X,X,X,X,X,X,X,X,X,X,X,X,X,X,X,X,X,XV.` Q B + pXpXpXpXpXpXpXpXpXpXpXpXpXpX",
"pXpXpXpXpXpXpXpXpXpXpXpXo C h.XX,X,X,X,X,X,X,X,X,X,X,X,X,X,X,X,X,X,X] pXpXpXpXpXpXpXpXpXpXpXpXpXpXpX",
"pXpXpXpXpXpXpXpXpXpXpXpXpXpXpX9 >.J.,X,X,X,X,X,X,X,X,X,X,X,X,X,X&XW pXpXpXpXpXpXpXpXpXpXpXpXpXpXpXpX",
"pXpXpXpXpXpXpXpXpXpXpXpXpXpXpXpXpX@ Y j./.,X,X,X,X,X,X,X,X,X,XB.i pXpXpXpXpXpXpXpXpXpXpXpXpXpXpXpXpX",
"pXpXpXpXpXpXpXpXpXpXpXpXpXpXpXpXpXpXpXpXq ^ +.C. X,X XY.H.k.U o pXpXpXpXpXpXpXpXpXpXpXpXpXpXpXpXpXpX",
"pXpXpXpXpXpXpXpXpXpXpXpXpXpXpXpXpXpXpXpXpX#.w./ D x X.| 7 pXpXpXpXpXpXpXpXpXpXpXpXpXpXpXpXpXpXpXpXpX",
"pXpXpXpXpXpXpXpXpXpXpXpXpXpXpXpXpXpXpXpX> ,X,X..E l v.,XV.pXpXpXpXpXpXpXpXpXpXpXpXpXpXpXpXpXpXpXpXpX",
"pXpXpXpXpXpXpXpXpXpXpXpXpXpXpXpXpXpXpXpX%.,X~.c ,XP.( ,X,XL pXpXpXpXpXpXpXpXpXpXpXpXpXpXpXpXpXpXpXpX",
"pXpXpXpXpXpXpXpXpXpXpXpXpXpXpXpXpXpXpXpXZ.,X5.| ,X(.F A.,XG.o pXpXpXpXpXpXpXpXpXpXpXpXpXpXpXpXpXpXpX",
"pXpXpXpXpXpXpXpXpXpXpXpXpXpXpXpXpXpXpXh =X,XP G.,XG :.~ :X,X*.pXpXpXpXpXpXpXpXpXpXpXpXpXpXpXpXpXpXpX",
"pXpXpXpXpXpXpXpXpXpXpXpXpXpXpXpXpXpXpX_ ,XG.I ,X@.8.,X) O.,XS.+ pXpXpXpXpXpXpXpXpXpXpXpXpXpXpXpXpXpX",
"pXpXpXpXpXpXpXpXpXpXpXpXpXpXpXpXpXpXpXX #.H R.M.F Q.,X^.a 4.C pXpXpXpXpXpXpXpXpXpXpXpXpXpXpXpXpXpXpX",
"pXpXpXpXpXpXpXpXpXpXpXpXpXpXpXpXpXpXpXH d.Y.`.o pXw.,X,X#.pXpXpXpXpXpXpXpXpXpXpXpXpXpXpXpXpXpXpXpXpX",
"pXpXpXpXpXpXpXpXpXpXpXpXpXpXpXpXpXpX1 ].,X,X0 pXpXK ,X,XC.pXpXpXpXpXpXpXpXpXpXpXpXpXpXpXpXpXpXpXpXpX",
"pXpXpXpXpXpXpXpXpXpXpXpXpXpXpXpXpXo G.,X,XR pXpXpX# !.,X%Xq pXpXpXpXpXpXpXpXpXpXpXpXpXpXpXpXpXpXpXpX",
"pXpXpXpXpXpXpXpXpXpXpXpXpXpXpXpXpXa.,X,X6.pXpXpXpXpXf.,X,X' pXpXpXpXpXpXpXpXpXpXpXpXpXpXpXpXpXpXpXpX",
"pXpXpXpXpXpXpXpXpXpXpXpXpXpXpXpXpXd.,XC.o pXpXpXpXpX) ,X,Xr.pXpXpXpXpXpXpXpXpXpXpXpXpXpXpXpXpXpXpXpX",
"pXpXpXpXpXpXpXpXpXpXpXpXpXpXpXpXpX1 n $ pXpXpXpXpXpX2 +X,XT.% pXpXpXpXpXpXpXpXpXpXpXpXpXpXpXpXpXpXpX",
"pXpXpXpXpXpXpXpXpXpXpXpXpXpXpXpXpXpXpXpXpXpXpXpXpXpXpXB.,X,Xb pXpXpXpXpXpXpXpXpXpXpXpXpXpXpXpXpXpXpX",
"pXpXpXpXpXpXpXpXpXpXpXpXpXpXpXpXpXpXpXpXpXpXpXpXpXpXpXp ,X,Xw pXpXpXpXpXpXpXpXpXpXpXpXpXpXpXpXpXpXpX"
};
