/* XPM */
static char *result[] = {
/* columns rows colors chars-per-pixel */
"50 50 215 2 ",
"   c black",
".  c #050404",
"X  c #001D1D",
"o  c #021D1D",
"O  c #001E1E",
"+  c #001F1F",
"@  c #051C1C",
"#  c #051D1D",
"$  c #071D1D",
"%  c #0F1B1B",
"&  c #091C1C",
"*  c #081D1D",
"=  c #0D1C1C",
"-  c #0E1C1C",
";  c #111B1B",
":  c #121B1B",
">  c #131B1B",
",  c #141B1B",
"<  c #151B1B",
"1  c #161A1A",
"2  c #181A1A",
"3  c #191A1A",
"4  c #181B1B",
"5  c gray10",
"6  c #1B1A1A",
"7  c #1D1919",
"8  c #1F1919",
"9  c #1D1A1A",
"0  c #1E1A1A",
"q  c #1A1C1C",
"w  c #221919",
"e  c #211A1A",
"r  c #241919",
"t  c #251919",
"y  c #261919",
"u  c #291919",
"i  c #2A1818",
"p  c #2B1818",
"a  c #2C1818",
"s  c #2C1919",
"d  c #2E1818",
"f  c #2F1818",
"g  c #311717",
"h  c #331717",
"j  c #341717",
"k  c #351717",
"l  c #361717",
"z  c #371717",
"x  c #381717",
"c  c #3A1616",
"v  c #3B1616",
"b  c #3A1717",
"n  c #3B1717",
"m  c #3D1616",
"M  c #3E1616",
"N  c #3F1616",
"B  c #301818",
"V  c #331818",
"C  c #002020",
"Z  c #002121",
"A  c #002222",
"S  c #002323",
"D  c #002424",
"F  c #431515",
"G  c #401616",
"H  c #411616",
"J  c #421616",
"K  c #451515",
"L  c #471515",
"P  c #491414",
"I  c #491515",
"U  c #4A1414",
"Y  c #4A1515",
"T  c #4A1717",
"R  c #4D1414",
"E  c #4F1414",
"W  c #501414",
"Q  c #521414",
"!  c #531414",
"~  c #541414",
"^  c #551414",
"/  c #591313",
"(  c #5A1212",
")  c #5A1313",
"_  c #5E1313",
"`  c #581414",
"'  c #760F0F",
"]  c #790F0F",
"[  c #7A0F0F",
"{  c #7B0F0F",
"}  c #7D0F0F",
"|  c #7F0F0F",
" . c #611111",
".. c #601212",
"X. c #621212",
"o. c #631212",
"O. c #661111",
"+. c #691111",
"@. c #6B1111",
"#. c #6C1111",
"$. c #6D1111",
"%. c #6E1010",
"&. c #6F1010",
"*. c #6F1111",
"=. c #701010",
"-. c #711010",
";. c #761010",
":. c #771111",
">. c #1C4747",
",. c #165858",
"<. c #3E6F6F",
"1. c #257070",
"2. c #5C6C6C",
"3. c #800E0E",
"4. c #800F0F",
"5. c #820E0E",
"6. c #830E0E",
"7. c #850E0E",
"8. c #890D0D",
"9. c #8A0D0D",
"0. c #890E0E",
"q. c #930C0C",
"w. c #930D0D",
"e. c #940C0C",
"r. c #950C0C",
"t. c #960C0C",
"y. c #970C0C",
"u. c #9A0B0B",
"i. c #9F0B0B",
"p. c #980C0C",
"a. c #990C0C",
"s. c #9A0C0C",
"d. c #A20B0B",
"f. c #A30B0B",
"g. c #A40A0A",
"h. c #A50A0A",
"j. c #A60A0A",
"k. c #A70A0A",
"l. c #AB0A0A",
"z. c #B10909",
"x. c #B40808",
"c. c #B80808",
"v. c #B90808",
"b. c #BB0808",
"n. c #C00707",
"m. c #C10707",
"M. c #C20707",
"N. c #C30707",
"B. c #C50606",
"V. c #C40707",
"C. c #C50707",
"Z. c #C60707",
"A. c #C80606",
"S. c #C80707",
"D. c #CA0606",
"F. c #CC0606",
"G. c #CE0606",
"H. c #CF0606",
"J. c #D10505",
"K. c #D50505",
"L. c #D70404",
"P. c #D60505",
"I. c #D80404",
"U. c #D90404",
"Y. c #DA0404",
"T. c #DB0404",
"R. c #DE0404",
"E. c #E20303",
"W. c #E40303",
"Q. c #E60303",
"!. c #E10404",
"~. c #E20404",
"^. c #E80303",
"/. c #EF0000",
"(. c #ED0202",
"). c #EE0202",
"_. c #EF0202",
"`. c #F30101",
"'. c #F00202",
"]. c #F10202",
"[. c #F40000",
"{. c #F50101",
"}. c #F60101",
"|. c #F80000",
" X c #F80101",
".X c #F90101",
"XX c #FA0000",
"oX c #FB0000",
"OX c #FA0101",
"+X c #FB0101",
"@X c #FC0000",
"#X c #FD0000",
"$X c #FE0000",
"%X c red",
"&X c #FF0202",
"*X c #F00A0A",
"=X c #E92828",
"-X c #FF2222",
";X c #FB3737",
":X c #874C4C",
">X c #B56565",
",X c #D54E4E",
"<X c #E35555",
"1X c #EE6666",
"2X c #EE6B6B",
"3X c #FF6161",
"4X c #598787",
"5X c #7CACAC",
"6X c #7CBDBD",
"7X c #D19797",
"8X c #BDFFFF",
"9X c #FEC7C7",
"0X c #D9E6E6",
"qX c #FFE9E9",
"wX c None",
/* pixels */
"wXwXwXwXwXwXwXwXwXwXwXwXwXwXwXwXwXwXwXwXwXwXwXwXwXwXwXwXwXwXwXwXwXwXwXwXwXwXwXwXwXwXwXwXwXwXwXwXwXwX",
"wXwXwXwXwXwXwXwXwXwXwXwXwXwXwXwXwXwXwXwXwXwXwXwXwXwXwXwXwXwXwXwXwXwXwXwXwXwXwXwXwXwXwXwXwXwXwXwXwXwX",
"wXwXwXwXwXwXwXwXwXwXwXwXwXwXwXwXwXwXwXwXwXwXwXwXwXwXwXwXwXwXwXwXwXwXwXwXwXwXwXwXwXwXwXwXwXwXwXwXwXwX",
"wXwXwXwXwXwXwXwXwXwXwXwXwXwXwXwXwXwXwXwXwXwXwXwXwXwXwXwXwXwXwXwXwXwXwXwXwXwXwXwXwXwXwXwXwXwXwXwXwXwX",
"wXwXwXwXwXwXwXwXwXwXwXwXwXwXwXwXwXwXwXwXwXwXwXwXwXwXwXwXwXwXwXwXwXwXwXwXwXwXwXwXwXwXwXwXwXwXwXwXwXwX",
"wXwXwXwXwXwXwXwXwXwXwXwXwXwXwXwXwXwXwXwXwXwXwXwXwXwXwXwXwXwXwXwXwXwXwXwXwXwXwXwXwXwXwXwXwXwXwXwXwXwX",
"wXwXwXwXwXwXwXwXwXwXwXwXwXwXwXwXwXwXwXwXwXwXwXwXwXwXwXwXwXwXwXwXwXwXwXwXwXwXwXwXwXwXwXwXwXwXwXwXwXwX",
"wXwXwXwXwXwXwXwXwXwXwXwXwXwXwXwXwXwXwXwXwXwXwXwXwXwXwXwXwXwXwXwXwXwXwXwXwXwXwXwXwXwXwXwXwXwXwXwXwXwX",
"wXwXwXwXwXwXwXwXwXwXwXwXwXwXwXwXwXwXwXwXwXwXwXwXwXwXwXwXwXwXwXwXwXwXwXwXwXwXwXwXwXwXwXwXwXwXwXwXwXwX",
"wXwXwXwXwXwXwXwXwXwXwXwXwXwXwXwXwXwXwXwXwXwXwXwXwXwXwXwXwXwXwXwXwXwXwXwXwXwXwXwXwXwXwXwXwXwXwXwXwXwX",
"wXwXwXwXwXwXwXwXwXwXwXwXwXwXwXwXwXwXwXwXwXwXwXwXwXwXwXwXwXwXwXwXwXwXwXwXwXwXwXwXwXwXwXwXwXwXwXwXwXwX",
"wXwXwXwXwXwXwXwXwXwXwXwXwXwXwXwXwXwXwXwX; j L F a , wXwXwXwXwXwXwXwXwXwXwXwXwXwXwXwXwXwXwXwXwXwXwXwX",
"wXwXwXwXwXwXwXwXwXwXwXwXwXwXwXwXwXO G p.U.$X%X%X XR.b.6.E 2 wXwXwXwXwXwXwXwXwXwXwXwXwXwXwXwXwXwXwXwX",
"wXwXwXwXwXwXwXwXwXwXwXwXwXwXwXwX0 j.%X%X%X%X%X%X%X%X%X%X%XW.l.+.f o wXwXwXwXwXwXwXwXwXwXwXwXwXwXwXwX",
"wXwXwXwXwXwXwXwXwXwXwXwXwXwXwXb (.%X%X%X%X%X%X%X%X%X%X%X%X%X%X%X@XZ.0.` N m t wX3 5 wXwXwXwXwXwXwXwX",
"wXwXwXwXwXwXwXwXwXwXwXwXwXwXs #X%X%X%X%X%X%X%X%X%X%X%X%X%X%X%X%X%X%X%X%XM.` l < 2 5 wXwXwXwXwXwXwXwX",
"wXwXwXwXwXwXwXwXwXwXwXwXwX$ W.%X%X%X%X%X%X%X%X%X%X%X%X%X%X%X%X%X%X%X%X%Xr.D wXwXwXwXwXwXwXwXwXwXwXwX",
"wXwXwXwXwXwXwXwXwXwXwXwXwXq.%X%X%X%X%X%X%X%X%X%X%X%X%X%X%X%X%X%X%X%X%X%XoX=.wXwXwXwXwXwXwXwXwXwXwXwX",
"wXwXwXwXwXwXwXwXwXwXwXwXr %X%X%X%X%X%X%X%X%X%X%X%X%X%X%X%X%X%X%X%X%X%X%X%X+X9 wXwXwXwXwXwXwXwXwXwXwX",
"wXwXwXwXwXwXwXwXwXwXwXwX5.%X%X$X-X3X*XXX%X%X%X%X%X%X%X%X%X%X%X%X%X%X%X%X%XN.+ wXwXwXwXwXwXwXwXwXwXwX",
"wXwXwXwXwXwXwXwXwXwXwXX C.%X%X;X2.4X0X=X%X%X%X%X%X%X%X%X%X%X%X%X%XoXM y &.| p : wXwXwXwXwXwXwXwXwXwX",
"wXwXwXwXwXwXwXwXwXwXwX8 '.%X%X>X,.  6X9X|.%X%X%X%X%X%X%X%X%X%X%X%X$X9.+ D A X wXwXwXwXwXwXwXwXwXwXwX",
"wXwXwXwXwXwXwXwXwXwXwXx %X%X%X:X5X. <.qX[.%X%X%X%X%X%X%X%X%X%X%X%X%X%X].d.*./ Y v k H W B , wXwXwXwX",
"wXwXwXwXwXwXwXwXwXwXwXN %X%X%X<X1.>.8X2X@X%X%X%X%X%X%X%X%X%X%X%X%X%X%X%X%X%X%X%X%X%X^.w.V % wXwXwXwX",
"wXwXwXwXwXwXwXwXwXwXwXx %X%X%X&X,X7X1X/.%X%X%X%X%X%X%X%X%X%X%X%X%X%X%X%X%X%X%X%XH.[ d wXwXwXwXwXwXwX",
"wXwXwXwXwXwXwXwXwXwXwX7 ).%X%X%X%X%X%X%X%X%X%X%X%X%X%X%X%X%X%X%X%X%X%X%X%X).q.m wXwXwXwXwXwXwXwXwXwX",
"wXwXwXwXwXwXwXwXwXwXwXO M.%X%X%X%X%X%X%X%X%X%X%X%X%X%X%X%X%X%X%X%X%X%XG.o.O S wXwX6 wXwXwXwXwXwXwXwX",
"wXwXwXwXwXwXwXwXwXwXwXwX3.%X%X%X%X%X%XOX%X%X%X%X%X%X%X%X%X%X%X%X%X~.b + o ..e.~ 3 1 wXwXwXwXwXwXwXwX",
"wXwXwXwXwXwXwXwXwXwXwXwX9 %X%X%X%X}.V ' %X%X%X%X%X%X%X%X%X%X%X%X%X!.4.L.%XV._ wXwXwXwXwXwXwXwXwXwXwX",
"wXwXwXwXwXwXwXwXwXwXwXwXwXO.l.a.) q n I.%X%X%X%X%X%X%X%X%X%X%X%X%X%X%X}.X.O wXwXwXwXwXwXwXwXwXwXwXwX",
"wXwXwXwXwXwXwXwXwXwXwXwXwX+ B ! ^ l.%X%X%X%X%X%X%X%X%X%X%X%X%X%X%X{.;.$ wXwXwXwXwXwXwXwXwXwXwXwXwXwX",
"wXwXwXwXwXwXwXwXwXwXwXwXwXwXM %X%X%X%X%X%X%X%X%X%X%X%X%X%X%X%X%Xl.w wXwXwXwXwXwXwXwXwXwXwXwXwXwXwXwX",
"wXwXwXwXwXwXwXwXwXwXwXwXwXwXwXz ^.%X%X%X%X%X%X%X%X%X%X%X%X%Xn.I + wXwXwXwXwXwXwXwXwXwXwXwXwXwXwXwXwX",
"wXwXwXwXwXwXwXwXwXwXwXwXwXwXwXwX4 i.%X%X%X%X%X%X%X%X%X%Xm.~ O wXwXwXwXwXwXwXwXwXwXwXwXwXwXwXwXwXwXwX",
"wXwXwXwXwXwXwXwXwXwXwXwXwXwXwXwXwXwXv t.B.P.^.#X|.z.} G O wXwXwXwXwXwXwXwXwXwXwXwXwXwXwXwXwXwXwXwXwX",
"wXwXwXwXwXwXwXwXwXwXwXwXwXwXwXwXwXwXwXwX: #.] M Z H y.7.wXwXwXwXwXwXwXwXwXwXwXwXwXwXwXwXwXwXwXwXwXwX",
"wXwXwXwXwXwXwXwXwXwXwXwXwXwXwXwXwXwXwXwXs.%XA.c T O.%X%Xr wXwXwXwXwXwXwXwXwXwXwXwXwXwXwXwXwXwXwXwXwX",
"wXwXwXwXwXwXwXwXwXwXwXwXwXwXwXwXwXwXwXg %X%X .x.%Xm H.%X%.wXwXwXwXwXwXwXwXwXwXwXwXwXwXwXwXwXwXwXwXwX",
"wXwXwXwXwXwXwXwXwXwXwXwXwXwXwXwXwXwX+ c.%XJ.A D.%X;.#.%XS.O wXwXwXwXwXwXwXwXwXwXwXwXwXwXwXwXwXwXwXwX",
"wXwXwXwXwXwXwXwXwXwXwXwXwXwXwXwXwXwX) %X%XQ :.F ).W.G %X%XP wXwXwXwXwXwXwXwXwXwXwXwXwXwXwXwXwXwXwXwX",
"wXwXwXwXwXwXwXwXwXwXwXwXwXwXwXwXwXwXf.%Xy.F %Xh.U %X~ k.%X@.wXwXwXwXwXwXwXwXwXwXwXwXwXwXwXwXwXwXwXwX",
"wXwXwXwXwXwXwXwXwXwXwXwXwXwXwXwXwXwXh 8.u K.%X.XC g._.M o.@ wXwXwXwXwXwXwXwXwXwXwXwXwXwXwXwXwXwXwXwX",
"wXwXwXwXwXwXwXwXwXwXwXwXwXwXwXwXwXwXwXwXK %X%Xg.wX+ Y.Q.s.R wXwXwXwXwXwXwXwXwXwXwXwXwXwXwXwXwXwXwXwX",
"wXwXwXwXwXwXwXwXwXwXwXwXwXwXwXwXwXwXwXwXu.%X%X( wXwX- %X%X}.e wXwXwXwXwXwXwXwXwXwXwXwXwXwXwXwXwXwXwX",
"wXwXwXwXwXwXwXwXwXwXwXwXwXwXwXwXwXwXwX= E.%X`.5 wXwXwXl %X%XT.* wXwXwXwXwXwXwXwXwXwXwXwXwXwXwXwXwXwX",
"wXwXwXwXwXwXwXwXwXwXwXwXwXwXwXwXwXwXwXK %X%Xz.wXwXwXwXwX-.%X%Xx.wXwXwXwXwXwXwXwXwXwXwXwXwXwXwXwXwXwX",
"wXwXwXwXwXwXwXwXwXwXwXwXwXwXwXwXwXwXwX{ %X%X$.wXwXwXwXwX+ g.%Xv.X wXwXwXwXwXwXwXwXwXwXwXwXwXwXwXwXwX",
"wXwXwXwXwXwXwXwXwXwXwXwXwXwXwXwXwXwX# Z.%X%Xi wXwXwXwXwXwX& J 5 wXwXwXwXwXwXwXwXwXwXwXwXwXwXwXwXwXwX",
"wXwXwXwXwXwXwXwXwXwXwXwXwXwXwXwXwXwXr XX%XF.O wXwXwXwXwXwXwXwXwXwXwXwXwXwXwXwXwXwXwXwXwXwXwXwXwXwXwX",
"wXwXwXwXwXwXwXwXwXwXwXwXwXwXwXwXwXwX> XX%XM wXwXwXwXwXwXwXwXwXwXwXwXwXwXwXwXwXwXwXwXwXwXwXwXwXwXwXwX"
};
