/* XPM */
static char * C:\Users\Lucas\OneDrive _ Universidade do Porto\LCOM\MINIX_LCOM\shared\proj\graphics\xpms\menus\exit_button_colored_xpm[] = {
"42 39 341 2",
"  	c None",
". 	c #BF2746",
"+ 	c #BB294A",
"@ 	c #B82B4D",
"# 	c #B62D50",
"$ 	c #B32F54",
"% 	c #B03157",
"& 	c #AD335A",
"* 	c #6D59A0",
"= 	c #6B5BA3",
"- 	c #675EA7",
"; 	c #6460AA",
"> 	c #6261AE",
", 	c #5E63B0",
"' 	c #5C65B4",
") 	c #C52440",
"! 	c #C22644",
"~ 	c #BE2846",
"{ 	c #B92B4E",
"] 	c #B62D51",
"^ 	c #A9355E",
"/ 	c #A73761",
"( 	c #70589D",
"_ 	c #6E59A0",
": 	c #6B5CA3",
"< 	c #675DA6",
"[ 	c #645FAA",
"} 	c #6161AD",
"| 	c #5E63B1",
"1 	c #5B65B4",
"2 	c #5866B7",
"3 	c #5568BA",
"4 	c #C8233E",
"5 	c #C42440",
"6 	c #C12643",
"7 	c #BF2747",
"8 	c #BC294A",
"9 	c #B92B4D",
"0 	c #B52D50",
"a 	c #B22F53",
"b 	c #B03158",
"c 	c #AC335A",
"d 	c #A9345E",
"e 	c #A73662",
"f 	c #745699",
"g 	c #70579C",
"h 	c #6A5BA4",
"i 	c #685EA7",
"j 	c #6161AE",
"k 	c #5F63B0",
"l 	c #5867B7",
"m 	c #5669BA",
"n 	c #536BBD",
"o 	c #C7223D",
"p 	c #C52541",
"q 	c #C22643",
"r 	c #BC2A4A",
"s 	c #B03057",
"t 	c #AC325A",
"u 	c #A63762",
"v 	c #A33965",
"w 	c #775496",
"x 	c #70589C",
"y 	c #6E5AA0",
"z 	c #6A5CA3",
"A 	c #655FAA",
"B 	c #6162AD",
"C 	c #B62E50",
"D 	c #AC325B",
"E 	c #AA345E",
"F 	c #A33865",
"G 	c #A03A68",
"H 	c #7A5293",
"I 	c #73569A",
"J 	c #71589C",
"K 	c #6A5CA4",
"L 	c #6560AA",
"M 	c #526ABE",
"N 	c #C12644",
"O 	c #BF2847",
"P 	c #AF3157",
"Q 	c #AD335B",
"R 	c #AA355E",
"S 	c #A73661",
"T 	c #A13A69",
"U 	c #9D3C6C",
"V 	c #7D508F",
"W 	c #7A5292",
"X 	c #71579D",
"Y 	c #6D5AA0",
"Z 	c #5F64B1",
"` 	c #5867B8",
" .	c #5669BB",
"..	c #536ABD",
"+.	c #C7223E",
"@.	c #BE2847",
"#.	c #B92C4D",
"$.	c #B22F54",
"%.	c #A63661",
"&.	c #A03B68",
"*.	c #9D3D6C",
"=.	c #9A3F6F",
"-.	c #814E8B",
";.	c #7A5392",
">.	c #775495",
",.	c #735699",
"'.	c #71579C",
").	c #675DA7",
"!.	c #C42540",
"~.	c #BE2747",
"{.	c #B92C4E",
"].	c #AF3158",
"^.	c #9C3D6C",
"/.	c #993F6F",
"(.	c #834D88",
"_.	c #804E8C",
":.	c #765496",
"<.	c #70579D",
"[.	c #645FAB",
"}.	c #BB2A4A",
"|.	c #AC335B",
"1.	c #A63761",
"2.	c #A43965",
"3.	c #9A3E6F",
"4.	c #974173",
"5.	c #844C88",
"6.	c #804E8B",
"7.	c #71589D",
"8.	c #6B5CA4",
"9.	c #675EA6",
"0.	c #BC2A4B",
"a.	c #B52D51",
"b.	c #974073",
"c.	c #934277",
"d.	c #874A84",
"e.	c #6262AD",
"f.	c #A9355F",
"g.	c #A03B69",
"h.	c #9A3E70",
"i.	c #964173",
"j.	c #934376",
"k.	c #904579",
"l.	c #894881",
"m.	c #864A84",
"n.	c #6162AE",
"o.	c #5E64B1",
"p.	c #B82C4E",
"q.	c #B62E51",
"r.	c #B23054",
"s.	c #A73762",
"t.	c #90457A",
"u.	c #8D467D",
"v.	c #8A4881",
"w.	c #834C88",
"x.	c #7D518F",
"y.	c #6061AE",
"z.	c #B82C4D",
"A.	c #B32F55",
"B.	c #A9345F",
"C.	c #A03A69",
"D.	c #9D3C6D",
"E.	c #964073",
"F.	c #934276",
"G.	c #90447A",
"H.	c #8D477E",
"I.	c #8A4981",
"J.	c #874A85",
"K.	c #844D88",
"L.	c #6460AB",
"M.	c #A63662",
"N.	c #864A85",
"O.	c #90447B",
"P.	c #8C467E",
"Q.	c #74569A",
"R.	c #6D5AA1",
"S.	c #9F3B69",
"T.	c #9C3D6D",
"U.	c #8F457A",
"V.	c #8D477D",
"W.	c #894982",
"X.	c #AD345B",
"Y.	c #A33966",
"Z.	c #9D3D6D",
"`.	c #8C477E",
" +	c #874B84",
".+	c #795393",
"++	c #A23966",
"@+	c #9C3C6C",
"#+	c #934377",
"$+	c #8C477D",
"%+	c #894882",
"&+	c #804F8C",
"*+	c #7C5090",
"=+	c #993E6F",
"-+	c #8F447A",
";+	c #7A5393",
">+	c #765497",
",+	c #9A3F70",
"'+	c #964174",
")+	c #8F447B",
"!+	c #894981",
"~+	c #7D5090",
"{+	c #795293",
"]+	c #A33866",
"^+	c #8C467D",
"/+	c #824D89",
"(+	c #7F4F8B",
"_+	c #795292",
":+	c #AC335C",
"<+	c #A63763",
"[+	c #A23965",
"}+	c #993F70",
"|+	c #924377",
"1+	c #7F4E8C",
"2+	c #7C508F",
"3+	c #70599D",
"4+	c #A53762",
"5+	c #824C88",
"6+	c #73579A",
"7+	c #AF3258",
"8+	c #AC345B",
"9+	c #A53763",
"0+	c #8D467E",
"a+	c #834C89",
"b+	c #7F4F8C",
"c+	c #775497",
"d+	c #B23055",
"e+	c #AB335B",
"f+	c #A8355F",
"g+	c #9C3C6D",
"h+	c #90457B",
"i+	c #864B85",
"j+	c #665EA8",
"k+	c #8F457B",
"l+	c #7C5190",
"m+	c #70589E",
"n+	c #6C5AA1",
"o+	c #675EA8",
"p+	c #6360AB",
"q+	c #B82C4F",
"r+	c #B52E51",
"s+	c #B22F55",
"t+	c #AC345C",
"u+	c #993E70",
"v+	c #864B86",
"w+	c #834D89",
"x+	c #765597",
"y+	c #6F589D",
"z+	c #695DA4",
"A+	c #6062AE",
"B+	c #BB2A4B",
"C+	c #B82B4E",
"D+	c #7C518F",
"E+	c #5D64B2",
"F+	c #C02644",
"G+	c #BE2848",
"H+	c #B12F55",
"I+	c #AE3158",
"J+	c #854A86",
"K+	c #804F8D",
"L+	c #7D5190",
"M+	c #72569A",
"N+	c #6D5BA1",
"O+	c #6A5CA5",
"P+	c #665EA7",
"Q+	c #5D63B1",
"R+	c #5B65B5",
"S+	c #C42541",
"T+	c #C02745",
"U+	c #B42E51",
"V+	c #993F71",
"W+	c #7F4E8D",
"X+	c #70599E",
"Y+	c #6062AF",
"Z+	c #5D64B1",
"`+	c #5A65B5",
" @	c #5768B8",
".@	c #C6233F",
"+@	c #C42542",
"@@	c #AF3159",
"#@	c #795294",
"$@	c #695CA4",
"%@	c #5E64B2",
"&@	c #5A66B5",
"*@	c #5767B8",
"=@	c #5469BB",
"-@	c #C42442",
";@	c #B52D52",
">@	c #C9213B",
",@	c #C7233E",
"'@	c #C12645",
")@	c #72579B",
"!@	c #6162AF",
"~@	c #5D63B2",
"{@	c #526BBE",
"]@	c #CC1F38",
"^@	c #C32441",
"/@	c #C12745",
"(@	c #BD2848",
"_@	c #B72B4F",
":@	c #B42E52",
"<@	c #AB345B",
"[@	c #73569B",
"}@	c #5E63B2",
"|@	c #5569BC",
"1@	c #516BBE",
"2@	c #4F6DC2",
"3@	c #CC2038",
"4@	c #C9223B",
"5@	c #C6233E",
"6@	c #C32542",
"7@	c #BE2948",
"8@	c #BA2A4B",
"9@	c #B72C4E",
"0@	c #B52E52",
"a@	c #795394",
"b@	c #755496",
"c@	c #72579A",
"d@	c #6F589E",
"e@	c #695CA5",
"f@	c #665FA8",
"g@	c #6061AF",
"h@	c #516BBF",
"i@	c #4E6DC2",
"j@	c #C02645",
"k@	c #B13055",
"l@	c #AE3258",
"m@	c #6461AB",
"n@	c #5767B9",
"o@	c #4F6DC1",
"p@	c #C6223E",
"q@	c #AB335C",
"r@	c #695DA5",
"s@	c #5A66B6",
"t@	c #C02744",
"u@	c #B42D51",
"v@	c #6360AC",
"w@	c #C32541",
"x@	c #BB2A4C",
"y@	c #6361AC",
"z@	c #5B66B6",
"          . + @ # $ % &                                       * = - ; > , '         ",
"      ) ! ~ + { ] $ % & ^ /                                 ( _ : < [ } | 1 2 3     ",
"    4 5 6 7 8 9 0 a b c d e                               f g * h i [ j k 1 l m n   ",
"    o p q ~ r 9 # $ s t d u v                           w f x y z < A B | 1 l 3 n   ",
"    o 5 6 . 8 9 C $ b D E u F G                       H w I J * K i L } , 1 2 m M   ",
"    o ) N O r { # $ P Q R S F T U                   V W w f X Y : - [ } Z 1 `  ...  ",
"    +.) N @.r #.# $.P Q d %.v &.*.=.              -.V ;.>.,.'.y : ).[ } | 1 l 3 M   ",
"      !.N ~.r {.0 $ ].Q ^ u F G ^./.            (._.V W :.f <.* h i [.j | 1 l 3     ",
"        N @.}.{.] $.].|.^ 1.2.G *.3.4.          5.6.V W w ,.7.Y 8.9.[ j | 1 `       ",
"          @.0.9 a.$ P |.d u v G U 3.b.c.      d.5.6.V W w I x Y K ).; e.| 1         ",
"            + @ ] $.b Q f.u v g.*.h.i.j.k.  l.m.5._.V W w ,.( Y 8.- [.n.o.          ",
"            8 p.q.r.% |.^ s.F g.U /.i.c.t.u.v.m.w.6.x.W w ,.X Y K ).[ y.            ",
"              z.a.A.% |.B.%.v C.D.h.E.F.G.H.I.J.K._.x.H w f ( Y 8.).L.              ",
"                q.r.P |.R M.v g.*.=.b.F.G.u.v.N.w.-.V H w I 7.y z ).                ",
"                  $ ].|.f.u v &.*.3.E.F.O.P.l.m.w.6.V ;.w Q.x R.h                   ",
"                    ].|.^ u v S.T.h.4.F.U.V.W.m.w._.V W w Q.7.Y                     ",
"                      X.f.u Y.S.Z.=.E.c.U.`.l. +(._.V .+w I (                       ",
"                        f.1.++g.@+=.E.#+O.$+%+N.w.&+*+.+:.I                         ",
"                          u v S.*.=+i.c.-+P.I.N.w._.V ;+>+                          ",
"                          u Y.g.*.,+'+F.)+H.!+m.w._.~+{+w I                         ",
"                        f.u ]+g.Z.h.'+#+G.^+l.N./+(+V _+:.I                         ",
"                      :+f.<+[+C.T.}+i.|+t.`.%+N.(.1+2+{+:.f 3+                      ",
"                    P |.f.4+Y.g.@+}+i.|+U.`.!+m.5+_.V ;+>+6+( R.                    ",
"                  r.7+8+^ 9+++S.^.}+'+F.t.0+W.m.a+b+V .+c+,.( Y K                   ",
"                a.d+].e+f+9+Y.S.g+}+'+|+h+`.!+i+/+1+x..+>+6+( R.K j+                ",
"              p.a.r.7+:+f.u ++S.^.}+i.#+k+P.!+i+(._.l+H :.I m+n+K o+p+              ",
"            + q+r+s+].t+f+u ++S.Z.u+E.#+h+`.!+v+w+&+*+.+x+I y+R.z+o+p+A+            ",
"          @.B+C+r+s+].e+f.9+++S.^.}+'+#+G.0+%+i+a+_.D+.+>+6+( R.K - p+n.E+          ",
"        F+G+}.p.r+H+I+:+f+9+++S.^.}+E.#+    W.J+w+K+L+{+>+M+m+N+O+P+p+A+Q+R+        ",
"      S+T+G+B+p.U+d+].:+f.9+v S.^.V+'+        N.w+W+2+.+:.I X+n+O+- L.Y+Z+`+ @      ",
"    .@+@F+G+B+p.a.H+@@e+f.u ++g.T.}+            w+b+l+#@x+I m+N+$@j+p+A+%@&@*@=@    ",
"    +.-@N @.B+p.;@d+7+:+f+u Y.S.T.                &+*+{+x+I m+R.K o+p+A+o.&@` =@    ",
"  >@,@+@'@G+B+p.;@d+I+:+f+9+++S.                  b+l+.+x+)@m+N+$@o+p+!@~@&@*@=@{@  ",
"]@>@.@^@/@(@B+_@:@d+7+<@f.4+++                      *+.+x+[@m+R.$@o+p+Y+}@&@` |@1@2@",
"3@4@5@6@N 7@8@9@0@d+7+8+f.9+Y.                        a@b@c@d@n+e@f@p+g@E+&@ @=@h@i@",
"]@4@,@+@j@(@B+p.;@k@l@t+f+4+                            x+6+X+n+e@j+m@A+E+R+n@=@{@o@",
"3@>@p@6@/@7@8@q+r+d+@@q@f+                                [@m+n+r@j+p+!@E+s@*@=@h@  ",
"  >@5@S+t@(@B+p.u@d+7+t+                                    d@R.$@f@v@!@E+&@n@=@{@  ",
"      w@'@(@x@p.0@d+                                          n+r@o+y@Y+~@z@*@      "};
