/* XPM */
static char * C:\Users\Lucas\OneDrive _ Universidade do Porto\LCOM\MINIX_LCOM\shared\proj\graphics\resources\menus\rules_button_letters_xpm[] = {
"243 48 2 1",
" 	c None",
".	c #FFFFFF",
"                                                                                                                                                                                                                                                   ",
"                                                                                                                                                                                                                                                   ",
"                                                                                                                                                                                                                                                   ",
"                                                                                                                                                                                                                                                   ",
"                                                                                                                                                                                                                                                   ",
"                                                                                                                                                                                                                                                   ",
"                                                                                                                                   ..                                                                                                              ",
"                                                                                ..............                                    ....                                                                                                             ",
"                                                                               .................                                  ....                                                                                                             ",
"                                                                               ..................                                 ....                                                                                                             ",
"                                                                               ..................                                 ...                                                                                                              ",
"                                                                               .....         .....                                ...                                                                                                              ",
"                                                                               ....           ....                               ....                                                                                                              ",
"                                                                               ....           ....                               ....                                                                                                              ",
"                                                                              ....            ....                               ...                                                                                                               ",
"                                                                              ....           ....                                ...                                                                                                               ",
"                                                                              ....          .....                               ....                                                                                                               ",
"                                                                              ...          .....                    ...         ....                               .....                                                                           ",
"                                                                             ....        ......         ...         ....        ...                              ........                                                                          ",
"                                                                             ....       ......          ....        ....        ...            .....           ..........                                                                          ",
"                                                                             ....     ......            ....        ....       ....          ........         ...........                                                                          ",
"                                                                             ...    .......            ....        .....       ....         ..........       ......   ...                                                                          ",
"                                                                            ....  .......              ....        ....        ....        ...........       ....                                                                                  ",
"                                                                            ...........                ....        ....        ...        .....   ....      ....                                                                                   ",
"                                                                            ... .........              ...         ....       ....       .....    ....      ....                                                                                   ",
"                                                                            ... ...........           ....        .....       ....       ....    .....      .....                                                                                  ",
"                                                                           ....      .......          ....        ....        ....      ....   ......        ......                                                                                ",
"                                                                           ....        ......         ....       .....        ...      .............         ........                                                                              ",
"                                                                           ...          .....        ....        .....       ....     .............            ........                                                                            ",
"                                                                           ...           .....       ....       ......       ....     ...........                ......                                                                            ",
"                                                                          ....            .....      ....       ......       ....     ........                     .....                                                                           ",
"                                                                          ....             ....      ....      .......       ...      ....                          ...                                                                            ",
"                                                                          ...              .....     ....     ........      ....      ....         ...             ....                                                                            ",
"                                                                          ...               ....     ....   ..... ....      ....      .....      .....           ......                                                                            ",
"                                                                         ....               .....     ..........  ....      ....      ...............     ............                                                                             ",
"                                                                         ....               .....     .........    ...      ....       .............      ...........                                                                              ",
"                                                                         ...                 ....      .......     ...      ....       ............       .........                                                                                ",
"                                                                         ...                  ..         ...       ...       ..          .......            ....                                                                                   ",
"                                                                                                                                                                                                                                                   ",
"                                                                                                                                                                                                                                                   ",
"                                                                                                                                                                                                                                                   ",
"                                                                                                                                                                                                                                                   ",
"                                                                                                                                                                                                                                                   ",
"                                                                                                                                                                                                                                                   ",
"                                                                                                                                                                                                                                                   ",
"                                                                                                                                                                                                                                                   ",
"                                                                                                                                                                                                                                                   ",
"                                                                                                                                                                                                                                                   "};
