/* XPM */
static char *result[] = {
/* columns rows colors chars-per-pixel */
"50 100 181 2 ",
"   c #007977",
".  c #017B7B",
"X  c #058181",
"o  c #0B8483",
"O  c #0D898A",
"+  c #108787",
"@  c #138887",
"#  c #158C8C",
"$  c #198D8D",
"%  c #1C9292",
"&  c #308C93",
"*  c #229595",
"=  c #279998",
"-  c #2C9B9B",
";  c #2AA39F",
":  c #2FA9A7",
">  c #2EA6A8",
",  c #36A3A3",
"<  c #3AA6A6",
"1  c #3AA7AA",
"2  c #36AAAA",
"3  c #3CACAC",
"4  c #3FABB0",
"5  c #47A2A8",
"6  c #43AEAE",
"7  c #48AFA9",
"8  c #45B1AD",
"9  c #4BB4AD",
"0  c #53B7AE",
"q  c #55B9AC",
"w  c #5DBBAE",
"e  c #45AEB0",
"r  c #4AACB1",
"t  c #51ADB4",
"y  c #47B0B0",
"u  c #49B1B0",
"i  c #54B5B1",
"p  c #58B4B6",
"a  c #53B8B1",
"s  c #5CBAB2",
"d  c #5EB4B9",
"f  c #61BEAD",
"g  c #64BDB0",
"h  c #6ABFB5",
"j  c #63B5BA",
"k  c #6DB5BE",
"l  c #6BBDBC",
"z  c #75BFB6",
"x  c #70B6BF",
"c  c #72BFBD",
"v  c #7BBEBC",
"b  c #65C3A6",
"n  c #68C4A7",
"m  c #65C1AC",
"M  c #6DC3AD",
"N  c #71C6AD",
"B  c #76C8AF",
"V  c #79C9AF",
"C  c #6BC1B0",
"Z  c #73C6B0",
"A  c #7BC5B4",
"S  c #77C8B0",
"D  c #7BCAB0",
"F  c #74C0BE",
"G  c #79C3BC",
"H  c #73B6C1",
"J  c #7CB7C5",
"K  c #76BCC0",
"L  c #7CBCC3",
"P  c #76C0C0",
"I  c #88BFBD",
"U  c #83CDB1",
"Y  c #83C4BD",
"T  c #8ACCBA",
"R  c #90D0BA",
"E  c #87B1C3",
"W  c #84BBC7",
"Q  c #84B5C8",
"!  c #8BB7CA",
"~  c #86B9C8",
"^  c #8DBECB",
"/  c #97BFC7",
"(  c #93B3CB",
")  c #94BDCD",
"_  c #98BACA",
"`  c #9FBAD2",
"'  c #A2B6D4",
"]  c #A6BAD5",
"[  c #ABBDD6",
"{  c #AEBED8",
"}  c #B3BDDC",
"|  c #81C4C4",
" . c #8DC8C8",
".. c #95C4C5",
"X. c #94CCC7",
"o. c #9CC8C5",
"O. c #98C7CD",
"+. c #93CACA",
"@. c #9DCCCE",
"#. c #9FC4D1",
"$. c #A1C7CB",
"%. c #A2CFCF",
"&. c #AACACE",
"*. c #A3D6C4",
"=. c #A7D6CD",
"-. c #ADD4CD",
";. c #B8DBCE",
":. c #B5DCCD",
">. c #A7C3D1",
",. c #ACC4D3",
"<. c #A0C8D2",
"1. c #AFC0D8",
"2. c #B0C0D7",
"3. c #B3CCD4",
"4. c #B3C2D9",
"5. c #BAC5DC",
"6. c #B6C8DA",
"7. c #BDCADC",
"8. c #A6D1D1",
"9. c #ABD4D3",
"0. c #B3D3D4",
"q. c #BCD5D5",
"w. c #B3D8D6",
"e. c #BBDCD2",
"r. c #B7D4D9",
"t. c #BDD7D8",
"y. c #BDD9D9",
"u. c #BFC6E1",
"i. c #C2C5DE",
"p. c #C2CCDD",
"a. c #C8CEDF",
"s. c #C0D7D6",
"d. c #C4DDD6",
"f. c #C5D2DD",
"g. c #C9D2DF",
"h. c #C3DCDB",
"j. c #CBDDDC",
"k. c #D3DFDF",
"l. c #CDE1DA",
"z. c #D5E2DE",
"x. c #D8E4DE",
"c. c #D4E8DC",
"v. c #C3C7E1",
"b. c #C7CDE1",
"n. c #CACEE1",
"m. c #C6D4E0",
"M. c #CCD4E0",
"N. c #CFDBE1",
"B. c #D2D5E3",
"V. c #D8D7E7",
"C. c #D5DAE3",
"Z. c #DADDE5",
"A. c #D7D2E9",
"S. c #DCDAE8",
"D. c #DAD5EA",
"F. c #E2DFE7",
"G. c #EADDED",
"H. c #E3DCEB",
"J. c #E9DBF1",
"K. c #CFE0E0",
"L. c #D5E2E1",
"P. c #DDE2E4",
"I. c #D7E8E5",
"U. c #DBE8E6",
"Y. c #DEE0E9",
"T. c #E3E5E6",
"R. c #E7E8E7",
"E. c #E8EAE7",
"W. c #E6E6E8",
"Q. c #EAE6EA",
"!. c #E7E8E8",
"~. c #E9E9E8",
"^. c #F2EDEC",
"/. c #F9EEEE",
"(. c #F4F0EC",
"). c #FAF2EE",
"_. c #F5EFF0",
"`. c #F9EEF1",
"'. c #F5F0F0",
"]. c #FCF3F2",
"[. c None",
/* pixels */
"[.[.[.[.[.[.[.[.[.[.[.[.[.[.[.[.[.[.[.[.[.[.[.[.[.[.[.[.[.[.[.[.[.[.[.[.[.[.[.[.[.[.[.[.[.[.[.[.[.[.",
"[.[.[.[.[.[.[.[.[.[.[.[.[.[.[.[.[.[.[.[.[.[.~.V.[.[.[.[.[.[.[.[.[.[.[.[.[.[.[.[.[.[.[.[.[.[.[.[.[.[.",
"[.[.[.[.[.[.[.[.[.[.[.[.[.[.[.[.[.[.[.~.T.M.b.[.[.[.[.[.[.[.[.[.[.[.[.e i g ..[.[.[.[.[.[.[.[.[.[.[.",
"[.[.[.[.[.[.[.[.[.[.[.[.[.[.[.[.[.[.~.~.p.( [.[.[.[.[.[.[.[.[.[.[.[.[.u e 3 9 ..n.[.[.[.[.[.[.[.[.[.",
"[.[.[.[.[.[.[.[.[.[.[.[.[.[.[.[.[.~.Z.7.[.[.[.[.[.[.[.[.[.[.[.[.[.[.[.e g C e 9 z.Q.,.[.[.[.[.[.[.[.",
"[.[.[.[.[.[.[.[.[.[.[.[.[.[.[.[.[.R.5.( [.[.[.[.[.[.[.[.[.[.[.[.[.[.[.[.[.Z D 3 w./.].[.[.[.[.[.[.[.",
"[.[.[.[.[.[.[.[.[.[.[.[.[.[.[.[.[.~.1.5.[.[.[.[.[.[.[.[.[.[.[.[.[.[.[.[.[.[.D 2 0.].c.[.[.[.[.[.[.[.",
"[.[.[.[.[.[.[.[.[.[.[.[.[.[.[.~.T.7.5.].[.[.[.[.[.[.[.[.[.[.[.[.[.[.[.[.[.[.9 p L.B.[.[.[.[.[.[.[.[.",
"[.[.[.[.[.[.[.[.[.[.[.[.[.[.^.B.4.[ Q.g.[.[.[.[.[.[.[.[.[.[.[.[.[.[.[.[.[.[.[.L.~.} [.[.[.[.[.[.[.[.",
"[.[.[.[.[.[.[.[.[.[.[.[.[.[.L.] ] P.Q.[.[.[.[.[.[.[.[.[.[.[.[.[.[.[.[.[.[.[.0.).M.[.[.[.[.[.[.[.[.[.",
"[.[.[.[.[.[.[.[.[.[.[.[.~.F.W Q B.P.+.[.[.[.[.[.[.[.[.[.[.[.[.[.[.[.[.[.[.[.~.~.i.[.[.[.[.[.[.[.[.[.",
"[.[.[.[.[.[.[.[.[.[.[.[.p.[ [.p.'.O.t 8 e u [.[.[.[.[.[.[.[.[.[.[.[.[.[.[.T./.N.7.[.[.[.[.[.[.[.[.[.",
"[.[.[.[.[.[.[.[.[.[.[.[.[.~ ..Q.T.i._ 3 r u 6 u [.[.[.[.[.[.[.[.[.[.[.[.L.^.R.T.M.[.[.[.[.[.[.[.[.[.",
"[.[.[.[.[.[.[.[.[.[.[.[.[.[.b.(.C.[.j 6 u u u u y u u [.[.[.[.[.[.[.[.j.^.W.R.(.p.[.[.[.[.[.[.[.[.[.",
"[.[.[.[.[.[.[.[.[.[.[.[.[.5.Q.T.a.I.u 6 8 u u 6 u u e e [.[.[.[.[.[.~.~.~.Q.~.B.1.[.[.[.[.[.[.[.[.[.",
"[.[.[.[.[.[.[.[.[.[.[.[.[.j.].b.[.K 3 u u u u u e u 9 i e u [.[.[.L.^.W.R.~.E.4.[.[.[.[.[.[.[.[.[.[.",
"[.[.[.[.[.[.[.[.[.[.[.[.[.[.C.[.] p 8 y y u y 8 r e g U a : l P.P.~.W.~.R.~.Z.[.[.[.[.[.[.[.[.[.[.[.",
"[.[.[.[.[.[.[.[.[.[.[.[.[.[.[.[.[.y u y u y u r u e u w 8 O.P.^.~.W.~.!.~.T.} [.[.[.[.[.[.[.[.[.[.[.",
"[.[.[.[.[.[.[.[.[.[.[.[.[.[.[.[.[.[.[.u u 8 u y u 8 3 d l./.~.!.~.~.~.E.~.6.[.[.[.[.[.[.[.[.[.[.[.[.",
"[.[.[.[.[.[.[.[.[.[.[.[.[.[.[.[.[.[.[.[.u u u y 3 2 @.^.~.~.~.Q.E.Q.E.^.g.[.[.[.[.[.[.[.[.[.[.[.[.[.",
"[.[.[.[.[.[.[.[.[.[.[.[.[.[.[.[.[.[.[.[.u u 3 6 F  .~.~.~.R.E.~.W.~.~.P.7.[.[.[.[.[.[.[.[.[.[.[.[.[.",
"[.[.[.[.[.[.[.[.[.[.[.[.[.[.[.[.[.[.[.[.[.u L 9././.~.!.!.R.Q.W.E.~.Z.[ [ V.[.[.[.[.[.[.[.[.[.[.[.[.",
"[.[.[.[.[.[.[.[.[.[.[.[.[.[.[.[.[.[.[.[.[.y.Q./.~.W.~.W.!.~.E.~.R.^.p.' B.I.[.[.[.[.[.[.[.[.[.[.[.[.",
"[.[.[.[.[.[.[.[.[.[.[.[.[.[.[.[.[.[.6.~.W./.~.W.~.W.E.~.E.W.W.~.~.Z.4.T.E.d [.[.[.[.[.[.[.[.[.[.[.[.",
"[.[.[.[.[.[.[.[.[.[.[.[.[.[.[.[.[.j.^.E.E.~.~.~.W.~.W.~.W.~.R.!.~.~.~.^.*.m u [.[.[.[.[.[.[.[.[.[.[.",
"[.[.[.[.[.[.[.[.[.[.[.[.[.[.[.[.P.^.!.~.W.~.W.E.~.R.~.R.~.!.~.!.~.^.f.v w D D g u [.[.[.[.[.[.[.[.[.",
"[.[.[.[.[.[.[.[.[.[.[.[.[.[.T.!.~.R.~.R.~.!.~.R.~.W.!.~.W.~.~.!./.O.r 3 6 g D V C e [.[.[.[.[.[.[.[.",
"[.[.[.[.[.[.[.[.[.[.[.[.[.z.^.!.~.R.Q.!.R.~.W.~.R.~.E.W.~.!.~./.%.2 6 u e y Z D D g [.[.[.[.[.[.[.[.",
"[.[.[.[.[.[.[.[.[.[.[.[./.~.~.~.!.~.~.~.~.~.~.W.~.W.~.~.E.~.W.#.J i e u u e u D S D s [.[.[.[.[.[.[.",
"[.[.[.[.[.[.[.[.[.[.[.~.~.~.~.~.~.~.C.T.~.!.!.R.E.~.R.^.~.f.k d H 6 u u u e y Z Z g C [.[.[.[.[.[.[.",
"[.[.[.[.[.[.[.[.[.[.P.~.!.!.!.~.R.M.7.P.~.~.W.~.W.~.^.j.7.[.j u e e u 8 u u 6 i U m 4 [.[.-.[.[.[.[.",
"[.[.[.[.[.[.[.5.5.z.^.W.~.!.~.Z.4.7.^.~.~.~.~.!.~.~.g.] [.[.p 8 u u u u r 8 u u Z D u [.D C.[.[.[.[.",
"[.[.[.[.[.[.7.b.T.~.~.E.~.R.p.4.B.~.~.W.~.~.~.~.C.5.[.[.[.> u u e u u u u u u e h U 0 [.-.H.[.[.[.[.",
"[.[.[.[.[.[.B.W.~.~.~.~.~.p.7.L.M.~.~.~.R.~.E.p.[ [.[.[.[.O u u u u e u 6 u e e C D M 0 z.`.[.[.[.[.",
"[.[.[.[.[.g.W.Q.~.~.E.Z.2.} M.7.!.~.~.R.~.P.[ [.[.[.[.[.[.[.- i u f u e u r u u m D M &./.S.[.[.[.[.",
"[.[.[.[.[.~.~.~.~.T.p.[ [ ] g.^.~.~.~.~.Q.4.[.[.[.[.[.[.[.[.$ u y i Z e y e i f C N V ~.^.[.[.[.[.[.",
"[.[.[.[.t.(.!.Q.~.4.[.[.5.C.E.~.~.~.~.C.5.[.[.[.[.[.[.[.[.[.[.* u i D g 8 e u g f R j.E.Q.[.[.[.[.[.",
"[.[.[.[.q.`.^.:.T [.1.} T.~.~.R.~.~.Z.[ [.[.[.[.[.[.[.[.[.[.[.@ u u C N e e g M S U.^.Q.T.[.[.[.[.[.",
"[.[.[.[.y._.d.[.[.[ p.E.~.~.~.~.T.b.1.[.[.[.[.[.[.[.[.[.[.[.[.[.- y g U i e m U l.^.W.^.U.[.[.[.[.[.",
"[.[.[.[.[.*.[.[.} p.W.~.~.~.~.B.4.] K * $ X [.[.[.[.[.[.[.[.[.[.[.1 g [.9 i *.~.~.R.~.Q.0.[.[.[.[.[.",
"[.[.[.[.[.[.[...B.(.!.!.!.~.m.[.1.u 3 u p , O [.[.[.[.[.[.[.[.[.[.6 Z M Y r./.~.!.~.~.b.[.[.[.[.[.[.",
"[.[.[.[.[.[.[.[.(.~.!.!.~.C.[.[.d 8 6 u u a 6 < % . [.[.[.[.[.[.[.8 V ;.~.^.!.~.~.~.M.} [.[.[.[.[.[.",
"[.[.[.[.[.[.[.T.~.~.~.~.T.] [.K 3 y u y u y u u u 2 X [.[.[.[.[.z c T.^.~.~.~.~.~.~.6.[.>.[.[.[.[.[.",
"[.[.[.[.[.[.j./.~.~.~.R.1.[.[.u 6 u y u y u u u u u u $ [.[.[.[.E.~.E.E.~.E.~.~.(.M...] p.[.[.[.[.[.",
"[.[.[.[.[.[._.W.~.~.~.7.[.[.[.F 3 u u u u y u y u u u 6 O [.[.k.^.E.R.Q.E.R.E.~.C.1.Z.5.V.[.[.[.[.[.",
"[.[.[.[.[.^.~.~.C.~.g.[.[.[.P 1 u e u 8 y u y u u 8 u y 2 8.~.^.W.R.E.Q.E.Q.~.P.p.L.R.T.V.[.[.[.[.[.",
"[.[.[.[.q.'.~.B.C.Z.] [.[.<.3 6 r u y u y y u y u r 6 p y.~.~.E.E.R.R.E.E.E.W.p.R.^.k.C.v.[.[.[.[.[.",
"[.[.[.[.[.[.(.M.,.[.[.[.[.8 6 8 y u u y u r u u 6 6 u h.'.~.!.W.R.R.R.Q.Q.R.W.W.~.~.W.V.[.[.[.[.[.[.",
"[.[.[.[.[.[.[.[.[.[.[.[.^ 3 u u e u u u u u r 3 8 | ~.^.~.R.~.E.W.~.~.~.~.R.~.~.!.~.Z.V.[.[.[.[.[.[.",
"[.[.[.[.[.[.[.[.[.[.[.[.s 3 u u u u 8 r u y 2 l y.`.R.W.W.~.W.~.~.E.W.W.!.~.~.~.~.T.5.[.[.[.[.[.[.[.",
"[.[.[.[.[.[.[.[.[.[.[.[.Y a e e e u u u 3 6 @.~.'.~.R.~.W.E.~.!.R.~.~.E.!.~.~.~.~.7.[.[.[.[.[.[.[.[.",
"[.[.[.[.[.[.[.[.[.[.[.[.[.[.u e u u 8 3 F L.].L.9.L.~.W.~.E.W.~.~.!.W.~.E.W.~.~.g.' [.[.[.[.[.[.[.[.",
"[.[.[.[.[.[.[.[.[.[.[.[.[.[.[.i 6 6 u r.~./.0.[.k.W.~.E.Q.R.~.R.W.R.R.~.!.~.~.L.' [.[.[.[.[.[.[.[.[.",
"[.[.[.[.[.[.[.[.[.[.[.[.[.[.[.[.[.P ~./.@.[.[.U.^.!.W.~.~.R.W.~.E.Q.~.!.!.~.~.V.[.[.[.[.[.[.[.[.[.[.",
"[.[.[.[.[.[.[.[.[.[.[.[.[.[.[.[.[.].U.K.[.! C.^.W.~.!.E.!.E.~.R.~.E.W.E.~.T.P.N.[.[.[.[.[.[.[.[.[.[.",
"[.[.[.[.[.[.[.[.[.[.[.[.[.[.[.U.~.~.| [.[.C.~.~.R.R.~.W.~.W.W.~.W.W.~.~.~.p.Q.<.[.[.[.[.[.[.[.[.[.[.",
"[.[.[.[.[.[.[.[.[.[.[.[.[.[.~.E.'.[.[.[.L./.R.R.R.~.R.~.~.R.~.E.~.R.~.W.W.~.g.t [.[.[.[.[.[.[.[.[.[.",
"[.[.[.[.[.[.[.[.[.[.[.[.[.T.~.n.[.[.[.U.~.Q.Q.E.~.W.~.W.W.~.W.W.!.~.E.~.~.^.c 3 y s [.[.[.[.[.[.[.[.",
"[.[.[.[.[.[.[.[.[.[.[.q.'.T.} [ [.[.U.~.E.R.Q.Q.!.~.E.~.~.R.R.~.~.~.~.T.Q.3.3 u u y [.[.[.[.[.[.[.[.",
"[.[.[.[.[.[.[.[.[.[.[._.~.n.[.[.j.T.^.W.~.~.E.R.E.W.W.~.!.~.R.Q.W.E.~.M.T.K 6 u u u u [.[.[.[.[.[.[.",
"[.[.[.[.[.[.[.[.[.P.!.^.b.[.[.U.g.^.W.!.~.!.~.W.~.R.~.W.Q.E.R.E.~.~.g.n.9.3 y y u y e s [.[.[.[.[.[.",
"[.[.[.[.[.[.[.[.q./.~.B.A.[.3.p.P.~.R.~.W.R.~.E.W.~.R.~.~.E.Q.E.~.Z.i.w.e 6 u y y u y 6 z [.[.[.[.[.",
"[.[.[.[.[.[.[.[./.~.4.B.[.P.g.Q.E.~.E.W.~.E.W.~.W.~.~.!.E.~.E.E.M.{ s.j 6 u y y 8 r u e d [.[.[.[.[.",
"[.[.[.[.[.[.[.T.~.T.4.[.[ 5.~.~.~.W.~.~.~.W.~.R.~.E.W.~.~.E.~.V.' L M B u 6 u y u i e u 3 l [.[.[.[.",
"[.[.[.[.[.s.(.~.R.6.[.[.4.W.~.~.~.!.~.W.~.R.~.R.~.!.~.!.!.~.P.] p 2 i U q e y y u g i e e 9 6.[.[.[.",
"[.[.[.[.[.'.~.~.p.[.[.[ Z.~.!.!.!.~.R.~.W.~.W.~.W.~.~.~.~.W.7.3.3 e e s S u y r 8 u g u r 3 v [.[.[.",
"[.[.[.[.^.E.~.B.[ [.[ B.~.~.~.R.!.!.~.W.R.!.Q.~.E.~.R.~.Q.5.M.l 6 u r e C i e u r e C h e 6 i 7.[.[.",
"[.[.[.!.~.R.5.1.[ 1.f.~.~.~.~.~.~.~.R.~.~.R.R.E.~.W.~.~.p.n.+.1 u 8 y e s q e u u 6 9 V i e 6 I Q.[.",
"[.[.L.(.~.p.[.[.4.Z.~.~.!.R.~.R.W.E.~.W.~.R.E.~.~.~.^.M.5.V.j 6 u 8 u u 8 s e u u 8 u U f e e 0 6.[.",
"[.s._.~.N.] [.[.7.~.~.~.~.~.!.~.W.~.R.~.~.!.~.E.~.~.Z.[ Q.P 3 u r u u u u e u u u e u V D s e q j.].",
"[.U.(.C.[ [.[.[ Z.~.W.~.!.~.E.~.~.~.~.W.!.^.B.C.~.M.[ T.w.3 6 u 8 u u u u u e u u e u Z D h 6 0 z.].",
"[.T.Q.[ [.[.[ M.~.~.E.E.~.W.4.Z.~.~.R.~.~.P.p.(.V.' B.I.6 6 u u 8 h e u 6 u u u u e u D V D 8 w x.`.",
"0.].7.[.[.[ 7.~.~.~.!.~.~.6.p.~.~.~.E.~.P.5.M.(.f.[ B.[.O u u u u g u e u u 8 u y y i D D D 8 +.).V.",
"0.^.4.[.[ 5.~.~.~.~.~.~.B.5.~.~.~.~.~.C.' 7.(.C.' D.[.[.. - a u e a N r y y u y 8 e C D S S m d.).[.",
"0.b.[.[.1.T.~.~.E.~.~.~.M.T.~.!.E.~.T.[ 5.E.P.[ 4.[.[.[.[.. < u y i D u e 8 u u u e C D S N U ^.Q.[.",
"3.7.[.[ Z.~.~.~.~.R.~.N.L.~.~.~.~.~.5.] f.(.M.1.[.[.[.[.[.[.X 6 u u C h e u r u e i N s D N d.^.W.[.",
"[.[.} M.Z.M.~.E.C.5.C.N.~.R.R.!.~.p.[ 4.E.E.2.u.[.[.[.[.[.[.. $ u y C Z e y y y e q h A V M z.Q.].[.",
"[.[._ n.7.~.(.7.] Z.C.C.~.~.E.~.L.[ { T.~.Z.4.2.[.[.[.[.[.[.[.+ e u g C e 8 u y 8 C M.o.q 8.^.~.Q.[.",
"[.[.[.u.~.~.N.] 5.~.C.~.~.~.!.(.g.[ p.^.^.7.4.[.[.[.[.[.[.[.[.. - u u g y y r e 0 h.&.b X./.~.~.M.S.",
"[.[.5.M.(.~.5.[ B.E.E.~.E.!.~.B.[ [ Z.C.V.4.u.[.[.[.[.[.[.[.[.. - u s C e y 8 2 =.G.A T ~.~.~.C.7.S.",
"[.[.p.W.^.B.[ [ T.~.W.~.~.~.P.[ [.4.!.W.B.4.[.[.[.[.[.[.[.[.[.+ e u D Z e u 3 P Q.$.A U.~.~.~.M.B.[.",
"[.[.T.^.P.[ [ k.~.~.~.~.~.~.4.[.[ Z.~.~.4.5.[.[.[.[.[.[.[.[.. % y s U C y 3 s ~.M.A l.^.~.~.Z.M.Q.[.",
"[.5.~.~.2.[.5.~.~.~.~.W.^.P.[.[ N.^.~.P.1.5.( J.[.[.[.[.[.[.+ 6 y Z D f 3 y K.^.5.Q.~.~.!.~.5.V.V.[.",
"[.~.~.7.[.[ B.~.~.E.~.~.~.4.[.{ Q.~.~.7.[ 1.5.[.[.[.[.[.[.. - u i D D y 1 0.'.5.7.~.~.Q.Q.~.L.W.[.[.",
"0.].U.[.[.1.U.~.Q.~.E.~.7.[.[ g.~.~.~.f.5.[.1.[.[.[.[.[.[.o 6 e g D D 3  ./.!.C.W.~.~.W.E.~.Q.[.[.[.",
"0.].p.[.[.f.~.~.R.R.~.~.4.[ p.~.~.~.Z.[ } 7.[.[.[.[.[.[.X < r i V [.n P ~.~.~.~.E.E.!.~.~.~.B.[.[.[.",
"[.C.[.[.1.B.~.~.~.E.~.p.[.{ W.~.~.~.B.[ 1.5.[.[.[.[.[.. , u e Z V V G P.^.Q.R.~.~.Q.R.~.~.M.[.[.[.[.",
"[.[.[.[.2.(.~.E.~.~.B.[ [ 6.E.~.~.~.2.1.4.[ [.[.[.[.. * u e i N n -./.~.Q.E.~.!.~.E.R.~.C.7.[.[.[.[.",
"[.[.[.[.[.T.~.~.~.Z.[ [.5.T.~.!.E.B.[ } 7.[.[.[.[.. # u u e w U e.~.~.~.~.R.~.~.~.~.~.~.p.[.[.[.[.[.",
"[.[.[.[.[.[.^.~.^.f.[.[ 7.~.~.!.^.p.[ [ v.[.[.[.[.o 6 u u u C l./.~.~.P.C.~.~.~.~.~.~.C.u.[.[.[.[.[.",
"[.[.[.[.[.[.[./.T.[ [.4.T.~.~.!.~.f.[ 7.E [.[.[.. < u y 3 C ;.^.R.~.g.[ C.~.~.~.~.~.p.5.[.[.[.[.[.[.",
"[.[.[.[.[.[.[.B.Q.[.[.B.~.~.~.~.^.p.[ [ u.[.[ & * i e 3 l L.^.~.(.B.] 7.~.~.~.~.P.1.[ [.[.[.[.[.[.[.",
"[.[.[.[.[.[.[.>.Q.1.] M.~.R.Q.E.E.p.[ 2.[ 4.5.5 6 2 s <./.~.~.~.M.2.[ B.~.~.~.W.5.[.[.[.[.[.[.[.[.[.",
"[.[.[.[.[.[.[.[.n.4.4.T.~.Q.E.~.(.f.[ 2.1.4.5.d :  .U./.W.^.Z.7.[ [ p.~.~.~.~.7.[.[.[.[.[.[.[.[.[.[.",
"[.[.[.[.[.[.[.[.[.[.7.~.~.~.~.~.P.2.[ 2.1.1.} s.h.~.^.E.~.p.1.[ 1.6.Q.~.~.~.g.[ [.[.[.[.[.[.[.[.[.[.",
"[.[.[.[.[.[.[.[.[.[.6.~.E.~.E.~.Z.2.2.[ [ Z.!.Q.^.~.E.~.M.[ 4.4.V.~.~.T.~.P.[ [.[.[.[.[.[.[.[.[.[.[.",
"[.[.[.[.[.[.[.[.[.[.[ C.~.!.~.~.E.5.[ 7.C.(.~.~.^.~.P.4.[ [.f.T.V.Z.C.1.Z.B.[.[.[.[.[.[.[.[.[.[.[.[.",
"[.[.[.[.[.[.[.[.[.[.[.7.^.^.~.~.P.p.C.).T.g.~.C.g.M.[ [.[.[.[ [ [.[ ] C.T.[ [.[.[.[.[.[.[.[.[.[.[.[.",
"[.[.[.[.[.[.[.[.[.[.[.[.[.7.~.~.E.(.T.p.6.[ f.4.[.[.[.[.[.[.[.[.[.[.g.~.[.[.[.[.[.[.[.[.[.[.[.[.[.[.",
"[.[.[.[.[.[.[.[.[.[.[.[.[.[.[.5.5.6.5.[.[.[.[.[.[.[.[.[.[.[.[.[.[.[.[.[.[.[.[.[.[.[.[.[.[.[.[.[.[.[."
};
