/* XPM */
static char *result[] = {
/* columns rows colors chars-per-pixel */
"50 100 164 2 ",
"   c #027C7C",
".  c #0C7F7F",
"X  c #04807E",
"o  c #017E80",
"O  c #058282",
"+  c #0A8585",
"@  c #088888",
"#  c #148C8C",
"$  c #198F8F",
"%  c #16908F",
"&  c #1E918F",
"*  c #1C9292",
"=  c #209696",
"-  c #259999",
";  c #299B9B",
":  c #2CA3A2",
">  c #34A3A3",
",  c #3AA9A7",
"<  c #35AAAA",
"1  c #3BABAB",
"2  c #40A4A4",
"3  c #43AEAE",
"4  c #5AA3A6",
"5  c #5BAAA9",
"6  c #45B0AE",
"7  c #49B2AE",
"8  c #52B6AE",
"9  c #54B8AE",
"0  c #5CBBAD",
"q  c #45AEB0",
"w  c #4DAFB3",
"e  c #50AFB3",
"r  c #47B0B0",
"t  c #49B0B0",
"y  c #53B4B4",
"u  c #5AB5B6",
"i  c #5DBAB3",
"p  c #5CB5B8",
"a  c #64AAA9",
"s  c #62BFAD",
"d  c #69AEB4",
"f  c #63BDB1",
"g  c #63B3BB",
"h  c #6BB3BD",
"j  c #64BABA",
"k  c #6ABCBC",
"l  c #73B4B6",
"z  c #79B6B6",
"x  c #7FB0BB",
"c  c #71BEBF",
"v  c #7BBBBB",
"b  c #65C2AB",
"n  c #72C6AD",
"m  c #6DC3B0",
"M  c #7AC7B1",
"N  c #72C1BE",
"B  c #7CC3BD",
"V  c #71B2C0",
"C  c #73B9C1",
"Z  c #77C2C0",
"A  c #7CC2C2",
"S  c #84B9B9",
"D  c #89BDBD",
"F  c #86CABC",
"G  c #8DCCBC",
"H  c #92CDBC",
"J  c #8DD0B7",
"K  c #8BD0B8",
"L  c #95D3BA",
"P  c #8EB7C3",
"I  c #84BBC7",
"U  c #8BB6CA",
"Y  c #8CBACB",
"T  c #97B7CF",
"R  c #93BDCC",
"E  c #98BCCF",
"W  c #9EBFD0",
"Q  c #A3B6D4",
"!  c #A5BBD4",
"~  c #ACBDD7",
"^  c #AEBFD8",
"/  c #B1BFD8",
"(  c #84C5C5",
")  c #8AC5C6",
"_  c #8AC8C7",
"`  c #8BC6C8",
"'  c #8DC9C9",
"]  c #90C1C1",
"[  c #9EC6C6",
"{  c #90C8C5",
"}  c #9FCEC5",
"|  c #97C7CD",
" . c #94CBCA",
".. c #9BCDCD",
"X. c #9FC3D1",
"o. c #A7CCCB",
"O. c #ADCDCD",
"+. c #A4D2C6",
"@. c #A1D1CD",
"#. c #ADD5CC",
"$. c #BCDECE",
"%. c #A6C2D3",
"&. c #ACC2D5",
"*. c #A3CBD1",
"=. c #ABCED4",
"-. c #AFC0D8",
";. c #B0C6D6",
":. c #B5C8D6",
">. c #B2C1D9",
",. c #BAC6DB",
"<. c #B6CAD9",
"1. c #BDC9DC",
"2. c #A4D1D0",
"3. c #ABD3D3",
"4. c #B4D6D5",
"5. c #BCD5D5",
"6. c #B7D8D7",
"7. c #B8D8D5",
"8. c #BED4DC",
"9. c #BDDAD9",
"0. c #C3C7DF",
"q. c #C2CDDD",
"w. c #C8CFDF",
"e. c #C3D7D7",
"r. c #C2D8D7",
"t. c #C6D2DD",
"y. c #C9D2DF",
"u. c #C5DBDB",
"i. c #CBDCDE",
"p. c #D3DDDF",
"a. c #C7E0D8",
"s. c #CCE1DE",
"d. c #D5E2DE",
"f. c #D9E5DE",
"g. c #CBCEE1",
"h. c #CDD4E0",
"j. c #C8DFE0",
"k. c #D1D6E2",
"l. c #DAD7E6",
"z. c #D4DAE2",
"x. c #DADDE4",
"c. c #DDDCE8",
"v. c #E0DFE6",
"b. c #E4DFE8",
"n. c #CEE1E0",
"m. c #D4E1E1",
"M. c #DDE2E4",
"N. c #E3E5E6",
"B. c #E8E7E7",
"V. c #E6E8E7",
"C. c #E9E9E7",
"Z. c #E6E6E8",
"A. c #EAE6E9",
"S. c #E7E8E8",
"D. c #E9E9E8",
"F. c #F0E7EE",
"G. c #F2EDEC",
"H. c #F9EEEE",
"J. c #F3F0EB",
"K. c #FEF2EF",
"L. c #F5EAF0",
"P. c #F9EEF0",
"I. c #FCF1F1",
"U. c None",
/* pixels */
"U.U.U.U.U.U.U.U.U.U.U.U.U.U.U.U.U.U.U.U.U.U.U.U.U.U.U.U.U.U.U.U.U.U.U.U.U.U.U.U.U.U.U.U.U.U.U.U.U.U.",
"U.U.U.U.U.U.U.U.U.U.U.U.U.U.U.U.@.t U.U.U.U.U.U.U.U.U.U.U.U.U.U.U.U.U.U.U.U.U.U.U.U.U.U.U.U.U.U.U.U.",
"U.U.U.U.U.U.U.U.U.U.U.U.U.U.U.U.j 1 t 7 t t r U.U.U.U.U.U.U.U.U.U.U.U.U.U.U.U.U.U.U.U.U.U.U.U.U.U.U.",
"U.U.U.U.U.U.U.U.U.U.U.U.U.U.U.U.3.y 1 t t r t t t t U.U.U.U.U.U.U.U.u.z.U.U.U.U.U.U.U.U.U.U.U.U.U.U.",
"U.U.U.U.U.U.U.U.U.U.U.U.U.U.U.U.8.p < t t t r t r t t r U.U.U.U.U.J.N.U.U.U.U.U.U.U.U.U.U.U.U.U.U.U.",
"U.U.U.U.U.U.U.U.U.U.U.U.U.U.U.U.U.U.p 6 6 t q t t q t t 3 1 u 3.N.x.U.U.U.U.U.U.U.U.U.U.U.U.U.U.U.U.",
"U.U.U.U.U.U.U.U.U.U.U.U.U.U.U.U.U.U.U.U.U.t t t t t 3 1 r ) C.A.>.U.U.U.U.U.U.U.U.U.U.U.U.U.U.U.U.U.",
"U.U.U.U.U.U.U.U.U.U.U.U.U.U.U.U.U.U.U.U.U.U.U.t r 1 u 3.u.G.x.;.! U.U.U.U.U.U.U.U.U.U.U.U.U.U.U.U.U.",
"U.U.U.U.U.U.U.U.U.U.U.U.U.U.U.U.U.U.U.U.U.U.U.U.U.u 3.I.G.k.>.U.U.U.U.R t U.U.U.U.U.U.U.U.U.U.U.U.U.",
"U.U.U.U.U.U.U.U.U.U.U.U.U.U.U.U.U.U.U.U.U.U.U.U.U.I.D.M.1.^ U.U.>.1.*.u 6 U.U.U.U.U.U.U.U.U.U.U.U.U.",
"U.U.U.U.U.U.U.U.U.U.U.U.U.U.U.U.U.U.U.U.U.U.U.D.D.D.h.! 1.U.! 0.h.' < 6 6 r h U.U.U.U.U.U.U.U.U.U.U.",
"U.U.U.U.U.U.U.U.U.U.U.U.U.U.U.U.U.U.D.U.U.D.D.S.D.N.g.g.h.^ h.A.2.3 3 r r 6 6 U.U.U.U.U.U.U.U.U.U.U.",
"U.U.U.U.U.U.U.U.U.U.U.U.U.U.U.U.G.z 5 M.L.D.D.S.D.S.S.D.N.M.P.3.t 1 t t t t r t p U.U.U.U.U.U.U.U.U.",
"U.U.U.U.U.U.U.U.U.U.U.U.U.U.M.5.] 5.D.N.D.S.S.D.D.D.D.D.J.D.A q 3 t t t t t t 1 y U.U.U.U.U.U.U.U.U.",
"U.U.U.U.U.U.U.U.U.U.U.U.U.D.4.o.N.G.Z.S.S.D.D.D.S.D.S.G.H.z 3 3 t t t t t t t 3 e Y U.U.U.U.U.U.U.U.",
"U.U.U.U.U.U.U.U.U.U.U.A.D.A.D.G.S.C.D.D.S.D.D.D.Z.G.D.r.U.  + > t t t t r t q t 3 e %.U.U.U.U.U.U.U.",
"U.U.U.U.U.U.U.U.U.U.N.D.D.A.D.D.D.C.D.D.D.z.q.M.D.P.r.U.U.U.U.O * 3 t r q 7 t t r 3 u U.U.U.U.U.U.U.",
"U.U.U.U.U.U.U.U.U.U.D.D.D.D.N.M.N.D.D.M.1.h.N.S.I.M.a U.U.U.U.U.U.* t t t q 3 t r q t U.U.U.U.U.U.U.",
"U.U.U.U.U.U.U.U.U.D.D.D.C.z.>.1.N.G.z.-.t.Z.D.C.I.M.4 U.U.U.U.U.U.U.. > y t t t r 3 y U.U.U.U.U.U.U.",
"U.U.U.U.U.U.U.U.D.D.N.h.1.,.z.G.N.h.q.x.D.D.D.D.A.P U.U.U.U.U.U.U.U.U.+ , t t t r 3 t U.U.U.U.U.U.U.",
"U.U.U.U.U.U.U.U.D.D.t.Q ,.N.G.z.>.q.C.D.D.D.D.x.,.U.U.U.U.U.U.U.U.U.U.> 3 t t t 1 r _ U.U.U.U.U.U.U.",
"U.U.U.U.U.U.U.U.z.,.^ h.C.N.1.-.z.D.D.D.D.D.J.z.l U.U.U.U.U.U.U.U.U.U.* t t t t 1 t 2.U.U.U.U.U.U.U.",
"U.U.U.U.U.U.U.U.>.~ h.z.1.~ ,.z.D.D.D.D.Z.M.G.[ D U.U.U.U.U.U.U.U.U.U.  ; 3 t 6 t _ U.U.U.U.U.U.U.U.",
"U.U.U.U.U.U.U.t.~ ,.1.-.! 1.C.D.S.C.D.D.k.>.L.u.U.U.U.U.U.U.U.U.U.U.U.U.+ 1 t < u i.U.U.U.U.U.U.U.U.",
"U.U.U.U.U.U.U.,.>.-.~ >.y.C.D.D.S.D.N.q.,.N.M.U.U.U.U.U.U.U.U.U.U.U.U.U.U.< 3 3 A h.U.U.U.U.U.U.U.U.",
"U.U.U.U.U.U.U.-.-.~ ~ y.D.D.D.D.D.D.q.~ x.G.U.U.U.U.U.U.U.U.U.U.U.U.U.U.j ) 3 N x.g.U.U.U.U.U.U.U.U.",
"U.U.U.U.U.U.U.U.^ >.y.N.G.D.D.D.S.q.-.k.G.z U.U.U.U.U.U.U.U.U.U.U.U.U.U.r. .N 5.l.^ U.U.U.U.U.U.U.U.",
"U.U.U.U.U.U.U.U.>.x.D.D.D.D.D.M.,.Q h.G.4.- U.U.U.U.U.U.U.U.U.U.U.U.U.S M. .7.l.>.U.U.U.U.U.U.U.U.U.",
"U.U.U.U.U.U.U.U.M.N.D.C.z.z.Z.,.! g.D.u.t < + U.U.U.U.U.U.U.U.U.U.U.U.6.D.I.D.,.U.U.U.U.U.U.U.U.U.U.",
"U.U.U.U.U.U.U.U.D.D.x.,.,.M.w./ U 8.s.j < y > + U.U.U.U.U.U.U.U.U.U.p.m.D.D.M.,.~ x.U.U.U.U.U.U.U.U.",
"U.U.U.U.U.U.U.D.D.y.~ ,.x.z./ T | 6.) < t t y ; O   U.U.U.U.U.U.U.m.K.D.D.D.x.q.q.t.U.U.U.U.U.U.U.U.",
"U.U.U.U.U.U.D.D.z.~ >.x.x.~ ~ g ) Z r 3 q t t t 1 #   U.U.U.U.O.M.G.S.D.D.C.1.h.N.U.U.U.U.U.U.U.U.U.",
"U.U.U.U.U.U.N.h.^ ~ k.N.%.g y ) ( u 1 t t r r t t < O U.U.U.r.H.D.D.D.S.D.h.1.M.V.U.U.U.U.U.U.U.U.U.",
"U.U.U.U.U.U.x.1.~ h.b.<.h 1 3 k y 3 t t 7 t t r t t ; . U.p.G.D.S.D.D.D.D.1.,.c.z.U.U.U.U.U.U.U.U.U.",
"U.U.U.U.U.U.U.U.U.S.M.I 1 q q 3 3 r t 6 q t 6 q 1 y ..M.N.D.D.D.D.D.D.D.M.>.h.x.~ U.U.U.U.U.U.U.U.U.",
"U.U.U.U.U.U.U.U.U.U.<.C 1 t t t t t r r 3 3 u y 3 k u.I.D.D.A.S.S.S.D.S.1.h.Z.t.U.U.U.U.U.U.U.U.U.U.",
"U.U.U.U.U.U.U.U.U.U.U.U.q t t q r t 3 3 g g u Z 3.M.G.D.S.S.S.S.S.D.N.q.1.Z.D.t.U.U.U.U.U.U.U.U.U.U.",
"U.U.U.U.U.U.U.U.U.U.U.U.t t t 7 t 1 p *.&.g A n.G.G.S.D.D.D.S.S.S.D.N.z.N.M.1.U.U.U.U.U.U.U.U.U.U.U.",
"U.U.U.U.U.U.U.U.U.U.U.U.U.t t 6 1 y 4.A.T ( D.G.D.S.D.S.N.D.Z.C.S.S.S.D.J.y.U.U.U.U.U.U.U.U.U.U.U.U.",
"U.U.U.U.U.U.U.U.U.U.U.U.U.U.r 3 3 @.b.%.( N.D.D.D.Z.D.S.D.S.D.D.D.A.D.D.N.,.U.U.U.U.U.U.U.U.U.U.U.U.",
"U.U.U.U.U.U.U.U.U.U.U.U.U.U.U.<  .N.:.I s.D.D.D.D.S.D.Z.D.D.C.Z.D.D.D.S.1.U.U.U.U.U.U.U.U.U.U.U.U.U.",
"U.U.U.U.U.U.U.U.U.U.U.U.U.U.U.@.M.,.I 6.I.S.S.D.S.S.C.S.Z.C.D.D.S.D.S.q.h.U.U.U.U.U.U.U.U.U.U.U.U.U.",
"U.U.U.U.U.U.U.U.U.U.U.U.U.U.U.D.g.<.z.M.3.M.D.D.S.D.S.D.D.D.N.D.D.N.h.,.U.U.U.U.U.U.U.U.U.U.U.U.U.U.",
"U.U.U.U.U.U.U.U.U.U.U.U.U.U.z.1.z.D.D.D.M.S.S.S.D.D.D.S.S.S.D.D.D.k.,.U._ y 3 U.U.U.U.U.U.U.U.U.U.U.",
"U.U.U.U.U.U.U.U.U.U.U.U.U.A.D.D.D.D.S.S.D.D.Z.D.D.N.N.D.S.S.D.D.z.q.x.2.3 1 t U.U.U.U.U.U.U.U.U.U.U.",
"U.U.U.U.U.U.U.U.U.U.U.U.C.D.D.N.D.D.A.S.S.S.D.D.N.h.x.D.D.D.J.z.q.l.9.6 q r t t U.U.U.U.U.U.U.U.U.U.",
"U.U.U.U.U.U.U.U.U.U.U.N.C.Z.D.D.A.D.S.S.D.D.D.M.,.g.D.D.S.D.D.S.y._ t 6 i t 6 t t t U.U.U.U.U.U.U.U.",
"U.U.U.U.U.U.U.N.U.U.D.D.D.S.D.N.C.D.S.S.D.D.N.>.>.M.D.D.S.D.D.I.u.u < t b y t r t t t U.U.U.U.U.U.U.",
"U.U.U.U.U.U.U.M.U.U.D.D.D.D.D.S.D.S.D.C.S.D.Z.q.q.Z.D.D.S.M.L.M.A 1 t q t m f 7 q r r r U.U.U.U.U.U.",
"U.U.U.U.U.U.N.U.U.A.S.D.D.D.Z.D.S.D.S.D.D.N.>.^ z.D.D.D.k.c.D. .1 3 t t 3 i n 9 1 t t 3 t U.U.U.U.U.",
"U.U.U.U.U.U.N.U.C.D.D.N.h.z.D.D.D.D.S.D.N.,.~ 1.M.G.A.x.h.I.@.r 1 t q t q 0 n ( C 1 t t < A u.U.U.U.",
"U.U.U.U.U.C.D.D.S.D.D.h.,.N.D.N.w.h.D.C.q.~ >.M.D.D.N.y.D.9.t 1 t t t t t q s L @.k 1 r 1 u ..U.U.U.",
"U.U.U.U.U.C.D.D.D.M.,.>.M.G.D.t.q.N.D.h.! ~ q.N.G.y.1.A.n.u q r t 7 q t r q 0 M o.8.y 3 1 3 | M.U.U.",
"U.U.U.U.N.D.D.D.N.,.>.x.D.D.h.>.x.G.z.^ ~ ,.N.G.y.1.N.D.j q r t q t t t r q b n } M.*.y w 3 o.D.U.U.",
"U.U.U.U.S.D.D.z.-.! h.D.D.x.~ q.Z.x.>.~ ^ y.D.x.1.c.f.5 > t t t t t t q r q b n G d.k.Y u <  .G.d.U.",
"U.U.U.Z.D.N.h.>.! h.S.G.M.,.>.N.N.,.~ ~ ,.N.N.,.y.K.O.U.@ 1 t t t q 7 t 7 3 y b K m.A.%.1 j i.H.N.U.",
"U.U.N.D.Z.h.~ %.g.Z.D.h.~ ^ x.S.q.~ ~ >.z.D.z.k.N.D.U.U.U.* t t t q t t t q t s J d.G.%.< Z N.K.M.U.",
"U.U.C.D.k.~ ^ z.D.G.z.-.~ 1.N.g.-.~ ~ ,.M.z.^ h.M.U.U.U.U.  = 3 y t t t r q y s H M.G.R y 7.K.D.D.d.",
"U.U.D.z.>.~ -.h.x.h.,.! ,.k.t.&.-.-.~ 1.M.q.h.m.U.U.U.U.U.U.U.# , u 6 t t 3 7 m #.F.D.*.C i.G.D.D.t.",
"U.D.x.,.~ ^ 1.t.-.~ ! ,.z.h.~ -.>.~ 1.x.h.1.x.U.U.U.U.U.U.U.U.U.$ 3 t t t 3 6 m $.P.N...m.G.D.G.z.U.",
"U.N.1.~ ~ ,.h.,.^ -.~ 1.h.,.>.>.>.~ 1.z.z.N.U.U.U.U.U.U.U.U.U.U.U.+ > t t 3 6 F z.G.m.U.N.G.D.M.&.U.",
"C.x.,.! ,.x.z.>.-.~ >.t.1.-.h.W V %.l.z.M.U.U.U.U.U.U.U.U.U.U.U.U.U.+ > 1 3 9 +.D.D.D.S.S.D.G.z.U.U.",
"N.q.-.~ q.h.,.~ ~ >.g.q.^ >.^ p C h.G.N.U.U.U.U.U.U.U.U.U.U.U.U.U.U.U.    : l r.L.D.S.D.S.D.x.>.U.U.",
"N.w.^ ^ ^ ~ ~ >.^ ,.,.>./ ^ h g i.D.U.U.U.U.U.U.U.U.U.U.U.U.U.U.U.U.U.U.* 3 { f.G.C.D.D.D.G.h.U.U.U.",
"N.t.^ ^ >.>.~ >.>.^ ^ / 1.| y ! L.M.U.U.U.U.U.U.U.U.U.U.U.U.U.U.U.U.U.  ; 9 6.G.D.D.S.S.D.M.1.U.U.U.",
"N.t./ ^ ^ -.~ >.^ / ^ ,.*.t A Z.9.2   U.U.U.U.U.U.U.U.U.U.U.U.U.U.U.U.* < _ N.G.S.D.D.D.N.1./ U.U.U.",
"U.N.q.^ >.~ >.>.^ ^ 1.%.j u 9.A t 1 * U.U.U.U.U.U.U.U.U.U.U.U.U.U.U.O , Z M.J.S.D.D.D.D.q.~ U.U.U.U.",
"U.U.z.>.~ >.>.~ ^ ~ g.*.Z  .y 1 t 6 ; O U.U.U.U.U.U.U.U.U.U.U.U.U.U.% j M.J.S.S.D.D.D.y./ U.U.U.U.U.",
"U.U.U.>.^ -.>.~ ~ 0.=.k 3 j 3 t r y > O U.U.U.U.U.U.U.U.U.U.U.U.U.U.> n.G.D.D.D.D.D.k.~ U.U.,.M.U.U.",
"U.U.U.U.U./ >.-.,.t.Z < 3 3 q q t t , + U.U.U.U.U.U.U.U.U.U.U.U.U.U.z I.D.C.D.D.D.x./ / -.>.y.M.U.U.",
"U.U.U.U.U.~ >.~ x.u.k < t t w 7 t t t ; U.U.U.U.U.U.U.U.U.U.U.U.U.U.D.D.D.D.D.D.M.>.~ y.q.k.N.d.U.U.",
"U.U.U.U.U.~ / ,.z.C 1 t 7 t 7 t t t t < O U.U.U.U.U.U.U.U.U.U.U.U.G.D.S.D.S.D.M.1.~ 1.M.y.D.p.U.U.U.",
"U.U.U.U.U.^ >.q.*.u 1 t q t t t t t y 3 # U.U.U.U.U.U.U.U.U.U.U.D.D.D.S.S.G.A.w.! ,.N.h.Z.N.;.U.U.U.",
"U.U.U.U.U.U./ -.k q 3 3 7 t t q t q t q > O U.U.U.U.U.U.U.U.U.G.D.S.S.S.D.D.w.! ,.c.z.x.D.x.>.U.U.U.",
"U.U.U.U.U.U.>.t.j 3 t t q t q 7 t t t y 1 + U.U.U.U.U.U.U.U.D.D.D.D.S.D.D.y.^ w.S.D.S.D.S.q.^ ! U.U.",
"U.U.U.U.U.U./ i.k 3 3 t t t t t t t 7 t q > X U.U.U.h.p.U.H.D.D.N.D.D.D.x.~ 1.N.D.S.D.D.x.1.~ U.U.U.",
"U.U.U.U.U.U.1.*.u 3 t t t 7 q t t t 3 t t t ;   S N.z.U.F.D.S.S.D.S.D.D.8.g.N.D.D.D.S.M.q.>.! U.U.U.",
"U.U.U.U.U.U.1.) r 1 q t t q t t t t t t t r 1 Z y.D.U.D.D.D.C.D.Z.C.C.Z.N.D.D.D.D.D.k.h.,.^ U.U.U.U.",
"U.U.U.U.U.U.U.y 6 r r t t t t t t t t 3 1 t r.D.Z.N.G.C.D.D.S.D.Z.D.D.Z.D.Z.D.D.D.z.>.h.,.! U.U.U.U.",
"U.U.U.U.U.U.U.` r 3 t r q t 7 q t t 3 3 j 4.G.N.N.D.D.Z.D.N.D.S.C.D.S.D.S.D.D.D.z.,.z.1.>.U.U.U.U.U.",
"U.U.U.U.U.U.U.B t 3 t t t t t q t 3 1 k N.G.D.D.D.S.D.D.C.D.C.Z.D.C.Z.D.C.Z.D.N.h.y.M.>.~ U.U.U.U.U.",
"U.U.U.U.U.U.U.U.f t q q t t t 3 1 t ..N.G.D.D.D.Z.D.Z.D.Z.S.S.D.Z.D.D.S.S.D.D.C.N.M.,.>.! U.U.U.U.U.",
"U.U.U.U.U.U.U.U.U.f q q t t q 3 N i.G.G.C.N.N.D.D.S.D.D.D.Z.D.N.D.S.D.S.S.A.D.D.h.>./ ^ U.U.U.U.U.U.",
"U.U.U.U.U.U.U.U.U.] u 3 t 1 1 4.D.G.A.A.D.D.D.D.S.D.N.D.D.D.D.D.Z.D.S.D.D.D.D.z.~ ^ >.! U.U.U.U.U.U.",
"U.U.U.U.U.U.U.U.U. .7 1 3 j 3.D.G.N.S.S.S.S.N.D.D.N.D.Z.C.C.Z.S.D.Z.D.D.D.D.z.>.~ / 1.U.U.U.U.U.U.U.",
"U.U.U.U.U.U.U.U.U.d 1 1 j m.G.D.D.A.C.D.S.S.C.D.D.D.S.C.Z.D.C.D.D.D.D.x.M.D.h.~ ^ >.t.U.U.U.U.U.U.U.",
"U.U.U.U.U.U.U.Z.U.U.& _ D.D.D.D.D.A.C.D.S.D.D.D.D.S.Z.D.D.N.Z.D.D.D.M.y.Z.x.,.! ^ 1.z.U.U.U.U.U.U.U.",
"U.U.U.U.U.U.N.1.U.U.N.S.D.C.A.D.D.D.C.N.S.A.A.D.D.D.C.D.D.D.D.D.N.h.,.N.D.,.~ ~ ,.w.) U.U.U.U.U.U.U.",
"U.U.U.U.U.U.z.U.U.N.D.S.D.C.D.N.M.N.D.C.D.D.D.C.M.N.D.D.D.D.G.N.,.%.M.G.x.>.~ ~ g.M.) U.U.U.U.U.U.U.",
"U.U.U.U.U.N.t.U.q.N.G.C.D.D.N.z.x.N.D.D.D.D.D.z.k.N.D.D.D.D.z.:.-.z.G.N.,.~ ^ ~ ,.m.#.s.U.U.U.U.U.U.",
"U.U.U.U.U.M.>.-.x.D.D.D.Z.z.x.N.D.D.A.D.D.p.,.y.N.G.S.D.N.w.~ ~ h.G.Z.1.~ ^ ~ -.h.m.G i.U.U.U.U.U.U.",
"U.U.U.U.C.M.1.k.D.D.D.x.1.y.D.D.D.D.N.h.~ / z.D.S.D.N.k.^ ^ ~ >.x.D.w.~ >.^ ~ w.D.a.U.u.U.U.U.U.U.U.",
"U.U.U.U.N.N.w.N.D.D.t.^ w.D.D.D.N.q.~ ~ 1.p.D.D.D.N.,.~ ~ >.~ ,.x.z.~ ^ / ! q.S.G.9.U.m.U.U.U.U.U.U.",
"U.U.U.U.D.S.x.D.x.>.-.h.D.G.z.y.>.~ ^ 1.D.D.D.D.x.1.~ -.>.~ ~ x.z.>.~ -.~ ,.M.J.S.9...t.U.U.U.U.U.U.",
"U.U.U.U.1.x.G.z.~ ~ z.J.N.1./ ~ ~ ~ ,.M.D.D.G.z.>.~ >.>.-.~ z.x.,.! -.~ ^ x.D.D.D.M.m.U.U.U.U.U.U.U.",
"U.U.U.U.U.U.M.q.~ y.C.D.M.q.~ / >.~ / k.G.D.x.:.~ -.>.~ ~ y.x.1.~ -.-.w.Z.D.D.D.D.G.y.U.U.U.U.U.U.U.",
"U.U.U.U.U.U.U.U.U.>.>.-.>.>.~ >.~ >.y.N.N.w.^ ~ >.~ >.-.q.y.>.~ >.~ >.z.S.N.x.h.h.M.:.U.U.U.U.U.U.U.",
"U.U.U.U.U.U.U.U.U.U.U.U.~ >.>.^ ~ h.N.1.~ ~ >.>.^ >.^ >.q.>.>.-./ >.-.-.q.>.^ ~ U.U.U.U.U.U.U.U.U.U.",
"U.U.U.U.U.U.U.U.U.U.U.U.U.U.U.>.>.,.>.~ ^ >.~ U.U.>.>.^ ~ >.>.>.~ U.U.>.~ >.-.U.U.U.U.U.U.U.U.U.U.U.",
"U.U.U.U.U.U.U.U.U.U.U.U.U.U.U.U.>.~ >.>.U.U.U.U.U.U.~ >./ >.U.U.U.U.U.U.U.U.U.U.U.U.U.U.U.U.U.U.U.U."
};
