/* XPM */
static char *result[] = {
/* columns rows colors chars-per-pixel */
"46 16 156 2 ",
"   c black",
".  c #312D34",
"X  c gray20",
"o  c gray22",
"O  c #393939",
"+  c #3A3A3A",
"@  c #3E3E3E",
"#  c #3F3F3F",
"$  c gray25",
"%  c gray26",
"&  c #444444",
"*  c gray27",
"=  c #464646",
"-  c #464647",
";  c gray28",
":  c #484848",
">  c #494949",
",  c gray29",
"<  c #4B4B4B",
"1  c #4C4C4C",
"2  c gray30",
"3  c #4E4E4E",
"4  c gray31",
"5  c #505050",
"6  c #515151",
"7  c gray32",
"8  c #535353",
"9  c gray33",
"0  c #555555",
"q  c #565656",
"w  c gray34",
"e  c #575758",
"r  c gray35",
"t  c #5A5A5A",
"y  c #5B5B5B",
"u  c gray36",
"i  c #5D5D5D",
"p  c gray37",
"a  c #5F5F5F",
"s  c #5E6063",
"d  c #606060",
"f  c #626262",
"g  c #646464",
"h  c #656565",
"j  c #676767",
"k  c #64676A",
"l  c #686868",
"z  c DimGray",
"x  c #6A6A6A",
"c  c #686B6C",
"v  c #6B6B6C",
"b  c #6D6D6D",
"n  c gray43",
"m  c #6F6F6F",
"M  c #6D7073",
"N  c #6E7174",
"B  c gray44",
"V  c #717171",
"C  c #747474",
"Z  c #757574",
"A  c gray46",
"S  c #767676",
"D  c #74777A",
"F  c #777A7D",
"G  c #797979",
"H  c #7B7B7B",
"J  c #7C7C7C",
"K  c #7E7E7E",
"L  c #099519",
"P  c #7C7F82",
"I  c #808080",
"U  c #818181",
"Y  c gray51",
"T  c #808386",
"R  c #868686",
"E  c #848689",
"W  c #878A8D",
"Q  c #898989",
"!  c gray54",
"~  c #8D8D8D",
"^  c gray56",
"/  c #8A8D90",
"(  c #8E9194",
")  c #919497",
"_  c gray58",
"`  c #959595",
"'  c #979797",
"]  c #95989B",
"[  c #979A9D",
"{  c #989898",
"}  c gray60",
"|  c gray61",
" . c #9B9EA1",
".. c #9C9FA2",
"X. c #A0A0A0",
"o. c gray63",
"O. c #A3A3A2",
"+. c #A0A3A6",
"@. c #A5A5A5",
"#. c #A2A5A8",
"$. c #A5A8AB",
"%. c #A6A9AC",
"&. c #A9A9A9",
"*. c #A8ABAE",
"=. c #A9ACAF",
"-. c #ACACAC",
";. c gray68",
":. c #AFAFAF",
">. c #AAAEB1",
",. c #ABAEB1",
"<. c #ACAFB2",
"1. c gray69",
"2. c #B2B2B2",
"3. c gray71",
"4. c #B6B6B6",
"5. c #B9B9B9",
"6. c gray73",
"7. c #BCBCBC",
"8. c gray75",
"9. c #C0C0C0",
"0. c #C1C1C1",
"q. c #C5C5C5",
"w. c #C6C6C6",
"e. c #CBCBCB",
"r. c gray81",
"t. c #D0D0D0",
"y. c #D1D0D0",
"u. c #D5D5D5",
"i. c gray84",
"p. c #D8D8D8",
"a. c #DADADA",
"s. c gray86",
"d. c gray87",
"f. c #E1E1E1",
"g. c #E2E2E2",
"h. c gray89",
"j. c #E5E4E4",
"k. c gray90",
"l. c #E7E7E7",
"z. c #EAEAEA",
"x. c gray92",
"c. c #ECECEC",
"v. c gray93",
"b. c #EEEDED",
"n. c gray94",
"m. c #F1F1F1",
"M. c #F3F3F2",
"N. c #F3F3F3",
"B. c #F4F4F4",
"V. c #F8F8F8",
"C. c #F9F9F8",
"Z. c #F9F9F9",
"A. c gray99",
"S. c #FDFDFD",
"D. c #FEFEFE",
"F. c white",
/* pixels */
"                                                                                            ",
"  o < ; ; 8 f m J ! { @.2.8.e.p.f.l.c.n.n.m.m.n.n.c.l.g.a.r.q.5.;.o.` Q J B g w , ; ; , @   ",
"  O 1 ; < t j A Y ^ | &.3.9.e.i.f.z.m.Z.S.F.F.A.V.N.x.h.a.t.q.6.1.@.} ~ U S x i 5 ; : , #   ",
"  o < = 3 u x A R ' O.:.7.w.y.s.j.v.M.V.A.S.D.A.C.B.b.k.d.u.e.0.4.-.X._ Q H x a 8 : ; > @   ",
"  o < ; 5 i x G Z c N F T W ( ]  .+.$.*.,.<.<.>.=.%.#...[ ) / E P D M k s j n d 0 > = > @   ",
"  o < ; 6 i z I . . . . . . . . . . . . . . . . . . . . . . . . . . . . . . S d 0 > = > @   ",
"  o < ; 6 i l K . L L L L L L L L L L L L L L L L L L L L L L L L L L L L . C a 0 , = > @   ",
"  o < ; 4 y h H . L L L L L L L L L L L L L L L L L L L L L L L L L L L L . V i 8 > ; > @   ",
"  o < ; 1 w f S . L L L L L L L L L L L L L L L L L L L L L L L L L L L L . b t 5 ; ; > @   ",
"  o < ; > 9 i V . L L L L L L L L L L L L L L L L L L L L L L L L L L L L . z q 1 ; ; > @   ",
"  o < ; : 4 r v . L L L L L L L L L L L L L L L L L L L L L L L L L L L L . g 7 , ; ; > @   ",
"  o < ; ; , 8 h . L L L L L L L L L L L L L L L L L L L L L L L L L L L L . p 2 ; ; ; > @   ",
"  o < ; ; ; 1 p . L L L L L L L L L L L L L L L L L L L L L L L L L L L L . w : ; ; ; > @   ",
"  + 2 > > > , e . L L L L L L L L L L L L L L L L L L L L L L L L L L L L . 8 : > > > < $   ",
"  X & $ $ $ # - . . . . . . . . . . . . . . . . . . . . . . . . . . . . . . * $ $ $ $ % o   ",
"                                                                                            "
};
