/* XPM */
static char *result[] = {
/* columns rows colors chars-per-pixel */
"16 91 207 2 ",
"   c black",
".  c #312D34",
"X  c #393C3F",
"o  c #3A3C3F",
"O  c #3A3D3F",
"+  c #3B3E41",
"@  c #3C3F42",
"#  c #434344",
"$  c #444444",
"%  c #464646",
"&  c gray28",
"*  c #484747",
"=  c #424548",
"-  c #444749",
";  c #484848",
":  c #494949",
">  c #494A4B",
",  c gray29",
"<  c #4A4A4B",
"1  c #4A4B4B",
"2  c #4B4B4B",
"3  c #4A4D4F",
"4  c #4C4C4C",
"5  c gray30",
"6  c gray31",
"7  c #4B4E51",
"8  c #505050",
"9  c #515151",
"0  c gray32",
"q  c #515456",
"w  c gray34",
"e  c #535558",
"r  c #585858",
"t  c gray35",
"y  c #5B5B5B",
"u  c #585B5E",
"i  c #5F5F5F",
"p  c #5A5D60",
"a  c gray38",
"s  c gray39",
"d  c #606365",
"f  c #616466",
"g  c #676767",
"h  c #676A6C",
"j  c #686868",
"k  c DimGray",
"l  c #6A6A6A",
"z  c gray42",
"x  c #686B6E",
"c  c #6F6F6F",
"v  c #6E7173",
"b  c #717171",
"n  c #737372",
"m  c gray45",
"M  c #707275",
"N  c #777777",
"B  c #75787B",
"V  c #777A7C",
"C  c gray47",
"Z  c #797978",
"A  c #797979",
"S  c gray48",
"D  c #7B7B7B",
"F  c #7E7E7E",
"G  c #099519",
"H  c #7D7F82",
"J  c #7E8183",
"K  c #808080",
"L  c #818181",
"P  c gray51",
"I  c #838383",
"U  c #868686",
"Y  c #878686",
"T  c #848689",
"R  c #85888B",
"E  c #888888",
"W  c #898989",
"Q  c gray54",
"!  c #8B8B8B",
"~  c #8E8E8E",
"^  c #8B8D90",
"/  c #8C8F92",
"(  c #909090",
")  c gray57",
"_  c #939393",
"`  c #959595",
"'  c gray59",
"]  c #979797",
"[  c #989897",
"{  c #929598",
"}  c #939699",
"|  c gray60",
" . c #9B9B9B",
".. c #999C9F",
"X. c #9D9D9D",
"o. c #9F9F9F",
"O. c #9B9DA0",
"+. c gray63",
"@. c gray64",
"#. c #A0A3A6",
"$. c #A1A4A7",
"%. c #A4A4A4",
"&. c #A5A5A5",
"*. c gray65",
"=. c #A7A7A7",
"-. c #A7AAAC",
";. c gray66",
":. c #A9A9A9",
">. c #AAAAAA",
",. c #A9ACAE",
"<. c #ACACAC",
"1. c #AEAEAE",
"2. c #AFAFAE",
"3. c #AEB1B3",
"4. c #AFB2B5",
"5. c gray69",
"6. c #B2B2B2",
"7. c #B4B4B4",
"8. c gray71",
"9. c #B6B6B6",
"0. c #B8B7B7",
"q. c #B4B7BA",
"w. c #B6B9BC",
"e. c gray72",
"r. c #B9B9B9",
"t. c #BBBBBB",
"y. c #BCBCBC",
"u. c #BEBDBD",
"i. c gray75",
"p. c #BBBEC1",
"a. c #BDBFC2",
"s. c #C1C1C1",
"d. c gray76",
"f. c #C3C3C3",
"g. c #C4C3C3",
"h. c #C5C5C5",
"j. c #C6C6C6",
"k. c #C2C5C8",
"l. c #C3C6C9",
"z. c #C8C8C8",
"x. c gray79",
"c. c #CACACA",
"v. c #CBCBCB",
"b. c #CCCCCB",
"n. c #C8CBCE",
"m. c #CACCCF",
"M. c #CDCDCD",
"N. c #CECECE",
"B. c gray81",
"V. c #CED1D4",
"C. c #CFD2D4",
"Z. c #D0D0D0",
"A. c gray82",
"S. c LightGray",
"D. c gray83",
"F. c #D5D5D5",
"G. c gray84",
"H. c #D7D7D7",
"J. c #D2D5D8",
"K. c #D3D6D8",
"L. c #D6D9DC",
"P. c #D7DADC",
"I. c #D8D8D8",
"U. c #DADADA",
"Y. c gray86",
"T. c #DADDDF",
"R. c gainsboro",
"E. c #DDDDDD",
"W. c gray87",
"Q. c #DADDE0",
"!. c #DDE0E3",
"~. c #DEE0E3",
"^. c #DFE2E4",
"/. c #DFE2E5",
"(. c gray88",
"). c #E2E1E1",
"_. c #E2E2E2",
"`. c gray89",
"'. c #E0E2E5",
"]. c #E0E3E6",
"[. c #E4E4E4",
"{. c #E5E4E4",
"}. c #E7E7E7",
"|. c gray91",
" X c #E9E9E9",
".X c #EAEAEA",
"XX c #ECECEC",
"oX c gray93",
"OX c #EEEEEE",
"+X c #EFEFEF",
"@X c gray94",
"#X c #F1F1F1",
"$X c gray95",
"%X c #F3F3F3",
"&X c #F4F4F4",
"*X c gray96",
"=X c #F6F6F6",
"-X c #F7F7F6",
";X c gray97",
":X c #F8F8F8",
">X c #F9F9F9",
",X c gray98",
"<X c #FBFBFB",
"1X c gray99",
"2X c #FDFDFD",
"3X c #FEFEFE",
"4X c white",
/* pixels */
"                                ",
"  & $ $ $ $ $ $ $ $ $ $ $ $ :   ",
"  2 ; ; ; ; ; ; ; ; ; ; ; ; 5   ",
"  , & & & & & & & & & & & & 4   ",
"  , & & < > > > > > > 1 ; & 4   ",
"  , ; $ . . . . . . . . . ; 4   ",
"  , ; O . G G G G G G G . : 4   ",
"  , ; X . G G G G G G G . : 4   ",
"  , ; o . G G G G G G G . : 4   ",
"  , ; o . G G G G G G G . : 4   ",
"  , ; o . G G G G G G G . : 4   ",
"  , ; o . G G G G G G G . : 4   ",
"  , ; o . G G G G G G G . : 4   ",
"  , ; o . G G G G G G G . : 4   ",
"  , ; o . G G G G G G G . : 4   ",
"  , ; o . G G G G G G G . : 4   ",
"  , ; o . G G G G G G G . : 4   ",
"  , : + . G G G G G G G . , 4   ",
"  6 8 = . G G G G G G G . 9 9   ",
"  w r 3 . G G G G G G G . t t   ",
"  i i q . G G G G G G G . a a   ",
"  g j u . G G G G G G G . k l   ",
"  c c d . G G G G G G G . b b   ",
"  N N h . G G G G G G G . A A   ",
"  F F v . G G G G G G G . K L   ",
"  U Y B . G G G G G G G . E W   ",
"  ~ ~ H . G G G G G G G . ( )   ",
"  ' ` T . G G G G G G G . [ |   ",
"  X.X.^ . G G G G G G G . o.+.  ",
"  &.%.{ . G G G G G G G . =.;.  ",
"  <.<.... G G G G G G G . 2.5.  ",
"  7.7.#.. G G G G G G G . 9.e.  ",
"  t.t.-.. G G G G G G G . u.i.  ",
"  d.d.3.. G G G G G G G . h.j.  ",
"  z.x.q.. G G G G G G G . b.M.  ",
"  B.Z.p.. G G G G G G G . S.D.  ",
"  G.H.k.. G G G G G G G . U.Y.  ",
"  R.E.n.. G G G G G G G . (._.  ",
"  _.[.V.. G G G G G G G . }.}.  ",
"  }. XJ.. G G G G G G G . XXoX  ",
"  XX+XL.. G G G G G G G . $X$X  ",
"  @X&XT.. G G G G G G G . -X=X  ",
"  &X:X!.. G G G G G G G . <X,X  ",
"  =X<X^.. G G G G G G G . 3X1X  ",
"  :X2X'.. G G G G G G G . 4X2X  ",
"  >X3X].. G G G G G G G . 4X3X  ",
"  >X3X'.. G G G G G G G . 4X2X  ",
"  ;X1X/.. G G G G G G G . 3X1X  ",
"  &X>X~.. G G G G G G G . 1X,X  ",
"  #X*XQ.. G G G G G G G . :X;X  ",
"  oX@XP.. G G G G G G G . %X%X  ",
"  |..XK.. G G G G G G G . oXOX  ",
"  `.{.C.. G G G G G G G . |.|.  ",
"  E.W.m.. G G G G G G G . )._.  ",
"  H.I.l.. G G G G G G G . Y.R.  ",
"  A.A.a.. G G G G G G G . D.F.  ",
"  c.v.w.. G G G G G G G . N.B.  ",
"  f.g.4.. G G G G G G G . j.z.  ",
"  y.y.,.. G G G G G G G . i.s.  ",
"  8.8.$.. G G G G G G G . 0.r.  ",
"  1.1.O.. G G G G G G G . 5.6.  ",
"  *.*.} . G G G G G G G . :.>.  ",
"  o.o./ . G G G G G G G . +.@.  ",
"  ] ] R . G G G G G G G . |  .  ",
"  ( ( J . G G G G G G G . ) _   ",
"  E E V . G G G G G G G . Q !   ",
"  K K M . G G G G G G G . P I   ",
"  C Z x . G G G G G G G . S D   ",
"  b b f . G G G G G G G . n m   ",
"  k k p . G G G G G G G . l z   ",
"  a a e . G G G G G G G . s s   ",
"  t t 7 . G G G G G G G . y y   ",
"  9 9 - . G G G G G G G . 0 0   ",
"  2 , @ . G G G G G G G . 2 4   ",
"  , ; o . G G G G G G G . : 4   ",
"  , ; o . G G G G G G G . : 4   ",
"  , ; o . G G G G G G G . : 4   ",
"  , ; o . G G G G G G G . : 4   ",
"  , ; o . G G G G G G G . : 4   ",
"  , ; o . G G G G G G G . : 4   ",
"  , ; o . G G G G G G G . : 4   ",
"  , ; o . G G G G G G G . : 4   ",
"  , ; o . G G G G G G G . : 4   ",
"  , ; o . G G G G G G G . : 4   ",
"  , ; O . G G G G G G G . : 4   ",
"  , ; # . G G G G G G G . ; 4   ",
"  , & * . . . . . . . . . & 4   ",
"  , & & & & & & & & & & & & 4   ",
"  2 ; ; ; ; ; ; ; ; ; ; ; ; 5   ",
"  : % % % % % % % % % % % % 2   ",
"                                "
};
