/* XPM */
static char *result[] = {
/* columns rows colors chars-per-pixel */
"50 50 190 2 ",
"   c black",
".  c #161102",
"X  c #1D1202",
"o  c #221503",
"O  c #261904",
"+  c #2A1D03",
"@  c #251908",
"#  c #2B1E09",
"$  c #3A1602",
"%  c #2E2102",
"&  c #2D210C",
"*  c #312404",
"=  c #32250B",
"-  c #36290B",
";  c #392C0D",
":  c #312611",
">  c #352912",
",  c #3A2D12",
"<  c #392E1B",
"1  c #3F3215",
"2  c #3E321A",
"3  c #312D34",
"4  c #562102",
"5  c #443717",
"6  c #42361D",
"7  c #45391D",
"8  c #533F1E",
"9  c #453B23",
"0  c #493D23",
"q  c #7D3E21",
"w  c #4C4026",
"e  c #4D432B",
"r  c #524323",
"t  c #5A4625",
"y  c #52462B",
"u  c #55492D",
"i  c #594D2D",
"p  c #574D37",
"a  c #5B4E33",
"s  c #5D5235",
"d  c #5D523A",
"f  c #634725",
"g  c #664925",
"h  c #694A25",
"j  c #6D4D25",
"k  c #634B2C",
"l  c #744F26",
"z  c #66502C",
"x  c #6B532D",
"c  c #75552C",
"v  c #785428",
"b  c #7B562A",
"n  c #7C5A2E",
"m  c #634D31",
"M  c #645436",
"N  c #6C5634",
"B  c #6E5836",
"V  c #63573A",
"C  c #6A573A",
"Z  c #65593D",
"A  c #6B5C3C",
"S  c #705730",
"D  c #745A33",
"F  c #7B5C32",
"G  c #785E3C",
"H  c #6E603D",
"J  c #75613F",
"K  c #7D6239",
"L  c #615741",
"P  c #655B43",
"I  c #6C5D42",
"U  c #705D42",
"Y  c #6D6143",
"T  c #736444",
"R  c #796744",
"E  c #7D6944",
"W  c #726649",
"Q  c #76694B",
"!  c #7C6C4B",
"~  c #776C51",
"^  c #7B6C51",
"/  c #7D7153",
"(  c #845C2C",
")  c #885E2C",
"_  c #805F32",
"`  c #B74C2A",
"'  c #BC5434",
"]  c #8C612E",
"[  c #90632F",
"{  c #836133",
"}  c #8B6333",
"|  c #87673B",
" . c #8A673A",
".. c #936632",
"X. c #946936",
"o. c #996B37",
"O. c #946B3B",
"+. c #9A6D38",
"@. c #9C703C",
"#. c #C5502F",
"$. c #856A46",
"%. c #82714E",
"&. c #88724C",
"*. c #9B7443",
"=. c #9D7A4D",
"-. c #817454",
";. c #8B7853",
":. c #81765A",
">. c #89765D",
",. c #85795D",
"<. c #8A7B5D",
"1. c #937B53",
"2. c #9A7E55",
"3. c #A37B4A",
"4. c #8A7D62",
"5. c #917D62",
"6. c #8C8264",
"7. c #928465",
"8. c #94856A",
"9. c #988369",
"0. c #958A6B",
"q. c #9A8C6D",
"w. c #9D906F",
"e. c #958B70",
"r. c #9B8F71",
"t. c #969174",
"y. c #9E9173",
"u. c #9E9479",
"i. c #A08F6E",
"p. c #A29575",
"a. c #A59779",
"s. c #A69A7B",
"d. c #AB9D7D",
"f. c #B39E7E",
"g. c #AEA17F",
"h. c #BFA67E",
"j. c #AA9E81",
"k. c #AEA182",
"l. c #AEA58A",
"z. c #B2A585",
"x. c #BBA585",
"c. c #B4A886",
"v. c #B3A689",
"b. c #B6A98A",
"n. c #BAAD8D",
"m. c #BDAF94",
"M. c #BDB193",
"N. c #C5AE8C",
"B. c #C8AF8B",
"V. c #CAB18D",
"C. c #C1B494",
"Z. c #CEB691",
"A. c #C4B799",
"S. c #C5BA9B",
"D. c #CABD9D",
"F. c #D0B791",
"G. c #D3B994",
"H. c #D8BD97",
"J. c #D8BE98",
"K. c #C6B9A1",
"L. c #C8BEA0",
"P. c #CCBFA9",
"I. c #CDC09F",
"U. c #DCC29B",
"Y. c #E1C69F",
"T. c #CEC1A2",
"R. c #D2C5A5",
"E. c #D2C6AC",
"W. c #D5C9A9",
"Q. c #DACDAC",
"!. c #DED0AF",
"~. c #D4C8B1",
"^. c #D9CCB4",
"/. c #DED2B2",
"(. c #DED8BB",
"). c #E2D5B5",
"_. c #E6D8B7",
"`. c #E2D6B9",
"'. c #E5DABB",
"]. c #E9DCBC",
"[. c #EDE0BF",
"{. c #E3DEC0",
"}. c #EADEC1",
"|. c #EEE1C1",
" X c #F2E5C5",
".X c #F7EBCA",
"XX c #FAEDCD",
"oX c #FBF0CF",
"OX c #FBEFD0",
"+X c #FBF3D3",
/* pixels */
"                                                                                                    ",
"  3 3 3 3 3 3 3 3 3 3 3 3 3 3 3 3 3 3 3 3 3 3 3 3 3 3 3 3 3 3 3 3 3 3 3 3 3 3 3 3 3 3 3 3 3 3 3 3   ",
"  3 U.F.F.F.Z.G.U.7.h o.@.X.X.X.X.X.X.+.X.X.X.X.X.X.+.X.+.X.X.X.X.X.X.+.{ B z.U.G.F.F.F.F.F.F.U.3   ",
"  3 F.V.V.V.V.G.4.h ..o.X.X.X.X.X.X.X.X.X.X.X.X.X.X.X.X.O.X.X.X.X.X.X.X.+.( k i.H.V.B.V.B.B.V.G.3   ",
"  3 G.B.B.V.G.q.g ..o...X.X.X.X.X.X.X.X.X.X.X.X.X.X.X.X.X.X.X.X.X.X.X.X.o.+.] f 4.G.F.B.B.B.V.G.3   ",
"  3 G.B.V.F.k.k ] o.X.X.X.X.X.X.X.X.X.X.X.X.X.X.X.X.X.X.X.X.X.X.X.X.X.X...X.o.X.h ^ Z.F.B.B.V.G.3   ",
"  3 G.B.F.B.U ( o.X.X.X.X.X.X...X.X.X.X.X.X.X.X.X.X.X.X.X.X.X.X.X.X.X...X.X.X.X.o.l A N.G.B.V.G.3   ",
"  3 F.Z.F.5.l ..X.o.[ ] ..X.o.X.X.X.X.X.X.X.X.X.X.X.X.X.X.X.X.X.X.X.X.o...X.X.{ o.o.v M k.H.V.G.3   ",
"  3 G.F.k.k [ o.o._ E -.E K F { o.+.X.X.X.X.X.X.X.} X.X.X.X.X.X.X...X. .E ! w.y.F ..+.( f p.H.U.3   ",
"  3 H.Z.U ( o.o.[ B S.].R.T.M.6.x x } o.X.X.X.X.X.X.X.X.X.X.X.o.X.| Y 0.W.A.W.R.T ) o.o.) f 6.U.3   ",
"  3 U.>.j ..X.o.} M 0.<.-.7.s.n.j.,./ O.X.X.X.X.X.X.+.X.X.o.X.c R A.L.c.g.0.%.c.q.} ..X.+...g >.3   ",
"  3 d.g ..o.X.X._ :.a.T y V y.C.S./.T.J ] ] ] ] } } } ( ] ..| k.S.A.k.g.0./ ! g.! } X.X.X.o.o.c 3   ",
"  3 N ) +.X.X.X.] ! v.! -.k.,.~ M.[.).p.M A T ! T Q ! A A A <.!.I.b.A.! Q R 6.p.G [ o.X.X.X.X.+.3   ",
"  3 } +.X.X.X.X.X.F 6.7.! / -.Z 9 ,.!.Q.c.g.d.z.c.c.d.y.s.d.C.).Q.C.Z Q -./ S.:.( ..X.X.X.X.X.+.3   ",
"  3 +.X.X.X.X.X.o.} A l.<.s 1 u 6.7.!.!.S.x.z.d.A.n.g.d.f.a.n.Q.].g.i s / C.b.x [ X.X.X.X.X.X.+.3   ",
"  3 +.X.X.X.X.X.X.o.b ^ S.c.T 9 0.W.R.R.z.c.A.d.n.x.c.M.i.d.C.I.I.W.c.w.!.!.C ) o.X.X.X.X.X.X.o.3   ",
"  3 +.X.X.X.X.X.X.o.o.x 7.].].R.!.R.n.I.C.q.g.x.a.q.i.b.a.0.q.p.b.C.C.D.A.Q b o.X.X.X.X.X.X.} +.3   ",
"  3 +.X.X.X.X.X.X.X.+.( s d.I.M.d.g.z.c.S.C.d.i.d.w.w.d.a.d.a.n.T.c.w.i.7.M  .o.X.X.X.X.X.X.O.+.3   ",
"  3 o.X.X.X.X.X.X.X.z s 7.p.0.7.7.0.p.c.S.).D.w.k.z.n.C.D.W.A.n.k.b.M.z.d.0.M { o.X.X.X.X.X.X.+.3   ",
"  3 o.X.X.X.X.X.X.x Y w.p.d.C.M.C.A.c.z.b.W._.b.d.z.R./.I.z.c.I.!./.C.s.p.g.0.M } X.X.X.X.+.} +.3   ",
"  3 +.X.X.X.X.o. .Y 0.C.n.n.I.T.d.A 2 & @ 9 M.Q.7.p.`.s.1 o & < Y s./. XQ.n.b.6.S X.X.X.X.X.X.+.3   ",
"  3 +.X.X.X.X.o.F T `.oX].C./ 2 X + A ^ W @ 9 W.z.D.I.2 & A :.Z o X 2 / A.[.+X`.H ) o.X.X.X.X.o.3   ",
"  3 +.X.X.X.X.{ D s.`.s.a % o O # :.c.:.Z W & q.!._.<.O W s.I ,.Q & + o % p d.'.s.z  .o.X.X.X.+.3   ",
"  3 X.X.X.o.X.N / S.a o o % * % 7 0.z.0.: Q 2 W ).).Z - ! n.W 6 p.6 + * % o X d /.y.r ..o.X.X.o.3   ",
"  3 X.X.X.X.X.F Q Y @ % * % * + u k.2 . , / , A Q.W.a , / : . u M.0 O * * * + X 8.'.6.x X.X.X.+.3   ",
"  3 +.X.o.| Z l.'./ @ + * * * + > m.v.L 6.P o I /./.M o Q ,.P S.k.: + * * * + @ 4.+X].Y ( O.X.+.3   ",
"  3 +.X.X.X.D 8.(.p.& - - % * * + 0 v.m.Y + O W Q.W.A o # ^ m.u.1 + % % * - - - g./.8.c X.X.X.+.3   ",
"  3 +.X.X.@.j e T.`.w O 1 5 ; * % + + + + + o / _.!.T o + + + O % % * 1 5 ; + a I.y.t ..o.X.X.+.3   ",
"  3 o.X.X.X.X.$./ 0.M.4.9 , - - * * * * % X e M.!.R.k.w o % * % % * - - , e 4.W.|.M.J } X.X.X.+.3   ",
"  3 +.X.X.X.o.{ M 4.Q.|._.D.s.,.A 7 % o > q.|.XXW.T..X[.8.= O * r T 8.v.P.^.'.{.v.N ..+.X.X.X.X.3   ",
"  3 o.X.X.o.o.h P Q.E.j.j.m.T.)._.Q.p.u q.XX XC.<.-.A..X.X7.a k./.].^.K.v.j.l.E.l.G ..X.X.X.X.+.3   ",
"  3 o...X.X.o.{ 7 e.^.~.P.K.A.m.z.C.D.p.n._.T.V i . 6 !.!.b.p.D.C.n.n.m.K.^.].y.c X.X.X.X.X.X.+.3   ",
"  3 +.X.X.X.X.+.K 8 6.|.'.~.'.{._.^.n.0.A.W._.:.> : 4.'.W.n.0.C.)._.'.`.`. XW.,.K X.X.X.X.X.X.+.3   ",
"  3 +.X.X.X.X.X.+.} z <.K.|.}.)._. X_.p./. X]. XT.W. X].}._.p._. X].].].'.I.g.1.} X.X.X.X.X.} +.3   ",
"  3 +.X.X.X.X.X.X.o.o.b y ~ j.'.'.].|.k.q.].OX`.4.4.{.OX}.u.d.|.|. XXX/.,.F { ] X.X.X.X.X.X.X.+.3   ",
"  3 +.X.X.X.X.X.X.X.X.+.} t ^ 4.r.'..X'.T p >.U & , $.8.P :.|.XX`.n.0.Y n o.o.X.X.+.X.X.X.X.X.+.3   ",
"  3 } o.X.X.X.X.X.X.X.X.o.+.{ B 7.S.|.oXQ.9 4 #.` ` ` $ w '..XT.Q a ( X.o.X.X.X.X.X.X.X.X.X.X.+.3   ",
"  3 B ] o.X.X.X.X.X.X.X.X.X.X.D ;.6.u./.+XR.y q #.' 8 p /.Q.Y r Q =.o.X.X.X.X.X.X.X.X.X.X.X.X.X.3   ",
"  3 f.k ] +.X.X.X.X.X.X.X.X.X...3.h.Q s ,.(.'.t.~ W t.|.M.a Y =.*.X...X.X.X.X.X.X.X.X.X.X.o.( B 3   ",
"  3 U.9.f ..o.X.X.X.X.X.X.X.X.X.....=.7.Y d M.XX+X+X.Xu.e / 9.o.[ X.X.X.X.X.X.X.X.X.X.X.o.b M N.3   ",
"  3 H.F.>.h X.o.X.X.X.X.X.X.X.X.X.} ..+.2.%.Z Y 6.6.Y M ;.*...X.X.X.X.X.X.X.X.X.X.X.X.+.( C x.Y.3   ",
"  3 G.F.F.^ l o.X.X.X.X.X.X.X.X.X.X.X.X...@.1.%.P Z &.=.o...X.X.X.X.X.X.X.X.X.X.X.X.+.( m x.H.H.3   ",
"  3 G.B.F.B.U b o.X.X.X.X.X.X.X.X.X.X.X.X.X.X.+.*.*.o.....X.X.X.X.X.X.X.X.X.X.X.X.o.] k f.G.V.G.3   ",
"  3 G.B.B.F.x.M ( X.X.X.X.X.X.X.X.X.X.X.X.X.X.X...X.X.X.X.X.X.X.X.X.X.X.X.X.X.X.X.X.h 9.G.V.V.G.3   ",
"  3 G.B.B.V.G.f.m ] o.X.X.X.X.X.X.X.X.X.X.X.X.X.X.X.X.X.X.X.X.X.X.X.} X.X.X.X.X.o.l ^ F.V.B.V.G.3   ",
"  3 G.V.B.B.V.H.p.f [ o.X.X.X.X.X.X.X.X.X.X.X.X.X.X.X.X.X.X.X.X.X.X.X.X.o.X.o.o.l U B.G.V.V.Z.G.3   ",
"  3 G.B.V.V.B.V.F.7.h X.X.X.X.X.X.X.X.X.X.X.X.X.X.X.X.X.X.X.X.X.X.X.X.X.O.o.[ h T B.F.B.B.V.V.G.3   ",
"  3 H.G.G.F.G.F.H.U.4.c +.o.X.X.+.X.X.+.X.X.+.X.+.X.X.X.X.o.o.o.X.+.+.+.o.( c i.R.J.G.H.G.H.H.Y.3   ",
"  3 3 3 3 3 3 3 3 3 3 3 3 3 3 3 3 3 3 3 3 3 3 3 3 3 3 3 3 3 3 3 3 3 3 3 3 3 3 3 3 3 3 3 3 3 3 3 3   ",
"                                                                                                    "
};
