/* XPM */
static char * C:\Users\Lucas\OneDrive _ Universidade do Porto\LCOM\MINIX_LCOM\shared\proj\graphics\xpms\elements\button_north_xpm[] = {
"46 16 156 2",
"  	c #000000",
". 	c #383838",
"+ 	c #424242",
"@ 	c #404040",
"# 	c #454545",
"$ 	c #312D34",
"% 	c #464647",
"& 	c #3F3F3F",
"* 	c #444444",
"= 	c #333333",
"- 	c #4B4B4B",
"; 	c #494949",
"> 	c #484848",
", 	c #535353",
"' 	c #099519",
") 	c #575758",
"! 	c #4A4A4A",
"~ 	c #4D4D4D",
"{ 	c #3A3A3A",
"] 	c #3E3E3E",
"^ 	c #474747",
"/ 	c #575757",
"( 	c #5E5E5E",
"_ 	c #4C4C4C",
": 	c #656565",
"< 	c #525252",
"[ 	c #646464",
"} 	c #6B6B6C",
"| 	c #595959",
"1 	c #4F4F4F",
"2 	c #565656",
"3 	c #696969",
"4 	c #717171",
"5 	c #5D5D5D",
"6 	c #545454",
"7 	c #505050",
"8 	c #5A5A5A",
"9 	c #6D6D6D",
"0 	c #767676",
"a 	c #626262",
"b 	c #7B7B7B",
"c 	c #5B5B5B",
"d 	c #464646",
"e 	c #555555",
"f 	c #5F5F5F",
"g 	c #747474",
"h 	c #7E7E7E",
"i 	c #686868",
"j 	c #515151",
"k 	c #606060",
"l 	c #808080",
"m 	c #6E6E6E",
"n 	c #676767",
"o 	c #5E6063",
"p 	c #64676A",
"q 	c #6D7073",
"r 	c #74777A",
"s 	c #7C7F82",
"t 	c #848689",
"u 	c #8A8D90",
"v 	c #919497",
"w 	c #979A9D",
"x 	c #9C9FA2",
"y 	c #A2A5A8",
"z 	c #A6A9AC",
"A 	c #A9ACAF",
"B 	c #AAAEB1",
"C 	c #ACAFB2",
"D 	c #ABAEB1",
"E 	c #A8ABAE",
"F 	c #A5A8AB",
"G 	c #A0A3A6",
"H 	c #9B9EA1",
"I 	c #95989B",
"J 	c #8E9194",
"K 	c #878A8D",
"L 	c #808386",
"M 	c #777A7D",
"N 	c #6E7174",
"O 	c #686B6C",
"P 	c #757574",
"Q 	c #797979",
"R 	c #6A6A6A",
"S 	c #898989",
"T 	c #949494",
"U 	c #A0A0A0",
"V 	c #ACACAC",
"W 	c #B6B6B6",
"X 	c #C1C1C1",
"Y 	c #CBCBCB",
"Z 	c #D5D5D5",
"` 	c #DEDEDE",
" .	c #E5E5E5",
"..	c #EEEDED",
"+.	c #F4F4F4",
"@.	c #F9F9F8",
"#.	c #FCFCFC",
"$.	c #FEFEFE",
"%.	c #FDFDFD",
"&.	c #F8F8F8",
"*.	c #F3F3F2",
"=.	c #EDEDED",
"-.	c #E5E4E4",
";.	c #DBDBDB",
">.	c #D1D0D0",
",.	c #C6C6C6",
"'.	c #BCBCBC",
").	c #AFAFAF",
"!.	c #A3A3A2",
"~.	c #979797",
"{.	c #868686",
"].	c #757575",
"^.	c #5C5C5C",
"/.	c #4E4E4E",
"(.	c #818181",
"_.	c #8D8D8D",
":.	c #999999",
"<.	c #A5A5A5",
"[.	c #B0B0B0",
"}.	c #BABABA",
"|.	c #C5C5C5",
"1.	c #D0D0D0",
"2.	c #DADADA",
"3.	c #E3E3E3",
"4.	c #EBEBEB",
"5.	c #F3F3F3",
"6.	c #FFFFFF",
"7.	c #F9F9F9",
"8.	c #F1F1F1",
"9.	c #EAEAEA",
"0.	c #E1E1E1",
"a.	c #D6D6D6",
"b.	c #C0C0C0",
"c.	c #B5B5B5",
"d.	c #A9A9A9",
"e.	c #9C9C9C",
"f.	c #8F8F8F",
"g.	c #828282",
"h.	c #393939",
"i.	c #707070",
"j.	c #7C7C7C",
"k.	c #959595",
"l.	c #A1A1A1",
"m.	c #ADADAD",
"n.	c #B9B9B9",
"o.	c #CFCFCF",
"p.	c #E2E2E2",
"q.	c #E7E7E7",
"r.	c #ECECEC",
"s.	c #F0F0F0",
"t.	c #D8D8D8",
"u.	c #BFBFBF",
"v.	c #B2B2B2",
"w.	c #989898",
"x.	c #8A8A8A",
"y.	c #6F6F6F",
"                                                                                            ",
"  . + @ @ @ @ # $ $ $ $ $ $ $ $ $ $ $ $ $ $ $ $ $ $ $ $ $ $ $ $ $ $ $ $ $ $ % & @ @ @ * =   ",
"  @ - ; ; ; > , $ ' ' ' ' ' ' ' ' ' ' ' ' ' ' ' ' ' ' ' ' ' ' ' ' ' ' ' ' $ ) ! ; ; ; ~ {   ",
"  ] ; ^ ^ ^ > / $ ' ' ' ' ' ' ' ' ' ' ' ' ' ' ' ' ' ' ' ' ' ' ' ' ' ' ' ' $ ( _ ^ ^ ^ - .   ",
"  ] ; ^ ^ ^ ~ ( $ ' ' ' ' ' ' ' ' ' ' ' ' ' ' ' ' ' ' ' ' ' ' ' ' ' ' ' ' $ : , ! ^ ^ - .   ",
"  ] ; ^ ^ ! < [ $ ' ' ' ' ' ' ' ' ' ' ' ' ' ' ' ' ' ' ' ' ' ' ' ' ' ' ' ' $ } | 1 > ^ - .   ",
"  ] ; ^ ^ _ 2 3 $ ' ' ' ' ' ' ' ' ' ' ' ' ' ' ' ' ' ' ' ' ' ' ' ' ' ' ' ' $ 4 5 6 ; ^ - .   ",
"  ] ; ^ ^ 7 8 9 $ ' ' ' ' ' ' ' ' ' ' ' ' ' ' ' ' ' ' ' ' ' ' ' ' ' ' ' ' $ 0 a / _ ^ - .   ",
"  ] ; ^ ; , 5 4 $ ' ' ' ' ' ' ' ' ' ' ' ' ' ' ' ' ' ' ' ' ' ' ' ' ' ' ' ' $ b : c 1 ^ - .   ",
"  ] ; d ! e f g $ ' ' ' ' ' ' ' ' ' ' ' ' ' ' ' ' ' ' ' ' ' ' ' ' ' ' ' ' $ h i 5 j ^ - .   ",
"  ] ; d ; e k 0 $ $ $ $ $ $ $ $ $ $ $ $ $ $ $ $ $ $ $ $ $ $ $ $ $ $ $ $ $ $ l 3 5 j ^ - .   ",
"  ] ; d ; e k m n o p q r s t u v w x y z A B C C D E F G H I J K L M N O P Q R 5 7 ^ - .   ",
"  ] ; ^ > , f R b S T U V W X Y Z `  ...+.@.#.$.%.#.&.*.=.-.;.>.,.'.).!.~.{.].R ^./.d - .   ",
"  & ! > ^ 7 5 R 0 (._.:.<.[.}.|.1.2.3.4.5.&.#.6.6.%.7.8.9.0.a.Y b.c.d.e.f.g.].n 8 - ^ _ h.  ",
"  ] ! ^ ^ ! / [ i.j.S k.l.m.n.|.o.2.p.q.r.s.s.8.8.s.s.r.q.0.t.Y u.v.<.w.x.j.y.a , ^ ^ - .   ",
"                                                                                            "};
