/* XPM */
static char *result[] = {
/* columns rows colors chars-per-pixel */
"76 76 2 1 ",
"  c black",
". c #FF7700",
/* pixels */
"                                                                            ",
" .......................................................................... ",
" .......................................................................... ",
" .......................................................................... ",
" .......................................................................... ",
" .......................................................................... ",
" .......................................................................... ",
" .......................................................................... ",
" .......................................................................... ",
" .......................................................................... ",
" .......................................................................... ",
" .......................................................................... ",
" .......................................................................... ",
" .......................................................................... ",
" .......................................................................... ",
" .......................................................................... ",
" .......................................................................... ",
" .......................................................................... ",
" .......................................................................... ",
" .......................................................................... ",
" .......................................................................... ",
" .......................................................................... ",
" .......................................................................... ",
" .......................................................................... ",
" .......................................................................... ",
" .......................................................................... ",
" .......................................................................... ",
" .......................................................................... ",
" .......................................................................... ",
" .......................................................................... ",
" .......................................................................... ",
" .......................................................................... ",
" .......................................................................... ",
" .......................................................................... ",
" .......................................................................... ",
" .......................................................................... ",
" .......................................................................... ",
" .......................................................................... ",
" .......................................................................... ",
" .......................................................................... ",
" .......................................................................... ",
" .......................................................................... ",
" .......................................................................... ",
" .......................................................................... ",
" .......................................................................... ",
" .......................................................................... ",
" .......................................................................... ",
" .......................................................................... ",
" .......................................................................... ",
" .......................................................................... ",
" .......................................................................... ",
" .......................................................................... ",
" .......................................................................... ",
" .......................................................................... ",
" .......................................................................... ",
" .......................................................................... ",
" .......................................................................... ",
" .......................................................................... ",
" .......................................................................... ",
" .......................................................................... ",
" .......................................................................... ",
" .......................................................................... ",
" .......................................................................... ",
" .......................................................................... ",
" .......................................................................... ",
" .......................................................................... ",
" .......................................................................... ",
" .......................................................................... ",
" .......................................................................... ",
" .......................................................................... ",
" .......................................................................... ",
" .......................................................................... ",
" .......................................................................... ",
" .......................................................................... ",
" .......................................................................... ",
"                                                                            "
};
