/* XPM */
static char *result[] = {
/* columns rows colors chars-per-pixel */
"91 16 2 1 ",
"  c black",
". c #FFEA00",
/* pixels */
"                                                                                           ",
" ......................................................................................... ",
" ......................................................................................... ",
" ......................................................................................... ",
" ......................................................................................... ",
" ......................................................................................... ",
" ......................................................................................... ",
" ......................................................................................... ",
" ......................................................................................... ",
" ......................................................................................... ",
" ......................................................................................... ",
" ......................................................................................... ",
" ......................................................................................... ",
" ......................................................................................... ",
" ......................................................................................... ",
"                                                                                           "
};
