/* XPM */
static char *_607914271304[] = {
/* columns rows colors chars-per-pixel */
"50 50 215 2 ",
"   c #020001",
".  c #0A0000",
"X  c #02030A",
"o  c #0B080A",
"O  c #130100",
"+  c #1B0200",
"@  c #130A04",
"#  c #180E0B",
"$  c #000512",
"%  c #040C17",
"&  c #18151C",
"*  c #14180F",
"=  c #220100",
"-  c #250600",
";  c #320400",
":  c #3A0700",
">  c #27170C",
",  c #3C1600",
"<  c #331B00",
"1  c #3B1A02",
"2  c #311A10",
"3  c #271816",
"4  c #352309",
"5  c #332A16",
"6  c #26281E",
"7  c #011423",
"8  c #00142A",
"9  c #031B2C",
"0  c #061927",
"q  c #011C34",
"w  c #111924",
"e  c #221A21",
"r  c #0C212D",
"t  c #1A222A",
"y  c #03293B",
"u  c #06253A",
"i  c #03303E",
"p  c #282A29",
"a  c #322526",
"s  c #323A32",
"d  c #410E00",
"f  c #471C00",
"g  c #473000",
"h  c #47260E",
"j  c #41342A",
"k  c #7E4000",
"l  c #012C43",
"z  c #022B48",
"x  c #07344C",
"c  c #173949",
"v  c #043856",
"b  c #113F5D",
"n  c #173C53",
"m  c #002A53",
"M  c #233A45",
"N  c #273E51",
"B  c #0A3A65",
"V  c #1A4453",
"C  c #11505C",
"Z  c #314142",
"A  c #274859",
"S  c #064967",
"D  c #014A77",
"F  c #075373",
"G  c #00527B",
"H  c #055779",
"J  c #26586F",
"K  c #1C6173",
"L  c #3A6577",
"P  c #515E52",
"I  c #41454A",
"U  c #416A5F",
"Y  c #626E4F",
"T  c #567E78",
"R  c #538F7D",
"E  c #55937D",
"W  c #014F83",
"Q  c #025B85",
"!  c #045986",
"~  c #005991",
"^  c #07648A",
"/  c #166386",
"(  c #046C9B",
")  c #096A94",
"_  c #03719C",
"`  c #1D6F9A",
"'  c #27788E",
"]  c #377B89",
"[  c #38708F",
"{  c #016DA4",
"}  c #0273A3",
"|  c #027CAC",
" . c #0475AC",
".. c #1778A4",
"X. c #037BB3",
"o. c #277CA5",
"O. c #417C8F",
"+. c #007BCE",
"@. c #2D8E97",
"#. c #0582B4",
"$. c #0085BA",
"%. c #1987B4",
"&. c #1090BE",
"*. c #0F88AA",
"=. c #2588AE",
"-. c #569993",
";. c #649098",
":. c #6BA98F",
">. c #598CA6",
",. c #6298B1",
"<. c #4FA0A0",
"1. c #51BFBE",
"2. c #76D7BA",
"3. c #028DCB",
"4. c #0488C3",
"5. c #0596CA",
"6. c #0089D4",
"7. c #0494D2",
"8. c #0798D5",
"9. c #1990C0",
"0. c #2497C4",
"q. c #04A6D8",
"w. c #1DA7DC",
"e. c #33AAD1",
"r. c #029DE4",
"t. c #01ABEC",
"y. c #05A8E7",
"u. c #04B6ED",
"i. c #14B1EF",
"p. c #02ABF5",
"a. c #00A7FB",
"s. c #00ADFD",
"d. c #01B3FE",
"f. c #01BBFF",
"g. c #0CB8FA",
"h. c #19B9FA",
"j. c #15B7FB",
"k. c #29B9F7",
"l. c #30BFF7",
"z. c #2DADE2",
"x. c #53B4D9",
"c. c #7EBFCA",
"v. c #71B3CE",
"b. c #48B5E2",
"n. c #01C3FF",
"m. c #01CCFF",
"M. c #09CCFF",
"N. c #05C4F4",
"B. c #12CFFF",
"V. c #02D4FF",
"C. c #0CD5FF",
"Z. c #01DBFF",
"A. c #1AD6FF",
"S. c #15D5FF",
"D. c #02C1EA",
"F. c #2FC4FF",
"G. c #35C2FB",
"H. c #38C7FD",
"J. c #2DD6FF",
"K. c #25DCFF",
"L. c #2CDDFF",
"P. c #34DDFF",
"I. c #35D6FF",
"U. c #01E5FF",
"Y. c #02EBFF",
"T. c #1DEBFF",
"R. c #03F6FF",
"E. c #0AF8FF",
"W. c #27F1FF",
"Q. c #6AD4C7",
"!. c #48C7FB",
"~. c #59CDFA",
"^. c #56CBF8",
"/. c #46D7FF",
"(. c #5AD6FF",
"). c #63CFFA",
"_. c #62D3FD",
"`. c #6AD2FB",
"'. c #66DCFF",
"]. c #79D7FB",
"[. c #5EE1E0",
"{. c #43E4FF",
"}. c #41FFFF",
"|. c #58FEFF",
" X c #69E9FF",
".X c #70EDFF",
"XX c #69F6FF",
"oX c #7BF4FF",
"OX c #7CFFFF",
"+X c #74FEFF",
"@X c #8EC1D5",
"#X c #81D0E5",
"$X c #85DAFC",
"%X c #8CDCFD",
"&X c #83D7FD",
"*X c #93DEFD",
"=X c #98DFF9",
"-X c #A0DFFE",
";X c #88E3F8",
":X c #97E2FF",
">X c #9DE2FE",
",X c #97EBFF",
"<X c #9AEBFF",
"1X c #87FFFF",
"2X c #9CFBFF",
"3X c #99F8FF",
"4X c #A5E5FE",
"5X c #AAE7FB",
"6X c #B4EBFD",
"7X c #A4F4FF",
"8X c #A4FDFF",
"9X c #ABFEFF",
"0X c #B3FFFF",
"qX c #C5FFFF",
"wX c None",
/* pixels */
"wXwXwXwXwXwXwXwXwXwXwXwXwXwXwXwXwXwXwXwXwXwXwXwXwXwXwXwXwXwXwXwXwXwXwXwXwXwXwXwXwXwXwXwXwXwXwXwXwXwX",
"wXwXwXwXwXwXwXwXwXwXwXwXwXwXwXwXwXwXwXwXwXwXwXwXwXwXwXwXwXwXwXwXwXwXwXwXwXwXwXwXwXwXwXwXwXwXwXwXwXwX",
"wXwXwXwXwXwXwXwXwXwXwXwXwXwXwXwXwXwXwXwXwXwXwXwXwXwXwXwXwXwXwXwXwXwXwXwXwXwXwXwXwXwXwXwXwXwXwXwXwXwX",
"wXwXwXwXwXwXwXwXwXwXwXwXwXwXwXwXwXwXwXwXwXwXwXwXwXwXwXwXwXwXwXwXwXwXwXwXwXwXwXwXwXwXwXwXwXwXwXwXwXwX",
"wXwXwXwXwXwXwXwXwXwXwXwXwXwXwXwXwXwXwXwXwXwXwXwXwXwXwXwXwXwXwXwXwXwXwXwXwXwXwXwXwXwXwXwXwXwXwXwXwXwX",
"wXwXwXwXwXwXwXwXwXwXwXwXwXwXwXwXwXwXwXwXwXwXwXwXwXwXwXwXwXwXwXwXwXwXwXwXwXwXwXwXwXwXwXwXwXwXwXwXwXwX",
"wXwXwXwXwXwXwXwXwXwXwXwXwXwXwXwXwXwXwXwXwXwXwXwXwXwXwXwXwXwXwXwXwXwXwXwXwXwXwXwXwXwXwXwXwXwXwXwXwXwX",
"wXwXwXwXwXwXwXwXwXwXwXwXwXwXwXwXwXwXwXwXwXwXwXwXwXwXwXwXwXwXwXwXwXwXwXwXwXwXwXwXwXwXwXwXwXwXwXwXwXwX",
"wXwXwXwXwXwXwXwXwXwXwXwXwXwXwXwXwXwXwXwXwXwXwXwXwXwXwXwXwXwXwXwXwXwXwXwXwXwXwXwXwXwXwXwXwXwXwXwXwXwX",
"wXwXwXwXwXwXwXwXwXwXwXwXwXwXwXwXwXwXwXwXwXwXwXwXwXwXwXwXwXwXwXwXwXwXwXwXwXwXwXwXwXwXwXwXwXwXwXwXwXwX",
"wXwXwXwXwXwXwXwXwXwXwXwXwXwXwXwXwXwXwXwXwXwXwXwXwXwXwXwXwXwXwXwXwXwXwXwXwXwXwXwXwXwXwXwXwXwXwXwXwXwX",
"wXwXwXwXwXwXwXwXwXwXwXwXwXwXwXwXwXwXwXwXwXwXwX@   .         . : wXwXwXwXwXwXwXwXwXwXwXwXwXwXwXwXwXwX",
"wXwXwXwXwXwXwXwXwXwXwXwXwXwXwXwXwXwXwXwXwXO   x ^ #.7.x.@Xv.o.D l 5 wXwXwXwXwXwXwXwXwXwXwXwXwXwXwXwX",
"wXwXwXwXwXwXwXwXwXwXwXwXO - # 0 9 6 @ O . l f.C.Z.m.n.I.9X8X8X/.n.i.S O wXwXwXwXwXwXwXwXwXwXwXwXwXwX",
"wXwXwXwXwXwXwXh wXwXwX  v  .r.g.].%Xv.>.8 r 4.f.M.V.f.p.].:X>X$Xd.n.Z. .. wXwXwXwXwXwXwXwXwXwXwXwXwX",
"wXwXwXwXwXwXq B ; - 0 7.V.V.f.f.;X,X7X1XM.X.V 5 8 { y.L.,X$X:X$Xd.d.f.Z.7.  wXwXwXwXwXwXwXwXwXwXwXwX",
"wXwXwXwXwX  q.U.W   *.Y.d.d.s.j.;X%X%X4XH.m.C.-.f     [ 9X<X5X~.s.d.d.s.|.;.  wXwXwXwXwXwXwXwXwXwXwX",
"wXwXwXwX  s .Xn.D.  #.m.d.d.s._.4X%X%X>XG.a.d.m.2.k wX  A 8X'.p.d.d.d.s.~.qXn , wXwXwXwXwXwXwXwXwXwX",
"wXwXwXX   Q.0XI.4.  #.V.d.d.s.^.>X%X$X>XG.p.d.d.M.:.d wX. S M.d.d.d.d.d.a.'.0Xc   wXwXwXwXwXwXwXwXwX",
"wXwX,   [ 9X=X+XH   ^ V.d.s.s.~.:X%X%X%X:XG.s.d.s.P.Y wXwX  $.V.d.d.s.s.d.!.9X3XN   wXwXwXwXwXwXwXwX",
"wX@   } V._.qX;X$   V V.s.j.&X>X$X%X*X=X6X!.s.d.s.'.7Xw wXwXu n.f.s.h.].=X=X&X7X9X^   + wXwXwXwXwXwX",
"# . X y.Z.S.`.a 7 ^   5.K.=X>X%X%X%X%X&Xh.a.d.d.d.&X0XO.+ wX+ _ Z.a.~.6X*X&X=X5XH.V.y.~ c 4 g < > wX",
"wXwX    r u   7 g.R.y % 2X8X$X:X6X~.d.g.s.d.d.s.a.).7X#Xo wXwX0 f.f.G.>X%X*X$Xl.a.n.U.n.D   @ wXwXwX",
"wXwXwXr H D 7.d.s.Z.N.  a 7X8XF.k.g.s.d.d.d.s.d.!.*X;X2XM wXwX= S Z.h.*X%X>Xl.a.C.n.Q o wXwXwXwXwXwX",
"wXwXwX} R.Z.} ' @.B n.u.X + ,.M.m.n.n.d.d.a.l.%X5X*X$X9XL   wXwX  $.OX:X%X>XA.V.4.% wXwXwXwXwXwXwXwX",
"wXwX, 3.V.4.M 1X1XE x U.n.l   o F 7.f.C.V.B.7X4X%X>X4X2X..  wXwXwX  >.9X0X X+.m = wXwXwXwXwXwXwXwXwX",
"wXwX> y.m...-.OXXXOXU ~ Z.Z.7.y . .   u Q 0.=X0XoXK.I.A.$.  wXwXwXwX. A J 8 1 wXwXwXwXwXwXwXwXwXwXwX",
"wXwXX t.n.z.R * [.1X:.D m.d.M.C.g. .x o     + s A G 3.V.5.. wXwXwXwXwXwX= wXwXwXwXwXwXwXwXwXwXwXwXwX",
"wXwX  y.n.p.] R Q.1.&.p.d.d.d.d.f.V.V.n.p.3.{ G v r o y y   wXwXwXwXwXwXwXwXwXwXwXwXwXwXwXwXwXwXwXwX",
"wXwX, 4.m.f.*.<.%.6.g.n.d.d.d.d.d.d.d.f.n.m.m.V.C.U._   .   wXwXwXwXwXwXwXwXwXwXwXwXwXwXwXwXwXwXwXwX",
"wXwXwX( V.f.y.6.f.n.d.d.f.d.d.d.d.d.d.d.d.d.d.d.d.Z.D : wX# wXwXwXwXwXwXwXwXwXwXwXwXwXwXwXwXwXwXwXwX",
"wXwXwXi m.d.f.f.d.d.d.d.f.f.d.d.d.d.d.d.d.d.d.d.f.u.X wXwXwXwXwXwXwXwXwXwXwXwXwXwXwXwXwXwXwXwXwXwXwX",
"wXwXwX- 7.m.d.d.d.d.d.m.5.r.f.s.d.d.s.s.d.d.d.d.Z.Q ; wXwXwXwXwXwXwXwXwXwXwXwXwXwXwXwXwXwXwXwXwXwXwX",
"wXwXwXwXv Z.d.d.d.d.Z.q.x p.f.d.d.d._.H.s.d.s.V.q.  wXwXwXwXwXwXwXwXwXwXwXwXwXwXwXwXwXwXwXwXwXwXwXwX",
"wXwXwXwX+ $.Z.d.m.C.8.9 | m.s.f.d.s.~.G.d.d.n.M.q wXwXwXwXwXwXwXwXwXwXwXwXwXwXwXwXwXwXwXwXwXwXwXwXwX",
"wXwXwXwXwX  y.M.( x 9 =. X`.h.a.d.f.s.p.d.m.m.l wXwXwXwXwXwXwXwXwXwXwXwXwXwXwXwXwXwXwXwXwXwXwXwXwXwX",
"wXwXwXwXwXwX7 | ^ G t..X*X*X`.d.d.f.M.V.Z.t.u wXwXwXwXwXwXwXwXwXwXwXwXwXwXwXwXwXwXwXwXwXwXwXwXwXwXwX",
"wXwXwXwXwXwXO $ 5.E.V.(.%X%X`.s.V.u.! ) ) # wXwXwXwXwXwXwXwXwXwXwXwXwXwXwXwXwXwXwXwXwXwXwXwXwXwXwXwX",
"wXwXwXwXwXwXwXwX. c &.H.oXXXA.V.3.u / ( = wXwXwXwXwXwXwXwXwXwXwXwXwXwXwXwXwXwXwXwXwXwXwXwXwXwXwXwXwX",
"wXwXwXwXwXwXwXwXwXwX: 5 s K ^ S n ` b q.C wXwXwXwXwXwXwXwXwXwXwXwXwXwXwXwXwXwXwXwXwXwXwXwXwXwXwXwXwX",
"wXwXwXwXwXwXwXwXwXwXwX& y wXwXwXn J.! 5.c wXwXwXwXwXwXwXwXwXwXwXwXwXwXwXwXwXwXwXwXwXwXwXwXwXwXwXwXwX",
"wXwXwXwXwXwXwXwXwXwXwXe n.&.wXP 9.n #.D ..!.A wXwXwXwXwXwXwXwXwXwXwXwXwXwXwXwXwXwXwXwXwXwXwXwXwXwXwX",
"wXwXwXwXwXwXwXwXwXwXwXwX& { g.J.=.  J x.S.K.T.V 2 H wXwXwXwXwXwXwXwXwXwXwXwXwXwXwXwXwXwXwXwXwXwXwXwX",
"wXwXwXwXwXwXwXwXwXwXwXwXwXwXZ V wXwXp e.b.k.n.p ; n.i.j wXwXwXwXwXwXwXwXwXwXwXwXwXwXwXwXwXwXwXwXwXwX",
"wXwXwXwXwXwXwXwXwXwXwXwXwXwXwXwXwXwXwXwX2 H.y.t % w.F.S - wXwXwXwXwXwXwXwXwXwXwXwXwXwXwXwXwXwXwXwXwX",
"wXwXwXwXwXwXwXwXwXwXwXwXwXwXwXwXwXwXwXwXI }.H ` W.z.wXwXwXwXwXwXwXwXwXwXwXwXwXwXwXwXwXwXwXwXwXwXwXwX",
"wXwXwXwXwXwXwXwXwXwXwXwXwXwXwXwXwXt c wX] W.w 1 K M wXwXwXwXwXwXwXwXwXwXwXwXwXwXwXwXwXwXwXwXwXwXwXwX",
"wXwXwXwXwXwXwXwXwXwXwXwXwXwXwXwXwX3 (  .(...wXwXwXwXwXwXwXwXwXwXwXwXwXwXwXwXwXwXwXwXwXwXwXwXwXwXwXwX",
"wXwXwXwXwXwXwXwXwXwXwXwXwXwXwXwXwXwXwX4.f.h wXwXwXwXwXwXwXwXwXwXwXwXwXwXwXwXwXwXwXwXwXwXwXwXwXwXwXwX",
"wXwXwXwXwXwXwXwXwXwXwXwXwXwXwXwXwXwXwXwX9 wXwXwXwXwXwXwXwXwXwXwXwXwXwXwXwXwXwXwXwXwXwXwXwXwXwXwXwXwX"
};
