/* XPM */
static char * C:\Users\Lucas\OneDrive _ Universidade do Porto\LCOM\MINIX_LCOM\shared\proj\graphics\xpms\menus\exit_button_xpm[] = {
"42 39 2 1",
" 	c None",
".	c #FFFFFF",
"     .......                   .......    ",
"   ...........                ..........  ",
"  ............               ............ ",
"  .............             ............. ",
"  ..............           .............. ",
"  ...............         ............... ",
"  ................       ................ ",
"   ...............      ................  ",
"    ...............     ...............   ",
"     ...............   ...............    ",
"      ............... ...............     ",
"      ..............................      ",
"       ............................       ",
"        ..........................        ",
"         ........................         ",
"          ......................          ",
"           ....................           ",
"            ..................            ",
"             ................             ",
"             .................            ",
"            ..................            ",
"           ....................           ",
"          ......................          ",
"         ........................         ",
"        ..........................        ",
"       ............................       ",
"      ..............................      ",
"     ................................     ",
"    ................  ................    ",
"   ................    ................   ",
"  ................      ................  ",
"  ...............        ...............  ",
" ...............         ................ ",
"...............           ................",
"...............            ...............",
"..............              ..............",
".............                ............ ",
" ...........                  ........... ",
"   .......                     ........   "};
