/* XPM */
static char * C:\Users\Lucas\OneDrive _ Universidade do Porto\LCOM\MINIX_LCOM\shared\proj\graphics\resources\menus\play_button_letters_xpm[] = {
"243 50 2 1",
" 	c None",
".	c #FFFFFF",
"                                                                                                                                                                                                                                                   ",
"                                                                                           ...                                                                                                                                                     ",
"                                                                                           ....                                                                                                                                                    ",
"                                                                                          ...........                ..                                                                                                                            ",
"                                                                                        .................           ....                                                                                                                           ",
"                                                                                       ....................         ....                                                                                                                           ",
"                                                                                       .....................        ....                                                                                                                           ",
"                                                                                       .......        .......       ...                                                                                                                            ",
"                                                                                        .....           ......      ...                                                                                                                            ",
"                                                                                         ....            .....     ....                                                                                                                            ",
"                                                                                         ...              ....     ....                                                                                                                            ",
"                                                                                        ....              ....     ...                                                                                                                             ",
"                                                                                        ....              ....     ...                                                                                                                             ",
"                                                                                        ...              .....    ....                                                                                                                             ",
"                                                                                       ....            ......     ....                         ...         ...                                                                                     ",
"                                                                                       ....           ......      ...           .......        ....        ...                                                                                     ",
"                                                                                       ...         ........       ...         ..........       ....       .....                                                                                    ",
"                                                                                      ....      ..........       ....        ...........      ....        ....                                                                                     ",
"                                                                                      ....   ...........         ....       ............      ....        ....                                                                                     ",
"                                                                                      ................           ....      ......   ...       ....        ....                                                                                     ",
"                                                                                     ..............              ...      ......    ...       ....       .....                                                                                     ",
"                                                                                     ..........                 ....      ....      ...       ...        ....                                                                                      ",
"                                                                                     .....                      ....     .....     ....      ....       .....                                                                                      ",
"                                                                                     ...                        ....     ....      ...       ....       .....                                                                                      ",
"                                                                                    ....                        ...     ....      ....       ....      .....                                                                                       ",
"                                                                                    ....                       ....     ....      ....       ....     ......                                                                                       ",
"                                                                                    ...                        ....     ...      .....       ...      ......                                                                                       ",
"                                                                                    ...                        ....    ....     ......       ....   .......                                                                                        ",
"                                                                                   ....                        ...     ....    ......        ....  .... ...                                                                                        ",
"                                                                                   ....                       ....     ....  ........        ......... ....                                                                                        ",
"                                                                                   ....                       ....     ..............         .......  ...                                                                                         ",
"                                                                                  ....                        ....     ........  ....         ......   ...                                                                                         ",
"                                                                                  ....                        ....      ......   ....          ....   ....                                                                                         ",
"                                                                                  ...                         ....       ....    ...                 ....                                                                                          ",
"                                                                                  ...                          ..                ...                 ....                                                                                          ",
"                                                                                                                                                    ....                                                                                           ",
"                                                                                                                                                   .....                                                                                           ",
"                                                                                                                                                  .....                                                                                            ",
"                                                                                                                                                 .....                                                                                             ",
"                                                                                                                                               ......                                                                                              ",
"                                                                                                                                             .......                                                                                               ",
"                                                                                                                                          .........                                                                                                ",
"                                                                                                                                          .......                                                                                                  ",
"                                                                                                                                          ......                                                                                                   ",
"                                                                                                                                          ....                                                                                                     ",
"                                                                                                                                                                                                                                                   ",
"                                                                                                                                                                                                                                                   ",
"                                                                                                                                                                                                                                                   ",
"                                                                                                                                                                                                                                                   ",
"                                                                                                                                                                                                                                                   "};
