/* XPM */
static char *result[] = {
/* columns rows colors chars-per-pixel */
"17 47 2 1 ",
"  c #000000",
". c #FFEA00",
/* pixels */
"                 ",
" ............... ",
" ............... ",
" ............... ",
" ............... ",
" ............... ",
" ............... ",
" ............... ",
" ............... ",
" ............... ",
" ............... ",
" ............... ",
" ............... ",
" ............... ",
" ............... ",
" ............... ",
" ............... ",
" ............... ",
" ............... ",
" ............... ",
" ............... ",
" ............... ",
" ............... ",
" ............... ",
" ............... ",
" ............... ",
" ............... ",
" ............... ",
" ............... ",
" ............... ",
" ............... ",
" ............... ",
" ............... ",
" ............... ",
" ............... ",
" ............... ",
" ............... ",
" ............... ",
" ............... ",
" ............... ",
" ............... ",
" ............... ",
" ............... ",
" ............... ",
" ............... ",
" ............... ",
"                 "
};
