/* XPM */
static char *result[] = {
/* columns rows colors chars-per-pixel */
"46 16 2 1 ",
"  c #000000",
". c #FFEA00",
/* pixels */
"                                              ",
" ............................................ ",
" ............................................ ",
" ............................................ ",
" ............................................ ",
" ............................................ ",
" ............................................ ",
" ............................................ ",
" ............................................ ",
" ............................................ ",
" ............................................ ",
" ............................................ ",
" ............................................ ",
" ............................................ ",
" ............................................ ",
"                                              "
};
