/* XPM */
static char *_45a7f1c198d4b41f5e9c2354b724b22K9URRRX64EQMVRZt[] = {
/* columns rows colors chars-per-pixel */
"50 50 222 2 ",
"   c None",
".  c #020102",
"X  c #0B0103",
"o  c #0B0B05",
"O  c #030409",
"+  c #050B0A",
"@  c #0C0E0B",
"#  c #120203",
"$  c #1A0202",
"%  c #140A06",
"&  c #190B07",
"*  c #0C190B",
"=  c #0C1508",
"-  c #111D0B",
";  c #1B1E0C",
":  c #111007",
">  c #230103",
",  c #2C0102",
"<  c #220C05",
"1  c #2A0C05",
"2  c #340002",
"3  c #3C0102",
"4  c #330B06",
"5  c #2D1205",
"6  c #241D09",
"7  c #25160A",
"8  c #3A1506",
"9  c #1A280B",
"0  c #1F2311",
"q  c #23240A",
"w  c #2A2D0C",
"e  c #2F270C",
"r  c #32270A",
"t  c #3B2F0F",
"y  c #2A340D",
"u  c #26340C",
"i  c #32300F",
"p  c #3B3B0F",
"a  c #2F2E12",
"s  c #262B14",
"d  c #352A12",
"f  c #353314",
"g  c #373B12",
"h  c #420105",
"j  c #4B0204",
"k  c #4D0B06",
"l  c #470A08",
"z  c #540203",
"x  c #590204",
"c  c #530903",
"v  c #5C0E04",
"b  c #540809",
"n  c #461708",
"m  c #541007",
"M  c #531308",
"N  c #591807",
"B  c #630305",
"V  c #6E0303",
"C  c #620B06",
"Z  c #720203",
"A  c #7C0303",
"S  c #770A07",
"D  c #681A09",
"F  c #751105",
"G  c #7A1A06",
"H  c #76140A",
"J  c #4A250B",
"K  c #43220C",
"L  c #5C200B",
"P  c #5B2A0D",
"I  c #542609",
"U  c #403E0D",
"Y  c #583B0D",
"T  c #4E2F13",
"R  c #443D14",
"E  c #4F3E17",
"W  c #583717",
"Q  c #6C2D06",
"!  c #65280B",
"~  c #732A02",
"^  c #7A2109",
"/  c #75270A",
"(  c #733008",
")  c #3D460F",
"_  c #394314",
"`  c #3E421D",
"'  c #494A0E",
"]  c #59430E",
"[  c #4C510E",
"{  c #434113",
"}  c #4D4212",
"|  c #4C461B",
" . c #4A4A1C",
".. c #58461B",
"X. c #4D521E",
"o. c #5D5115",
"O. c #5E5E17",
"+. c #565417",
"@. c #555606",
"#. c #61480B",
"$. c #7B500B",
"%. c #714A11",
"&. c #665919",
"*. c #7B5914",
"=. c #684B10",
"-. c #5B611A",
";. c #64611D",
":. c #776819",
">. c #7B761E",
",. c #5A5824",
"<. c #6D6A27",
"1. c #830206",
"2. c #8A0204",
"3. c #8A0C03",
"4. c #8E0B08",
"5. c #910303",
"6. c #9C0303",
"7. c #980C05",
"8. c #811A0A",
"9. c #911207",
"0. c #991806",
"q. c #A40104",
"w. c #AB0203",
"e. c #A50904",
"r. c #B40406",
"t. c #BB0304",
"y. c #B80904",
"u. c #A51205",
"i. c #A81B07",
"p. c #B81908",
"a. c #8C260B",
"s. c #822109",
"d. c #9A2709",
"f. c #8E3B06",
"g. c #863705",
"h. c #9A3B0A",
"j. c #AD250A",
"k. c #A32108",
"l. c #BB2509",
"z. c #B42709",
"x. c #C30105",
"c. c #C20905",
"v. c #CC0C05",
"b. c #C20209",
"n. c #CB0807",
"m. c #D30205",
"M. c #DC0804",
"N. c #C21407",
"B. c #CB1606",
"V. c #D51706",
"C. c #E30405",
"Z. c #EB0002",
"A. c #EC0A04",
"S. c #E30D06",
"D. c #FE0501",
"F. c #F30D06",
"G. c #FE0A01",
"H. c #F00704",
"J. c #EB1B06",
"K. c #FE1202",
"L. c #FE1C02",
"P. c #F11C06",
"I. c #C92607",
"U. c #DC2504",
"Y. c #CB3108",
"T. c #D63109",
"R. c #ED2304",
"E. c #ED2B06",
"W. c #E32507",
"Q. c #F52406",
"!. c #FE2402",
"~. c #F42B04",
"^. c #FE2C02",
"/. c #EE3304",
"(. c #E33A0A",
"). c #FE3402",
"_. c #FE3B02",
"`. c #F73904",
"'. c #85400F",
"]. c #8A5808",
"[. c #98570E",
"{. c #B44E07",
"}. c #AD530B",
"|. c #B8550C",
" X c #A64108",
".X c #8B7E0C",
"XX c #AD6912",
"oX c #C54D08",
"OX c #D8440A",
"+X c #D75707",
"@X c #C65707",
"#X c #FE4302",
"$X c #FF4A00",
"%X c #FF4A02",
"&X c #FF4D01",
"*X c #FF4B01",
"=X c #ED5A07",
"-X c #FF5202",
";X c #FF5C03",
":X c #F65E04",
">X c #EB4B06",
",X c #CF6108",
"<X c #FF6403",
"1X c #FE6B04",
"2X c #FF6708",
"3X c #F8760A",
"4X c #B8920A",
"5X c #BEA00A",
"6X c #9F9F25",
"7X c #C38C0B",
"8X c #CFAA0B",
"9X c #D6BB08",
"0X c #E1AA08",
"qX c #E8B806",
"wX c #F5BF09",
"eX c #EBCC07",
"rX c #FFCA06",
"tX c #FFD403",
"yX c #FEDB02",
"uX c #FFE402",
"iX c #FEED02",
"pX c #FFF704",
/* pixels */
"                                          &._ s a f f f g _ ' @.                                    ",
"                                      { O # h A 6.w.w.q.1.B , X . . o O @ q  .                      ",
"                                  n . 2 7.S.G.G.D.D.D.G.G.L.Q.I.j.oX|.Q 1 # . O q                   ",
"                            f . O 4 j.^.^.).^.^.^.^.^.).)._.).)._.-X<X<X:X+X|.f.5 . R               ",
"                        s . # b z._.)._._.%X&X#X_._.).).).).).).).#X%X#X%X-X;X1X1X}.; ;             ",
"                    6 . > s.T._.).).#X%X*X%X%X%X&X%X%X#X_.).).).).).).).)._._.#X-X1X3XI :           ",
"                  . % a.~._.).).).)._.%X%X%X%X%X&X%X&X-X#X).).).).!.L.!.!.!.^.).#X*X;X3XJ q         ",
"                } o 1 v 1.c.S.J.~.).).)._._.%X%X&X%X&X&X_.).).).^.K.G.G.G.K.L.!.^.`.%X;X3X$ +.      ",
"                    R u = . > h 1.B.~.).).).)._._.#X#X_.).).).).L.G.G.G.G.G.G.K.L.^._.&X1X}..       ",
"                              9 = X 1.P.^.).).).).).^.^.).).).!.G.G.G.G.G.G.G.G.G.L.^._.&X1Xn a     ",
"                                    % 1.F.^.).).).).^.).).^.L.D.G.G.G.G.G.G.G.M.t.y.V.~.#X;X{..     ",
"                                    _ # b.G.^.).).).).).!.G.D.G.D.D.D.G.D.G.r.M ] #.P 0./.%X<X< }   ",
"                                  6Xq 2 b.D.K.^.).^.L.K.G.D.G.D.G.D.D.D.D.x.I 4XrXrXqX#.i.#X:XQ :   ",
"                              -.w . x C.K.~.L.!.^.K.G.D.G.G.G.D.D.D.D.G.D.Z 4XtXtXtXyXrX( /.-XoX.   ",
"                p . @ @ + O X > z u.Q.)._.#X_._.!.K.D.G.G.D.D.D.D.D.D.D.C./ 0XtXuXpX9XqX].U.#X=XX :.",
"                  . . h x 2.p.Q.^._.#X&X&X&X-X%X).K.G.G.G.G.D.D.D.D.D.D.Z.G 0XtXiXpX.X4X].U.#X;X1 } ",
"                  +.# Z b.S.Q.^._.).^.)._.#X*X&X#XL.G.G.D.D.D.D.D.D.D.D.D.4.7XyXuXuXyX8X/ R._.;XM f ",
"                    >.9 & > 3 9.Q.L.F.K.!.).`.#X#X!.G.D.G.D.G.D.D.D.D.D.D.x.'.7XeXeX9X$.r.!._.;X~ w ",
"                        - O > x C.K.G.K.!.).).).).!.D.D.D.D.D.D.D.D.D.D.D.D.t.G [.XXh.w.G.!._.-Xg.; ",
"                      O.+ b B.P.^.^.).)._.).^.).).!.G.D.G.D.D.D.D.D.D.D.D.D.D.M.t.t.C.G.G.!.).;Xg.q ",
"                    9 . F E.)._.#X#X%X#X#X#X_._._.).L.G.D.D.G.D.D.D.D.D.D.D.D.D.D.D.G.G.G.!._.;X~ i ",
"                _ . 3 i.)._.).).#X*X*X*X-X&X%X&X%X`.^.K.D.D.D.D.D.D.D.D.D.D.G.G.D.G.G.G.K.!._.;XN } ",
"          -.y . 3 9./._._.).).).`._.#X%X%X&X&X%X&X#X_.!.G.D.D.D.D.D.D.D.D.D.M.H.G.G.G.G.K.^.#X;X4 &.",
"    ;.g - # x w.P.).`.E.Q.!.!.!.^.).).)._.#X%X&X&X-X%X).F.D.D.D.D.D.D.D.D.D.y.1.A.G.G.G.L.).%X:X&   ",
"  o . 2 2.x.m.w.3.v k j j Z q.m.K.L.!.).).)._.%X%X&X*X).F.D.D.D.D.D.D.D.D.D.A.l b A.G.K.!._.-X+X%   ",
"  R . 3 6.6.D r y y y y 9 = % , x 5.c.P.^.^.)._._._._.^.K.G.G.G.D.D.G.D.D.G.G.n.< c M.L.^._.<Xf.e   ",
"    | p o.                    [ - . > j 9.E._.^.).).).!.G.D.G.G.D.G.G.D.G.G.D.G.n.h k B.).&X1X8     ",
"                                      * O b I.^.).).).L.G.G.G.G.D.G.G.D.G.G.G.G.G.V.9.I.#X;X+X7     ",
"                                      ; . . H `.).).).!.K.G.G.G.G.G.G.G.G.G.G.G.G.L.^._.&X3XI       ",
"                                  . O # h 2.v.L.!.).).).!.K.K.G.G.G.G.G.G.G.G.K.L.^._.%X1X}.r       ",
"                              X.@ x q.y.J.~.!.^.^.).)._._.).L.K.G.K.G.G.K.K.L.!.^._.%X1X,X7         ",
"                             .> 5.S.F.Q.~.~.).).).).%X-X&X&X%X_.^.L.!.L.!.!.^.).#X-X1X@X8           ",
"                          a . 3 x 3 > , , , 3 k S i.~._.%X%XOXT._.).).).)._.#X&X<X2Xf.1             ",
"                          . . & f ,.<.<.<.O.` q . X 2 Z i.H l n d._.#X%X-X;X;X=Xh.8 6               ",
"                            ,.                     .q . # h p.i.4 M Y.>XoX XQ 4 X E                 ",
"                                                        g F 0.M b 4 > > < &                         ",
"                                                          s.G b n.Z E                               ",
"                                                        d M Y.z.n.3 ,.    K Z Y                     ",
"                                                    $ B 5.j v d.M S P :.%.c.6.Y                     ",
"                                              t     Z t.H.m.4.l O j l.(.I.V >                       ",
"                                            L 3.W   2.A.K.G.x.2   &.k V 3 ..                        ",
"                                          L W.y.E  .A m.5.z 8                                       ",
"                                        X $ G 0.4 + x v.V +.                                        ",
"                                            ..0.P.i.b e.7.*.                                        ",
"                                              c u.k % 2.6.*.    ..                                  ",
"                                                ..    C 5.=.X.n $                                   ",
"                                                      W 1.a.D 3 T                                   ",
"                                                        8.F.Z J                                     ",
"                                                        P 3 W                                       ",
"                                                          &.                                        "
};
