/* XPM */
static char *_607914197968[] = {
/* columns rows colors chars-per-pixel */
"50 50 189 2 ",
"   c #010204",
".  c #0C0504",
"X  c #020B03",
"o  c #0F0A04",
"O  c #00050E",
"+  c #000908",
"@  c #120302",
"#  c #1C0504",
"$  c #1B0B04",
"%  c #18060A",
"&  c #1A0C06",
"*  c #051301",
"=  c #101807",
"-  c #000C10",
";  c #0F0A11",
":  c #220505",
">  c #2E0602",
",  c #240D02",
"<  c #250608",
"1  c #210A0A",
"2  c #2A0A02",
"3  c #330503",
"4  c #350D04",
"5  c #3D0C03",
"6  c #370A0D",
"7  c #3E0503",
"8  c #271605",
"9  c #2A1600",
"0  c #2F1411",
"q  c #2D210D",
"w  c #400804",
"e  c #4A0B03",
"r  c #400F0C",
"t  c #480604",
"y  c #530D03",
"u  c #5B0A03",
"i  c #50090C",
"p  c #520302",
"a  c #431A05",
"s  c #43100E",
"d  c #491706",
"f  c #541103",
"g  c #5D1403",
"h  c #501B06",
"j  c #5A1B0F",
"k  c #440D11",
"l  c #510E10",
"z  c #4B1014",
"x  c #541211",
"c  c #5A1811",
"v  c #5C1216",
"b  c #630403",
"n  c #6F0602",
"m  c #630C03",
"M  c #6A0C03",
"N  c #760A05",
"B  c #611403",
"V  c #691603",
"C  c #6E1905",
"Z  c #6D120D",
"A  c #681C0F",
"S  c #731502",
"D  c #771B04",
"F  c #701312",
"G  c #741E18",
"H  c #4B2105",
"J  c #592902",
"K  c #55230F",
"L  c #6A2004",
"P  c #782A05",
"I  c #8F0702",
"U  c #840C02",
"Y  c #810503",
"T  c #9F0E03",
"R  c #891705",
"E  c #941303",
"W  c #9C1503",
"Q  c #991C02",
"!  c #90150C",
"~  c #8A1415",
"^  c #991718",
"/  c #A10704",
"(  c #A30C04",
")  c #AB0A03",
"_  c #B20E04",
"`  c #B60203",
"'  c #A61003",
"]  c #AA1504",
"[  c #A51A04",
"{  c #AB1903",
"}  c #B51404",
"|  c #BA1205",
" . c #B31A05",
".. c #A71713",
"X. c #8D2504",
"o. c #832C05",
"O. c #942705",
"+. c #893703",
"@. c #A32503",
"#. c #B72B02",
"$. c #BD2402",
"%. c #BC3002",
"&. c #B73C04",
"*. c #C10203",
"=. c #CD0D00",
"-. c #D30404",
";. c #DC0003",
":. c #DF0905",
">. c #C41201",
",. c #C61408",
"<. c #CC1803",
"1. c #D31002",
"2. c #DA1805",
"3. c #C71A17",
"4. c #D91E1C",
"5. c #E10202",
"6. c #EB0002",
"7. c #E80902",
"8. c #F60502",
"9. c #FF0201",
"0. c #FB0803",
"q. c #F50C01",
"w. c #E31A02",
"e. c #EC1C02",
"r. c #E51503",
"t. c #F41501",
"y. c #FE1201",
"u. c #F11D04",
"i. c #FE1C01",
"p. c #F91E0C",
"a. c #E71B14",
"s. c #E31F1A",
"d. c #EC1E16",
"f. c #F31B11",
"g. c #FF1E14",
"h. c #C52502",
"j. c #CA2503",
"k. c #C52C03",
"l. c #C43C04",
"z. c #E52C02",
"x. c #EB2D03",
"c. c #E62302",
"v. c #FF2301",
"b. c #F42F01",
"n. c #FF2C01",
"m. c #FF230B",
"M. c #FF290B",
"N. c #E73103",
"B. c #E83801",
"V. c #F63703",
"C. c #FE3301",
"Z. c #F53B02",
"A. c #FF3C01",
"S. c #FF2313",
"D. c #FF2814",
"F. c #824705",
"G. c #954806",
"H. c #9D4F04",
"J. c #8D5005",
"K. c #865B04",
"L. c #AC4203",
"P. c #B74302",
"I. c #BD4302",
"U. c #A35A03",
"Y. c #826405",
"T. c #956E04",
"R. c #A37C03",
"E. c #E04805",
"W. c #EA4203",
"Q. c #FF4301",
"!. c #FF4B01",
"~. c #FF5401",
"^. c #FF5901",
"/. c #939F05",
"(. c #A1AF07",
"). c #BAA803",
"_. c #C0AC04",
"`. c #C0B902",
"'. c #9CD105",
"]. c #BED803",
"[. c #BCD505",
"{. c #D0D105",
"}. c #C8E606",
"|. c #D5FB05",
" X c #EBE303",
".X c #EDF703",
"XX c #FFFF02",
"oX c #F0F303",
"OX c None",
/* pixels */
"OXOXOXOXOXOXOXOXOXOXOXOXOXOXOXOXOXOXOXOXOXOXOXOXOXOX. OXOXOXOXOXOXOXOXOXOXOXOXOXOXOXOXOXOXOXOXOXOXOX",
"OXOXOXOXOXOXOXOXOXOXOXOXOXOXOXOXOXOXOXOXOXOXOXOXOXOX  & OXOXOXOXOXOXOXOXOXOXOXOXOXOXOXOXOXOXOXOXOXOX",
"OXOXOXOXOXOXOXOXOXOXOXOXOXOXOXOXOXOXOXOXOXOXOXOXOXOXV g OXOXOXOXOXOXOXOXOXOXOXOXOXOXOXOXOXOXOXOXOXOX",
"OXOXOXOXOXOXOXOXOXOXOXOXOXOXOXOXOXOX    OXOXOXOXOXOXQ x.  OXOXOXOXOXOXOXOXOXOXOXOXOXOXOXOXOXOXOXOXOX",
"OXOXOXOXOXOXOXOXOXOXOXOXOXOXOXOXOXOX. e   OXOXOXOX  W A.5 OXOXOXOXOXOXOXOXOXOXOXOXOXOXOXOXOXOXOXOXOX",
"OXOXOXOXOXOXOXOXOXOXOXOXOXOXOXOXOXOX  j.{   OXOXOX   .n.[   OXOXOXOXOXOXOXOXOXOXOXOXOXOXOXOXOXOXOXOX",
"OXOXOXOXOXOXOXOXOXOXOXOXOXOXOXOXOXOX  { C.4 OXOXOX  c.n.e.. OXOXOXOXOXOXOXOXOXOXOXOXOXOXOXOXOXOXOXOX",
"OXOXOXOXOXOXOXOXOXOXOXOXOXOXOXOXOXOX  <.n.W   OXOX3 n.Q.n.t OXOXOXOXOXOXOXOXOXOXOXOXOXOXOXOXOXOXOXOX",
"OXOXOXOXOXOXOXOXOXOXOXOXOXOXOXOXOXOX: m.i.e.. OXOXb n.^.A.I + OXOX  OXOXOXOXOXOXOXOXOXOXOXOXOXOXOXOX",
"OXOXOXOXOXOXOXOXOXOXOXOXOXOXOXOXOX  ] v.v.i.3 OXX ) C.^.!.,.  OX$   OXOXOXOXOXOXOXOXOXOXOXOXOXOXOXOX",
"OXOXOXOXOXOXOXOXOXOXOXOXOX# . OXOX3 v.i.Q.i.u + : y.Q.^.!.v.@ OX4 M X OXOXOXOXOXOXOXOXOXOXOXOXOXOXOX",
"OXOXOXOXOXOXOXOXOXOXOXOXOXB E OXOXU i.C.!.n.n   T n.!.^.~.n.3   e c.. OXOXOXOXOXOXOXOXOXOXOXOXOXOXOX",
"OXOXOXOXOXOXOXOXOXOXOXOXOXS n..   <.v.Q.!.C./ Y v.Q.!.~.^.C.b   ' C.2 OXOXOXOXOXOXOXOXOXOXOXOXOXOXOX",
"OXOXOXOXOXOXOXOXOXOXOXOXOXR C.4   t.C.Q.!.Q.v.i.Q.Q.~.~.~.C.n # n.!.g OXOXOXOXOXOXOXOXOXOXOXOXOXOXOX",
"OXOXOXOXOXOXOXOXOXOXOXOX  @.A.M % i.A.!.~.!.A.C.Q.Q.^.~.~.C.5.z.!.!.Q OXOXOXOXOXOXOXOXOXOXOXOXOXOXOX",
"OXOXOXOXOXOXOXOXOXOXOXOX  %.Q.E m v.Q.!.^.!.Q.Q.Q.!.!.^.~.C.n.Q.A.!.h.- OXOXOXOXOXOXOXOXOXOXOXOXOXOX",
"OXOXOXOXOXOXOXOXOXOXOXOX  %.^.c.r.n.Q.~.^.~.A.!.C.C.!.^.Q.Q.!.A.Q.^.N.; OXOXOXOXOXOXOXOXOXOXOXOXOXOX",
"OXOXOXOXOXOXOXOXOXOXOXOX  #.^.C.y.n.!.A.n.n.Q.V.y.y.n.A.A.A.Q.Q.~.^.A.< OXOXOXOXOXOXOXOXOXOXOXOXOXOX",
"OXOXOXOXOXOXOXOXOXOXOXOX  @.^.~.v.v.V.@.U.U.[ 0.i.i.y.;.*.8.C.!.^.^.A.7   OXOXOXOXOXOXOXOXOXOXOXOXOX",
"OXOXOXOXOXOXOXOXOXOXOXOXOXR ^.^.!.i.' (.XXXX/.T y.i.*.T.).O.u.!.!.^.Q.y   OXOXOXOXOXOXOXOXOXOXOXOXOX",
"OXOXOXOXOXOXOXOXOXOXOXOXOXB !.^.^.:.T.XX X`.XXF.9.9.J.|.XX[.{ A.Q.!.A.y   OXOXOXOXOXOXOXOXOXOXOXOXOX",
"OXOXOXOXOXOXOXOXOXOXOXOXOX5 Q.^.!.6.K.XXoX{.}.R y.0.G.'..X[._ A.Q.Q.A.f   OXOXOXOXOXOXOXOXOXOXOXOXOX",
"OXOXOXOXOXOXOXOXOXOXOXOXOX, C.!.A.v.} Y.)._.o.7.v.i.-.H.R.X.q.n.Q.Q.A.4   OXOXOXOXOXOXOXOXOXOXOXOXOX",
"OXOXOXOXOXOXOXOXOXOXOXOXOXX k.A.A.n.v.-.` *.q.v.i.v.v.8.5.y.n.v.A.Q.Z.@ OXOXOXOXOXOXOXOXOXOXOXOXOXOX",
"OXOXOXOXOXOXOXOXOXOXOXOXOXOXX.Q.Q.C.n.n.v.v.v.v.v.v.v.v.v.n.n.v.C.Q.k.+ OXOXOXOXOXOXOXOXOXOXOXOXOXOX",
"OXOXOXOXOXOXOXOXOXOXOXOXOXOXa Q.C.C.n.n.n.n.n.v.n.v.v.n.n.n.n.C.n.Q.C OXOXOXOXOXOXOXOXOXOXOXOXOXOXOX",
"OXOXOXOXOXOXOXOXOXOXOXOXOXOX  l.Q.C.C.C.h.j.C.C.n.n.n.n.n.C.C.C.A.W.o OXOXOXOXOXOXOXOXOXOXOXOXOXOXOX",
"OXOXOXOXOXOXOXOXOXOXOXOXOXOXOXa ~.A.C.A.B.C D $.x.b.z.C.C.C.C.A.~.h OXOXOXOXOXOXOXOXOXOXOXOXOXOXOXOX",
"OXOXOXOXOXOXOXOXOXOXOXOXOXOXOX  P ^.A.A.A.A.X.B V V D V.A.A.A.^.o.  OXOXOXOXOXOXOXOXOXOXOXOXOXOXOXOX",
"OXOXOXOXOXOXOXOXOXOXOXOXOXOXOXOX  o.^.!.A.Q.Q.Q.Z.B.Z.A.A.~.~.P   OXOXOXOXOXOXOXOXOXOXOXOXOXOXOXOXOX",
"OXOXOXOXOXOXOXOXOXOXOXOXOXOXOXOXOX  a E.^.^.!.!.!.!.~.^.~.&.8   OXOXOXOXOXOXOXOXOXOXOXOXOXOXOXOXOXOX",
"OXOXOXOXOXOXOXOXOXOXOXOXOXOXOXOXOX* u & H P &.P.I.L.+.J 8 > ..OXOXOXOXOXOXOXOXOXOXOXOXOXOXOXOXOXOXOX",
"OXOXOXOXOXOXOXOXOXOXOXOXOXOXOXOXOX  y.v.2.' N u y m U } w.i.S.z OXOXOXOXOXOXOXOXOXOXOXOXOXOXOXOXOXOX",
"OXOXOXOXOXOXOXOXOXOXOXOXOXOXOXOXOXp i.p.2.i.i.i.i.i.v.i.u.N i.4.+ OXOXOXOXOXOXOXOXOXOXOXOXOXOXOXOXOX",
"OXOXOXOXOXOXOXOXOXOXOXOXOXOXOXOX= _ v.! . i.i.i.i.i.i.i.m.O >.D.v OXOXOXOXOXOXOXOXOXOXOXOXOXOXOXOXOX",
"OXOXOXOXOXOXOXOXOXOXOXOXOXOXOXOX# i.m.0 8 y.i.i.i.i.i.i.f.q g i.s.+ OXOXOXOXOXOXOXOXOXOXOXOXOXOXOXOX",
"OXOXOXOXOXOXOXOXOXOXOXOXOXOXOXOXu v.a.+ e i.i.i.i.i.i.i.f.K OX=.m.F OXOXOXOXOXOXOXOXOXOXOXOXOXOXOXOX",
"OXOXOXOXOXOXOXOXOXOXOXOXOXOXOXOX} M.~ OXe i.i.i.i.i.i.i.S.6 OXw v.p.$ OXOXOXOXOXOXOXOXOXOXOXOXOXOXOX",
"OXOXOXOXOXOXOXOXOXOXOXOXOXOXOXOX>.S.% OXe i.i.i.i.i.i.i.S.6 OXOX) T OXOXOXOXOXOXOXOXOXOXOXOXOXOXOXOX",
"OXOXOXOXOXOXOXOXOXOXOXOXOXOXOXOX4 i OXOXg i.i.i.u.i.i.i.S.s OXOX  OXOXOXOXOXOXOXOXOXOXOXOXOXOXOXOXOX",
"OXOXOXOXOXOXOXOXOXOXOXOXOXOXOXOXOXOXOXOXf i.i.i.i.i.i.i.g.j OXOXOXOXOXOXOXOXOXOXOXOXOXOXOXOXOXOXOXOX",
"OXOXOXOXOXOXOXOXOXOXOXOXOXOXOXOXOXOXOXOXf i.i.i.w.,.i.i.g.c OXOXOXOXOXOXOXOXOXOXOXOXOXOXOXOXOXOXOXOX",
"OXOXOXOXOXOXOXOXOXOXOXOXOXOXOXOXOXOXOXOX7 i.i.v.F   i.i.g.x OXOXOXOXOXOXOXOXOXOXOXOXOXOXOXOXOXOXOXOX",
"OXOXOXOXOXOXOXOXOXOXOXOXOXOXOXOXOXOXOXOX3 v.i.g.G * 1.v.S.x OXOXOXOXOXOXOXOXOXOXOXOXOXOXOXOXOXOXOXOX",
"OXOXOXOXOXOXOXOXOXOXOXOXOXOXOXOXOXOXOXOX> i.i.g.A OX| i.S.x OXOXOXOXOXOXOXOXOXOXOXOXOXOXOXOXOXOXOXOX",
"OXOXOXOXOXOXOXOXOXOXOXOXOXOXOXOXOXOXOXOX4 i.i.S.d OX] i.S.x OXOXOXOXOXOXOXOXOXOXOXOXOXOXOXOXOXOXOXOX",
"OXOXOXOXOXOXOXOXOXOXOXOXOXOXOXOXOXOXOXOXh t.i.d.% OXR i.S.i OXOXOXOXOXOXOXOXOXOXOXOXOXOXOXOXOXOXOXOX",
"OXOXOXOXOXOXOXOXOXOXOXOXOXOXOXOXOXOXOXOXa t.v.3.o OXm i.S.x OXOXOXOXOXOXOXOXOXOXOXOXOXOXOXOXOXOXOXOX",
"OXOXOXOXOXOXOXOXOXOXOXOXOXOXOXOXOXOXOXOX, t.M.^ OXOX# i.D.k OXOXOXOXOXOXOXOXOXOXOXOXOXOXOXOXOXOXOXOX",
"OXOXOXOXOXOXOXOXOXOXOXOXOXOXOXOXOXOXOXOXOXt ! % OXOXOXm Z OXOXOXOXOXOXOXOXOXOXOXOXOXOXOXOXOXOXOXOXOX"
};
