/* XPM */
static char *_607914249986[] = {
/* columns rows colors chars-per-pixel */
"50 50 205 2 ",
"   c #010103",
".  c #010A04",
"X  c #0D0B02",
"o  c #01030A",
"O  c #020B0A",
"+  c #0A0708",
"@  c #140303",
"#  c #1C0104",
"$  c #120A03",
"%  c #1C0B05",
"&  c #160A09",
"*  c #021302",
"=  c #0E1203",
"-  c #011B03",
";  c #02170B",
":  c #0B1309",
">  c #041E0D",
",  c #0F190B",
"<  c #121905",
"1  c #1B1E09",
"2  c #191609",
"3  c #000612",
"4  c #010810",
"5  c #171F12",
"6  c #1C1414",
"7  c #240306",
"8  c #2F0002",
"9  c #2C0009",
"0  c #200E09",
"q  c #330105",
"w  c #3C0105",
"e  c #3E0806",
"r  c #300B08",
"t  c #3D0A09",
"y  c #241504",
"u  c #281208",
"i  c #221B0D",
"p  c #2A1A0C",
"a  c #281D06",
"s  c #3B1206",
"d  c #022204",
"f  c #042D07",
"g  c #192C04",
"h  c #12330D",
"j  c #2E2B0E",
"k  c #25250D",
"l  c #30210C",
"z  c #30280A",
"x  c #2D310C",
"c  c #3A3806",
"v  c #32341A",
"b  c #440205",
"n  c #4C0305",
"m  c #4A0F03",
"M  c #440509",
"N  c #480709",
"B  c #530204",
"V  c #5D0205",
"C  c #540705",
"Z  c #451207",
"A  c #4D190A",
"S  c #541306",
"D  c #5E1707",
"F  c #551908",
"G  c #620005",
"H  c #6A0206",
"J  c #610807",
"K  c #6C0108",
"L  c #730106",
"P  c #7C0005",
"I  c #7A0008",
"U  c #790808",
"Y  c #7F0C04",
"T  c #641207",
"R  c #671705",
"E  c #701408",
"W  c #4F2208",
"Q  c #482509",
"!  c #522405",
"~  c #5B2C0C",
"^  c #59320A",
"/  c #453511",
"(  c #50321E",
")  c #523510",
"_  c #69280B",
"`  c #7B2F07",
"'  c #7C3608",
"]  c #1D4202",
"[  c #7D4105",
"{  c #7C7509",
"}  c #840402",
"|  c #8F0A07",
" . c #8B0006",
".. c #940005",
"X. c #9E0105",
"o. c #940409",
"O. c #990308",
"+. c #801706",
"@. c #971B09",
"#. c #A20303",
"$. c #AA0205",
"%. c #A1000B",
"&. c #A8000A",
"*. c #A2080A",
"=. c #AD0809",
"-. c #A70D05",
";. c #BB0106",
":. c #B60A05",
">. c #BE0805",
",. c #B90109",
"<. c #B20A0C",
"1. c #AC1505",
"2. c #AD1B06",
"3. c #AD1408",
"4. c #A21A04",
"5. c #BD1407",
"6. c #BF1908",
"7. c #B51609",
"8. c #8D220C",
"9. c #992B0A",
"0. c #803307",
"q. c #9D3D02",
"w. c #AC290C",
"e. c #B32606",
"r. c #B62709",
"t. c #C20205",
"y. c #CD0204",
"u. c #DA0105",
"i. c #D60905",
"p. c #C71205",
"a. c #D81705",
"s. c #D31505",
"d. c #EC0402",
"f. c #E40B05",
"g. c #EE0908",
"h. c #E90605",
"j. c #F40506",
"k. c #FE0501",
"l. c #FE0A01",
"z. c #FF0C09",
"x. c #E61506",
"c. c #FE1403",
"v. c #FE1B03",
"b. c #F41A05",
"n. c #C22207",
"m. c #D72A07",
"M. c #D2220A",
"N. c #CA3808",
"B. c #D43005",
"V. c #E92705",
"C. c #FE2303",
"Z. c #FE2D02",
"A. c #FF2508",
"S. c #F22806",
"D. c #E83509",
"F. c #FE3401",
"G. c #FE3B02",
"H. c #FF3109",
"J. c #F33107",
"K. c #8A460A",
"L. c #974705",
"P. c #A54201",
"I. c #B54809",
"U. c #A3570F",
"Y. c #A9530F",
"T. c #B15A0D",
"R. c #C04C0A",
"E. c #DA4C07",
"W. c #CC5707",
"Q. c #D55906",
"!. c #FE4402",
"~. c #FF4C01",
"^. c #EC5C07",
"/. c #FF5201",
"(. c #FF5B01",
"). c #F55303",
"_. c #CE650C",
"`. c #EE640C",
"'. c #FF6404",
"]. c #FF6B04",
"[. c #E8760B",
"{. c #FE7403",
"}. c #FF7F05",
"|. c #FF7F0A",
" X c #968B0D",
".X c #A3840E",
"XX c #AF9A0C",
"oX c #AA930B",
"OX c #B29406",
"+X c #FF8206",
"@X c #FF880B",
"#X c #F9850E",
"$X c #C2AC09",
"%X c #C2B909",
"&X c #DFB108",
"*X c #DACA0A",
"=X c #DEDE09",
"-X c #EDDB0A",
";X c #FFDE04",
":X c #F2D30A",
">X c #FFE503",
",X c #FFEA02",
"<X c #FFF301",
"1X c #FFFF01",
"2X c None",
/* pixels */
"2X2X2X2X2X2X2X2X2X2X2X2X2X2X2X2X2X2X2X2X2X2X2X2X2X2X2X2X2X2X2X2X2X2X2X2X2X2X2X2X2X2X2X2X2X2X2X2X2X2X",
"2X2X2X2X2X2X2X2X2X2X2X2X2X2X2X2X2X2X2X2X2X2X2X2X2X2X2X2X2X2X2X2X2X2X2X2X2X2X2X2X2X2X2X2X2X2X2X2X2X2X",
"2X2X2X2X2X2X2X2X2X2X2X2X2X2X2X2X2X2X2X2X2X2X2X2X2X2X2X2X2X2X2X2X2X2X2X2X2X2X2X2X2X2X2X2X2X2X2X2X2X2X",
"2X2X2X2X2X2X2X2X2X2X2X2X2X2X2X2X2X2X2X2X2X2X2X2X2X2X2X2X2X2X2X2X2X2X2X2X2X2X2X2X2X2X2X2X2X2X2X2X2X2X",
"2X2X2X2X2X2X2X2X2X2X2X2X2X2X2X2X2X2X2X2X2X2X2X2X2X2X2X2X2X2X2X2X2X2X2X2X2X2X2X2X2X2X2X2X2X2X2X2X2X2X",
"2X2X2X2X2X2X2X2X2X2X2X2X2X2X2X2X2X2X2X2X2X2X2X2X2X2X2X2X2X2X2X2X2X2X2X2X2X2X2X2X2X2X2X2X2X2X2X2X2X2X",
"2X2X2X2X2X2X2X2X2X2X2X2X2X2X2X2X2X2X2X2X2X2X2X2X2X2X2X2X2X2X2X2X2X2X2X2X2X2X2X2X2X2X2X2X2X2X2X2X2X2X",
"2X2X2X2X2X2X2X2X2X2X2X2X2X2X2X2X2X2X2X2X2X2X2X2X2X2X2X2X2X2X2X2X2X2X2X2X2X2X2X2X2X2X2X2X2X2X2X2X2X2X",
"2X2X2X2X2X2X2X2X2X2X2X2X2X2X2X2X2X2X2Xg ] f - - - - * d 2X2X2X2X2X2X2X2X2X2X2X2X2X2X2X2X2X2X2X2X2X2X",
"2X2X2X2X2X2X2X2X2X2X2X2Xx =   4 O       q B L P P L V q   O d 2X2X2X2X2X2X2X2X2X2X2X2X2X2X2X2X2X2X2X",
"2X2X2X2X2X2X2X2X2X        & Q L._.w.r.S.v.c.c.l.k.k.k.k.g.%.w o & B 2X2X2X2X2X2X2X2X2X2X2X2X2X2X2X2X",
"2X2X2X2X2X2X2X2Xo p K.W.^.(.].].].~.F.G.G.G.F.F.F.Z.H.G.F.F.F.m.S     . . 2X2X2X2X2X2X2X2X2X2X2X2X2X",
"2X2X2X2X2X2X=   T.|.{.(./.!.!.G.!.G.F.F.F.F.F.G.G.~.~.~./.!.!.!.G.H.e.e     . 2X2X2X2X2X2X2X2X2X2X2X",
"2X2X2X2X2X  p #X{.~.!.G.F.Z.C.C.C.Z.F.F.F.G.~.~.~.~.~.~.~./.~.!.F.G.!.!.G.n.F o   2X2X2X2X2X2X2X2X2X",
"2X2X2X2X1 % @X'.!.G.F.C.v.c.l.l.l.C.G.F.Z.G./.~./.~.~.~.!.G.G.G.F.Z.A.c.x.s.8.$   c 2X2X2X2X2X2X2X2X",
"2X2X2X2X  [.'.!.F.C.v.l.k.l.l.l.k.l.F.G.F.F.G.!.!.G.G.F.F.F.G.C.s.H q @       ( 2X2X2X2X2X2X2X2X2X2X",
"2X2X2X  K.{.!.F.C.l.l.l.l.l.l.l.l.k.l.Z.G.G.Z.Z.Z.F.Z.F.G.F.c.G   ; h 2X2X2X2X2X2X2X2X2X2X2X2X2X2X2X",
"2X2X5 $ {./.G.>.I L H ;.l.l.k.l.l.l.k.k.v.F.G.F.F.F.F.G.C.k.B . 2X2X2X2X2X2X2X2X2X2X2X2X2X2X2X2X2X2X",
"2X2X  ' ].!.| / oX$X Xj O.k.l.k.k.k.l.k.k.j.v.Z.F.F.G.c.k.u.  * 2X2X2X2X2X2X2X2X2X2X2X2X2X2X2X2X2X2X",
"2X2X  Q.(.s.^ >X<X;X,X:XQ u.k.k.k.l.k.k.k.k.k.k.l.F.Z.j.v.z.u.7   O 2X2X2X2X2X2X2X2X2X2X2X2X2X2X2X2X",
"2X  u ].~.-.OX&X*X1X>X>X{ I k.k.k.l.k.k.k.l.l.l.k.C.H.G.!.!.F.A.1.G #     .       c 2X2X2X2X2X2X2X2X",
"2X. W '.G.X.XX.X%X1X>X>X{ ..k.k.k.k.k.k.k.k.l.k.l.F.~.)./././.~.G.H.F.b.t.O.H     2X2X2X2X2X2X2X2X2X",
"2X  ' '.G.h.A =X1X,X<X-X_ d.k.k.k.k.k.k.k.k.l.k.v.!./.!.G.F.C.C.F.G.J.a.y.$.b : 2X2X2X2X2X2X2X2X2X2X",
"5   q.(.H.v.,.~ XX$X X) t.k.k.k.k.k.k.k.l.k.l.k.b.G.F.F.F.C.k.j.k.l.9     O 2X2X2X2X2X2X2X2X2X2X2X2X",
",   P.(.F.c.l.h.&.%. .y.k.k.k.k.k.k.k.l.k.k.k.k.c.H.F.Z.F.Z.C.Z.v.b.5.<.@ o 2X2X2X2X2X2X2X2X2X2X2X2X",
"2X  q.'.F.v.l.l.k.k.k.k.k.k.k.k.k.k.k.k.l.k.k.c.Z.G.F.G.!.!.!.~.~.!.G.F.S.b   O 2X2X2X2X2X2X2X2X2X2X",
"2Xo ` '.G.C.l.l.l.l.k.l.k.k.k.k.k.k.k.k.k.k.l.C.G.~.~.~.~.~././.~.~.G.F.G.G.n.7     2X2X2X2X2X2X2X2X",
"2Xo ! ].G.C.l.l.l.l.l.=.d.k.k.k.k.k.k.k.k.k.b.!.~.~.~.~./.~.G.G.G.G.F.F.F.G.!.!.a.H   O > 2X2X2X2X2X",
"2X2Xy ].!.F.c.l.l.z.N M l.k.k.l.k.k.k.k.l.j.C.~.).~./.!.F.F.G.F.C.v.c.l.a.1.@.e.J.v.z.y.G 7     $ 2X",
"2X2Xo W.(.G.C.c.z.7 o l.l.k.k.k.k.k.k.l.l.k.C.!.!.!.!.F.F.G.C.c.u.O.G 7           $ n ;.l.,.7   j 2X",
"2X2Xo [ {.!.Z.5.o q l.l.l.k.k.k.k.k.l.l.l.k.C.G.Z.F.Z.G.F.p.G #   . . < 2X2X2X2X2X2X2X2XX y + X 2X2X",
"2X2X2Xi {.(.G.@.1.l.l.l.l.l.l.l.l.l.l.l.l.k.l.C.G.F.G.V.7   o - 2X2X2X2X2X2X2X2X2X2X2X2X2X2X2X2X2X2X",
"2X2X2X1 ^ +X~.G.Z.v.l.k.l.l.l.l.l.l.l.l.k.l.C.F.F.F.F.@.o   . - 2X2X2X2X2X2X2X2X2X2X2X2X2X2X2X2X2X2X",
"2X2X2X2XO U.}.~.G.Z.C.c.l.l.l.l.k.l.k.l.c.F.H.F.F.C.b.v.l.O.n #   * 2X2X2X2X2X2X2X2X2X2X2X2X2X2X2X2X",
"2X2X2X2X2X  Y.}.(.G.F.Z.C.v.c.c.v.v.C.H.~.~.~.~.G.G.H.G.G.F.A.z.j.K   2X2X2X2X2X2X2X2X2X2X2X2X2X2X2X",
"2X2X2X2X2X2Xo ~ `.{.(.~.G.F.F.F.F.H.!.E.)./.~.G.V.2.Y E D C m C P O.n   i 2X2X2X2X2X2X2X2X2X2X2X2X2X",
"2X2X2X2X2X2X2Xo o ! R.'.'.'./.~.!.B.Z t Z 7.} q     o   2X2X2X2X. . @ +   2X2X2X2X2X2X2X2X2X2X2X2X2X",
"2X2X2X2X2X2X2X2X2XO o % F ' I.N.D   N S.U     > x 2X2X2X2X2X2X2X2X2X2X2X2X2X2X2X2X2X2X2X2X2X2X2X2X2X",
"2X2X2X2X2X2X2X2X2X2X2X2X. = 4 O # | B S e.  2X2X2X2X2X2X2X2X2X2X2X2X2X2X2X2X2X2X2X2X2X2X2X2X2X2X2X2X",
"2X2X2X2X2X2X2X2X2X2X2XM Z 2X2X2X@ j.*.N.9.  2X2X2X2X2X2X2X2X2X2X2X2X2X2X2X2X2X2X2X2X2X2X2X2X2X2X2X2X",
"2X2X2X2X2X2X2X2X2X2X2XV j.R 2Xk T n 9.9.q U B 7 2X2X2X2X2X2X2X2X2X2X2X2X2X2X2X2X2X2X2X2X2X2X2X2X2X2X",
"2X2X2X2X2X2X2X2X2X2X2Xg n <.J.D.3.o 7 K >.l.h.X.r 2Xp 2X2X2X2X2X2X2X2X2X2X2X2X2X2X2X2X2X2X2X2X2X2X2X",
"2X2X2X2X2X2X2X2X2X2X2X2X2X: E Y < 2X2 ..l.l.l.t.s - :.4.z 2X2X2X2X2X2X2X2X2X2X2X2X2X2X2X2X2X2X2X2X2X",
"2X2X2X2X2X2X2X2X2X2X2X2X2X2X2X2X2X2X2X2X& t i.%., f $.H.S   2X2X2X2X2X2X2X2X2X2X2X2X2X2X2X2X2X2X2X2X",
"2X2X2X2X2X2X2X2X2X2X2X2X2X2X2X2X2X2X2X2X2X_ v.w E X.M.a l 6 2X2X2X2X2X2X2X2X2X2X2X2X2X2X2X2X2X2X2X2X",
"2X2X2X2X2X2X2X2X2X2X2X2X2X2X2X2X2X2X2X2X2X@.f.  D A.2.; 2X2X2X2X2X2X2X2X2X2X2X2X2X2X2X2X2X2X2X2X2X2X",
"2X2X2X2X2X2X2X2X2X2X2X2X2X2X2X2X2Xy 9 k 2X1.} v 2X    2X2X2X2X2X2X2X2X2X2X2X2X2X2X2X2X2X2X2X2X2X2X2X",
"2X2X2X2X2X2X2X2X2X2X2X2X2X2X2X2X2X2X9 J r.6.# 2X2X2X2X2X2X2X2X2X2X2X2X2X2X2X2X2X2X2X2X2X2X2X2X2X2X2X",
"2X2X2X2X2X2X2X2X2X2X2X2X2X2X2X2X2X2X2X@ g.X.2X2X2X2X2X2X2X2X2X2X2X2X2X2X2X2X2X2X2X2X2X2X2X2X2X2X2X2X",
"2X2X2X2X2X2X2X2X2X2X2X2X2X2X2X2X2X2X2X2X+   2X2X2X2X2X2X2X2X2X2X2X2X2X2X2X2X2X2X2X2X2X2X2X2X2X2X2X2X"
};
