/* XPM */
static char *_607914256368[] = {
/* columns rows colors chars-per-pixel */
"50 50 205 2 ",
"   c #000103",
".  c #0B0103",
"X  c #010B05",
"o  c #0A0D03",
"O  c #000209",
"+  c #000C0A",
"@  c #0B0C0A",
"#  c #130105",
"$  c #190305",
"%  c #130905",
"&  c #1D0E04",
"*  c #130F0E",
"=  c #001405",
"-  c #001B03",
";  c #0C1A02",
":  c #03130B",
">  c #041D0C",
",  c #1D1102",
"<  c #121C0C",
"1  c #191C05",
"2  c #030B12",
"3  c #181311",
"4  c #240005",
"5  c #2A0005",
"6  c #2C0B08",
"7  c #320106",
"8  c #3B0004",
"9  c #3C0A07",
"0  c #310809",
"q  c #350607",
"w  c #241404",
"e  c #251209",
"r  c #201F08",
"t  c #291B07",
"y  c #31130C",
"u  c #361A04",
"i  c #00270D",
"p  c #062903",
"a  c #173802",
"s  c #0F2610",
"d  c #052512",
"f  c #292F07",
"g  c #212707",
"h  c #382311",
"j  c #3C3112",
"k  c #450103",
"l  c #4A0106",
"z  c #4C0608",
"x  c #4E0809",
"c  c #4A0E00",
"v  c #530104",
"b  c #5B0104",
"n  c #500D00",
"m  c #5A0D04",
"M  c #510B0C",
"N  c #5F1806",
"B  c #6E0206",
"V  c #6F0709",
"C  c #60080A",
"Z  c #670904",
"A  c #730206",
"S  c #7A0106",
"D  c #720808",
"F  c #681205",
"G  c #681F0A",
"H  c #661909",
"J  c #7C1807",
"K  c #721008",
"L  c #7C1009",
"P  c #771907",
"I  c #452D0A",
"U  c #492808",
"Y  c #45240C",
"T  c #5A2406",
"R  c #582908",
"E  c #5D380B",
"W  c #55311E",
"Q  c #632C05",
"!  c #6C340B",
"~  c #743009",
"^  c #56410A",
"/  c #5B510E",
"(  c #6F4E0E",
")  c #734110",
"_  c #655811",
"`  c #70640A",
"'  c #79740F",
"]  c #850106",
"[  c #8E0105",
"{  c #8C0209",
"}  c #8B0B08",
"|  c #930006",
" . c #930906",
".. c #920409",
"X. c #98000A",
"o. c #9B0708",
"O. c #801709",
"+. c #8A1808",
"@. c #901A07",
"#. c #9F1D07",
"$. c #961A07",
"%. c #A30006",
"&. c #A90005",
"*. c #A40509",
"=. c #BF0003",
"-. c #B50906",
";. c #B10708",
":. c #B30206",
">. c #A61809",
",. c #AA1F09",
"<. c #BC150A",
"1. c #B11C07",
"2. c #8F2607",
"3. c #852009",
"4. c #9F2706",
"5. c #8C3B09",
"6. c #AB220A",
"7. c #B82907",
"8. c #B02407",
"9. c #AA390E",
"0. c #C40204",
"q. c #CD0B06",
"w. c #C00908",
"e. c #C80606",
"r. c #D20105",
"t. c #DB0405",
"y. c #DF0A05",
"u. c #DB0808",
"i. c #D00F05",
"p. c #C31908",
"a. c #CF1C08",
"s. c #CB1606",
"d. c #D41104",
"f. c #D91806",
"g. c #EB0003",
"h. c #E60807",
"j. c #FE0501",
"k. c #F40C06",
"l. c #FE0A01",
"z. c #F90509",
"x. c #FF0909",
"c. c #EC1305",
"v. c #E71905",
"b. c #FE1402",
"n. c #FE1B03",
"m. c #FF1C09",
"M. c #C62B06",
"N. c #D82006",
"B. c #D22F0A",
"V. c #E92B08",
"C. c #FE2303",
"Z. c #FE2C02",
"A. c #F0200A",
"S. c #FF2C09",
"D. c #E03F07",
"F. c #E73507",
"G. c #FE3302",
"H. c #FE3B01",
"J. c #F43406",
"K. c #8C410B",
"L. c #9E4306",
"P. c #9F490A",
"I. c #A7580A",
"U. c #B35B06",
"Y. c #80780E",
"T. c #8A740E",
"R. c #CC4B08",
"E. c #DC4E06",
"W. c #C95908",
"Q. c #C9570D",
"!. c #D75908",
"~. c #D7540A",
"^. c #EF4908",
"/. c #FE4302",
"(. c #FF4C01",
"). c #EB5904",
"_. c #FF5301",
"`. c #FF5D01",
"'. c #F25D06",
"]. c #C96006",
"[. c #D56809",
"{. c #DF6D0D",
"}. c #E46D0D",
"|. c #FF6203",
" X c #FF6B03",
".X c #FF6C0A",
"XX c #E7770C",
"oX c #FF7403",
"OX c #FF7E08",
"+X c #FF7E05",
"@X c #B99F07",
"#X c #BAA709",
"$X c #B5AC0B",
"%X c #B7A70D",
"&X c #FF8408",
"*X c #FF8D08",
"=X c #C8A209",
"-X c #CCB307",
";X c #FFDB03",
":X c #FFE403",
">X c #F5EC07",
",X c #FFEF01",
"<X c #FFF702",
"1X c #FFFD03",
"2X c None",
/* pixels */
"2X2X2X2X2X2X2X2X2X2X2X2X2X2X2X2X2X2X2X2X2X2X2X2X2X2X2X2X2X2X2X2X2X2X2X2X2X2X2X2X2X2X2X2X2X2X2X2X2X2X",
"2X2X2X2X2X2X2X2X2X2X2X2X2X2X2X2X2X2X2X2X2X2X2X2X2X2X2X2X2X2X2X2X2X2X2X2X2X2X2X2X2X2X2X2X2X2X2X2X2X2X",
"2X2X2X2X2X2X2X2X2X2X2X2X2X2X2X2X2X2X2X2X2X2X2X2X2X2X2X2X2X2X2X2X2X2X2X2X2X2X2X2X2X2X2X2X2X2X2X2X2X2X",
"2X2X2X2X2X2X2X2X2X2X2X2X2X2X2X2X2X2X2X2X2X2X2X2X2X2X2X2X2X2X2X2X2X2X2X2X2X2X2X2X2X2X2X2X2X2X2X2X2X2X",
"2X2X2X2X2X2X2X2X2X2X2X2X2X2X2X2X2X2X2X2X2X2X2X2X2X2X2X2X2X2X2X2X2X2X2X2X2X2X2X2X2X2X2X2X2X2X2X2X2X2X",
"2X2X2X2X2X2X2X2X2X2X2X2X2X2X2X2X2X2X2X2X2X2X2X2X2X2X2X2X2X2X2X2X2X2X2X2X2X2X2X2X2X2X2X2X2X2X2X2X2X2X",
"2X2X2X2X2X2X2X2X2X2X2X2X2X2X2X2X2X2X2X2X2X2X2X2X2X2X2X2X2X2X2X2X2X2X2X2X2X2X2X2X2X2X2X2X2X2X2X2X2X2X",
"2X2X2X2X2X2X2X2X2X2X2X2X2X2X2X2X2X2X2X2X2X2X2X2X2X2X2X2X2X2X2X2X2X2X2X2X2X2X2X2X2X2X2X2X2X2X2X2X2X2X",
"2X2X2X2X2X2X2X2X2X2X2X2X2X2X2X2X2X2X2X2X2X2X- - = - - - p a a 2X2X2X2X2X2X2X2X2X2X2X2X2X2X2X2X2X2X2X",
"2X2X2X2X2X2X2X2X2X2X2X2X2X2X2X2X2X2X2X2X= O 4 v A S S S b k # O   X 2 O   f 2X2X2X2X2X2X2X2X2X2X2X2X",
"2X2X2X2X2X2X2X2X2X2X2X2X2X2X2X2X2X0 O 4 ] u.j.j.j.j.l.b.b.n.A.M.,.Q.U.R e     O   2X2X2X2X2X2X2X2X2X",
"2X2X2X2X2X2X2X2X2X2X2X2X2X2X: O   0 8.G.G.G.H.G.G.Z.G.G.H.H.H.G./.|. X X|.'.!.P.I     2X2X2X2X2X2X2X",
"2X2X2X2X2X2X2X2X2X2X2X1     4 @.J.H.H././.(._.(.(./.H.G.G.G.G.G.H./.H.H./.(.`. XOX{.t   2X2X2X2X2X2X",
"2X2X2X2X2X2X2X2X2X2X  y ,.J././.H.G.H._._._.(.(.(.(._._./.G.G.G.G.C.C.C.Z.G.G././. X*X)   2X2X2X2X2X",
"2X2X2X2X2X2X2X2X2X    G p.v.b.n.S.H.H.G.H././.(.(.(.(._./.Z.Z.H.G.l.l.l.b.b.n.Z.H.H._.*X! O 2X2X2X2X",
"2X2X2X2X2X2X2X2X2X2XW @     . 5 v -.C.G.J.G.G.H.H././.H.G.G.H.H.n.j.l.l.j.l.l.b.C.G./._.&Xu : 2X2X2X",
"2X2X2X2X2X2X2X2X2X2X2X2X2X2X2X2Xd   4 h.S.H.G.Z.G.Z.Z.Z.G.H.G.n.j.l.l.l.l.l.l.j.j.b.G./.`.[.  2X2X2X",
"2X2X2X2X2X2X2X2X2X2X2X2X2X2X2X2X2X2XX # g.b.H.H.G.G.H.H.G.C.l.j.l.l.l.l.l.l.t.B D S %.Z.(.oXR O 2X2X",
"2X2X2X2X2X2X2X2X2X2X2X2X2X2X2X2X2X2X;   o.j.l.J.H.G.Z.n.k.j.j.j.j.j.j.j.l.r.y ' #X@X_ m G.`.W.  2X2X",
"2X2X2X2X2X2X2X2X2X2X2X2X2X2X2X2X+ X   &.j.C.k.n.G.b.l.j.j.l.l.j.l.j.j.j.j.l %X,X:X:X1X`  .(.|.w : 2X",
"2X2X2X2X2X2X2X2X2X        O   . l  .A.G.H././.G.C.l.l.l.l.j.j.l.j.j.j.j.=.^ ;X;X<X>X=X-X2.Z.|.!   2X",
"2X2X2X2X2X2X2X2X2X.   l | :.v.G.G.G./._._._._.(.H.b.j.l.l.j.j.j.j.j.j.j.r.E ;X;X1X>XT.$X2.Z.`.L.O 2X",
"2X2X2X2X2X2X2X2X2X2X< 4 | e.d.V.H.H.C.n.J.H./.(.(.C.j.l.l.j.j.j.j.j.j.z.z.V $X1X,X<X1X/ &.Z._.~.  o ",
"2X2X2X2X2X2X2X2X2X2X2X2XX     O e.l.z.j.n.G.G.G.H.Z.j.l.j.j.l.j.j.j.j.j.j.g.H Y.#X%X( { b.S.(.).o 2 ",
"2X2X2X2X2X2X2X2X2X2X2X2XX   { <.f.n.Z.Z.Z.J.Z.Z.H.n.j.j.j.j.l.j.j.j.j.j.j.j.g.| X.*.r.j.b.Z.(.'.o O ",
"2X2X2X2X2X2X2X2X2X2X<   # s.Z.H././././././.H.H.G.J.b.j.j.j.j.j.j.j.j.j.j.j.j.j.j.j.l.l.b.Z.(.).o O ",
"2X2X2X2X2X2X2X2X    . @.H./.H.G./._.(._._._.(.(.(./.G.b.j.l.l.l.j.j.j.j.j.j.j.j.j.l.l.l.b.G._.R.  2X",
"2X2X2X2X2X> =   k w.G./.H.G.G.G.H.H.H.H.(.(._.(.(.(./.Z.j.j.j.j.j.j.j.j.j.j.;.y.l.l.l.l.n.H.|.L.  2X",
"2Xt O   $ k &.k.n.S.M.#.>.s.k.l.b.C.G.H.G.G./.(._._._.H.k.j.j.j.j.j.j.l.j.j. .$ k.l.j.b.C.H. XQ + 2X",
"2Xj     { z.t.B &           # v ] =.z.C.H.H.Z.H././.H.Z.j.j.l.j.l.j.l.j.j.l.l.x   q.l.n.G.(.oX, 2X2X",
"2X2X2Xo , , 2X2X2X2X2X2X2X2X2XO X   . l *.Z.H.Z.Z.G.H.Z.j.l.l.l.l.j.j.j.l.l.l.l.D   } S.H.|.].O 2X2X",
"2X2X2X2X2X2X2X2X2X2X2X2X2X2X2X2X2X2X2XO     ,.H.G.G.G.b.j.l.l.l.l.l.l.l.l.l.l.j.l.d.J F.(.+XE 2X2X2X",
"2X2X2X2X2X2X2X2X2X2X2X2X2X2X2X2X2X2X2X+     x S.G.H.G.C.b.l.l.j.l.l.l.l.l.l.l.l.b.C.H./.oXI.@ 2X2X2X",
"2X2X2X2X2X2X2X2X2X2X2X2X2X2X2X2Xg   # 8 S h.b.n.n.G.G.G.G.n.l.l.l.l.l.l.l.l.b.n.Z.H./. XXX@ 2X2X2X2X",
"2X2X2X2X2X2X2X2X2X2X2X2X2X2X2X  8 r.x.C.S.H.H.G.H.H.(.(.(.(.H.Z.n.b.b.b.n.n.S.G.H._.oX}.@ 2X2X2X2X2X",
"2X2X2X2X2X2X2X2X2X2X2X2X2X2X  5 ..[ b c n m H J #.N.H./._._.E.^.H.Z.G.G.G.H./._. X.XK.X 2X2X2X2X2X2X",
"2X2X2X2X2X2X2X2X2X2X2X2X2X    $ o   2X2X2X2X    O   $ Z <.F 7 9 6././._.|.|.|.~.~ % O 2X2X2X2X2X2X2X",
"2X2X2X2X2X2X2X2X2X2X2X2X2X2X2X2X2X2X2X2X2X2X2X2X2X2Xs O   7 A.J O e 7.R.5.T u   O 2X2X2X2X2X2X2X2X2X",
"2X2X2X2X2X2X2X2X2X2X2X2X2X2X2X2X2X2X2X2X2X2X2X2X2X2X2X2X2X@.3.4 o.k X 2 @ o O 2X2X2X2X2X2X2X2X2X2X2X",
"2X2X2X2X2X2X2X2X2X2X2X2X2X2X2X2X2X2X2X2X2X2X2X2X2X2X2X2X  H D.L l.v 2X2X2Xu x 2X2X2X2X2X2X2X2X2X2X2X",
"2X2X2X2X2X2X2X2X2X2X2X2X2X2X2X2X2X2X2X2X2X2X2X2X2X2X# k ] q P 9.k V R 2XU h.%.- 2X2X2X2X2X2X2X2X2X2X",
"2X2X2X2X2X2X2X2X2X2X2X2X2X2X2X2X2X2X2X2X2X2X2X3 I e V u.l.y.S l X D V.F.a.A % 2X2X2X2X2X2X2X2X2X2X2X",
"2X2X2X2X2X2X2X2X2X2X2X2X2X2X2X2X2X2X2X2X2X2XH d.u 1 | l.l.l.e.4 2X2Xm } e 2X2X2X2X2X2X2X2X2X2X2X2X2X",
"2X2X2X2X2X2X2X2X2X2X2X2X2X2X2X2X2X2X2X2X  6 V.c.r i b k.Z $ : 2X2X2X2X2X2X2X2X2X2X2X2X2X2X2X2X2X2X2X",
"2X2X2X2X2X2X2X2X2X2X2X2X2X2X2X2X2X2X2X2X* h ; 6.-.O.9 q.6.: 2X2X2X2X2X2X2X2X2X2X2X2X2X2X2X2X2X2X2X2X",
"2X2X2X2X2X2X2X2X2X2X2X2X2X2X2X2X2X2X2X2X2X2X2XF S.#.O | N.o 2X2X2X2X2X2X2X2X2X2X2X2X2X2X2X2X2X2X2X2X",
"2X2X2X2X2X2X2X2X2X2X2X2X2X2X2X2X2X2X2X2X2X2X2X    2X2Xv d.g 2Xq # 2X2X2X2X2X2X2X2X2X2X2X2X2X2X2X2X2X",
"2X2X2X2X2X2X2X2X2X2X2X2X2X2X2X2X2X2X2X2X2X2X2X2X2X2X2Xo  .B.D 7 Y 2X2X2X2X2X2X2X2X2X2X2X2X2X2X2X2X2X",
"2X2X2X2X2X2X2X2X2X2X2X2X2X2X2X2X2X2X2X2X2X2X2X2X2X2X2X2Xm x.8 2X2X2X2X2X2X2X2X2X2X2X2X2X2X2X2X2X2X2X",
"2X2X2X2X2X2X2X2X2X2X2X2X2X2X2X2X2X2X2X2X2X2X2X2X2X2X2X2X&   2X2X2X2X2X2X2X2X2X2X2X2X2X2X2X2X2X2X2X2X"
};
