/* XPM */
static char *ab625a7c7f764be7b905a6e88ee9383dhcUeruJBPJF7enPL[] = {
/* columns rows colors chars-per-pixel */
"50 50 232 2 ",
"   c None",
".  c #020403",
"X  c #090001",
"o  c #020C07",
"O  c #0C0905",
"+  c #090B09",
"@  c #140302",
"#  c #1A0204",
"$  c #130B04",
"%  c #1C0A05",
"&  c #140E09",
"*  c #0D1409",
"=  c #001007",
"-  c #1B1305",
";  c #1B1B09",
":  c #141508",
">  c #230203",
",  c #2B0303",
"<  c #250D05",
"1  c #250B09",
"2  c #330102",
"3  c #3C0304",
"4  c #360C07",
"5  c #2E1305",
"6  c #2D1C0B",
"7  c #251608",
"8  c #331406",
"9  c #331C09",
"0  c #391406",
"q  c #11250E",
"w  c #1C210C",
"e  c #1A2B0A",
"r  c #092C12",
"t  c #24230C",
"y  c #2B210A",
"u  c #2C2C0E",
"i  c #242909",
"p  c #3D250D",
"a  c #372C0E",
"s  c #29350C",
"d  c #34310E",
"f  c #3F3D0F",
"g  c #2C2D12",
"h  c #282812",
"j  c #3A2D12",
"k  c #332F11",
"l  c #253811",
"z  c #393514",
"x  c #393C13",
"c  c #3A3919",
"v  c #430403",
"b  c #4D0204",
"n  c #440801",
"m  c #4C0C04",
"M  c #510103",
"N  c #5D0102",
"B  c #540C07",
"V  c #5A0B05",
"C  c #5E0608",
"Z  c #481F0A",
"A  c #551207",
"S  c #591207",
"D  c #5E160C",
"F  c #551C0A",
"G  c #640305",
"H  c #6D0505",
"J  c #770004",
"K  c #7C0104",
"L  c #750B07",
"P  c #7E0806",
"I  c #7F0A09",
"U  c #641507",
"Y  c #621209",
"T  c #681808",
"R  c #761808",
"E  c #4A270A",
"W  c #522206",
"Q  c #5D210B",
"!  c #582408",
"~  c #403E0D",
"^  c #492A10",
"/  c #592A13",
"(  c #473B13",
")  c #543712",
"_  c #563914",
"`  c #692905",
"'  c #732E0B",
"]  c #75270B",
"[  c #6D310B",
"{  c #7B3605",
"}  c #633212",
"|  c #7A3D12",
" . c #39430B",
".. c #3C530F",
"X. c #2D4113",
"o. c #394512",
"O. c #344812",
"+. c #4E470E",
"@. c #4A5009",
"#. c #484113",
"$. c #47491E",
"%. c #554817",
"&. c #465013",
"*. c #4E5415",
"=. c #5A5616",
"-. c #72430E",
";. c #614016",
":. c #685B19",
">. c #6F4B10",
",. c #6D6A1B",
"<. c #444A21",
"1. c #584A20",
"2. c #4E5222",
"3. c #685F22",
"4. c #755621",
"5. c #6C6423",
"6. c #666424",
"7. c #787D22",
"8. c #8A0103",
"9. c #880B05",
"0. c #930103",
"q. c #9D0103",
"w. c #940D04",
"e. c #970C06",
"r. c #821306",
"t. c #8B1707",
"y. c #971906",
"u. c #A40205",
"i. c #AB0203",
"p. c #AD0C05",
"a. c #B40001",
"s. c #BA0203",
"d. c #BE0F05",
"f. c #B50C03",
"g. c #A71005",
"h. c #A61805",
"j. c #B11106",
"k. c #BB1105",
"l. c #B31B0A",
"z. c #872209",
"x. c #9C2209",
"c. c #982508",
"v. c #8B3407",
"b. c #973B07",
"n. c #883E14",
"m. c #B72706",
"M. c #B73E03",
"N. c #AE2707",
"B. c #C70005",
"V. c #CB0303",
"C. c #C80905",
"Z. c #D20405",
"A. c #DB0103",
"S. c #D40C04",
"D. c #DB0904",
"F. c #CC1905",
"G. c #C31001",
"H. c #D21804",
"J. c #EB0203",
"K. c #EB0B04",
"L. c #E20504",
"P. c #F40002",
"I. c #FE0501",
"U. c #F30B05",
"Y. c #FE0A01",
"T. c #E41A09",
"R. c #E51805",
"E. c #FE1302",
"W. c #F31E03",
"Q. c #FE1B03",
"!. c #F61605",
"~. c #C32B09",
"^. c #C72204",
"/. c #D52906",
"(. c #D92807",
"). c #D93908",
"_. c #CD3A04",
"`. c #E82804",
"'. c #FE2403",
"]. c #FE2B02",
"[. c #F52502",
"{. c #EF3505",
"}. c #E73506",
"|. c #FE3402",
" X c #FE3B02",
".X c #FB3107",
"XX c #994508",
"oX c #86500B",
"OX c #9B4C12",
"+X c #A84A09",
"@X c #BA4A05",
"#X c #A55710",
"$X c #9F760C",
"%X c #81670A",
"&X c #A56D0B",
"*X c #C64606",
"=X c #D94D03",
"-X c #C8560A",
";X c #D4520B",
":X c #E34F04",
">X c #FE4302",
",X c #FF4B01",
"<X c #F14B04",
"1X c #ED5203",
"2X c #E65A06",
"3X c #FF5101",
"4X c #FF5302",
"5X c #FE5B02",
"6X c #FB5F08",
"7X c #CD600A",
"8X c #E36306",
"9X c #FE6204",
"0X c #FF6C03",
"qX c #F56505",
"wX c #E9730B",
"eX c #FE7507",
"rX c #AB8A09",
"tX c #A68A0C",
"yX c #B78309",
"uX c #AA920A",
"iX c #C89C06",
"pX c #CBB308",
"aX c #CDAF08",
"sX c #C8C208",
"dX c #EEC607",
"fX c #E5C808",
"gX c #FFD105",
"hX c #F9DA04",
"jX c #ECD807",
"kX c #FEE302",
"lX c #FFEC02",
"zX c #FFFF02",
/* pixels */
"                                                                                                    ",
"                                                                                                    ",
"                                      @. .x z j j j j u g  .                                        ",
"                      ,.g * + + - % # 1 v H 0.i.s.s.a.q.K M > & #.                                  ",
"                  o.O $ < 8 F XX7X;X~.(.].'.Q.E.E.Y.Y.Y.Y.E.T.e.m # 8 -.                            ",
"              *.$ 8 { -X2X6X9X9X9X4X X|.|.|.|. X|..X|..X|. X|.]..Xm.Y # . * *.                      ",
"            t < OXeX0X5X3X,X>X X X X X|.|.|.|.|. X>X>X,X,X,X,X>X X X.X}.y.m @ o o.                  ",
"          * E wXeX5X>X X|.|.].].].].|.|.|.|. X,X,X,X,X,X,X,X4X,X,X>X X X X>X).t.v @ ~               ",
"        w W wX0X,X X|.].'.Q.Q.E.E.Q.|.|.].|.>X,X3X,X,X,X,X,X>X>X X X X.X.X].'.'.m.3 . i             ",
"      x 8 8X0X>X X].'.E.Y.Y.Y.Y.I.E.'. X|.|.|.>X,X,X>X,X>X X|.|.|.|.].S.p.8.G , 5 p 6 +.            ",
"      $ +X0X,X|.].Q.Y.Y.Y.Y.I.Y.Y.Y.E.]. X|.|.|..X X|.|.|.|.|.|.'.d.M # & .                         ",
"    ; ! qX4X|.'.K.A.P.Y.Y.Y.Y.Y.Y.I.Y.Y.'.|. X.X].].|.].|.|.|.W.u.# o                               ",
"    $ @X5X>XR.t.T ! S q.J.Y.Y.Y.Y.Y.I.I.I.E.].|.|. X|.|.|.].Y.i.# O.                                ",
"  u 0 :X3X/.] ,.iXpXuX>.r.L.Y.Y.I.I.I.Y.I.I.Y.E.'.].|. X'.Y.P.8.X &.                                ",
"  - v.5X>Xc.$XhXlXkXhXpXoXu.I.I.I.I.I.I.I.Y.Y.I.Y.Y.'.].Q.Q.Q.K.u.2 ;  .                            ",
"  - *X3X`.b.iXdXjXlXkXgX$Xt.P.I.I.I.Y.I.I.I.Y.Y.Y.Y.Q..X.X X>X.X].H.J v < ; ; h g k t d             ",
"#.8 =X,X`.XXrXtXsXzXkXgXyXt.P.I.I.I.I.I.I.I.Y.Y.Y.Y.'. X,X,X,X3X,X>X.X`.H.j.K M 3 X . x             ",
"k F :X,X[.x.$XfXkXlXkXdX#Xu.I.I.I.I.I.I.I.Y.I.Y.I.E..X,X,X,X>X X.X.X|. X.X`.D.s.K , d               ",
"t ` 1X>X'.S.z.rXfXfXpX$Xx.L.I.I.I.I.I.I.Y.I.I.Y.Y.Q..X>X X X|.'.Y.U.Q.W.e.v > % g =.                ",
"7 { 1X>X'.Y.A.y.OX#Xv.e.A.Y.I.I.I.I.I.I.I.I.I.I.I.E.].|.].|.].'.!.E.E.L.P 3 X = 7.                  ",
"i { 1X>X'.E.Y.I.A.B.A.P.I.I.I.I.I.I.I.I.I.I.I.Y.I.!.].|.|.|. X X X X|.].'.T.9., s &.                ",
"d ' 1X>X].E.Y.Y.Y.Y.Y.Y.I.I.I.I.I.I.I.I.I.I.I.I.E.]. X>X>X>X,X>X,X,X,X,X X|.|.m.3 . l               ",
"#.W :X,X].Q.Y.I.Y.Y.Y.I.I.I.I.I.I.I.I.I.I.I.I.Y.]. X,X,X,X,X,X3X,X,X,X>X X X X X{.y.2 O O.          ",
":.8 =X,X|.Q.Y.Y.Y.Y.U.B.Z.I.I.I.I.I.I.I.I.I.I.[. X,X,X,X3X,X,X>X X X X|.|.|.|.|. X>X].k.N > i l O.  ",
"  7 *X4X X'.Y.Y.Y.K.L G D.Y.I.I.I.I.I.I.I.I.Y.].,X3X3X,X,X>X X|. X.X].Q.E.U.S.f.g.h.^.R.K.B.8.b 4 6 ",
"  a b.5X>X|.Q.E.D.m > p.Y.I.Y.I.I.I.Y.I.Y.I.Y.'.>X>X>X>X X.X|.|.'.!.L.s.J b , $ $ $ : 5 A w.B.V.0.> ",
"  =.W 2X4X|.[.j.3 , p.Y.Y.Y.Y.I.Y.I.I.Y.Y.Y.Y.'..X|.|.|.|. X.XF.0.N 2 & e q e  .*.      ..s ) n.` 7 ",
"    y @X9X,X(.L G S.Y.Y.I.Y.Y.I.I.Y.I.Y.Y.Y.Y.E.].|.|.|.|./.L # + o                                 ",
"    :.[ 8X5X{.`.[.E.Y.Y.Y.Y.Y.Y.Y.Y.Y.Y.Y.Y.Y.E.].|.|. X(.m . . q                                   ",
"      d XX0X5X X].'.E.Y.Y.Y.Y.Y.Y.Y.Y.Y.Y.Y.Q.].|.|..X].T.9.v # o o                                 ",
"        ^ +X0X3X X|.].Q.E.E.Y.Y.Y.Y.Y.Y.E.]. X X X|.].'.'.'.T.d.0.J 3 *                             ",
"          p XXqX5X>X X].].'.'.Q.Q.Q.'.|.>X,X,X,X,X X|.|..X]..X].!.U.V.P 4 *.                        ",
"            p ` -X9X4X,X X|.|.|..X.X X}.*X<X,X X.X^.y.L V m v n 3 n V N 2 X g                       ",
"              #.5 ` @X2X6X5X3X,X>X{.x.D S R y.9.b , O * g $.3.6.  6.2.z 7 . X :.                    ",
"                  j % 0 ' b.M._.N.A 4 r.l.G $ ; t c                                                 ",
"                          7 9 < 1 3 C B r.r._                                                       ",
"                                %.H Z.r.z.t.5.                                                      ",
"                      T 8.|     %.M g.~.N.S 4 1                                                     ",
"                      [ 8.f.b.OXt.G > T T G i.q.M                                                   ",
"                        a V q.G.e.E w , q.Y.Y.I.i.D   ^ E                                           ",
"                            _ F _     ;.9.i.C.K.s./ <.z.i.c.4.                                      ",
"                                          t S s.q.6 r T F.w.@ (                                     ",
"                                            R p.I B 9.j.z.( ( 1.                                    ",
"                                            y.u.3 3 d.a.Q                                           ",
"                                    9 ^     t.8./ 6.>.`                                             ",
"                                    p 2 F ' 9.Y                                                     ",
"                                      Z G S.g.%.                                                    ",
"                                        } V D                                                       ",
"                                          =.5.                                                      ",
"                                                                                                    "
};
