/* XPM */
static char * xpm_numbers[] = {
"304 30 4 1",
" 	c None",
".	c #020202",
"+	c #010101",
"@	c #000000",
"        .+++++++                                               .+++++++.                  @.+++++++.                                                                                .++++++++.                                          .+++++++.                   .++++++.                                    ",
"      ++++++++++++.                   ++++++.              .+++++++++++++++           .++++++++++++++++                      ++++++++         +++++++++++++++++++++              +++++++++++++       +++++++++++++++++++++++         ++++++++++++++.             .++++++++++++                                  ",
"    ++++++++++++++++                  ++++++.             .+++++++++++++++++          +++++++++++++++++++                   +++++++++         +++++++++++++++++++++            +++++++++++++++       +++++++++++++++++++++++        +++++++++++++++++           ++++++++++++++++                                ",
"   ++++++++++++++++++                +++++++.             .++++++++++++++++++         ++++++++++++++++++++                 ++++++++++         +++++++++++++++++++++          @++++++++++++++++       +++++++++++++++++++++++      .+++++++++++++++++++         ++++++++++++++++++                               ",
"   +++++++++++++++++++             .++++++++.             .+++++++++++++++++++        ++++++++++++++++++++                .++++++++++         +++++++++++++++++++++         .+++++++++++++++++       +++++++++++++++++++++++      +++++++++++++++++++++       +++++++++++++++++++.                              ",
"  ++++++++    ++++++++         +++++++++++++.             .+++++++++++++++++++.       ++++++++++++++++++++.               +++++++++++         +++++++++++++++++++++         +++++++++       ++       +++++++++++++++++++++++     +++++++++     ++++++++      +++++++++    ++++++++                              ",
"  +++++++      ++++++++        +++++++++++++.             .+++.      ++++++++++       ++++.       +++++++++              ++++++++++++         +++++++++++++++++++++        ++++++++                  +++++++++++++++++++++++     +++++++.       ++++++++     ++++++++      +++++++.                             ",
" ++++++++       +++++++        +++++++++++++.             .+           ++++++++       +@           ++++++++             +++++++++++++         +++++++                     .+++++++                                  +++++++.     +++++++        .+++++++    .+++++++       .+++++++                             ",
" +++++++        +++++++.       +++++++++++++.                          ++++++++                     +++++++            ++++++ +++++++         +++++++                     +++++++                                  ++++++++      +++++++        .++++++.    ++++++++        +++++++       .+++++++              ",
" +++++++        ++++++++       +++++++++++++.                          .+++++++                     ++++++.           .+++++  +++++++         +++++++                     +++++++                                 .+++++++.      ++++++++       +++++++     +++++++.        +++++++.      .+++++++              ",
" +++++++        .+++++++             +++++++.                          .+++++++                    +++++++            +++++   +++++++         +++++++                    .++++++.   ++++++                        ++++++++       +++++++++.     +++++++     +++++++.        +++++++.      .+++++++              ",
".+++++++         +++++++             +++++++.                          ++++++++                   +++++++.           +++++@   +++++++         ++++++++++++++.            +++++++ .++++++++++.                    ++++++++         +++++++++++  +++++++      ++++++++        ++++++++      .+++++++              ",
"++++++++         +++++++             +++++++.                          +++++++              ++++++++++++.           ++++++    +++++++         +++++++++++++++++.         +++++++++++++++++++++                   ++++++++         .+++++++++++++++++.       ++++++++        .+++++++      .+++++++              ",
"++++++++         +++++++             +++++++.                         ++++++++              +++++++++++            ++++++     +++++++         +++++++++++++++++++        +++++++++++++++++++++.                 ++++++++            +++++++++++++++         .+++++++.       ++++++++      .+++++++              ",
"++++++++         +++++++             +++++++.                         +++++++               ++++++++++            ++++++      +++++++         ++++++++++++++++++++       ++++++++++++++++++++++                 +++++++.             +++++++++++++++         +++++++++      ++++++++      .+++++++              ",
"++++++++         +++++++             +++++++.                        ++++++++               ++++++++++++.         +++++       +++++++         +++++++++++++++++++++      +++++++.     .+++++++++               ++++++++             .+++++++++++++++++       +++++++++++++++++++++++      .+++++++              ",
"++++++++         +++++++             +++++++.                       ++++++++                ++++++++++++++       +++++        +++++++         ++.        .+++++++++      +++++++        ++++++++              .+++++++             ++++++.+++++++++++++       +++++++++++++++++++++.                            ",
"++++++++         +++++++             +++++++.                      ++++++++                       .++++++++     +++++.        +++++++                      ++++++++.     +++++++        .+++++++              ++++++++           .++++++.   .++++++++++        ++++++++++++++++++++                             ",
".+++++++         +++++++             +++++++.                     ++++++++                          +++++++     +++++++++++++++++++++++++                   ++++++++     +++++++         +++++++             ++++++++            +++++++       +++++++++        +++++++++++ +++++++                             ",
" +++++++        .+++++++             +++++++.                   .++++++++                           +++++++.    +++++++++++++++++++++++++                   ++++++++     +++++++         +++++++             ++++++++           +++++++         ++++++++          .+++++.   +++++++                             ",
" +++++++        ++++++++             +++++++.                  +++++++++                            +++++++.    +++++++++++++++++++++++++                   ++++++++     +++++++         +++++++            ++++++++            +++++++          +++++++                    +++++++                             ",
" +++++++        +++++++.             +++++++.                 ++++++++.                             +++++++.    +++++++++++++++++++++++++                   +++++++.     +++++++.        +++++++           .+++++++.            +++++++          +++++++                   +++++++                              ",
" ++++++++       +++++++              +++++++.                ++++++++                +.            ++++++++@    +++++++++++++++++++++++++    ++            ++++++++      .+++++++       ++++++++           ++++++++             ++++++++         +++++++                  ++++++++        .+++++++              ",
" .+++++++      ++++++++              +++++++.              .++++++++                 ++++.        +++++++++                   +++++++        +++++       .+++++++++       +++++++.      +++++++.          ++++++++              ++++++++        .+++++++                 ++++++++         .+++++++              ",
"  ++++++++    ++++++++.              +++++++.             ++++++++++++++++++++++     ++++++++++++++++++++++                   +++++++        +++++++++++++++++++++.       .+++++++.    ++++++++           ++++++++               +++++++++     +++++++++      .+       .++++++++.         .+++++++              ",
"   +++++++++++++++++++         +++++++++++++++++++.       ++++++++++++++++++++++     +++++++++++++++++++++                    +++++++        +++++++++++++++++++++         +++++++++++++++++++.          ++++++++                ++++++++++++++++++++++       .+++++++++++++++++          .+++++++              ",
"   ++++++++++++++++++          +++++++++++++++++++.       ++++++++++++++++++++++     ++++++++++++++++++++                     +++++++        ++++++++++++++++++++           ++++++++++++++++++          .++++++++                 ++++++++++++++++++++        .++++++++++++++++           .+++++++              ",
"    ++++++++++++++++           +++++++++++++++++++.       ++++++++++++++++++++++     +++++++++++++++++++                      +++++++        +++++++++++++++++++             +++++++++++++++.           ++++++++                   ++++++++++++++++++         .++++++++++++++.            .+++++++              ",
"      ++++++++++++.            +++++++++++++++++++.       ++++++++++++++++++++++      ++++++++++++++++.                       +++++++         ++++++++++++++++                .++++++++++++            ++++++++.                    .++++++++++++++.          .++++++++++++.              .+++++++              ",
"        .+++++++               +++++++++++++++++++.       ++++++++++++++++++++++         .+++++++++.                          +++++++            .+++++++++                      .++++++.              ++++++++                        .++++++++.              +++++++++.                 .+++++++              "};
