/* XPM */
static char * slider_xpm[] = {
"70 15 2 1",
" 	c #000000",
".	c #FFBA00",
"                                                                      ",
"                                                                      ",
"  ..................................................................  ",
"  ..................................................................  ",
"  ..................................................................  ",
"  ..................................................................  ",
"  ..................................................................  ",
"  ..................................................................  ",
"  ..................................................................  ",
"  ..................................................................  ",
"  ..................................................................  ",
"  ..................................................................  ",
"  ..................................................................  ",
"                                                                      ",
"                                                                      "};
