/* XPM */
static char *_607914264454[] = {
/* columns rows colors chars-per-pixel */
"50 50 214 2 ",
"   c #030101",
".  c #0B0100",
"X  c #020509",
"o  c #040A0C",
"O  c #0B0B0C",
"+  c #050803",
"@  c #110100",
"#  c #190000",
"$  c #05120E",
"%  c #15100E",
"&  c #040B11",
"*  c #041315",
"=  c #031519",
"-  c #0C191C",
";  c #081617",
":  c #141919",
">  c #131419",
",  c #041D24",
"<  c #0C1F25",
"1  c #03242D",
"2  c #072728",
"3  c #162123",
"4  c #172E2E",
"5  c #022B35",
"6  c #0A2B33",
"7  c #002B3C",
"8  c #092A37",
"9  c #102633",
"0  c #0D353B",
"q  c #00343E",
"w  c #3D332E",
"e  c #263636",
"r  c #34302E",
"t  c #37493D",
"y  c #002F41",
"u  c #033442",
"i  c #0B3645",
"p  c #023C4B",
"a  c #063D48",
"s  c #063E51",
"d  c #194748",
"f  c #034654",
"g  c #02455B",
"h  c #084A56",
"j  c #0B4A55",
"k  c #2B4E49",
"l  c #024D65",
"z  c #014C68",
"x  c #025265",
"c  c #02536B",
"v  c #075869",
"b  c #135667",
"n  c #015978",
"m  c #3B5C63",
"M  c #16606D",
"N  c #036276",
"B  c #02627C",
"V  c #09667A",
"C  c #1C6C7C",
"Z  c #2F6971",
"A  c #425858",
"S  c #466B5E",
"D  c #506565",
"F  c #427269",
"G  c #4C6F75",
"H  c #526C76",
"J  c #4E6A65",
"K  c #498078",
"L  c #026484",
"P  c #016A8D",
"I  c #086B82",
"U  c #03738C",
"Y  c #007184",
"T  c #006C91",
"R  c #006D9B",
"E  c #017296",
"W  c #027C95",
"Q  c #00749C",
"!  c #027A99",
"~  c #0B7A95",
"^  c #17748B",
"/  c #2B7A86",
"(  c #007BA5",
")  c #007FAE",
"_  c #557E8F",
"`  c #028499",
"'  c #138094",
"]  c #04929F",
"[  c #3E8480",
"{  c #238C9D",
"}  c #3D8797",
"|  c #0283A4",
" . c #0189A2",
".. c #0181AB",
"X. c #028AAE",
"o. c #0294A8",
"O. c #018BBA",
"+. c #078CB2",
"@. c #0295BC",
"#. c #019CB8",
"$. c #1B95B5",
"%. c #309DAC",
"&. c #3796B4",
"*. c #2484A2",
"=. c #39AAB3",
"-. c #478E92",
";. c #599D98",
":. c #6B888F",
">. c #649D8D",
",. c #71919E",
"<. c #439BB4",
"1. c #6195A1",
"2. c #53A2A2",
"3. c #4DB1AD",
"4. c #57B4B4",
"5. c #66B7B1",
"6. c #78B4BC",
"7. c #7AC4BC",
"8. c #008CC3",
"9. c #0195C3",
"0. c #039BC3",
"q. c #019ACC",
"w. c #0096C9",
"e. c #019ED5",
"r. c #02A4C3",
"t. c #1AADCF",
"y. c #01A5D7",
"u. c #01AADC",
"i. c #01A9D7",
"p. c #00B6DA",
"a. c #2BAAD7",
"s. c #02B2E3",
"d. c #00B4EE",
"f. c #01BCEC",
"g. c #00B5F2",
"h. c #01BBF4",
"j. c #00B6FC",
"k. c #00BDFE",
"l. c #0BBEFF",
"z. c #16BFFE",
"x. c #13BCF2",
"c. c #00A8E7",
"v. c #21BEF1",
"b. c #56B2C4",
"n. c #7EBEC2",
"m. c #70B5D0",
"M. c #00C5EE",
"N. c #02C8EB",
"B. c #02C3F4",
"V. c #00C2FF",
"C. c #01CBFF",
"Z. c #0ECCFF",
"A. c #15C9FA",
"S. c #01D4FF",
"D. c #01DCFF",
"F. c #08D3FF",
"G. c #19D7FF",
"H. c #3BCFEE",
"J. c #2AC6FC",
"K. c #2FCAFF",
"L. c #28DEFF",
"P. c #3DD8FF",
"I. c #3BCAFC",
"U. c #01E4FF",
"Y. c #01EBFF",
"T. c #16E0FF",
"R. c #00F2FF",
"E. c #01FEFF",
"W. c #2CE9FF",
"Q. c #32F6FF",
"!. c #5ED1CB",
"~. c #50C6D6",
"^. c #65DCDD",
"/. c #78E6DE",
"(. c #4CCEFC",
"). c #4BD0FC",
"_. c #57D6FB",
"`. c #6AD9FE",
"'. c #61CAE9",
"]. c #57E3FF",
"[. c #49FCFF",
"{. c #5AF1FF",
"}. c #61E0FF",
"|. c #69FAFF",
" X c #79F7FF",
".X c #81BDCF",
"XX c #85D9DF",
"oX c #9ADBE9",
"OX c #83DCFF",
"+X c #8DDFFE",
"@X c #86DFF0",
"#X c #91DFFF",
"$X c #A0D7EA",
"%X c #87EDFF",
"&X c #94E4FF",
"*X c #9AE3FE",
"=X c #81F1FF",
"-X c #82FDFE",
";X c #8DFFFF",
":X c #95FDFF",
">X c #9BFFFF",
",X c #90F4FF",
"<X c #8AF2E7",
"1X c #A5E2FE",
"2X c #A9E5FF",
"3X c #A0E8FF",
"4X c #B4E7FF",
"5X c #A4F5FF",
"6X c #A4FDFF",
"7X c #ACFFFF",
"8X c #ABF7FF",
"9X c #B5FFFF",
"0X c #BCFFFF",
"qX c None",
/* pixels */
"qXqXqXqXqXqXqXqXqXqXqXqXqXqXqXqXqXqXqXqXqXqXqXqXqXqXqXqXqXqXqXqXqXqXqXqXqXqXqXqXqXqXqXqXqXqXqXqXqXqX",
"qXqXqXqXqXqXqXqXqXqXqXqXqXqXqXqXqXqXqXqXqXqXqXqXqXqXqXqXqXqXqXqXqXqXqXqXqXqXqXqXqXqXqXqXqXqXqXqXqXqX",
"qXqXqXqXqXqXqXqXqXqXqXqXqXqXqXqXqXqXqXqXqXqXqXqXqXqXqXqXqXqXqXqXqXqXqXqXqXqXqXqXqXqXqXqXqXqXqXqXqXqX",
"qXqXqXqXqXqXqXqXqXqXqXqXqXqXqXqXqXqXqXqXqXqXO = . qXqXqXqXqXqXqXqXqXqXqXqXqXqXqXqXqXqXqXqXqXqXqXqXqX",
"qXqXqXqXqXqXqXqXqXqXqXqXqXqXqXqXqXqXqX. 1 N 0.h.| = qXqXqXqXqXqXqXqXqXqXqXqXqXqXqXqXqXqXqXqXqXqXqXqX",
"qXqXqXqXqXqXqXqXqXqXqXqXqXqXqXqXqXqX  B D.U.D.D.U.S.7 qXqXqXqXqXqXqXqXqXqXqXqXqXqXqXqXqXqXqXqXqXqXqX",
"qXqXqXqXqXqXqXqXqXqXqXqXqXqXqXqXqX. g E.G.z.h.s.k.F.U.1 qXqXqXqXqXqXqXqXqXqXqXqXqXqXqXqXqXqXqXqXqXqX",
"qXqXqXqXqXqXqXqXqXqXqXqXqXqXqXqXqXO A.t.oX>X/ G :XOX:Xb.qXqXqXqXqXqXqXqXqXqXqXqXqXqXqXqXqXqXqXqXqXqX",
"qXqXqXqXqXqXqXqXqXqXqXqXqXqXqXqXqXm 0X_ 6.9XZ ~.>X>X-XH.qXqXqXqXqXqXqXqXqXqXqXqXqXqXqXqXqXqXqXqXqXqX",
"qXqXqXqXqXqXqXqXqXqXqXqXqXqXqXqXqX-.8XH b W.X.i.n ^ P f : ; qXqXqXqXqXqXqXqXqXqXqXqXqXqXqXqXqXqXqXqX",
"qXqXqXqXqXqXqXqXqXqXqXqXqXqXqXqX0 ! +.I X D.V o v Q b.$X%X&X<.1 qXqXqXqXqXqXqXqXqXqXqXqXqXqXqXqXqXqX",
"qXqXqXqXqXqXqXqXqXqXqXqXqXqX  ) S.S.S.Y.@.5 s N.Y.S.P.3X*X`.U.U.c   qXqXqXqXqXqXqXqXqXqXqXqXqXqXqXqX",
"qXqXqXqXqXqXqXqXqXqXqXqXqXr @X[.V.k.k.k.R.$ 5 Y.l.j.z.#X3XI.j.C.R.L   qXqXqXqXqXqXqXqXqXqXqXqXqXqXqX",
"qXqXqXqXqXqXqXqXqXqXqXqX  ~.0X1X(.k.k.Y.W i x r.F.v._.+X*X`.k.k.V.[.D   qXqXqXqXqXqXqXqXqXqXqXqXqXqX",
"qXqXqXqXqXqXqXqXqXqXqXqXq D.`.2X1XK.Y.X.# -X~ 7 |.4X#XOX1X_.k.k.j.`.7Xe qXqXqXqXqXqXqXqXqXqXqXqXqXqX",
"qXqXqXqXqXqXqXqXqXqXqXX ] E.D.{.6X XP . n.9X].o H 7X>X1X`.k.k.k.K.#X:XXX  qXqXqXqXqXqXqXqXqXqXqXqXqX",
"qXqXqXqXqXqXqXqXqXqXqX  u @.n L $.} A oX6X&X Xp.  w '.Q.D.D.D.T.8X6X6X X` . qXqXqXqXqXqXqXqXqXqXqXqX",
"qXqXqXqXqXqXqXqXqXqXqXqXqX. f L <.oX7Xm._ .X=XD.B.7 o p Q R L d r e w b h.f qXqXqXqXqXqXqXqXqXqXqXqX",
"qXqXqXqXqXqXqXqXqXqXqXqXqX0 U.U.A. XG -.3.A ^ S.C.Y.s.T = t S O ( ) E , . 5 * qXqXqXqXqXqXqXqXqXqXqX",
"qXqXqXqXqXqXqXqXqXqXqXqXqXN Y.k.S.L S ;X;X-Xd u.V.V.S.N.=.5X:X5. .Y.E.` qXqXqXqXqXqXqXqXqXqXqXqXqXqX",
"qXqXqXqXqXqXqXqXqXqXqXqXqX! U.V.C.v <X^.4 ;X;.( S.k.D.P 7.2.4.>X-.Z.D.| . qXqXqXqXqXqXqXqXqXqXqXqXqX",
"qXqXqXqXqXqXqXqXqXqXqXqXqX| D.V.V.C <X/.5.:X7.( S.V.D.P >.F K !.J a.U.| . qXqXqXqXqXqXqXqXqXqXqXqXqX",
"qXqXqXqXqXqXqXqXqXqXqXqXqX! D.V.S.~ Z { %./ k | D.k.C.s.| w.&.,.1.x.U.! qXqXqXqXqXqXqXqXqXqXqXqXqXqX",
"qXqXqXqXqXqXqXqXqXqXqXqXqXY U.k.V.B.g.k.g.c.y.h.V.V.k.C.S.S.S.L.T.V.U.N qXqXqXqXqXqXqXqXqXqXqXqXqXqX",
"qXqXqXqXqXqXqXqXqXqXqXqXqXj U.V.V.V.V.k.V.V.C.V.k.V.k.V.V.C.k.k.k.k.U.u qXqXqXqXqXqXqXqXqXqXqXqXqXqX",
"qXqXqXqXqXqXqXqXqXqXqXqXqX% p.S.k.V.V.V.V.V.V.V.k.V.V.V.S.0.V.V.V.C.M.; qXqXqXqXqXqXqXqXqXqXqXqXqXqX",
"qXqXqXqXqXqXqXqXqXqXqXqXqXqXx Y.k.V.k.V.k.k.V.V.V.V.D.D.v U S.V.k.Y.Y # qXqXqXqXqXqXqXqXqXqXqXqXqXqX",
"qXqXqXqXqXqXqXqXqXqXqXqXqXqX. #.U.k.V.k.A.J.V.U.D.V.X.p U S.V.k.S.M.O qXqXqXqXqXqXqXqXqXqXqXqXqXqXqX",
"qXqXqXqXqXqXqXqXqXqXqXqXqXqXqX& N.D.k.k.(.,X| u N x l 9.U.k.k.C.U.u qXqXqXqXqXqXqXqXqXqXqXqXqXqXqXqX",
"qXqXqXqXqXqXqXqXqXqXqXqXqXqXqX% o N.U.k.k.Z.u.E O.v.|.].z.k.S.Y.g qXqXqXqXqXqXqXqXqXqXqXqXqXqXqXqXqX",
"qXqXqXqXqXqXqXqXqXqXqXqXqXqXqX3 f O 9.R.C.k.V.D.C.OX2X4X_.Y.B.u qXqXqXqXqXqXqXqXqXqXqXqXqXqXqXqXqXqX",
"qXqXqXqXqXqXqXqXqXqXqXqXqXqXqX: D.0.1 V B.U.U.S.S. X7X9X_.P , qXqXqXqXqXqXqXqXqXqXqXqXqXqXqXqXqXqXqX",
"qXqXqXqXqXqXqXqXqXqXqXqXqXqXqXa Y.E.o.0 6 x ~ +.O.{ :.m 6 ] V.3 qXqXqXqXqXqXqXqXqXqXqXqXqXqXqXqXqXqX",
"qXqXqXqXqXqXqXqXqXqXqXqXqXqXqXo.D.x f U.F.r.` v x N W s.V.V.D.P qXqXqXqXqXqXqXqXqXqXqXqXqXqXqXqXqXqX",
"qXqXqXqXqXqXqXqXqXqXqXqXqXqXqXf - 2 F.C.U.V.V.V.g.d.d.d.k.h.B.V.6 qXqXqXqXqXqXqXqXqXqXqXqXqXqXqXqXqX",
"qXqXqXqXqXqXqXqXqXqXqXqXqXqXqXqXqX` Y.y.L V.V.d.d.d.d.d.C.L g R.O.@ qXqXqXqXqXqXqXqXqXqXqXqXqXqXqXqX",
"qXqXqXqXqXqXqXqXqXqXqXqXqXqXqXqX* f.D.v @ V.k.d.d.d.d.d.C.E . s.Y.z qXqXqXqXqXqXqXqXqXqXqXqXqXqXqXqX",
"qXqXqXqXqXqXqXqXqXqXqXqXqXqXqXqXx U.g.> 4 C.g.d.d.d.d.d.C...qXh U.d.< qXqXqXqXqXqXqXqXqXqXqXqXqXqXqX",
"qXqXqXqXqXqXqXqXqXqXqXqXqXqXqX. @.Y.( qXqXC.g.d.d.d.g.g.C...qXqX| E. .+ qXqXqXqXqXqXqXqXqXqXqXqXqXqX",
"qXqXqXqXqXqXqXqXqXqXqXqXqXqXqX+ M.D.9 qX5 C.g.d.d.d.d.d.C.O.qXqX2 d.P qXqXqXqXqXqXqXqXqXqXqXqXqXqXqX",
"qXqXqXqXqXqXqXqXqXqXqXqXqXqXqXqXs l qXqX1 C.g.d.d.d.d.g.V.0.qXqXqX  qXqXqXqXqXqXqXqXqXqXqXqXqXqXqXqX",
"qXqXqXqXqXqXqXqXqXqXqXqXqXqXqXqXqXqXqXqX1 C.h.d.h.F.h.d.V.q.qXqXqXqXqXqXqXqXqXqXqXqXqXqXqXqXqXqXqXqX",
"qXqXqXqXqXqXqXqXqXqXqXqXqXqXqXqXqXqXqXqX1 V.h.g.d.P y.h.V.q.qXqXqXqXqXqXqXqXqXqXqXqXqXqXqXqXqXqXqXqX",
"qXqXqXqXqXqXqXqXqXqXqXqXqXqXqXqXqXqXqXqX, V.h.C.O.# ~ S.V.e.% qXqXqXqXqXqXqXqXqXqXqXqXqXqXqXqXqXqXqX",
"qXqXqXqXqXqXqXqXqXqXqXqXqXqXqXqXqXqXqXqX, V.h.C.Q qXI F.k.w.3 qXqXqXqXqXqXqXqXqXqXqXqXqXqXqXqXqXqXqX",
"qXqXqXqXqXqXqXqXqXqXqXqXqXqXqXqXqXqXqXqX= h.k.C.B qXM C.V.8.e qXqXqXqXqXqXqXqXqXqXqXqXqXqXqXqXqXqXqX",
"qXqXqXqXqXqXqXqXqXqXqXqXqXqXqXqXqXqXqXqX* d.k.V.x qXd h.V.q.: qXqXqXqXqXqXqXqXqXqXqXqXqXqXqXqXqXqXqX",
"qXqXqXqXqXqXqXqXqXqXqXqXqXqXqXqXqXqXqXqX; f.V.h.i qXqXi.C.u.X qXqXqXqXqXqXqXqXqXqXqXqXqXqXqXqXqXqXqX",
"qXqXqXqXqXqXqXqXqXqXqXqXqXqXqXqXqXqXqXqX& i.E.y.: qXqX| E.y.  qXqXqXqXqXqXqXqXqXqXqXqXqXqXqXqXqXqXqX",
"qXqXqXqXqXqXqXqXqXqXqXqXqXqXqXqXqXqXqXqXqX9 P 8 qXqXqX2 L 1 qXqXqXqXqXqXqXqXqXqXqXqXqXqXqXqXqXqXqXqX"
};
