/* XPM */
static char *_bedef88e1d84be28832f53bdb30f9c89j8LE8bK5p2aJTC6[] = {
/* columns rows colors chars-per-pixel */
"50 50 225 2 ",
"   c None",
".  c #010001",
"X  c #0C0101",
"o  c #07080A",
"O  c #150703",
"+  c #1E1405",
"@  c #030C14",
"#  c #03131C",
"$  c #09151B",
"%  c #191918",
"&  c #150F10",
"*  c #240F00",
"=  c #241301",
"-  c #2B1702",
";  c #331A03",
":  c #3B230B",
">  c #362709",
",  c #29251B",
"<  c #32291A",
"1  c #33301E",
"2  c #031622",
"3  c #051928",
"4  c #001C34",
"5  c #09222D",
"6  c #172428",
"7  c #022233",
"8  c #0A2735",
"9  c #072B3E",
"0  c #182B38",
"q  c #272E2D",
"w  c #2C342A",
"e  c #2B3937",
"r  c #353D3F",
"t  c #342F22",
"y  c #481800",
"u  c #482806",
"i  c #5C2B02",
"p  c #49330C",
"a  c #55340C",
"s  c #563906",
"d  c #462B15",
"f  c #493816",
"g  c #59361B",
"h  c #623415",
"j  c #423927",
"k  c #503A25",
"l  c #3D4534",
"z  c #5E4211",
"x  c #5E4004",
"c  c #7B530D",
"v  c #6B4E10",
"b  c #474234",
"n  c #674525",
"m  c #042C42",
"M  c #03354D",
"N  c #0A354B",
"B  c #09374A",
"V  c #013554",
"C  c #023C55",
"Z  c #183F52",
"A  c #0D304A",
"S  c #06415B",
"D  c #184659",
"F  c #1F474F",
"G  c #2C454D",
"H  c #26454B",
"J  c #284757",
"K  c #38575A",
"L  c #2E5253",
"P  c #024565",
"I  c #084967",
"U  c #134C67",
"Y  c #195368",
"T  c #034E73",
"R  c #004B7B",
"E  c #03557B",
"W  c #035A7E",
"Q  c #095B7B",
"!  c #065374",
"~  c #115D7A",
"^  c #165A74",
"/  c #27576A",
"(  c #315162",
")  c #276578",
"_  c #36707C",
"`  c #434B46",
"'  c #465A4D",
"]  c #446A70",
"[  c #8D3A00",
"{  c #67977A",
"}  c #075E82",
"|  c #04648C",
" . c #0A658A",
".. c #166786",
"X. c #036593",
"o. c #036A94",
"O. c #0B6C94",
"+. c #026A9B",
"@. c #00659B",
"#. c #0B729C",
"$. c #14719C",
"%. c #2C6C84",
"&. c #336C80",
"*. c #0373A3",
"=. c #0275AA",
"-. c #047DAC",
";. c #0A7CA5",
":. c #027BB4",
">. c #006FB5",
",. c #457586",
"<. c #3C888B",
"1. c #34839A",
"2. c #38909E",
"3. c #1A81AC",
"4. c #0084BB",
"5. c #0786B8",
"6. c #1A8AB6",
"7. c #1D95BC",
"8. c #2E8DAA",
"9. c #358FB6",
"0. c #2296B9",
"q. c #399BBA",
"w. c #228FBF",
"e. c #4E9B92",
"r. c #659099",
"t. c #52A19A",
"y. c #5594AA",
"u. c #449BAE",
"i. c #6B98A0",
"p. c #46A2A5",
"a. c #58B2AA",
"s. c #4AA3BD",
"d. c #028CC3",
"f. c #008AC9",
"g. c #0493CA",
"h. c #0792C6",
"j. c #1996C5",
"k. c #0195D3",
"l. c #019CDA",
"z. c #0399D4",
"x. c #2797C4",
"c. c #07A9DC",
"v. c #16A6D8",
"b. c #21A3D6",
"n. c #35A5CF",
"m. c #0098E4",
"M. c #03A6E4",
"N. c #0AA5E4",
"B. c #02AAE4",
"V. c #04ABEB",
"C. c #04A8E8",
"Z. c #01ACF3",
"A. c #00AEFB",
"S. c #02B3F4",
"D. c #03BBF4",
"F. c #00B3FE",
"G. c #0AB3FB",
"H. c #01BBFF",
"J. c #0CBBFD",
"K. c #14B6FB",
"L. c #1BBBFC",
"P. c #18B7F9",
"I. c #05B4EA",
"U. c #25BDEC",
"Y. c #38B7E9",
"T. c #23BBFC",
"R. c #2ABCF5",
"E. c #4AB8D1",
"W. c #6DB8D3",
"Q. c #02C3FF",
"!. c #02CBFF",
"~. c #0FC7FF",
"^. c #13C4FD",
"/. c #17C7FF",
"(. c #01D4FF",
"). c #05D9FF",
"_. c #26CFFF",
"`. c #34C1FA",
"'. c #32CDFF",
"]. c #39C4FA",
"[. c #3BD1FF",
"{. c #2CD1FF",
"}. c #5DCAC6",
"|. c #7BC6DB",
" X c #66D3CE",
".X c #43C6FB",
"XX c #4CCBFC",
"oX c #53CBFB",
"OX c #5ACDFA",
"+X c #43D6FF",
"@X c #59D7FF",
"#X c #61CFFA",
"$X c #66D1FC",
"%X c #6BD2FB",
"&X c #67DCFF",
"*X c #73D4FB",
"=X c #7BD7FA",
"-X c #7ADCFE",
";X c #7ED5EF",
":X c #5BE2FF",
">X c #5FE3E3",
",X c #63E4FF",
"<X c #6CE1FF",
"1X c #69FAF9",
"2X c #77FFFC",
"3X c #78E5FF",
"4X c #86CEE3",
"5X c #84D3EA",
"6X c #92D9E9",
"7X c #82D9FD",
"8X c #8CDCFD",
"9X c #80D7FE",
"0X c #92DEFE",
"qX c #82E3FF",
"wX c #8CE3FE",
"eX c #8DEBFC",
"rX c #94E2FE",
"tX c #9BE2FD",
"yX c #96EBFF",
"uX c #98EBFC",
"iX c #9CF2FF",
"pX c #98F7FF",
"aX c #80FFFF",
"sX c #A2F6FF",
"dX c #A0EFFF",
/* pixels */
"                                                                                                    ",
"                                                                                                    ",
"                                                                                                    ",
"                                                                                                    ",
"                                              = @ 8 S E %.,.] J 7 # p                               ",
"                                          > 2 E h.S.H.H.+XyXyXqXY.k.#.F a                           ",
"                      s * 2 V R ..) ( e O . o.).).Q.F.F.K.*X0XrXwX'.!.D.@.1                         ",
"            -       u 3 @.M.Q.~.,XsXiX5Xq.T B  .d.N.Q.Q.F.#X0X8X0X].A.H.!.>.5                       ",
"          % R P < = P M.!.Q.H.G.oXrXrXyX,XH.g.) 1 $ P -.R.qXwX8X8X].F.F.F.!.5.3                     ",
"        - S D.D.P @ 4.!.F.F.F.P.%X8X8X0X=X^.H.^.p.f O O J |.iXtX*XL.F.F.F.J.,X,.=                   ",
"      p . y.].Q.;.7 -.Q.F.F.A..XrX8X8X0X%XK.F.F.~.a.z     0 |.3XT.F.F.F.F.G.&X6XJ -                 ",
"      X L 6X-X/.W @ =.Q.F.F.A.].8X8X8XrX*XK.A.F.F.J.{ s   = 9 N.H.F.F.F.F.A.G.&X4XG ;               ",
"    O 2 W.eX0X.XC . *.Q.F.F.A.R.7X8X8X8X8X#XP.F.F.F.U.'     + R S.H.F.F.F.Z.G.oXiX;XG ;             ",
"  + 4 d.[.wXdXE.$ . W S.F.G.XX8X8X8X8X8XtX0X`.F.F.S.@X4Xq     6 f.Q.F.F.T.OX=X8X8XiX;X/ & z         ",
"+ . *.(.!.@X5Xl # @ 9 c.~.OX0X0X7X8XwXrX=XR.G.F.F.K.-XyX,.p   c T Z.H.K.%XtX0X8X8XtX<XL.=.B w       ",
"z o 7  .-.O.6 2 5.d.2 ^ ,XuX0X0XtX8XOX.XL.A.F.F.F.F.$XrXW.6     t f.Q.K.*X0X8X8X0X$XL.F.!.Q.>.4 O > ",
"    = o 2 3 T I.(.(.E & i.pXwX*X*XOXG.A.F.F.F.A.A.K.*XrX8XH c   c I Z.H..X8X0X8XoXG.F.Q.Z.=.H f     ",
"    l d.c.D.V.4.5.S.Q.C O r.pX[.F.S.A.F.F.F.F.G.].=X8X8XwX,.:     ; *.H.oX8XrX7XT.F.Q.g.Y p         ",
"    Y H.(.5.^ p.e.I z.Q.P X G 7.F.Q.H.H.F.F.K.$X0XtX8X0XyXy.%       6 9.eXrXtX&X/.M.} 1             ",
"    ..S.H.! a.2X2Xe.Q B.!.X.# o 8 Q 5.V.H.D.+XdXtXwX8X8X3Xx.3         % y.eXwXE.o.0 u               ",
"    O.H.J.1.}.1X1X2X<.*.H.Q.M. .8 o . @ C  .s.4XrX<X{.{./.c.3           , G H 6 ;                   ",
"    +.H.Q.s.L L >X2Xt.O.A.H.H.Q.H.h. .B 2 . X % r / o.g.H.C.5 u             *                       ",
"    O.H.H.j._ t. XE.7.C.F.G.F.F.H.Q.!.H.I.h.-.| T M 3 2 m M o u                                     ",
"    ~ S.H.c.2.p.8.g.A.H.F.F.F.F.F.A.F.H.Q.Q.!.!.!.Q.I.W X O . p                                     ",
"    D Z.H.F.g.k.Z.H.F.F.F.G.F.F.F.F.F.F.F.F.F.F.F.Q.!.X.:   p f                                     ",
"    q l.H.H.H.F.F.F.F.F.H.F.F.F.F.F.F.F.F.F.F.F.F.H.Z.m                                             ",
"    a *.F.H.F.F.F.F.F.G.F.G.F.F.F.F.F.F.F.F.F.F.F.H.4.&                                             ",
"      Z V.H.F.F.F.F.H.S.5.d.H.F.F.F.G.K.F.F.F.F.H.S.M                                               ",
"      ; =.H.H.F.F.H.!.-.E l.H.F.F.F.].$XP.F.F.F.Q.+.:                                               ",
"        8 z.Q.H.H.I.o.I j.~.F.F.F.F.L.R.J.F.H.Q.4.%                                                 ",
"        i V M.c.Q 9 C n.&X%X].F.F.G.F.F.F.H.Q.f.6                                                   ",
"          - V +. .-.P.@X7X9X$XL.F.F.H.Q.!.H.=.q                                                     ",
"            ; V B.).^.OX7X8X%XP.F.Q.h.O.-.~ d                                                       ",
"              y % Q v.'.,X<X'.Q.F.O.U O.N y                                                         ",
"                  y 1 K ] 8.6.;.! D U *.;.                                                          ",
"                      a & i     j j.6.} ;.q                                                         ",
"                      ' >.]     G $.6.:.O.) K h                                                     ",
"                      n o.m.0.q.b.U A %...L.[.;.b                                                   ",
"                          0 5.N.&.u t x.+X_./.J.J q =.`                                             ",
"                              g       j &.u.T.z.g k C.Z./                                           ",
"                                        [ ( `.-.Z D b.8.U d                                         ",
"                                          %.Y.R 6.^.j.n                                             ",
"                                  k 0     n.v.t k K `                                               ",
"                                    J o.2.Y.%.                                                      ",
"                                      Y A.x.h                                                       ",
"                                          D                                                         ",
"                                                                                                    ",
"                                                                                                    ",
"                                                                                                    ",
"                                                                                                    "
};
