/* XPM */
static char *_607914277490[] = {
/* columns rows colors chars-per-pixel */
"50 50 222 2 ",
"   c #020001",
".  c #0A0000",
"X  c #02020C",
"o  c #0B0809",
"O  c #120100",
"+  c #1B0100",
"@  c #150B01",
"#  c #17100E",
"$  c #000B1C",
"%  c #070915",
"&  c #0B1318",
"*  c #151215",
"=  c #240300",
"-  c #290000",
";  c #280E00",
":  c #390B00",
">  c #340500",
",  c #2B1A06",
"<  c #381703",
"1  c #231E10",
"2  c #2C200E",
"3  c #3B2000",
"4  c #292418",
"5  c #362617",
"6  c #031021",
"7  c #041826",
"8  c #181C29",
"9  c #011C31",
"0  c #091F36",
"q  c #000C29",
"w  c #0D2428",
"e  c #07202B",
"r  c #1D2929",
"t  c #022234",
"y  c #00243A",
"u  c #0B2738",
"i  c #1B2B3A",
"p  c #122833",
"a  c #13323D",
"s  c #282726",
"d  c #323331",
"f  c #440C00",
"g  c #481100",
"h  c #4B1F14",
"j  c #4E2100",
"k  c #5E3B00",
"l  c #473200",
"z  c #6A2600",
"x  c #413933",
"c  c #31423C",
"v  c #554A28",
"b  c #032A46",
"n  c #02334A",
"m  c #0A3349",
"M  c #193A4A",
"N  c #012E53",
"B  c #013451",
"V  c #073B59",
"C  c #133950",
"Z  c #243A46",
"A  c #003B6E",
"S  c #1B485A",
"D  c #2D514F",
"F  c #254D5B",
"G  c #32534C",
"H  c #024366",
"J  c #00476E",
"K  c #034A6C",
"L  c #044865",
"P  c #00526F",
"I  c #014974",
"U  c #085579",
"Y  c #06587C",
"T  c #175273",
"R  c #38596B",
"E  c #235D79",
"W  c #0D647D",
"Q  c #3A7472",
"!  c #415C53",
"~  c #436653",
"^  c #485560",
"/  c #527073",
"(  c #456E7A",
")  c #728758",
"_  c #518277",
"`  c #618471",
"'  c #045B86",
"]  c #005B8D",
"[  c #015783",
"{  c #005C92",
"}  c #0A608A",
"|  c #02688D",
" . c #00659B",
".. c #056997",
"X. c #156C9A",
"o. c #057498",
"O. c #177296",
"+. c #177187",
"@. c #266886",
"#. c #2D798E",
"$. c #0574A7",
"%. c #047CB7",
"&. c #0068BA",
"*. c #47798A",
"=. c #007DC2",
"-. c #2E919F",
";. c #268196",
":. c #0487BE",
">. c #0683B6",
",. c #1482B4",
"<. c #0791B3",
"1. c #258FAC",
"2. c #58A091",
"3. c #518FAC",
"4. c #469EB8",
"5. c #4AADB3",
"6. c #62AAAC",
"7. c #038CC3",
"8. c #0081C0",
"9. c #0193CC",
"0. c #0494C7",
"q. c #008EDD",
"w. c #0193D2",
"e. c #049AD8",
"r. c #119CD1",
"t. c #1593C6",
"y. c #2293C6",
"u. c #03A7D8",
"i. c #11A7DF",
"p. c #04A4CE",
"a. c #3EAAD6",
"s. c #2FA9CE",
"d. c #0093E1",
"f. c #039FE3",
"g. c #03A3E2",
"h. c #02AAE3",
"j. c #03A7EF",
"k. c #07A9EE",
"l. c #00B1E6",
"z. c #00A6FB",
"x. c #00ADFD",
"c. c #01A9F4",
"v. c #03B2F2",
"b. c #01B3FE",
"n. c #0BB4FA",
"m. c #01BCFF",
"M. c #08B7F3",
"N. c #19B7FB",
"B. c #18AAE2",
"V. c #21BCFA",
"C. c #2ABEFA",
"Z. c #34B6ED",
"A. c #4AB1D4",
"S. c #74BBD6",
"D. c #6AB3CB",
"F. c #46B4E1",
"G. c #01C2FF",
"H. c #01CCFF",
"J. c #0ACBFF",
"K. c #14C7FD",
"L. c #1CC3FF",
"P. c #02D3FF",
"I. c #02DBFF",
"U. c #0AD3FF",
"Y. c #12DAFF",
"T. c #16D5FF",
"R. c #26C7FF",
"E. c #3EC5F9",
"W. c #28D7FF",
"Q. c #34D3FE",
"!. c #01E4FF",
"~. c #00E8FF",
"^. c #01F5FF",
"/. c #2EE4FF",
"(. c #34F1FF",
"). c #6EE2D6",
"_. c #49C8FA",
"`. c #57CBFB",
"'. c #48D4FF",
"]. c #52DEF6",
"[. c #6BD2FB",
"{. c #62D0FA",
"}. c #7DD8FA",
"|. c #78D7FC",
" X c #60CBFA",
".X c #5EEDFF",
"XX c #5DE2FF",
"oX c #5CF1FF",
"OX c #46E4FF",
"+X c #6DEEFF",
"@X c #7EE6FF",
"#X c #6AF8FF",
"$X c #7DF1FF",
"%X c #74FDFF",
"&X c #7DFFFF",
"*X c #8DC08D",
"=X c #87BDD3",
"-X c #86D0DD",
";X c #86DAFD",
":X c #8BDCFD",
">X c #85D5FC",
",X c #92DEFD",
"<X c #9DDFF9",
"1X c #89E0EF",
"2X c #8CE4FF",
"3X c #96E2FE",
"4X c #9BE1FE",
"5X c #94ECFF",
"6X c #9FECFF",
"7X c #9CE6F4",
"8X c #8BFFFF",
"9X c #87F6FF",
"0X c #94FDFF",
"qX c #A2E3FC",
"wX c #A9E4FC",
"eX c #AAE9FD",
"rX c #A7FFFF",
"tX c #ADFFFF",
"yX c #B4F4FF",
"uX c #B2FFFF",
"iX c #C7FFFF",
"pX c None",
/* pixels */
"pXpXpXpXpXpXpXpXpXpXpXpXpXpXpXpXpXpXpXpXpXpXpXpXpXpXpXpXpXpXpXpXpXpXpXpXpXpXpXpXpXpXpXpXpXpXpXpXpXpX",
"pXpXpXpXpXpXpXpXpXpXpXpXpXpXpXpXpXpXpXpXpXpXpXpXpXpXpXpXpXpXpXpXpXpXpXpXpXpXpXpXpXpXpXpXpXpXpXpXpXpX",
"pXpXpXpXpXpXpXpXpXpXpXpXpXpXpXpXpXpXpXpXpXpXpXpXpXpXpXpXpXpXpXpXpXpXpXpXpXpXpXpXpXpXpXpXpXpXpXpXpXpX",
"pXpXpXpXpXpXpXpXpXpXpXpXpXpXpXpXpXpXpXpXpXpXpXpXpXpXpXpXpXpXpXpXpXpXpXpXpXpXpXpXpXpXpXpXpXpXpXpXpXpX",
"pXpXpXpXpXpXpXpXpXpXpXpXpXpXpXpXpXpXpXpXpXpXpXpXpXpXpXpXpXpXpXpXpXpXpXpXpXpXpXpXpXpXpXpXpXpXpXpXpXpX",
"pXpXpXpXpXpXpXpXpXpXpXpXpXpXpXpXpXpXpXpXpXpXpXpXpXpXpXpXpXpXpXpXpXpXpXpXpXpXpXpXpXpXpXpXpXpXpXpXpXpX",
"pXpXpXpXpXpXpXpXpXpXpXpXpXpXpXpXpXpXpXpXpXpXpXpXpXpXpXpXpXpXpXpXpXpXpXpXpXpXpXpXpXpXpXpXpXpXpXpXpXpX",
"pXpXpXpXpXpXpXpXpXpXpXpXpXpXpXpXpXpXpXpXpXpXpXpXpXpXpXpXpXpXpXpXpXpXpXpXpXpXpXpXpXpXpXpXpXpXpXpXpXpX",
"pXpXpXpXpXpXpXpXpXpXpXpXpXpXpXpXpXpXpXpXpXpXpXpXpXpXpXpXpXpXpXpXpXpXpXpXpXpXpXpXpXpXpXpXpXpXpXpXpXpX",
"pXpXpXpXpXpXpXpXpXpXpXpXpXpXpXpXpXpXpXpXpXpXpXpXpXpXpXpXpXpXpXpXpXpXpXpXpXpXpXpXpXpXpXpXpXpXpXpXpXpX",
"pXpXpXpXpXpXpXpXpXpXpXpXpXpXpXpXpXpXpXpXpXpXpXpXpXpXpXpXpXpXpXpXpXpXpXpXpXpXpXpXpXpXpXpXpXpXpXpXpXpX",
"pXpXpXpXpXpXpXpXpXpXpXpXpXpXpXpXpXpX: O         . . O pXpXpXpXpXpXpXpXpXpXpXpXpXpXpXpXpXpXpXpXpXpXpX",
"pXpXpXpXpXpXpXpXpXpXpXpXpXpXpXpX< a A X.6.=XS.w.:...V X O pXpXpXpXpXpXpXpXpXpXpXpXpXpXpXpXpXpXpXpXpX",
"pXpXpXpXpXpXpXpXpXpXpXpXpXpX+ m i.H.W.0XrXtXXXG.H.I.I.G.J . . @ 4 7 7 # = O pXpXpXpXpXpXpXpXpXpXpXpX",
"pXpXpXpXpXpXpXpXpXpXpXpXpX. [ I.H.x.[.eX:X,XN.m.P.H.m.e.M $ @.D.>X2XN.j.%.H X O pXpXpXO pXpXpXpXpXpX",
"pXpXpXpXpXpXpXpXpXpXpXpX  $.I.m.b.x.[.wX>X4XOXc.%.b , D  .m.$XuX5X6XR.m.P.I.k.b + > m N . pXpXpXpXpX",
"pXpXpXpXpXpXpXpXpXpXpX  R %Xb.b.b.x.E.wX3XtX3.    : ` T.P.L.,X:X:X3XC.x.b.b.I.u.  B P.J.X , pXpXpXpX",
"pXpXpXpXpXpXpXpXpXpXk 6 yX@Xx.b.b.b.x._.rX*.  pXz *XP.b.x.N.,X:X:X4X>Xb.b.b.m.g.. <.P..X/   pXpXpXpX",
"pXpXpXpXpXpXpXpXpXpX6 qX$Xc.x.b.b.b.x.H.O.  pXpX) T.b.n.c.N.3X:X:X,X[.x.b.b.G.u.  | Y.6X7X*   pXpXpX",
"pXpXpXpXpXpXpXpX  8 1XuX Xn.b.x.b.b.H.h.X pXpXv ].b.b.x.V.:X:X:X:X<X[.M.x.b.H.7.  n oXqXrX4.  ; pXpX",
"pXpXpXpXpXpXpX  L 5XrX}.,X4X}.C.b.b.I.L pXpX. -X9Xn.x.x.R.wXqX,X:X;X4X3XC.z.I.W     D.iX|.P.9.X o pX",
"pX, , l < M ' w.P.R.<XqX:X:XeX>Xx.H.9.. pXpXF rX,XN.x.b.c.n.[.,X:X,X:X3XqXQ.m.o L n = S.T.P.J.t   @ ",
"pXpXpX@ . N v.~.G.z.V.|.,X:XqX_.x.P.B pXpX. 6.rX}.x.x.b.b.x.n.x.E.eX<X>X5XuXM X I.I.b X t p o . pXpX",
"pXpXpXpXpXpXO H v.I.x.N.,X:XqXZ.P.o.. pXpX& 3X2X<X`.n.x.b.b.b.x.n.C.V.0XtX^   p.!.x.x.g.Y U b pXpXpX",
"pXpXpXpXpXpXpXpX*  .H.P.2X,X,X8XB.X pXpX+ Z rX:X:XqX<X_.x.x.b.m.G.U.H.A.5 . 0.!.J #.-.+.H.^.9.< pXpX",
"pXpXpXpXpXpXpXpXpX= 0 &.'.uXtXS.X pXpXpXO J 9XeXqX,X,XyXQ.H.I.m.e.} &   6 g.^.I ~ &X8XG { I.k.4 pXpX",
"pXpXpXpXpXpXpXpXpXpXpXj $ S R % pXpXpXpXO | Y.Q.W.+XuXqXa. .m . . . 7 %.I.P.=.D &X#X%X6.O.H.m.p pXpX",
"pXpXpXpXpXpXpXpXpXpXpXpXpX= . pXpXpXpXpX. o.~.d.{ S d 1 . . . b ..k.I.P.b.H.] _ 8X%Xw ! F.G.G.t pXpX",
"pXpXpXpXpXpXpXpXpXpXpXpXpXpXpXpXpXpXpXpX  9 n o 8 B I  .:.j.m.U.I.m.b.b.b.b.b.t.5.).2.Q f.G.m.e pXpX",
"pXpXpXpXpXpXpXpXpXpXpXpXpXpXpXpXpXpXpXpX  .   P !.P.P.H.H.G.m.b.b.b.b.b.b.b.m.m.q.,.5.;.x.m.j.1 pXpX",
"pXpXpXpXpXpXpXpXpXpXpXpXpXpXpXpXpXpXpXpXo pXpXy H.m.b.b.b.b.b.b.b.b.b.b.b.b.b.b.m.m.q.g.m.H.7.: pXpX",
"pXpXpXpXpXpXpXpXpXpXpXpXpXpXpXpXpXpXpXpXpXpXpX  :.H.b.b.b.b.b.b.b.b.b.b.m.G.b.b.b.b.m.m.b.I.P pXpXpX",
"pXpXpXpXpXpXpXpXpXpXpXpXpXpXpXpXpXpXpXpXpXpXpXg B P.b.b.b.b.b.x.b.b.b.b.k.0.G.x.b.b.b.b.m.m.* pXpXpX",
"pXpXpXpXpXpXpXpXpXpXpXpXpXpXpXpXpXpXpXpXpXpXpXpX+ >.I.b.b.x.V.[.n.b.b.b.G.V <.I.b.b.b.x.I.' f pXpXpX",
"pXpXpXpXpXpXpXpXpXpXpXpXpXpXpXpXpXpXpXpXpXpXpXpXpXX l.P.x.x.V.{.n.b.m.b.m.e.t %.U.P.m.H.h.o pXpXpXpX",
"pXpXpXpXpXpXpXpXpXpXpXpXpXpXpXpXpXpXpXpXpXpXpXpXpXpX$ v.I.b.b.x.b.b.x.n.`.+Xs.y u ' M.H.q pXpXpXpXpX",
"pXpXpXpXpXpXpXpXpXpXpXpXpXpXpXpXpXpXpXpXpXpXpXpXpXpXpX& 9.I.H.H.m.b.x._.4X:X$XK.' U :.y - pXpXpXpXpX",
"pXpXpXpXpXpXpXpXpXpXpXpXpXpXpXpXpXpXpXpXpXpXpXpXpXpXpXpX= [ $.U u.P.c._.,X>X|.H.^.M.9 O pXpXpXpXpXpX",
"pXpXpXpXpXpXpXpXpXpXpXpXpXpXpXpXpXpXpXpXpXpXpXpXpXpXpXpXpX- ' X.p $.P.P.+X$X'.r.S . pXpXpXpXpXpXpXpX",
"pXpXpXpXpXpXpXpXpXpXpXpXpXpXpXpXpXpXpXpXpXpXpXpXpXpXpXpXpXr p.T X.S S | W c 5 < pXpXpXpXpXpXpXpXpXpX",
"pXpXpXpXpXpXpXpXpXpXpXpXpXpXpXpXpXpXpXpXpXpXpXpXpXpXpXpXpXs 7.' Q.+.pXpXpXt 8 pXpXpXpXpXpXpXpXpXpXpX",
"pXpXpXpXpXpXpXpXpXpXpXpXpXpXpXpXpXpXpXpXpXpXpXpXpXpXpXi F.y.I =.C ,.( pXX.P.C pXpXpXpXpXpXpXpXpXpXpX",
"pXpXpXpXpXpXpXpXpXpXpXpXpXpXpXpXpXpXpXpXpXpXpXpXK d 8 T./.T.Z.#.  E Q.K.8.u pXpXpXpXpXpXpXpXpXpXpXpX",
"pXpXpXpXpXpXpXpXpXpXpXpXpXpXpXpXpXpXpXpXpXpXpXt.I.r > x.N.F.A.G pXpXi F pXpXpXpXpXpXpXpXpXpXpXpXpXpX",
"pXpXpXpXpXpXpXpXpXpXpXpXpXpXpXpXpXpXpXpXpXpXb Z.R.t @ 7./.d pXpXpXpXpXpXpXpXpXpXpXpXpXpXpXpXpXpXpXpX",
"pXpXpXpXpXpXpXpXpXpXpXpXpXpXpXpXpXpXpXpXpXpXpXpX1.(.y.L (.( pXpXpXpXpXpXpXpXpXpXpXpXpXpXpXpXpXpXpXpX",
"pXpXpXpXpXpXpXpXpXpXpXpXpXpXpXpXpXpXpXpXpXpXpXpXs @.d + K.A.pXi i pXpXpXpXpXpXpXpXpXpXpXpXpXpXpXpXpX",
"pXpXpXpXpXpXpXpXpXpXpXpXpXpXpXpXpXpXpXpXpXpXpXpXpXpXpXpXE '.,.$.r pXpXpXpXpXpXpXpXpXpXpXpXpXpXpXpXpX",
"pXpXpXpXpXpXpXpXpXpXpXpXpXpXpXpXpXpXpXpXpXpXpXpXpXpXpXpXz w.n.* pXpXpXpXpXpXpXpXpXpXpXpXpXpXpXpXpXpX",
"pXpXpXpXpXpXpXpXpXpXpXpXpXpXpXpXpXpXpXpXpXpXpXpXpXpXpXpXpX7 h pXpXpXpXpXpXpXpXpXpXpXpXpXpXpXpXpXpXpX"
};
