/* XPM */
static char *c798f7ec547a40c1deb98cf6729f04dcfX4PErhyNIG6brZd[] = {
/* columns rows colors chars-per-pixel */
"50 50 235 2 ",
"   c None",
".  c #020001",
"X  c #03050A",
"o  c #050A0E",
"O  c #160C02",
"+  c #1B0E01",
"@  c #110603",
"#  c #1B170D",
"$  c #040D12",
"%  c #080E18",
"&  c #09131A",
"*  c #1C1815",
"=  c #240901",
"-  c #271806",
";  c #371905",
":  c #251C15",
">  c #391B14",
",  c #372309",
"<  c #292619",
"1  c #3C2618",
"2  c #021D2D",
"3  c #071A27",
"4  c #011C33",
"5  c #1B1C21",
"6  c #0F222A",
"7  c #1A282B",
"8  c #052536",
"9  c #042A3C",
"0  c #05273A",
"q  c #152933",
"w  c #19313D",
"e  c #242B25",
"r  c #3D3C28",
"t  c #253639",
"y  c #363A37",
"u  c #27302D",
"i  c #451B00",
"p  c #482603",
"a  c #4D3408",
"s  c #573404",
"d  c #483417",
"f  c #533717",
"g  c #4A2B10",
"h  c #683304",
"j  c #4D3925",
"k  c #513F2C",
"l  c #3C403B",
"z  c #5B4414",
"x  c #554217",
"c  c #664208",
"v  c #6B521D",
"b  c #484527",
"n  c #4C4A35",
"m  c #032D41",
"M  c #002746",
"N  c #023349",
"B  c #0A3346",
"V  c #193746",
"C  c #0A3D55",
"Z  c #023A55",
"A  c #143F59",
"S  c #233A44",
"D  c #323F43",
"F  c #003E62",
"G  c #07425C",
"H  c #12425C",
"J  c #22424C",
"K  c #214244",
"L  c #3A4646",
"P  c #254958",
"I  c #2D535A",
"U  c #354F57",
"Y  c #034C6C",
"T  c #074867",
"R  c #0C516D",
"E  c #165369",
"W  c #014E72",
"Q  c #054F75",
"!  c #04597D",
"~  c #065376",
"^  c #125876",
"/  c #174C60",
"(  c #27576A",
")  c #335964",
"_  c #1C627C",
"`  c #3B6373",
"'  c #3B6C7D",
"]  c #2F6A6D",
"[  c #48574A",
"{  c #615542",
"}  c #6D6F4C",
"|  c #415D66",
" . c #4F7076",
".. c #63726C",
"X. c #964C04",
"o. c #916914",
"O. c #6F8963",
"+. c #035D83",
"@. c #005E8C",
"#. c #0A5B80",
"$. c #03648D",
"%. c #086588",
"&. c #036B94",
"*. c #016B9A",
"=. c #076996",
"-. c #09739A",
";. c #146E91",
":. c #286F8B",
">. c #0374A2",
",. c #067AAA",
"<. c #197CA6",
"1. c #006AA0",
"2. c #247FA2",
"3. c #467586",
"4. c #457E9B",
"5. c #3B888B",
"6. c #2D869F",
"7. c #1483AB",
"8. c #0084BB",
"9. c #0786B6",
"0. c #168AB7",
"q. c #0E89B5",
"w. c #3688A8",
"e. c #288CB5",
"r. c #2494BB",
"t. c #2F8FB6",
"y. c #3FA7B3",
"u. c #448D9A",
"i. c #4D8F8E",
"p. c #578CA1",
"a. c #659AA9",
"s. c #5CBCB7",
"d. c #49A7AD",
"f. c #5CC4BB",
"g. c #018CC3",
"h. c #008DCB",
"j. c #0A8FC3",
"k. c #0293CC",
"l. c #0795C8",
"z. c #1795C5",
"x. c #039CD6",
"c. c #039BDA",
"v. c #0094D2",
"b. c #0A95D3",
"n. c #2D9EC8",
"m. c #03A2DC",
"M. c #0FAADB",
"N. c #19A6D9",
"B. c #31A6C8",
"V. c #24ABDD",
"C. c #37ACD8",
"Z. c #009EE0",
"A. c #00A4E5",
"S. c #01A4E9",
"D. c #01ABEC",
"F. c #07AAE5",
"G. c #04B1EB",
"H. c #00AEFD",
"J. c #00ACF2",
"K. c #04B4F5",
"L. c #01B3FE",
"P. c #0CB4FC",
"I. c #01BCFF",
"U. c #07B9F7",
"Y. c #13B6FB",
"T. c #13BBFE",
"R. c #1CBBFC",
"E. c #15B6F3",
"W. c #11ADF0",
"Q. c #23B2E5",
"!. c #22BDFC",
"~. c #2CBEFA",
"^. c #2BBEF0",
"/. c #34BDF0",
"(. c #4AA9C6",
"). c #50BADE",
"_. c #66AAC0",
"`. c #74BDD2",
"'. c #40B6E2",
"]. c #39C1DC",
"[. c #01C3FF",
"{. c #0DC4FF",
"}. c #03CBFF",
"|. c #08C8FF",
" X c #1AC3FB",
".X c #15C8FF",
"XX c #01D2FF",
"oX c #03DCFF",
"OX c #1BD0FF",
"+X c #2ACCFF",
"@X c #22C8FF",
"#X c #35C2FB",
"$X c #38C9FE",
"%X c #2CCEF6",
"&X c #7BC4D7",
"*X c #67DCD8",
"=X c #42C5FA",
"-X c #43CCFF",
";X c #4ECCFC",
":X c #4DC8F9",
">X c #53CBFA",
",X c #5CCEFB",
"<X c #56D8FF",
"1X c #4AC9F1",
"2X c #65CEFA",
"3X c #63D4FF",
"4X c #69D3FB",
"5X c #69DAFC",
"6X c #7CD6FD",
"7X c #7CD9FC",
"8X c #74D8FD",
"9X c #70CBE7",
"0X c #5FE8E7",
"qX c #63E3FF",
"wX c #79E6FF",
"eX c #6CFDFC",
"rX c #76FCF9",
"tX c #68E8E5",
"yX c #84C5D1",
"uX c #84DBFC",
"iX c #8CDDFD",
"pX c #8BDBF3",
"aX c #92DEFD",
"sX c #90DBF1",
"dX c #8FDAE9",
"fX c #8AE4FD",
"gX c #93E2FD",
"hX c #9AE4FD",
"jX c #95EBFF",
"kX c #99EDFF",
"lX c #9BF3FF",
"zX c #9BF8FF",
"xX c #83F1FF",
"cX c #A2E9FE",
"vX c #A1F1FF",
/* pixels */
"                                                                                                    ",
"                                                                                                    ",
"                                                                                                    ",
"                      a & 3 B )  .' _ W C 8 $ O s                                                   ",
"                  f K %.8.N.2XfXkXfX$XI.L.F.j.+.8 # z                                               ",
"                7 =.G.|.@X8XhXaXiX>XP.L.I.[.XXoXl.2 . , u S P / Z M & + p                           ",
"            a 2 ,.}.I.H.#XuXiXaXuX/.L.[.}.I.D.8.T 0 G w.&XjXlXqX.XL.x.*.M @         a               ",
"          , 0 v.}.I.H.L.@XuXaXiXiX<X.XA.>.Z 7 t ^ g..XwXlXjXhX,XY.I.[.|.U.$.3 a z e M %             ",
"        c & (.OXI.H.L.L.!.6XaXiXvX9X_ 2 . = [ B.|.}.$XuXaXiXaX,XY.H.L.L.[.|.+.. 4 g.I.W #           ",
"        # 3.jX-XH.L.L.H.L.#XuXvXyXJ @   p O.].|.L.L.$XiXiXiXaXuX=XL.L.L.L.[.$.2 *.}.{.y.3 -         ",
"      : ` gX5XR.L.L.L.L.L.L.+X(.S +     } ].I.H.L.H.#XiXiXiXiXaX,XP.H.L.L.I.%.2 &.[.-XfX| . z       ",
"    : ) sX7XR.H.H.L.L.L.L.I.S.M =     n d.[.L.L.L.E.>XiXiXiXaXuX=XH.L.L.I.I.+.X T !.7XhX`.t @       ",
"x < 3.pXgX7X:X~.P.L.L.L.I.I.@.:     b i.@XL.L.L.Y.>XaXiXiXiXiXiX2X!.H.L.I.U.W . 9 ).jXjXwXw.2 +     ",
"4 w.fXhXuXiXaXiX4X~.L.L.I.v.0 o.  x ` hX4XY.L.H.Y.>XaXhXaXiXiXiXgX6X#XK.I.m.N . $ :.lXkX;X{.8.8 + f ",
"A.{.;XaXhXiXiXiXhX2XY.I.K.+.f     t _.lX8XY.L.L.L.L./.6XaXiXuXiXiXaXiX-X{.&.3 0 8 : a.<XOX}.U.W . O ",
"}.H.P.=XpXiXuXiXaX>XP.[.v.7     a ( sXgX,XL.H.L.L.H.L.Y./.:XuXcXaXiXgXzX).3 m G.m.m . N %.! 9 X -   ",
"L.[.H.H.~.8XiXaXuX~.I.S.W c     < 4.jXgX8XR.J.H.H.L.L.L.H.L.>X4X4XiXvXdXL & 9.XXXX[.-.9 & % X p     ",
"E h.[.I.P.2XaXaXuX$X[.1.-     c y _.jXiXiXuX:XY.H.L.L.L.L.H.H.H.+XxXyXy . *.XXK.8.8.S.I.G.F.&.v     ",
"  r +.A..X;XgXiXiXfXt.6       p S `.jXuXiXaXaX6X~.L.L.L.I.I.[.I.M.:.* $ >.}.g.E 5.d.] *.K.oXh.n     ",
"    p q $.V.uXlXjXp.5 s       , Y 1XjXgXaXiXaXhX3XT.I.I.K.l.-.C & . N l.}.k.E i.tXrXf.E h.}.c.I     ",
"        ; 6 J ` ) < s         - Q Y.+X$X-X5XjXhX9Xz.>.R 8 $ o $ C ,.U.[.U.%.u.eXeXeXtX5.z.}.A.E     ",
"            - O ,             = @.I.[.D.l.w.3.[ 7 $ o $ 3 C -.x.I.I.I.L.c._ f.rX0Xu.] u.Q.[.S.^     ",
"                              O Z *.~ 9 3 6 m N G ! -.j.W.I.I.I.I.L.L.L.J.q.d.tX*X5.I 5.E.[.S.R     ",
"                              O . . X T 9.F.I.I.[.[.[.I.I.L.L.L.L.L.L.L.L.I.c.0.d.s.d.0.J.[.m./     ",
"                            f + , p q g.XX[.I.L.L.L.L.L.L.L.L.L.L.L.L.L.L.L.I.H.k.,.;.c.L.[.k.J     ",
"                                    , ! I.L.L.L.L.L.L.L.L.L.L.L.L.L.L.L.L.L.L.L.I.I.L.L.L.[.,.j     ",
"                                    h 9 A.I.L.L.L.L.L.L.L.L.L.L.L.L.L.I.L.L.L.L.L.L.I.L.I.L.+.c     ",
"                                      : *.I.I.L.L.L.L.L.H.L.L.L.L.L.L.F.K.L.L.L.L.L.L.L.I.v.V       ",
"                                        0 c.[.L.L.L.L.Y.~.Y.L.L.L.I.F.=.9.L.I.L.L.L.L.L.I.@.g       ",
"                                        g W D.[.K.L.L.#X4X~.L.L.L.L.L.g.R 9.I.I.I.L.L.[.h.V         ",
"                                          , $.K.I.L.L.P.R.P.L.L.L.H.Y.@X<.T %.m.U.I.[.J.Z s         ",
"                                            : $.L.[.L.L.L.L.L.L.L.!.4X7X<Xr.Z 8 ~ l.G.Q :           ",
"                                              1 R A.[.[.[.I.L.H.Y.>X6X6XuX-XY.9.%.&.T o             ",
"                                                h V ,.,.=.x.|.I.Y.>XuX6X6X$X}.oXG.Y =               ",
"                                                    - T %./ ,.P.}.OX5XwXqX+XN.%.3 ;                 ",
"                                                    S l.,.H V #.8.m.N.(.u.( u p                     ",
"                                                    ( ,.C <.z.D , b k ; = h                         ",
"                                                k D ( ,.9.z.<.D     X.A T                           ",
"                                              U t./.7.~ >.R ^ 2. .} 2.S.@.                          ",
"                                        I   t j.OX.XR.B.:.: u t.R.F.,.A f                           ",
"                                    L q.c.[ j 0.P.~.).B.)     j ( ) g                               ",
"                                  y ,..Xz.> i ;.!.n.D f                                             ",
"                                  d y ' V.7.=.=.Q.r.n                                               ",
"                                        0.R.r.C 7.#X..                                              ",
"                                        j k     :.@X3.  y B f                                       ",
"                                                n e.).7.*.L                                         ",
"                                                  ) W.h.                                            ",
"                                                    F                                               ",
"                                                                                                    ",
"                                                                                                    "
};
