/* XPM */
static char *result[] = {
/* columns rows colors chars-per-pixel */
"91 16 206 2 ",
"   c black",
".  c #312D34",
"X  c #343639",
"o  c #343739",
"O  c #353739",
"+  c #35383A",
"@  c #36383B",
"#  c #3B3D40",
"$  c #3F3F40",
"%  c #3D3F42",
"&  c gray25",
"*  c #424447",
"=  c #444444",
"-  c #464646",
";  c gray28",
":  c #434648",
">  c #484848",
",  c #494949",
"<  c #494A4B",
"1  c gray29",
"2  c #4A4A4B",
"3  c #4A4B4B",
"4  c #4B4B4B",
"5  c #484B4D",
"6  c #4A4C4F",
"7  c #4C4C4C",
"8  c gray30",
"9  c gray31",
"0  c #4F5154",
"q  c #505050",
"w  c #515151",
"e  c gray32",
"r  c #505356",
"t  c gray34",
"y  c #55575A",
"u  c #56595C",
"i  c #585858",
"p  c gray35",
"a  c #5B5B5B",
"s  c #5F5F5F",
"d  c #5C5E61",
"f  c #5D6063",
"g  c gray38",
"h  c gray39",
"j  c #676767",
"k  c #626568",
"l  c #646669",
"z  c #686868",
"x  c DimGray",
"c  c #6A6A6A",
"v  c gray42",
"b  c #696B6E",
"n  c #6F6F6F",
"m  c #6A6C70",
"M  c #6F7275",
"N  c #717171",
"B  c #737372",
"V  c gray45",
"C  c #717376",
"Z  c #777777",
"A  c #76787C",
"S  c #777A7D",
"D  c gray47",
"F  c #797978",
"G  c #797979",
"H  c gray48",
"J  c #7B7B7B",
"K  c #7E7E7E",
"L  c #099519",
"P  c #7C7F82",
"I  c #7D8083",
"U  c #808080",
"Y  c #818181",
"T  c gray51",
"R  c #838383",
"E  c #868686",
"W  c #878686",
"Q  c #828588",
"!  c #838789",
"~  c #888888",
"^  c #898989",
"/  c gray54",
"(  c #8B8B8B",
")  c #888B8F",
"_  c #8E8E8E",
"`  c #8A8D90",
"'  c #8F9295",
"]  c #909090",
"[  c gray57",
"{  c #939393",
"}  c #909396",
"|  c #959595",
" . c gray59",
".. c #979797",
"X. c #989897",
"o. c #95989B",
"O. c #96999C",
"+. c gray60",
"@. c #9B9B9B",
"#. c #9D9D9D",
"$. c #9F9F9F",
"%. c #9B9EA1",
"&. c #9DA0A3",
"*. c gray63",
"=. c gray64",
"-. c #A1A4A7",
";. c #A4A4A4",
":. c #A5A5A5",
">. c gray65",
",. c #A7A7A7",
"<. c #A3A6A9",
"1. c #A7AAAE",
"2. c gray66",
"3. c #A9A9A9",
"4. c #AAAAAA",
"5. c #A9ACAF",
"6. c #ACACAC",
"7. c #AEAEAE",
"8. c #AFAFAE",
"9. c #ADB0B4",
"0. c #AFB2B5",
"q. c gray69",
"w. c #B2B2B2",
"e. c #B4B4B4",
"r. c gray71",
"t. c #B6B6B6",
"y. c #B8B7B7",
"u. c #B3B6B9",
"i. c #B4B7BB",
"p. c gray72",
"a. c #B9B9B9",
"s. c #BBBBBB",
"d. c #B8BCBF",
"f. c #BCBCBC",
"g. c #BEBDBD",
"h. c gray75",
"j. c #BABDC0",
"k. c #BEC1C4",
"l. c #BFC2C6",
"z. c #C1C1C1",
"x. c gray76",
"c. c #C3C3C3",
"v. c #C4C3C3",
"b. c #C5C5C5",
"n. c #C6C6C6",
"m. c #C2C5C9",
"M. c #C3C6C9",
"N. c #C5C8CB",
"B. c #C6C9CC",
"V. c #C8C8C8",
"C. c gray79",
"Z. c #CACACA",
"A. c #CBCBCB",
"S. c #CCCCCB",
"D. c #C8CBCE",
"F. c #C9CCCF",
"G. c #CDCDCD",
"H. c #CECECE",
"J. c gray81",
"K. c #CACDD0",
"L. c #CACDD1",
"P. c #CBCED1",
"I. c #D0D0D0",
"U. c gray82",
"Y. c LightGray",
"T. c gray83",
"R. c #D5D5D5",
"E. c gray84",
"W. c #D7D7D7",
"Q. c #D8D8D8",
"!. c #DADADA",
"~. c gray86",
"^. c gainsboro",
"/. c #DDDDDD",
"(. c gray87",
"). c gray88",
"_. c #E2E1E1",
"`. c #E2E2E2",
"'. c gray89",
"]. c #E4E4E4",
"[. c #E5E4E4",
"{. c #E7E7E7",
"}. c gray91",
"|. c #E9E9E9",
" X c #EAEAEA",
".X c #ECECEC",
"XX c gray93",
"oX c #EEEEEE",
"OX c #EFEFEF",
"+X c gray94",
"@X c #F1F1F1",
"#X c gray95",
"$X c #F3F3F3",
"%X c #F4F4F4",
"&X c gray96",
"*X c #F6F6F6",
"=X c #F7F7F6",
"-X c gray97",
";X c #F8F8F8",
":X c #F9F9F9",
">X c gray98",
",X c #FBFBFB",
"<X c gray99",
"1X c #FDFDFD",
"2X c #FEFEFE",
"3X c white",
/* pixels */
"                                                                                                                                                                                      ",
"  , 8 7 7 7 7 7 7 7 7 7 7 7 7 7 7 7 w p g c N G Y ^ [ +.*.2.q.p.h.n.G.T.~.`.{.XX#X*X>X<X1X2X1X<X>X-X$XoX}.`.^.R.J.V.z.a.w.4.=.@.{ ( R J V v h a e 7 7 7 7 7 7 7 7 7 7 7 7 7 7 7 8 4   ",
"  = > ; ; > , , , , , , , , , , , 1 w p g x N G U ~ ] X.$.,.8.t.g.b.S.Y.!.).{..X#X=X,X2X3X3X3X2X<X;X$XXX}._.~.T.H.n.h.y.q.3.*.+.[ / T H B c h a e 4 , , , , , , , , , , , > ; ; > -   ",
"  = > ; > & O X X X X X X X X X X + # * 5 0 y d k b M A P Q ) ' o.%.-.1.9.u.d.k.m.N.D.K.L.P.L.K.F.B.M.l.j.i.0.5.<.&.O.} ` ! I S C m l f u r 6 : % @ X X X X X X X X X X o $ > ; > -   ",
"  = > ; 3 . . . . . . . . . . . . . . . . . . . . . . . . . . . . . . . . . . . . . . . . . . . . . . . . . . . . . . . . . . . . . . . . . . . . . . . . . . . . . . . . . . ; > -   ",
"  = > ; < . L L L L L L L L L L L L L L L L L L L L L L L L L L L L L L L L L L L L L L L L L L L L L L L L L L L L L L L L L L L L L L L L L L L L L L L L L L L L L L L L . ; > -   ",
"  = > ; < . L L L L L L L L L L L L L L L L L L L L L L L L L L L L L L L L L L L L L L L L L L L L L L L L L L L L L L L L L L L L L L L L L L L L L L L L L L L L L L L L . ; > -   ",
"  = > ; < . L L L L L L L L L L L L L L L L L L L L L L L L L L L L L L L L L L L L L L L L L L L L L L L L L L L L L L L L L L L L L L L L L L L L L L L L L L L L L L L L . ; > -   ",
"  = > ; < . L L L L L L L L L L L L L L L L L L L L L L L L L L L L L L L L L L L L L L L L L L L L L L L L L L L L L L L L L L L L L L L L L L L L L L L L L L L L L L L L . ; > -   ",
"  = > ; < . L L L L L L L L L L L L L L L L L L L L L L L L L L L L L L L L L L L L L L L L L L L L L L L L L L L L L L L L L L L L L L L L L L L L L L L L L L L L L L L L . ; > -   ",
"  = > ; < . L L L L L L L L L L L L L L L L L L L L L L L L L L L L L L L L L L L L L L L L L L L L L L L L L L L L L L L L L L L L L L L L L L L L L L L L L L L L L L L L . ; > -   ",
"  = > ; 2 . L L L L L L L L L L L L L L L L L L L L L L L L L L L L L L L L L L L L L L L L L L L L L L L L L L L L L L L L L L L L L L L L L L L L L L L L L L L L L L L L . ; > -   ",
"  = > ; ; . . . . . . . . . . . . . . . . . . . . . . . . . . . . . . . . . . . . . . . . . . . . . . . . . . . . . . . . . . . . . . . . . . . . . . . . . . . . . . . . . . ; > -   ",
"  = > ; ; > > > > > > > > > > > > , q i s z n Z K W _ | #.;.6.e.s.x.C.I.W./.].|.OX%X;X,X1X2X2X<X:X&X+X X[.(.Q.U.A.v.f.r.7.>.$...] ~ U F N x g p w 1 > > > > > > > > > > > > ; ; > -   ",
"  ; 4 1 1 1 1 1 1 1 1 1 1 1 1 1 1 1 9 t s j n Z K E _  .#.:.6.e.s.x.V.J.E.^.`.{..X+X%X*X;X:X:X-X%X@XXX}.'./.W.U.Z.c.f.r.7.>.$...] ~ U D N x g p w 4 1 1 1 1 1 1 1 1 1 1 1 1 1 1 4 ,   ",
"                                                                                                                                                                                      "
};
