/* XPM */
static char *result[] = {
/* columns rows colors chars-per-pixel */
"76 76 216 2 ",
"   c black",
".  c #161102",
"X  c #1D1202",
"o  c #221502",
"O  c #261902",
"+  c #2A1D03",
"@  c #271B0A",
"#  c #2B1E0A",
"$  c #2E2103",
"%  c #2D210A",
"&  c #312404",
"*  c #32250B",
"=  c #36290B",
"-  c #3B2A0C",
";  c #2E2210",
":  c #362A14",
">  c #3A2D14",
",  c #3E3113",
"<  c #3E331B",
"1  c #312D34",
"2  c #462A0D",
"3  c #423415",
"4  c #42351B",
"5  c #4C3519",
"6  c #45391C",
"7  c #4B3D1D",
"8  c #5B3415",
"9  c #553C1C",
"0  c #5A3E1C",
"q  c #683616",
"w  c #773B1B",
"e  c #453A21",
"r  c #493D22",
"t  c #503D24",
"y  c #643F25",
"u  c #55411D",
"i  c #5A431D",
"p  c #67471F",
"a  c #4D4225",
"s  c #4C442A",
"d  c #524425",
"f  c #5C4523",
"g  c #52452A",
"h  c #554A2D",
"j  c #5C4828",
"k  c #5A4D2D",
"l  c #4E4B30",
"z  c #574D34",
"x  c #5A4E33",
"c  c #545137",
"v  c #5D5134",
"b  c #5D5339",
"n  c #634621",
"m  c #634B25",
"M  c #6C4C24",
"N  c #654B2B",
"B  c #644D2C",
"V  c #744E23",
"C  c #7C4D2F",
"Z  c #63512E",
"A  c #6C532D",
"S  c #795426",
"D  c #74542C",
"F  c #7A562C",
"G  c #7C592D",
"H  c #624E34",
"J  c #604F38",
"K  c #645434",
"L  c #6B5534",
"P  c #63553B",
"I  c #6C5738",
"U  c #66593C",
"Y  c #6A5C3C",
"T  c #735A33",
"R  c #7C5D32",
"E  c #6E603E",
"W  c #796039",
"Q  c #7D6239",
"!  c #665640",
"~  c #665B40",
"^  c #6A5C41",
"/  c #666044",
"(  c #6E6144",
")  c #6B6248",
"_  c #726445",
"`  c #7C6747",
"'  c #73664B",
"]  c #76694B",
"[  c #7A6B4D",
"{  c #7C704F",
"}  c #756B51",
"|  c #7A6D51",
" . c #7D7152",
".. c #7E7458",
"X. c #8E3D1D",
"o. c #875A28",
"O. c #835B2C",
"+. c #885E2D",
"@. c #825E30",
"#. c #945030",
"$. c #AE5030",
"%. c #8C612E",
"&. c #92642F",
"*. c #856134",
"=. c #8B6332",
"-. c #87663A",
";. c #8C6A3C",
":. c #936633",
">. c #946936",
",. c #996B37",
"<. c #946B3A",
"1. c #9B6E39",
"2. c #9E703B",
"3. c #A3723B",
"4. c #D54B2A",
"5. c #CE5634",
"6. c #D45333",
"7. c #8A6C42",
"8. c #836D48",
"9. c #886F4A",
"0. c #977345",
"q. c #9C7443",
"w. c #817455",
"e. c #897756",
"r. c #82755A",
"t. c #857A5B",
"y. c #8A7C5C",
"u. c #987E55",
"i. c #AA754D",
"p. c #877D61",
"a. c #8A7E61",
"s. c #907E64",
"d. c #97815B",
"f. c #A68355",
"g. c #8E8263",
"h. c #928465",
"j. c #998766",
"k. c #93866A",
"l. c #95896B",
"z. c #9A8D6D",
"x. c #918F75",
"c. c #9A8D71",
"v. c #9E9172",
"b. c #A38C6A",
"n. c #A28F71",
"m. c #A29575",
"M. c #A89777",
"N. c #A39679",
"B. c #A5997A",
"V. c #AB9D7D",
"C. c #B39E7E",
"Z. c #AFA17F",
"A. c #A59E81",
"S. c #AB9F82",
"D. c #B39E81",
"F. c #AEA282",
"G. c #AAA28A",
"H. c #B2A585",
"J. c #BCA584",
"K. c #B9A887",
"L. c #B3A688",
"P. c #B6A98A",
"I. c #BAAD8D",
"U. c #BDB08F",
"Y. c #B4A993",
"T. c #BAAD92",
"R. c #BEB192",
"E. c #BFB69A",
"W. c #C2AA87",
"Q. c #C6AF8B",
"!. c #C8AF8B",
"~. c #CBB28D",
"^. c #C2B595",
"/. c #CEB690",
"(. c #CAB895",
"). c #C1B59A",
"_. c #C6B99A",
"`. c #CABD9D",
"'. c #D0B791",
"]. c #D4BA95",
"[. c #D7BD97",
"{. c #D9BF98",
"}. c #C5BAA1",
"|. c #CABFA2",
" X c #CEC19F",
".X c #DCC29B",
"XX c #E2C69E",
"oX c #CEC2A2",
"OX c #CEC3AA",
"+X c #D2C5A5",
"@X c #D3C6A8",
"#X c #D6C9A9",
"$X c #D9CCAC",
"%X c #D5C8B1",
"&X c #DACDB3",
"*X c #DED1B2",
"=X c #DFD2BA",
"-X c #E5CAA2",
";X c #E2D5B5",
":X c #E5D8B7",
">X c #E2D5BA",
",X c #E6D9BA",
"<X c #EADDBC",
"1X c #EDE0BF",
"2X c #EBDEC2",
"3X c #EEE2C2",
"4X c #F2E5C4",
"5X c #F4E8C7",
"6X c #F3E7CA",
"7X c #F6EAC9",
"8X c #FAEDCD",
"9X c #FBF0CE",
"0X c #F9EED1",
"qX c #FBF3D3",
"wX c #FBF6DB",
"eX c #FBF6E4",
/* pixels */
"                                                                                                                                                        ",
"  1 1 1 1 1 1 1 1 1 1 1 1 1 1 1 1 1 1 1 1 1 1 1 1 1 1 1 1 1 1 1 1 1 1 1 1 1 1 1 1 1 1 1 1 1 1 1 1 1 1 1 1 1 1 1 1 1 1 1 1 1 1 1 1 1 1 1 1 1 1 1 1 1 1   ",
"  1 -XXX{.{..X{.{.{.{.{.[.XX-XW.` i *.3.1.1.1.1.1.1.1.1.>.2.1.1.1.1.1.1.1.1.1.1.1.1.1.2.2.1.1.>.1.1.1.2.1.,.D x M.-X.X{.{.{.{.{.{.{.{.[.{.{.{.{.+X{.1   ",
"  1 ].~.!.!.!.!.!.!.!.!.'.'.M.x i 1.1.>.>.>.>.>.>.>.>.>.>.>.>.>.>.>.>.>.>.>.>.>.>.>.>.>.>.>.>.>.>.>.>.>.>.1.&.S f r.].].Q.!.!.!.!.!.!.!.~.~.~.~.'./.1   ",
"  1 ]./.!.!.~.!.!.!.!.!.{.z.t C :.1.>.:.>.>.>.>.>.>.>.>.>.>.>.>.>.>.>.>.>.>.>.>.>.>.>.>.>.>.>.>.>.>.>.>.>.:.<.2.V N } W..X!.!.!.!.~.!.!.!.!.~././.~.1   ",
"  1 [./.~.!.!.!.!.!.[.].l.I M :.2.>.>.>.>.>.>.>.>.>.>.>.>.>.>.>.>.>.>.>.>.>.>.>.>.>.>.>.>.>.>.>.>.>.>.>.>.>.>.>.2.o.5 ] H.[.'.Q.!.~.!.~.~.~.!.~.'.~.1   ",
"  1 [./.~.~.!.~.!.'.'.C.H p 1.,.>.>.>.>.>.>.>.>.>.>.>.>.>.>.>.>.>.>.>.>.>.>.>.>.>.>.>.>.>.>.>.>.>.>.>.>.>.>.>.>.:.,.>.0 J D.].'.~.!.!.~.!.!.~.~./.~.1   ",
"  1 ]./.!.!.!.!.!.XXM.^ D +.,.,.:.>.>.>.>.>.>.>.>.>.>.>.>.>.>.>.>.>.>.>.>.>.>.>.>.>.>.>.>.>.>.>.>.>.>.>.>.>.>.>.>.,.1.:.M t z.{.~.~.!.!.!.~.~.~./.~.1   ",
"  1 ]./.~.!.!./.'.!.e.9 +.2.:.>.>.>.>.>.>.>.>.>.>.>.>.>.>.>.>.>.>.>.>.>.>.>.>.>.>.>.>.>.>.>.>.>.>.>.>.>.>.>.>.>.>.>.>.1.:.V j r.].].!.~.!.~.~.~.'./.1   ",
"  1 ]./.~.!.!.]./.s.L o.:.,.>.>.>.>.>.>.>.>.>.>.>.>.>.>.>.>.>.>.>.>.>.>.>.>.>.>.>.>.>.>.>.>.>.>.>.>.>.>.>.>.>.>.>.>.>.<.,.3.V t r.J..X~.!.!.~.~.~.~.1   ",
"  1 ].'.!.!.~.].D.I n 1.,.>.>.>.:.>.>.>.>.>.>.>.>.>.>.>.>.>.>.>.>.>.>.>.>.>.>.>.>.>.>.>.>.>.>.>.>.>.>.>.>.>.>.>.:.>.>.,.>.>.3.O.5 ' W.'.'.!.!././.~.1   ",
"  1 ].'.~.~.{.J.r.D C 1.<.>.:.,.1.1.1.1.1.>.>.>.>.>.>.>.>.>.>.>.>.>.>.>.>.>.>.>.>.>.>.>.>.>.>.>.>.>.>.>.>.>.>.1.,.1.,.+.+.<.,.,.:.0 J J.]./.!.~././.1   ",
"  1 {.'.!.!.{.l.j O.,.>.:.1.<.T j i G R G *.>.2.<.>.>.>.>.>.>.>.>.>.>.>.>.>.>.>.>.<.>.>.>.>.>.>.>.>.>.>.>.2.=.D -.9.9.y.e.-.:.,.,.&.M t c.{.~././.~.1   ",
"  1 [.~.'./.D.` n &.2.>.1.+.D r.Z.L.l. .r.E Z A *.3.2.>.>.>.>.>.>.>.>.>.>.>.>.>.>.>.>.>.>.>.>.>.>.>.>.>.<.Q 9.l. .p.I.OXN.m F 1.>.2.:.M N a.'.{.~.~.1   ",
"  1 ]./.{./.} N +.:.,.:.1.G K P.7X8X7X3X5X5X`...k u K -.2.>.:.>.>.>.>.>.>.>.>.>.>.>.>.>.>.>.>.>.>.1.;.I c ) I.qX,X$X:X<XT.^ G :.>.>.,.3.V t r.W.XX'.1   ",
"  1 [.[.!.n.N V 2.,.:.>.2.O.H c.Z.g.g.g.g.j.U.,X^...s K 7.2.,.>.>.>.>.>.>.>.>.>.>.>.>.>.>.>.>.>.-.Q l.H.R.oX^.m.v.g.w.K._.N.7.+.>.>.>.>.2.+.5 [ Q.].1   ",
"  1 {.-Xn.J C :.,.>.>.>.>.T z r.g.( _  .g.z.g.{ B.`._.F.y.7.>.:.>.:.>.>.>.>.:.>.>.>.>.:.>.>.>.D v ] @X5X Xz.h.Z.B.w.Y v.Z.g.Q =.>.>.>.>.>.>.&.n b J.1   ",
"  1 {.W.` 0 =.1.>.>.>.,.+.Q y.V.v._ d 6 h B.:X:XI.V.@X<XR.U R 3.1.1.1.1.>.<.2.2.1.>.>.>.1.=.;.Z.+X+X XZ.y.I._.v.g.] / Z.Z.Y *.1.>.>.>.>.>.<.1.%.M J 1   ",
"  1 ].[ M +.,.,.>.>.>.,.%.R [ T.H.Y E r.g.e 6 l.,XqX#X:XoXp.L m i i i i j j Z Z j i u f G Q e.^.,X@Xl.F.,XB.Y k E { ] F.v.A *.1.>.>.>.>.>.>.>.2.,.S 1   ",
"  1 j.N V 2.<.>.>.>.>.>.1.*.L v.B.{ [ v.oX=XB.s h m.<X4X@X`.p.~ t.l.z.B.v.g.g.h.z.g.g.g.] _ h.$X*XP. XoXF.( ( m.9.{ v.v.g.F %.,.>.>.>.>.>.>.>.>.,.3.1   ",
"  1 j +.1.,.<.:.>.>.>.>.1.=.T y.c.h.{ E ( ] ..g.P g  .).<X#X^.K.P.Z.v.Z.H.L.P.K.Z.z.z.m.Z.R.@X;X*X@X:XB.a ( t.{ U l.#Xc.T G =.1.>.>.>.>.>.>.>.>.,.3.1   ",
"  1 @.,.1.:.:.<.>.>.>.>.:.:.;.I ..Z.g._ U = O , k k 6 B.4X$X#X^.v.Z.F.B.U.(.L.V.B.z.B.H.L.Z.F._.:X:XH._ h E { _ { Z.*Xg.m >.,.>.>.>.>.>.>.>.>.>.1.q.1   ",
"  1 3.,.:.>.<.:.>.>.>.>.>.1.1.n [ I.m.w.] E K U m.oX^.#X;X#X`.^.(.^.L.m.H.^.I.H.L.K.Z.B.h.M.^.@X*X*X*Xm.v Z Y t.+X$Xl.T V 1.,.>.>.>.>.>.>.>.>.>.,.3.1   ",
"  1 3.,.<.<.:.,.>.>.>.:.:.1.,.O.T } R. Xv.{ a X a v.#X#X+X$XK.m.P._.R.m.Z.^.R.I.I.^.Z.z.H.U._.#X*X#X$X^.m.w.v.*X9XR.k F 1.>.:.>.>.>.>.>.>.>.>.>.,.3.1   ",
"  1 3.,.>.>.>.>.>.>.>.>.>.:.>.3.R d g.$X1X#XZ.j.F. X XU.I.+X`.H.h.H.`.K.Z.B.m.z.m.R.H.z.v.m.B.M.M.Z.^.;X4X<X4X5XE.] m %.2.>.>.>.>.>.>.>.>.>.>.>.1.3.1   ",
"  1 3.,.:.>.>.>.>.>.>.<.>.<.>.,.>.-.K g.*X7X8X7X7X3X*XR.P.`.`.I.M.v.M.K.F.v.z.z.m.K.K.m.h.h.z.z.Z. XU.M.h.z.B.m./ m <.1.:.>.>.>.>.>.>.>.>.>.>.>.,.3.1   ",
"  1 3.,.:.<.>.>.>.>.>.>.>.:.>.<.2.1.j E Z. X+XR.m.z.Z.P.P.Z.^.`.R.Z.m.l.M.Z.v.h.z.V.B.z.V.B.m.U. X XR.B.z.h.l.h.v p 1.1.>.>.>.>.>.>.>.>.>.>.>.>.,.3.1   ",
"  1 3.,.>.>.>.>.>.>.>.>.>.>.>.1.D 7 c y.B.j.g.j.z.z.z.z.v.H.K.^.$X;X^.z.m.H.M.m.V.P.K.K.^.^.K.B.H.^.^.^.^.^.I.Z.B...v *.2.:.>.>.>.>.>.>.>.>.>.>.,.3.1   ",
"  1 3.,.<.>.>.>.>.>.>.>.:.1.<.f s ] z.Z.B.m.v.z.z.l.z.v.m.V.I.`.+X$X^.v.M.P.L.U.`.`.`.`.#XoXR.^.F.z.V.I.U.H.M.v.m.t.z Z *.>.1.>.>.>.>.>.>.>.:.>.,.3.1   ",
"  1 3.,.<.>.>.>.>.>.>.>.3.@.B ^ g.v.z.v.H. X XI.B.V.U.U.^.#X$X$X:X:X#XK.Z.F.P.^.+X+X;X:X#X+X$X;X;X$X$X^.V.v.z.m.H.L.m.] A 2.1.>.>.>.>.>.>.:.<.<.,.3.1   ",
"  1 3.,.>.>.>.>.>.>.:.>.q.-.x U g.H.Z.z.z.B.U.+X1X<X`.v.' h 6 h  . X4XoXZ.l.h.P.*X:XK.) 7 , g ( m.oX3X5X:X$X^.H.Z.B.m. .K A %.1.>.>.>.>.>.>.>.:.1.3.1   ",
"  1 3.,.:.<.>.>.>.>.:.>.>.R ' l.P._.^.^.R. X X Xz.v = X . X o X . v I.:XK.w.z.$X<Xc.e . X o X X X = z z.$X8X9X;X^.I.`.L.t.K %.1.>.>.>.<.>.>.>.>.<.3.1   ",
"  1 3.1.>.>.>.>.>.>.,.>.-.T } oX9X<X3X4X1X^._ > O X X 4 ] c.y.g O X U &XoXv.K.;XoXh X % K l.m.Y > o o o : ( I.1X7X7X4XqX`.] G :.:.>.>.>.>.>.>.>.>.3.1   ",
"  1 3.>.>.>.>.>.>.:.,.1.:.Z z E.qX7X$Xl.d + o + O = g l.v.z  .l.U # < F.+X^.$X+Xl.; ; _ ..~ c S.h., * + $ o + g l.$X4X9XR.! A :.1.1.:.>.>.>.>.>.1.3.1   ",
"  1 3.>.:.>.>.>.>.>.>.=.f { _.4XoX' > X O $ & & o 4 h.V.m.l.a 4 l.g @ r.`.,X1X^.( # < y.K.l.z z ..k.4 X & & $ O X , ] oX4X_.] u -.>.1.>.>.>.>.>.1.3.1   ",
"  1 3.<.>.>.>.>.>.2.F a ( E.3Xg.% X O & & & & & $ g h.P. X@Xb # p.v * Y K.1X1XF.x = , t.#X#Xt.- ^ P.k o & & & & & O X : k.4XoX] a F 3.>.>.>.>.>.>.3.1   ",
"  1 3.1.>.>.>.>.>.:.2.q.T ] t.< X & & & & & & + = U m.| s k % : e.v = x V.:X;Xm.d = g ] b a , $ _ T.K O $ & & & & & & . e F.#XF.d A 2.>.>.>.>.>.1.3.1   ",
"  1 3.>.:.>.>.>.>.1.*.T ) | ' < o & & & & & & + % E `.] . @ o 6 g.x O k Z.,X;Xm.a + K g.: . O : k.+XU X & $ & & & & & X > ..&X3XB.U f ;.1.>.>.>.,.3.1   ",
"  1 3.1.>.>.>.2.;.v b g.OX X] > o & & & & & & $ X x @XR.b X e t.t.4 o x Z.:X,XB.a X l l. ., X t.oX^.d X & & & & & & & X > r.#XwX4Xz.B *.>.:.>.=.,.3.1   ",
"  1 3.1.:.>.,.>.-.b v.7XeX*Xt.> X & & & & & & & o >  .$X0XoXoXB.4 . % K V.;X<XV.g # X s H.@XoXqX+XP * O & & & & & & & . < l.*X9X;Xh.B <.,.:.>.>.<.3.1   ",
"  1 3.,.>.>.>.,.>.*.B Y _.=XM.d % , & & & & & & & $ O Y v.P.] = + X * U H.;X;XM.k * X + , t.F.k.h O $ & & & & $ & = 3 + h P.1XoXw.A G >.1.>.>.>.1.3.1   ",
"  1 3.,.>.>.>.,.1.G 7 < g.@XoXb O 7 d r , & $ $ & & & $ O @ $ $ & O * ( I.<X;XV.v % O & $ + O O + & & $ $ & * 3 a u 4 & Y _.v.v 9 F 3.>.>.>.>.>.,.3.1   ",
"  1 3.,.>.>.>.>.<.*.T |  XwX7Xv.e X o - 6 d 7 - & $ & & $ & & & & X # ] ^.<X:XK.! + X & & & $ & & & $ & - u d 3 = X X z F.=X,XF.U R 1.:.:.>.>.>.,.3.1   ",
"  1 3.,.>.>.>.>.:.2.<.Q K b | E.oXl.z % O O = 6 6 - $ $ $ & & $ o % ! ).;X@X`.+XP.P # O $ & & $ $ & , 6 4 % o + > / V.#X4X3X&XF._ @.1.>.>.>.>.>.1.3.1   ",
"  1 3.<.>.>.>.>.:.:.3.<.i = s K.8XqX7X@XH.y.b e , > , = $ & O % z K.5X4X*X^.T.#X4X5XF.h % O $ $ = , - 3 t ' l.T.OX2X3X4X=XE.{ M <.,.:.>.>.>.:.<.,.3.1   ",
"  1 3.,.>.>.>.>.,.2.O.M t._.4X&X_._.#X2X4X5X7X<XoXv.` d = O % ] *X8X4X5X,X#X@X*X4X4X8X$X( % $ - Z r.Z.$X4X8X0X2X&X}.E.OX@XY.] p >.1.>.>.>.>.<.:.,.3.1   ",
"  1 3.,.>.>.>.>.>.1.=.M , ) ).OXT.l.k.k.c.F._.#X3XqX9X$Xv.h  .oX4XqX,X_.h.U Y l.@X,XqX5XR.] v Z.1X9XqX1X|.).A.c.k.k.c.E.#XoXg.D >.:.>.>.>.>.>.>.1.q.1   ",
"  1 3.,.=.>.>.>.,.1.<.R > ) OX=X2X&X%X|.).P.V.v.z.B.R.1X,XZ.z.H.$X3X_.~ U ^ O X K @X4X`.L.v.Z.;X=XU.Z.v.c.A.S.E.|.2X7X*Xv.m R 2.,.:.>.>.>.>.>.:.,.3.1   ",
"  1 3.,.<.:.<.>.>.:.1.0.m 6 z S.*XOX%XOX%X=X2X,X$X^.H.v.h.y.F.$X$X:XR.Y h d % X d `.1X@X$XF.t.l.m.L. X$X<X2X=X&X&X>X;Xl.Y *.:.1.>.>.>.>.>.>.>.>.>.3.1   ",
"  1 3.,.:.>.>.>.:.<.>.,.q.F 9 ~ P.8X2XOXOX&X;X>X,X2X4X<X^.y.B._.R.<X:Xg.> . . s m.:X:XU.I.v.h._.1X4X1X=X*X*X&X&X1X;X_.v. .` :.,.>.>.>.>.>.>.>.>.,.3.1   ",
"  1 3.,.>.>.>.>.>.>.>.>.>.1.;.7 ) `.3X5X2X*X*X;X;X:X,X4X#Xm.`.7X<X<X1X1X`.F.F.oX4X1X,X<X7X_.v.@X3X:X1X:X,X;X:X3X5X6X*XP.y.-.=.>.>.>.>.>.>.>.>.<.1.3.1   ",
"  1 3.,.>.>.>.>.>.>.>.>.:.:.,.0.A 4 b F.4X6X,X>X;X,X,X4X$Xz.G.>X1X<X<X3X<X:X,X1X1X<X<X1X<XL.k.#X7X1X,X,X,X3X1X$XV. .] W %.1.>.>.>.>.>.>.>.>.>.>.,.q.1   ",
"  1 3.,.<.>.>.>.>.>.>.>.>.:.>.1.2.<.i e / } V.1X6X3X:X5X:XK.k.v.3X0X6XqXL.! ' R.qX3X9X3XF.k.F.:X7X<X,X<X3XwXoX) L O.:.1.,.>.>.>.>.>.>.>.>.>.>.>.,.3.1   ",
"  1 3.,.<.>.>.:.>.>.>.>.>.>.:.:.,.>.2.m = } T.R.m.N.*X2X4X2Xy.g k.E.E.x.s X O c G.OXOXv.b l.3X3X1X1X5X7X*Xl.K Z ;.3.:.:.>.>.>.>.>.>.>.>.>.>.>.>.,.3.1   ",
"  1 F ,.1.:.<.<.>.>.>.>.>.>.,.>.>.>.1.2.7.Y h d _ P.3X4X<X8X+X| @ O 8 w q d f w w i ; ; g.$X7X7X1X Xt.k h Z *.q.1.:.>.>.>.>.>.>.>.>.>.>.>.>.>.>.,.3.1   ",
"  1 H +.:.,.:.>.<.>.>.>.>.>.>.>.>.>.:.<.<.<.;.8.h.T.%X>X,X<X9X`.l 2 X.4.5.$.$.6.4.8 % b +XwX7XqXP.v s I 0.2.1.>.:.>.>.>.>.>.>.>.>.>.>.>.>.>.>.:.,.3.1   ",
"  1 b.H V 3.:.<.:.<.>.>.>.>.>.>.>.>.>.>.>.1.%.m c K U F.3X3X8X1XR.c - $.6.4.4.6.#.O l E.9X,Xc.v 6 v d.f.:.:.>.>.>.>.>.>.>.>.>.>.>.>.>.>.>.>.>.,.1.<.1   ",
"  1 ].} N +.:.,.<.:.>.>.>.>.>.>.>.>.>.>.,.>.%.Q f.K.P.[ ) _.1X9XqXG.b 6 C i.i.y : c  XwX_./ > z r.d.q.:.>.>.>.>.>.>.>.>.>.>.>.>.>.>.>.>.>.>.,.,.O.5 1   ",
"  1 {.~.w.0 +.3.:.<.:.>.>.>.>.>.>.>.>.>.>.>.>.,.&.f.].m.b < d c.,XqX;Xv.~ l t ^ Z.3X7XI.z a t.h.f.>.:.:.>.>.>.>.>.>.>.>.>.>.>.>.>.>.>.>.>.,.1.M g s.1   ",
"  1 {.-XM.! D +.1.,.:.<.>.>.>.>.>.>.>.>.>.>.>.>.:.&.:.d.z.g.U d _ _.wX9X3X>X,X6XqX7Xv.a b y.f.q.:.:.>.>.>.>.>.>.>.>.>.>.>.>.>.>.>.>.>.:.3.+.9 _ V.Q.1   ",
"  1 {.].'.C.H n 1.,.>.>.>.<.>.>.>.>.>.>.>.>.>.>.:.,.:.:.1.f.b.t.h b v.$X8X0X9XqX$X{ s b y.f.1.:.:.>.>.>.>.>.>.>.>.>.>.>.>.>.>.>.>.>.,.2.O.M ^ C.-XW.1   ",
"  1 [.~.{.'.k.I V :.1.>.>.>.>.>.>.>.>.>.>.>.>.>.,.:.>.:.:.&.2.d.g._ k h ' k.c.' a g ' d.0.:.:.>.,.>.>.>.>.>.>.>.>.>.>.>.>.>.>.>.>.>.:.:.f ! W..X'.J.1   ",
"  1 [.~.~.~.{.s.t O.1.:.>.>.>.>.>.>.>.>.>.>.>.>.>.>.>.>.>.:.:.,.q.d.y.] v e 6 z { d.f.1.:.:.>.>.>.>.>.>.>.>.>.>.>.>.>.>.>.>.>.>.,.3.+.0 ` D./.{.~.J.1   ",
"  1 ].'.!.~.{.J.s.H V 3.,.:.>.>.>.>.>.>.>.>.>.>.>.>.>.>.>.>.>.>.:.<.0.u.g.g.y.d.u.2.:.:.>.>.>.>.>.>.>.>.>.>.>.>.>.>.>.>.>.>.>.>.,.+.F P m.-X~././.J.1   ",
"  1 [./.~.!.!.].~.' N +.,.<.>.>.>.>.>.>.>.>.>.>.>.>.<.>.>.>.>.>.>.>.>.1.1.0.0.>.:.:.:.>.>.>.>.>.>.>.>.>.>.>.>.>.>.>.>.>.>.>.>.,.2.n H M.~./.!././.J.1   ",
"  1 ].'.!.~.!.'./.J.} 8 +.3.>.>.>.>.>.>.>.>.>.>.>.>.>.>.>.>.>.>.>.>.>.>.:.:.:.>.>.>.>.>.>.>.>.>.>.>.>.>.>.>.1.>.>.>.>.>.>.>.,.:.O.A p.].[.!.~./.~.J.1   ",
"  1 {.~.!.~.~.!.~..XM.P D %.,.,.>.>.>.>.>.>.>.>.>.>.>.>.>.>.>.>.>.>.>.>.>.>.>.>.>.>.>.>.>.>.>.>.>.>.>.>.>.>.>.>.>.>.>.>.<.>.3.+.9 e.~.~./.!.!./.'.J.1   ",
"  1 [.'.~.!.!.~.!.'./.D.J n 2.,.>.>.>.>.>.>.>.>.>.>.>.>.>.>.>.>.>.>.>.>.>.>.>.>.>.>.>.>.>.>.>.>.>.>.>.>.>.>.>.>.>.>.>.>.>.,.+.D ! M..X~.!.~.~./.~.J.1   ",
"  1 ]./.!.~.!.!.!.Q.].].s.L V &.1.>.>.>.>.>.>.>.>.:.<.>.>.>.>.>.>.>.>.>.>.>.>.>.>.>.>.>.>.>.>.>.>.>.>.>.>.>.>.>.>.>.>.>.1.1.M J C././.!.!.~.!././.W.1   ",
"  1 [./.~.!.!.~.~.!.~.~.].s.t O.2.>.>.>.>.>.>.>.>.<.:.>.>.>.>.>.>.>.>.>.>.>.>.>.>.>.>.>.>.>.>.>.>.>.>.>.>.>.>.>.>.>.>.1.%.V H s./.].!.~.!.!.~.'.~.J.1   ",
"  1 ]./.!.~.~.!.!.~.Q.~.{.K.r.H V 1.,.>.>.>.>.>.>.>.>.>.<.:.>.>.>.>.>.>.>.>.>.>.>.>.>.>.>.>.>.>.>.>.>.>.>.>.>.>.>.,.3.+.M t z.{.!.!.!.!.!.~.!.'./.J.1   ",
"  1 ].'.~.!.!.~.!.~.!.~.~.]./.' n :.:.>.>.>.>.>.>.>.>.,.:.<.:.<.>.>.>.>.>.>.>.>.>.>.>.>.>.>.>.>.>.>.>.>.>.>.>.>.2.,.O.5 ! W.]./.!.!.~.!.~.!.~.'./.W.1   ",
"  1 {.'.~.~.~.~.~.~.~.~.Q./.'.D.` n +.3.>.>.>.>.>.>.>.>.>.>.>.>.>.>.>.>.>.>.>.>.>.>.>.>.>.>.>.<.>.>.>.>.>.1.2.3.o.0 t l.[.[.]./.'./.'./.~./.~.].'.W.1   ",
"  1 XX{.'.].'.'.'.].'./.].'.].-XD.! F :.3.1.1.2.1.1.1.1.1.1.1.1.1.1.1.1.1.1.1.2.1.1.1.1.1.1.1.1.1.2.1.2.2.>.M 3 < } K.Q.W.J.J.J.J.J.J.W.!.!.!.!.!.C.1   ",
"  1 1 1 1 1 1 1 1 1 1 1 1 1 1 1 1 1 1 1 1 1 1 1 1 1 1 1 1 1 1 1 1 1 1 1 1 1 1 1 1 1 1 1 1 1 1 1 1 1 1 1 1 1 1 1 1 1 1 1 1 1 1 1 1 1 1 1 1 1 1 1 1 1 1   ",
"                                                                                                                                                        "
};
