/* XPM */
static char *result[] = {
/* columns rows colors chars-per-pixel */
"50 100 138 2 ",
"   c #00726D",
".  c #007576",
"X  c #017B79",
"o  c #068389",
"O  c #198383",
"+  c #2B9096",
"@  c #239798",
"#  c #3B9B97",
"$  c #3D9398",
"%  c #35A499",
"&  c #29A4A6",
"*  c #35AAA9",
"=  c #3CACAC",
"-  c #3FACB0",
";  c #4896A1",
":  c #539AA4",
">  c #44AFAE",
",  c #46B1AD",
"<  c #4AB2AE",
"1  c #51B6AE",
"2  c #56B8AF",
"3  c #43AEB0",
"4  c #47B0B0",
"5  c #49B0B0",
"6  c #53B5B1",
"7  c #5AB5B7",
"8  c #57B8B0",
"9  c #5EBCB2",
"0  c #5BB3B8",
"q  c #5FB8B8",
"w  c #61BDAF",
"e  c #6AA2B1",
"r  c #64BEB1",
"t  c #68BFB1",
"y  c #61B2BA",
"u  c #69B0BD",
"i  c #61BAB8",
"p  c #6BBCBC",
"a  c #71BEBE",
"s  c #63C2A6",
"d  c #6DC8A7",
"f  c #6BC5AB",
"g  c #72C6AD",
"h  c #76C8AE",
"j  c #79C9AF",
"k  c #67C0B0",
"l  c #6DC3B0",
"z  c #74C6B0",
"x  c #77C8B0",
"c  c #7CCAB0",
"v  c #7AC6B9",
"b  c #7CB6C4",
"n  c #70B8C1",
"m  c #7EC2C4",
"M  c #81C7B7",
"N  c #83CFB4",
"B  c #85C7B9",
"V  c #8BC4BF",
"C  c #88CDB8",
"Z  c #8CB2C9",
"A  c #89BAC9",
"S  c #94B6CB",
"D  c #9BB9CD",
"F  c #9FB5D4",
"G  c #9FB8D1",
"H  c #A4B7D4",
"J  c #A6B9D5",
"K  c #ACBDD7",
"L  c #AFBFD8",
"P  c #B0BDD7",
"I  c #B2BED9",
"U  c #B8BFDC",
"Y  c #83C3C5",
"T  c #89C7C7",
"R  c #8DCBC9",
"E  c #92C2CB",
"W  c #9AC2C8",
"Q  c #91C9C9",
"!  c #9DCACA",
"~  c #9BD2C2",
"^  c #A4CCC9",
"/  c #ADCDCD",
"(  c #A9D6C8",
")  c #AFDACA",
"_  c #B3DACD",
"`  c #ADC2D5",
"'  c #AFC0D8",
"]  c #B1C6D6",
"[  c #B7CBD7",
"{  c #B2C1D9",
"}  c #BAC5DC",
"|  c #BDCADC",
" . c #ADD2D4",
".. c #B2D3D2",
"X. c #BBD5D5",
"o. c #B6DAD3",
"O. c #B7D7D9",
"+. c #BAD9D9",
"@. c #C3CDDE",
"#. c #C3D7D7",
"$. c #C2DBD6",
"%. c #C5D3DD",
"&. c #C9D2DF",
"*. c #C3DCDC",
"=. c #CBDCDD",
"-. c #D5DFDF",
";. c #C6E0D5",
":. c #D5E4DE",
">. c #D5EADE",
",. c #C2C6E1",
"<. c #CDD4E0",
"1. c #CFD8E2",
"2. c #D3D5E4",
"3. c #D4DAE2",
"4. c #DADEE4",
"5. c #E0DEE8",
"6. c #C7E1E1",
"7. c #D5E1E2",
"8. c #DCE2E4",
"9. c #E5E6E7",
"0. c #E8E7E7",
"q. c #E7E8E7",
"w. c #E9EBE6",
"e. c #E6E5E9",
"r. c #EBE6EB",
"t. c #E7E8E8",
"y. c #E9E9E8",
"u. c #F3EDEC",
"i. c #FAEFEF",
"p. c #F6F0ED",
"a. c #FBF2EF",
"s. c #F7EEF2",
"d. c #FCECF2",
"f. c #F5F0F0",
"g. c #FCF2F2",
"h. c #FFF6F9",
"j. c #FDFAFA",
"k. c None",
/* pixels */
"k.k.k.k.k.k.k.k.k.k.k.k.k.k.k.k.k.k.k.k.k.k.k.k.k.k.k.k.k.k.k.k.k.k.k.k.k.k.k.k.k.k.k.k.k.k.k.k.k.k.",
"k.k.k.k.k.k.k.k.k.k.k.k.k.k.k.k.k.k.k.k.k.k.k.k.k.k.k.k.k.k.k.k.k.k.k.k.k.k.k.k.k.k.k.k.k.k.k.k.k.k.",
"k.k.k.k.k.k.k.k.k.k.k.k.k.k.k.k.k.k.k.k.k.k.k.k.k.k.k.k.k.k.k.k.k.k.k.k.k.k.k.k.k.k.k.k.k.k.k.k.k.k.",
"k.k.k.k.k.k.k.k.k.k.k.k.k.k.k.k.k.k.k.k.k.k.k.k.k.k.k.k.k.k.k.k.k.k.k.k.k.k.k.k.k.k.k.k.k.k.k.k.k.k.",
"k.k.k.k.k.k.k.k.k.k.k.k.k.k.k.k.k.k.k.k.k.k.k.k.k.k.k.k.k.k.k.k.k.k.k.k.k.k.k.k.k.k.k.k.k.k.k.k.k.k.",
"k.k.k.k.k.k.k.k.k.k.k.k.k.k.k.k.k.k.k.k.k.k.k.k.k.k.k.k.k.k.k.k.k.k.k.k.k.k.k.k.k.k.k.k.k.k.k.k.k.k.",
"k.k.k.k.k.k.k.k.k.k.k.k.k.k.k.k.k.k.k.k.k.k.k.k.k.k.k.k.k.k.k.k.k.k.k.k.k.k.k.k.k.k.k.k.k.k.k.k.k.k.",
"k.k.k.k.k.k.k.k.k.k.k.k.k.k.k.k.k.k.k.k.k.k.k.k.k.k.k.k.k.k.k.k.k.k.k.k.k.k.k.k.k.k.k.k.k.k.k.k.k.k.",
"k.k.k.k.k.k.k.k.k.k.k.k.k.k.k.k.k.k.k.k.k.k.k.k.k.k.k.k.k.k.k.k.k.k.k.k.k.k.k.k.k.k.k.k.k.k.k.k.k.k.",
"k.k.k.k.k.k.k.k.k.k.k.k.k.k.k.k.k.k.k.k.k.k.k.k.k.k.k.k.k.k.k.k.k.k.k.k.k.k.k.k.k.k.k.k.k.k.k.k.k.k.",
"k.k.k.k.k.k.k.k.k.k.k.k.k.k.k.k.k.k.k.k.k.k.k.k.k.k.k.k.k.k.k.k.k.k.k.k.k.k.k.k.k.k.k.k.k.k.k.k.k.k.",
"k.k.k.k.k.k.k.k.k.k.k.k.k.k.k.k.k.k.k.k.k.k.k.k.k.k.k.k.k.k.k.k.k.k.k.k.k.k.k.k.k.k.k.k.k.k.k.k.k.k.",
"k.k.k.k.k.k.k.k.k.k.k.k.k.k.k.k.k.k.k.k.k.k.k.k.k.k.k.k.k.k.k.k.k.k.k.k.k.k.k.k.k.k.k.k.k.k.k.k.k.k.",
"k.k.k.k.k.k.k.k.k.k.k.k.k.k.k.k.k.k.k.k.k.k.k.k.k.k.k.k.k.k.k.k.k.k.k.k.k.k.k.k.k.k.k.k.k.k.k.k.k.k.",
"k.k.k.k.k.k.k.k.k.k.k.k.k.k.k.k.k.k.k.k.k.k.k.k.k.k.k.k.k.k.k.k.k.k.k.k.k.k.k.k.k.k.k.k.k.k.k.k.k.k.",
"k.k.k.k.k.k.k.k.k.k.k.k.k.k.k.k.k.k.k.k.k.k.k.k.k.k.k.k.k.k.k.k.k.k.k.k.k.k.k.k.k.k.k.k.k.k.k.k.k.k.",
"k.k.k.k.k.k.k.k.k.k.k.k.k.k.k.k.k.k.k.k.k.k.k.k.k.k.k.k.k.k.k.k.k.k.k.k.k.k.k.k.k.k.k.k.k.k.k.k.k.k.",
"k.k.k.k.k.k.k.k.k.k.k.k.k.k.k.k.k.k.k.k.k.k.k.k.k.k.k.k.k.k.k.k.k.k.k.k.k.k.k.k.k.k.k.k.k.k.k.k.k.k.",
"k.k.k.k.k.k.k.k.k.k.k.k.k.k.k.k.k.k.k.k.k.k.k.k.k.k.k.k.k.k.k.k.k.k.k.k.k.k.k.k.k.k.k.k.k.k.k.k.k.k.",
"k.k.k.k.k.k.k.k.k.k.k.k.k.k.k.k.k.k.k.k.k.k.k.k.k.k.k.k.k.k.k.k.k.k.k.k.k.k.k.k.k.k.k.k.k.k.k.k.k.k.",
"k.k.k.k.k.k.k.k.k.k.k.k.k.k.k.k.k.k.k.k.k.k.k.k.k.k.k.k.k.k.k.k.k.k.k.k.k.k.k.k.k.k.k.k.k.k.k.k.k.k.",
"k.k.k.k.k.k.k.k.k.k.k.k.k.k.k.k.k.k.k.k.k.k.k.k.k.k.k.k.k.k.k.k.k.k.k.k.k.k.k.k.k.k.k.k.k.k.k.k.k.k.",
"k.k.k.k.k.k.k.k.k.k.k.k.k.k.k.k.k.k.k.k.k.k.k.k.k.k.k.k.k.k.k.k.k.k.k.k.k.k.k.k.k.k.k.k.k.k.k.k.k.k.",
"k.k.k.k.k.k.k.k.k.k.k.k.k.k.k.k.k.k.k.k.k.k.k.k.k.k.k.k.k.k.k.k.k.k.k.k.k.k.k.k.k.k.k.k.k.k.k.k.k.k.",
"k.k.k.k.k.k.k.k.k.k.k.k.k.k.k.k.k.k.k.k.k.k.k.k.k.k.k.k.k.k.k.k.k.k.k.k.k.k.k.k.k.k.k.k.k.k.k.k.k.k.",
"k.k.k.k.k.k.k.k.k.k.k.k.k.k.k.k.k.k.k.k.k.k.k.k.k.k.k.k.k.k.k.k.k.k.k.k.k.k.k.k.k.k.k.k.k.k.k.k.k.k.",
"k.k.k.k.k.k.k.k.k.k.k.k.k.k.k.k.k.k.k.k.k.k.k.k.k.k.k.k.k.k.k.k.k.k.k.k.k.k.k.k.k.k.k.k.k.k.k.k.k.k.",
"k.k.k.k.k.k.k.k.k.k.k.k.k.k.k.k.k.k.k.k.k.k.k.k.k.k.k.k.k.k.k.k.k.k.k.k.k.k.k.k.k.k.k.k.k.k.k.k.k.k.",
"k.k.k.k.k.k.k.k.k.k.k.k.k.k.k.k.k.k.k.k.k.k.k.k.k.k.k.k.k.k.k.k.k.k.k.k.k.k.k.k.k.k.k.k.k.k.k.k.k.k.",
"k.k.k.k.k.k.k.k.k.k.k.k.k.k.k.k.k.k.k.k.k.k.k.k.k.k.k.k.k.k.k.k.k.k.k.k.k.k.k.k.k.k.k.k.k.k.k.k.k.k.",
"k.k.k.k.k.k.k.k.k.k.k.k.k.k.k.k.k.k.k.k.k.k.k.k.k.k.k.k.k.k.k.k.k.k.k.k.k.k.k.k.k.k.k.k.k.k.k.k.k.k.",
"k.k.k.k.k.k.k.k.k.k.k.k.k.k.k.k.k.k.k.k.k.k.k.k.k.k.k.k.k.k.k.k.k.k.k.k.k.k.k.k.k.k.k.k.k.k.k.k.k.k.",
"k.k.k.k.k.k.k.k.k.k.k.k.k.k.k.k.k.k.k.k.k.k.k.k.k.k.k.k.k.k.k.k.k.k.k.k.k.k.k.k.k.k.k.k.k.k.k.k.k.k.",
"k.k.k.k.k.k.k.k.k.k.k.k.k.k.k.k.k.k.k.k.k.k.k.k.k.k.k.k.k.k.k.k.k.k.k.k.k.k.k.k.k.k.k.k.k.k.+.k.k.k.",
"k.k.k.k.k.k.k.k.k.k.k.k.k.k.k.k.k.k.k.k.k.k.k.k.k.k.k.k.k.k.k.k.k.k.k.k.k.k.k.k.k.k.k.k.k.k.6.k.k.k.",
"k.k.k.k.k.k.k.k.k.k.k.k.k.k.k.k.k.k.k.k.k.k.k.k.k.k.k.k.k.k.k.k.k.k.k.k.k.k.k.k.k.k.k.k.k.k.6.k.k.k.",
"k.k.k.k.k.k.k.k.k.k.k.k.k.k.k.k.k.k.k.k.k.k.k.k.k.k.k.k.k.k.k.k.k.k.k.k.k.k.k.k.k.k.k.k.k.k.*.X.k.k.",
"k.k.k.k.k.k.k.k.k.k.k.k.k.k.k.k.k.k.k.k.k.k.k.k.k.k.k.k.k.k.k.k.k.k.k.k.k.k.k.k.k.k.k.k.k.k.*.g.k.k.",
"k.k.k.k.k.k.k.k.k.k.k.k.k.k.k.k.k.k.k.k.k.k.k.k.k.k.k.k.k.k.k.k.k.k.k.k.k.k.k.k.k.k.k.k.k.k.*.g.k.k.",
"k.k.k.k.k.k.k.k.k.k.k.k.k.k.k.k.k.k.k.k.k.k.k.k.k.k.k.k.k.k.k.k.k.k.k.k.k.k.k.k.k.k.k.k.k.k.f.y.k.k.",
"k.k.k.k.k.k.k.k.k.5 k.k.k.k.k.k.k.k.k.k.k.k.k.k.k.k.k.k.k.k.k.k.k.k.k.k.k.k.k.k.k.k.k.k.k.k.h.9.k.k.",
"k.k.k.k.k.k.k.k.k.5 6 k.k.k.k.k.k.k.k.k.k.k.k.k.k.k.k.k.k.k.k.k.k.k.k.k.k.k.k.k.k.k.k.k.k.+.p.u.k.k.",
"k.k.k.k.k.k.k.k.k.5 5 k.k.k.k.k.k.k.k.k.k.k.k.k.k.k.k.k.k.k.k.k.k.k.k.k.k.k.k.k.k.k.k.k.k.h.y.-.k.k.",
"k.k.k.k.k.k.k.k.k.k.5 5 k.k.k.k.k.k.k.k.k.k.k.k.k.k.k.k.k.k.k.k.k.k.k.k.k.k.k.k.k.k.k.k.k.f.g.k.k.k.",
"k.k.k.k.k.k.k.k.k.k.k.5 5 k.k.k.k.k.k.k.k.k.k.k.k.k.k.k.k.k.k.k.k.k.k.k.k.k.k.k.k.k.k.k.7.r.f.k.k.k.",
"k.k.k.k.k.k.k.k.k.k.k.5 5 5 k.k.k.k.k.k.k.k.k.k.k.k.k.k.k.k.k.k.k.k.k.k.k.k.k.k.k.k.k.k.h.y.g.k.k.k.",
"k.k.k.k.k.k.k.k.k.k.k.k.5 5 5 k.k.k.k.k.k.k.k.k.k.k.k.k.k.k.k.k.k.k.k.k.k.k.k.k.k.k.k.e.u.q.p.k.k.k.",
"k.k.k.k.k.k.k.k.k.k.k.k.k.5 5 5 k.k.k.k.k.k.k.k.k.k.k.k.k.k.k.k.k.k.k.k.k.k.k.k.k.k.k.d.q.q.p.k.k.k.",
"k.k.k.k.k.k.k.k.k.k.k.k.k.5 5 5 k.k.k.k.k.k.k.k.k.k.k.k.k.k.k.k.k.k.k.k.k.k.k.k.k.k.>.u.y.9.g.k.k.k.",
"k.k.k.k.k.k.k.k.k.k.k.k.k.k.5 5 5 5 k.k.k.k.k.k.k.k.k.k.k.k.k.k.k.k.k.k.k.k.k.k.k.k.f.y.y.y.y.k.k.k.",
"k.k.k.k.k.k.k.k.k.k.k.k.k.k.5 5 5 5 k.k.k.k.k.k.k.k.k.k.k.k.k.k.k.k.k.k.k.k.k.k.k.=.u.y.9.g.X.k.k.k.",
"k.k.k.k.k.k.k.k.k.k.k.k.k.k.k.4 5 5 5 k.k.k.k.k.k.k.k.k.k.k.k.k.k.k.k.k.k.k.k.k.k.h.y.y.9.g.X.k.k.k.",
"k.k.k.k.k.k.k.k.k.5 5 k.k.k.k.k.4 5 5 k.k.k.k.k.k.k.k.k.k.k.k.k.k.k.k.k.k.k.k.k.9.r.w.y.y.k.k.k.k.k.",
"k.k.k.k.k.k.k.k.k.k.5 k.k.k.k.k.4 5 5 5 k.k.k.k.k.k.k.k.k.k.k.k.k.k.k.k.k.k.k.=.f.9.t.w.u.k.k.k.k.k.",
"k.k.k.k.k.k.k.k.k.k.4 5 k.k.k.k.k.5 5 5 5 k.k.k.k.k.k.k.k.k.k.k.k.k.k.k.k.k.7.d.0.t.t.u.8.k.k.k.k.k.",
"k.k.k.k.k.k.k.k.k.k.k.5 5 k.k.k.k.5 5 5 5 k.k.k.k.k.k.k.k.k.k.k.k.k.k.k.k.! g.0.t.t.9.g.k.k.k.k.k.k.",
"k.k.k.k.k.k.k.k.k.k.k.5 5 5 k.k.k.5 > 5 4 5 k.k.k.k.k.k.k.k.k.k.k.k.k.k.k.f.y.9.t.t.0.u.k.k.k.k.k.k.",
"k.k.k.k.k.k.k.k.k.k.k.5 5 5 5 5 5 5 5 5 5 5 k.k.k.k.k.k.k.k.k.k.k.k.k.k.*.a.0.y.t.t.u.-.k.k.k.k.k.k.",
"k.k.k.k.k.k.k.k.k.k.k.k.5 5 5 5 5 5 5 5 4 5 k.k.k.k.k.k.k.k.k.k.k.k.k.k.g.y.y.0.t.t.a.=.k.k.k.k.k.k.",
"k.k.k.k.k.k.k.k.k.k.k.k.k.5 5 5 5 5 5 5 4 4 5 6 k.k.k.k.k.k.k.k.k.k.k.8.u.9.t.y.t.y.u.k.k.k.k.k.k.k.",
"k.k.k.k.k.k.k.k.k.k.k.k.k.3 5 5 5 4 5 5 5 4 5 5 k.k.k.k.k.k.k.k.k.k.+.d.9.t.t.t.w.a.$.k.k.k.k.k.k.k.",
"k.k.k.k.k.k.k.k.k.k.k.k.k.k.5 5 4 5 4 5 4 5 5 4 5 k.k.k.k.k.k.k.k.k.f.t.y.y.t.0.r.r.k.k.k.k.k.k.k.*.",
"k.k.k.k.k.k.k.k.k.k.k.k.k.k.4 5 4 5 4 4 4 4 4 5 5 5 k.k.k.k.k.k.k.:.i.0.0.y.t.t.g.k.k.k.k.h.^ k.j./ ",
"k.k.k.k.k.k.k.k.k.k.k.k.k.k.k.4 5 4 5 4 4 4 5 4 5 4 , k.k.k.k.k.k.g.y.y.t.t.t.u.8.k.k.k.u.y.9.:.h./ ",
"k.k.k.k.k.k.k.k.k.k.k.k.k.k.k.k.5 5 4 5 4 5 4 5 5 5 * A %.k.k.7.9.u.e.t.t.0.y.u.k.k.2.8.u.0.y.g.8.k.",
"k.k.k.k.k.k.k.k.k.k.k.k.k.k.k.k.5 4 5 4 5 4 5 5 > > E 9.p k.k.8.u.0.9.0.t.t.y.y.] ` 8.p.9.y.y.i.k.k.",
"k.k.k.k.k.k.k.k.k.k.k.k.k.k.k.k.4 4 4 4 4 4 < * * A i.X.k.*.g.y.0.t.0.y.y.t.y.y.3.u.w.y.y.9.u.=.k.k.",
"k.k.k.k.k.k.k.k.k.k.k.k.k.k.k.k.k.4 4 4 4 4 > p p y.y.k.T i.y.y.y.y.t.t.t.y.y.0.y.y.y.w.y.y.u.k.k.k.",
"k.k.k.k.k.k.k.k.k.k.k.k.k.k.k.k.k.5 4 4 5 * i y.y.u.Q ..i.y.w.t.0.t.t.y.y.t.t.0.y.y.t.t.0.d.X.k.k.k.",
"k.k.k.k.k.k.k.k.k.k.k.k.k.k.k.k.k.k.4 4 > > +.d.i.*.Y u.u.9.t.t.0.0.y.t.t.0.y.y.t.t.w.0.y.2.k.k.k.k.",
"k.k.k.k.k.k.k.k.k.k.k.k.k.k.k.k.k.k.5 = 7 =.y.y.y.8.3.u.0.y.t.t.r.0.y.t.y.y.t.y.t.t.y.y.8.k.k.k.k.k.",
"k.k.k.k.k.k.k.k.k.k.k.k.k.k.k.k.k.k.= * ..g.y.t.w.y.u.0.t.t.y.t.y.t.0.y.t.0.y.t.t.t.t.u.4.k.k.k.k.k.",
"k.k.k.k.k.k.k.k.k.k.k.k.k.k.k.k.k.k.k.! r.r.0.y.t.t.t.y.0.y.0.t.0.y.t.t.y.0.t.y.y.y.y.u.4.S k.k.k.k.",
"k.k.k.k.k.k.k.k.k.k.k.k.k.k.k.k.k.k.+.g.y.t.t.t.y.y.y.t.t.y.t.y.y.t.y.0.y.t.0.y.t.y.y.r.R y k.k.k.k.",
"k.k.k.k.k.k.k.k.k.k.k.k.k.k.k.k.k.g.y.y.y.y.y.0.t.y.t.0.t.0.y.0.t.y.y.y.r.0.t.y.t.t.u.8.= 5 k.k.k.k.",
"k.k.k.k.k.k.k.k.k.k.k.k.k.k.k.y.t.y.y.0.0.0.y.t.y.t.y.y.y.y.y.t.0.y.t.t.0.0.t.t.t.t.u.7.- 6 k.k.k.k.",
"k.k.k.k.k.k.k.k.k.k.k.k.k.k.k.g.u.0.t.t.t.y.0.0.t.y.y.y.0.t.r.0.0.t.y.0.t.y.0.0.t.y.i.Y * 5 k.k.k.k.",
"k.k.k.k.k.k.k.k.k.k.k.k.k.g.:.r.9.t.y.t.0.y.t.y.y.t.0.t.t.y.0.0.y.y.t.y.t.0.y.w.y.i.O.* > , n k.k.k.",
"k.k.k.k.k.k.k.k.k.k.k.k.k.u.u.9.t.0.t.y.t.y.0.y.t.y.y.0.0.y.t.t.y.t.t.t.y.0.u.8.4.w.v = 5 = y k.k.k.",
"k.k.k.k.k.k.k.k.k.k.k.k.8.r.y.y.y.y.y.t.0.y.t.t.y.0.t.y.t.y.t.y.t.t.t.w.y.u.3.@.5.:.f 9 3 > 7 k.k.k.",
"k.k.k.k.k.r.k.k.k.k.k.i.y.t.t.t.t.0.t.y.t.t.0.y.t.y.y.y.0.0.t.y.t.t.t.u.y.8.{ &.a.$.g h 5 > 0 k.k.k.",
"k.k.k.k.+.e.k.k.k.g.9.y.y.y.t.y.y.y.0.y.t.t.t.t.0.y.y.t.t.y.y.t.t.y.y.y.3.K 8.u.9.M h j t = 0 k.k.k.",
"k.k.k.k.g.k.k.k.8.y.u.0.0.t.w.t.0.0.t.y.y.y.y.9.t.0.w.t.0.y.y.0.y.y.y.%.K @.u.g.T < j j t * 7 U k.k.",
"k.k.k.k.h.k.k.#.p.q.t.t.0.y.w.4.2.u.y.t.0.t.y.w.y.e.2.w.t.t.y.t.y.u.8.J P y.u.#.= < j N r 3  .I k.k.",
"k.k.k.#.%.k.k.r.y.y.y.y.y.y.3.4.3.w.t.t.y.y.w.u.y.&.3.u.y.y.y.u.y.3.} J 3.y.g. .& 2 c c f 6 4.I W ^ ",
"k.k.7.h.D k.@.y.y.y.y.y.9.4.2.9.y.0.t.t.y.u.4.2.&.&.y.y.t.r.w.3.3.L J @.r.u.*.m * 2 c j x 9 <.I d...",
"k.k.9.u.} K 8.y.y.y.r.q.1.&.u.t.y.y.u.y.9.9.{ I | e.y.y.y.t.3.P K L ' 8.a.9.6 > 4 6 j j h 2 %.P e...",
"k.! a.q.} %.r.y.y.y.w.@.} t.w.y.y.y.w.9.{ K { 0.0.w.w.y.y.&.L P ' ' K 8.a.Y = r 3 8 c j h i =.I r...",
"k./ g.q.| e.y.y.r.%.{ L 3.r.0.y.r.9.} } L J 3.u.y.t.w.w.} L L P { L J 0.=.* 6 t 3 z j h f _ 4.| g. .",
"k.^ g.y.| y.r.9.| K F %.u.w.w.9.| | J J { 4.w.y.y.y.p.&.J L { ' ' K @.w.i * 6 z 6 h c j f =.u.9.g.k.",
"k.4.a.y.3.y.8.| H @.1.9.p.8.&.@.J K L K 3.u.y.y.y.w.&.{ L ' ' { P { t.3.n * 6 c 6 z N g C 8.y.p.1.k.",
"k.&.3.y.p.8.} H } 9.u.y.3.@.H L { { L %.r.y.y.y.u.2.J L L L { L J 2.y.,.b = 6 j r z j s ~ i.9.d.` k.",
"k.k.k.[ a.3.J { 4.u.w.y.@.J ' L ' ' K &.y.y.y.y.4.{ K L P ' ' J } y.2.Z > 3 1 c j c g M _ u.y.u.k.k.",
"k.k.k.k.y.3.J | y.9.9.y.4.K { { ' { K } 0.u.y.3.L L { { { ' { { 3.e.I + * 5 5 c j g h :.r.t.u.3.k.k.",
"k.k.k.k.D | L { } ] } } } L ' ' { ' K 1.w.w.@.' K ' ' ' L L ] 0.<.,.e X 5 4 5 c j f ) r.<.y.u.2.k.k.",
"k.k.k.k.k.k.k.D ' K K P K L I L L ] 8.w.@.| ' L P { { P L I 3.&.| H O X @ 5 t j c c %.} [ p.2.k.k.k.",
"k.k.k.k.k.k.k.k.k.k.k.k.} } L { K [ t.&.K J ' { { } { L L { @.I I $   . o i j d ( k.k.J y.=.k.k.k.k.",
"k.k.k.k.k.k.k.k.k.k.k.k.k.k.} I L } @.J I } { J k.k.} ' L { L { K : ; # % f j V =.k.k.k.3.k.k.k.k.k.",
"k.k.k.k.k.k.k.k.k.k.k.k.k.k.k.K { { L ' I k.k.k.k.k.S { L ' { I { { k.M N B T I k.k.k.k.k.k.k.k.k.k.",
"k.k.k.k.k.k.k.k.k.k.k.k.k.k.k.S { L L { { k.k.k.k.k.k.,.L { ' { | k.k.k.k.I P k.k.k.k.k.k.k.k.k.k.k."
};
