/* XPM */
static char *result[] = {
/* columns rows colors chars-per-pixel */
"50 100 140 2 ",
"   c #0F8687",
".  c #108587",
"X  c #1C9495",
"o  c #249A9C",
"O  c #2A9B9B",
"+  c #309D9C",
"@  c #25A3A3",
"#  c #2EA0A0",
"$  c #35A3A2",
"%  c #35A9A9",
"&  c #3CACAC",
"*  c #3FB1AF",
"=  c #40A3A3",
"-  c #43AEAE",
";  c #45B0AF",
":  c #4BB3AD",
">  c #53B6AF",
",  c #56B8AC",
"<  c #5ABBAD",
"1  c #44AEB0",
"2  c #4BAEB2",
"3  c #56ADB5",
"4  c #47B0B0",
"5  c #49B1B1",
"6  c #53B5B3",
"7  c #5AB4B6",
"8  c #5BB9B5",
"9  c #5DB3B9",
"0  c #54B9B9",
"q  c #5BB8B8",
"w  c #67AEAE",
"e  c #77AEBA",
"r  c #64BEB1",
"t  c #6BBEB7",
"y  c #60B4BA",
"u  c #6BBEBD",
"i  c #66C2AF",
"p  c #6BC4AA",
"a  c #74C8AF",
"s  c #6CC2B0",
"d  c #74C6B2",
"f  c #79C7B2",
"g  c #76C8B0",
"h  c #7DC9B3",
"j  c #76C2BA",
"k  c #73B5C1",
"l  c #7DB6C5",
"z  c #73B9C1",
"x  c #7BBCC4",
"c  c #7CC2C2",
"v  c #83CCB4",
"b  c #8BCEB7",
"n  c #90CFBC",
"m  c #8FD0B7",
"M  c #84B1C1",
"N  c #8EBDCC",
"B  c #93B4CB",
"V  c #9CB7CF",
"C  c #93BDCD",
"Z  c #98BCCF",
"A  c #9FB5D3",
"S  c #97BFD0",
"D  c #9DBCD1",
"F  c #A4B7D5",
"G  c #A6BAD4",
"H  c #ABBDD7",
"J  c #AEBFD8",
"K  c #B3BEDA",
"L  c #84C5C5",
"P  c #89C6C6",
"I  c #8DC8C9",
"U  c #9EC6C6",
"Y  c #92CBCA",
"T  c #9ACDCE",
"R  c #9FD4C0",
"E  c #9ED0CE",
"W  c #A3CDCD",
"Q  c #A9CFCE",
"!  c #A0D1C8",
"~  c #AEC0D7",
"^  c #A6C5D8",
"/  c #AFC0D8",
"(  c #B0C6D4",
")  c #B6C9D7",
"_  c #B2C1D9",
"`  c #BBC5DD",
"'  c #B6C9D9",
"]  c #BDCBDB",
"[  c #A5D3D2",
"{  c #ADD2D2",
"}  c #B3D3D3",
"|  c #BCD6D6",
" . c #B5DBDB",
".. c #BBD9D8",
"X. c #BEC4E0",
"o. c #BFC9E0",
"O. c #C2CDDD",
"+. c #C5D2DD",
"@. c #C9D2DF",
"#. c #C4DBDB",
"$. c #CCDEDE",
"%. c #D1DFDF",
"&. c #CCE1DF",
"*. c #D3E5DA",
"=. c #C1C6E1",
"-. c #C8C5E0",
";. c #CACDE4",
":. c #D1CEE5",
">. c #CDD4E1",
",. c #D2D6E3",
"<. c #D8D6E6",
"1. c #D4DAE2",
"2. c #DADEE4",
"3. c #DBD5E9",
"4. c #DFD9E9",
"5. c #E3DEEB",
"6. c #CBE1E1",
"7. c #D4E3E3",
"8. c #DCE2E4",
"9. c #DCE9E6",
"0. c #DCE3E8",
"q. c #D3E9E9",
"w. c #E4E6E7",
"e. c #E7E8E7",
"r. c #E8E8E7",
"t. c #E5E4E9",
"y. c #EBE5EB",
"u. c #E7E8E8",
"i. c #EAE9E9",
"p. c #F2EDEC",
"a. c #FAEEEE",
"s. c #F4F0EC",
"d. c #F8F1EF",
"f. c #F6EDF0",
"g. c #F9EFF0",
"h. c #F6F1F1",
"j. c #FDF3F3",
"k. c #FFF8F5",
"l. c #FEF9F9",
"z. c None",
/* pixels */
"z.z.z.z.z.z.z.z.z.z.z.z.z.z.z.z.z.z.z.z.z.z.z.z.z.z.z.z.z.z.z.z.z.z.z.z.z.z.z.z.z.z.z.z.z.z.z.z.z.z.",
"z.z.z.z.z.z.z.z.z.z.z.z.z.z.z.z.z.z.z.z.z.z.z.z.z.z.z.z.z.z.z.z.z.z.z.z.z.z.z.z.z.z.z.z.z.z.z.z.z.z.",
"z.z.z.z.z.z.z.z.z.z.z.z.z.z.z.z.z.z.z.z.z.z.z.z.z.z.z.z.z.z.z.z.z.z.z.z.z.z.z.z.z.z.z.z.z.z.z.z.z.z.",
"z.z.z.z.z.z.z.z.z.z.z.z.z.z.z.z.z.z.z.z.z.z.z.z.z.z.z.z.z.z.z.z.z.z.z.z.z.z.z.z.z.z.z.z.z.z.z.z.z.z.",
"z.z.z.z.z.z.z.z.z.z.z.z.z.z.z.z.9.z.z.z.z.z.z.z.z.z.z.z.z.z.z.z.z.z.z.z.z.z.z.z.z.z.z.z.z.z.z.z.z.z.",
"z.z.z.z.z.z.z.z.z.z.z.z.z.z.z.7.0.z.z.z.z.z.z.z.z.z.z.z.z.z.z.z.z.0 z.z.z.z.z.z.z.z.z.z.z.z.z.z.z.z.",
"z.z.z.z.z.z.z.z.z.z.z.z.z.z.z.l.z.z.z.z.z.z.z.z.z.z.z.z.z.z.z.z.z.5 z.z.z.z.z.z.z.z.z.z.z.z.z.z.z.z.",
"z.z.z.z.z.z.z.z.z.z.z.z.z.z.h.| z.z.z.z.0.z.z.z.z.z.z.z.z.z.z.z.z.z.5 z.z.z.z.z.z.z.z.z.z.z.z.z.z.z.",
"z.z.z.z.z.z.z.z.z.z.z.z.z.} h.z.z.z.z.t.z.z.z.z.z.z.z.z.z.z.z.z.z.z.0 - z.z.z.z.z.z.z.z.z.z.z.z.z.z.",
"z.z.z.z.z.z.z.z.z.z.z.z.z.l.z.z.z.| j.z.z.z.z.z.z.z.z.z.z.z.z.z.z.z.& 5 z.z.z.z.z.z.z.z.z.z.z.z.z.z.",
"z.z.z.z.z.z.z.z.z.z.z.z.#.l.z.z.9.i.' z.z.z.z.z.z.z.z.z.z.z.z.z.z.z.z.5 5 z.z.z.z.z.z.z.z.z.z.z.z.z.",
"z.z.z.z.z.z.z.z.z.z.z.z.j.8.z.z.k.~ z.z.z.z.z.z.z.z.z.z.z.z.z.z.z.z.z.z.5 5 z.z.z.z.z.z.z.z.z.z.z.z.",
"z.z.z.z.z.z.z.z.z.z.z.8.j.w #.i.y.z.z.z.z.z.z.z.z.z.z.z.z.z.z.z.z.z.z.z.5 5 z.z.z.z.z.z.z.z.z.z.z.z.",
"z.z.z.z.z.z.z.z.z.z.z.l.W z.i.j.z.z.z.z.z.z.z.z.z.z.z.z.z.z.z.z.z.z.z.z.6 2 z.z.z.z.z.z.z.z.z.z.z.z.",
"z.z.z.z.z.z.z.z.z.z.i.h.} | d.t.z.z.z.z.z.z.z.z.z.z.z.z.z.z.z.z.z.z.z.z.4 5 & c z.z.z.z.z.z.z.z.z.z.",
"z.z.z.z.z.z.z.z.z...a.w.p.p.y.J z.z.z.z.z.z.z.z.z.z.z.z.z.z.z.z.z.z.z.z.z.5 & c z.z.z.z.z.z.z.z.z.z.",
"z.z.z.z.z.z.z.z.z.h.i.i.u.i.>.B z...z.z.z.z.z.z.z.z.z.z.z.z.z.z.z.z.z.z.z.5 & q z.z.z.z.z.z.z.z.z.z.",
"z.z.z.z.z.z.z.z.#.h.i.u.i.8.H G 4.$.z.z.z.z.z.z.z.z.z.z.z.z.z.z.z.z.z.z.z.5 2 % [ z.z.z.z.z.z.z.z.z.",
"z.z.z.z.z.z.z.z.#.p.w.i.p.O.G ` d.| z.z.z.z.z.z.z.z.z.z.z.z.z.z.z.z.z.z.z.z.5 % T z.z.z.z.z.z.z.z.z.",
"z.z.z.z.z.z.z.z.j.w.i.i.i.O.G w.i.z.z.z.z.z.z.z.z.z.z.z.z.z.z.z.z.z.z.z.z.z.6 % Y 6.z.z.z.z.z.z.z.z.",
"z.z.z.z.z.z.z.w.i.i.r.i.2.G ] k.z.z.z.z.z.z.z.z.z.z.z.z.z.z.z.z.z.z.z.z.z.z.5 4 * q.z.z.z.z.z.z.z.z.",
"z.z.z.z.z.z.Q h.u.i.i.i._ H i.8.z.z.z.z.z.z.z.z.z.z.z.z.z.z.z.z.z.z.z.z.z.z.5 4 % q.z.z.z.z.z.z.z.z.",
"z.z.z.z.z.z.{ h.w.r.i.i.H @.k.z.z.z.z.z.z.z.z.z.z.z.z.z.z.z.z.z.z.z.z.z.z.z.4 r - 6.8.z.z.z.z.z.z.z.",
"z.z.z.z.z.z.u.i.r.r.p.,._ p...z.z.z.z.z.z.z.z.z.z.z.z.z.z.z.z.z.z.z.z.z.z.z.# s & 7.h.z.z.z.z.z.z.z.",
"z.z.z.z.z.z.j.w.i.i.w./ >.k.z.z.z.z.z.z.z.z.z.z.z.z.z.z.z.z.z.z.z.z.z.z.0 & X r : I p.z.z.z.z.z.z.z.",
"z.z.z.z.z.Q h.w.i.i.,.' d.i.z.z.z.z.z.z.z.z.z.z.z.z.z.z.z.z.z.z.z.z.z.z.z.-   8 < 5 p.z.z.z.z.z.z.z.",
"z.z.z.z.z.p.r.i.i.i.2.2.j.} z.z.z.z.z.z.z.z.z.z.z.z.z.z.z.z.z.z.z.z.z.z.z.5   z.i q f.;.z.z.z.z.z.z.",
"z.z.z.z.} h.r.i.u.u.i.i.i.z.z.z.z.z.z.z.z.z.z.z.z.z.z.z.z.z.z.z.z.z.z.z.z.q o O h t u.,.z.z.z.z.z.z.",
"z.z.z.z.} d.8.w.i.i.w.p.2.z.z.z.z.z.z.z.z.z.z.z.z.z.z.z.z.z.z.z.z.z.z.z.z.0 O $ g t i.y.z.z.z.z.z.z.",
"z.z.z.z.h.i._ >.i.u.w.d.z.z.z.z.z.z.z.z.z.z.z.z.z.z.z.z.z.z.z.z.z.z.z.z.z.z.4 4 , u y.w.=.z.z.z.z.z.",
"z.z.z.z.j.>._ i.i.u.p.] z.z.z.z.z.z.z.z.z.z.z.z.z.z.z.z.z.z.z.z.z.z.z.z.z.z.0 * , s p.0._ z.z.z.z.z.",
"z.z.z.$.p./ 1.i.i.i.d.] z.z.z.z.z.z.z.z.z.z.z.z.z.z.z.z.z.z.z.z.z.z.z.z.z.z.5 1 , b i.i.;.z.z.z.z.z.",
"z.z.z.8.@.F 0.i.i.i.u.G z.z.z.z.z.z.z.z.z.z.z.z.z.z.z.z.z.z.z.z.z.z.z.z.z.z.2 1 , m i.p.@.z.z.z.z.z.",
"z.z.z.t._ O.i.i.u.i.8.A z.&.z.z.z.z.z.z.z.z.z.z.z.z.z.z.z.z.z.z.z.z.z.z.z.z.1 4 , m y.p.@.z.z.z.z.z.",
"z.z.z.y.A @.s.w.i.i.O.G t.z.z.z.z.z.z.z.z.z.z.z.z.z.z.z.z.z.z.z.z.z.z.z.z.z.O 4 , m y.p.@.z.z.=.z.z.",
"z.z.#.>.H 1.i.w.i.i.H O.7.z.z.z.z.z.z.z.z.z.z.z.z.z.z.z.z.z.z.z.z.z.z.z.z.z.% 4 : b i.p.@.z.z.J +.z.",
"z.z.4.H _ i.i.r.i.2.H p.Q z.z.z.z.z.z.z.z.z.z.z.z.z.z.z.z.z.z.z.z.z.z.z.z.z.6 4 & j p.p.O.H z.K +.z.",
"z.z._ H ] r.i.y.p.O.O.j.z.z.z.z.z.z.z.z.z.z.z.z.z.z.z.z.z.z.z.z.z.z.z.z.z.z.- 5 & v y.p.,.J z._ +.z.",
"z.z._ H w.i.u.i.i.>.i.$.z.z.z.z.z.z.z.z.z.z.z.z.z.z.z.z.z.z.z.z.z.z.z.z.z.z.- 5 & h p.i.i.' z.H 2.z.",
"z.z.z.J 2.i.u.u.i.i.p.z.z.z.z.z.z.z.z.z.z.z.z.z.z.z.z.z.z.z.z.z.z.z.z.z.z.z.2 5 & h p.i.i._ z.O.p.z.",
"z.z.z.O.p.i.w.i.i.u.h.z.z.z.z.z.z.z.z.z.z.z.z.z.z.z.z.z.z.z.z.z.z.z.z.z.z.z.z.5 & j p.y.r.' z.O.p.z.",
"z.z.z.O.p.w.w.i.i.h.#.z.z.z.z.z.z.z.z.z.z.z.z.z.z.z.z.z.z.z.z.z.z.z.z.z.z.z.z.6 & v p.i.y.' z.O.p.z.",
"z.z.z.8.r.i.i.i.y.i.z.z.z.z.z.z.z.z.z.z.z.z.z.z.z.z.z.z.z.z.z.z.z.z.z.z.z.z.z.5 & h p.i.r._ z.O.p.z.",
"z.z.o.u.i.u.i.w.p...z.z.z.z.z.z.z.z.z.z.z.z.z.z.z.z.z.z.z.z.z.z.z.z.z.z.z.z.z.5 & h p.i.y.' z.O.p.z.",
"z.z.<.i.i.w.i.w.j.z.z.z.z.z.z.z.z.z.z.z.z.z.z.z.z.z.z.z.z.z.z.z.z.z.z.z.z.z.z.5 & j i.i.i.' G ] p.z.",
"z.z.y.i.r.i.i.i.i.z.z.z.z.z.z.z.z.z.z.z.z.z.z.z.z.z.z.z.z.z.z.z.z.z.z.z.z.z.z.; - ! p.i.i._ H 1.t.z.",
"z.z.5.i.y.r.u.p.#.z.z.z.z.z.z.z.z.z.z.z.z.z.z.z.z.z.z.z.z.z.z.z.z.z.z.z.z.z.+ 4 & 1.p.i.i._ J p.;.z.",
"z.~ t.i.r.i.i.y.C z.z.z.z.z.z.z.z.z.z.z.z.z.z.z.z.z.z.z.z.z.z.z.z.z.z.z.z.z.O - & $.p.w.i._ H i.>.z.",
"z.) d.u.r.r.p.O.2 z.z.z.z.z.z.z.z.z.z.z.z.z.z.z.z.z.z.z.z.z.z.z.z.z.z.z.z.U & 4 & $.p.i.r._ _ i.>.z.",
"z.) p.u.r.i.y.k ; z.z.z.z.z.z.z.z.z.z.z.z.z.z.z.z.z.z.z.z.z.z.z.z.z.z.z.z.}  .% & $.p.i.i.H %.s.3.z.",
"z.p.i.i.r.i.y.l ; z.z.z.z.z.z.z.z.z.z.z.z.z.z.z.z.z.z.z.z.z.z.z.z.z.z.z.z.}  .@ I p.r.r.i.J $.p.5.z.",
"z.d.w.@.i.p.7.- 4 z.z.z.z.z.z.z.z.z.z.z.z.z.z.z.z.z.z.z.z.z.z.z.z.z.z.z.z.{  .@ Y a.w.y.r.O.w.p.5.z.",
"z.j.O.O.i.p.] - 5 4 z.z.z.z.z.z.z.z.z.z.z.z.z.z.z.z.z.z.z.z.z.z.z.z.z.z.z.p.{ @ Y a.r.i.>.` i.i.5.z.",
"G 2.O.O.p.p.x % 5 5 z.z.z.z.z.z.z.z.z.z.z.z.z.z.z.z.z.z.z.z.z.z.z.z.z.z.z.j.{ @ L a.r.p.O._ i.s.5.z.",
"=.' K ] p.w.6 - 5 5 z.z.z.z.z.z.z.z.z.z.z.z.z.z.z.z.z.z.z.z.z.z.z.z.z.z.z.j.{ % #.p.w.p.O.>.i.w.:.z.",
"z.H H 1.s.<.3 - 5 5 z.z.z.z.z.z.z.z.z.z.z.z.z.z.z.z.z.z.z.z.z.z.z.z.z.z.z.j.W 5 p.i.r.r.1.u.i.1.X.z.",
"z.z.z.u.p.>.2 ; 5 5 6 z.z.z.z.z.z.z.z.z.z.z.z.z.z.z.z.z.z.z.z.z.z.z.z.z.z.j.[ z.i.i.i.i.i.i.i.w.z.z.",
"z.z.z.w.d.E # 5 5 5 5 z.z.z.z.z.z.z.z.z.z.z.z.z.z.z.z.z.z.z.z.z.z.z.z.z.z.j.W q p.i.y.w.u.r.r.5.z.z.",
"z.z.z.u.d.E % : 5 5 5 4 z.z.z.z.z.z.z.z.z.z.z.z.z.z.z.z.z.z.z.z.z.z.z.z.7.j.T ..p.i.i.w.i.i.w.o.z.z.",
"z.z.z.i.y.l & 2 4 5 4 5 z.z.z.z.z.z.z.z.z.z.z.z.z.z.z.z.z.z.z.z.z.z.z.z.7.w.z.#.p.w.i.i.u.r.r.z.z.z.",
"z.z.z.i.8.; ; : 5 4 5 5 z.z.z.z.z.z.z.z.z.z.z.z.z.z.z.z.z.z.z.z.z.z.z.z.%.8.P p.w.i.r.u.i.i.u.z.z.z.",
"z.z.z.p.0.1 ; ; 4 5 4 5 5 z.z.z.z.z.z.z.z.z.z.z.z.z.z.z.z.z.z.z.z.z.z.z.j.%.L p.w.y.i.u.u.i.>.z.z.z.",
"z.z.z.i.] - ; 5 5 5 5 5 5 5 z.z.z.z.z.z.z.z.z.z.z.z.z.z.z.z.z.z.z.z.z.W j.| } p.u.u.u.i.u.i.+.z.z.z.",
"z.z.z.p.) - ; 4 5 4 5 5 5 5 z.z.z.z.z.z.z.z.z.z.z.z.z.z.z.z.z.z.z.z.z.z.j.7.8.r.i.u.i.i.i.i.;.z.z.z.",
"z.z.z.p.' & 2 4 2 ; ; ; 5 4 5 z.z.z.z.z.z.z.z.z.z.z.z.z.z.z.z.z.z.z.z.$.p.i.i.u.u.u.i.w.w.s.@.z.z.z.",
"z.z.z.p.' 1 - 4 2 : 4 5 2 : 5 z.z.z.z.z.z.z.z.z.z.z.z.z.z.z.z.z.z.z.z.h.w.y.i.i.r.i.u.i.r.w.O.z.z.z.",
"z.z.z.t.' - 4 5 5 4 : ; 2 4 4 5 z.z.z.z.z.z.z.z.z.z.z.z.z.z.z.z.z.z.z.p.i.y.w.w.i.u.y.w.i.2.K z.z.z.",
"z.z.z.,.` - ; 4 4 ; 2 2 ; ; 5 : 6 z.z.z.z.z.z.z.z.z.z.z.z.z.z.z.z.z.6.h.i.r.r.i.w.i.r.r.i.2.X.z.z.z.",
"z.z.z.,.' & 5 5 - 5 4 5 5 5 5 5 5 z.z.z.z.z.z.z.z.z.z.z.z.z.z.z.z.z.*.y.w.y.i.u.i.i.u.w.i.8.` e M z.",
"z.z.z.+.+.& > r 2 - 5 ; 5 - 5 5 4 0 z.z.z.z.z.z.z.z.z.z.z.z.z.z.z.z.j.u.r.u.u.i.i.w.i.r.i.2.H p.<.z.",
"z.z.z.>.O.& , r - 2 5 5 5 - - 5 4 4 z.z.z.z.z.z.z.z.z.z.z.z.z.z.z.z.h.w.i.w.u.u.i.u.i.i.i._ H i.<.z.",
"z.z.z.z.>.& - r > - - 5 5 5 5 5 5 2 5 z.z.z.z.z.z.z.z.z.z.z.z.z.z.w.i.i.i.i.i.i.w.i.w.i.r.J ,.8.o.z.",
"z.z.z.z.o.& & r s 1 2 4 5 5 5 5 5 4 5 z.z.z.z.z.z.z.z.z.z.z.z.z.z.i.i.i.2.1.i.i.w.i.y.r.i.J 1.8.X.z.",
"z.z.z.z.A x % s g 1 ; 2 5 5 - 5 4 5 5 5 z.z.z.z.z.z.z.z.z.z.z.z.z.p.i.p.1.1.i.i.i.r.w.i.w._ u.t.F z.",
"z.z.z.z.z.S % 6 a > - 4 5 - 5 - 5 5 5 5 4 z.z.z.z.z.z.z.z.z.z.z.i.i.r.i.` ,.i.u.i.w.r.i.w.2.i.>.A z.",
"z.z.z.z.z.P & 1 f 8 1 5 5 5 5 5 5 ; 5 5 5 5 z.z.z.z.z.z.z.z.z...h.w.i.w.) 2.i.i.i.i.i.w.r.p.w.` G z.",
"z.z.z.z.z.^ 1 4 f p 2 2 ; 4 5 4 2 2 4 ; 4 5 z.z.z.z.z.z.z.z.z.i.i.i.p.2.O.p.u.r.w.w.i.i.i.i.r.` z.z.",
"z.z.z.z.z.z.9 * p h , - 5 ; ; 4 ; : 4 5 : 5 5 z.z.z.z.z.z.z.z.i.i.i.i.' +.i.i.r.i.i.w.u.i.i.8.=.z.z.",
"z.z.z.z.z.z.z & 5 h a - 4 5 2 2 5 4 : 2 5 4 5 5 z.z.z.z.z.z.1.h.w.i.>.H u.i.y.w.r.u.i.i.u.i.O.K z.z.",
"z.z.z.z.z.z._ & 6 h h < 1 ; ; : ; ; ; 2 4 5 4 5 4 z.z.z.z.z.h.w.i.u._ _ w.i.u.u.i.i.i.w.i.i.<.z.z.z.",
"z.z.z.z.z.z.` 5 - r h a 2 1 - 2 5 5 5 5 5 5 - 5 2 z.z.z.z.7.p.u.i.>.F 1.i.i.w.i.i.i.w.O.r.p.<.z.z.z.",
"z.z.z.z.z.z.z.z % p h h r 1 : 2 5 - - 5 4 5 5 5 % u l.z.} p.y.i.8./ G 1.i.i.i.u.w.i.i.O.i.2.` z.z.z.",
"z.z.z.z.z.z.z.` 2 : a h h : 1 2 % 8 I & 5 5 5 4 - 6. .z.i.i.w.i.8.H G 1.p.i.i.i.i.i.,.' p.8.` z.z.z.",
"z.z.z.z.z.z.z.z.z.- a h h s - @ t O.C % 5 5 5 % P j.j #.p.u.r.p.;.J G ,.i.i.i.w.w.p.@.J d.O.K z.z.z.",
"z.z.z.z.z.z.z.z.z.2 r h v p d [ ..-.7 & 5 5 & 5 r.%.I p.i.i.i.8.H H ' u.i.w.w.i.i.r.' ,.2.K _ z.z.z.",
"z.z.z.z.z.z.z.z.z.z.; p p n *.p.:.l * ; 5 - # { j.L %.p.i.i.i.` H H O.i.i.i.i.r.i.w.G i.@.K z.z.z.z.",
"z.z.z.z.z.z.z.z.z.z.% j ! *.p.` G 4 ; 5 - 5 L a.} T j.w.r.p.w.G / H ] s.w.i.y.w.i.1.H w.O.=.z.z.z.z.",
"z.z.z.z.z.z.z.z.z.z.0 #.g.p.;.K e * 4 ; % P j.p.I w.i.r.r.i.<.H _ H ] i.w.i.u.u.i.` ~ 1.H _ z.z.z.z.",
"z.z.z.z.z.z.z.z.z.z.$.g.i.w._ D - 2 5 - 7 w.p.u.p.r.w.i.i.i.' H _ H O.i.r.i.i.i.r.' H ,.=.z.z.z.z.z.",
"z.z.z.z.z.z.z.z.z.w.i.i.i.] _ 9 & - - u p.i.w.u.i.r.i.r.i.>.G _ ~ K w.i.r.i.i.i.@.H _ J ` z.z.z.z.z.",
"z.z.z.z.z.z.z.z.p.w.r.p.2.K C & 5 % k t.s.8.J w.i.r.u.i.w.~ _ K _ J w.i.i.i.i.O.H _ _ _ J z.z.z.z.z.",
"z.z.z.z.z.z.z.i.y.r.r.r.` H 5 & % I w.p.,.J H u.i.i.y.i.O.H ~ _ H J w.i.w.i.8.H K _ _ _ _ z.z.z.z.z.",
"z.z.z.z.z.i.w.i.r.i.i.%.H J Z Z Z ` 2.` ' G >.i.i.r.p.2.H J _ ~ H H w.i.y.i.' H ~ _ H =.z.z.z.z.z.z.",
"z.z.z.z.z.z.j.u.r.i.r._ J _ _ _ K ` ' H / G 1.i.w.i.,.' H _ H _ H @.i.r.s.,.H _ _ H ' G z.z.z.z.z.z.",
"z.z.z.z.z.z.l.w.r.i.+.G K _ _ J J J H K H _ w.i.s.w.~ H _ H _ _ H O.p.i.>._ J _ _ _ O.z.z.z.z.z.z.z.",
"z.z.z.z.z.z.w.i.p.2.H J J _ J _ _ _ J _ ~ @.s.w.>.O.H J _ _ _ J _ ~ @.,.H J _ z.z.H B z.z.z.z.z.z.z.",
"z.z.z.z.z.z.z.h.i.` H _ _ _ _ _ _ H _ H ` s.w.O.G H K _ J _ _ _ _ J H G _ J z.z.z.z.z.z.z.z.z.z.z.z.",
"z.z.z.z.z.z.z.9.1.J _ H z.G _ _ ~ K _ H @.w.] G J _ J _ _ _ z.z.z._ _ _ ` z.z.z.z.z.z.z.z.z.z.z.z.z.",
"z.z.z.z.z.z.z.z.z.` z.z.z.z.z.H _ _ / / ~ H H _ _ H z.z.z.z.z.z.z.H H z.` z.z.z.z.z.z.z.z.z.z.z.z.z.",
"z.z.z.z.z.z.z.z.z.z.z.z.z.z.z.z.` ~ _ _ _ ~ _ H ` z.z.z.z.z.z.z.z.z.z.z.z.z.z.z.z.z.z.z.z.z.z.z.z.z."
};
