/* XPM */
static char *result[] = {
/* columns rows colors chars-per-pixel */
"50 100 174 2 ",
"   c #027C7D",
".  c #068383",
"X  c #0B8585",
"o  c #0D8A8A",
"O  c #138B8B",
"+  c #1B8B8B",
"@  c #159191",
"#  c #1C9292",
"$  c #248F8F",
"%  c #229595",
"&  c #2C9292",
"*  c #279999",
"=  c #2C9D9D",
"-  c #309E9E",
";  c #27A3A3",
":  c #2CA3A3",
">  c #2BA8A6",
",  c #2DA6A8",
"<  c #32A2A2",
"1  c #3BA6A6",
"2  c #35AAA9",
"3  c #3CACAC",
"4  c #4F9696",
"5  c #459C9C",
"6  c #4A9E9E",
"7  c #46A7A7",
"8  c #43AEAE",
"9  c #48AFAF",
"0  c #51A3A3",
"q  c #45B0AE",
"w  c #4EB4AE",
"e  c #58BCA7",
"r  c #53B6AC",
"t  c #55B8AC",
"y  c #5CBBAD",
"u  c #45AEB0",
"i  c #4BAEB1",
"p  c #47B0B0",
"a  c #49B1B0",
"s  c #53B5B1",
"d  c #5AB5B6",
"f  c #5CBAB1",
"g  c #5EB4B8",
"h  c #6AAEAE",
"j  c #64BEAE",
"k  c #6BACB2",
"l  c #6FB1B1",
"z  c #63BDB0",
"x  c #69BDB3",
"c  c #63B4BB",
"v  c #6CB5BD",
"b  c #64BABA",
"n  c #6CBDBC",
"m  c #7AB4B4",
"M  c #77BFB8",
"N  c #5FC1A3",
"B  c #66C1AC",
"V  c #6BC4AB",
"C  c #6FC8AC",
"Z  c #73C6AE",
"A  c #73C9AC",
"S  c #7AC9AF",
"D  c #67C1B0",
"F  c #6BC2B0",
"G  c #74C5B1",
"H  c #7AC4B5",
"J  c #77C8B0",
"K  c #7BC9B0",
"L  c #75C0BF",
"P  c #7BC5BE",
"I  c #75B5C2",
"U  c #77BFC0",
"Y  c #79BAC2",
"T  c #76C0C0",
"R  c #7CC2C2",
"E  c #89BEBE",
"W  c #84CBB4",
"Q  c #82C0BF",
"!  c #80C8BB",
"~  c #90C0BF",
"^  c #91CFBC",
"/  c #94D1B5",
"(  c #95D1BE",
")  c #88B4C1",
"_  c #89B7CA",
"`  c #8CBACB",
"'  c #90BDC4",
"]  c #97BFCE",
"[  c #9CBED0",
"{  c #A0BACF",
"}  c #A3B7D4",
"|  c #A5BAD5",
" . c #ABBCD6",
".. c #AEBED8",
"X. c #B0BFD8",
"o. c #B8BFDC",
"O. c #83C4C4",
"+. c #89C4C4",
"@. c #8CCBC5",
"#. c #8FC9C9",
"$. c #94C5C5",
"%. c #93CCC4",
"&. c #98CFC5",
"*. c #93C5CB",
"=. c #9CC2CA",
"-. c #93CACA",
";. c #9CCDCD",
":. c #9DD3C2",
">. c #9FC4D1",
",. c #A5C5CE",
"<. c #A2CCCC",
"1. c #A4D5C6",
"2. c #A6D3C9",
"3. c #A9D6C9",
"4. c #ACD8CA",
"5. c #B4D9CF",
"6. c #A7C7D6",
"7. c #AFC0D7",
"8. c #A9CBD3",
"9. c #AFC0D8",
"0. c #B3CBD6",
"q. c #B9CDD7",
"w. c #B2C1D9",
"e. c #B9C6DB",
"r. c #B5CCD8",
"t. c #BDC9DB",
"y. c #A6D1D1",
"u. c #ABD3D3",
"i. c #B2D5D5",
"p. c #BCD4D4",
"a. c #B4D8D2",
"s. c #BCDCD1",
"d. c #BBD4D9",
"f. c #B7D9D9",
"g. c #BEDCDA",
"h. c #C2DDCF",
"j. c #C3CDDD",
"k. c #C0D6D6",
"l. c #C6DFD6",
"z. c #C6D1DE",
"x. c #CAD3DF",
"c. c #C3DBDC",
"v. c #CBDDDD",
"b. c #D2DEDE",
"n. c #CBE0D8",
"m. c #D3E2DE",
"M. c #D9E4DE",
"N. c #C7CEE1",
"B. c #CCCFE1",
"V. c #CDD4E0",
"C. c #CEDFE0",
"Z. c #D1D7E1",
"A. c #D4DAE2",
"S. c #DADEE4",
"D. c #CDE1E1",
"F. c #D5E1E1",
"G. c #DDE2E4",
"H. c #E3E5E6",
"J. c #E8E7E7",
"K. c #E6E8E7",
"L. c #E9E9E7",
"P. c #E6E6E8",
"I. c #E8E7E8",
"U. c #E7E8E8",
"Y. c #EAE9E9",
"T. c #F2EDEC",
"R. c #FAEEEE",
"E. c #F4F0EC",
"W. c #F8F0ED",
"Q. c #FCEEF0",
"!. c #F6F4F4",
"~. c #FDF2F2",
"^. c #FFF8F8",
"/. c None",
/* pixels */
"/./././././././././././././././././././././././././././././././././././././././././././././././././.",
"/./././././././././././././././././././././././././././././././././././././././././././././././././.",
"/././././././././././././././././././././.a a q /./././././././././././././././././././././././././.",
"/././././././././././././././././././././.9 u a u s c c c /././././././././././././././././././././.",
"/././././././././././././././././././././.a a q a a 2 > > , 3 p g ` /./././././././././././././././.",
"/././././././././././././././././././././.2 8 8 2 3 b #.@.#.#.L p 2 g /././././././././././././././.",
"/././././././././././././././././././././././.d -.u.D.!.Y.y.;.T a 3 i Y V./././././././././././././.",
"/././././././././././././././././././././.R.c.F.T.!.F.O.d p 2 u q i u u s *././././././././././././.",
"/././././././././././././././././././.H.U.H.~.^.,.5 - d b a a p a u s B B a c c././././././././././.",
"/./././././././././././././././.G.J.Y.Y.U.T.d.0 & 4 m F.f.s p p p a u a V Z y *.T./././././././././.",
"/././././././././././././././.H.P.Y.Y.P.Y.T.<.h p.^.k.0 < a a a a p a u a F K H z.I././././././././.",
"/././././././././././././.H.U.Y.Y.P.Y.Y.K.K.Y.~.H.l /./.o u a a p p i a u a G /./.H.T./././././././.",
"/./././././././././././.K.Y.Y.U.Y.Y.U.G.t.G.W.T.h /././.  X = p a a a a u a D /./.u.Y.Y././././././.",
"/././././././././././.Y.Y.Y.Y.U.Y.Y.S.G.U.Y.~.m /./././././.  O 8 a a a p p s Z /.u.I.T.x./././././.",
"/././././././././.b.Y.Y.U.J.I.Y.U.Z.V.H.Y.Y.U.+./././././././.  + 1 a a p i a A <.G.T.H.t./././././.",
"/./././././././.Y.Y.Y.H.z.G.T.H.t.9.e.U.Y.Q.~.v.6 /./././././././.X < s u u y 1.Y.T.T.b././././././.",
"/././././././.F.T.T.S. .t.H.Z.e.t.G.I.Y.T.A.k /././././././././././.@ 8 q w ( J.Y.E.S.e././././././.",
"/./././././././.Y.P.j.e.V.e.e.A.T.Y.T.~.q./././././././././././././.O ; w ( M.T.Y.A.e./././././././.",
"/./././././././.q.j././.x.t.A.Y.Y.Y.I.' /./././././././././././././.o s i.Y.T.G.x.w././././././././.",
"/./././././././././././.e.A.Y.Y.T.Y.)   /././././././././././././.+.-.G.T.Y.Y.V././././././././././.",
"/./././././././././././. .A.T.T.A.[ i : X /././././././././././.H.H.Y.Y.Y.L.G.e././././././././././.",
"/././././././././././...V.I.T.S.w.I 8 a u # . /./././././.H.U.U.Y.Y.Y.Y.Y.x. ././. .j./././././././.",
"/././././././././././.z.I.Y.A.e.| I a p a a < #   /././.K.G.V.K.Y.Y.Y.T.Z.9././.w.x.Z./././././././.",
"/././././././././././.j.Y.Z.o.[ b 2 a a a p p p 7 $.T.Y.A.j.V.J.L.Y.J.x.w././.9.Z.E.S./././././././.",
"/././././././././././.e.P.B._ d q q p a a 3 d u.G.Y.U.t.e.A.T.Y.Y.S.e./././.9.N.Y.T././././././././.",
"/././././././././././.j.B.[ i 3 q a p p 3 R F.W.W.A.w.N.I.Y.Y.L.S.w././././.j.L.Y.G././././././././.",
"/./././././././././././.w.c 3 q p 8 3 3 3 v.T.T.V.e.A.E.Y.Y.Y.x. ./././.w.V.H.Y.T.z././././././././.",
"/././././././././././././.d q q 3 d ;.y.y.H.Y.V.N.S.Y.Y.Y.H.j.../././.9.V.Y.Y.K.G./././././././././.",
"/./././././././././././././.2 p O.G.R.R.R.Y.x.t.G.E.Y.Y.U.t./././. .q.S.U.Y.L.A././././././././././.",
"/././././././././././././././.i.T.P.J.U.Y.G.Z.H.Y.K.Y.U.z./././.X.V.P.Y.Y.Y.Y./././././././././././.",
"/./././././././././././././.g.Y.V.e.Y.Y.J.J.Y.Y.U.Y.Y.V././.9.t.G.Y.Y.Y.Y.Y.Z./././././././././././.",
"/././././././././././././.A.Z.z.x.H.Y.L.U.Y.K.Y.Y.H.N.w./. .z.Y.Y.Y.U.U.T.U././././././././././././.",
"/./././././././././././.H.j.t.G.Y.Y.P.Y.I.Y.I.Y.J.j././.e.A.J.Y.Y.Y.U.Y.Y.u.p p /./././././././././.",
"/././././././././././.G.H.H.K.Y.Y.U.Y.P.Y.I.Y.P.j././.w.Z.Y.Y.K.P.Y.W.G.R p u p p a /./././././././.",
"/./././././././././.H.x.w.b.Y.T.P.G.H.Y.Y.Y.J.q././.e.V.L.Y.P.Y.Y.Y.F.R 3 p s s p p 3 v /./././././.",
"/././././././././.T.j.| e.S.Y.Y.J.S.H.Y.Y.J.V.e./.e.G.E.Y.L.Y.U.Q.v.d 2 p a f B f a q 3 i 6././././.",
"/./././././././.T.V.| e.z.H.Y.S.Z.Y.Y.Y.Y.S. .| j.H.Y.L.I.Y.L.R.G.n 3 8 a u u a G F s p 2 c t./././.",
"/././././././.S.e.e.V.X.w.G.K.z.z.Y.Y.Y.L.t. .z.P.T.K.Y.L.Y.T.G.R 8 8 a a p a u r K D s u 2 T I././.",
"/./././././.A.N.e.S.Z.| j.J.S.A.Y.U.Y.Y.j.| A.Y.Y.U.Y.U.Y.~.c.d 3 8 a p a a a a u z K J f p O.I././.",
"/././././.b.V.t.Y.S.....S.x.x.Y.Y.Y.Y.V.| V.Y.Y.Y.U.L.T.Y.y.d 3 8 p q i a 8 a a p s Z /.A b 9.T.K./.",
"/././././.Z.V.G.H.X.| V.I.x.A.Y.Y.Y.A.w.A.I.Y.Y.Y.Y.~.v.n 8 8 a a p a i p q a a u q G /./.H 0.T.K.J.",
"/./././.b.Y.Y.J.e...X.G.Y.j.Z.Y.Y.G.e.A.Y.Y.U.Y.T.G.#.8 8 8 a a p a a q a p i p u a D /./.W l.T.Y.H.",
"/./././.H.W.J.j.| ..j.Y.A.A.P.Y.G.e.z.Y.U.Y.Y.Y.~./.  X 8 a a a 8 a p a i p a a i u d /./.&.G.T.J.z.",
"/././.b.Y.Y.z. ...9.A.Y.j.A.Y.Y.S.V.Y.Y.U.Y.Y./././././.# a a a a a a u a u p a p u t /./.a.T.Y.K.z.",
"/././.Y.W.G.q.| w.V.Y.V...A.Y.Y.Y.Y.Y.Y.Y./././././././.  * a a a a a u s d u a u u f B ^ m.T.Y.G./.",
"/./.F.Y.Y.V. ...w.S.Y.t.j.P.Y.Y.Y.Y.I.Y./././././././././.  < 9 a 8 a p s V r p u a y K n.T.Y.Y.Z./.",
"/./.A.E.S.X. .w.j.Y.Z. .V.U.Y.Y.Y.~././././././././././././.X 8 * 1 a a p s j s u u H n.Y.Y.Y.P././.",
"/././.Y.V.X.V.Z.x.Y.z.e.H.Y.Y.U.A./././././././././././././.. < # < a a u a F D 3 b G.T.Y.Y.Y.S././.",
"/././.F.t.j.S.N.G.Z.| j.P.L.R.Y.E /./././././././././././././.% * O < a u i D y s C.T.Y.Y.Y.G.e././.",
"/././.k.t.Z.S.V.G.w...S.Y.~.Y.;.- /./././././././././././././.X : o = s u s V j d.T.Y.P.Y.H.j./././.",
"/./././.S.S.N.Z.S.} t.U.Y.G.-.3 @ /././././././././././././././.@ X * w u q Z 5.Y.Y.K.Y.T.G.w./././.",
"/./././.K.S.e.e.e.e.A.T.~.O.2 p < O % . /./././././././././././././.O ; a %.s.Y.Y.Y.Y.Y.H.j. ./.z./.",
"/./././././.V.|  .A.!.Y.;.a 3 s 8 O # < /./././././././././././././.& O.D.Y.T.Y.I.Y.Y.Y.z. ./.e.x./.",
"/./././././.H. .X.S.c.b 3 p a a a < X < . /././././././././././././.k.H.T.Y.I.Y.Y.A.P.Z.w./.w.x.G./.",
"/./././././.S.| j.R.f.p 3 a a a a 1 X = a O /./././././././././.J.I.Y.L.Y.P.Y.Y.A.S.A.e././.j.G././.",
"/././././.A.e...V.b.O.a p a a a a a < X 8 u O /././././././.H.L.L.L.I.L.P.Y.U.H.Z.S.e./././.t.x././.",
"/./././.A.B.} e.I.R 2 p a a u a u a a X X a 3   /./././.G.J.Y.L.I.U.Y.K.Y.Y.H.t.z.e./././.e.V./././.",
"/./././.x.j. .t.H.O.3 8 a a a a a a a <   # a # $ /./.H.Y.Y.K.Y.K.Y.U.Y.Y.Y.G.../././././.V.G./././.",
"/./././.q.e.X.e.i.a i p p a u a p a a a 1 * 8 2 7 p.~.L.Y.G.A.K.Y.Y.I.Y.Y.H.t.| X.t././.w.A.G./././.",
"/./././.{ X.X.j.i.3 u a a i a q a p a a a a 8 b g.W.~.Y./.G.P.U.Y.P.K.Y.Y.Z.| j.V.G.e.| V.Y.G./././.",
"/./././.} w.e.A.c.3 8 a q i p p i a p a 8 2 T K.^.q././.Y.Y.Y.Y.Y.Y.Y.Y.A.e.x.T.Y.t.| e.G.Y.Z./././.",
"/././././.X.e.A.g.8 8 a u a q a q a a 8 3 b G.!.u.+ /.p.T.Y.Y.Y.Y.Y.Y.V.e.V.Y.Y.j... .z.Y.H././././.",
"/././././.| e.Z.g.3 q u s q a i a a 8 3 ;.Y.G.T ; 1 <.T.Y.Y.Y.U.U.Y.G.t.V.E.Y.V. .| j.K.E./././././.",
"/././././././.e.8.q a q s s p p a 8 a -.Y.u.q , R F.~.Y.U.U.U.Y.Y.Y.U.U.Y.Y.H.w./.e.H.Y.L./././././.",
"/./././././././.` 8 q p a a a a q 8 a -.T 2 d i.Y.R.Y.Y.Y.U.Y.P.Y.U.Y.Y.Y.Y.V...9.G.Y.Y././././././.",
"/././././././././.g 8 q u p a a a i p 8 2 d v.R.Y.K.U.P.J.U.K.Y.U.U.U.Y.K.N.9.9.Z.Y.Y./././././././.",
"/./././././././././.d u a f s q 8 8 a a -.G.Y.Y.Y.L.Y.L.U.Y.I.Y.U.Y.Y.H.N.| 9.V.Y.Y.L./././././././.",
"/././././././././././.a q F S y s n y.T.Y.Y.I.U.Y.I.P.Y.Y.P.L.U.Y.Y.Y.V.} e.G.Y.U.Y.J./././././././.",
"/././././././././././././.r Z ( m.R.T.P.I.L.Y.J.P.Y.Y.U.J.P.Y.K.Y.Y.V.9.t.G.Y.Y.U.J././././././././.",
"/././././././././././././.s P Y.Q.L.K.Y.Y.U.U.Y.Y.U.J.U.U.Y.P.Y.Y.A.w.t.U.E.Y.Y.T./././././././././.",
"/././././././././././././.v.F.Y.L.Y.J.P.P.Y.P.I.K.Y.Y.J.J.Y.Y.Y.G.e.V.Y.Y.U.Y.Y.G./././././././././.",
"/././././././././././././.T.T.U.P.I.U.Y.Y.K.Y.K.Y.P.P.Y.U.Y.Y.Y.G.A.U.Y.P.Y.Y.G././././././././././.",
"/././././././././././.F.Y.Y.P.U.Y.U.Y.P.Y.I.U.I.J.U.Y.Y.Y.Y.Y.L.Y.Y.I.U.Y.Y.K.T /./././././././././.",
"/./././././././././.H.Y.U.U.Y.J.J.U.Y.Y.U.K.Y.Y.Y.Y.Y.G.A.Y.Y.I.I.Y.U.Y.T.Y.;.1 p /././././././././.",
"/./././././././.G.Y.Y.Y.K.Y.Y.Y.U.U.J.H.Y.L.K.U.Y.Y.G.V.H.Y.J.U.U.U.Y.T.A.n 8 8 p q /./././././././.",
"/././././././.H.Y.Y.Y.U.Y.U.Y.Y.Y.Y.A.j.P.I.Y.L.Y.V.t.G.Y.L.P.Y.Y.P.Q.G.L , q a p q 3 Y /./././././.",
"/./././././.G.T.Y.U.P.Y.P.Y.Y.Y.H.V.K.Y.K.Y.Y.T.A.t.A.Y.Y.P.Y.Y.I.T.G.&.y r u a p a u 2 b /././././.",
"/././././.F.Y.Y.Y.U.Y.P.Y.Y.S.z.z.A.I.Y.I.Y.Y.G.t.V.Y.Y.K.Y.U.J.Y.R.g.F V z u p p p a 8 3 *././././.",
"/./././.b.Y.Y.Y.U.Y.Y.Y.Y.V... .z.T.L.Y.I.Y.I.q.e.S.Y.Y.U.I.U.Y.J.Q.i.x C Z w u a a a i 3 c /./././.",
"/./././.U.Y.Y.Y.Y.Y.P.J.V. ...A.Y.K.Y.P.Y.T.j. .V.U.H.J.Y.U.U.J.T.J./.w W Z f p a a p q 8 a >./././.",
"/././.Y.T.Y.Y.Y.S.S.z. .| e.A.Y.Y.Y.U.Y.Y.Z. .j.T.A.e.A.Y.Y.Y.Y.T././.2.3.C G s r s a a 8 1 R /././.",
"/./.K.Y.Y.Y.Y.Z.| |  .| e.J.T.Y.Y.Y.Y.Y.S...j.L.Y.z.q.J.Y.Y.Y.P.Y././.J.1.C K z u a w a 8 a y./././.",
"/.F.Y.Y.U.Z.t.w...X.w.x.H.Y.Y.P.Y.Y.Y.H.w.w.H.T.x.w.V.E.P.Y.Y.Y.L./.G.n.J j V z u r a a 2 b /./././.",
"/.Y.W.G.z. .}  .e.| t.L.E.Y.U.Y.U.Y.G.t.| N.Y.S.7.e.J.Y.Y.Y.I.Y./.J.c.P e s z G s q d i 3 P /./././.",
"/.Y.H.t.} ..j.t.| e.A.T.H.G.Y.Y.Y.Y.Z.| ..H.H.e.} j.Y.Y.I.U.Y.Y.A.Y.a.Z B a f K r i x r 8 -././././.",
"/./.w. .e.Z.Z.e...S.T.A.x.G.Y.P.Y.P.j.| j.H.j.| w.A.Y.Y.Y.U.Y./.H.H.&.V D s D K s p / j g /././././.",
"/./.| e.S.A.9. .w.e.j. .z.L.Y.Y.U.V.|  .Z.S.e.| e.G.Y.Z.J.K.Y.I.Y.H.@.B F s F K a a / W u./././././.",
"/./...A.P.V.| ........A.U.Y.Y.Y.Z. ...e.H.t. . .V.Y.V.t.Y.Y.Y.G.R.y.f B f q F K s q W h././././././.",
"/./.U.H.e. .9.9... .j.Y.Y.Y.Y.S.w. .w.z.j.X.| e.G.H.x.S.Y.Y.Y.H.T.#.r y r p B K a w z /././././././.",
"/./.H.t. .9.9.9.9.t.A.Y.Y.Y.G.e.| X.w.j.w.w.| j.Y.A.e.S.Y.Y.Y.T.M.n r j u s K K y y 5./././././././.",
"/.T.N. ...X.w... .S.Y.Y.Y.T.x. .X.w.w. .w...| z.J.j.w.S.Y.I.I.T.-.a y f u f K D y G /./././././././.",
"/.P.e. .9.w.9. .e.S.Y.Y.Y.H.t. ...w. .w.w. .w.S.H.w.w.H.T.Y.T.l.s q f a u f S f q 4././././././././.",
"/./././././. .t.I.Y.I.Y.J.t. .X.X.w.w.w.w. .e.H.A.| e.A.Y.Y.T.-.u 8 a u a z K D B /././././././././.",
"/././././././.q.S.H.Y.W.V.X. .w.w. .w. .w. .w.G.Z.| | j.T.T.i.a u a p u s J S Z s./.3./././././././.",
"/./././././././...t.j.V.t.w. .w.w. .w.7... .w.H.Z. . .e.S.H.c q u a 8 i j K J K 1.S &./././././././.",
"/././././././././.X. .| ..X. .w.w.w...w.w.....x.j.w.....w.d.d q u 3 u f J K K J N A /./././././././.",
"/././././././././././././.w.w.X...w...w. .w. .w.w.w.w.e.N.d.f 2 q a f J S J Z V W /././././././././.",
"/./././././././././././././. .w.w.9.w...w.w.w. .7. . .e.A.r.I I %.W Z A C A W 4././././././././././.",
"/././././././././././././././.9.w.w.w.9. .7.w.w...w.w.w.w././././././.$.,.$.,./././././././././././.",
"/./././././././././././././././././.w.w.w.w. .w.w.w././././././././././././././././././././././././."
};
