/* XPM */
static char *result[] = {
/* columns rows colors chars-per-pixel */
"76 76 214 2 ",
"   c #010101",
".  c #080705",
"X  c #090807",
"o  c #0B0B0B",
"O  c #050808",
"+  c #15100C",
"@  c #0F1112",
"#  c #131313",
"$  c #1C1C1C",
"%  c #191816",
"&  c #100E0C",
"*  c #261C13",
"=  c #2B1E11",
"-  c #221B19",
";  c #281B0F",
":  c #2C2015",
">  c #2C241C",
",  c #342312",
"<  c #3A2614",
"1  c #3A291A",
"2  c #1F1F20",
"3  c #1F2122",
"4  c #232323",
"5  c #2B2B2C",
"6  c #292928",
"7  c #352D24",
"8  c #332F2C",
"9  c #3A342C",
"0  c #3A3127",
"q  c #333334",
"w  c #3A3633",
"e  c #3B3936",
"r  c #3B3B3C",
"t  c #36393C",
"y  c #2F3336",
"u  c #442D17",
"i  c #442E1A",
"p  c #4C341B",
"a  c #46311B",
"s  c #55391D",
"d  c #483728",
"f  c #593C21",
"g  c #423B33",
"h  c #463B37",
"j  c #683636",
"k  c #4C443B",
"l  c #48423B",
"z  c #5C4C3C",
"x  c #56483A",
"c  c #59412A",
"v  c #644425",
"b  c #6C4B2A",
"n  c #684829",
"m  c #734F2D",
"M  c #77522E",
"N  c #624C36",
"B  c #69523B",
"V  c #7A5532",
"C  c #775738",
"Z  c #393D40",
"A  c #3D4147",
"S  c #434444",
"D  c #4B4B4C",
"F  c #474A4D",
"G  c #544C43",
"H  c #5A4E47",
"J  c #5D544A",
"K  c #56514A",
"L  c #4C4F50",
"P  c #4F5153",
"I  c #545455",
"U  c #5B5B5C",
"Y  c #55585B",
"T  c #665747",
"R  c #745B44",
"E  c #775D45",
"W  c #695F52",
"Q  c #645B52",
"!  c #79624B",
"~  c #6D6255",
"^  c #64615E",
"/  c #766A5C",
"(  c #766758",
")  c #5B5E61",
"_  c #645E62",
"`  c #5E6367",
"'  c #646464",
"]  c #6B6B6B",
"[  c #65666A",
"{  c #796F63",
"}  c #7E7162",
"|  c #76736F",
" . c #6C6E70",
".. c #6F7274",
"X. c #747474",
"o. c #7B7B7C",
"O. c #767778",
"+. c #983636",
"@. c #A42D2D",
"#. c #CC3434",
"$. c #DA3C3C",
"%. c #845B34",
"&. c #8B5F33",
"*. c #865F3A",
"=. c #86592D",
"-. c #8C6136",
";. c #8C6239",
":. c #85613E",
">. c #916336",
",. c #91653B",
"<. c #96693D",
"1. c #996A3E",
"2. c #994141",
"3. c #995050",
"4. c #836242",
"5. c #8B6947",
"6. c #946B43",
"7. c #936E4A",
"8. c #996D43",
"9. c #997149",
"0. c #8B6E52",
"q. c #836F5B",
"w. c #8E7054",
"e. c #927659",
"r. c #837565",
"t. c #8C7D6C",
"y. c #867A6A",
"u. c #967E66",
"i. c #847C74",
"p. c #A05555",
"a. c #D65353",
"s. c #8B8176",
"d. c #938473",
"f. c #9A8A78",
"g. c #9B8066",
"h. c #A2927F",
"j. c #AA8C6E",
"k. c #7D7E83",
"l. c #7F8083",
"z. c #838384",
"x. c #8C8B8C",
"c. c #878788",
"v. c #8D8E91",
"b. c #8F9193",
"n. c #939394",
"m. c #989797",
"M. c #94949A",
"N. c #9B9B9B",
"B. c #999898",
"V. c #908F8E",
"C. c #AB9985",
"Z. c #A59683",
"A. c #B19E88",
"S. c #B09D87",
"D. c #A09F9F",
"F. c #B2A089",
"G. c #B8A58E",
"H. c #BCA992",
"J. c #9B9BA1",
"K. c #A09FA0",
"L. c #9DA0A3",
"P. c #A4A3A4",
"I. c #ABABAB",
"U. c #A7A6A9",
"Y. c #B0AFAF",
"T. c #ACACB0",
"R. c #B1AFB0",
"E. c #AEB0B1",
"W. c #B4B3B4",
"Q. c #B8B6B7",
"!. c #BCBCBC",
"~. c #B9B8B8",
"^. c #C2AE96",
"/. c #C7B299",
"(. c #CCB69C",
"). c #CEB89F",
"_. c #D4BEA3",
"`. c #C2BEBD",
"'. c #CFB9A0",
"]. c #D6C0A5",
"[. c #DDC6AA",
"{. c #D8C1A6",
"}. c #E0C8AD",
"|. c #BBBBC3",
" X c #B6B6C0",
".X c #C1BFC0",
"XX c #C4C3C4",
"oX c #C8C6C7",
"OX c #C4C5C9",
"+X c #C9C7C8",
"@X c #CCCBCC",
"#X c #D0CFCF",
"$X c #D1CFD0",
"%X c #D4D3D3",
"&X c #D4D4DB",
"*X c #DBDBDC",
"=X c #D4D9DD",
"-X c #C9CBD3",
";X c #E0DFDF",
":X c #DDDDE6",
">X c #E1DFE0",
",X c #E4E3E4",
"<X c #E5E5EC",
"1X c #ECECEC",
"2X c #E8E7E8",
"3X c #F0EEEE",
"4X c #E5E5F2",
"5X c #ECECF4",
"6X c #EEEFF8",
"7X c #F4F3F4",
"8X c #F6F5FB",
"9X c #FEFEFE",
"0X c #F8F7F7",
"qX c None",
/* pixels */
"qX                              X                                                                                                                     qX",
". f.S.C.C.C.C.C.C.C.C.C.C.C.A.G.l * M M C M M M C M M C M C C M M C M C C M C M C M M C M M M C M C C M C V s % d.f.d.s.y.r.} / / ~ ~ W W T T G G k 9   ",
"X G._._.'.'.'.'.'.'.'.'.'._._.G a <.<.;.<.;.<.,.,.,.<.,.,.,.,.,.<.,.,.,.,.<.<.;.,.,.,.<.<.,.,.,.,.<.<.;.,.,.1.v 9 ^.[.)._._._._._.].].{._._._._._.[.Z.  ",
"X S.(./././././././././.)./.9 p 1.;.;.;.-.;.;.;.;.;.-.-.;.;.;.;.-.-.;.;.-.;.-.;.;.;.-.;.;.;.;.;.-.-.;.;.;.;.;.<.n > C.]./././././././././././././._.d.  ",
"X F.)././././././././.(./.9 s 1.;.;.;.;.;.;.;.;.;.;.;.;.;.;.;.;.;.;.;.;.;.;.;.;.;.;.;.;.;.;.;.;.;.;.;.;.;.;.;.;.<.m * d._././././././././././././._.d.  ",
"X F.(././././././././.).g s <.;.;.;.;.;.;.;.;.;.;.;.;.;.;.;.;.;.;.;.;.;.;.;.;.;.;.;.;.;.;.;.;.;.;.;.;.;.;.;.;.;.;.,.%.* r.]././././././././././.^._.t.  ",
"X F.(./././././././.].G a 1.;.;.;.;.;.;.;.;.;.;.;.;.;.;.;.;.;.;.;.;.;.;.;.;.;.;.;.;.;.;.;.;.;.;.;.;.;.;.;.;.;.;.;.;.,.-.= ~ ]././././././././././._.y.  ",
"X F.)././././././.].} , <.;.;.;.;.;.;.;.;.;.;.;.;.;.;.;.;.;.;.;.;.;.;.;.;.;.;.;.;.;.;.;.;.;.;.;.;.;.;.;.;.;.;.;.;.;.;.,.,., J _.(././././././././._.r.  ",
"X F.)./././././.).F.: -.;.;.;.;.;.;.;.;.;.;.;.;.;.;.;.;.;.;.;.;.;.;.;.;.;.;.;.;.;.;.;.;.;.;.;.;.;.;.;.;.;.;.;.;.;.;.;.;.;.,.u k (.)./././././././._.r.  ",
"X F.(./././././._.g v <.;.;.;.;.;.;.;.;.;.;.;.;.;.;.;.;.;.;.;.;.;.;.;.;.;.;.;.;.;.;.;.;.;.;.;.;.;.;.;.;.;.;.;.;.;.;.;.;.,.;.1.p 9 ^.'././././././._.q.  ",
"X F.(././././.].} < 1.;.;.;.;.;.,.>.<.;.,.;.;.-.;.;.;.;.;.;.;.;.;.;.;.;.;.;.;.;.;.;.;.;.;.;.;.;.;.;.;.;.;.;.-.;.,.-.;.,.V ,.;.<.f 7 S._./././././._./   ",
"X F.(./././.(.G.: %.;.;.;.;.;.;.C T N b M m *.<.,.-.;.;.;.;.;.;.;.;.;.;.;.;.;.;.;.;.;.;.;.;.;.;.;.;.;.;.>.;.<.b ! u.( {  .C ,.;.<.b > Z._././././.]./   ",
"X F.(./././.].l v <.;.;.;.;.;.0.y I.N.[ Y ^ U x N ;.<.6.;.-.;.;.;.;.;.;.;.;.;.;.;.;.;.;.;.;.;.;.;.;.;.>.C 0.z X.o.Y N.1XN.h 6.&.&.6.M * d.{./././._./   ",
"X F.)././.].} < <.;.;.;.;.;.>.0 l.9X9X9X9X9X7XOXU 6 B Q 4.,.;.;.;.;.;.;.;.;.;.;.;.;.;.;.;.;.;.;.;.-.;.R Z t b.9X8X@X7X9XI.t C ,.;.;.,.%.* { {././._.W   ",
"X F.(./.).F.: %.;.;.;.;.;.;.1.: z.@XN.B.x.n.U.%X7X#Xt 5 L 0.;.-.;.;.;.;.;.;.;.;.;.;.;.;.;.;.;.;.;.e.G W.E.B.3XQ.n.n.c.n.9XJ.x >.;.;.;.,.;., Q _.(._.W   ",
"X F.(.(.).9 v <.-.;.;.;.;.;.0.# z.X.Y ^ ' ] c.'  .XX*XM.oXD e.-.;.;.;.-.;.;.;.;.;.;.;.;.;.;.;.R A Z E.9X3XW.X.N.E.o.U ' 2X..B >.;.;.;.;.;.,.< G '.{.T   ",
"X F.(.{.J u <.-.;.;.;.;.;.;.! A &XX.' Y q e ].4X,XW.n.*X9XE.l 6.>.,.,.1.,.6.6.6.,.,.1.,.,.,.%.Q *XQ.1X@Xo.N.#XU.n.' ^ X.=Xt 5.-.;.;.;.;.;.,.<.u g _.W   ",
"X F.{.y.: ,.;.;.;.;.;.;.;.;.V t %X~.' w [ U @ 5 W.9X9X;X7X1XU g 0.d < d 1 i k x d u 1 1 z 0.R Y.,X1X@XX.&X3XU 8 ] ' U b.oX> 6.-.;.;.;.;.;.*.,.<.s g h   ",
"X H.C.: -.,.;.;.;.;.;.;.;.;.1.9 x.XX' [ x.*X=Xc.2 S %X9X>X2XoXS )  .) b.b.) c.U l.l.' I l.P U %X3X,Xx.,X3XD L B.] ^ ' *X` B ,.-.;.;.;.;.;.;.;.;.<.b X   ",
"& h.> M ,.;.;.;.;.;.;.;.;.;.;.4.5 %Xl.U ) ' b. .l.U # c.7X,X>XXXU.+XI.K.!.K.R.Q.W.U.x.N.P.I.XX,X9X%X;X3XS 6 V.] ' U #X%X# ;.-.-.;.;.;.;.;.;.;.;.;.<.b   ",
"X : b <.;.;.;.;.;.;.;.;.;.;.-.6.9 k.W.^ ] I 2   o ] 4 @ @X0X=X4X~.V.`.N.D.%XW.R.P.I.z.W.Y.oXP.*X>X0X0X] 2 ' ' [ ) c.9XD.> -.-.;.;.;.;.;.;.;.;.;.;.,.V . ",
"  c 1.;.;.;.;.;.;.;.;.;.;.;.;.,.! 2 @XY.I ^ ' e e P.W.E.<X0X<X].,X.XU.@Xc.#X$XI.Q.P.W.P.P.c.!.#X,X,X3XI.L r ^ ' M.8X].$ :.,.;.;.;.;.;.;.;.;.;.;.;.,.V   ",
"X V ,.;.;.;.;.;.;.;.;.;.;.;.;.-.>.d Y >XI.x.' L   # #X,X@X2X1XY.B.%XoX`.n.~.%X~.`.oXoXP.x.oXXX>X3X2X1X;Xn.' ] oX9X8Xy N <.;.;.;.;.;.;.;.;.;.;.;.;.,.V   ",
"X V ;.;.;.;.;.;.;.;.;.;.;.;.;.;.;.,.4 X.7X7X@Xn.] X.#XoXY.#X,X@XU.c.$X$XK.Q.U.R.z.`.+XV.N.U.D.Y.W.W.~.>X9X7X,X9X9X[ > 1.-.;.;.;.;.;.;.;.;.;.;.;.;.,.V   ",
". V <.-.;.;.;.;.;.;.;.;.;.;.;.;.;.<.4.5 m.7X9X9X9X9X9X3X@XY.,XXXQ.K.x.+X`.B.K.V.n.I.`.U.x.x.V.m.N.I.@X!.Y.!.!.oXv.> 6.;.;.;.;.;.&.;.;.;.;.;.;.;.&.,.V   ",
". V ,.-.;.;.;.;.;.;.;.;.;.;.;.;.;.-.1.! t oX$X9X*XI.I.XXQ.Q.I.*X@XW.U.n.n.R.B.V.B.z.W.Y.o.I.N.m.%X2XW.N.s.[ z.c.4 g 8.;.;.;.;.;.,.*.;.;.;.;.;.;.;.,.V   ",
"X V ,.;.;.;.;.;.;.;.;.;.;.;.;.-.,.5.B 3 ' I.V.n.N.z.c.n.B.N.!.U.%X2X;X`.O..XK.K.P.K.oXc.%XQ.Q.I.P.$X@X%XXX|.!.U.E.L x 9.-.;.;.;.*.,.*.,.;.;.;.;.;.,.M . ",
". V ,.;.;.;.;.;.;.;.;.;.;.;.;.,.R 3 y z.I.D.n.n.N.V.n.N.B.D.D.XX@X>X1XW.m.T.Q.R.W.;X!.*XoX*XXXW.oXI.N.!.@X.XE.x.b.B.Z e 9.;.;.;.,.&.,.*.;.;.;.;.;.,.M . ",
"  V ;.;.;.;.;.;.;.;.;.;.;.;.;.! 4 O.B.N.b.P.%XXXW.N.x.W.Y.U.3X*X0X2X1X*Xm.`.!.@X@X2X*X2X0X3X>X9X%XOX=X-X!.U.N.I.!.U.b.t B <.;.;.;.;.;.;.*.,.*.&.;.,.V . ",
"X V ,.;.;.;.;.;.;.;.;.;.;.-.1.9 L O.I.E.s.D.XXOX#X1X,X&X#Xc.[ I ] Q.0X0XW.R.B.m.*X;X7XQ.] r I o.].4X9X9X1X@XXXP.N.I.N.P.5 C ,.;.;.;.;.;.,.*.,.,.*.,.V   ",
". V <.;.;.;.;.;.;.;.;.;.;.;.0.8 ^ l.~.#XOXI.U.!.3X%XO.6             [ 9X>Xm.] U.0X7XO.            # Y .X8X9X9X0XI.Y.!.n.Y > ,.;.;.;.;.;.>.*.>.*.*.,.V   ",
". V ,.;.;.;.;.;.;.;.;.;.;.<.x I ;X7X0X2X7X9X1XU.h o       6 D q       N.9XR.] $X9X!.      q U q         5 s.;X9X9X3X9X9X,Xr ;.;.;.;.;.;.&.,.,.*.>.,.M . ",
". V ,.;.;.;.;.;.;.;.;.;.;.<.R @ P.9X9X9X,XO.$           x.N.U c.m.X   $ 0X2XN.1X9Xt     X.X.I N.D.X         o U XX9X9X0X1Xy c 8.-.;.;.;.;.;.;.;.;.,.V   ",
". V ,.;.;.;.;.;.;.;.;.;.,.:.> ..9X9X!.I #             O.P.z.I   X.O.    XX0XXX0X;XX   D c.V.r   N.n.              S N.1X9XP.9 x 6.;.;.;.;.;.;.;.;.,.V   ",
". V ;.;.;.;.;.;.;.;.;.<.z % U.9X%XA                 + .X] 9X&X    U.$   o.9X@X9XU.    ..X.9X%X  4 1X5                 6 W.9X!.y 8 5.;.;.;.;.;.;.;.,.V   ",
". V ;.;.;.;.;.;.;.;.;.:.5.l U $X6                   S oX2 U.'     K.r   I 0X@X7Xc.  X z.2 n.'     :XX.                  o %X0Xc.% 7.<.;.;.;.;.;.;.,.V   ",
". V ,.;.;.;.;.;.;.;.,.6.6./ 6 z.                    I 0X3         N.%   S 7XoX1XO.    n.%       6 0XX.                    [ 9X@XX.6 E ,.;.;.;.;.;.,.V   ",
". V ,.;.;.;.;.;.;.;.C l l U -Xc.                    $ 0XK.      ] o.    S 0X@X0XO.    ^ N.      V.9XD                     I 9X9X0X' 7 8.&.;.;.;.*.,.M . ",
". V ,.;.;.;.;.;.;.6.w Y 3X9X9XD.                      v.9X~.X.U.!.#     D 1X@X9XO.    O I.Q.X.I.9XQ.O                     X.9X0X9Xc.h ,.;.;.;.;.,.,.M   ",
". V ,.;.;.;.;.;.;.;.7.G  .,X9X$XX o                   o B.1X7XI.#       I 7X@X2Xc.      o m.,X1XP.%                   o   Q.9X7XI.q 5.,.;.;.;.;.*.<.V   ",
". V ,.;.;.;.;.;.;.;.>.R   t &X9Xq $ 4 4 % O               # #           [ 9XoX,XN.          o #                 # 4 4 4 % ,X!.[ - M ,.;.;.;.;.;.*.,.M . ",
"  %.,.;.;.;.;.;.;.;.,.H 5 XX9X9XN.    X 4 5 % #                         s.9X$X<XW.                        @ $ 5 4 X     O.7XU.z.6 9.*.;.;.;.;.;.,.,.V   ",
". V ,.;.;.;.;.;.;.;.&.6.G U I.W.$XW.D @     O 4 4 #                   4 XX0X@X*X>Xr                   # 4 4 o     # F U.0X8X9X@Xr 0.>.;.;.;.;.;.&.,.M   ",
". V ,.;.;.;.;.;.;.;.;.&.8.C     ..9X9X,Xm.I 4 @ X # $ X           # z.1X9X,X+X+X0X0XU.6           X $ # o o 4 U J.&X8X9X7X1XD.l 4.,.*.;.;.;.;.;.*.,.V . ",
". V ;.;.;.;.;.;.;.;.;.,.*.w c.|.<X4X8X9X9X9X1X=X|.l.S e % O     r *X9X9X9X7X%X%X0X9X9X7X[     X % t S z..X<X7X9X8X8X5X<X6X|.5 *.>.*.;.;.;.;.;.;.,.,.V   ",
". V ,.;.;.;.;.;.;.;.;.,.V 6 c.>X9XJ.l.M.T.|.:X9X9X9X9X2XN.I # q 0X9X9X9X0XXXn.Y.0X9X9X9X9XU o L N.,X9X9X9X9X<XOXT.M.k.J.5X8XO.d 1.;.;.;.;.;.;.;.;.,.M . ",
". V ,.;.;.;.;.;.;.;.;.>.5.X o .X8X:X&X.X|.U.N.v.N.!.;X0X9X0XO.z.%X9X9X;Xr U $ O 6 +X9X9X$XD.U ,X9X9X,X+XK.c.M.U. X-X>X7XXX) / *.;.;.;.;.;.;.;.;.;.,.V   ",
". V ,.;.;.;.;.;.;.;.;.*.8.h # O.=X5X4X4X4X4X5X<X:XXXP.x.P.XXz.1XI.0X9Xx.q P.%     ] 9X9XI.0Xn.E.I.x.P.XX&X&X4X4X5X5X8X9XL E ,.,.;.;.;.;.;.;.;.;.;.,.V   ",
". =.;.;.;.;.;.;.;.;.;.;.&.7.G % 4 <X6X<X<X:X<X9X9X9X9X7X%XI.[ U.&XXX9X%X6       O !.9XXX%XN.o.x.$X1X9X9X8X8X8X<X5X0X,X..L H >.;.;.;.;.;.;.;.;.;.;.,.V   ",
". V ,.;.;.;.;.;.;.;.;.;.;.;.<.9.o  .9X9X7X4X6X8X7X6X0X9X9X7Xz.2X1X2X9X9XoXU e I !.9X9X2X1X,XP.oX9X9X9X8X8X7X0X8X9X9X9X%XN.z >.;.;.;.;.;.;.;.;.;.;.,.V   ",
"O %.,.;.;.;.;.;.;.;.;.;.;.;.&.,.C 8 L x.1X9X9X8X0X8X9X9X9X0Xo.5X9X9X9X9X9X9X1X9X9X9X9X9X9X9Xo.*X9X9X9X9X9X9X9X9X7XXXv.X.B ,.;.;.;.;.;.;.;.;.;.;.;.,.V   ",
"  V ;.;.;.;.;.;.;.;.;.;.;.;.;.&.<.9.B 6 3 XXU.$X7X8X9X9X9X9XN.o.9X9X9X9X9X0XD &X9X9X9X9X9XOX] 0X9X9X9X9X9X9X9XI.S T n ;.<.;.;.;.;.;.;.;.;.;.;.;.;.,.V   ",
". V ,.;.;.;.;.;.;.;.;.;.;.;.;.;.;.-.<.6.> @ $ XX8X:X*X8X9X9X3Xr x.6X9X8X:XY   t -X9X9X9X-Xr XX9X9X9X9X9X9X9XP.r R <.>.;.;.;.;.;.;.;.;.;.;.;.;.;.;.,.V   ",
". %.,.;.;.;.;.;.;.;.;.;.;.;.;.;.;.;.-.-.1.H A M...8 I.9X9X9X9X!.  r ' ' g $ O $ h [ k._ o N.9X9X9X9X%XU.v.F e E <.-.;.;.;.;.;.;.;.;.;.;.;.;.;.;.;.,.V   ",
"  n 1.&.;.;.;.;.;.;.;.;.;.;.;.;.;.;.;.;.;.9.z 1 x l.9X8X7X9X9X9Xx.    @.#.+.j +.#.@.    ^ 9X9X9X9X+X# 5 1 R 8.;.-.;.;.;.;.;.;.;.;.;.;.;.;.;.;.;.;.,.V   ",
". % V <.;.;.;.;.;.;.;.;.;.;.;.;.;.;.;.;.;.;.<.8.H ) I n.5X9X9X9X9X[   2.$.#.#.#.$.2.  5 1X9X9XXXc.6 L f.<.,.;.;.;.;.;.;.;.;.;.;.;.;.;.;.;.;.;.;.;.,.V   ",
"@ t.> %.;.;.;.;.;.;.;.;.;.;.;.;.;.;.;.;.;.;.;.,.h K ].Q Y :X9X9X9X0XD X p.a.a.a.3.O 3 &X9X>XD # 4 ` d.;.-.;.;.;.;.;.;.;.;.;.;.;.;.;.;.;.;.;.;.;.;.<.m   ",
". ^.d.= ,.;.;.;.;.;.;.;.;.;.;.;.;.;.;.;.;.;.;.;.<.;.h.0XO.5 z.I.7X9X0XO.5 r H t $ U ,X9X@Xq r ] X.t.6.-.;.;.;.;.;.;.;.;.;.;.;.;.;.;.;.;.;.;.;.;.<.v &   ",
"X S.[.~ < <.;.;.;.;.;.;.;.;.;.;.;.;.;.;.;.;.;.;.;.;.=.g.N.[ F 4 t %X9X9X1XE.n.I.,X9X9X!.$ D o.s.<.-.-.;.;.;.;.;.;.;.;.;.;.;.;.;.;.;.;.;.;.;.;.<.u x x   ",
"X F.)._.k p <.;.;.;.;.;.;.;.;.;.;.;.;.;.;.;.;.;.;.;.;.%.7.e.Z.z.S q Q.9X9X9X9X9X9X9XN.$ L o.g.,.-.-.;.;.;.;.;.;.;.;.;.;.;.;.;.;.;.;.;.;.;.;.,., K [.Q   ",
"X F.)./.(.9 v <.;.;.;.;.;.;.;.;.;.;.;.;.;.;.;.;.;.;.;.;.-.-.;.f.O.U q ) W.2X0X7X@XY 2 ` X.7.-.-.;.;.;.;.;.;.;.;.;.;.;.;.;.;.;.;.;.;.;.;.;.;., ~ ].{.~   ",
"X F.)./.(.H.> m ,.;.;.;.;.;.;.;.;.;.;.;.;.;.;.;.;.;.;.;.;.;.-.-.w.i.O.P t 5 t e 5 F  .d.7.-.;.;.;.;.;.;.;.;.;.;.;.;.;.;.;.;.;.;.;.;.;.;.<., ~ {./._.W   ",
"X F.)././._.C.- %.,.;.;.;.;.;.;.;.;.;.;.;.;.;.;.;.;.;.;.;.;.;.;.-.,.7.X.X.[ U U | f.g.-.-.;.;.;.;.;.;.;.;.;.;.;.;.;.;.;.;.;.;.;.;.;.;.<.< ~ {././._./   ",
"X F.)./././.].d.= ;.;.;.;.;.;.;.;.;.;.;.;.;.;.;.;.;.;.;.;.;.;.;.;.-.;.0.0.e.| q.7.&.&.;.;.;.;.;.;.;.;.;.;.;.;.;.;.;.;.;.;.;.;.;.;.;.<.p G _./././._./   ",
"X F.)././././.].} : <.;.;.;.;.;.;.;.;.;.;.;.;.;.;.;.;.;.;.;.;.;.;.;.;.-.-.;.;.;.-.;.;.;.;.;.;.;.;.;.;.;.;.;.;.;.;.;.;.;.;.;.;.;.;.<.v 9 (.(./././._.}   ",
"X A.(./././././.].J 1 1.;.;.;.;.;.;.;.;.;.;.;.;.;.;.;.;.;.;.;.;.;.;.;.;.-.-.;.;.;.;.;.;.;.;.;.;.;.;.;.;.;.;.;.;.;.;.;.;.;.;.;.;.;.%.> G.(././././._.}   ",
"X F.(././././././._.l s 1.;.;.;.;.;.;.;.;.;.;.;.;.;.;.;.;.;.;.;.;.;.;.;.;.;.;.;.;.;.;.;.;.;.;.;.;.;.;.;.;.;.;.;.;.;.;.;.;.;.;.;.<., y.]./././././._.r.  ",
"X F.)././././././.(./.7 v <.-.;.;.;.;.;.;.;.;.;.;.;.;.;.;.;.;.;.;.;.;.;.;.;.;.;.;.;.;.;.;.;.;.;.;.;.;.;.;.;.-.-.;.;.;.;.;.;.;.1.s k ]././././././._.r.  ",
". F.)./././././././.).G.> M <.;.;.;.;.;.;.;.;.;.;.;.;.;.;.;.;.;.;.;.;.;.;.;.;.;.;.;.;.;.;.;.;.;.;.;.;.;.;.;.;.;.;.;.;.;.;.;.<.M > H.(././././././._.t.  ",
"X F.(././././././././._.h.* %.,.;.;.;.;.;.;.;.;.;.;.;.;.;.;.;.;.;.;.;.;.;.;.;.;.;.;.;.;.;.;.;.;.;.;.;.;.;.;.;.;.;.;.;.;.;.;.%.* Z.]./././././././._.t.  ",
"X F.)./././././././././.].r.= ;.;.;.;.;.;.;.;.;.;.;.;.;.;.;.;.;.;.;.;.;.;.;.;.;.;.;.;.;.;.;.;.;.;.;.;.;.;.;.;.;.;.;.;.-.<.V * d.]././././././././.'.d.  ",
". F.)././././././././././.].W < 1.;.;.;.;.;.;.;.;.;.;.;.;.;.;.;.;.;.;.;.;.;.;.;.;.;.;.;.;.;.;.;.;.;.;.;.;.;.;.;.;.;.;.<.n : d._./././././././././._.d.  ",
"X F.)./././././././././././._.k p 1.;.;.;.;.;.;.;.;.-.;.;.;.;.;.-.-.;.;.;.;.;.;.;.;.;.;.;.;.;.;.;.;.;.;.;.;.;.;.;.1.-.u 7 S._././.^./././././././._.f.  ",
"X G._.).).).).).).).).).).)._._.g v 1.<.<.;.<.<.<.;.<.<.,.;.;.<.<.<.,.,.,.,.,.<.<.;.<.<.<.;.<.<.<.;.;.<.;.<.<.1.;.c 7 / ].[._._.].].].].]._._._.].[.Z.  ",
". h.F.A.A.A.F.F.F.F.A.A.F.A.A.G.h.* b V V V V V V V V V V V V V V V %.V V V V V V V V V V V V V V V V V V V m p + 8 d.h.d.t.d.r.r.{ / ~ ~ ~ ~ T J H l   ",
"qX  . . X X     .   X   X   X   X O   .       .     .   .     .   .         X         .         .   .   X         X                                   qX"
};
