/* XPM */
static char *result[] = {
/* columns rows colors chars-per-pixel */
"50 100 78 1 ",
"  c #31A9AB",
". c #3EADAB",
"X c #44AEAF",
"o c #47B0AE",
"O c #4CB3AD",
"+ c #51B6AE",
"@ c #56B8AD",
"# c #5DBCAE",
"$ c #46AFB0",
"% c #47B0B1",
"& c #49B0B0",
"* c #53B6B2",
"= c #56B8B0",
"- c #5DBBB4",
"; c #5FB7BA",
": c #61BBB3",
"> c #69BFB4",
", c #62B8BB",
"< c #68BEBA",
"1 c #69C0AC",
"2 c #70C3AF",
"3 c #7FCBB3",
"4 c #70C0BB",
"5 c #80CAB4",
"6 c #8FD0B9",
"7 c #95D0BE",
"8 c #A4B7D5",
"9 c #A7BAD5",
"0 c #ABBDD6",
"q c #AEBFD8",
"w c #B0BFD7",
"e c #83C6C4",
"r c #88C7C6",
"t c #8CC8C5",
"y c #88C6C9",
"u c #93CDC6",
"i c #A2D5C4",
"p c #AAD7C5",
"a c #A6D5CA",
"s c #AAD6CB",
"d c #B3D9CD",
"f c #B9DBCE",
"g c #A3CFD1",
"h c #AFC0D8",
"j c #B2C2D7",
"k c #B3C8D5",
"l c #B4C2D9",
"z c #B9C6DB",
"x c #BCC9DB",
"c c #ABD3D3",
"v c #B4D7D2",
"b c #B6D9D6",
"n c #C3CDDE",
"m c #C0D5D7",
"M c #C6D0DE",
"N c #C9D2DF",
"B c #CBDADE",
"V c #D3DDDF",
"C c #CEE2D4",
"Z c #CEE2DB",
"A c #D6E2DF",
"S c #D9E5DF",
"D c #CED5E0",
"F c #CFD8E0",
"G c #D1D7E2",
"H c #D4DAE3",
"J c #D9DEE4",
"K c #D4E1E2",
"L c #DDE2E4",
"P c #E4E6E6",
"I c #E5E9E5",
"U c #E6E7E8",
"Y c #EAE7E9",
"T c #E7E8E8",
"R c #EAE9E9",
"E c #F2ECEC",
"W c #FEF1F2",
"Q c None",
/* pixels */
"QQQQQQQQQQQQQQQQQQQQQQQQQQQQQQQQQQQQQQQQQQQQQQQQQQ",
"QQQQQQQQQQQQQQQQQQQQQQQQQQQQQQQQQQQQQQQQQQQQQQQQQQ",
"QQQQQQQQQQQQQQQQQQQQQQQQQQQQQQQQQQQQQQQQQQQQQQQQQQ",
"QQQQQQQQQQQQQQQQQQQQQQQQQQQQQQQQQQQQQQQQQQQQQQQQQQ",
"QQQQQQQQQQQQQQQQQQQQQQQQQQQQQQQQQQQQQQQQQQQQQQQQQQ",
"QQQQQQQQQQQQQQQQQQQQQQQQQQQQQQQQQQQQQQQQQQQQQQQQQQ",
"QQQQQQQQQQQQQQQQQQQQQQQQQQQQQQQQQQQQQQQQQQQQQQQQQQ",
"QQQQQQQQQQQQQQQQQQQQQQQQQQQQQQQQQQQQQQQQQQQQQQQQQQ",
"QQQQQQQQQQQQQQQQQQQQQQQQQQQQQQQQQQQQQQQQQQQQQQQQQQ",
"QQQQQQQQQQQQQQQQQQQQQQQQQQQQQQQQQQQQQQQQQQQQQQQQQQ",
"QQQQQQQQQQQQQQQQQQQQQQQQQQQQQQQQQQQQQQQQQQQQQQQQQQ",
"QQQQQQQQQQQQQQQQQQQQQQQQQQQQQQQQQQQQQQQQQQQQQQQQQQ",
"QQQQQQQQQQQQQQQQQQQQQQQQQQQQQQQQQQQQQQQQQQQQQQQQQQ",
"QQQQQQQQQQQQQQQQQQQQQQQQQQQQQQQQQQQQQQQQQQQQQQQQQQ",
"QQQQQQQQQQQQQQQQQQQQQQQQQQQQQQQQQQQQQQQQQQQQQQQQQQ",
"QQQQQQQQQQQQQQQQQQQQQQQQQQQQQQQQQQQQQQQQQQQQQQQQQQ",
"QQQQQQQQQQQQQQQQQQQQQQQQQQQQQQQQQQQQQQQQQQQQQQQQQQ",
"QQQQQQQQQQQQQQQQQQQQQQQQQQQQQQQQQQQQQQQQQQQQQQQQQQ",
"QQQQQQQQQQQQQQQQQQQQQQQQQQQQQQQQQQQQQQQQQQQQQQQQQQ",
"QQQQQQQQQQQQQQQQQQQQQQQQQQQQQQQQQQQQQQQQQQQQQQQQQQ",
"QQQQQQQQQQQQQQQQQQQQQQQQQQQQQQQQQQQQQQQQQQQQQQQQQQ",
"QQQQQQQQQQQQQQQQQQQQQQQQQQQQQQQQQQQQQQQQQQQQQQQQQQ",
"QQQQQQQQQQQQQQQQQQQQQQQQQQQQQQQQQQQQQQQQQQQQQQQQQQ",
"QQQQQQQQQQQQQQQQQQQQQQQQQQQQQQQQQQQQQQQQQQQQQQQQQQ",
"QQQQQQQQQQQQQQQQQQQQQQQQQQQQQQQQQQQQQQQQQQQQQQQQQQ",
"QQQQQQQQQQQQQQQQQQQQQQQQQQQQQQQQQQQQQQQQQQQQQQQQQQ",
"QQQQQQQQQQQQQQQQQQQQQQQQQQQQQQQQQQQQQQQQQQQQQQQQQQ",
"QQQQQQQQQQQQQQQQQQQQQQQQQQQQQQQQQQQQQQQQQQQQQQQQQQ",
"QQQQQQQQQQQQQQQQQQQQQQQQQQQQQQQQQQQQQQQQQQQQQQQQQQ",
"QQQQQQQQQQQQQQQQQQQQQQQQQQQQQQQQQQQQQQQQQQQQQQQQQQ",
"QQQQQQQQQQQQQQQQQQQQQQQQQQQQQQQQQQQQQQQQQQQQQQQQQQ",
"QQQQQQQQQQQQQQQQQQQQQQQQQQQQQQQQQQQQQQQQQQQQQQQQQQ",
"QQQQQQQQQQQQQQQQQQQQQQQQQQQQQQQQQQQQQQQQQQQQQQQQQQ",
"QQQQQQQQQQQQQQQQQQQQQQQQQQQQQQQQQQQQQQQQQQQQQQQQQQ",
"QQQQQQQQQQQQQQQQQQQQQQQQQQQQQQQQQQQQQQQQQQQQQQQQQQ",
"QQQQQQQQQQQQQQQQQQQQQQQQQQQQQQQQQQQQQQQQQQQQQQQQQQ",
"QQQQQQQQQQQQQQQQQQQQQQQQQQQQQQQQQQQQQQQQQQQQQQQQQQ",
"QQQQQQQQQQQQQQQQQQQQQQQQQQQQQQQQQQQQQQQQQQQQQQQQQQ",
"QQQQQQQQQQQQQQQQQQQQQQQQQQQQQQQQQQQQQQQQQQQQQQQQQQ",
"QQQQQQQQQQQQQQQQQQQQQQQQQQQQQQQQQQQQQQQQQQQQQQQQQQ",
"QQQQQQQQQQQQQQQQQQQQQQQQQQQQQQQQQQQQQQQQQQQQQQQQQQ",
"QQQQQQQQQQQQQQQQQQQQQQQQQQQQQQQQQQQQQQQQQQQQQQQQQQ",
"QQQQQQQQQQQQQQQQQQQQQQQQQQQQQQQQQQQQQQQQQQQQQQQQQQ",
"QQQQQQQQQQQQQQQQQQQQQQQQQQQQQQQQQQQQQQQQQQQQQQQQQQ",
"QQQQQQQQQQQQQQQQQQQQQQQQQQQQQQQQQQQQQQQQQQQQQQQQQQ",
"QQQQQQQQQQQQQQQQQQQQQQQQQQQQQQQQQQQQQQQQQQQQQQQQQQ",
"QQQQQQQQQQQQQQQQQQQQQQQQQQQQQQQQQQQQQQQQQQQQQQQQQQ",
"QQQQQQQQQQQQQQQQQQQQQQQQQQQQQQQQQQQQQQQQQQQQQQQQQQ",
"QQQQQQQQQQQQQQQQQQQQQQQQQQQQQQQQQQQQQQQQQQQQQQQQQQ",
"QQQQQQQQQQQQQQQQQQQQQQQQQQQQQQQQQQQQQQQQQQQQQQQQQQ",
"QQQQQQQQQQQQQQQQQQQQQQQQQQQQQQQQQQQQQQQQQQQQQQQQQQ",
"QQQQQQQQQQQQQQQQQQQQQQQQQQQQQQQQQQQQQQQQQQQQQQQQQQ",
"QQQQQQQQQQQQQQQQQQQQQQQQQQQQQQQQQQQQQQQQQQQQQQQQQQ",
"QQQQQQQQQQQQQQQQQQQQQQQQQQQQQQQQQQQQQQQQQQQQQQQQQQ",
"QQQQQQQQQQQQQQQQQQQQQQQQQQQQQQQQQQQQQQQQQQQQQQQQQQ",
"QQQQQQQQQQQQQQQQQQQQQQQQQQQQQQQQQQQQQQQQQQQQQQQQQQ",
"QQQQQQQQQQQQQQQQQQQQQQQQQQQQQQQQQQQQQQQQQQQQQQQQQQ",
"QQQQQQQQQQQQQQQQQQQQQQQQQQQQQQQQQQQQQQQQQQQQQQQQQQ",
"QQQQQQQQQQQQQQQQQQQQQQQQQQQQQQQQQQQQQQQQQQQQQQQQQQ",
"QQQQQQQQQQQQQQQQQQQQQQQQQQQQQQQQQQQQQQQQQQQQQQQQQQ",
"QQQQQQQQQQQQQQQQQQQQQQQQQQQQQQQQQQQQQQQQQQQQQQQQQQ",
"QQQQQQQQQQQQQQQQQQQQQQQQQQQQQQQQQQQQQQQQQQQQQQQQQQ",
"QQQQQQQQQQQQQQQQQQQQQQQQQQQQQQQQQQQQQQQQQQQQQQQQQQ",
"QQQQQQQQQQQQQQQQQQQQQQQQQQQQQQQQQQQQQQQQQQQQQQQQQQ",
"QQQQQQQQQQQQQQQQQQQQQQQQQQQQQQQQQQQQQQQQQQQQQQQQQQ",
"QQQQQQQQQQQQQQQQQQQQQQQQQQQQQQQQQQQQQQQQQQQQQQQQQQ",
"QQQQQQQQQQQQQQQQQQQQQQQQQQQQQQQQQQQQQQQQQQQQQQQQQQ",
"QQQQQQQQQQQQQQQQQQQQQQQQQQQQQQQQQQQQQQQQQQQQQQQQQQ",
"QQQQQQQQQQQQQQUQQQQQQQQQQQQQQQQQQQQQQQQQQQQQQQQQQQ",
"QQQQQQQQQQQQQTPQQQQQQQQQQQQQQQQQQQQQQQQQQQQQQQQQQQ",
"QQQQQQQQQQQQRIQQQQQQQQQQQQQQQQQQQQQQQQQQQQQQQQQQQQ",
"QQQQQQQQQQQRUQQQIQQQQQQQQQQQQQQQQQQQQQQQQQQQQQQQQQ",
"QQQQQQQQQYTTLQQRLQQQQQQQQQQQQQQQQQQQQQQQQQQQQQQQQQ",
"QQQQQQQQRRTYQQQTKQQQQQQQQQQQQQQQQQQQQQQQQ-2QQQQQQQ",
"QQQQQQQTTTTIQQEIQQQQQQQQQQQQQQQQQQQQ&&QQQ%:QQQQQmQ",
"QQQQQQRTTTTPQRYLQQQQQQQQQQQQQQQQQQQQQ&&QQ%*1QQQQBQ",
"QQQQQQRTTTRIYTIQQQQQQQQQQQQQQQQQQQQQQ&&o%%%:QQQ-KA",
"QQQlJRRTYRYRYRIQQQQQQQQQQQQQQQQQQQQQQQ&&&%o@QQQeTB",
"QQ0DRRRTTRYTYRPQQQQQQQQQQQQQQQQQQQQQQQ&&$$*:QQQbYQ",
"QQzLRRRTTTTTREVQQQQQQQQQQQQQQQQQQQQQQQQ&%.,rQQdZHQ",
"QQNIETYRTTTTRRBQQQQHQQQQQQQQQQQQQQQQQQQ&=o,u37IEFQ",
"QQJETTTTRTTTETMQQQYGQQQQQQQQQQQQQQQQQQQ&#Oya6fWRkQ",
"QNIRYTTTRRRTEPQQQQJzQQQQQQQQQQQQQQQQQQQQ#OgdpLWLQQ",
"QPRRTTTYRTTTELQQQQN0QQQQQQQQQQQQQQQQQQQQ++tpCEEVQQ",
"QRYTRETRVzHYELQQQHDQQQQQQQQQQQQQQQQQQQQQ+<vfSEJxQQ",
"PIRRHNPRn0JTELQQQJnQQQQQQQQQQQQQQQ&$QQQQ:sPLTYnQQQ",
"PRRPlwJLjnTRRLQQQJzQQQQQQQQQQQQQQQ&&QQQQ5SEEEPjQQQ",
"IRPx8zJNwJRTRPQQHJlQQQQQQQQQQQQQQQ&&XQQQpEYRTH0QQQ",
"URD0QDLl0JRTRPQQJDQQQQQQQQQQQQQQQQ&&&QQQLRRRPxQQQQ",
"QRNQQnnqxITTRIQQDxQQQQQQQQQQQQQQQQ&&&QQQRRRRDlQQQQ",
"QQQQQw9QMRRRTIQQxlQQQQQQQQQQQQQQQQ&%XoQZERRRnQQQQQ",
"QQQQQQQqNRTRTJnnnlQQQQQQQQQQQQQQQQ&X.>SERTRYnQQQQQ",
"QQQQQQQzLRRRUDMHJnlQQQQQQQQQQQQQQQ&.@iERTRRRnQQQQQ",
"QQQQQQQQTRTRRFDPRLx9QQQQQQQQQQQQQQ ,dTRRTRRFzQQQQQ",
"QQQQQQQQHTRTRPHLERHnzQQQQQQQQQQQQQ<cEWRRRRHlQQQQQQ",
"QQQQQQQQlHRRRTJHTRRYxQQQQQQQQQQQQQZERURRRHwQQQQQQQ",
"QQQQQQQQQnRRRRIUYTRJw9hQQQQQQQQQQQTWTRTRJzQQQQQQQQ",
"QQQQQQQQQlnGURYUTTTPBHHVnQQQQQQQEPJIERPnz0QQQQQQQQ",
"QQQQQQQQQQQQQQQTTTIREREEJQQQQRRJJHnnJIQQQQQQQQQQQQ",
"QQQQQQQQQQQQQQQQYRYRYYRIQQQQQERMqql0QQQQQQQQQQQQQQ"
};
