/* XPM */
static char * C:\Users\Lucas\OneDrive _ Universidade do Porto\LCOM\MINIX_LCOM\shared\proj\graphics\xpms\elements\bar_v_76height_xpm[] = {
"16 76 228 2",
"  	c #000000",
". 	c #4C4C4C",
"+ 	c #494949",
"@ 	c #4E4E4E",
"# 	c #4B4B4B",
"$ 	c #484848",
"% 	c #4D4D4D",
"& 	c #4A4A4A",
"* 	c #474747",
"= 	c #4B4B4C",
"- 	c #484A4C",
"; 	c #494A4C",
"> 	c #4A4C4C",
", 	c #444444",
"' 	c #312D34",
") 	c #414141",
"! 	c #3A3D3F",
"~ 	c #099519",
"{ 	c #353739",
"] 	c #393C3F",
"^ 	c #343639",
"/ 	c #3A3C3F",
"( 	c #3B3D40",
"_ 	c #35373A",
": 	c #4F4F4F",
"< 	c #505050",
"[ 	c #424548",
"} 	c #515151",
"| 	c #595959",
"1 	c #4C4F50",
"2 	c #434648",
"3 	c #5B5B5B",
"4 	c #5A5A5A",
"5 	c #626262",
"6 	c #636363",
"7 	c #54575A",
"8 	c #4B4E50",
"9 	c #646464",
"0 	c #656565",
"a 	c #6D6D6D",
"b 	c #5D6063",
"c 	c #535558",
"d 	c #6F6F6F",
"e 	c #767676",
"f 	c #66696B",
"g 	c #5B5D60",
"h 	c #787878",
"i 	c #7E7E7E",
"j 	c #7F7E7E",
"k 	c #6E7173",
"l 	c #626568",
"m 	c #808080",
"n 	c #818181",
"o 	c #888888",
"p 	c #77797C",
"q 	c #6A6C6F",
"r 	c #8A8A8A",
"s 	c #8B8B8B",
"t 	c #919191",
"u 	c #808285",
"v 	c #727478",
"w 	c #939393",
"x 	c #949494",
"y 	c #9B9B9B",
"z 	c #9A9A9A",
"A 	c #898B8E",
"B 	c #7A7D80",
"C 	c #9D9D9C",
"D 	c #9F9F9F",
"E 	c #A4A4A4",
"F 	c #A3A3A3",
"G 	c #919497",
"H 	c #818487",
"I 	c #A6A6A6",
"J 	c #A7A7A7",
"K 	c #ACACAC",
"L 	c #999C9F",
"M 	c #888B8F",
"N 	c #AFAFAE",
"O 	c #B0B0B0",
"P 	c #B5B5B5",
"Q 	c #A1A4A7",
"R 	c #909396",
"S 	c #B8B7B7",
"T 	c #B9B9B9",
"U 	c #BEBEBE",
"V 	c #AAADAF",
"W 	c #979A9D",
"X 	c #C1C0C0",
"Y 	c #C2C2C2",
"Z 	c #C6C6C6",
"` 	c #C7C7C7",
" .	c #B2B5B8",
"..	c #9FA2A5",
"+.	c #CACAC9",
"@.	c #CBCBCB",
"#.	c #CECECE",
"$.	c #CFCFCF",
"%.	c #BABDC0",
"&.	c #A6A9AD",
"*.	c #D2D2D2",
"=.	c #D3D3D3",
"-.	c #D6D6D6",
";.	c #D7D7D7",
">.	c #C2C5C8",
",.	c #ADB0B4",
"'.	c #DADADA",
").	c #DBDBDB",
"!.	c #DDDDDD",
"~.	c #DEDEDE",
"{.	c #C9CCCF",
"].	c #B4B7BA",
"^.	c #E1E1E1",
"/.	c #E3E3E3",
"(.	c #E4E4E4",
"_.	c #E6E6E6",
":.	c #D0D3D6",
"<.	c #BBBEC1",
"[.	c #E9E9E9",
"}.	c #EAEAEA",
"|.	c #EDEDED",
"1.	c #D5D8DB",
"2.	c #C1C4C8",
"3.	c #F0F0F0",
"4.	c #F4F4F4",
"5.	c #DADDDF",
"6.	c #C5C8CB",
"7.	c #F7F7F6",
"8.	c #F6F6F6",
"9.	c #F8F8F8",
"0.	c #DDE0E3",
"a.	c #C8CBCE",
"b.	c #FBFBFB",
"c.	c #FAFAFA",
"d.	c #F7F7F7",
"e.	c #FCFCFC",
"f.	c #DFE2E4",
"g.	c #CACDD0",
"h.	c #FEFEFE",
"i.	c #F9F9F9",
"j.	c #E0E3E6",
"k.	c #CBCED1",
"l.	c #FFFFFF",
"m.	c #FDFDFD",
"n.	c #DFE2E5",
"o.	c #DEE0E3",
"p.	c #F1F1F1",
"q.	c #F5F5F5",
"r.	c #DADDE0",
"s.	c #C6C9CC",
"t.	c #EBEBEB",
"u.	c #EEEEEE",
"v.	c #D6D9DB",
"w.	c #E5E5E5",
"x.	c #E7E6E6",
"y.	c #D1D4D6",
"z.	c #BCBFC3",
"A.	c #DFDFDF",
"B.	c #CBCDD0",
"C.	c #B5B8BC",
"D.	c #E3E2E2",
"E.	c #D8D8D8",
"F.	c #C3C6C9",
"G.	c #AFB2B5",
"H.	c #DCDCDC",
"I.	c #D0D0D0",
"J.	c #BCBEC1",
"K.	c #A8ABAE",
"L.	c #D4D4D4",
"M.	c #C8C8C8",
"N.	c #C9C8C8",
"O.	c #B3B7BA",
"P.	c #CDCDCD",
"Q.	c #BFBFBF",
"R.	c #ACAFB1",
"S.	c #C4C4C4",
"T.	c #B6B6B6",
"U.	c #A3A6A8",
"V.	c #BBBBBB",
"W.	c #AEAEAE",
"X.	c #9B9DA0",
"Y.	c #8A8D90",
"Z.	c #B2B2B2",
"`.	c #A5A5A5",
" +	c #929598",
".+	c #828688",
"++	c #A8A8A8",
"@+	c #A9A9A9",
"#+	c #9C9C9C",
"$+	c #7B7E81",
"%+	c #9E9E9E",
"&+	c #A1A1A1",
"*+	c #818486",
"=+	c #747679",
"-+	c #969696",
";+	c #787B7D",
">+	c #6B6D71",
",+	c #8D8D8D",
"'+	c #707275",
")+	c #646669",
"!+	c #828282",
"~+	c #838383",
"{+	c #777777",
"]+	c #787877",
"^+	c #676A6D",
"/+	c #5C5F62",
"(+	c #797979",
"_+	c #7A7A7A",
":+	c #5F6264",
"<+	c #70706F",
"[+	c #717171",
"}+	c #56595C",
"|+	c #4D4F52",
"1+	c #666666",
"2+	c #454749",
"3+	c #5D5D5D",
"4+	c #444749",
"5+	c #3D3F42",
"6+	c #525252",
"7+	c #3B3E41",
"8+	c #343739",
"9+	c #444344",
"0+	c #404041",
"a+	c #484747",
"b+	c #4A4B4C",
"c+	c #48494B",
"d+	c #484A4B",
"e+	c #484847",
"                                ",
"  . + + + + + + + + + + + + @   ",
"  # $ $ $ $ $ $ $ $ $ $ $ $ %   ",
"  & * * = - ; ; ; ; - > $ * .   ",
"  & $ , ' ' ' ' ' ' ' ' ) $ .   ",
"  & $ ! ' ~ ~ ~ ~ ~ ~ ' { + .   ",
"  & $ ] ' ~ ~ ~ ~ ~ ~ ' ^ + .   ",
"  & $ / ' ~ ~ ~ ~ ~ ~ ' ^ + .   ",
"  & $ / ' ~ ~ ~ ~ ~ ~ ' ^ + .   ",
"  & $ / ' ~ ~ ~ ~ ~ ~ ' ^ + .   ",
"  & $ / ' ~ ~ ~ ~ ~ ~ ' ^ + .   ",
"  & $ / ' ~ ~ ~ ~ ~ ~ ' ^ + .   ",
"  & $ / ' ~ ~ ~ ~ ~ ~ ' ^ + .   ",
"  & $ / ' ~ ~ ~ ~ ~ ~ ' ^ + .   ",
"  & + ( ' ~ ~ ~ ~ ~ ~ ' _ & .   ",
"  : < [ ' ~ ~ ~ ~ ~ ~ ' ( } }   ",
"  | | 1 ' ~ ~ ~ ~ ~ ~ ' 2 3 4   ",
"  5 6 7 ' ~ ~ ~ ~ ~ ~ ' 8 9 0   ",
"  a a b ' ~ ~ ~ ~ ~ ~ ' c d d   ",
"  e e f ' ~ ~ ~ ~ ~ ~ ' g h h   ",
"  i j k ' ~ ~ ~ ~ ~ ~ ' l m n   ",
"  o o p ' ~ ~ ~ ~ ~ ~ ' q r s   ",
"  t t u ' ~ ~ ~ ~ ~ ~ ' v w x   ",
"  y z A ' ~ ~ ~ ~ ~ ~ ' B C D   ",
"  E F G ' ~ ~ ~ ~ ~ ~ ' H I J   ",
"  K K L ' ~ ~ ~ ~ ~ ~ ' M N O   ",
"  P P Q ' ~ ~ ~ ~ ~ ~ ' R S T   ",
"  U U V ' ~ ~ ~ ~ ~ ~ ' W X Y   ",
"  Z `  .' ~ ~ ~ ~ ~ ~ ' ..+.@.  ",
"  #.$.%.' ~ ~ ~ ~ ~ ~ ' &.*.=.  ",
"  -.;.>.' ~ ~ ~ ~ ~ ~ ' ,.'.).  ",
"  !.~.{.' ~ ~ ~ ~ ~ ~ ' ].^./.  ",
"  (._.:.' ~ ~ ~ ~ ~ ~ ' <.[.[.  ",
"  }.|.1.' ~ ~ ~ ~ ~ ~ ' 2.3.3.  ",
"  3.4.5.' ~ ~ ~ ~ ~ ~ ' 6.7.8.  ",
"  4.9.0.' ~ ~ ~ ~ ~ ~ ' a.b.c.  ",
"  d.e.f.' ~ ~ ~ ~ ~ ~ ' g.h.e.  ",
"  i.h.j.' ~ ~ ~ ~ ~ ~ ' k.l.h.  ",
"  i.h.j.' ~ ~ ~ ~ ~ ~ ' k.l.h.  ",
"  9.m.n.' ~ ~ ~ ~ ~ ~ ' g.h.e.  ",
"  4.i.o.' ~ ~ ~ ~ ~ ~ ' {.e.c.  ",
"  p.q.r.' ~ ~ ~ ~ ~ ~ ' s.9.d.  ",
"  t.u.v.' ~ ~ ~ ~ ~ ~ ' >.p.p.  ",
"  w.x.y.' ~ ~ ~ ~ ~ ~ ' z.}.}.  ",
"  ~.A.B.' ~ ~ ~ ~ ~ ~ ' C.D./.  ",
"  ;.E.F.' ~ ~ ~ ~ ~ ~ ' G.).H.  ",
"  I.I.J.' ~ ~ ~ ~ ~ ~ ' K.=.L.  ",
"  M.N.O.' ~ ~ ~ ~ ~ ~ ' Q @.P.  ",
"  Q.Q.R.' ~ ~ ~ ~ ~ ~ ' L Y S.  ",
"  T.T.U.' ~ ~ ~ ~ ~ ~ ' G T V.  ",
"  W.W.X.' ~ ~ ~ ~ ~ ~ ' Y.O Z.  ",
"  `.`. +' ~ ~ ~ ~ ~ ~ ' .+++@+  ",
"  #+#+Y.' ~ ~ ~ ~ ~ ~ ' $+%+&+  ",
"  w w *+' ~ ~ ~ ~ ~ ~ ' =+x -+  ",
"  r r ;+' ~ ~ ~ ~ ~ ~ ' >+s ,+  ",
"  m m '+' ~ ~ ~ ~ ~ ~ ' )+!+~+  ",
"  {+]+^+' ~ ~ ~ ~ ~ ~ ' /+(+_+  ",
"  d d :+' ~ ~ ~ ~ ~ ~ ' 7 <+[+  ",
"  9 9 }+' ~ ~ ~ ~ ~ ~ ' |+1+1+  ",
"  3 3 |+' ~ ~ ~ ~ ~ ~ ' 2+3+3+  ",
"  } } 4+' ~ ~ ~ ~ ~ ~ ' 5+6+6+  ",
"  # + 7+' ~ ~ ~ ~ ~ ~ ' _ & .   ",
"  & $ / ' ~ ~ ~ ~ ~ ~ ' ^ + .   ",
"  & $ / ' ~ ~ ~ ~ ~ ~ ' ^ + .   ",
"  & $ / ' ~ ~ ~ ~ ~ ~ ' ^ + .   ",
"  & $ / ' ~ ~ ~ ~ ~ ~ ' ^ + .   ",
"  & $ / ' ~ ~ ~ ~ ~ ~ ' ^ + .   ",
"  & $ / ' ~ ~ ~ ~ ~ ~ ' ^ + .   ",
"  & $ / ' ~ ~ ~ ~ ~ ~ ' ^ + .   ",
"  & $ / ' ~ ~ ~ ~ ~ ~ ' ^ + .   ",
"  & $ ! ' ~ ~ ~ ~ ~ ~ ' 8++ .   ",
"  & $ 9+' ' ' ' ' ' ' ' 0+$ .   ",
"  & * a+b+c+d+d+d+d+c+b+$ * .   ",
"  # $ $ a+e+e+e+e+e+e+a+$ $ %   ",
"  @ # # # # # # # # # # # # <   ",
"                                "};
