/* XPM */
static char * C:\Users\Lucas\OneDrive _ Universidade do Porto\LCOM\MINIX_LCOM\shared\proj\graphics\xpms\elements\button_east_xpm[] = {
"16 46 156 2",
"  	c #000000",
". 	c #3E3E3E",
"+ 	c #3F3F3F",
"@ 	c #404040",
"# 	c #383838",
"$ 	c #4A4A4A",
"% 	c #494949",
"& 	c #4B4B4B",
"* 	c #424242",
"= 	c #474747",
"- 	c #484848",
"; 	c #464646",
"> 	c #505050",
", 	c #535353",
"' 	c #555555",
") 	c #4C4C4C",
"! 	c #575757",
"~ 	c #5D5D5D",
"{ 	c #5F5F5F",
"] 	c #606060",
"^ 	c #5A5A5A",
"/ 	c #565656",
"( 	c #525252",
"_ 	c #4D4D4D",
": 	c #646464",
"< 	c #6A6A6A",
"[ 	c #6E6E6E",
"} 	c #767676",
"| 	c #747474",
"1 	c #717171",
"2 	c #6D6D6D",
"3 	c #696969",
"4 	c #5E5E5E",
"5 	c #454545",
"6 	c #707070",
"7 	c #7B7B7B",
"8 	c #676767",
"9 	c #312D34",
"0 	c #7C7C7C",
"a 	c #818181",
"b 	c #898989",
"c 	c #5E6063",
"d 	c #099519",
"e 	c #8D8D8D",
"f 	c #949494",
"g 	c #64676A",
"h 	c #959595",
"i 	c #999999",
"j 	c #A0A0A0",
"k 	c #6D7073",
"l 	c #A1A1A1",
"m 	c #A5A5A5",
"n 	c #ACACAC",
"o 	c #74777A",
"p 	c #ADADAD",
"q 	c #B0B0B0",
"r 	c #B6B6B6",
"s 	c #7C7F82",
"t 	c #B9B9B9",
"u 	c #BABABA",
"v 	c #C1C1C1",
"w 	c #848689",
"x 	c #C5C5C5",
"y 	c #CBCBCB",
"z 	c #8A8D90",
"A 	c #CFCFCF",
"B 	c #D0D0D0",
"C 	c #D5D5D5",
"D 	c #919497",
"E 	c #DADADA",
"F 	c #DEDEDE",
"G 	c #979A9D",
"H 	c #E2E2E2",
"I 	c #E3E3E3",
"J 	c #E5E5E5",
"K 	c #9C9FA2",
"L 	c #E7E7E7",
"M 	c #EBEBEB",
"N 	c #EEEDED",
"O 	c #A2A5A8",
"P 	c #ECECEC",
"Q 	c #F3F3F3",
"R 	c #F4F4F4",
"S 	c #A6A9AC",
"T 	c #F0F0F0",
"U 	c #F8F8F8",
"V 	c #F9F9F8",
"W 	c #A9ACAF",
"X 	c #FCFCFC",
"Y 	c #AAAEB1",
"Z 	c #F1F1F1",
"` 	c #FFFFFF",
" .	c #FEFEFE",
"..	c #ACAFB2",
"+.	c #FDFDFD",
"@.	c #ABAEB1",
"#.	c #F9F9F9",
"$.	c #A8ABAE",
"%.	c #F3F3F2",
"&.	c #A5A8AB",
"*.	c #EAEAEA",
"=.	c #EDEDED",
"-.	c #A0A3A6",
";.	c #E1E1E1",
">.	c #E5E4E4",
",.	c #9B9EA1",
"'.	c #D8D8D8",
").	c #D6D6D6",
"!.	c #DBDBDB",
"~.	c #95989B",
"{.	c #D1D0D0",
"].	c #8E9194",
"^.	c #BFBFBF",
"/.	c #C0C0C0",
"(.	c #C6C6C6",
"_.	c #878A8D",
":.	c #B2B2B2",
"<.	c #B5B5B5",
"[.	c #BCBCBC",
"}.	c #808386",
"|.	c #A9A9A9",
"1.	c #AFAFAF",
"2.	c #777A7D",
"3.	c #989898",
"4.	c #9C9C9C",
"5.	c #A3A3A2",
"6.	c #6E7174",
"7.	c #8A8A8A",
"8.	c #8F8F8F",
"9.	c #979797",
"0.	c #686B6C",
"a.	c #828282",
"b.	c #868686",
"c.	c #757574",
"d.	c #6F6F6F",
"e.	c #757575",
"f.	c #797979",
"g.	c #808080",
"h.	c #7E7E7E",
"i.	c #6B6B6C",
"j.	c #656565",
"k.	c #575758",
"l.	c #464647",
"m.	c #626262",
"n.	c #686868",
"o.	c #595959",
"p.	c #5C5C5C",
"q.	c #5B5B5B",
"r.	c #545454",
"s.	c #4F4F4F",
"t.	c #4E4E4E",
"u.	c #515151",
"v.	c #444444",
"w.	c #393939",
"x.	c #3A3A3A",
"y.	c #333333",
"                                ",
"  . + . . . . . . . . . . @ #   ",
"  $ $ % % % % % % % % % % & *   ",
"  = - = ; ; ; = = = = = = % @   ",
"  = = - % % $ % = = = = = % @   ",
"  $ > , ' ' ' , > ) $ = = % @   ",
"  ! ~ { ] ] { ~ ^ / ( _ - - @   ",
"  : < < [ } | 1 2 3 : 4 ! , 5   ",
"  6 } 7 8 9 9 9 9 9 9 9 9 9 9   ",
"  0 a b c 9 d d d d d d d d 9   ",
"  b e f g 9 d d d d d d d d 9   ",
"  h i j k 9 d d d d d d d d 9   ",
"  l m n o 9 d d d d d d d d 9   ",
"  p q r s 9 d d d d d d d d 9   ",
"  t u v w 9 d d d d d d d d 9   ",
"  x x y z 9 d d d d d d d d 9   ",
"  A B C D 9 d d d d d d d d 9   ",
"  E E F G 9 d d d d d d d d 9   ",
"  H I J K 9 d d d d d d d d 9   ",
"  L M N O 9 d d d d d d d d 9   ",
"  P Q R S 9 d d d d d d d d 9   ",
"  T U V W 9 d d d d d d d d 9   ",
"  T X X Y 9 d d d d d d d d 9   ",
"  Z `  ...9 d d d d d d d d 9   ",
"  Z ` +...9 d d d d d d d d 9   ",
"  T +.X @.9 d d d d d d d d 9   ",
"  T #.U $.9 d d d d d d d d 9   ",
"  P Z %.&.9 d d d d d d d d 9   ",
"  L *.=.-.9 d d d d d d d d 9   ",
"  ;.;.>.,.9 d d d d d d d d 9   ",
"  '.).!.~.9 d d d d d d d d 9   ",
"  y y {.].9 d d d d d d d d 9   ",
"  ^./.(._.9 d d d d d d d d 9   ",
"  :.<.[.}.9 d d d d d d d d 9   ",
"  m |.1.2.9 d d d d d d d d 9   ",
"  3.4.5.6.9 d d d d d d d d 9   ",
"  7.8.9.0.9 d d d d d d d d 9   ",
"  0 a.b.c.9 9 9 9 9 9 9 9 9 9   ",
"  d.e.e.f.g.h.7 } 1 i.j.4 k.l.  ",
"  m.8 < < 3 n.j.m.~ o., ) $ +   ",
"  , ^ p.~ ~ ~ q.! r.s.$ = % @   ",
"  = & t.> u.u.s.) % - = = % @   ",
"  = = ; = = = = = = = = = % @   ",
"  & ) & & & & & & & & & & _ v.  ",
"  # w.# # # # # # # # # # x.y.  ",
"                                "};
