/* XPM */
static char * C:\Users\Lucas\OneDrive _ Universidade do Porto\LCOM\MINIX_LCOM\shared\proj\graphics\xpms\elements\lever_xpm[] = {
"36 30 75 1",
" 	c None",
".	c #393939",
"+	c #404040",
"@	c #3F3F3F",
"#	c #383838",
"$	c #333333",
"%	c #515055",
"&	c #4B5077",
"*	c #3F8976",
"=	c #3F8676",
"-	c #4C4E76",
";	c #504F53",
">	c #303030",
",	c #282828",
"'	c #535255",
")	c #3D847B",
"!	c #0CF12E",
"~	c #00FF00",
"{	c #0EEF35",
"]	c #3F7C7B",
"^	c #525253",
"/	c #232323",
"(	c #3C3C3C",
"_	c #50496F",
":	c #15E344",
"<	c #1ADD52",
"[	c #514B6A",
"}	c #3A3A3A",
"|	c #544D70",
"1	c #17E149",
"2	c #1CD956",
"3	c #55506B",
"4	c #2A2A2A",
"5	c #686769",
"6	c #508085",
"7	c #12EA3D",
"8	c #00FE01",
"9	c #00FE02",
"0	c #15E742",
"a	c #547B86",
"b	c #666667",
"c	c #252525",
"d	c #464646",
"e	c #7E7D7F",
"f	c #7D7A98",
"g	c #6D8F92",
"h	c #6D8D92",
"i	c #7F7B97",
"j	c #7C7C7D",
"k	c #434343",
"l	c #343434",
"m	c #A3A3A3",
"n	c #A8A8A8",
"o	c #B6B6B6",
"p	c #BEBEBE",
"q	c #C8C8C8",
"r	c #D2D2D2",
"s	c #D7D7D7",
"t	c #E6E6E6",
"u	c #DEDEDE",
"v	c #F2F2F2",
"w	c #DDDDDD",
"x	c #BDBDBD",
"y	c #B5B5B5",
"z	c #A2A2A2",
"A	c #8E8E8E",
"B	c #929292",
"C	c #797979",
"D	c #7D7D7D",
"E	c #646464",
"F	c #686868",
"G	c #555555",
"H	c #565656",
"I	c #545454",
"J	c #3D3D3D",
"                .+@#                ",
"              $%&*=-;>              ",
"             ,')!~~{]^/             ",
"             (_:~~~~<[}             ",
"             (|1~~~~23}             ",
"             4567890abc             ",
"              defghijk              ",
"               lmnnm,               ",
"                oppo                ",
"                qrrq                ",
"                stts                ",
"                uvvw                ",
"                stts                ",
"                qrrq                ",
"                oxxy                ",
"                znnz                ",
"                ABBA                ",
"                CDDC                ",
"                EFFE                ",
"                GHHG                ",
"                IGGI                ",
"                IGGI                ",
"                JJJ(                ",
"                                    ",
"                                    ",
"                                    ",
"                                    ",
"                                    ",
"                                    ",
"                                    "};
