/* XPM */
static char * C:\Users\Lucas\OneDrive _ Universidade do Porto\LCOM\MINIX_LCOM\shared\proj\graphics\xpms\elements\lever_red_xpm[] = {
"36 30 82 1",
" 	c None",
".	c #323232",
"+	c #383939",
"@	c #373837",
"#	c #2D2D2C",
"$	c #2B2B2B",
"%	c #4E4A51",
"&	c #873E67",
"*	c #BF324F",
"=	c #A9365C",
"-	c #5C4669",
";	c #444445",
">	c #1D1D1D",
",	c #514F54",
"'	c #B32967",
")	c #FC0810",
"!	c #FF0000",
"~	c #FF0001",
"{	c #ED1042",
"]	c #834066",
"^	c #404040",
"/	c #373737",
"(	c #83465B",
"_	c #FA021F",
":	c #D92046",
"<	c #505055",
"[	c #363636",
"}	c #734B5E",
"|	c #F7032B",
"1	c #D3254F",
"2	c #525256",
"3	c #5F5E61",
"4	c #B03F70",
"5	c #FB061C",
"6	c #FF0002",
"7	c #EE123F",
"8	c #855A77",
"9	c #4A4A4A",
"0	c #717074",
"a	c #A77284",
"b	c #D25D6A",
"c	c #C86475",
"d	c #907B89",
"e	c #616161",
"f	c #A0A0A0",
"g	c #A7A7A7",
"h	c #878787",
"i	c #464646",
"j	c #B4B4B4",
"k	c #BCBCBC",
"l	c #979797",
"m	c #4D4D4D",
"n	c #C6C6C6",
"o	c #D2D2D2",
"p	c #525252",
"q	c #D5D5D5",
"r	c #E6E6E6",
"s	c #545454",
"t	c #DBDBDB",
"u	c #F2F2F2",
"v	c #BABABA",
"w	c #D4D4D4",
"x	c #D1D1D1",
"y	c #B3B3B3",
"z	c #3F3F3F",
"A	c #9F9F9F",
"B	c #A6A6A6",
"C	c #868686",
"D	c #8B8B8B",
"E	c #919191",
"F	c #757575",
"G	c #2E2E2E",
"H	c #767676",
"I	c #7B7B7B",
"J	c #636363",
"K	c #252525",
"L	c #656565",
"M	c #515151",
"N	c #212121",
"O	c #565656",
"P	c #555555",
"Q	c #202020",
"                .+@#                ",
"              $%&*=-;               ",
"             >,')!~{]^              ",
"             /(_!!!!:<              ",
"             [}|!!!!12              ",
"              345!6789              ",
"              /0abcde               ",
"               ^fggh                ",
"               ijkkl                ",
"               mnoog                ",
"               pqrrj                ",
"               stuuv                ",
"               pwrrj                ",
"               mnxxg                ",
"               iykkl                ",
"               zABBC                ",
"               /DEEF                ",
"               GHIIJ                ",
"               KeLLM                ",
"               NsOOi                ",
"               NsPPi                ",
"               NsPPi                ",
"                QNN                 ",
"                                    ",
"                                    ",
"                                    ",
"                                    ",
"                                    ",
"                                    ",
"                                    "};
