/* XPM */
static char * C:\Users\Lucas\OneDrive _ Universidade do Porto\LCOM\MINIX_LCOM\shared\proj\graphics\xpms\elements\lever_base_green_xpm[] = {
"36 30 128 2",
"  	c None",
". 	c #585858",
"+ 	c #737373",
"@ 	c #8A8A8A",
"# 	c #989898",
"$ 	c #9F9F9F",
"% 	c #949494",
"& 	c #858585",
"* 	c #686868",
"= 	c #434344",
"- 	c #5A5A5A",
"; 	c #838383",
"> 	c #999999",
", 	c #A6A6A6",
"' 	c #AFAFAF",
") 	c #B3B3B3",
"! 	c #B6B6B6",
"~ 	c #B4B4B4",
"{ 	c #B0B0B0",
"] 	c #969696",
"^ 	c #787878",
"/ 	c #494949",
"( 	c #464646",
"_ 	c #707070",
": 	c #868686",
"< 	c #838481",
"[ 	c #829468",
"} 	c #769342",
"| 	c #81AA2D",
"1 	c #7CA031",
"2 	c #748C4E",
"3 	c #828A73",
"4 	c #8D8C8D",
"5 	c #9E9D9E",
"6 	c #636363",
"7 	c #343434",
"8 	c #232323",
"9 	c #4F4F4F",
"0 	c #6B6B6B",
"a 	c #7C7C7C",
"b 	c #818181",
"c 	c #65695B",
"d 	c #789832",
"e 	c #94C530",
"f 	c #9ACD32",
"g 	c #98C931",
"h 	c #8FBC2F",
"i 	c #6B8239",
"j 	c #747570",
"k 	c #888888",
"l 	c #696969",
"m 	c #404041",
"n 	c #333333",
"o 	c #515151",
"p 	c #5E5E5E",
"q 	c #6D6D6D",
"r 	c #63685C",
"s 	c #74962F",
"t 	c #95C431",
"u 	c #8DB82E",
"v 	c #697F3F",
"w 	c #6D6D6C",
"x 	c #6F6F6F",
"y 	c #464647",
"z 	c #1F1F20",
"A 	c #383839",
"B 	c #545454",
"C 	c #555555",
"D 	c #535E3C",
"E 	c #8CB62F",
"F 	c #99CC32",
"G 	c #7DA42C",
"H 	c #545550",
"I 	c #5D5D5D",
"J 	c #4E4E4E",
"K 	c #252525",
"L 	c #3E3E3E",
"M 	c #505050",
"N 	c #60772F",
"O 	c #93C330",
"P 	c #86B02B",
"Q 	c #4B523B",
"R 	c #2D2D2D",
"S 	c #3D3D3D",
"T 	c #65832C",
"U 	c #96C631",
"V 	c #9ACE32",
"W 	c #8DB62F",
"X 	c #4B5237",
"Y 	c #2A2A2A",
"Z 	c #393939",
"` 	c #566C2F",
" .	c #597131",
"..	c #5C7336",
"+.	c #60763D",
"@.	c #647944",
"#.	c #697D4B",
"$.	c #6D8051",
"%.	c #728457",
"&.	c #76875D",
"*.	c #798A61",
"=.	c #7B8B63",
"-.	c #597130",
";.	c #444F2C",
">.	c #464645",
",.	c #272728",
"'.	c #373737",
").	c #606060",
"!.	c #7D7D7D",
"~.	c #8C8C8C",
"{.	c #A4A4A4",
"].	c #AFAFAE",
"^.	c #BABABA",
"/.	c #AEAEAE",
"(.	c #8B8B8B",
"_.	c #6E6E6F",
":.	c #212121",
"<.	c #0F0F10",
"[.	c #363636",
"}.	c #39393A",
"|.	c #3A3A3A",
"1.	c #3D3D3E",
"2.	c #474747",
"3.	c #6A6A6A",
"4.	c #717171",
"5.	c #757575",
"6.	c #626263",
"7.	c #2B2B2B",
"                                                                        ",
"                                                                        ",
"                                                                        ",
"                                                                        ",
"                                                                        ",
"                                                                        ",
"                                                                        ",
"                                                                        ",
"                                                                        ",
"                                                                        ",
"                                                                        ",
"                                                                        ",
"                                                                        ",
"                                                                        ",
"                                                                        ",
"                                                                        ",
"                                                                        ",
"                                                                        ",
"                                                                        ",
"                          . + @ # $ $ % & * =                           ",
"                      - ; > , ' ) ! ! ~ { , ] ^ /                       ",
"                  ( _ : ] ] < [ } | 1 2 3 4 5 ] : 6 7                   ",
"              8 9 0 a b c d e f f f f f g h i j k a l m                 ",
"            n o p q r s t f f f f f f f f f f u v w x p y z             ",
"          A B C - D E f f f f f f f f f f f f f F G H I C J K           ",
"        L C C M N O f f f f f f f f f f f f f f f f P Q B C M R         ",
"      S C C M T U V V V V V V V V V V V V V V V V V f W X B C o Y       ",
"    S C C C Z `  ...+.@.#.$.%.&.*.=.=.*.&.%.$.#.@.+...-.;.>.C C o ,.    ",
"  '.C C C C C C C ).x !.~.# {.].! ^.^.! /.{.# (.!._.).C C C C C C 9 :.  ",
"<.[.}.}.}.}.}.}.|.1.2.o - 6 3.4.5.^ ^ 5.4.3.6.- o 2.S |.}.}.}.}.}.}.7.  "};
