/* XPM */
static char * C:\Users\Lucas\OneDrive _ Universidade do Porto\LCOM\MINIX_LCOM\shared\proj\graphics\xpms\elements\numbers_xpm[] = {
"320 30 4 1",
" 	c None",
".	c #020202",
"+	c #010101",
"@	c #000000",
"        .+++++++                                               .+++++++.                  @.+++++++.                                                                                .++++++++.                                          .+++++++.                   .++++++.                                           ++++++   ",
"      ++++++++++++.                   ++++++.              .+++++++++++++++           .++++++++++++++++                      ++++++++         +++++++++++++++++++++              +++++++++++++       +++++++++++++++++++++++         ++++++++++++++.             .++++++++++++                                         ++++++   ",
"    ++++++++++++++++                  ++++++.             .+++++++++++++++++          +++++++++++++++++++                   +++++++++         +++++++++++++++++++++            +++++++++++++++       +++++++++++++++++++++++        +++++++++++++++++           ++++++++++++++++                                      .+++++    ",
"   ++++++++++++++++++                +++++++.             .++++++++++++++++++         ++++++++++++++++++++                 ++++++++++         +++++++++++++++++++++          @++++++++++++++++       +++++++++++++++++++++++      .+++++++++++++++++++         ++++++++++++++++++                                     ++++++    ",
"   +++++++++++++++++++             .++++++++.             .+++++++++++++++++++        ++++++++++++++++++++                .++++++++++         +++++++++++++++++++++         .+++++++++++++++++       +++++++++++++++++++++++      +++++++++++++++++++++       +++++++++++++++++++.                                    +++++.    ",
"  ++++++++    ++++++++         +++++++++++++.             .+++++++++++++++++++.       ++++++++++++++++++++.               +++++++++++         +++++++++++++++++++++         +++++++++       ++       +++++++++++++++++++++++     +++++++++     ++++++++      +++++++++    ++++++++                                   ++++++     ",
"  +++++++      ++++++++        +++++++++++++.             .+++.      ++++++++++       ++++.       +++++++++              ++++++++++++         +++++++++++++++++++++        ++++++++                  +++++++++++++++++++++++     +++++++.       ++++++++     ++++++++      +++++++.                                  ++++++     ",
" ++++++++       +++++++        +++++++++++++.             .+           ++++++++       +@           ++++++++             +++++++++++++         +++++++                     .+++++++                                  +++++++.     +++++++        .+++++++    .+++++++       .+++++++                                 ++++++      ",
" +++++++        +++++++.       +++++++++++++.                          ++++++++                     +++++++            ++++++ +++++++         +++++++                     +++++++                                  ++++++++      +++++++        .++++++.    ++++++++        +++++++       .+++++++                  ++++++      ",
" +++++++        ++++++++       +++++++++++++.                          .+++++++                     ++++++.           .+++++  +++++++         +++++++                     +++++++                                 .+++++++.      ++++++++       +++++++     +++++++.        +++++++.      .+++++++                 .+++++       ",
" +++++++        .+++++++             +++++++.                          .+++++++                    +++++++            +++++   +++++++         +++++++                    .++++++.   ++++++                        ++++++++       +++++++++.     +++++++     +++++++.        +++++++.      .+++++++                 ++++++       ",
".+++++++         +++++++             +++++++.                          ++++++++                   +++++++.           +++++@   +++++++         ++++++++++++++.            +++++++ .++++++++++.                    ++++++++         +++++++++++  +++++++      ++++++++        ++++++++      .+++++++                 +++++.       ",
"++++++++         +++++++             +++++++.                          +++++++              ++++++++++++.           ++++++    +++++++         +++++++++++++++++.         +++++++++++++++++++++                   ++++++++         .+++++++++++++++++.       ++++++++        .+++++++      .+++++++                ++++++        ",
"++++++++         +++++++             +++++++.                         ++++++++              +++++++++++            ++++++     +++++++         +++++++++++++++++++        +++++++++++++++++++++.                 ++++++++            +++++++++++++++         .+++++++.       ++++++++      .+++++++                ++++++        ",
"++++++++         +++++++             +++++++.                         +++++++               ++++++++++            ++++++      +++++++         ++++++++++++++++++++       ++++++++++++++++++++++                 +++++++.             +++++++++++++++         +++++++++      ++++++++      .+++++++               .+++++         ",
"++++++++         +++++++             +++++++.                        ++++++++               ++++++++++++.         +++++       +++++++         +++++++++++++++++++++      +++++++.     .+++++++++               ++++++++             .+++++++++++++++++       +++++++++++++++++++++++      .+++++++               ++++++         ",
"++++++++         +++++++             +++++++.                       ++++++++                ++++++++++++++       +++++        +++++++         ++.        .+++++++++      +++++++        ++++++++              .+++++++             ++++++.+++++++++++++       +++++++++++++++++++++.                             +++++.         ",
"++++++++         +++++++             +++++++.                      ++++++++                       .++++++++     +++++.        +++++++                      ++++++++.     +++++++        .+++++++              ++++++++           .++++++.   .++++++++++        ++++++++++++++++++++                             ++++++          ",
".+++++++         +++++++             +++++++.                     ++++++++                          +++++++     +++++++++++++++++++++++++                   ++++++++     +++++++         +++++++             ++++++++            +++++++       +++++++++        +++++++++++ +++++++                             ++++++          ",
" +++++++        .+++++++             +++++++.                   .++++++++                           +++++++.    +++++++++++++++++++++++++                   ++++++++     +++++++         +++++++             ++++++++           +++++++         ++++++++          .+++++.   +++++++                            ++++++           ",
" +++++++        ++++++++             +++++++.                  +++++++++                            +++++++.    +++++++++++++++++++++++++                   ++++++++     +++++++         +++++++            ++++++++            +++++++          +++++++                    +++++++                            ++++++           ",
" +++++++        +++++++.             +++++++.                 ++++++++.                             +++++++.    +++++++++++++++++++++++++                   +++++++.     +++++++.        +++++++           .+++++++.            +++++++          +++++++                   +++++++                            .+++++            ",
" ++++++++       +++++++              +++++++.                ++++++++                +.            ++++++++@    +++++++++++++++++++++++++    ++            ++++++++      .+++++++       ++++++++           ++++++++             ++++++++         +++++++                  ++++++++        .+++++++            ++++++            ",
" .+++++++      ++++++++              +++++++.              .++++++++                 ++++.        +++++++++                   +++++++        +++++       .+++++++++       +++++++.      +++++++.          ++++++++              ++++++++        .+++++++                 ++++++++         .+++++++            +++++.            ",
"  ++++++++    ++++++++.              +++++++.             ++++++++++++++++++++++     ++++++++++++++++++++++                   +++++++        +++++++++++++++++++++.       .+++++++.    ++++++++           ++++++++               +++++++++     +++++++++      .+       .++++++++.         .+++++++           ++++++             ",
"   +++++++++++++++++++         +++++++++++++++++++.       ++++++++++++++++++++++     +++++++++++++++++++++                    +++++++        +++++++++++++++++++++         +++++++++++++++++++.          ++++++++                ++++++++++++++++++++++       .+++++++++++++++++          .+++++++           ++++++             ",
"   ++++++++++++++++++          +++++++++++++++++++.       ++++++++++++++++++++++     ++++++++++++++++++++                     +++++++        ++++++++++++++++++++           ++++++++++++++++++          .++++++++                 ++++++++++++++++++++        .++++++++++++++++           .+++++++          .+++++              ",
"    ++++++++++++++++           +++++++++++++++++++.       ++++++++++++++++++++++     +++++++++++++++++++                      +++++++        +++++++++++++++++++             +++++++++++++++.           ++++++++                   ++++++++++++++++++         .++++++++++++++.            .+++++++          ++++++              ",
"      ++++++++++++.            +++++++++++++++++++.       ++++++++++++++++++++++      ++++++++++++++++.                       +++++++         ++++++++++++++++                .++++++++++++            ++++++++.                    .++++++++++++++.          .++++++++++++.              .+++++++          +++++.              ",
"        .+++++++               +++++++++++++++++++.       ++++++++++++++++++++++         .+++++++++.                          +++++++            .+++++++++                      .++++++.              ++++++++                        .++++++++.              +++++++++.                 .+++++++         ++++++               "};
