/* XPM */
static char *result[] = {
/* columns rows colors chars-per-pixel */
"50 50 223 2 ",
"   c black",
".  c #011D1D",
"X  c #001E1E",
"o  c #001F1F",
"O  c #051C1C",
"+  c #041D1D",
"@  c #051D1D",
"#  c #061C1C",
"$  c #081D1D",
"%  c #0A1C1C",
"&  c #0B1C1C",
"*  c #0D1C1C",
"=  c #0E1C1C",
"-  c #0F1C1C",
";  c #111B1B",
":  c #121B1B",
">  c #141B1B",
",  c #151B1B",
"<  c #161A1A",
"1  c #171A1A",
"2  c #161B1B",
"3  c #171B1B",
"4  c #131C1C",
"5  c #141C1C",
"6  c #181A1A",
"7  c #191A1A",
"8  c gray10",
"9  c #1C1A1A",
"0  c #1C1B1B",
"q  c #1E1A1A",
"w  c #201919",
"e  c #211919",
"r  c #231919",
"t  c #201A1A",
"y  c #251919",
"u  c #271919",
"i  c #281818",
"p  c #291818",
"a  c #281919",
"s  c #2A1818",
"d  c #2B1818",
"f  c #2B1919",
"g  c #2C1818",
"h  c #2D1818",
"j  c #2F1818",
"k  c #321717",
"l  c #331717",
"z  c #341717",
"x  c #351717",
"c  c #3B1616",
"v  c #3A1717",
"b  c #3B1717",
"n  c #3E1616",
"m  c #3F1717",
"M  c #301818",
"N  c #321818",
"B  c #002020",
"V  c #002121",
"C  c #002222",
"Z  c #002323",
"A  c #431515",
"S  c #401616",
"D  c #411616",
"F  c #431616",
"G  c #441515",
"H  c #451515",
"J  c #461515",
"K  c #471515",
"L  c #491414",
"P  c #4A1515",
"I  c #4B1515",
"U  c #4C1414",
"Y  c #4E1414",
"T  c #4F1414",
"R  c #4E1515",
"E  c #561313",
"W  c #501414",
"Q  c #511414",
"!  c #521414",
"~  c #541414",
"^  c #561414",
"/  c #571414",
"(  c #591313",
")  c #5B1313",
"_  c #5C1212",
"`  c #5D1313",
"'  c #5E1212",
"]  c #770F0F",
"[  c #780F0F",
"{  c #790F0F",
"}  c #7A0F0F",
"|  c #7B0F0F",
" . c #7F0E0E",
".. c #7F0F0F",
"X. c #601212",
"o. c #611212",
"O. c #631212",
"+. c #671111",
"@. c #641212",
"#. c #651212",
"$. c #661212",
"%. c #681111",
"&. c #6C1111",
"*. c #6E1111",
"=. c #711010",
"-. c #701111",
";. c #731010",
":. c #741010",
">. c #751010",
",. c #791010",
"<. c #206464",
"1. c #2B6060",
"2. c #316565",
"3. c #3A6565",
"4. c #467E7E",
"5. c #800E0E",
"6. c #800F0F",
"7. c #810F0F",
"8. c #820E0E",
"9. c #830E0E",
"0. c #840E0E",
"q. c #850E0E",
"w. c #870E0E",
"e. c #8D0D0D",
"r. c #8F0D0D",
"t. c #900D0D",
"y. c #910D0D",
"u. c #930C0C",
"i. c #940C0C",
"p. c #960C0C",
"a. c #970C0C",
"s. c #9C0B0B",
"d. c #990C0C",
"f. c #9A0C0C",
"g. c #A00B0B",
"h. c #A20B0B",
"j. c #A30B0B",
"k. c #A40B0B",
"l. c #A60A0A",
"z. c #A80A0A",
"x. c #AF0909",
"c. c #AE0A0A",
"v. c #BD0707",
"b. c #B40909",
"n. c #B60808",
"m. c #B80808",
"M. c #BA0808",
"N. c #C00707",
"B. c #C10707",
"V. c #C40707",
"C. c #C70606",
"Z. c #C60707",
"A. c #C70707",
"S. c #C80606",
"D. c #C80707",
"F. c #CA0606",
"G. c #CD0505",
"H. c #CF0505",
"J. c #CC0606",
"K. c #CD0606",
"L. c #CF0606",
"P. c #D00505",
"I. c #D10505",
"U. c #D30505",
"Y. c #D00606",
"T. c #D40505",
"R. c #D60404",
"E. c #D70404",
"W. c #D60505",
"Q. c #D90404",
"!. c #D80505",
"~. c #D90505",
"^. c #DA0404",
"/. c #DB0404",
"(. c #E10303",
"). c #E30303",
"_. c #E00404",
"`. c #E80202",
"'. c #E90303",
"]. c #EA0202",
"[. c #EB0202",
"{. c #EC0202",
"}. c #EC0303",
"|. c #EE0202",
" X c #EF0202",
".X c #F10101",
"XX c #F30000",
"oX c #F20101",
"OX c #F30101",
"+X c #F50000",
"@X c #F40101",
"#X c #F70000",
"$X c #F60101",
"%X c #F70101",
"&X c #F50202",
"*X c #F90000",
"=X c #F90101",
"-X c #FA0000",
";X c #FB0000",
":X c #FA0101",
">X c #FD0000",
",X c #FE0000",
"<X c red",
"1X c #EE1919",
"2X c #EA3131",
"3X c #FF3737",
"4X c #8B5656",
"5X c #A16161",
"6X c #EC4343",
"7X c #E84C4C",
"8X c #EB4E4E",
"9X c #F24343",
"0X c #E65050",
"qX c #EF7474",
"wX c #558A8A",
"eX c #74A5A5",
"rX c #75B3B3",
"tX c #E39595",
"yX c #FFCBCB",
"uX c #FFDDDD",
"iX c #C9FFFF",
"pX c #D5F2F2",
"aX c None",
/* pixels */
"aXaXaXaXaXaXaXaXaXaXaXaXaXaXaXaXaXaXaXaXaXaXaXaXaXaXaXaXaXaXaXaXaXaXaXaXaXaXaXaXaXaXaXaXaXaXaXaXaXaX",
"aXaXaXaXaXaXaXaXaXaXaXaXaXaXaXaXaXaXaXaXaXaXaXaXaXaXaXaXaXaXaXaXaXaXaXaXaXaXaXaXaXaXaXaXaXaXaXaXaXaX",
"aXaXaXaXaXaXaXaXaXaXaXaXaXaXaXaXaXaXaXaXaXaXaXaXaXaXaXaXaXaXaXaXaXaXaXaXaXaXaXaXaXaXaXaXaXaXaXaXaXaX",
"aXaXaXaXaXaXaXaXaXaXaXaXaXaXaXaXaXaXaXaXaXaXaXaXaXaXaXaXaXaXaXaXaXaXaXaXaXaXaXaXaXaXaXaXaXaXaXaXaXaX",
"aXaXaXaXaXaXaXaXaXaXaXaXaXaXaXaXaXaXaXaXaXaXaXaXaXaXaXaXaXaXaXaXaXaXaXaXaXaXaXaXaXaXaXaXaXaXaXaXaXaX",
"aXaXaXaXaXaXaXaXaXaXaXaXaXaXaXaXaXaXaXaXaXaXaXaXaXaXaXaXaXaXaXaXaXaXaXaXaXaXaXaXaXaXaXaXaXaXaXaXaXaX",
"aXaXaXaXaXaXaXaXaXaXaXaXaXaXaXaXaXaXaXaXaXaXaXaXaXaXaXaXaXaXaXaXaXaXaXaXaXaXaXaXaXaXaXaXaXaXaXaXaXaX",
"aXaXaXaXaXaXaXaXaXaXaXaXaXaXaXaXaXaXaXaXaXaXaXaXaXaXaXaXaXaXaXaXaXaXaXaXaXaXaXaXaXaXaXaXaXaXaXaXaXaX",
"aXaXaXaXaXaXaXaXaXaXaXaXaXaXaXaXaXaXaXaXaXaXaXaXaXaXaXaXaXaXaXaXaXaXaXaXaXaXaXaXaXaXaXaXaXaXaXaXaXaX",
"aXaXaXaXaXaXaXaXaXaXaXaXaXaXaXaXaXaXaXaXaXaXaXaXaXaXaXaXaXaXaXaXaXaXaXaXaXaXaXaXaXaXaXaXaXaXaXaXaXaX",
"aXaXaXaXaXaXaXaXaXaXaXaXaXaXaXaXaXaXaXaXaXaXaXaXaXaXaXaXaXaXaXaXaXaXaXaXaXaXaXaXaXaXaXaXaXaXaXaXaXaX",
"aXaXaXaXaXaXaXaXaXaXaXaXaXaXaXaXaXaXaXaX# r v n d 1 aXaXaXaXaXaXaXaXaXaXaXaXaXaXaXaXaXaXaXaXaXaXaXaX",
"aXaXaXaXaXaXaXaXaXaXaXaXaXaXaXaXaXaXf 6.S. X<X<X%X(.Z.a.+.x & aXaXaXaXaXaXaXaXaXaXaXaXaXaXaXaXaXaXaX",
"aXaXaXaXaXaXaXaXaXaXaXaXaXaXaXaX* e.=X<X<X<X<X<X<X<X<X<X<X<XU.s.O.h + aXaXaXaXaXaXaXaXaXaXaXaXaXaXaX",
"aXaXaXaXaXaXaXaXaXaXaXaXaXaXaXy E.<X<X<X<X<X<X<X<X<X<X<X<X<X<X<X<X=XF.y.o.z : aXaXaXaXaXaXaXaXaXaXaX",
"aXaXaXaXaXaXaXaXaXaXaXaXaXaX0 |.<X<X<X<X<X<X<X<X<X<X<X<X<X<X<X<X<X<X<X<X<X<X<X!.a.! u < 7 aXaXaXaXaX",
"aXaXaXaXaXaXaXaXaXaXaXaXaXX R.<X<X<X<X<X<X<X<X<X<X<X<X<X<X<X<X<X<X<X<X<X/.m.u.} ~ M aXaXaXaXaXaXaXaX",
"aXaXaXaXaXaXaXaXaXaXaXaXaXw.<X<X<X<X<X<X<X<X<X<X<X<X<X<X<X<X<X<X<X<Xn.= o aXaXaXaXaXaXaXaXaXaXaXaXaX",
"aXaXaXaXaXaXaXaXaXaXaXaXt <X<X<X<X<X<X<X<X<X<X<X<X<X<X<X<X<X<X<X<X<XV.D M p aXaXaXaXaXaXaXaXaXaXaXaX",
"aXaXaXaXaXaXaXaXaXaXaXaX8.<X<X,X3XqX1X#X<X<X<X<X<X<X<X<X<X<X<X<X<X<X<X<X<X,XQ.d.$.r aXaXaXaXaXaXaXaX",
"aXaXaXaXaXaXaXaXaXaXaX. D.<X<X9X3.4.pX2X<X<X<X<X<X<X<X<X<X<X<X<X<X<X<X<X<XC.q z aXaXaXaXaXaXaXaXaXaX",
"aXaXaXaXaXaXaXaXaXaXaXr $X<X<X5X1.  rXyX#X<X<X<X<X<X<X<X<X<X<X<X<X<X<X<X<X).m + aXaXaXaXaXaXaXaXaXaX",
"aXaXaXaXaXaXaXaXaXaXaXn <X<X<X4XeX  wXuX+X<X<X<X<X<X<X<X<X<X<X<X<X<X<X^.$.I J 3 aXaXaXaXaXaXaXaXaXaX",
"aXaXaXaXaXaXaXaXaXaXaXH <X<X<X0X<.2.iX8X,X<X<X<X<X<X<X<X<X<X<X<X<X<X<XN.o V aXaXaXaXaXaXaXaXaXaXaXaX",
"aXaXaXaXaXaXaXaXaXaXaXS <X<X<X<X7XtX6XXX<X<X<X<X<X<X<X<X<X<X<X<X<X<X<X<X;XZ.d.>.' Y P k 2 7 aXaXaXaX",
"aXaXaXaXaXaXaXaXaXaXaXi -X<X<X<X<X<X<X<X<X<X<X<X<X<X<X<X<X<X<X<X<X<X<X<X<X<X<X<X<X<Xk.b - 7 aXaXaXaX",
"aXaXaXaXaXaXaXaXaXaXaXO H.<X<X<X<X<X<X<X<X<X<X<X<X<X<X<X<X<X<X<X<X<X<X<X<X<X<X).y.A % aXaXaXaXaXaXaX",
"aXaXaXaXaXaXaXaXaXaXaXaXe.<X<X<X<X<X<X`.<X<X<X<X<X<X<X<X<X<X<X<X<X<X<X<X<XM.` % aXaXaXaXaXaXaXaXaXaX",
"aXaXaXaXaXaXaXaXaXaXaXaXa <X<X<X<X~.2  .<X<X<X<X<X<X<X<X<X<X<X<X<X<X.X0.9 C B h M 1 8 aXaXaXaXaXaXaX",
"aXaXaXaXaXaXaXaXaXaXaXaXaX@.w.;.F 4 ) |.<X<X<X<X<X<X<X<X<X<X<X<X<XK.5 X K p.q.( g > aXaXaXaXaXaXaXaX",
"aXaXaXaXaXaXaXaXaXaXaXaXaXB J #.*.G.<X<X<X<X<X<X<X<X<X<X<X<X<X<X<X[.~.<XI.0.l aXaXaXaXaXaXaXaXaXaXaX",
"aXaXaXaXaXaXaXaXaXaXaXaXaXaX/ <X<X<X<X<X<X<X<X<X<X<X<X<X<X<X<X<X<X<XE.X.+ aXaXaXaXaXaXaXaXaXaXaXaXaX",
"aXaXaXaXaXaXaXaXaXaXaXaXaXaXaXD OX<X<X<X<X<X<X<X<X<X<X<X<X<X<X:Xh.S X aXaXaXaXaXaXaXaXaXaXaXaXaXaXaX",
"aXaXaXaXaXaXaXaXaXaXaXaXaXaXaXaXr x.<X<X<X<X<X<X<X<X<X<X<XT...s aXaXaXaXaXaXaXaXaXaXaXaXaXaXaXaXaXaX",
"aXaXaXaXaXaXaXaXaXaXaXaXaXaXaXaXaXX P z.W.[.<X<X<X].h.[ ! * aXaXaXaXaXaXaXaXaXaXaXaXaXaXaXaXaXaXaXaX",
"aXaXaXaXaXaXaXaXaXaXaXaXaXaXaXaXaXaXaXaXu #.%.E N R -.^ B aXaXaXaXaXaXaXaXaXaXaXaXaXaXaXaXaXaXaXaXaX",
"aXaXaXaXaXaXaXaXaXaXaXaXaXaXaXaXaXaXaXaXc.oXq.j r.` <X<Xe aXaXaXaXaXaXaXaXaXaXaXaXaXaXaXaXaXaXaXaXaX",
"aXaXaXaXaXaXaXaXaXaXaXaXaXaXaXaXaXaXaXH <X<XT m.<XY J.<X| aXaXaXaXaXaXaXaXaXaXaXaXaXaXaXaXaXaXaXaXaX",
"aXaXaXaXaXaXaXaXaXaXaXaXaXaXaXaXaXaXX K.<Xf.G <X@Xo 5.<XY.X aXaXaXaXaXaXaXaXaXaXaXaXaXaXaXaXaXaXaXaX",
"aXaXaXaXaXaXaXaXaXaXaXaXaXaXaXaXaXaX;.<X-Xh K.<X,.K &.<X<XU aXaXaXaXaXaXaXaXaXaXaXaXaXaXaXaXaXaXaXaX",
"aXaXaXaXaXaXaXaXaXaXaXaXaXaXaXaXaXaXl.<X=.` <X_.W <XQ j.<X' aXaXaXaXaXaXaXaXaXaXaXaXaXaXaXaXaXaXaXaX",
"aXaXaXaXaXaXaXaXaXaXaXaXaXaXaXaXaXaXg $.x {.<X( ] <XB.z T > aXaXaXaXaXaXaXaXaXaXaXaXaXaXaXaXaXaXaXaX",
"aXaXaXaXaXaXaXaXaXaXaXaXaXaXaXaXaXaXaXZ v.<X&XX c <X<XS.V aXaXaXaXaXaXaXaXaXaXaXaXaXaXaXaXaXaXaXaXaX",
"aXaXaXaXaXaXaXaXaXaXaXaXaXaXaXaXaXaXaXL <X<X7.aXaXb.<X<X{ aXaXaXaXaXaXaXaXaXaXaXaXaXaXaXaXaXaXaXaXaX",
"aXaXaXaXaXaXaXaXaXaXaXaXaXaXaXaXaXaXX A.<X}.= aXaXd <X<X X* aXaXaXaXaXaXaXaXaXaXaXaXaXaXaXaXaXaXaXaX",
"aXaXaXaXaXaXaXaXaXaXaXaXaXaXaXaXaXaXT <X<X:.aXaXaXaXg.<X<X9.aXaXaXaXaXaXaXaXaXaXaXaXaXaXaXaXaXaXaXaX",
"aXaXaXaXaXaXaXaXaXaXaXaXaXaXaXaXaX$ L.<X'.% aXaXaXaXw >X<X&X, aXaXaXaXaXaXaXaXaXaXaXaXaXaXaXaXaXaXaX",
"aXaXaXaXaXaXaXaXaXaXaXaXaXaXaXaXaXT <X<X+.aXaXaXaXaXaXt.<X<Xi.aXaXaXaXaXaXaXaXaXaXaXaXaXaXaXaXaXaXaX",
"aXaXaXaXaXaXaXaXaXaXaXaXaXaXaXaXaXi P.M.@ aXaXaXaXaXaX; *X<X$X6 aXaXaXaXaXaXaXaXaXaXaXaXaXaXaXaXaXaX",
"aXaXaXaXaXaXaXaXaXaXaXaXaXaXaXaXaXaX% O aXaXaXaXaXaXaXaX_ <X|.; aXaXaXaXaXaXaXaXaXaXaXaXaXaXaXaXaXaX"
};
