/* XPM */
static char *result[] = {
/* columns rows colors chars-per-pixel */
"50 50 240 2 ",
"   c black",
".  c #001D1D",
"X  c #011D1D",
"o  c #021D1D",
"O  c #031D1D",
"+  c #001E1E",
"@  c #001F1F",
"#  c #051C1C",
"$  c #041D1D",
"%  c #051D1D",
"&  c #061D1D",
"*  c #071D1D",
"=  c #0C1B1B",
"-  c #0D1B1B",
";  c #0E1B1B",
":  c #0B1C1C",
">  c #0C1C1C",
",  c #0D1C1C",
"<  c #0D1D1D",
"1  c #101B1B",
"2  c #111B1B",
"3  c #141B1B",
"4  c #151B1B",
"5  c #181A1A",
"6  c #181B1B",
"7  c gray10",
"8  c #1B1A1A",
"9  c #1E1919",
"0  c #1C1A1A",
"q  c #1D1A1A",
"w  c #1E1A1A",
"e  c #1F1A1A",
"r  c #1B1C1C",
"t  c #201919",
"y  c #221919",
"u  c #231919",
"i  c #201A1A",
"p  c #221A1A",
"a  c #241919",
"s  c #261919",
"d  c #281818",
"f  c #281919",
"g  c #291919",
"h  c #2A1818",
"j  c #2B1818",
"k  c #2B1919",
"l  c #2C1818",
"z  c #2E1818",
"x  c #2F1818",
"c  c #321717",
"v  c #331717",
"b  c #341717",
"n  c #371616",
"m  c #361717",
"M  c #371717",
"N  c #381717",
"B  c #391717",
"V  c #3A1717",
"C  c #3C1616",
"Z  c #3D1616",
"A  c #3E1616",
"S  c #3F1616",
"D  c #301818",
"F  c #331818",
"G  c #371818",
"H  c #391818",
"J  c #002020",
"K  c #002727",
"L  c #002C2C",
"P  c #242323",
"I  c #421515",
"U  c #401616",
"Y  c #421616",
"T  c #441515",
"R  c #461515",
"E  c #471515",
"W  c #481515",
"Q  c #491515",
"!  c #4B1414",
"~  c #4A1515",
"^  c #4B1515",
"/  c #4E1414",
"(  c #571313",
")  c #501414",
"_  c #511414",
"`  c #531414",
"'  c #541414",
"]  c #581313",
"[  c #591313",
"{  c #5A1313",
"}  c #5B1313",
"|  c #5C1313",
" . c #5E1212",
".. c #5F1313",
"X. c #740F0F",
"o. c #770F0F",
"O. c #7A0F0F",
"+. c #7D0F0F",
"@. c #7E0F0F",
"#. c #601212",
"$. c #611212",
"%. c #621212",
"&. c #631212",
"*. c #671111",
"=. c #641212",
"-. c #661212",
";. c #681111",
":. c #6A1111",
">. c #6C1111",
",. c #6D1111",
"<. c #6E1010",
"1. c #6E1111",
"2. c #6F1111",
"3. c #711010",
"4. c #721010",
"5. c #731010",
"6. c #721212",
"7. c #741010",
"8. c #771010",
"9. c #781010",
"0. c #226B6B",
"q. c #387B7B",
"w. c #405A5A",
"e. c #756868",
"r. c #810E0E",
"t. c #800F0F",
"y. c #830E0E",
"u. c #850E0E",
"i. c #860E0E",
"p. c #870E0E",
"a. c #880D0D",
"s. c #8B0D0D",
"d. c #880E0E",
"f. c #890E0E",
"g. c #8D0D0D",
"h. c #8E0D0D",
"j. c #8F0D0D",
"k. c #910D0D",
"l. c #920C0C",
"z. c #920D0D",
"x. c #940C0C",
"c. c #960C0C",
"v. c #970C0C",
"b. c #9A0B0B",
"n. c #9D0B0B",
"m. c #9E0B0B",
"M. c #9F0B0B",
"N. c #980C0C",
"B. c #9B0C0C",
"V. c #A30A0A",
"C. c #A40A0A",
"Z. c #A50A0A",
"A. c #A50B0B",
"S. c #A60A0A",
"D. c #A80A0A",
"F. c #AA0A0A",
"G. c #AB0A0A",
"H. c #AC0909",
"J. c #AE0909",
"K. c #AF0909",
"L. c #AD0A0A",
"P. c #B20909",
"I. c #B30909",
"U. c #B70808",
"Y. c #BA0808",
"T. c #BC0808",
"R. c #BD0808",
"E. c #BE0808",
"W. c #BF0808",
"Q. c #C10707",
"!. c #C50707",
"~. c #C60606",
"^. c #C70606",
"/. c #C90606",
"(. c #CB0606",
"). c #CF0505",
"_. c #CE0606",
"`. c #CF0606",
"'. c #D00505",
"]. c #D10505",
"[. c #D30505",
"{. c #D20606",
"}. c #D40505",
"|. c #D60505",
" X c #D80404",
".X c #D90404",
"XX c #D80505",
"oX c #DA0404",
"OX c #DC0404",
"+X c #DD0404",
"@X c #E60000",
"#X c #E40303",
"$X c #E50303",
"%X c #E60303",
"&X c #E70303",
"*X c #E10404",
"=X c #E80303",
"-X c #EA0202",
";X c #EB0202",
":X c #EA0303",
">X c #EF0000",
",X c #EC0202",
"<X c #ED0202",
"1X c #EE0202",
"2X c #F30101",
"3X c #F00202",
"4X c #F20202",
"5X c #F30202",
"6X c #F40101",
"7X c #F50101",
"8X c #F70000",
"9X c #F60101",
"0X c #F70101",
"qX c #F80101",
"wX c #FA0000",
"eX c #FB0000",
"rX c #FA0101",
"tX c #FB0101",
"yX c #FD0000",
"uX c #FE0000",
"iX c red",
"pX c #EF1F1F",
"aX c #FF1F1F",
"sX c #E73131",
"dX c #984C4C",
"fX c #DB5656",
"gX c #E44444",
"hX c #C06868",
"jX c #FF6969",
"kX c #4E8C8C",
"lX c #6D9797",
"zX c #86B4B4",
"xX c #F28888",
"cX c #EA9090",
"vX c #ABF2F2",
"bX c #DDC6C6",
"nX c #FBCFCF",
"mX c #F3DADA",
"MX c #D7EDED",
"NX c None",
/* pixels */
"NXNXNXNXNXNXNXNXNXNXNXNXNXNXNXNXNXNXNXNXNXNXNXNXNXNXNXNXNXNXNXNXNXNXNXNXNXNXNXNXNXNXNXNXNXNXNXNXNXNX",
"NXNXNXNXNXNXNXNXNXNXNXNXNXNXNXNXNXNXNXNXNXNXNXNXNXNXNXNXNXNXNXNXNXNXNXNXNXNXNXNXNXNXNXNXNXNXNXNXNXNX",
"NXNXNXNXNXNXNXNXNXNXNXNXNXNXNXNXNXNXNXNXNXNXNXNXNXNXNXNXNXNXNXNXNXNXNXNXNXNXNXNXNXNXNXNXNXNXNXNXNXNX",
"NXNXNXNXNXNXNXNXNXNXNXNXNXNXNXNXNXNXNXNXNXNXNXNXNXNXNXNXNXNXNXNXNXNXNXNXNXNXNXNXNXNXNXNXNXNXNXNXNXNX",
"NXNXNXNXNXNXNXNXNXNXNXNXNXNXNXNXNXNXNXNXNXNXNXNXNXNXNXNXNXNXNXNXNXNXNXNXNXNXNXNXNXNXNXNXNXNXNXNXNXNX",
"NXNXNXNXNXNXNXNXNXNXNXNXNXNXNXNXNXNXNXNXNXNXNXNXNXNXNXNXNXNXNXNXNXNXNXNXNXNXNXNXNXNXNXNXNXNXNXNXNXNX",
"NXNXNXNXNXNXNXNXNXNXNXNXNXNXNXNXNXNXNXNXNXNXNXNXNXNXNXNXNXNXNXNXNXNXNXNXNXNXNXNXNXNXNXNXNXNXNXNXNXNX",
"NXNXNXNXNXNXNXNXNXNXNXNXNXNXNXNXNXNXNXNXNXNXNXNXNXNXNXNXNXNXNXNXNXNXNXNXNXNXNXNXNXNXNXNXNXNXNXNXNXNX",
"NXNXNXNXNXNXNXNXNXNXNXNXNXNXNXNXNXNXNXNXNXNXNXNXNXNXNXNXNXNXNXNXNXNXNXNXNXNXNXNXNXNXNXNXNXNXNXNXNXNX",
"NXNXNXNXNXNXNXNXNXNXNXNXNXNXNXNXNXNXNXNXNXNXNXNXNXNXNXNXNXNXNXNXNXNXNXNXNXNXNXNXNXNXNXNXNXNXNXNXNXNX",
"NXNXNXNXNXNXNXNXNXNXNXNXNXNXNXNXNXNXNXNXNXNXNXNXNXNXNXNXNXNXNXNXNXNXNXNXNXNXNXNXNXNXNXNXNXNXNXNXNXNX",
"NXNXNXNXNXNXNXNXNXNXNXNXNXNXNXNXNXNXNXNXNXNXNX; 0 j B N a & NXNXNXNXNXNXNXNXNXNXNXNXNXNXNXNXNXNXNXNX",
"NXNXNXNXNXNXNXNXNXNXNXNXNXNXNXNXNX= f ` 5.z.R. X=XqXiXiX7X'.a.g NXNXNXNXNXNXNXNXNXNXNXNXNXNXNXNXNXNX",
"NXNXNXNXNXNXNXNXNXNXNX1 u W ;.d.U.oXqXiXiXiXiXiXiXiXiXiXiXiXiXiXb.* NXNXNXNXNXNXNXNXNXNXNXNXNXNXNXNX",
"NXNXNXNX: s.I.u.l.H.!..X6XiXiXiXiXiXiXiXiXiXiXiXiXiXiXiXiXiXiXiXiX*Xp NXNXNXNXNXNXNXNXNXNXNXNXNXNXNX",
"NXNXNXNXNXo.iXiXiXiXiXiXiXiXiXiXiXiXiXiXiXiXiXiXiXiXiXiXiXiXiXiXiXiX1Xp NXNXNXNXNXNXNXNXNXNXNXNXNXNX",
"NXNXNXNXNXNX3 3.J.[.7XiXiXiXiXiXiXiXiXiXiXiXiXiXiXiXiXiXiXiXiXiXiXiXiX|., NXNXNXNXNXNXNXNXNXNXNXNXNX",
"NXNXNXNXNXNXNXNXNXNXa b N M x Y.iXiXiXiXiXiXiXiXiXiXiXiXiXiXiXiXiXiXiXiXp.NXNXNXNXNXNXNXNXNXNXNXNXNX",
"NXNXNXNXNXNXNXNXNXNXNX. 1 e s T.iXiXiXiXiXiXiXiXiXiXiXiXiXiXiXiXiXiXiXiX5Xa NXNXNXNXNXNXNXNXNXNXNXNX",
"NXNXNXNXNXNXNXNX8 ] p.A./.1XiXiXiXiXiXiXiXiXiXiXiXiXiXiXiXiX8XpXjXaXiXiXiX8.NXNXNXNXNXNXNXNXNXNXNXNX",
"NXNXNXNXNXNXNXNXNXc Z Z NXi + P.iXiXiXiXiXiXiXiXiXiXiXiXiXiXsXMXkXe.aXiXiXW.X NXNXNXNXNXNXNXNXNXNXNX",
"NXNXNXNXNXNXNXNXNXNXNXNXNXJ n #XiXiXiXiXiXiXiXiXiXiXiXiXiX>XnXlX  0.hXiXiX$X7 NXNXNXNXNXNXNXNXNXNXNX",
"NXNXNXNXl [ ! m M S W &.j.{.iXiXiXiXiXiXiXiXiXiXiXiXiXiXiX@XmXw.P zXdXiXiXyXv NXNXNXNXNXNXNXNXNXNXNX",
"NXNXNX; f h.;XiXiXiXiXiXiXiXiXiXiXiXiXiXiXiXiXiXiXiXiXiXiXiXxXvXL q.gXiXiXiXU NXNXNXNXNXNXNXNXNXNXNX",
"NXNXNXNXNXNXq 7.OXiXiXiXiXiXiXiXiXiXiXiXiXiXiXiXiXiXiXiXiXiX@XcXbXfXiXiXiXuXb NXNXNXNXNXNXNXNXNXNXNX",
"NXNXNXNXNXNXNXNX+ S M.0XiXiXiXiXiXiXiXiXiXiXiXiXiXiXiXiXiXiXiXwXyXiXiXiXiX%X8 NXNXNXNXNXNXNXNXNXNXNX",
"NXNXNXNXNXNXNXNXNXNXNX7 t.3XiXiXiXiXiXiXiXiXiXiXiXiXiXiXiXiXiXiXiXiXiXiXiXQ.o NXNXNXNXNXNXNXNXNXNXNX",
"NXNXNXNXNXNXNXNXNXNXNXNXNX@ X.iXiXiXiXiXiXiXiXiXiXiXiXiXiXiXyXyXiXiXiXiXiXO.NXNXNXNXNXNXNXNXNXNXNXNX",
"NXNXNXNXNX3 e _ i.D.x.$.T 2 d 7XiXiXiXiXiXiXiXiXiXiXiXiXiXiX[ R iXiXiXiX9Xd NXNXNXNXNXNXNXNXNXNXNXNX",
"NXNXNXNXNXNXNXNXQ N.;XiXiXiXiXiXiXiXiXiXiXiXiXiXiXiXiXiXiXiX}.t 4 4.c.T.1.NXNXNXNXNXNXNXNXNXNXNXNXNX",
"NXNXNXNXNXNXNXNXNXNX+ U D.uXiXiXiXiXiXiXiXiXiXiXiXiXiXiXiXiXiXiXC.Y #.F @ NXNXNXNXNXNXNXNXNXNXNXNXNX",
"NXNXNXNXNXNXNXNXNXNXNXNXNXw +.+XiXiXiXiXiXiXiXiXiXiXiXiXiXiXiXiXiXiXiXE NXNXNXNXNXNXNXNXNXNXNXNXNXNX",
"NXNXNXNXNXNXNXNXNXNXNXNXNXNXNX% ) K.tXiXiXiXiXiXiXiXiXiXiXiXiXiXiX-Xl NXNXNXNXNXNXNXNXNXNXNXNXNXNXNX",
"NXNXNXNXNXNXNXNXNXNXNXNXNXNXNXNXNXNXy 9.`.iXiXiXiXiXiXiXiXiXiXiXZ.> NXNXNXNXNXNXNXNXNXNXNXNXNXNXNXNX",
"NXNXNXNXNXNXNXNXNXNXNXNXNXNXNXNXNXNXNXNX$ v %.h.].4XiX=X[.).v.D NXNXNXNXNXNXNXNXNXNXNXNXNXNXNXNXNXNX",
"NXNXNXNXNXNXNXNXNXNXNXNXNXNXNXNXNXNXNXNXNXr B.l.F 4 ' @.( < NXNXNXNXNXNXNXNXNXNXNXNXNXNXNXNXNXNXNXNX",
"NXNXNXNXNXNXNXNXNXNXNXNXNXNXNXNXNXNXNXNXNX,.iXOX:.G.G 2XiX>.NXNXNXNXNXNXNXNXNXNXNXNXNXNXNXNXNXNXNXNX",
"NXNXNXNXNXNXNXNXNXNXNXNXNXNXNXNXNXNXNXNX+ E.iX2.-.iX| 9.iX,X6 NXNXNXNXNXNXNXNXNXNXNXNXNXNXNXNXNXNXNX",
"NXNXNXNXNXNXNXNXNXNXNXNXNXNXNXNXNXNXNXNXS iXiXp { iXXXH $XiXf.NXNXNXNXNXNXNXNXNXNXNXNXNXNXNXNXNXNXNX",
"NXNXNXNXNXNXNXNXNXNXNXNXNXNXNXNXNXNXNXNXm.iX}.J ~ iXiX..' iXiXA NXNXNXNXNXNXNXNXNXNXNXNXNXNXNXNXNXNX",
"NXNXNXNXNXNXNXNXNXNXNXNXNXNXNXNXNXNXNX$ ~.iX6.K h iXiXM.J OXiX5.NXNXNXNXNXNXNXNXNXNXNXNXNXNXNXNXNXNX",
"NXNXNXNXNXNXNXNXNXNXNXNXNXNXNXNXNXNXNXNXk <.I n.^ ).iX(.J Q M.u NXNXNXNXNXNXNXNXNXNXNXNXNXNXNXNXNXNX",
"NXNXNXNXNXNXNXNXNXNXNXNXNXNXNXNXNXO C r.D.V.<XiX} L.iX&X9 NXNXNXNXNXNXNXNXNXNXNXNXNXNXNXNXNXNXNXNXNX",
"NXNXNXNXNXNXNXNXNXNXNXNXNXNXNXNX .:XiXiXiXiXiXiX=.k.iXiXV NXNXNXNXNXNXNXNXNXNXNXNXNXNXNXNXNXNXNXNXNX",
"NXNXNXNXNXNXNXNXNXNXNXNXNXNXNX- [.iXiXiXiXeX/.+.O g.iXiX] NXNXNXNXNXNXNXNXNXNXNXNXNXNXNXNXNXNXNXNXNX",
"NXNXNXNXNXNXNXNXNXNXNXNXNXNXNXNXm.iX:XV.&.d + NXNXr.iXiX>.NXNXNXNXNXNXNXNXNXNXNXNXNXNXNXNXNXNXNXNXNX",
"NXNXNXNXNXNXNXNXNXNXNXNXNXNXNXNX1 N 5 NXNXNXNXNXNX*.iXiXy.NXNXNXNXNXNXNXNXNXNXNXNXNXNXNXNXNXNXNXNXNX",
"NXNXNXNXNXNXNXNXNXNXNXNXNXNXNXNXNXNXNXNXNXNXNXNXNX/ iXiXS.NXNXNXNXNXNXNXNXNXNXNXNXNXNXNXNXNXNXNXNXNX",
"NXNXNXNXNXNXNXNXNXNXNXNXNXNXNXNXNXNXNXNXNXNXNXNXNXz rXiX^.# NXNXNXNXNXNXNXNXNXNXNXNXNXNXNXNXNXNXNXNX",
"NXNXNXNXNXNXNXNXNXNXNXNXNXNXNXNXNXNXNXNXNXNXNXNXNX> _.iXF.NXNXNXNXNXNXNXNXNXNXNXNXNXNXNXNXNXNXNXNXNX"
};
