/* XPM */
static char *result[] = {
/* columns rows colors chars-per-pixel */
"50 50 233 2 ",
"   c black",
".  c #000E0E",
"X  c #021D1D",
"o  c #031D1D",
"O  c #001E1E",
"+  c #001F1F",
"@  c #021E1E",
"#  c #0E1B1B",
"$  c #081C1C",
"%  c #091C1C",
"&  c #081D1D",
"*  c #0B1C1C",
"=  c #0C1C1C",
"-  c #101B1B",
";  c #111B1B",
":  c #121B1B",
">  c #151A1A",
",  c #141B1B",
"<  c #151B1B",
"1  c #161A1A",
"2  c #171A1A",
"3  c #181A1A",
"4  c #191A1A",
"5  c #191B1B",
"6  c gray10",
"7  c #1B1A1A",
"8  c #1A1B1B",
"9  c #1C1A1A",
"0  c #1E1A1A",
"q  c #1F1A1A",
"w  c #2E1717",
"e  c #201919",
"r  c #221919",
"t  c #231919",
"y  c #241919",
"u  c #251919",
"i  c #261818",
"p  c #271919",
"a  c #271C1C",
"s  c #2B1818",
"d  c #2A1919",
"f  c #2D1818",
"g  c #2E1818",
"h  c #2F1818",
"j  c #2F1919",
"k  c #331717",
"l  c #341717",
"z  c #361717",
"x  c #371717",
"c  c #3B1717",
"v  c #3F1717",
"b  c #301818",
"n  c #321818",
"m  c #331818",
"M  c #002020",
"N  c #002222",
"B  c #002323",
"V  c #002424",
"C  c #002525",
"Z  c #003535",
"A  c #053A3A",
"S  c #2D2929",
"D  c #411515",
"F  c #431515",
"G  c #411616",
"H  c #441515",
"J  c #451515",
"K  c #461515",
"L  c #471515",
"P  c #4A1414",
"I  c #4E1414",
"U  c #551313",
"Y  c #571313",
"T  c #501414",
"R  c #511414",
"E  c #501515",
"W  c #551414",
"Q  c #581313",
"!  c #591313",
"~  c #5B1212",
"^  c #5C1313",
"/  c #5F1212",
"(  c #5E1313",
")  c #790F0F",
"_  c #7B0F0F",
"`  c #7C0F0F",
"'  c #7E0F0F",
"]  c #601212",
"[  c #621212",
"{  c #641111",
"}  c #661111",
"|  c #671111",
" . c #641212",
".. c #651212",
"X. c #681111",
"o. c #691111",
"O. c #6A1111",
"+. c #6B1111",
"@. c #6A1212",
"#. c #6B1212",
"$. c #711010",
"%. c #721010",
"&. c #731010",
"*. c #741010",
"=. c #751010",
"-. c #781010",
";. c #7A1010",
":. c #224A4A",
">. c #2A4D4D",
",. c #315454",
"<. c #386666",
"1. c #4B4A4A",
"2. c #726D6D",
"3. c #810E0E",
"4. c #820E0E",
"5. c #830E0E",
"6. c #870D0D",
"7. c #840E0E",
"8. c #850E0E",
"9. c #890D0D",
"0. c #8A0D0D",
"q. c #8B0D0D",
"w. c #8B0E0E",
"e. c #8E0D0D",
"r. c #970B0B",
"t. c #900D0D",
"y. c #920D0D",
"u. c #940C0C",
"i. c #940D0D",
"p. c #960C0C",
"a. c #980B0B",
"s. c #9D0B0B",
"d. c #9E0B0B",
"f. c #9F0B0B",
"g. c #980C0C",
"h. c #990C0C",
"j. c #A00A0A",
"k. c #A20B0B",
"l. c #A40A0A",
"z. c #A50A0A",
"x. c #A80A0A",
"c. c #AA0A0A",
"v. c #AD0909",
"b. c #AE0909",
"n. c #AF0909",
"m. c #AC0A0A",
"M. c #B00909",
"N. c #B20909",
"B. c #B30909",
"V. c #B40909",
"C. c #B60909",
"Z. c #BB0808",
"A. c #BC0808",
"S. c #B92A2A",
"D. c #C10707",
"F. c #C20707",
"G. c #C30707",
"H. c #C40707",
"J. c #C60707",
"K. c #C90606",
"L. c #CA0606",
"P. c #CF0505",
"I. c #D00505",
"U. c #D20505",
"Y. c #D30505",
"T. c #D60505",
"R. c #D70505",
"E. c #D80505",
"W. c #DA0404",
"Q. c #DC0404",
"!. c #DE0404",
"~. c #DF0404",
"^. c #E10303",
"/. c #E30303",
"(. c #E50303",
"). c #EC0202",
"_. c #EE0202",
"`. c #ED0808",
"'. c #F20101",
"]. c #F30101",
"[. c #F00202",
"{. c #F10202",
"}. c #F20202",
"|. c #F30202",
" X c #F40101",
".X c #F60000",
"XX c #F60101",
"oX c #F90000",
"OX c #FA0000",
"+X c #FB0000",
"@X c #FA0101",
"#X c #FC0000",
"$X c #FD0000",
"%X c #FE0000",
"&X c red",
"*X c #FF0505",
"=X c #FF0707",
"-X c #F60909",
";X c #EB1717",
":X c #EC1414",
">X c #F31F1F",
",X c #F51E1E",
"<X c #D32C2C",
"1X c #DB3535",
"2X c #FF2020",
"3X c #F02828",
"4X c #E73B3B",
"5X c #F93838",
"6X c #B84D4D",
"7X c #916565",
"8X c #887676",
"9X c #EB4242",
"0X c #EE4040",
"qX c #EC5454",
"wX c #CE6969",
"eX c #C67F7F",
"rX c #F17373",
"tX c #338383",
"yX c #68A0A0",
"uX c #66AAAA",
"iX c #6DB8B8",
"pX c #72B8B8",
"aX c #84A0A0",
"sX c #D88282",
"dX c #DF9898",
"fX c #EC9292",
"gX c #CBBFBF",
"hX c #85C4C4",
"jX c #E1C5C5",
"kX c #E5DEDE",
"lX c #C9FFFF",
"zX c #E1FCFC",
"xX c None",
/* pixels */
"xXxXxXxXxXxXxXxXxXxXxXxXxXxXxXxXxXxXxXxXxXxXxXxXxXxXxXxXxXxXxXxXxXxXxXxXxXxXxXxXxXxXxXxXxXxXxXxXxXxX",
"xXxXxXxXxXxXxXxXxXxXxXxXxXxXxXxXxXxXxXxXxXxXxXxX- < xXxXxXxXxXxXxXxXxXxXxXxXxXxXxXxXxXxXxXxXxXxXxXxX",
"xXxXxXxXxXxXxXxXxXxXxXxXxXxXxXxXxXxXxXxXxXxXxXxXL T xXxXxXxXxXxXxXxXxXxXxXxXxXxXxXxXxXxXxXxXxXxXxXxX",
"xXxXxXxXxXxXxXxXxXxXxXxXxXxXxXxXxXxXxXxXxXxXxXxXV.` xXxXxXxXxXxXxXxXxXxXxXxXxXxXxXxXxXxXxXxXxXxXxXxX",
"xXxXxXxXxXxXxXxXxXxXxXxXxXxXxXxXxXxXxXxXxX6 xX0 &X..xXxXxXxXxXxXxX6 xXxXxXxXxXxXxXxXxXxXxXxXxXxXxXxX",
"xXxXxXxXxXxXxXxXxXxXxXxXxXxXxXxXxXxXxXxX; 2 xX&.&XU xXxXxXxXxXxX6 6 xXxXxXxXxXxXxXxXxXxXxXxXxXxXxXxX",
"xXxXxXxXxXxXxXxXxXxXxXxXxXxXxXxXxXxXxXxXd f + Y.&X] xX2 xXxXxXxX1 xXxXxXxXxXxXxXxXxXxXxXxXxXxXxXxXxX",
"xXxXxXxXxXxXxXxXxXxXxXxXxXxXxXxXxXxXxXxX;.5 z &X&X-.O < xXo xXxX6 xXxXxXxXxXxXxXxXxXxXxXxXxXxXxXxXxX",
"xXxXxXxXxXxXxXxXxXxXxXxXxXxXxXxXxXxXxX+.J.B l.&X&Xu.N / 8.Z.U N b s xXxXxXxXxXxXxXxXxXxXxXxXxXxXxXxX",
"xXxXxXxXxXxXxXxXxXxXxXxXxXxXxXxXxXxX+ [.e.+ OX&X&XF.B +.&X&XXX#.c.b xXxXxXxXxXxXxXxXxXxXxXxXxXxXxXxX",
"xXxXxXxXxXxXxXxXxXxXxXxXxXxXxXxXxXxX*.&X% ~ &X&X&X&X; O +X&X&X&X&Xz xXxXxXxXxXxXxXxXxXxXxXxXxXxXxXxX",
"xXxXxXxXxXxXxXxXxXxXxXxXxXxXxXxXxX: %X}.4 W.&X&X&X&XM.t }.&X&X&X&X%.xXxXxXxXxXxXxXxXxXxXxXxXxXxXxXxX",
"xXxXxXxXxXxXxXxXxXxXxXxXxXxXxXxXxXf.&X]./.&X&X&X&X&X&X&X&X&X&X&X&XB.xXxXxXxXxXxXxXxXxXxXxXxXxXxXxXxX",
"xXxXxXxXxXxXxXxXxXxXxXxXxXxXxXxXx &X&X&X&X&X&X&X&X&X&X&X&X&X&X&X&X X6 xXxXxXxXxXxXxXxXxXxXxXxXxXxXxX",
"xXxXxXxXxXxXxXxXxXxXxXxXxXxXxX+ L.&X&X&X&X&X&X&X&X&X&X&X&X&X&X&X&X&X! xXxXxXxXxXxXxXxXxXxXxXxXxXxXxX",
"xXxXxXxXxXxXxXxXxXxXxXxXxXxXxXY &X&X&X&X&X&X&X&X&X&X&X&X&X&X&X&X&X&Xd.xXxXxXxXxXxXxXxXxXxXxXxXxXxXxX",
"xXxXxXxXxXxXxXxXxXxXxXxXxXxXo Q.&X&X&X&X&X&X&X&X&X&X&X&X&X&X&X&X&X&X/.# xXxXxXxXxXxXxXxXxXxXxXxXxXxX",
"xXxXxXxXxXxXxXxXxXxXxXxXxXxX( &X&X&X&X$X&X&X&X&X&X&X&X&X&X&X&X&X&X&X&XD xXxXxXxXxXxXxXxXxXxXxXxXxXxX",
"xXxXxXxXxXxXxXxXxXxXxXxXxXO J.&X&X%X:XdXeX,X&X&X&X&X&X3XwXqX.X&X&X&X&X` xXxXxXxXxXxXxXxXxXxXxXxXxXxX",
"xXxXxXxXxXxXxXxXxXxXxXxXxXs &X&X&X`.kXuXA 2.2X&X&X&X5X,.Z iXrX%X&X&X&Xv.xXxXxXxXxXxXxXxXxXxXxXxXxXxX",
"xXxXxXxXxXxXxXxXxXxXxXxXxX[ &X&X&X0XlX  1.yX4X&X&X&X6XpXS . jX%X&X&X&XI.$ xXxXxXxXxXxXxXxXxXxXxXxXxX",
"xXxXxXxXxXxXxXxXxXxXxXxXxX3.&X&X&X;XzX<.>.aX>X&X&X&X1XhX:.tXfX%X&X&X&X[.r xXxXxXxXxXxXxXxXxXxXxXxXxX",
"xXxXxXxXxXxXxXxXxXxXxXxXxX0.&X&X&XOX9XgX8X<X&X&X&X&X*XS.7XsX-X&X&X&X&X#Xw xXxXxXxXxXxXxXxXxXxXxXxXxX",
"xXxXxXxXxXxXxXxXxXxXxXxXxX5.&X&X&X&X%XoX=X&X&X&X&X&X&X&X&X&X&X&X&X&X&XXXi xXxXxXxXxXxXxXxXxXxXxXxXxX",
"xXxXxXxXxXxXxXxXxXxXxXxXxX} &X&X&X&X&X&X&X&X&X&X&X&X&X&X&X&X&X&X&X&X&XU.$ xXxXxXxXxXxXxXxXxXxXxXxXxX",
"xXxXxXxXxXxXxXxXxXxXxXxXxXi %X&X&X&X&X&X&X&X&X&X&X&X&X&X&X&X&X&X&X&X&Xp.xXxXxXxXxXxXxXxXxXxXxXxXxXxX",
"xXxXxXxXxXxXxXxXxXxXxXxXxXxXB.&X&X&X&X&X_.C.&X&X&X&X&X&X&X&X&X&X&X&X&Xc xXxXxXxXxXxXxXxXxXxXxXxXxXxX",
"xXxXxXxXxXxXxXxXxXxXxXxXxXxXm &X&X&X&X&X(.8 v U.&X&X&X&X&X&X&X&X&X&XN.+ xXxXxXxXxXxXxXxXxXxXxXxXxXxX",
"xXxXxXxXxXxXxXxXxXxXxXxXxXxXxX4.&X&X&X&X&X).E 9 l I j m.&X&X&X&X&X'., xXxXxXxXxXxXxXxXxXxXxXxXxXxXxX",
"xXxXxXxXxXxXxXxXxXxXxXxXxXxXxX+ j.&X&X&X&X&X&X!.s.5.w.E.&X&X&X&XoXn xXxXxXxXxXxXxXxXxXxXxXxXxXxXxXxX",
"xXxXxXxXxXxXxXxXxXxXxXxXxXxXxXxXO 5.&X&X&X&X&X&X&X&X&X&X&X&X&XT.g xXxXxXxXxXxXxXxXxXxXxXxXxXxXxXxXxX",
"xXxXxXxXxXxXxXxXxXxXxXxXxXxXxXxXxXM n h.&X&X&X&X&X&X&X&X&XL.^ * xXxXxXxXxXxXxXxXxXxXxXxXxXxXxXxXxXxX",
"xXxXxXxXxXxXxXxXxXxXxXxXxXxXxXxXxX7 k.*.W &.y.A.P.K.x.' @.X.R xXxXxXxXxXxXxXxXxXxXxXxXxXxXxXxXxXxXxX",
"xXxXxXxXxXxXxXxXxXxXxXxXxXxXxXxXxXQ &X@X;.y.| X.+.O. .*.g.&X&XK xXxXxXxXxXxXxXxXxXxXxXxXxXxXxXxXxXxX",
"xXxXxXxXxXxXxXxXxXxXxXxXxXxXxXxXO G.&X) o.&X&X&X&X&X&X&Xz.r.&X^.@ xXxXxXxXxXxXxXxXxXxXxXxXxXxXxXxXxX",
"xXxXxXxXxXxXxXxXxXxXxXxXxXxXxXxXk &X&X3 { &X&X&X&X&X&X&Xt.& #X&X7.xXxXxXxXxXxXxXxXxXxXxXxXxXxXxXxXxX",
"xXxXxXxXxXxXxXxXxXxXxXxXxXxXxXxXi.&XR.N 7.&X&X&X&X&X&X&XN.V _ &X&Xh xXxXxXxXxXxXxXxXxXxXxXxXxXxXxXxX",
"xXxXxXxXxXxXxXxXxXxXxXxXxXxXxXe &X&X$.C q.&X&X&X&X&X&X&Xn.xXO Q.&XH.+ xXxXxXxXxXxXxXxXxXxXxXxXxXxXxX",
"xXxXxXxXxXxXxXxXxXxXxXxXxXxXxXq /.(.1 xX9.&X&X&X&X&X&X&Xb.xXxXG D.=.xXxXxXxXxXxXxXxXxXxXxXxXxXxXxXxX",
"xXxXxXxXxXxXxXxXxXxXxXxXxXxXxXxX> 9 xXxX9.&X&X&X&X&X&X&Xb.xXxXxXX xXxXxXxXxXxXxXxXxXxXxXxXxXxXxXxXxX",
"xXxXxXxXxXxXxXxXxXxXxXxXxXxXxXxXxXxXxXxX9.&X&X&X&X&X&X&Xb.xXxXxXxXxXxXxXxXxXxXxXxXxXxXxXxXxXxXxXxXxX",
"xXxXxXxXxXxXxXxXxXxXxXxXxXxXxXxXxXxXxXxX9.&X&X&X&X&X&X&Xb.xXxXxXxXxXxXxXxXxXxXxXxXxXxXxXxXxXxXxXxXxX",
"xXxXxXxXxXxXxXxXxXxXxXxXxXxXxXxXxXxXxXxX9.&X&X&X&X&X&X&Xb.xXxXxXxXxXxXxXxXxXxXxXxXxXxXxXxXxXxXxXxXxX",
"xXxXxXxXxXxXxXxXxXxXxXxXxXxXxXxXxXxXxXxX9.&X&X6.a +.#X&Xb.xXxXxXxXxXxXxXxXxXxXxXxXxXxXxXxXxXxXxXxXxX",
"xXxXxXxXxXxXxXxXxXxXxXxXxXxXxXxXxXxXxXxX9.&X&Xs xX$ [.&Xb.xXxXxXxXxXxXxXxXxXxXxXxXxXxXxXxXxXxXxXxXxX",
"xXxXxXxXxXxXxXxXxXxXxXxXxXxXxXxXxXxXxXxX9.&X&XH xXy {.&Xb.xXxXxXxXxXxXxXxXxXxXxXxXxXxXxXxXxXxXxXxXxX",
"xXxXxXxXxXxXxXxXxXxXxXxXxXxXxXxXxXxXxXxX9.&X&XJ xXu {.&Xb.xXxXxXxXxXxXxXxXxXxXxXxXxXxXxXxXxXxXxXxXxX",
"xXxXxXxXxXxXxXxXxXxXxXxXxXxXxXxXxXxXxXxXq.&X&XL xXp |.&XM.xXxXxXxXxXxXxXxXxXxXxXxXxXxXxXxXxXxXxXxXxX",
"xXxXxXxXxXxXxXxXxXxXxXxXxXxXxXxXxXxXxXxXa.&X&XP xXy &X&XF.+ xXxXxXxXxXxXxXxXxXxXxXxXxXxXxXxXxXxXxXxX",
"xXxXxXxXxXxXxXxXxXxXxXxXxXxXxXxXxXxXxXxXF ~.H.6 xX= l.^.] xXxXxXxXxXxXxXxXxXxXxXxXxXxXxXxXxXxXxXxXxX"
};
