/* XPM */
static char *result[] = {
/* columns rows colors chars-per-pixel */
"50 50 226 2 ",
"   c black",
".  c #001D1D",
"X  c #021D1D",
"o  c #031D1D",
"O  c #001E1E",
"+  c #011E1E",
"@  c #001F1F",
"#  c #041D1D",
"$  c #051D1D",
"%  c #071D1D",
"&  c #0D1B1B",
"*  c #0E1B1B",
"=  c #091C1C",
"-  c #0A1C1C",
";  c #0C1C1C",
":  c #0D1C1C",
">  c #0C1D1D",
",  c #181515",
"<  c #121B1B",
"1  c #131B1B",
"2  c #141B1B",
"3  c #151B1B",
"4  c #161A1A",
"5  c #161B1B",
"6  c #101C1C",
"7  c #181A1A",
"8  c #191A1A",
"9  c #181B1B",
"0  c gray10",
"q  c #1B1A1A",
"w  c #1F1919",
"e  c #1C1A1A",
"r  c #1D1A1A",
"t  c #1E1A1A",
"y  c #1F1A1A",
"u  c #211919",
"i  c #221919",
"p  c #231919",
"a  c #211A1A",
"s  c #221A1A",
"d  c #241919",
"f  c #261818",
"g  c #271919",
"h  c #241A1A",
"j  c #291818",
"k  c #281919",
"l  c #2B1818",
"z  c #2A1919",
"x  c #2B1919",
"c  c #2D1818",
"v  c #2E1818",
"b  c #2F1818",
"n  c #321717",
"m  c #331717",
"M  c #341717",
"N  c #361717",
"B  c #371717",
"V  c #391717",
"C  c #3A1616",
"Z  c #3B1616",
"A  c #3A1717",
"S  c #3B1717",
"D  c #3C1616",
"F  c #301818",
"G  c #331818",
"H  c #002020",
"J  c #002121",
"K  c #002222",
"L  c #002323",
"P  c #401616",
"I  c #411616",
"U  c #411717",
"Y  c #441515",
"T  c #451515",
"R  c #461515",
"E  c #471515",
"W  c #441616",
"Q  c #451616",
"!  c #4B1515",
"~  c #4F1414",
"^  c #521313",
"/  c #531313",
"(  c #551313",
")  c #571313",
"_  c #501414",
"`  c #511414",
"'  c #521414",
"]  c #531414",
"[  c #511616",
"{  c #591313",
"}  c #5B1313",
"|  c #5C1212",
" . c #5B1414",
".. c #760F0F",
"X. c #770F0F",
"o. c #780F0F",
"O. c #7A0F0F",
"+. c #7C0F0F",
"@. c #7D0F0F",
"#. c #7E0E0E",
"$. c #7E0F0F",
"%. c #601212",
"&. c #621212",
"*. c #651111",
"=. c #671111",
"-. c #641212",
";. c #651212",
":. c #681111",
">. c #6C1111",
",. c #6E1111",
"<. c #701010",
"1. c #711010",
"2. c #701111",
"3. c #721010",
"4. c #731010",
"5. c #741010",
"6. c #751010",
"7. c #781010",
"8. c #791010",
"9. c #044848",
"0. c #1B6767",
"q. c #356A6A",
"w. c #327070",
"e. c #476565",
"r. c #4A6565",
"t. c #5D7F7F",
"y. c #800F0F",
"u. c #810F0F",
"i. c #820E0E",
"p. c #840E0E",
"a. c #850E0E",
"s. c #860E0E",
"d. c #870E0E",
"f. c #880D0D",
"g. c #890D0D",
"h. c #8B0D0D",
"j. c #8A0E0E",
"k. c #910C0C",
"l. c #900D0D",
"z. c #930C0C",
"x. c #920D0D",
"c. c #960C0C",
"v. c #980C0C",
"b. c #990C0C",
"n. c #A10B0B",
"m. c #A20B0B",
"M. c #A50A0A",
"N. c #A50B0B",
"B. c #A70A0A",
"V. c #A80A0A",
"C. c #A90A0A",
"Z. c #AB0A0A",
"A. c #AD0909",
"S. c #AF0909",
"D. c #BD0707",
"F. c #B10909",
"G. c #B20909",
"H. c #B40909",
"J. c #B70909",
"K. c #B90808",
"L. c #BA0808",
"P. c #BB0808",
"I. c #C10707",
"U. c #C60707",
"Y. c #C70707",
"T. c #C90606",
"R. c #CA0606",
"E. c #CD0606",
"W. c #D10505",
"Q. c #D10606",
"!. c #D40505",
"~. c #D50505",
"^. c #D70404",
"/. c #D60505",
"(. c #D70505",
"). c #D90404",
"_. c #D80505",
"`. c #DA0404",
"'. c #DC0404",
"]. c #DD0404",
"[. c #DE0404",
"{. c #E20303",
"}. c #E60303",
"|. c #E70303",
" X c #E00404",
".X c #EA0000",
"XX c #E90202",
"oX c #EA0303",
"OX c #ED0000",
"+X c #EC0303",
"@X c #EF0202",
"#X c #F20000",
"$X c #F30101",
"%X c #F00202",
"&X c #F10202",
"*X c #F40101",
"=X c #F60101",
"-X c #F70101",
";X c #F40202",
":X c #F90000",
">X c #F90101",
",X c #FB0000",
"<X c #FA0101",
"1X c #FC0000",
"2X c #FD0000",
"3X c #FE0000",
"4X c red",
"5X c #FE0101",
"6X c #EE3D3D",
"7X c #EE3E3E",
"8X c #F83131",
"9X c #FA3434",
"0X c #9C5353",
"qX c #AE6565",
"wX c #EB4444",
"eX c #EB4F4F",
"rX c #EE6464",
"tX c #EF6D6D",
"yX c #79ABAB",
"uX c #FC9292",
"iX c #F1B1B1",
"pX c #BBFEFE",
"aX c #FBD4D4",
"sX c #F9D7D7",
"dX c #C5F9F9",
"fX c None",
/* pixels */
"fXfXfXfXfXfXfXfXfXfXfXfXfXfXfXfXfXfXfXfXfXfXfXfXfXfXfXfXfXfXfXfXfXfXfXfXfXfXfXfXfXfXfXfXfXfXfXfXfXfX",
"fXfXfXfXfXfXfXfXfXfXfXfXfXfXfXfXfXfXfXfXfXfXfXfXfXfXfXfXfXfXfXfXfXfXfXfXfXfXfXfXfXfXfXfXfXfXfXfXfXfX",
"fXfXfXfXfXfXfXfXfXfXfXfXfXfXfXfXfXfXfXfXfXfXfXfXfXfXfXfXfXfXfXfXfXfXfXfXfXfXfXfXfXfXfXfXfXfXfXfXfXfX",
"fXfXfXfXfXfXfXfXfXfXfXfXfXfXfXfXfXfXfXfXfXfXfXfXfXfXfXfXfXfXfXfXfXfXfXfXfXfXfXfXfXfXfXfXfXfXfXfXfXfX",
"fXfXfXfXfXfXfXfXfXfXfXfXfXfXfXfXfXfXfXfXfXfXfXfXfXfXfXfXfXfXfXfXfXfXfXfXfXfXfXfXfXfXfXfXfXfXfXfXfXfX",
"fXfXfXfXfXfXfXfXfXfXfXfXfXfXfXfXfXfXfXfXfXfXfXfXfXfXfXfXfXfXfXfXfXfXfXfXfXfXfXfXfXfXfXfXfXfXfXfXfXfX",
"fXfXfXfXfXfXfXfXfXfXfXfXfXfXfXfXfXfXfXfXfXfXfXfXfXfXfXfXfXfXfXfXfXfXfXfXfXfXfXfXfXfXfXfXfXfXfXfXfXfX",
"fXfXfXfXfXfXfXfXfXfXfXfXfXfXfXfXfXfXfXfXfXfXfXfXfXfXfXfXfXfXfXfXfXfXfXfXfXfXfXfXfXfXfXfXfXfXfXfXfXfX",
"fXfXfXfXfXfXfXfXfXfXfXfXfXfXfXfXfXfXfXfXfXfXfXfXfXfXfXfXfXfXfXfXfXfXfXfXfXfXfXfXfXfXfXfXfXfXfXfXfXfX",
"fXfXfXfXfXfXfXfXfXfXfXfXfXfXfXfXfXfXfXfXfXfXfXfXfXfXfXfXfXfXfXfXfXfXfXfXfXfXfXfXfXfXfXfXfXfXfXfXfXfX",
"fXfXfXfXfXfXfXfXfXfXfXfXfXfXfXfXfXfXfXfXfXfXfXfXfXfXfXfXfXfXfXfXfXfXfXfXfXfXfXfXfXfXfXfXfXfXfXfXfXfX",
"fXfXfXfXfXfXfXfXfXfXfXfXfXfXfXfXfXfXfXfXfXfX; a N R D u o fXfXfXfXfXfXfXfXfXfXfXfXfXfXfXfXfXfXfXfXfX",
"fXfXfXfXfXfXfXfXfXfXfXfXfXfXfXfXfXfXr ] #.F.).%X4X4X4X*XT.$.y fXfXfXfXfXfXfXfXfXfXfXfXfXfXfXfXfXfXfX",
"fXfXfXfXfXfXfXfXfXfXfXfXfXfX7 ~ p.I.;X4X4X4X4X4X4X4X4X4X4X4X1Xf.+ fXfXfXfXfXfXfXfXfXfXfXfXfXfXfXfXfX",
"fXfXfXfXfXfXfXfXfX& g ) i.P.%X4X4X4X4X4X4X4X4X4X4X4X4X4X4X4X4X4X~.9 fXfXfXfXfXfXfXfXfXfXfXfXfXfXfXfX",
"fXfXfX0 5 w Y a.Q.3X4X4X4X4X4X4X4X4X4X4X4X4X4X4X4X4X4X4X4X4X4X4X4X}.9 fXfXfXfXfXfXfXfXfXfXfXfXfXfXfX",
"fXfXfXfXfXfXg R <.h.V.W.-X4X4X4X4X4X4X4X4X4X4X4X4X4X4X4X4X4X4X4X4X4XI.O fXfXfXfXfXfXfXfXfXfXfXfXfXfX",
"fXfXfXfXfXfXfXfXfXfXfXfX@ &.4X4X4X4X4X4X4X4X4X4X4X4X4X4X4X4X4X4X4X4X4Xy.fXfXfXfXfXfXfXfXfXfXfXfXfXfX",
"fXfXfXfXfXfXfXfXfXfXl b n s.4X4X4X4X4X4X4X4X4X4X4X4X4X4X4X4X4X4X4X4X4X&Xp fXfXfXfXfXfXfXfXfXfXfXfXfX",
"fXfXfXfXfXfX3 ' k.Y.5X4X4X4X4X4X4X4X4X4X4X4X4X4X4X4X4X4X4X#X7XuX9X3X4X4Xo.fXfXfXfXfXfXfXfXfXfXfXfXfX",
"fXfXfXfXfXfXfXfXfX2 3.4X4X4X4X4X4X4X4X4X4X4X4X4X4X4X4X4X4XeXdX0.r.8X4X4XI.X fXfXfXfXfXfXfXfXfXfXfXfX",
"fXfXfXfXfXfXfXfXo 8 S.4X4X4X4X4X4X4X4X4X4X4X4X4X4X4X4X4XOXaXt.  w.qX4X4X|.q fXfXfXfXfXfXfXfXfXfXfXfX",
"fXfXfXfXfXfXfXfXfXM ^ R B.4X4X4X4X4X4X4X4X4X4X4X4X4X4X4X.XsXe., yX0X4X4X4XB fXfXfXfXfXfXfXfXfXfXfXfX",
"fXfXfXfXfXfXfXfXfXfXfXK *.4X4X4X4X4X4X4X4X4X4X4X4X4X4X4X4XtXpX9.q.6X4X4X4XY fXfXfXfXfXfXfXfXfXfXfXfX",
"fXfX0 2 j ~ ` { 1.l.D.+X4X4X4X4X4X4X4X4X4X4X4X4X4X4X4X4X4XOXrXiXwX4X4X4X4XC fXfXfXfXfXfXfXfXfXfXfXfX",
"fXfXfX* k x.>X4X4X4X4X4X4X4X4X4X4X4X4X4X4X4X4X4X4X4X4X4X4X4X3X3X4X4X4X4XoXt fXfXfXfXfXfXfXfXfXfXfXfX",
"fXfXfXfXfXfXz $.(.4X4X4X4X4X4X4X4X4X4X4X4X4X4X4X4X4X4X4X4X4X4X4X4X4X4X4XY.$ fXfXfXfXfXfXfXfXfXfXfXfX",
"fXfXfXfXfXfXfXfXfXZ n.-X4X4X4X4X4X4X4X4X4X4X4X4X4X4X4X4X4XoX*X4X4X4X4X4Xu.fXfXfXfXfXfXfXfXfXfXfXfXfX",
"fXfXfXfXfX0 4 g fXfXL @ / E.4X4X4X4X4X4X4X4X4X4X4X4X4X4X4X} u =X4X4X4X<Xc fXfXfXfXfXfXfXfXfXfXfXfXfX",
"fXfXfXfXfXfX3 w E 7.C.@.5 J O.4X4X4X4X4X4X4X4X4X4X4X4X4X4X*XT - _ 4.c.&.fXfXfXfXfXfXfXfXfXfXfXfXfXfX",
"fXfXfXfXfXfXfXfXfX0 =.I.4X=X_.4X4X4X4X4X4X4X4X4X4X4X4X4X4X4X4XR.&.X.U H fXfXfXfXfXfXfXfXfXfXfXfXfXfX",
"fXfXfXfXfXfXfXfXfXfXfXfXl A.4X4X4X4X4X4X4X4X4X4X4X4X4X4X4X4X4X4X4X4X] fXfXfXfXfXfXfXfXfXfXfXfXfXfXfX",
"fXfXfXfXfXfXfXfXfXfXfXfXfXfX2 6.'.4X4X4X4X4X4X4X4X4X4X4X4X4X4X4X{.h fXfXfXfXfXfXfXfXfXfXfXfXfXfXfXfX",
"fXfXfXfXfXfXfXfXfXfXfXfXfXfXfXfXo ~ F.2X4X4X4X4X4X4X4X4X4X4X=Xi.: @ fX1 * fXfXfXfXfXfXfXfXfXfXfXfXfX",
"fXfXfXfXfXfXfXfXfXfXfXfXfXfXfXfXfXfXfXi 2.G.`.,X4X4X4X*XL.5.Q ,.^.|.[.].XXZ.e fXfXfXfXfXfXfXfXfXfXfX",
"fXfXfXfXfXfXfXfXfXfXfXfXfXfXfXfXfXfXfXfXfXH > n F f M ;.-.l.$X4X4X4X4X4X4X4XV fXfXfXfXfXfXfXfXfXfXfX",
"fXfXfXfXfXfXfXfXfXfXfXfXfXfXfXfXfXfXfXfXfXc /.!.c.>.m ( d.O.E v ] *.&.*.3.W fXfXfXfXfXfXfXfXfXfXfXfX",
"fXfXfXfXfXfXfXfXfXfXfXfXfXfXfXfXfXfXfXfXfXP 4X4X4X4X4X3X|.J.z.=.% fXfXfXfXfXfXfXfXfXfXfXfXfXfXfXfXfX",
"fXfXfXfXfXfXfXfXfXfXfXfXfXfXfXfXfXfXfXfXfXfXt -...5.N.@X4X4X4X4X| fXfXfXfXfXfXfXfXfXfXfXfXfXfXfXfXfX",
"fXfXfXfXfXfXfXfXfXfXfXfXfXfXfXfXfXfXfXfXfXfXM.[  .S.<.6 k %.g.+.t fXfXfXfXfXfXfXfXfXfXfXfXfXfXfXfXfX",
"fXfXfXfXfXfXfXfXfXfXfXfXfXfXfXfXfXfXfXfXfXI 4XP.*.4X4X8.fXfXfXfXfXfXfXfXfXfXfXfXfXfXfXfXfXfXfXfXfXfX",
"fXfXfXfXfXfXfXfXfXfXfXfXfXfXfXfXfXfXfXfX@ H.4X4XG v.4X&Xy fXfXfXfXfXfXfXfXfXfXfXfXfXfXfXfXfXfXfXfXfX",
"fXfXfXfXfXfXfXfXfXfXfXfXfXfXfXfXfXfXfXfX! 4X4X).@ A 4X4Xj.fXfXfXfXfXfXfXfXfXfXfXfXfXfXfXfXfXfXfXfXfX",
"fXfXfXfXfXfXfXfXfXfXfXfXfXfXfXfXfXfXfX. U.4X4X` fXfXS.4X:Xg fXfXfXfXfXfXfXfXfXfXfXfXfXfXfXfXfXfXfXfX",
"fXfXfXfXfXfXfXfXfXfXfXfXfXfXfXfXfXfXfX:.4X4XK.O fXfXS 4X4Xc.fXfXfXfXfXfXfXfXfXfXfXfXfXfXfXfXfXfXfXfX",
"fXfXfXfXfXfXfXfXfXfXfXfXfXfXfXfXfXfX6  X4X4XI fXfXfX@ n.4X4XF fXfXfXfXfXfXfXfXfXfXfXfXfXfXfXfXfXfXfX",
"fXfXfXfXfXfXfXfXfXfXfXfXfXfXfXfXfXfX6.4X4XZ.@ fXfXfXfXx 4X4Xm.O fXfXfXfXfXfXfXfXfXfXfXfXfXfXfXfXfXfX",
"fXfXfXfXfXfXfXfXfXfXfXfXfXfXfXfXfXs oX4X4XN fXfXfXfXfXfXx.4X&Xd fXfXfXfXfXfXfXfXfXfXfXfXfXfXfXfXfXfX",
"fXfXfXfXfXfXfXfXfXfXfXfXfXfXfXfXfX1.4X4Xb.fXfXfXfXfXfXfX0 ).P.< fXfXfXfXfXfXfXfXfXfXfXfXfXfXfXfXfXfX",
"fXfXfXfXfXfXfXfXfXfXfXfXfXfXfXfXfX=.4X[.9 fXfXfXfXfXfXfXfX# = fXfXfXfXfXfXfXfXfXfXfXfXfXfXfXfXfXfXfX"
};
