/* XPM */
static char *result[] = {
/* columns rows colors chars-per-pixel */
"50 50 219 2 ",
"   c black",
".  c #001D1D",
"X  c #031D1D",
"o  c #001E1E",
"O  c #011E1E",
"+  c #001F1F",
"@  c #051C1C",
"#  c #041D1D",
"$  c #051D1D",
"%  c #071C1C",
"&  c #071D1D",
"*  c #0F1B1B",
"=  c #081C1C",
"-  c #091C1C",
";  c #081D1D",
":  c #0A1C1C",
">  c #0B1C1C",
",  c #0B1D1D",
"<  c #0C1C1C",
"1  c #0D1C1C",
"2  c #0E1C1C",
"3  c #111B1B",
"4  c #121B1B",
"5  c #131B1B",
"6  c #151B1B",
"7  c #161A1A",
"8  c #171A1A",
"9  c #121C1C",
"0  c #181A1A",
"q  c gray10",
"w  c #1D1A1A",
"e  c #1E1A1A",
"r  c #181C1C",
"t  c #241919",
"y  c #271919",
"u  c #2A1818",
"i  c #2B1818",
"p  c #2B1919",
"a  c #2D1818",
"s  c #2E1818",
"d  c #2F1818",
"f  c #301717",
"g  c #321717",
"h  c #331717",
"j  c #351717",
"k  c #361717",
"l  c #381717",
"z  c #391717",
"x  c #3A1717",
"c  c #3B1717",
"v  c #3D1616",
"b  c #3F1616",
"n  c #301818",
"m  c #311818",
"M  c #321818",
"N  c #002020",
"B  c #002121",
"V  c #002222",
"C  c #002323",
"Z  c #411515",
"A  c #431515",
"S  c #411616",
"D  c #431616",
"F  c #461515",
"G  c #471515",
"H  c #441616",
"J  c #491414",
"K  c #481515",
"L  c #491515",
"P  c #4A1515",
"I  c #4C1414",
"U  c #4D1414",
"Y  c #4C1515",
"T  c #4D1515",
"R  c #4E1414",
"E  c #4F1414",
"W  c #541313",
"Q  c #561313",
"!  c #571313",
"~  c #501414",
"^  c #511414",
"/  c #521414",
"(  c #531414",
")  c #541414",
"_  c #561414",
"`  c #581313",
"'  c #591313",
"]  c #5A1313",
"[  c #5D1212",
"{  c #770F0F",
"}  c #7A0F0F",
"|  c #7D0F0F",
" . c #7E0F0F",
".. c #601212",
"X. c #611212",
"o. c #601313",
"O. c #631212",
"+. c #641111",
"@. c #661111",
"#. c #671111",
"$. c #641212",
"%. c #661212",
"&. c #671212",
"*. c #691111",
"=. c #6A1111",
"-. c #6B1111",
";. c #6C1111",
":. c #6E1010",
">. c #701010",
",. c #701111",
"<. c #711111",
"1. c #721010",
"2. c #731010",
"3. c #771010",
"4. c #791010",
"5. c #185D5D",
"6. c #2D5151",
"7. c #285F5F",
"8. c #3C7272",
"9. c #800E0E",
"0. c #820E0E",
"q. c #830E0E",
"w. c #8B0D0D",
"e. c #8A0E0E",
"r. c #8C0D0D",
"t. c #8F0D0D",
"y. c #920C0C",
"u. c #930C0C",
"i. c #920D0D",
"p. c #950C0C",
"a. c #960C0C",
"s. c #9A0B0B",
"d. c #9B0B0B",
"f. c #9C0B0B",
"g. c #9E0B0B",
"h. c #980C0C",
"j. c #9A0C0C",
"k. c #9C0C0C",
"l. c #A00B0B",
"z. c #A50A0A",
"x. c #A60A0A",
"c. c #A80A0A",
"v. c #A90A0A",
"b. c #AE0909",
"n. c #BE0707",
"m. c #B10909",
"M. c #B50808",
"N. c #B50909",
"B. c #B60808",
"V. c #B70808",
"C. c #B60909",
"Z. c #BA0808",
"A. c #C10707",
"S. c #C20707",
"D. c #C30707",
"F. c #C40707",
"G. c #C60606",
"H. c #C70707",
"J. c #C80606",
"K. c #CA0606",
"L. c #CD0606",
"P. c #D10505",
"I. c #D20505",
"U. c #D30505",
"Y. c #D30606",
"T. c #D40505",
"R. c #D50505",
"E. c #D60505",
"W. c #D70505",
"Q. c #D80505",
"!. c #DA0404",
"~. c #DE0404",
"^. c #E20303",
"/. c #E30303",
"(. c #E40303",
"). c #E50303",
"_. c #E60303",
"`. c #E70303",
"'. c #E00404",
"]. c #E80303",
"[. c #E90303",
"{. c #EA0202",
"}. c #EC0202",
"|. c #EE0202",
" X c #F60000",
".X c #F70000",
"XX c #F60101",
"oX c #F90000",
"OX c #F80101",
"+X c #F90101",
"@X c #FA0000",
"#X c #FB0000",
"$X c #FA0101",
"%X c #FB0101",
"&X c #FE0000",
"*X c red",
"=X c #FF0101",
"-X c #FF0303",
";X c #EE1212",
":X c #EB2020",
">X c #EC2E2E",
",X c #EB3333",
"<X c #816262",
"1X c #8C6767",
"2X c #DA5353",
"3X c #E44949",
"4X c #FD4848",
"5X c #EA5959",
"6X c #EF7878",
"7X c #4B8484",
"8X c #739696",
"9X c #74B0B0",
"0X c #E99595",
"qX c #FFB4B4",
"wX c #8ACCCC",
"eX c #FFC5C5",
"rX c #DAEDED",
"tX c #D3FEFE",
"yX c None",
/* pixels */
"yXyXyXyXyXyXyXyXyXyXyXyXyXyXyXyXyXyXyXyXyXyXyXyXyXyXyXyXyXyXyXyXyXyXyXyXyXyXyXyXyXyXyXyXyXyXyXyXyXyX",
"yXyXyXyXyXyXyXyXyXyXyXyXyXyXyXyXyXyXyXyXyXyXyXyXyXyXyXyXyXyXyXyXyXyXyXyXyXyXyXyXyXyXyXyXyXyXyXyXyXyX",
"yXyXyXyXyXyXyXyXyXyXyXyXyXyXyXyXyXyXyXyXyXyXyXyXyXyXyXyXyXyXyXyXyXyXyXyXyXyXyXyXyXyXyXyXyXyXyXyXyXyX",
"yXyXyXyXyXyXyXyXyXyXyXyXyXyXyXyXyXyXyXyXyXyXyXyXyXyXyXyXyXyXyXyXyXyXyXyXyXyXyXyXyXyXyXyXyXyXyXyXyXyX",
"yXyXyXyXyXyXyXyXyXyXyXyXyXyXyXyXyXyXyXyXyXyXyXyXyXyXyXyXyXyXyXyXyXyXyXyXyXyXyXyXyXyXyXyXyXyXyXyXyXyX",
"yXyXyXyXyXyXyXyXyXyXyXyXyXyXyXyXyXyXyXyXyXyXyXyXyXyXyXyXyXyXyXyXyXyXyXyXyXyXyXyXyXyXyXyXyXyXyXyXyXyX",
"yXyXyXyXyXyXyXyXyXyXyXyXyXyXyXyXyXyXyXyXyXyXyXyXyXyXyXyXyXyXyXyXyXyXyXyXyXyXyXyXyXyXyXyXyXyXyXyXyXyX",
"yXyXyXyXyXyXyXyXyXyXyXyXyXyXyXyXyXyXyXyXyXyXyXyXyXyXyXyXyXyXyXyXyXyXyXyXyXyXyXyXyXyXyXyXyXyXyXyXyXyX",
"yXyXyXyXyXyXyXyXyXyXyXyXyXyXyXyXyXyXyXyXyXyXyXyXyXyXyXyXyXyXyXyXyXyXyXyXyXyXyXyXyXyXyXyXyXyXyXyXyXyX",
"yXyXyXyXyXyXyXyXyXyXyXyXyXyXyXyXyXyXyXyXyXyXyXyXyXyXyXyXyXyXyXyXyXyXyXyXyXyXyXyXyXyXyXyXyXyXyXyXyXyX",
"yXyXyXyXyXyXyXyXyXyXyXyXyXyXyXyXyXyXyXyXyXyXyXyXyXyXyXyXyXyXyXyXyXyXyXyXyXyXyXyXyXyXyXyXyXyXyXyXyXyX",
"yXyXyXyXyXyXyXyXyXyXyXyXyXyXyXyXyXyXyXyXyXyX@ 0 s S Z u > yXyXyXyXyXyXyXyXyXyXyXyXyXyXyXyXyXyXyXyXyX",
"yXyXyXyXyXyXyXyXyXyXyXyXyXyXyXyXyXyX> k #.h.J./.+X*X*XXXI.r.l yXyXyXyXyXyXyXyXyXyXyXyXyXyXyXyXyXyXyX",
"yXyXyXyXyXyXyXyXyXyXyXyXyXyX# a O.f.U.*X*X*X*X*X*X*X*X*X*X*X*Xg.q yXyXyXyXyXyXyXyXyXyXyXyXyXyXyXyXyX",
"yXyXyXyXyXyXyXyXyXyX5 k X.y.K.+X*X*X*X*X*X*X*X*X*X*X*X*X*X*X*X*X[.z yXyXyXyXyXyXyXyXyXyXyXyXyXyXyXyX",
"yXyXyXyXq 7 t U i.T.*X*X*X*X*X*X*X*X*X*X*X*X*X*X*X*X*X*X*X*X*X*X*X&XM yXyXyXyXyXyXyXyXyXyXyXyXyXyXyX",
"yXyXyXyXyXyXyXu L >.w.b.U.*X*X*X*X*X*X*X*X*X*X*X*X*X*X*X*X*X*X*X*X*X}.1 yXyXyXyXyXyXyXyXyXyXyXyXyXyX",
"yXyXyXyXyXyXyXyXyXyXyXyX+ o z.*X*X*X*X*X*X*X*X*X*X*X*X*X*X*X*X*X*X*X*Xz.yXyXyXyXyXyXyXyXyXyXyXyXyXyX",
"yXyXyXyXyXyXyXyXyXyXyXa j H Z.*X*X*X*X*X*X*X*X*X*X*X*X*X*X*X*X*X*X*X*X*Xj yXyXyXyXyXyXyXyXyXyXyXyXyX",
"yXyXyXyXyXyXyXw ..a.R.*X*X*X*X*X*X*X*X*X*X*X*X*X*X*X*X*X*XoX;X6X4X*X*X*Xh.yXyXyXyXyXyXyXyXyXyXyXyXyX",
"yXyXyXyXyXyXyXyXyXg r V.*X*X*X*X*X*X*X*X*X*X*X*X*X*X*X*X*X:XrX7X7.3X*X*X'.2 yXyXyXyXyXyXyXyXyXyXyXyX",
"yXyXyXyXyXyXyXyXyXX z Q.*X*X*X*X*X*X*X*X*X*X*X*X*X*X*X*XoXqXwX  6.1X-X*X*Xl yXyXyXyXyXyXyXyXyXyXyXyX",
"yXyXyXyXyXyXyXyXyXyXb F _ L.*X*X*X*X*X*X*X*X*X*X*X*X*X*X.XeX9X  8X<X=X*X*XI yXyXyXyXyXyXyXyXyXyXyXyX",
"yXyXyXyXyXyXyXyXyXyXyXN + m.*X*X*X*X*X*X*X*X*X*X*X*X*X*X*X,XtX8.5.2X*X*X*X/ yXyXyXyXyXyXyXyXyXyXyXyX",
"yXyXyXq 6 d ~ ( X.3.k.J.@X*X*X*X*X*X*X*X*X*X*X*X*X*X*X*X*X X>X0X5X*X*X*X*XU yXyXyXyXyXyXyXyXyXyXyXyX",
"yXyXyXyX* M j.*X*X*X*X*X*X*X*X*X*X*X*X*X*X*X*X*X*X*X*X*X*X*X*X*X*X*X*X*X*Xx yXyXyXyXyXyXyXyXyXyXyXyX",
"yXyXyXyXyXyXyXk q.W.*X*X*X*X*X*X*X*X*X*X*X*X*X*X*X*X*X*X*X*X*X*X*X*X*X*X).3 yXyXyXyXyXyXyXyXyXyXyXyX",
"yXyXyXyXyXyXyXyXyX. ~ b.*X*X*X*X*X*X*X*X*X*X*X*X*X*X*X*X*X_.&X*X*X*X*X*Xl.yXyXyXyXyXyXyXyXyXyXyXyXyX",
"yXyXyXyXyXyXq 8 a j + C 1 2.^.*X*X*X*X*X*X*X*X*X*X*X*X*X*Xp., F.*X*X*X*Xx yXyXyXyXyXyXyXyXyXyXyXyXyX",
"yXyXyXyXyXyXyX6 y ) 0.d.' & , n.*X*X*X*X*X*X*X*X*X*X*X*X*XOX<.9 c =. .;.= yXyXyXyXyXyXyXyXyXyXyXyXyX",
"yXyXyXyXyXyXyXyXyXyXi 4.H.*X].{.*X*X*X*X*X*X*X*X*X*X*X*X*X*X*X'.} %./ N yXyXyXyXyXyXyXyXyXyXyXyXyXyX",
"yXyXyXyXyXyXyXyXyXyXyXyXo R G.*X*X*X*X*X*X*X*X*X*X*X*X*X*X*X*X*X*X*X*.yXyXyXyXyXyXyXyXyXyXyXyXyXyXyX",
"yXyXyXyXyXyXyXyXyXyXyXyXyXyXyXh u.|.*X*X*X*X*X*X*X*X*X*X*X*X*X*X$XT yXyXyXyXyXyXyXyXyXyXyXyXyXyXyXyX",
"yXyXyXyXyXyXyXyXyXyXyXyXyXyXyXyXyXe ,.J.*X*X*X*X*X*X*X*X*X*X*XC.p yXyXyXyXyXyXyXyXyXyXyXyXyXyXyXyXyX",
"yXyXyXyXyXyXyXyXyXyXyXyXyXyXyXyXyXyXyX$ G 1.h.~.*X*X*X].P.c.R o yXyXyXyXyXyXyXyXyXyXyXyXyXyXyXyXyXyX",
"yXyXyXyXyXyXyXyXyXyXyXyXyXyXyXyXyXyXyXyXyXT 1.R n E &.*.m yXyXyXyXyXyXyXyXyXyXyXyXyXyXyXyXyXyXyXyXyX",
"yXyXyXyXyXyXyXyXyXyXyXyXyXyXyXyXyXyXyXyX4 *X*X-.t.D 1.%XD.yXyXyXyXyXyXyXyXyXyXyXyXyXyXyXyXyXyXyXyXyX",
"yXyXyXyXyXyXyXyXyXyXyXyXyXyXyXyXyXyXyXyX@.*X^.J *XE.Z *X*X] yXyXyXyXyXyXyXyXyXyXyXyXyXyXyXyXyXyXyXyX",
"yXyXyXyXyXyXyXyXyXyXyXyXyXyXyXyXyXyXyXyXS.*Xs.B (.*X` | *X(.; yXyXyXyXyXyXyXyXyXyXyXyXyXyXyXyXyXyXyX",
"yXyXyXyXyXyXyXyXyXyXyXyXyXyXyXyXyXyXyXA *X*X:.Y :.*X(.u `.*Xt.yXyXyXyXyXyXyXyXyXyXyXyXyXyXyXyXyXyXyX",
"yXyXyXyXyXyXyXyXyXyXyXyXyXyXyXyXyXyXyXI *Xn.S *XQ J.*X{ Q *XA.o yXyXyXyXyXyXyXyXyXyXyXyXyXyXyXyXyXyX",
"yXyXyXyXyXyXyXyXyXyXyXyXyXyXyXyXyXyXyXyXP n M.*Xe.Z *X#XK o.g yXyXyXyXyXyXyXyXyXyXyXyXyXyXyXyXyXyXyX",
"yXyXyXyXyXyXyXyXyXyXyXyXyXyXyXyXyXyXyXyXV B.*X*XW N (.*XP.C yXyXyXyXyXyXyXyXyXyXyXyXyXyXyXyXyXyXyXyX",
"yXyXyXyXyXyXyXyXyXyXyXyXyXyXyXyXyXyXyXyX$.*X*XH.yXyX+.*X*X[ yXyXyXyXyXyXyXyXyXyXyXyXyXyXyXyXyXyXyXyX",
"yXyXyXyXyXyXyXyXyXyXyXyXyXyXyXyXyXyXyX: ].*X*Xv yXyXO !.*X~.# yXyXyXyXyXyXyXyXyXyXyXyXyXyXyXyXyXyXyX",
"yXyXyXyXyXyXyXyXyXyXyXyXyXyXyXyXyXyXyX>.*X*XN.+ yXyXyX! *X*X=.yXyXyXyXyXyXyXyXyXyXyXyXyXyXyXyXyXyXyX",
"yXyXyXyXyXyXyXyXyXyXyXyXyXyXyXyXyXyX: `.*X*Xf yXyXyXyXo Y.*X(.6 yXyXyXyXyXyXyXyXyXyXyXyXyXyXyXyXyXyX",
"yXyXyXyXyXyXyXyXyXyXyXyXyXyXyXyXyXyX9.*X*Xx.yXyXyXyXyXyX^ *X*X=.yXyXyXyXyXyXyXyXyXyXyXyXyXyXyXyXyXyX",
"yXyXyXyXyXyXyXyXyXyXyXyXyXyXyXyXyX< ].*X*Xe yXyXyXyXyXyX$ v.L.g yXyXyXyXyXyXyXyXyXyXyXyXyXyXyXyXyXyX",
"yXyXyXyXyXyXyXyXyXyXyXyXyXyXyXyXyX% E.*X=.yXyXyXyXyXyXyXyXyX- yXyXyXyXyXyXyXyXyXyXyXyXyXyXyXyXyXyXyX"
};
