/* XPM */
static char *result[] = {
/* columns rows colors chars-per-pixel */
"50 50 195 2 ",
"   c #1B0200",
".  c #1A0C03",
"X  c #190C09",
"o  c #1A130C",
"O  c #1A1107",
"+  c #1A1714",
"@  c #1A1915",
"#  c #1A1B1B",
"$  c #1A1E22",
"%  c #1A1E29",
"&  c #391D30",
"*  c #1A242B",
"=  c #1A2628",
"-  c #1A2534",
";  c #192E3D",
":  c #1A2A35",
">  c #23303C",
",  c #323237",
"<  c #100D54",
"1  c #1A3345",
"2  c #19344B",
"3  c #19384C",
"4  c #193B54",
"5  c #193D5B",
"6  c #193552",
"7  c #18294F",
"8  c #2A2654",
"9  c #2E2B4C",
"0  c #00006D",
"q  c #0A0567",
"w  c #1C1C6D",
"e  c #171169",
"r  c #0C0079",
"t  c #180076",
"y  c #1A1878",
"u  c #281E69",
"i  c #251979",
"p  c #29087A",
"a  c #2B2361",
"s  c #232263",
"d  c #302363",
"f  c #462755",
"g  c #53257B",
"h  c #194263",
"j  c #19466B",
"k  c #194E7B",
"l  c #1C4B72",
"z  c #19557E",
"x  c #04018E",
"c  c #0C008A",
"v  c #080688",
"b  c #100F8D",
"n  c #161585",
"m  c #181681",
"M  c #14138D",
"N  c #000093",
"B  c #04009C",
"V  c #09009B",
"C  c #0E0895",
"Z  c #120E95",
"A  c #1C0C9C",
"S  c #1A0C92",
"D  c #141992",
"F  c #231584",
"G  c #221389",
"H  c #210D96",
"J  c #103592",
"K  c #213C85",
"L  c #313093",
"P  c #0100A4",
"I  c #0A09A3",
"U  c #0503AD",
"Y  c #0803AA",
"T  c #1C08A7",
"R  c #1B05AD",
"E  c #1501A0",
"W  c #0401B3",
"Q  c #0100BB",
"!  c #0606B3",
"~  c #1B03B3",
"^  c #1701BD",
"/  c #1900BA",
"(  c #1319A7",
")  c #210AA4",
"_  c #122CA3",
"`  c #1733A1",
"'  c #541489",
"]  c #60138A",
"[  c #650E92",
"{  c #472F95",
"}  c #6407B0",
"|  c #7E09BA",
" . c #195182",
".. c #19528A",
"X. c #185C94",
"o. c #185D9B",
"O. c #186494",
"+. c #18639F",
"@. c #1B4FA8",
"#. c #1343B3",
"$. c #1951B3",
"%. c #1C58B3",
"&. c #0E6BAE",
"*. c #1862A4",
"=. c #1865AC",
"-. c #1769AE",
";. c #186AB4",
":. c #186CBA",
">. c #1867B2",
",. c #1875BB",
"<. c #0A68BA",
"1. c #2173B9",
"2. c #257CAA",
"3. c #4A489F",
"4. c #726997",
"5. c #0100C4",
"6. c #0000CC",
"7. c #1500C4",
"8. c #1400CC",
"9. c #1800C5",
"0. c #0000D2",
"q. c #0800DA",
"w. c #1300D5",
"e. c #1100DB",
"r. c #0D00EF",
"t. c #7500C9",
"y. c #186DC3",
"u. c #1763C8",
"i. c #1B71C4",
"p. c #1A74CD",
"a. c #1879C7",
"s. c #197BD5",
"d. c #187CD8",
"f. c #177EDB",
"g. c #007CFE",
"h. c #0079F3",
"j. c #7C7EC0",
"k. c #2480BA",
"l. c #5E9F97",
"z. c #7C97BE",
"x. c #72ACAE",
"c. c #1B82C9",
"v. c #1985D4",
"b. c #1782DC",
"n. c #2191CF",
"m. c #2290D1",
"M. c #2288CB",
"N. c #1783E3",
"B. c #178AEF",
"V. c #1884E9",
"C. c #098CFF",
"Z. c #0387FF",
"A. c #168BF4",
"S. c #178FFF",
"D. c #188FFF",
"F. c #0893FF",
"G. c #1793FE",
"H. c #1993FF",
"J. c #179CFF",
"K. c #1A9EFF",
"L. c #1E92F0",
"P. c #1793EC",
"I. c #18A8E9",
"U. c #0CA9FF",
"Y. c #17A4FF",
"T. c #16ABFF",
"R. c #1AABFF",
"E. c #18A8F9",
"W. c #16B3FF",
"Q. c #1AB1FF",
"!. c #16BDFF",
"~. c #1CBCFF",
"^. c #2EA2FC",
"/. c #7C9FC5",
"(. c #409AE6",
"). c #42B2E5",
"_. c #6BB0E0",
"`. c #7ABFEE",
"'. c #15C3FF",
"]. c #1AD2FF",
"[. c #20CCFF",
"{. c #20D5FF",
"}. c #9F9FAF",
"|. c #9190B8",
" X c #B795BA",
".X c #CAC8B8",
"XX c #9190C3",
"oX c #B2AAD7",
"OX c #BDC3D2",
"+X c #B3E4FB",
"@X c #F4D3D3",
"#X c #FFEDDB",
"$X c #F2F3DD",
"%X c white",
"&X c None",
/* pixels */
"&X&X&X&X&X&X&X&X&X&X&X&X&X&X&X&X&X&X&X&X&X&X&X&X&X&X&X&X&X&X&X&X&X&X&X&X&X&X&X&X&X&X&X&X&X&X&X&X&X&X",
"&X&X&X&X&X&X&X&X&X&X&X&X&X&X&X&X&X&X&X&X&X&X&X&X&X&X&X&X&X&X&X&X&X&X&X&X&X&X&X&X&X&X&X&X&X&X&X&X&X&X",
"&X&X&X&X&X&X&X&X&X&X&X&X&X&X&X&X&X&X&X&X&X&X&X&X&X&X&X&X&X&X&X&X&X&X&X&X&X&X&X&X&X&X&X&X&X&X&X&X&X&X",
"&X&X&X&X&X&X&X&X&X&X&X&X&X&X&X&X&X&X&X&X&X&X&X&X&X&X&X&X&X&X&X&X&X&X&X&X&X&X&X&X&X&X&X&X&X&X&X&X&X&X",
"&X&X&X&X&X&X&X&X&X&X&X&X&X&X&X&X&X&X&X&X&X&X&X&X&X&X&X&X&X&X&X&X&X&X&X&X&X&X&X&X&X&X&X&X&X&X&X&X&X&X",
"&X&X&X&X&X&X&X&X&X&X&X&X&X&X&X&X&X&X&X&X&X&X&X&X&X&X&X&X&X&X&X&X&X&X&X&X&X&X&X&X&X&X&X&X&X&X&X&X&X&X",
"&X&X&X&X&X&X&X&X&X&X&X&X&X&X&X&X&X&X&X&X&X&X&X&X&X&X&X&X&X&X&X&X&X&X&X&X&X&X&X&X&X&X&X&X&X&X&X&X&X&X",
"&X&X&X&X&X&X&X&X&X&X&X&X&X&X&X&X&X&X&X&X&X&X&X&X&X&X&X&X&X&X&X&X&X&X&X&X&X&X&X&X&X&X&X&X&X&X&X&X&X&X",
"&X&X&X&X&X&X&X&X&X&X&X&X&X&X&X&X&X&X&X&X&X&X&X&X&X&X&X&X&X&X&X&X&X&X&X&X&X&X&X&X&X&X&X&X&X&X&X&X&X&X",
"&X&X&X&X&X&X&X&X&X&X&X&X&X&X&X&X&X&X&X&X&X&X&X&X&X&X&X&X&X&X&X&X&X&X&X&X&X&X&X&X&X&X&X&X&X&X&X&X&X&X",
"&X&X&X&X&X&X&X&X&X&X&X&X&X&X&X&X&X&X&X&X&Xs m n y w &X&X&X&X&X&X&X&X&X&X&X&X&X&X&X&X&X&X&X&X&X&X&X&X",
"&X&X&X&X&X&X&X&X&X&X&X&X&X&X&X&X&X&X&Xm ! 6.6.0.Q N C ) ^ 7.9.~ F &X&X&X&X&X&X&X&X&X&X&X&X&X&X&X&X&X",
"&X&X&X&X&X&X&X&X&X&X&X&X&X&X&X&X&XM 5.0.5.W Q P }..XR q.9.~ ~ 8.e.^ a &X&X&X&X&X&X&Xa &X&X&X&X&X&X&X",
"&X&X&X&X&X&X&X&X&X&X&X&X&X&X&X8 5.0.Q W W W Q x $X%X4.v H A A S H e.w.G &X&X&Xu T e.r.R &X&X&X&X&X&X",
"&X&X&X&X&X&X&X&X&X&X&X&X&X&X&X5.5.U Q Q Q Q 5.W 3.}.L v I U U ! u a ^ w./ A R w.8.F u 7.T &X&X&X&X&X",
"&X&X&X&X&X&X&X&X&X&X&X&X&X&XZ 6.Q 6.W Y I C Z ! Q B Q 5.Q Q W Q Q s i R 8.7.9.8.T , &X&XA a &X&X&X&X",
"&X&X&X&X&X&X&X&X&X&X&X&X&X&X5.5.Y q < e t V Y n I 6.Q W 5.W P Q 5.U G m S 8.8.i w 8.F &X&X8 &X&X&X&X",
"&X&X&X&X&X&X&X&X&X&X&X&X&Xy 0.V J l.x.<.&.K c Q M D B V c ` @.V 5.Q H ' 9 7 , &Xf d 7.i &X&X&X&X&X&X",
"&X&X&X&X&X&X&X&X&X&X&X&X&X< ( <.).j.oX+XF.E.2.Z W K k.$.i.Q.{.1.N Q E | t.[ ] } ' &X&Xi &X&X&X&X&X&X",
"&X&X&X&X&X&X&X&X&X&X&X&X&Xl I.Q.|.p 0 @X`.Z.T.n.b P ,.[.~.s.#.i.1.#.7 & g ' ' &X&X&X&X&X&X&X&X&X&X&X",
"&X&X&X&X&X&X&X&X&X&X&X&XX b.U.^.|.XX0  X+Xg.S.Y.m.b P ` _ r c r %.].O.&X&X&X&X&X&X&X&X&X&X&X&X&X&X&X",
"&X&X&X&X&X&X&X&X&X&X&X&X# B.J.C./.g { #X(.C.S.S.T.M.c N c $.c.u.K K.f.X &X&X&X&X&X&X&X&X&X&X&X&X&X&X",
"&X&X&X&X&X&X&X&X&X&X&X&X* S.G.C.A.z.OX_.h.G.S.S.S.Y.p.@.M.R.Y.Y.H.K.f.o &X&X&X&X&X&X&X&X&X&X&X&X&X&X",
"&X&X&X&X&X&X&X&X&X&X&X&X* A.G.H.C.F.A.g.G.S.S.S.D.S.K.Y.J.S.D.H.H.Y.d.o &X&X&X&X&X&X&X&X&X&X&X&X&X&X",
"&X&X&X&X&X&X&X&X&X&X&X&X@ N.K.S.S.G.C.S.S.S.S.S.S.S.D.S.S.S.S.S.S.Y.:.&X&X&X&X&X&X&X&X&X&X&X&X&X&X&X",
"&X&X&X&X&X&X&X&X&X&X&X&X&X;.Y.S.S.S.H.K.G.S.S.S.S.S.G.S.S.S.G.S.S.T. .&X&X&X&X&X&X&X&X&X&X&X&X&X&X&X",
"&X&X&X&X&X&X&X&X&X&X&X&X&Xh T.J.G.T.J.5 :.K.S.S.S.S.S.S.S.S.S.S.G.J.: &X&X&X&X&X&X&X&X&X&X&X&X&X&X&X",
"&X&X&X&X&X&X&X&X&X&X&X&X&Xo i.P.N.O.$ # v.J.S.S.S.S.S.S.S.S.S.S.T.;.  &X&X&X&X&X&X&X&X&X&X&X&X&X&X&X",
"&X&X&X&X&X&X&X&X&X&X&X&X&X&Xo 1 : % l K.J.S.S.S.S.S.S.S.S.S.S.K.G.+ &X&X&X&X&X&X&X&X&X&X&X&X&X&X&X&X",
"&X&X&X&X&X&X&X&X&X&X&X&X&X&X&X5 J.E.Y.G.S.S.S.S.S.G.S.S.S.S.K.Y.1 &X&X&X&X&X&X&X&X&X&X&X&X&X&X&X&X&X",
"&X&X&X&X&X&X&X&X&X&X&X&X&X&X&XX X.T.Y.S.S.S.S.S.S.S.S.S.S.T.K.6 &X&X&X&X&X&X&X&X&X&X&X&X&X&X&X&X&X&X",
"&X&X&X&X&X&X&X&X&X&X&X&X&X&X&X&X&X6 v.Y.Y.J.G.G.G.G.K.Y.Y.,.- &X&X&X&X&X&X&X&X&X&X&X&X&X&X&X&X&X&X&X",
"&X&X&X&X&X&X&X&X&X&X&X&X&X&X&X&X&X&Xo h ,.b.V.G.K.G.,.k 1 . &X&X&X&X&X&X&X&X&X&X&X&X&X&X&X&X&X&X&X&X",
"&X&X&X&X&X&X&X&X&X&X&X&X&X&X&X&X&X&X&X&X&X# h k 3 = 4 z $ &X&X&X&X&X&X&X&X&X&X&X&X&X&X&X&X&X&X&X&X&X",
"&X&X&X&X&X&X&X&X&X&X&X&X&X&X&X&X&X&X&X&X&X..I.*.; 2 >.].o.&X&X&X&X&X&X&X&X&X&X&X&X&X&X&X&X&X&X&X&X&X",
"&X&X&X&X&X&X&X&X&X&X&X&X&X&X&X&X&X&X&X&X* J.W.5 y.f.h W.V.o &X&X&X&X&X&X&X&X&X&X&X&X&X&X&X&X&X&X&X&X",
"&X&X&X&X&X&X&X&X&X&X&X&X&X&X&X&X&X&X&X  :.!.:.; T.d.$ A.T.5 &X&X&X&X&X&X&X&X&X&X&X&X&X&X&X&X&X&X&X&X",
"&X&X&X&X&X&X&X&X&X&X&X&X&X&X&X&X&X&X&X1 J.Y.2 =.W.a.  =.!.;.&X&X&X&X&X&X&X&X&X&X&X&X&X&X&X&X&X&X&X&X",
"&X&X&X&X&X&X&X&X&X&X&X&X&X&X&X&X&X&X. p.!.y.@ G.Y.-.&X5 W.K.* &X&X&X&X&X&X&X&X&X&X&X&X&X&X&X&X&X&X&X",
"&X&X&X&X&X&X&X&X&X&X&X&X&X&X&X&X&X&X. >.T.* * K.T...X X i.p.# &X&X&X&X&X&X&X&X&X&X&X&X&X&X&X&X&X&X&X",
"&X&X&X&X&X&X&X&X&X&X&X&X&X&X&X&X&X&X&X# :   j Y.Y.h -.a.6 : O &X&X&X&X&X&X&X&X&X&X&X&X&X&X&X&X&X&X&X",
"&X&X&X&X&X&X&X&X&X&X&X&X&X&X&X&X&X&X&X&X&X&Xk Y.H.j N.T.H.G.b.X.4 o &X&X&X&X&X&X&X&X&X&X&X&X&X&X&X&X",
"&X&X&X&X&X&X&X&X&X&X&X&X&X&X&X&X&X&X&X&X&X&Xo.T.S.4 s.T.T.Y.Y.Y.T.:.o &X&X&X&X&X&X&X&X&X&X&X&X&X&X&X",
"&X&X&X&X&X&X&X&X&X&X&X&X&X&X&X&X&X&X&X&X&X&X:.T.A.$ + 5 +.b.K.Y.Q.Y.$ &X&X&X&X&X&X&X&X&X&X&X&X&X&X&X",
"&X&X&X&X&X&X&X&X&X&X&X&X&X&X&X&X&X&X&X&X&Xo s.T.d.o &X&X&X+ 1 X.c. .&X&X&X&X&X&X&X&X&X&X&X&X&X&X&X&X",
"&X&X&X&X&X&X&X&X&X&X&X&X&X&X&X&X&X&X&X&X&X@ N.Q.:.. &X&X&X&X&X&X. &X&X&X&X&X&X&X&X&X&X&X&X&X&X&X&X&X",
"&X&X&X&X&X&X&X&X&X&X&X&X&X&X&X&X&X&X&X&X&X* A.T.=.&X&X&X&X&X&X&X&X&X&X&X&X&X&X&X&X&X&X&X&X&X&X&X&X&X",
"&X&X&X&X&X&X&X&X&X&X&X&X&X&X&X&X&X&X&X&X&X4 Y.R.+.&X&X&X&X&X&X&X&X&X&X&X&X&X&X&X&X&X&X&X&X&X&X&X&X&X",
"&X&X&X&X&X&X&X&X&X&X&X&X&X&X&X&X&X&X&X&X&X$ B.R.2 &X&X&X&X&X&X&X&X&X&X&X&X&X&X&X&X&X&X&X&X&X&X&X&X&X",
"&X&X&X&X&X&X&X&X&X&X&X&X&X&X&X&X&X&X&X&X&X&X&X&X&X&X&X&X&X&X&X&X&X&X&X&X&X&X&X&X&X&X&X&X&X&X&X&X&X&X"
};
