/* XPM */
static char *result[] = {
/* columns rows colors chars-per-pixel */
"50 50 193 2 ",
"   c #1B0300",
".  c #1A0B02",
"X  c #1A0D09",
"o  c #1A120C",
"O  c #1A1514",
"+  c #1A1A1B",
"@  c #1A1D20",
"#  c #2C1E36",
"$  c #1A2125",
"%  c #1A232A",
"&  c #1A2D3C",
"*  c #1A2935",
"=  c #191658",
"-  c #1A2D42",
";  c #193244",
":  c #19344A",
">  c #0D3F53",
",  c #193652",
"<  c #193A54",
"1  c #193D5C",
"2  c #2D2851",
"3  c #2A2753",
"4  c #2D2C44",
"5  c #000067",
"6  c #000279",
"7  c #1E1B74",
"8  c #1F167F",
"9  c #1A197A",
"0  c #171671",
"q  c #0C1078",
"w  c #271E6E",
"e  c #281F6A",
"r  c #261B74",
"t  c #251978",
"y  c #193E62",
"u  c #252B7A",
"i  c #501857",
"p  c #4B1C6F",
"a  c #5B1A76",
"s  c #4B2065",
"d  c #5A2277",
"f  c #194264",
"g  c #19466D",
"h  c #194B69",
"j  c #194673",
"k  c #194A72",
"l  c #194E7E",
"z  c #19537E",
"x  c #185C7B",
"c  c #326278",
"v  c #59407C",
"b  c #05008C",
"n  c #000082",
"m  c #120D8F",
"M  c #140387",
"N  c #161585",
"B  c #171A87",
"V  c #040194",
"C  c #0B0094",
"Z  c #02009D",
"A  c #0C0A9F",
"S  c #0D0696",
"D  c #110E93",
"F  c #1E0D9A",
"G  c #131094",
"H  c #21128B",
"J  c #231582",
"K  c #311581",
"L  c #230893",
"P  c #201194",
"I  c #2C1390",
"U  c #18329D",
"Y  c #0402A5",
"T  c #0E0AA3",
"R  c #0102AA",
"E  c #0B05A6",
"W  c #1E09A3",
"Q  c #1C06AA",
"!  c #0400B4",
"~  c #0100BC",
"^  c #1503B3",
"/  c #1C02B4",
"(  c #1901BA",
")  c #1502BC",
"_  c #2005A4",
"`  c #122BA8",
"'  c #1139B2",
"]  c #0632B6",
"[  c #400083",
"{  c #5A0087",
"}  c #5F0C90",
"|  c #411586",
" . c #532F8E",
".. c #432783",
"X. c #5A10A5",
"o. c #533DB0",
"O. c #194F85",
"+. c #195184",
"@. c #19568C",
"#. c #185B8F",
"$. c #195C91",
"%. c #185D9B",
"&. c #304F91",
"*. c #39539A",
"=. c #18659B",
"-. c #1B4BA7",
";. c #1D59AC",
":. c #205DAB",
">. c #1861A3",
",. c #186AAB",
"<. c #1866B3",
"1. c #186AB5",
"2. c #186CBB",
"3. c #1A74BD",
"4. c #1779BE",
"5. c #4D4B9A",
"6. c #6A528A",
"7. c #6C7598",
"8. c #5251AA",
"9. c #6144A2",
"0. c #7D5FAE",
"q. c #675AA0",
"w. c #587BB8",
"e. c #6C6AA1",
"r. c #0100C3",
"t. c #0000CC",
"y. c #1600C5",
"u. c #1600CB",
"i. c #0000D2",
"p. c #0E00DB",
"a. c #1300D2",
"s. c #1100DC",
"d. c #0D00F0",
"f. c #196FC4",
"g. c #1972C3",
"h. c #1874CB",
"j. c #1B7ACB",
"k. c #006FDC",
"l. c #187CDB",
"z. c #1977D6",
"x. c #047AEB",
"c. c #007BF5",
"v. c #845EA5",
"b. c #488FB7",
"n. c #1782DC",
"m. c #1886D8",
"M. c #2286C8",
"N. c #2199DC",
"B. c #1787EE",
"V. c #178BEA",
"C. c #1888E9",
"Z. c #1F95E2",
"A. c #0185FE",
"S. c #068DFF",
"D. c #178CF6",
"F. c #178FFF",
"G. c #198FFF",
"H. c #0194FF",
"J. c #0F9AFF",
"K. c #1693FF",
"L. c #1991FF",
"P. c #179CFF",
"I. c #1A9CFF",
"U. c #1998F3",
"Y. c #1DABF4",
"T. c #16A4FF",
"R. c #16ABFF",
"E. c #1BADFD",
"W. c #1AA3FB",
"Q. c #07BAFF",
"!. c #16B4FF",
"~. c #1BB3FD",
"^. c #16BAFF",
"/. c #1FBBFF",
"(. c #10A9F2",
"). c #22AAE5",
"_. c #659FD7",
"`. c #75B3DF",
"'. c #44A3EC",
"]. c #5AA9E3",
"[. c #60B5EF",
"{. c #16C1FF",
"}. c #8D9F92",
"|. c #8584AE",
" X c #B896BE",
".X c #CDCEBD",
"XX c #89BEE6",
"oX c #FDDED3",
"OX c #E2E3CE",
"+X c #FFFFFC",
"@X c #FFFFF7",
"#X c #F7ECE9",
"$X c None",
/* pixels */
"$X$X$X$X$X$X$X$X$X$X$X$X$X$X$X$X$X$X$X$X$X$X$X$X$X$X$X$X$X$X$X$X$X$X$X$X$X$X$X$X$X$X$X$X$X$X$X$X$X$X",
"$X$X$X$X$X$X$X$X$X$X$X$X$X$X$X$X$X$X$X$X$X$X$X$X$X$X$X$X$X$X$X$X$X$X$X$X$X$X$X$X$X$X$X$X$X$X$X$X$X$X",
"$X$X$X$X$X$X$X$X$X$X$X$X$X$X$X$X$X$X$X$X$X$X$X$X$X$X$X$X$X$X$X$X$X$X$X$X$X$X$X$X$X$X$X$X$X$X$X$X$X$X",
"$X$X$X$X$X$X$X$X$X$X$X$X$X$X$X$X$X$X$X$X$X$X$X$X$X$X$X$X$X$X$X$X$X$X$X$X$X$X$X$X$X$X$X$X$X$X$X$X$X$X",
"$X$X$X$X$X$X$X$X$X$X$X$X$X$X$X$X$X$X$X$X$X$X$X$X$X$X$X$X$X$X$X$X$X$X$X$X$X$X$X$X$X$X$X$X$X$X$X$X$X$X",
"$X$X$X$X$X$X$X$X$X$X$X$X$X$X$X$X$X$X$X$X$X$X$X$X$X$X$X$X$X$X$X$X$X$X$X$X$X$X$X$X$X$X$X$X$X$X$X$X$X$X",
"$X$X$X$X$X$X$X$X$X$X$X$X$X$X$X$X$X$X$X$X$X$X$X$X$X$X$X$X$X$X$X$X$X$X$X$X$X$X$X$X$X$X$X$X$X$X$X$X$X$X",
"$X$X$X$X$X$X$X$X$X$X$X$X$X$X$X$X$X$X$X$X$X$X$X$X$X$X$X$X$X$X$X$X$X$X$X$X$X$X$X$X$X$X$X$X$X$X$X$X$X$X",
"$X$X$X$X$X$X$X$X$X$X$X$X$X$X$X$X$X$X$X$X$X$X$X$X$X$X$X$X$X$X$X$X$X$X$X$X$X$X$X$X$X$X$X$X$X$X$X$X$X$X",
"$X$X$X$X$X$X$X$X$X$X$X$X$X$X$X$X$X$X$X$X$X$X$X$X$X$X$X$X$X$X$X$X$X$X$X$X$X$X$X$X$X$X$X$X$X$X$X$X$X$X",
"$X$X$X$X$X$X$X$X$X$X$X$X$X$X$X$X$X$X$X$X$X$X$X$X$X$X$X$X$X$X$X$X$X$X$X$X$X$X$X$X$X$X$X$X$X$X$X$X$X$X",
"$X$X$X$X$X$X$X$X$X$X$X$X$X$X$X$X$X$X$X$X$X$X$X$X$X$X$X$X$X$X$X$X$X$X$X$X$X$X$X$X$X$X$X$X$X$X$X$X$X$X",
"$X$X$X$X$X$X$X$X$X$X$X$X$X$X$X$X$X$X$X$X$X$X9 N 9 0 $X$X$X$X$X$X$X$X$X$X$X$X$X$X$X$X$X$X$X$X$X$X$X$X",
"$X$X$X$X$X$X$X$X$X$X$X$X$X$X$X$X$X$X$X7 T r.t.i.t.Y V P P F H w $X$X$X$X$X$X$X$X$X$X$X$X$X$X$X$X$X$X",
"$X$X$X$X$X$X$X$X$X$X$X$X$X$X$X$X$XN ~ i.r.~ ! R 8..Xq.r.a.u.a.a.( e $X$X$X$X$X$X$X$X$X$X$X$X$X$X$X$X",
"$X$X$X$X$X$X$X$X$X$X$X$X$X$X$X4 ~ i.~ ! ! ! ! Y e.+XOX6 Q W W _ u.s.J $X$X$X$X$X$X$X$X$X$X$X$X$X$X$X",
"$X$X$X$X$X$X$X$X$X$X$X$X$X$X$X~ t.! ! ~ ~ ! ~ r.Y |.8.S T A A G B / s.H $X$X$X$X$X$X$X$X$X$X$X$X$X$X",
"$X$X$X$X$X$X$X$X$X$X$X$X$X$XD i.! r.! S A A D D ~ Y R r.~ ~ r.~ A J / s.P 2 $X$Xe P W w $X$X$X$X$X$X",
"$X$X$X$X$X$X$X$X$X$X$X$X$X$X~ r.! n q B M Y ! G N ~ t.~ ~ ~ Y ! t.R t / a.y./ ( s.s.u.d.t $X$X$X$X$X",
"$X$X$X$X$X$X$X$X$X$X$X$X$X= t.V *.}.b.k.j.-.S r.E B M S E L { K R t.R 8 ( y.y.u.Q 3 $Xr y.$X$X$X$X$X",
"$X$X$X$X$X$X$X$X$X$X$X$X$X= ] b.7.e.#X[.H.~.M.B ~ D c &... .o.5.u Z ! 7 t T ( P $X$X$X$Xr J $X$X$X$X",
"$X$X$X$X$X$X$X$X$X$X$X$XO l.Q._.v.5 0.@Xx.F.R.N.B R ' /.I.K.Q.!.).4.u } X.| I ( t a p $X$X2 $X$X$X$X",
"$X$X$X$X$X$X$X$X$X$X$X$X1 E.H.w. Xq 9.+Xx.F.F.T.N.m Z -.~.E.3.` ` Y.Y.# i d s r p.K $X$X$X$X$X$X$X$X",
"$X$X$X$X$X$X$X$X$X$X$X$X@.E.S.'.6.v oX`.c.K.F.F.R.j.S R U ` b b b m R.> $X$X$X$Xt ) $X$X$X$X$X$X$X$X",
"$X$X$X$X$X$X$X$X$X$X$X$X1.T.F.A.'.XX].x.K.F.F.F.F.~.:.V ~ V ` g.g.B z.$.$X$X$X$X$XW $X$X$X$X$X$X$X$X",
"$X$X$X$X$X$X$X$X$X$X$X$X1.T.F.L.S.A.A.L.F.F.F.K.F.K.W.U B ;.Y.R.R.U.U.O.$X$X$X$X$X2 $X$X$X$X$X$X$X$X",
"$X$X$X$X$X$X$X$X$X$X$X$X%.T.K.F.F.F.K.I.F.F.F.F.F.F.K.P.Z.W.K.K.F.K.T.1 $X$X$X$X$X$X$X$X$X$X$X$X$X$X",
"$X$X$X$X$X$X$X$X$X$X$X$Xk T.F.F.F.P.K.l.F.F.F.F.F.F.F.K.K.F.F.L.K.K.K.* $X$X$X$X$X$X$X$X$X$X$X$X$X$X",
"$X$X$X$X$X$X$X$X$X$X$X$X+ K.!.T.T.m.@ , P.L.K.F.F.F.K.F.K.F.F.F.F.T.z.. $X$X$X$X$X$X$X$X$X$X$X$X$X$X",
"$X$X$X$X$X$X$X$X$X$X$X$X$Xf z g ; O 1 V.K.F.F.F.F.F.F.F.F.F.F.F.K.R.1 $X$X$X$X$X$X$X$X$X$X$X$X$X$X$X",
"$X$X$X$X$X$X$X$X$X$X$X$X$X  , h j j.R.P.F.F.K.F.F.F.F.F.F.F.F.F.R.2.  $X$X$X$X$X$X$X$X$X$X$X$X$X$X$X",
"$X$X$X$X$X$X$X$X$X$X$X$X$X$Xf ^.!.K.F.F.F.F.F.F.F.F.F.F.F.F.F.R.V.o $X$X$X$X$X$X$X$X$X$X$X$X$X$X$X$X",
"$X$X$X$X$X$X$X$X$X$X$X$X$X$X$X- U.T.K.F.F.K.F.F.F.F.F.F.F.K.R.m.O $X$X$X$X$X$X$X$X$X$X$X$X$X$X$X$X$X",
"$X$X$X$X$X$X$X$X$X$X$X$X$X. $X  o #.P.T.P.K.F.F.K.F.K.P.R.P.#.o $X$X$X$X$X$X$X$X$X$X$X$X$X$X$X$X$X$X",
"$X$X$X$X$X$X$X$X$X$XO z 3.g.g.h.,.1 : z g.L.T.T.T.P.K.m.$.* $X$X$X$X$X$X$X$X$X$X$X$X$X$X$X$X$X$X$X$X",
"$X$X$X$X$X$X$X$X$X$X+ P.{.!.!.!.!.!.C.@.f f , ; , < $ . $X$X$X$X$X$X$X$X$X$X$X$X$X$X$X$X$X$X$X$X$X$X",
"$X$X$X$X$X$X$X$X$X$X$X: k g g g y - < k k ; $ 1 z ,.,.@ $X$X$X$X$X$X$X$X$X$X$X$X$X$X$X$X$X$X$X$X$X$X",
"$X$X$X$X$X$X$X$X$X$X$X$X$X$X$X$X. , z >.z.B.T.^.^.^.P.& $X$X$X$X$X$X$X$X$X$X$X$X$X$X$X$X$X$X$X$X$X$X",
"$X$X$X$X$X$X$X$X$X$X$X$X$X$X$X$X1 {.{.^.T.K.2.+.@.h + $X$X$X$X$X$X$X$X$X$X$X$X$X$X$X$X$X$X$X$X$X$X$X",
"$X$X$X$X$X$X$X$X$X$X$X$X$X$X$X$X+ #.=.k & @ y x , & @.$X$X$X$X$X$X$X$X$X$X$X$X$X$X$X$X$X$X$X$X$X$X$X",
"$X$X$X$X$X$X$X$X$X$X$X$X$X$X$X$X$X$X$X$X$X, R.^.k f.R.% $X$X$X$X$X$X$X$X$X$X$X$X$X$X$X$X$X$X$X$X$X$X",
"$X$X$X$X$X$X$X$X$X$X$X$X$X$X$X$X$X$X$X$Xo B.!.<.* T.R.1.  $X$X$X$X$X$X$X$X$X$X$X$X$X$X$X$X$X$X$X$X$X",
"$X$X$X$X$X$X$X$X$X$X$X$X$X$X$X$X$X$X$X$Xl R.T.;   V.T.P.; $X$X$X$X$X$X$X$X$X$X$X$X$X$X$X$X$X$X$X$X$X",
"$X$X$X$X$X$X$X$X$X$X$X$X$X$X$X$X$X$X$XO D.!.f.$X$Xf T.T.z.. $X$X$X$X$X$X$X$X$X$X$X$X$X$X$X$X$X$X$X$X",
"$X$X$X$X$X$X$X$X$X$X$X$X$X$X$X$X$X$X$X+.R.T.: $X$X. l.T.T.1 $X$X$X$X$X$X$X$X$X$X$X$X$X$X$X$X$X$X$X$X",
"$X$X$X$X$X$X$X$X$X$X$X$X$X$X$X$X$X$X+ L.!.g.  $X$X$X< T.T.l.. $X$X$X$X$X$X$X$X$X$X$X$X$X$X$X$X$X$X$X",
"$X$X$X$X$X$X$X$X$X$X$X$X$X$X$X$X$X$X>.!.P.& $X$X$X$X  h.R.T.k $X$X$X$X$X$X$X$X$X$X$X$X$X$X$X$X$X$X$X",
"$X$X$X$X$X$X$X$X$X$X$X$X$X$X$X$X$X@ P.^.2.  $X$X$X$X$X- P.T.B.O $X$X$X$X$X$X$X$X$X$X$X$X$X$X$X$X$X$X",
"$X$X$X$X$X$X$X$X$X$X$X$X$X$X$X$X$XO 3.m.$ $X$X$X$X$X$X  <.R.R.j $X$X$X$X$X$X$X$X$X$X$X$X$X$X$X$X$X$X",
"$X$X$X$X$X$X$X$X$X$X$X$X$X$X$X$X$X$Xo O $X$X$X$X$X$X$X$XO C.^.f $X$X$X$X$X$X$X$X$X$X$X$X$X$X$X$X$X$X"
};
