/* XPM */
static char *result[] = {
/* columns rows colors chars-per-pixel */
"50 50 190 2 ",
"   c #1A0300",
".  c #1A0C02",
"X  c #1B0D0B",
"o  c #1A120C",
"O  c #1A1207",
"+  c #1A1613",
"@  c #1A1916",
"#  c #1A1C1D",
"$  c #1A1618",
"%  c #1A1D22",
"&  c #3C1F34",
"*  c #1A2123",
"=  c #1A232A",
"-  c #1A2734",
";  c #1A2935",
":  c #1A2D3D",
">  c #253235",
",  c #07115D",
"<  c #170657",
"1  c #193244",
"2  c #19354B",
"3  c #19384D",
"4  c #192352",
"5  c #193552",
"6  c #193E5D",
"7  c #282559",
"8  c #312C47",
"9  c #050465",
"0  c #191669",
"q  c #090078",
"w  c #160076",
"e  c #19177A",
"r  c #261D6C",
"t  c #271C73",
"y  c #24187D",
"u  c #232164",
"i  c #292167",
"p  c #462658",
"a  c #451F79",
"s  c #52187B",
"d  c #52217A",
"f  c #194464",
"g  c #19456B",
"h  c #194B6E",
"j  c #194B75",
"k  c #194D7C",
"l  c #19527D",
"z  c #165679",
"x  c #02028C",
"c  c #0C028C",
"v  c #090084",
"b  c #161585",
"n  c #19118B",
"m  c #030194",
"M  c #06009D",
"N  c #0C0399",
"B  c #0C0797",
"V  c #1B0D96",
"C  c #1D0B9C",
"Z  c #150D9A",
"A  c #121396",
"S  c #241683",
"D  c #240F92",
"F  c #21089B",
"G  c #123C95",
"H  c #203583",
"J  c #272791",
"K  c #0400A3",
"L  c #0A08A4",
"P  c #0201AE",
"I  c #0A02AC",
"U  c #0808AA",
"Y  c #1A06AE",
"T  c #131EA7",
"R  c #0401B4",
"E  c #0200BB",
"W  c #1A02B4",
"Q  c #1700BF",
"!  c #2008A5",
"~  c #1226A2",
"^  c #183AA3",
"/  c #143EB2",
"(  c #541487",
")  c #63118E",
"_  c #6406B2",
"`  c #19558B",
"'  c #1B5A87",
"]  c #195A93",
"[  c #195D9C",
"{  c #234486",
"}  c #186099",
"|  c #1B4DA9",
" . c #195BA0",
".. c #1A50AE",
"X. c #1244B4",
"o. c #1859BB",
"O. c #1865A5",
"+. c #1A64AC",
"@. c #196DAD",
"#. c #186CB3",
"$. c #186EBC",
"%. c #1873BF",
"&. c #1870B6",
"*. c #0867AD",
"=. c #2175BC",
"-. c #2573A4",
";. c #574B89",
":. c #7D729E",
">. c #5A58A1",
",. c #6244A2",
"<. c #7F7DBD",
"1. c #0100C2",
"2. c #0000CB",
"3. c #1600C4",
"4. c #1500CC",
"5. c #1800C1",
"6. c #0000D1",
"7. c #0B00D9",
"8. c #1200D3",
"9. c #1100DC",
"0. c #0D00EE",
"q. c #7200C3",
"w. c #1B6CC3",
"e. c #1C67C3",
"r. c #0A74C0",
"t. c #1974CA",
"y. c #1A7ACC",
"u. c #1872C1",
"i. c #187DD3",
"p. c #1978D5",
"a. c #227EC5",
"s. c #177FE0",
"d. c #007EFD",
"f. c #8407BC",
"g. c #6BA89A",
"h. c #7F82B2",
"j. c #7D98BF",
"k. c #6BA6AF",
"l. c #1E89D3",
"z. c #1783DD",
"x. c #1782C3",
"c. c #2286C7",
"v. c #1783E3",
"b. c #178AE0",
"n. c #1787EE",
"m. c #1789E9",
"M. c #1791EB",
"N. c #058AFF",
"B. c #0B8CF8",
"V. c #178FFF",
"C. c #188FFF",
"Z. c #178AF3",
"A. c #0692FE",
"S. c #1693FE",
"D. c #1A92FF",
"F. c #179BFF",
"G. c #1899F9",
"H. c #2C99ED",
"J. c #288BE3",
"K. c #19AAEC",
"L. c #0CA7FF",
"P. c #17A3FF",
"I. c #19A5FF",
"U. c #16AAFF",
"Y. c #19AAFF",
"T. c #16B4FF",
"R. c #1DB4FF",
"E. c #16BDFF",
"W. c #1CB9FF",
"Q. c #5BA8E2",
"!. c #4BB5EB",
"~. c #16C7FF",
"^. c #1DD1FE",
"/. c #20CDFF",
"(. c #21D2FF",
"). c #9B9BB1",
"_. c #8899BE",
"`. c #AEB1BC",
"'. c #C5C3B5",
"]. c #8B85C3",
"[. c #CFAEC2",
"{. c #C6BBE0",
"}. c #96CDE9",
"|. c #A4DAF9",
" X c #C4CCD6",
".X c #FEE1D8",
"XX c #FFF0DD",
"oX c #FFFFEF",
"OX c white",
"+X c None",
/* pixels */
"+X+X+X+X+X+X+X+X+X+X+X+X+X+X+X+X+X+X+X+X+X+X+X+X+X+X+X+X+X+X+X+X+X+X+X+X+X+X+X+X+X+X+X+X+X+X+X+X+X+X",
"+X+X+X+X+X+X+X+X+X+X+X+X+X+X+X+X+X+X+X+X+X+X+X+X+X+X+X+X+X+X+X+X+X+X+X+X+X+X+X+X+X+X+X+X+X+X+X+X+X+X",
"+X+X+X+X+X+X+X+X+X+X+X+X+X+X+X+X+X+X+X+X+X+X+X+X+X+X+X+X+X+X+X+X+X+X+X+X+X+X+X+X+X+X+X+X+X+X+X+X+X+X",
"+X+X+X+X+X+X+X+X+X+X+X+X+X+X+X+X+X+X+X+X+X+X+X+X+X+X+X+X+X+X+X+X+X+X+X+X+X+X+X+X+X+X+X+X+X+X+X+X+X+X",
"+X+X+X+X+X+X+X+X+X+X+X+X+X+X+X+X+X+X+X+X+X+X+X+X+X+X+X+X+X+X+X+X+X+X+X+X+X+X+X+X+X+X+X+X+X+X+X+X+X+X",
"+X+X+X+X+X+X+X+X+X+X+X+X+X+X+X+X+X+X+X+X+X+X+X+X+X+X+X+X+X+X+X+X+X+X+X+X+X+X+X+X+X+X+X+X+X+X+X+X+X+X",
"+X+X+X+X+X+X+X+X+X+X+X+X+X+X+X+X+X+X+X+X+X+X+X+X+X+X+X+X+X+X+X+X+X+X+X+X+X+X+X+X+X+X+X+X+X+X+X+X+X+X",
"+X+X+X+X+X+X+X+X+X+X+X+X+X+X+X+X+X+X+X+X+X+X+X+X+X+X+X+X+X+X+X+X+X+X+X+X+X+X+X+X+X+X+X+X+X+X+X+X+X+X",
"+X+X+X+X+X+X+X+X+X+X+X+X+X+X+X+X+X+X+X+X+X+X+X+X+X+X+X+X+X+X+X+X+X+X+X+X+X+X+X+X+X+X+X+X+X+X+X+X+X+X",
"+X+X+X+X+X+X+X+X+X+X+X+X+X+X+X+X+X+X+X+X+X+X+X+X+X+X+X+X+X+X+X+X+X+X+X+X+X+X+X+X+X+X+X+X+X+X+X+X+X+X",
"+X+X+X+X+X+X+X+X+X+X+X+X+X+X+X+X+X+X+X+X+X+X+X+X0 e b b i +X+X+X+X+X+X+X+X+X+X+X+X+X+X+X+X+X+X+X+X+X",
"+X+X+X+X+X+X+X+X+X+X+X+X+X+X+X+X+XS Y 5.3.5.! V x E 6.2.2.R b +X+X+X+X+X+X+X+X+X+X+X+X+X+X+X+X+X+X+X",
"+X+X+X+X+X+X+X7 +X+X+X+X+X+X+X7 W 9.4.W W 5.7.I '.`.M E R 1.6.2.A +X+X+X+X+X+X+X+X+X+X+X+X+X+X+X+X+X",
"+X+X+X+X+X+XY 0.9.Y t +X+X+XS 8.9.C D C C V x ;.OXoXx E R R R R 2.2.7 +X+X+X+X+X+X+X+X+X+X+X+X+X+X+X",
"+X+X+X+X+XD 4.r y 4.8.W C W 9.3.i u U R P L m J ).>.P 1.E E E E R 1.2.8 +X+X+X+X+X+X+X+X+X+X+X+X+X+X",
"+X+X+X+X7 C +X+X+XF 4.3.3.4.Y S u R 1.R R E 1.E m R R Z Z L U R 2.E 2.L +X+X+X+X+X+X+X+X+X+X+X+X+X+X",
"+X+X+X+X7 +X+Xt 8.e i 5.4.C b S U 1.E K P E E E 2.L b U K w 0 , 9 M 1.2.7 +X+X+X+X+X+X+X+X+X+X+X+X+X",
"+X+X+X+X+X+Xi 3.i p +X> 4 8 ( D E E M | ^ c N M A b E m H @.*.k.g.G N 6.n +X+X+X+X+X+X+X+X+X+X+X+X+X",
"+X+X+X+X+X+Xt +X+Xs _ ) ) q.f.F E m +.(.R.t...a.{ R B -.K.A.|.{.<.!.r.T < +X+X+X+X+X+X+X+X+X+X+X+X+X",
"+X+X+X+X+X+X+X+X+X+X+X( ( d & 4 / =.a.X.p.W./.a.K c c.T.N.Q..Xq w h.R.K.' +X+X+X+X+X+X+X+X+X+X+X+X+X",
"+X+X+X+X+X+X+X+X+X+X+X+X+X+X+Xz ^.e.q v v ~ ^ M c c.U.V.d.}.[.9 ].:.H.L.Z.+ +X+X+X+X+X+X+X+X+X+X+X+X",
"+X+X+X+X+X+X+X+X+X+X+X+X+X+X+X%.Y.G o.c.o.c m c =.U.V.V.N.J.XX,.a j.A.F.S.; +X+X+X+X+X+X+X+X+X+X+X+X",
"+X+X+X+X+X+X+X+X+X+X+X+X+X+X+Xt.F.F.I.P.Y.l.| e.Y.S.V.V.C.d.Q. X_.H.N.D.S.1 +X+X+X+X+X+X+X+X+X+X+X+X",
"+X+X+X+X+X+X+X+X+X+X+X+X+X+X+Xu.I.C.C.C.C.G.Y.P.V.V.V.V.C.D.d.B.S.N.D.F.S.: +X+X+X+X+X+X+X+X+X+X+X+X",
"+X+X+X+X+X+X+X+X+X+X+X+X+X+X+X[ I.V.V.V.V.V.V.V.V.V.V.V.V.V.S.V.V.V.V.S.Z.* +X+X+X+X+X+X+X+X+X+X+X+X",
"+X+X+X+X+X+X+X+X+X+X+X+X+X+X+Xg I.V.V.V.V.V.V.V.V.V.V.V.V.S.P.S.V.V.V.P.t.. +X+X+X+X+X+X+X+X+X+X+X+X",
"+X+X+X+X+X+X+X+X+X+X+X+X+X+X+X* S.F.V.V.S.V.V.V.V.V.V.S.F.t.5 S.U.F.S.T.k +X+X+X+X+X+X+X+X+X+X+X+X+X",
"+X+X+X+X+X+X+X+X+X+X+X+X+X+X+X+X[ U.V.V.V.V.S.V.V.V.V.V.F.b.= $ ' z.M.y.# +X+X+X+X+X+X+X+X+X+X+X+X+X",
"+X+X+X+X+X+X+X+X+X+X+X+X+X+X+X+Xo m.I.V.V.V.V.V.V.V.V.V.V.S.P.` = = 1 + +X+X+X+X+X+X+X+X+X+X+X+X+X+X",
"+X+X+X+X+X+X+X+X+X+X+X+X+X+X+X+X+X= F.P.V.V.V.V.V.V.V.V.V.V.S.P.P.F.j . +X+X+X+X+X+X+X+X+X+X+X+X+X+X",
"+X+X+X+X+X+X+X+X+X+X+X+X+X+X+X+X+X+X: G.U.S.V.S.V.V.V.V.V.V.V.F.U.O.o +X+X+X+X+X+X+X+X+X+X+X+X+X+X+X",
"+X+X+X+X+X+X+X+X+X+X+X+X+X+X+X+X+X+X+X% @.P.I.F.S.D.S.S.F.U.U.z.6   +X+X+X+X+X+X+X+X+X+X+X+X+X+X+X+X",
"+X+X+X+X+X+X+X+X+X+X+X+X+X+X+X+X+X+X+X+X. : j &.S.F.S.m.z.%.h + +X+X+X+X+X+X+X+X+X+X+X+X+X+X+X+X+X+X",
"+X+X+X+X+X+X+X+X+X+X+X+X+X+X+X+X+X+X+X+X+X+ l f * 1 k f *   +X+X+X+X+X+X+X+X+X+X+X+X+X+X+X+X+X+X+X+X",
"+X+X+X+X+X+X+X+X+X+X+X+X+X+X+X+X+X+X+X+X+X' ~.y.3 ; ` K.[ +X+X+X+X+X+X+X+X+X+X+X+X+X+X+X+X+X+X+X+X+X",
"+X+X+X+X+X+X+X+X+X+X+X+X+X+X+X+X+X+X+X+Xo p.T.g $.s.3 U.I.: +X+X+X+X+X+X+X+X+X+X+X+X+X+X+X+X+X+X+X+X",
"+X+X+X+X+X+X+X+X+X+X+X+X+X+X+X+X+X+X+X+X2 P.S.* $.T.2 [ E.t.  +X+X+X+X+X+X+X+X+X+X+X+X+X+X+X+X+X+X+X",
"+X+X+X+X+X+X+X+X+X+X+X+X+X+X+X+X+X+X+X+X[ E.t.  +.T.u.1 F.P.6 +X+X+X+X+X+X+X+X+X+X+X+X+X+X+X+X+X+X+X",
"+X+X+X+X+X+X+X+X+X+X+X+X+X+X+X+X+X+X+X# S.E.j   ] U.F.= [ E.v.o +X+X+X+X+X+X+X+X+X+X+X+X+X+X+X+X+X+X",
"+X+X+X+X+X+X+X+X+X+X+X+X+X+X+X+X+X+X+Xo $.y.o X j P.P.1 + P.p.o +X+X+X+X+X+X+X+X+X+X+X+X+X+X+X+X+X+X",
"+X+X+X+X+X+X+X+X+X+X+X+X+X+X+X+X+X+X+XO ; 2 #.t.g F.F.`   ; # +X+X+X+X+X+X+X+X+X+X+X+X+X+X+X+X+X+X+X",
"+X+X+X+X+X+X+X+X+X+X+X+X+X+X+X+Xo 3 ] i.S.S.U.V.f Z.U.] +X+X+X+X+X+X+X+X+X+X+X+X+X+X+X+X+X+X+X+X+X+X",
"+X+X+X+X+X+X+X+X+X+X+X+X+X+X+XX +.U.I.F.F.U.I.m.2 s.Y.#.+X+X+X+X+X+X+X+X+X+X+X+X+X+X+X+X+X+X+X+X+X+X",
"+X+X+X+X+X+X+X+X+X+X+X+X+X+X+X+ F.T.I.P.z.O.f # + v.Y.y.O +X+X+X+X+X+X+X+X+X+X+X+X+X+X+X+X+X+X+X+X+X",
"+X+X+X+X+X+X+X+X+X+X+X+X+X+X+X+Xj x.[ 3 @ +X+X+X+Xi.U.s.@ +X+X+X+X+X+X+X+X+X+X+X+X+X+X+X+X+X+X+X+X+X",
"+X+X+X+X+X+X+X+X+X+X+X+X+X+X+X+X+X. +X+X+X+X+X+X+X$.U.Z.= +X+X+X+X+X+X+X+X+X+X+X+X+X+X+X+X+X+X+X+X+X",
"+X+X+X+X+X+X+X+X+X+X+X+X+X+X+X+X+X+X+X+X+X+X+X+X+X[ U.S.2 +X+X+X+X+X+X+X+X+X+X+X+X+X+X+X+X+X+X+X+X+X",
"+X+X+X+X+X+X+X+X+X+X+X+X+X+X+X+X+X+X+X+X+X+X+X+X+Xl U.U.g +X+X+X+X+X+X+X+X+X+X+X+X+X+X+X+X+X+X+X+X+X",
"+X+X+X+X+X+X+X+X+X+X+X+X+X+X+X+X+X+X+X+X+X+X+X+X+X; F.F.- +X+X+X+X+X+X+X+X+X+X+X+X+X+X+X+X+X+X+X+X+X",
"+X+X+X+X+X+X+X+X+X+X+X+X+X+X+X+X+X+X+X+X+X+X+X+X+X+X+X+X+X+X+X+X+X+X+X+X+X+X+X+X+X+X+X+X+X+X+X+X+X+X"
};
