/* XPM */
static char *result[] = {
/* columns rows colors chars-per-pixel */
"50 50 224 2 ",
"   c #1B0200",
".  c #160A06",
"X  c #1F1B00",
"o  c #1A130C",
"O  c #1A1513",
"+  c #1A1915",
"@  c #191C1C",
"#  c #0A0A0E",
"$  c #220A11",
"%  c #1A1D23",
"&  c #151720",
"*  c #182028",
"=  c #1A2A38",
"-  c #151048",
";  c #201B45",
":  c #192F47",
">  c #19334C",
",  c #1A3243",
"<  c #193955",
"1  c #193D5B",
"2  c #173957",
"3  c #172155",
"4  c #2F2C46",
"5  c #2B245C",
"6  c #2B2654",
"7  c #22395D",
"8  c #07046D",
"9  c #150065",
"0  c #1E1D6E",
"q  c #180876",
"w  c #1A177B",
"e  c #0E1E63",
"r  c #21006B",
"t  c #271D6E",
"y  c #21116F",
"u  c #261B73",
"i  c #24197B",
"p  c #271A79",
"a  c #210B7D",
"s  c #1B3C62",
"d  c #1B2070",
"f  c #282364",
"g  c #28247A",
"h  c #2E366E",
"j  c #43187D",
"k  c #431876",
"l  c #441269",
"z  c #600078",
"x  c #442B71",
"c  c #19425D",
"v  c #194365",
"b  c #18446B",
"n  c #194B72",
"m  c #194C79",
"M  c #194772",
"N  c #19517B",
"B  c #195167",
"V  c #00008A",
"C  c #180189",
"Z  c #14118B",
"A  c #02009C",
"S  c #0D059B",
"D  c #1B0D9B",
"F  c #180C95",
"G  c #091780",
"H  c #231584",
"J  c #22138C",
"K  c #261A88",
"L  c #250995",
"P  c #310899",
"I  c #360F81",
"U  c #1E329D",
"Y  c #0503AD",
"T  c #0805A7",
"R  c #1401AB",
"E  c #1C05AC",
"W  c #1807A3",
"Q  c #0500B4",
"!  c #0100BC",
"~  c #0C00B0",
"^  c #1901B2",
"/  c #1500BC",
"(  c #1902BC",
")  c #1502B4",
"_  c #0F17B2",
"`  c #2309A5",
"'  c #3F08A6",
"]  c #2214AD",
"[  c #1036AD",
"{  c #2037A2",
"}  c #292BB0",
"|  c #590B8D",
" . c #470897",
".. c #580D96",
"X. c #720F8F",
"o. c #680D94",
"O. c #690A89",
"+. c #552B8C",
"@. c #531DA7",
"#. c #7502AD",
"$. c #6609B2",
"%. c #195384",
"&. c #19558C",
"*. c #195A8E",
"=. c #135E93",
"-. c #17659B",
";. c #0B7094",
":. c #1954A6",
">. c #2056AF",
",. c #2054BA",
"<. c #2641B8",
"1. c #1864A8",
"2. c #186DB5",
"3. c #1A6DBA",
"4. c #1572AF",
"5. c #236CAC",
"6. c #47458F",
"7. c #695197",
"8. c #756293",
"9. c #4C49A4",
"0. c #566CAA",
"q. c #0000C4",
"w. c #0000CD",
"e. c #0F00C6",
"r. c #1500C5",
"t. c #1400CC",
"y. c #1C03C3",
"u. c #0000D0",
"i. c #0D00D4",
"p. c #1300D3",
"a. c #1100DB",
"s. c #163BCC",
"d. c #0F00E5",
"f. c #1100E0",
"g. c #0D00F5",
"h. c #7B00C6",
"j. c #7A00D6",
"k. c #1257CD",
"l. c #365FD1",
"z. c #086FCF",
"x. c #1778C5",
"c. c #0A6DD2",
"v. c #187AD3",
"b. c #177DDB",
"n. c #1678D5",
"m. c #1F69CD",
"M. c #287CD4",
"N. c #057EFF",
"B. c #147CE2",
"V. c #6254CD",
"C. c #8405AA",
"Z. c #956BA6",
"A. c #8300CE",
"S. c #1683B7",
"D. c #7B84B4",
"F. c #1A83DA",
"G. c #288AD6",
"H. c #3C9FD0",
"J. c #2C86CC",
"K. c #1682E5",
"L. c #178AEB",
"P. c #1796E9",
"I. c #0181FD",
"U. c #048CFF",
"Y. c #0B8DFF",
"T. c #0B85FF",
"R. c #168EFF",
"E. c #188FFD",
"W. c #178AF3",
"Q. c #0B93FF",
"!. c #059BFF",
"~. c #0392FF",
"^. c #1692FE",
"/. c #1A93FE",
"(. c #169BFF",
"). c #1795F4",
"_. c #088EE1",
"`. c #248BE8",
"'. c #3898E7",
"]. c #2598F8",
"[. c #2993EB",
"{. c #00A4FF",
"}. c #08A5F9",
"|. c #17A3FF",
" X c #16ABFF",
".X c #19A6FD",
"XX c #0ABBFD",
"oX c #15BBFF",
"OX c #1AB7FD",
"+X c #2CA3FF",
"@X c #37A8FA",
"#X c #35B9FF",
"$X c #468FD3",
"%X c #789BC8",
"&X c #4AA6D3",
"*X c #7AAED9",
"=X c #16C3FF",
"-X c #16CAFF",
";X c #30C7FF",
":X c #57D7FF",
">X c #4FC8FF",
",X c #64D3FF",
"<X c #6AD9FC",
"1X c #A28AAA",
"2X c #B292B8",
"3X c #BEBDA1",
"4X c #B3A4B5",
"5X c #B6C1B2",
"6X c #80B2DE",
"7X c #99ABC7",
"8X c #ACBBC0",
"9X c #AEA7EA",
"0X c #94D8D9",
"qX c #BAC6D7",
"wX c #AAC8DA",
"eX c #88F4FF",
"rX c #ABFFFF",
"tX c #BAFFFF",
"yX c #FFFFC9",
"uX c #D2E6E6",
"iX c #EBEAE4",
"pX c #FFFFE2",
"aX c #E0F5F1",
"sX c None",
/* pixels */
"sXsXsXsXsXsXsXsXsXsXsXsXsXsXsXsXsXsXsXsXsXsXsXsXsXsXsXsXsXsXsXsXsXsXsXsXsXsXsXsXsXsXsXsXsXsXsXsXsXsX",
"sXsXsXsXsXsXsXsXsXsXsXsXsXsXsXsXsXsXsXsXsXsXsXsXsXsXsXsXsXsXsXsXsXsXsXsXsXsXsXsXsXsXsXsXsXsXsXsXsXsX",
"sXsXsXsXsXsXsXsXsXsXsXsXsXsXsXsXsXsXsXsXsXsXsXsXsXsXsXsXsXsXsXsXsXsXsXsXsXsXsXsXsXsXsXsXsXsXsXsXsXsX",
"sXsXsXsXsXsXsXsXsXsXsXsXsXsXsXsXsXsXsXsXsXsXsXsXsXsXsXsXsXsXsXsXsXsXsXsXsXsXsXsXsXsXsXsXsXsXsXsXsXsX",
"sXsXsXsXsXsXsXsXsXsXsXsXsXsXsXsXsXsXsXsXsXsXsXsXsXsXsXsXsXsXsXsXsXsXsXsXsXsXsXsXsXsXsXsXsXsXsXsXsXsX",
"sXsXsXsXsXsXsXsXsXsXsXsXsXsXsXsXsXsXsXsXsXsXsXsXsXsXsXsXsXsXsXsXsXsXsXsXsXsXsXsXsXsXsXsXsXsXsXsXsXsX",
"sXsXsXsXsXsXsXsXsXsXsXsXsXsXsXsXsXsXsXsXsXsXsXsXsXsXsXsXsXsXsXsXsXsXsXsXsXsXsXsXsXsXsXsXsXsXsXsXsXsX",
"sXsXsXsXsXsXsXsXsXsXsXsXsXsXsXsXsXsXsXsXsXsXsXsXsXsXsXsXsXsXsXsXsXsXsXsXsXsXsXsXsXsXsXsXsXsXsXsXsXsX",
"sXsXsXsXsXsXsXsXsXsXsXsXsXsXsXsXsXsXsXsXsXsXsXsXsXsXsXsXsXsXsXsXsXsXsXsXsXsXsXsXsXsXsXsXsXsXsXsXsXsX",
"sXsXsXsXsXsXsXsXsXsXsXsXsXsXsXsXsXsXsXsXsXsXsXsXsXsXsXsXsXsXsXsXsXsXsXsXsXsXsXsXsXsXsXsXsXsXsXsXsXsX",
"sXsXsXsXsXsXsXsXsXsXsXsXsXsXsXsXsXsXsXsX0 w 6 sXsXsXsX0 Z Z f sXsXsXsXsXsXsXsXsXsXsXsXsXsXsXsXsXsXsX",
"sXsXsXsXsXsXsXsXsXsXsXsXi ^ ( q sXsXf ! u.u.q.T F S Q w.w.w.w.T sXsXsX; u 5 sXsXsXsXsXsXsXsXsXsXsXsX",
"sXsXsXsXsXsXsXsXsXsXsXi a.t.w.V.pX6.! q.Q Q Q q.q.q.! Q Q Q Q w.! ; yX9X! p.H sXsXsXsXsXsXsXsXsXsXsX",
"sXsXsXsXsXsXsXsXsXsX6 t.r.( - sXiX_ ! Q Q Q Q Q Q Q Q Q Q ! ! ! q.! qX3XT t.p.t sXsXsXsXsXsXsXsXsXsX",
"sXsXsXsXsXsXsXsXsXsXD p.t.f sXsXA Y T Q ! q.Q Q Q Q Q q.Y F P P P ` V sXsXr.t.( sXsXsXsXsXsXsXsXsXsX",
"sXsXsXsXsXsXsXsXsXsX( t.J sXsXw Q W W C C S Q q.! Q e.T g O.o.o.X.C.' e sXH t.p.i sXsXsXsXsXsXsXsXsX",
"sXsXsXsXsXsXsXsXsXf t.t.5 sX4 E ( / D { { g y q A q.C l  .P L P ] ..A. .sXsXr.t.E sXsXsXsXsXsXsXsXsX",
"sXsXsXsXsXsXsXsXsXK p.^ sXsXi i./ F J. X|.).G.5.:.0 h } s.k.k.<.y.` #.$.sXsXJ t.r.6 sXsXsXsXsXsXsXsX",
"sXsXsXsXsXsXsXsXsXJ a.W sXsXD e.R U OXU.N.~.!..X(.G.).(.}.{.{.XX<.^  .j.x sXu t.t.u sXsXsXsXsXsXsXsX",
"sXsXsXsXsXsXsXsXsXJ a.` sXsXW r.R { !.`.wX7X'.I.^.^.(.U.'.%X*X X1.) ' h.| sX6 r.t.H sXsXsXsXsXsXsXsX",
"sXsXsXsXsXsXsXsXsXp a.E sXsXy p.R U _.uX2X9 8.@XU.R.Y.@X7.9 Z.0X[ ~  .h.$.sXsXy.t.J sXsXsXsXsXsXsXsX",
"sXsXsXsXsXsXsXsXsXsXr.t.sXsXs ( q._ H.iX8 9.1X$XU.R.U.$X4X9.8 5X} F o.j.| sXsX( p.H sXsXsXsXsXsXsXsX",
"sXsXsXsXsXsXsXsXsXsXt g.K sXS.,.T R x.aXZ.I 1X'.U.^.Y.[.4X+.7.8XG | h.$.7 sXsXy.p.f sXsXsXsXsXsXsXsX",
"sXsXsXsXsXsXsXsXsXsXsXu y.$ ;.=XU C z.+XwXD.G.^.^.R.R.R.`.0.*X[.1 | #.M.;.sXg f.( sXsXsXsXsXsXsXsXsX",
"sXsXsXsXsXsXsXsXsXsXsXsXg 9 B oXF.q m.!.I.(.U.R.R.R.R.R.Y.Q.U.~.4.O.@.XX2 sX] d.5 sXsXsXsXsXsXsXsXsX",
"sXsXsXsXsXsXsXsXsXsXsXsXsXa 3 ^. Xh >.|.R.^.^.R.R.R.R.^./.^.R.(.P.z l.}.X sXt.6 sXsXsXsXsXsXsXsXsXsX",
"sXsXsXsXsXsXsXsXsXsXsXsXsXK $ -.oX5.5.(.R.R.^.R.^.R./.(.^.^.R.^.^.x `.=.sX] sXsXsXsXsXsXsXsXsXsXsXsX",
"sXsXsXsXsXsXsXsXsXsXsXsXL 5 sX% ).|.L.^.R.R.(..X|..X|.< > (.^.R.(.).3.X a K sXsXsXsXsXsXsXsXsXsXsXsX",
"sXsXsXsXsXsXsXsXsXsXsX5 f sXsXsX>  X|.R.^.(.1.&.1.M @ @ x./.^.R..X X% sX] sXsXsXsXsXsXsXsXsXsXsXsXsX",
"sXsXsXsXsXsXsXsXsXsXsXsXsXsXsXsXsX> ^. X/.(.m % = > -.(.(.R.(..XL.* sXsXJ i sXsXsXsXsXsXsXsXsXsXsXsX",
"sXsXsXsXsXsXsXsXsXsXsXsXsXsXsXsXsXsXO &.^..X X|.(..X.X(.|..XL.%.O sXsXsXsXJ 4 sXsXsXsXsXsXsXsXsXsXsX",
"sXsXsXsXsXsXsXsXsXsXsXsXsXsXsXsXsXsX% v 1 m 1.B.R.^.W.n.1.b 1 O sXsXsXsXsXsXsXsXsXsXsXsXsXsXsXsXsXsX",
"sXsXsXsXsXsXsXsXsXsXsXsXsXsXsXsXsXsXN =X3.2 M v 1 1 v v 1 -.|.3.  sXsXsXsXsXsXsXsXsXsXsXsXsXsXsXsXsX",
"sXsXsXsXsXsXsXsXsXsXsXsXsXsXsXsXsXo F.OX%.1.;X<XB.n.K.Q..Xx.W. Xc sXsXsXsXsXsXsXsXsXsXsXsXsXsXsXsXsX",
"sXsXsXsXsXsXsXsXsXsXsXsXsXsXsXsXsXc .X^.& 2.#X+XN.^.(.R.(.> n oXL.O sXsXsXsXsXsXsXsXsXsXsXsXsXsXsXsX",
"sXsXsXsXsXsXsXsXsXsXsXsXsXsXsXsX  1.=X-.. G.#X].,X^.R.R. Xs   L.oX*.sXsXsXsXsXsXsXsXsXsXsXsXsXsXsXsX",
"sXsXsXsXsXsXsXsXsXsXsXsXsXsXsXsX= |. X:   n.I.#XeX/.R.R.|.m   v  X.X< sXsXsXsXsXsXsXsXsXsXsXsXsXsXsX",
"sXsXsXsXsXsXsXsXsXsXsXsXsXsXsXsXn -Xv.sXsXc.:XeXR.N.^.R.(.m sXsX2.=Xm sXsXsXsXsXsXsXsXsXsXsXsXsXsXsX",
"sXsXsXsXsXsXsXsXsXsXsXsXsXsXsXsX* %.: sXsXk.>XrX>XR.T.^.|.m sXsX* < + sXsXsXsXsXsXsXsXsXsXsXsXsXsXsX",
"sXsXsXsXsXsXsXsXsXsXsXsXsXsXsXsXsXsXsXsX# &X:X/.,X@XT.R.|.m sXsXsXsXsXsXsXsXsXsXsXsXsXsXsXsXsXsXsXsX",
"sXsXsXsXsXsXsXsXsXsXsXsXsXsXsXsXsXsXsXsX# 0XtX/.N.R.R.^.|.m sXsXsXsXsXsXsXsXsXsXsXsXsXsXsXsXsXsXsXsX",
"sXsXsXsXsXsXsXsXsXsXsXsXsXsXsXsXsXsXsXsX# J.#XR.(. X(.R.|.m sXsXsXsXsXsXsXsXsXsXsXsXsXsXsXsXsXsXsXsX",
"sXsXsXsXsXsXsXsXsXsXsXsXsXsXsXsXsXsXsXsXo c.Q./.2.m b./.|.m sXsXsXsXsXsXsXsXsXsXsXsXsXsXsXsXsXsXsXsX",
"sXsXsXsXsXsXsXsXsXsXsXsXsXsXsXsXsXsXsXsXo v. XK.. sX1 |.|.m sXsXsXsXsXsXsXsXsXsXsXsXsXsXsXsXsXsXsXsX",
"sXsXsXsXsXsXsXsXsXsXsXsXsXsXsXsXsXsXsXsXo v. Xb.o sX< (.|.m sXsXsXsXsXsXsXsXsXsXsXsXsXsXsXsXsXsXsXsX",
"sXsXsXsXsXsXsXsXsXsXsXsXsXsXsXsXsXsXsXsXo v. Xb.+ sX1 |.|.m sXsXsXsXsXsXsXsXsXsXsXsXsXsXsXsXsXsXsXsX",
"sXsXsXsXsXsXsXsXsXsXsXsXsXsXsXsXsXsXsXsXo v. XF.+ sX1 (.|.m sXsXsXsXsXsXsXsXsXsXsXsXsXsXsXsXsXsXsXsX",
"sXsXsXsXsXsXsXsXsXsXsXsXsXsXsXsXsXsXsXsXo F. XF.+ sXc .X XN sXsXsXsXsXsXsXsXsXsXsXsXsXsXsXsXsXsXsXsX",
"sXsXsXsXsXsXsXsXsXsXsXsXsXsXsXsXsXsXsXsX. 2.=Xx.sXsX4  X X1 sXsXsXsXsXsXsXsXsXsXsXsXsXsXsXsXsXsXsXsX",
"sXsXsXsXsXsXsXsXsXsXsXsXsXsXsXsXsXsXsXsXsX* n * sXsXsX< 1 sXsXsXsXsXsXsXsXsXsXsXsXsXsXsXsXsXsXsXsXsX"
};
