/* XPM */
static char *result[] = {
/* columns rows colors chars-per-pixel */
"50 50 191 2 ",
"   c #1A0300",
".  c #1A0C03",
"X  c #1A140E",
"o  c #1A1106",
"O  c #1A1312",
"+  c #1A1914",
"@  c #1A161A",
"#  c #1A1C1C",
"$  c #1B1422",
"%  c #1A222A",
"&  c #1A2022",
"*  c #1B2534",
"=  c #1A2C3B",
"-  c #061957",
";  c #1C2B46",
":  c #193245",
">  c #19344B",
",  c #193848",
"<  c #193653",
"1  c #193D54",
"2  c #193E5C",
"3  c #1A3459",
"4  c #2D294E",
"5  c #292557",
"6  c #000068",
"7  c #1A0269",
"8  c #1F1E6C",
"9  c #00007D",
"0  c #14007A",
"q  c #1A1876",
"w  c #281E6B",
"e  c #231961",
"r  c #231B73",
"t  c #20157F",
"y  c #31177C",
"u  c #193D62",
"i  c #172370",
"p  c #222264",
"a  c #223576",
"s  c #4C2A4B",
"d  c #4B2261",
"f  c #582777",
"g  c #194062",
"h  c #19436B",
"j  c #194B69",
"k  c #194673",
"l  c #194B74",
"z  c #194A79",
"x  c #185277",
"c  c #05008C",
"v  c #120E8D",
"b  c #171287",
"n  c #0B029B",
"m  c #0C0A9E",
"M  c #060097",
"N  c #130D96",
"B  c #081997",
"V  c #111093",
"C  c #1E1098",
"Z  c #111C9B",
"A  c #1A1694",
"S  c #200A88",
"D  c #231583",
"F  c #22118C",
"G  c #200F93",
"H  c #211191",
"J  c #182484",
"K  c #24218E",
"L  c #0501A5",
"P  c #0C09A4",
"I  c #0301A9",
"U  c #0904AC",
"Y  c #0806A9",
"T  c #1E0AA4",
"R  c #1405AC",
"E  c #1C05AD",
"W  c #1A08A7",
"Q  c #161DA3",
"!  c #0400B4",
"~  c #0200BB",
"^  c #1700BC",
"/  c #1901BB",
"(  c #1B04B1",
")  c #2C06A9",
"_  c #1226A3",
"`  c #133AB5",
"'  c #5C1A8F",
"]  c #68148F",
"[  c #650F97",
"{  c #4A2B90",
"}  c #5A06AD",
"|  c #1C4A88",
" . c #195285",
".. c #195A8C",
"X. c #155987",
"o. c #185F9F",
"O. c #195892",
"+. c #18639F",
"@. c #186196",
"#. c #187296",
"$. c #185EA8",
"%. c #1A58B2",
"&. c #1147AF",
"*. c #1963A4",
"=. c #1865AB",
"-. c #1E66B5",
";. c #186DBA",
":. c #186BB7",
">. c #1E70B9",
",. c #2368A5",
"<. c #2372AA",
"1. c #684B9A",
"2. c #7976A4",
"3. c #6866A5",
"4. c #0000C2",
"5. c #0000CD",
"6. c #0F00CB",
"7. c #1400CB",
"8. c #1900C6",
"9. c #0000D3",
"0. c #0C00DF",
"q. c #0000D8",
"w. c #1300D3",
"e. c #1200DA",
"r. c #0D00E3",
"t. c #1B6DC3",
"y. c #1874C9",
"u. c #177BC9",
"i. c #1870C0",
"p. c #167ED3",
"a. c #187BD2",
"s. c #177EDE",
"d. c #187DDD",
"f. c #1A75D6",
"g. c #0979CA",
"h. c #007DF6",
"j. c #0077FC",
"k. c #2482B2",
"l. c #5C8BA2",
"z. c #7D8ABF",
"x. c #1A84DC",
"c. c #1790DF",
"v. c #1784E2",
"b. c #1786ED",
"n. c #178BED",
"m. c #1887E5",
"M. c #038AFF",
"N. c #0888FF",
"B. c #168BF6",
"V. c #178FFF",
"C. c #198FFF",
"Z. c #1787F0",
"A. c #0590FF",
"S. c #1791F3",
"D. c #1793FF",
"F. c #1994FF",
"G. c #179CFF",
"H. c #1B9BF7",
"J. c #2199F5",
"K. c #3C98E4",
"L. c #1AB0ED",
"P. c #09A7FF",
"I. c #16A4FF",
"U. c #1BA5FF",
"Y. c #16ABFF",
"T. c #1CABFD",
"R. c #16B3FF",
"E. c #16BCFF",
"W. c #1CB0FE",
"Q. c #699DD0",
"!. c #55ADCD",
"~. c #70A7D5",
"^. c #4AA0E3",
"/. c #15C9FF",
"(. c #17C4FF",
"). c #15D3FF",
"_. c #8A89AF",
"`. c #9A8BBE",
"'. c #A19AAE",
"]. c #BB98BF",
"[. c #80B2BA",
"{. c #9180C1",
"}. c #9DBBD4",
"|. c #E2BCCC",
" X c #A2D6EE",
".X c #BBE8F5",
"XX c #C2C4C3",
"oX c #FFEAD6",
"OX c #D7E6E9",
"+X c white",
"@X c None",
/* pixels */
"@X@X@X@X@X@X@X@X@X@X@X@X@X@X@X@X@X@X@X@X@X@X@X@X@X@X@X@X@X@X@X@X@X@X@X@X@X@X@X@X@X@X@X@X@X@X@X@X@X@X",
"@X@X@X@X@X@X@X@X@X@X@X@X@X@X@X@X@X@X@X@X@X@X@X@X@X@X@X@X@X@X@X@X@X@X@X@X@X@X@X@X@X@X@X@X@X@X@X@X@X@X",
"@X@X@X@X@X@X@X@X@X@X@X@X@X@X@X@X@X@X@X@X@X@X@X@X@X@X@X@X@X@X@X@X@X@X@X@X@X@X@X@X@X@X@X@X@X@X@X@X@X@X",
"@X@X@X@X@X@X@X@X@X@X@X@X@X@X@X@X@X@X@X@X@X@X@X@X@X@X@X@X@X@X@X@X@X@X@X@X@X@X@X@X@X@X@X@X@X@X@X@X@X@X",
"@X@X@X@X@X@X@X@X@X@X@X@X@X@X@X@X@X@X@X@X@X@X@X@X@X@X@X@X@X@X@X@X@X@X@X@X@X@X@X@X@X@X@X@X@X@X@X@X@X@X",
"@X@X@X@X@X@X@X@X@X@X@X@X@X@X@X@X@X@X@X@X@X@X@X@X@X@X@X@X@X@X@X@X@X@X@X@X@X@X@X@X@X@X@X@X@X@X@X@X@X@X",
"@X@X@X@X@X@X@X@X@X@X@X@X@X@X@X@X@X@X@X@X@X@X@X@X@X@X@X@X@X@X@X@X@X@X@X@X@X@X@X@X@X@X@X@X@X@X@X@X@X@X",
"@X@X@X@X@X@X@X@X@X@X@X@X@X@X@X@X@X@X@X@X@X@X@X@X@X@X@X@X@X@X@X@X@X@X@X@X@X@X@X@X@X@X@X@X@X@X@X@X@X@X",
"@X@X@X@X@X@X@X@X@X@X@X@X@X@X@X@X@X@X@X@X@X@X@X@X@X@X@X@X@X@X@X@X@X@X@X@X@X@X@X@X@X@X@X@X@X@X@X@X@X@X",
"@X@X@X@X@X@X@X@X@X@X@X@X@X@X@X@X@X@X@X@X@X@X@X@X@X@X@X@X@X@X@X@X@X@X@X@X@X@X@X@X@X@X@X@X@X@X@X@X@X@X",
"@X@X@X@X@X@X@X@X@X@X@X@X@X@X@X@X@X@X@X@X@X@X@X@X@X@X@X@X@X@X@X@X@X@X@X@X@X@X@X@X@X@X@X@X@X@X@X@X@X@X",
"@X@X@X@X@X@X@X@X@X@X@X@X@X@X@X@X@X@X@X@X@Xp b q q @X@X@X@X@X@X@X@X@X@X@X@X@X@X@X@X@X@X@X@X@X@X@X@X@X",
"@X@X@X@X@X@X@X@X@X@X@X@X@X@X@X@X@X@Xp N ~ 5.5.9.I c C C ( E H 4 @X@X@X@X@X@X@X@X@X@X@X@X@X@X@X@X@X@X",
"@X@X@X@X@X@X@X@X@X@X@X@X@X@X@X@Xp U 9.5.! ! ~ Q XX'.I ^ E E / w.H @X@X@X@Xp E E @X@X@X@X@X@X@X@X@X@X",
"@X@X@X@X@X@X@X@X@X@X@X@X@X@X@XV q.4.! ! ! ! ~ K +X+X8 m m P N F 8.7.F D 8.e.H H E @X@X@X@X@X@X@X@X@X",
"@X@X@X@X@X@X@X@X@X@X@X@X@X@Xb q.! ~ 4.~ ~ ~ 4.I 2._.Y 4.~ ~ 4.Y r H w.e./ 4 @X@X@Xp @X@X@X@X@X@X@X@X",
"@X@X@X@X@X@X@X@X@X@X@X@X@X5 9.~ ~ Y n n m N N ~ I M ~ ! ! ! ! 4.I 5 H G H D F r @X@X@X@X@X@X@X@X@X@X",
"@X@X@X@X@X@X@X@X@X@X@X@X@Xm 9.4.9 - i e 7 M U v Y 5.! ~ ~ L I ~ 4.m F ( ^ w.e.0.7.D @X@X@X@X@X@X@X@X",
"@X@X@X@X@X@X@X@X@X@X@X@X$ ~ I B l.[.a.g.<.a 0 M v A U I Q >.-.I 4.~ N R R W q D ) r.T @X@X@X@X@X@X@X",
"@X@X@X@X@X@X@X@X@X@X@X@X* _ &.!.3.`.OXF.P.H.k.&.M J ,.<.,.&.%.| n I S ' } } [ ] s @X7.D @X@X@X@X@X@X",
"@X@X@X@X@X@X@X@X@X@X@X@X*.L.T.z.{ 6 |. Xj.D.I.T.-.c L Z v Z Z a ,.%.; @X@Xd @X@X@X@X@XD @X@X@X@X@X@X",
"@X@X@X@X@X@X@X@X@X@X@X+ n.I.H.2.{.6 ]..Xj.D.V.V.W.t._ ` x.U.H.f.F.(...@X@X@X@X@X@X@X@X@X@X@X@X@X@X@X",
"@X@X@X@X@X@X@X@X@X@X@X= D.F.A.Q.f 1.oXK.M.V.V.V.C.U.U.I.G.V.F.G.D.I.:.. @X@X@X@X@X@X@X@X@X@X@X@X@X@X",
"@X@X@X@X@X@X@X@X@X@X@X> D.F.A.B.~.}.^.h.F.C.D.C.V.V.D.V.V.C.C.C.V.I.;.. @X@X@X@X@X@X@X@X@X@X@X@X@X@X",
"@X@X@X@X@X@X@X@X@X@X@X: F.D.C.V.M.h.M.F.C.V.V.V.V.V.V.V.V.V.V.V.V.I.;.. @X@X@X@X@X@X@X@X@X@X@X@X@X@X",
"@X@X@X@X@X@X@X@X@X@X@X& B.G.V.V.V.V.D.D.V.V.V.V.V.V.V.V.V.V.D.V.V.I.o.@X@X@X@X@X@X@X@X@X@X@X@X@X@X@X",
"@X@X@X@X@X@X@X@X@X@X@X. ;.I.C.F.V.G.D.B.D.V.V.V.V.V.V.V.V.V.V.V.C.I.g @X@X@X@X@X@X@X@X@X@X@X@X@X@X@X",
"@X@X@X@X@X@X@X@X@X@X@X@Xu R.I.I.Y.p.@ *.G.V.V.V.V.V.V.V.V.V.V.V.I.Z.X @X@X@X@X@X@X@X@X@X@X@X@X@X@X@X",
"@X@X@X@X@X@X@X@X@X@X@X@XX O.@.x , O u S.D.V.D.V.V.V.V.V.V.V.V.V.Y.h @X@X@X@X@X@X@X@X@X@X@X@X@X@X@X@X",
"@X@X@X@X@X@X@X@X@X@X@X@X@X  < 1 u a.Y.D.V.V.V.V.V.V.V.V.V.V.D.Y.;.  @X@X@X@X@X@X@X@X@X@X@X@X@X@X@X@X",
"@X@X@X@X@X@X@X@X@X@X@X@X@X@Xh R.E.G.V.V.V.V.V.V.V.V.V.V.V.D.Y.u.. @X@X@X@X@X@X@X@X@X@X@X@X@X@X@X@X@X",
"@X@X@X@X@X@X@X@X@X@X@X@X@X@X@X; m.Y.G.V.V.V.V.V.V.V.V.F.I.I.*.o @X@X@X@X@X@X@X@X@X@X@X@X@X@X@X@X@X@X",
"@X@X@X@X@X@X@X@X@X@X@X@X@X@X@X@XO ..n.I.I.I.G.G.G.I.I.G.u.1   @X@X@X@X@X@X@X@X@X@X@X@X@X@X@X@X@X@X@X",
"@X@X@X@X@X@X@X@X@X@X@X@X@X@X@X@X@X@X# j ..*.;.x.x.=.k : . @X@X@X@X@X@X@X@X@X@X@X@X@X@X@X@X@X@X@X@X@X",
"@X@X@X@X@X@X@X@X@X@X@X@X@X@X@X@X@X@X@X@XX j l +   > #.h @X@X@X@X@X@X@X@X@X@X@X@X@X@X@X@X@X@X@X@X@X@X",
"@X@X@X@X@X@X@X@X@X@X@X@X@X@X@X@X@X@X@X  y.(.y.> 3 k /.B.X @X@X@X@X@X@X@X@X@X@X@X@X@X@X@X@X@X@X@X@X@X",
"@X@X@X@X@X@X@X@X@X@X@X@X@X@X@X@X@X@X@X2 Y.G.: x.I.= s.Y.g @X@X@X@X@X@X@X@X@X@X@X@X@X@X@X@X@X@X@X@X@X",
"@X@X@X@X@X@X@X@X@X@X@X@X@X@X@X@X@X@X. v.E.$.  b.(.h z E.;.  @X@X@X@X@X@X@X@X@X@X@X@X@X@X@X@X@X@X@X@X",
"@X@X@X@X@X@X@X@X@X@X@X@X@X@X@X@X@X@XX.Y.B.>  .* I.a.: G.G.= @X@X@X@X@X@X@X@X@X@X@X@X@X@X@X@X@X@X@X@X",
"@X@X@X@X@X@X@X@X@X@X@X@X@X@X@X@X@X  a.).k u (. .< R.: t.E.< @X@X@X@X@X@X@X@X@X@X@X@X@X@X@X@X@X@X@X@X",
"@X@X@X@X@X@X@X@X@X@X@X@X@X@X@X@X@X@X: x % n.Y.s.  :.m.= 2 . @X@X@X@X@X@X@X@X@X@X@X@X@X@X@X@X@X@X@X@X",
"@X@X@X@X@X@X@X@X@X@X@X@X@X@X@X@X@X@X@X@Xh Y.Y. .@X. m.c.+.> @X@X@X@X@X@X@X@X@X@X@X@X@X@X@X@X@X@X@X@X",
"@X@X@X@X@X@X@X@X@X@X@X@X@X@X@X@X@X@X@X@X;.Y.F.= @X@X@ G.(.n.O @X@X@X@X@X@X@X@X@X@X@X@X@X@X@X@X@X@X@X",
"@X@X@X@X@X@X@X@X@X@X@X@X@X@X@X@X@X@X@X& B.I.s.o @X@X@X< I.Y.y.. @X@X@X@X@X@X@X@X@X@X@X@X@X@X@X@X@X@X",
"@X@X@X@X@X@X@X@X@X@X@X@X@X@X@X@X@X@X@Xu I.Y.O.@X@X@X@X@X .Y.R.o.@X@X@X@X@X@X@X@X@X@X@X@X@X@X@X@X@X@X",
"@X@X@X@X@X@X@X@X@X@X@X@X@X@X@X@X@X@X@X=.Y.G.> @X@X@X@X@X  =.E.o.@X@X@X@X@X@X@X@X@X@X@X@X@X@X@X@X@X@X",
"@X@X@X@X@X@X@X@X@X@X@X@X@X@X@X@X@X@X+ b.I.b.+ @X@X@X@X@X@XX : + @X@X@X@X@X@X@X@X@X@X@X@X@X@X@X@X@X@X",
"@X@X@X@X@X@X@X@X@X@X@X@X@X@X@X@X@X@X< G.R.=.@X@X@X@X@X@X@X@X@X@X@X@X@X@X@X@X@X@X@X@X@X@X@X@X@X@X@X@X",
"@X@X@X@X@X@X@X@X@X@X@X@X@X@X@X@X@X@X* I.G.% @X@X@X@X@X@X@X@X@X@X@X@X@X@X@X@X@X@X@X@X@X@X@X@X@X@X@X@X",
"@X@X@X@X@X@X@X@X@X@X@X@X@X@X@X@X@X@X@X@X@X@X@X@X@X@X@X@X@X@X@X@X@X@X@X@X@X@X@X@X@X@X@X@X@X@X@X@X@X@X"
};
