/* XPM */
static char *result[] = {
/* columns rows colors chars-per-pixel */
"50 50 223 2 ",
"   c #1A0200",
".  c #1A0D02",
"X  c #1B0D09",
"o  c #1C1305",
"O  c #1A1B1C",
"+  c #191415",
"@  c #220815",
"#  c #1D2200",
"$  c #111625",
"%  c #192B3C",
"&  c #182638",
"*  c #1A2026",
"=  c #30313A",
"-  c #090055",
";  c #1B1B51",
":  c #19344A",
">  c #193449",
",  c #193653",
"<  c #193A54",
"1  c #1A3D5B",
"2  c #13385D",
"3  c #2C2656",
"4  c #2A265A",
"5  c #312C51",
"6  c #050068",
"7  c #1B076A",
"8  c #160576",
"9  c #1A1975",
"0  c #0D1A67",
"q  c #21006E",
"w  c #291E6D",
"e  c #241F68",
"r  c #261B74",
"t  c #241574",
"y  c #220B74",
"u  c #1A3D62",
"i  c #113D6A",
"p  c #2A2265",
"a  c #2A216C",
"s  c #232260",
"d  c #243072",
"f  c #43167B",
"g  c #45126A",
"h  c #432D74",
"j  c #19465E",
"k  c #194264",
"l  c #18476B",
"z  c #194D7C",
"x  c #174873",
"c  c #17527E",
"v  c #224761",
"b  c #56547F",
"n  c #848662",
"m  c #00008F",
"M  c #16038A",
"N  c #151289",
"B  c #02009F",
"V  c #070096",
"C  c #130090",
"Z  c #1C0D9A",
"A  c #170998",
"S  c #141791",
"D  c #231683",
"F  c #22138B",
"G  c #26198B",
"H  c #260897",
"J  c #201290",
"K  c #2C0A8A",
"L  c #1F359A",
"P  c #1E2F9D",
"I  c #2E3699",
"U  c #0502AD",
"Y  c #0905A8",
"T  c #1A03AB",
"R  c #1605A7",
"E  c #0500B4",
"W  c #0100BC",
"Q  c #1A02B3",
"!  c #1400BD",
"~  c #1900BB",
"^  c #1704B3",
"/  c #0B12AB",
"(  c #2408A4",
")  c #3607A9",
"_  c #2316A9",
"`  c #1B28A4",
"'  c #2C2CB4",
"]  c #5C0887",
"[  c #480A97",
"{  c #570D9A",
"}  c #69118C",
"|  c #640C93",
" . c #66008E",
".. c #643992",
"X. c #4E09A6",
"o. c #7B00AF",
"O. c #6807B6",
"+. c #7203B3",
"@. c #195182",
"#. c #165887",
"$. c #185C9C",
"%. c #244482",
"&. c #0C6D95",
"*. c #1452AE",
"=. c #224EB2",
"-. c #1963A4",
";. c #1866A8",
":. c #1969A6",
">. c #187ABF",
",. c #2368A9",
"<. c #2177B7",
"1. c #6A5394",
"2. c #41788B",
"3. c #5A54AC",
"4. c #6074AD",
"5. c #0000C3",
"6. c #0000CC",
"7. c #0E00C7",
"8. c #1600C4",
"9. c #1400CC",
"0. c #1A01C5",
"q. c #0000D3",
"w. c #0D00D2",
"e. c #1300D3",
"r. c #1200DA",
"t. c #1800D0",
"y. c #1636CC",
"u. c #0E00EF",
"i. c #7A00C3",
"p. c #7A00D6",
"a. c #1354C5",
"s. c #3B53C7",
"d. c #0B69C8",
"f. c #1A68C9",
"g. c #1872C4",
"h. c #1877C7",
"j. c #1174CB",
"k. c #276BC9",
"l. c #007CFF",
"z. c #0071FF",
"x. c #0673E9",
"c. c #4F40CA",
"v. c #8205AA",
"b. c #895898",
"n. c #A17CB3",
"m. c #8500CE",
"M. c #1981AF",
"N. c #1A85DA",
"B. c #0388DE",
"V. c #2788DB",
"C. c #3D99DD",
"Z. c #368ECE",
"A. c #1782E5",
"S. c #178AEA",
"D. c #1A93EA",
"F. c #0481FF",
"G. c #0D84FF",
"H. c #048CFF",
"J. c #0B8DFF",
"K. c #0480F6",
"L. c #1A8CF3",
"P. c #178EFF",
"I. c #1B8FFF",
"U. c #178EF4",
"Y. c #0A93FF",
"T. c #069BFE",
"R. c #1693FF",
"E. c #1A91FF",
"W. c #169BFF",
"Q. c #1B9AFF",
"!. c #1891F4",
"~. c #0F9DEA",
"^. c #2191EE",
"/. c #3097ED",
"(. c #06A7FE",
"). c #16A4FF",
"_. c #1AA4FF",
"`. c #16ABFF",
"'. c #1CACFF",
"]. c #0BB9FF",
"[. c #16B1FF",
"{. c #15BBFF",
"}. c #1CB4FB",
"|. c #26A1FE",
" X c #3AADFF",
".X c #32A6FE",
"XX c #35BCFF",
"oX c #4893C8",
"OX c #668EC6",
"+X c #5FBBD8",
"@X c #70B0CE",
"#X c #4298E2",
"$X c #45B8FF",
"%X c #42A5EE",
"&X c #16C3FF",
"*X c #19C2FF",
"=X c #48C6FF",
"-X c #56D1FF",
";X c #71DFFF",
":X c #69D0FF",
">X c #7AF1FF",
",X c #8F95BC",
"<X c #A388A9",
"1X c #B395B7",
"2X c #AFB0B4",
"3X c #C8C6AB",
"4X c #FBFFBB",
"5X c #949AD0",
"6X c #8BB4D8",
"7X c #AEBEC2",
"8X c #9CC0DA",
"9X c #BAD1DE",
"0X c #A5DEE1",
"qX c #9EFAE9",
"wX c #BCFFFF",
"eX c #FFFFD5",
"rX c #D5D9E1",
"tX c #D3FAFA",
"yX c #CBE6EA",
"uX c #FFFFEC",
"iX c #E3FFFF",
"pX c #EAEDE9",
"aX c None",
/* pixels */
"aXaXaXaXaXaXaXaXaXaXaXaXaXaXaXaXaXaXaXaXaXaXaXaXaXaXaXaXaXaXaXaXaXaXaXaXaXaXaXaXaXaXaXaXaXaXaXaXaXaX",
"aXaXaXaXaXaXaXaXaXaXaXaXaXaXaXaXaXaXaXaXaXaXaXaXaXaXaXaXaXaXaXaXaXaXaXaXaXaXaXaXaXaXaXaXaXaXaXaXaXaX",
"aXaXaXaXaXaXaXaXaXaXaXaXaXaXaXaXaXaXaXaXaXaXaXaXaXaXaXaXaXaXaXaXaXaXaXaXaXaXaXaXaXaXaXaXaXaXaXaXaXaX",
"aXaXaXaXaXaXaXaXaXaXaXaXaXaXaXaXaXaXaXaXaXaXaXaXaXaXaXaXaXaXaXaXaXaXaXaXaXaXaXaXaXaXaXaXaXaXaXaXaXaX",
"aXaXaXaXaXaXaXaXaXaXaXaXaXaXaXaXaXaXaXaXaXaXaXaXaXaXaXaXaXaXaXaXaXaXaXaXaXaXaXaXaXaXaXaXaXaXaXaXaXaX",
"aXaXaXaXaXaXaXaXaXaXaXaXaXaXaXaXaXaXaXaXaXaXaXaXaXaXaXaXaXaXaXaXaXaXaXaXaXaXaXaXaXaXaXaXaXaXaXaXaXaX",
"aXaXaXaXaXaXaXaXaXaXaXaXaXaXaXaXaXaXaXaXaXaXaXaXaXaXaXaXaXaXaXaXaXaXaXaXaXaXaXaXaXaXaXaXaXaXaXaXaXaX",
"aXaXaXaXaXaXaXaXaXaXaXaXaXaXaXaXaXaXaXaXaXaXaXaXaXaXaXaXaXaXaXaXaXaXaXaXaXaXaXaXaXaXaXaXaXaXaXaXaXaX",
"aXaXaXaXaXaXaXaXaXaXaXaXaXaXaXaXaXaXaXaXaXaXaXaXaXaXaXaXaXaXaXaXaXaXaXaXaXaXaXaXaXaXaXaXaXaXaXaXaXaX",
"aXaXaXaXaXaXaXaXaXaXaXaXaXaXaXaXaXaXaXaXaXaXaXaXaXaXaXaXaXaXaXaXaXaXaXaXaXaXaXaXaXaXaXaXaXaXaXaXaXaX",
"aXaXaXaXaXaXaXaXaXaXaXaXaXaXaXaXaXaXaXa 9 3 aXaXaXaXa N N 4 aXaXaXaXaXaXaXaXaXaXaXaXaXaXaXaXaXaXaXaX",
"aXaXaXaXaXaXaXaXaXaXaXr T Q 8 aXaX4 E 6.q.5.Y S S E 6.6.6.5.Y 5 aXaXaXw 4 aXaXaXaXaXaXaXaXaXaXaXaXaX",
"aXaXaXaXaXaXaXaXaXaXr r.9.q.c.eXb 5.5.E E E 5.6.6.W E E E E 6.5.; 4X5X5.e.F aXaXaXaXaXaXaXaXaXaXaXaX",
"aXaXaXaXaXaXaXaXaXaX8.8.~ - n uX' 5.E E E E E E E E E E W W E 6.W rX3XY 9.e.r aXaXaXaXaXaXaXaXaXaXaX",
"aXaXaXaXaXaXaXaXaXJ e.9.a aXaXm U Y U W 5.E E E E E W U R ) H H Z m aXaX8.8.8.aXaXaXaXaXaXaXaXaXaXaX",
"aXaXaXaXaXaXaXaXaX~ 9.Z aXaX9 U Z A C C V U 5.W E 5.Y f } } } } o.X.0 aXr 9.e.D aXaXaXaXaXaXaXaXaXaX",
"aXaXaXaXaXaXaXaXp 9.9.p aX= R 7.! R ` L r 9 8 V W C g [ ) H ( Q { m.[ aXaX^ 8.Q aXaXaXaXaXaXaXaXaXaX",
"aXaXaXaXaXaXaXaXD t.~ aXaXr w.! A <.'._.!.A.,.=.9 5 I y.a.a.=.t._ | +.aXaXG 9.9.4 aXaXaXaXaXaXaXaXaX",
"aXaXaXaXaXaXaXaXD e.T aXaXZ 7.^ L }.J.l.T.T.)._.V.U.W.(.(.(.{.=.T { p.g aXw e.9.r aXaXaXaXaXaXaXaXaX",
"aXaXaXaXaXaXaXaXD r.R aXaXZ 9.Y L T.L.8X,X#XJ.I.W.W.H./.OX@X|.*.Q ) i.{ aXaX8.9.J aXaXaXaXaXaXaXaXaX",
"aXaXaXaXaXaXaXaXw r.Q aXaXt 9.^ ` B.yX1X6 1.%XH.R.J.|.1.- b.0X*.! [ O.O.aXaX~ 9.H aXaXaXaXaXaXaXaXaX",
"aXaXaXaXaXaXaXaXaX8.e.aXaXk ^ 7./ Z.pX9 I <XoXH.P.H.C.1X3.6 2X' Z } p.| aXaX~ e.G aXaXaXaXaXaXaXaXaX",
"aXaXaXaXaXaXaXaXaXp u.G aXM.=.R A d.tXn.r <XC.H.P.J.^.2X..1.8XS [ +.O.u aXaX8.e.r aXaXaXaXaXaXaXaXaX",
"aXaXaXaXaXaXaXaXaXaXa t.@ &.&XL M d.|.9X1XZ.G.I.R.E.H.V.4.6X/.l | v.k.&.aXa r.! aXaXaXaXaXaXaXaXaXaX",
"aXaXaXaXaXaXaXaXaXaXaXa 7 j {.N.q k.T.l.W.H.P.P.P.P.E.H.Y.H.Y.M.] { ].l aX_ u.p aXaXaXaXaXaXaXaXaXaX",
"aXaXaXaXaXaXaXaXaXaXaXaXM ; D.[.I $._.Y.P.P.P.P.P.P.R.E.E.P.R.~.] c.(.# aX9.3 aXaXaXaXaXaXaXaXaXaXaX",
"aXaXaXaXaXaXaXaXaXaXaXaXG @ #.{.:.,.W.P.P.P.P.P.P.R.W.U.P.P.R.W.h V.&.aX_ 3 aXaXaXaXaXaXaXaXaXaXaXaX",
"aXaXaXaXaXaXaXaXaXaXaXJ p aX+ D.`.D.R.P.P.W.).W.`.).1 > W.R.P.R.D.h.o y G aXaXaXaXaXaXaXaXaXaXaXaXaX",
"aXaXaXaXaXaXaXaXaXaX3 p aXaXaX% ).`.P.P.Q.-.z $.x O O g.W.P.P.).`.& aX_ aXaXaXaXaXaXaXaXaXaXaXaXaXaX",
"aXaXaXaXaXaXaXaXaXaXaXaXaXaXaXaX& U.`.R.W.@.$ > : $.W._.P.R.`.S.& aXaXG D aXaXaXaXaXaXaXaXaXaXaXaXaX",
"aXaXaXaXaXaXaXaXaXaXaXaXaXaXaXaXaXX z U.(.'.-X'.).`.W.W.`.S.@.+ aXaXaXaXF 3 aXaXaXaXaXaXaXaXaXaXaXaX",
"aXaXaXaXaXaXaXaXaXaXaXaXaXaXaXaXaX* k 1 x :.+XU.G.L.h.-.x 1 + aXaXaXaXaXaXaXaXaXaXaXaXaXaXaXaXaXaXaX",
"aXaXaXaXaXaXaXaXaXaXaXaXaXaXaXaXaXx &Xg.1 2.2 v l 1 1 k $.).h.. aXaXaXaXaXaXaXaXaXaXaXaXaXaXaXaXaXaX",
"aXaXaXaXaXaXaXaXaXaXaXaXaXaXaXaXX h.{.c :.}.|.qXC.x.R.`.>.S.[.k aXaXaXaXaXaXaXaXaXaXaXaXaXaXaXaXaXaX",
"aXaXaXaXaXaXaXaXaXaXaXaXaXaXaXaX: `.R.O ;.W.$X=XW.R.R.)., u {.U.O aXaXaXaXaXaXaXaXaXaXaXaXaXaXaXaXaX",
"aXaXaXaXaXaXaXaXaXaXaXaXaXaXaX. ;.&X:.  d.XXtX Xz.E.P._.x   N.{.-.  aXaXaXaXaXaXaXaXaXaXaXaXaXaXaXaX",
"aXaXaXaXaXaXaXaXaXaXaXaXaXaXaX% W.`.:   g.XX$X;X$Xl.P.`.@.aX, `.`.k aXaXaXaXaXaXaXaXaXaXaXaXaXaXaXaX",
"aXaXaXaXaXaXaXaXaXaXaXaXaXaXaXk &XN.X aX@XwXI.G.|.P.P.).@.aXaX;.&X#.aXaXaXaXaXaXaXaXaXaXaXaXaXaXaXaX",
"aXaXaXaXaXaXaXaXaXaXaXaXaXaXaXO c > aXaXoX>X X.XI.P.P.).@.aXaXO : O aXaXaXaXaXaXaXaXaXaXaXaXaXaXaXaX",
"aXaXaXaXaXaXaXaXaXaXaXaXaXaXaXaXaXaXaXo d.K.:XiX:Xl.P.).@.aXaXaXaXaXaXaXaXaXaXaXaXaXaXaXaXaXaXaXaXaX",
"aXaXaXaXaXaXaXaXaXaXaXaXaXaXaXaXaXaXaX. g.Y. X;X XG.P.).@.aXaXaXaXaXaXaXaXaXaXaXaXaXaXaXaXaXaXaXaXaX",
"aXaXaXaXaXaXaXaXaXaXaXaXaXaXaXaXaXaXaX. g._.G.H.(.W.P.).@.aXaXaXaXaXaXaXaXaXaXaXaXaXaXaXaXaXaXaXaXaX",
"aXaXaXaXaXaXaXaXaXaXaXaXaXaXaXaXaXaXaXo g.).Q.;.u h.Q.).@.aXaXaXaXaXaXaXaXaXaXaXaXaXaXaXaXaXaXaXaXaX",
"aXaXaXaXaXaXaXaXaXaXaXaXaXaXaXaXaXaXaX. g.`.A.X aX: )._.@.aXaXaXaXaXaXaXaXaXaXaXaXaXaXaXaXaXaXaXaXaX",
"aXaXaXaXaXaXaXaXaXaXaXaXaXaXaXaXaXaXaX. g.`.N.O aX, W._.@.aXaXaXaXaXaXaXaXaXaXaXaXaXaXaXaXaXaXaXaXaX",
"aXaXaXaXaXaXaXaXaXaXaXaXaXaXaXaXaXaXaXo g.`.A.O aX, W.`.@.aXaXaXaXaXaXaXaXaXaXaXaXaXaXaXaXaXaXaXaXaX",
"aXaXaXaXaXaXaXaXaXaXaXaXaXaXaXaXaXaXaX. g.`.A.O aX< W._.c aXaXaXaXaXaXaXaXaXaXaXaXaXaXaXaXaXaXaXaXaX",
"aXaXaXaXaXaXaXaXaXaXaXaXaXaXaXaXaXaXaX. h.[.S.O aX< _.`.#.aXaXaXaXaXaXaXaXaXaXaXaXaXaXaXaXaXaXaXaXaX",
"aXaXaXaXaXaXaXaXaXaXaXaXaXaXaXaXaXaXaXaX-.{.h.o aX& W.'.k aXaXaXaXaXaXaXaXaXaXaXaXaXaXaXaXaXaXaXaXaX",
"aXaXaXaXaXaXaXaXaXaXaXaXaXaXaXaXaXaXaXaXO 1 * aXaXaX% : aXaXaXaXaXaXaXaXaXaXaXaXaXaXaXaXaXaXaXaXaXaX"
};
