/* XPM */
static char *result[] = {
/* columns rows colors chars-per-pixel */
"50 50 222 2 ",
"   c #1B0200",
".  c #1A0E03",
"X  c #160804",
"o  c #1C1306",
"O  c #1A1B1C",
"+  c #191516",
"@  c #05040F",
"#  c #220817",
"$  c #1E2100",
"%  c #181C24",
"&  c #19232D",
"*  c #1A2B3C",
"=  c #152539",
"-  c #2F2F3D",
";  c #1B144C",
":  c #161855",
">  c #211F5F",
",  c #193045",
"<  c #19354D",
"1  c #193A54",
"2  c #193958",
"3  c #0B2C59",
"4  c #2E2C4F",
"5  c #2D2753",
"6  c #2B235D",
"7  c #25235C",
"8  c #07006B",
"9  c #180569",
"0  c #1A1777",
"q  c #16126E",
"w  c #21006F",
"e  c #261E6B",
"r  c #251C75",
"t  c #261A79",
"y  c #24177C",
"u  c #210B76",
"i  c #1B3E62",
"p  c #123D66",
"a  c #1B2575",
"s  c #2A2263",
"d  c #2B2369",
"f  c #272074",
"g  c #2B3766",
"h  c #431879",
"j  c #46116C",
"k  c #422E74",
"l  c #19455E",
"z  c #194364",
"x  c #19456B",
"c  c #124362",
"v  c #194E7D",
"b  c #164875",
"n  c #19567F",
"m  c #2C576D",
"M  c #47456C",
"N  c #160186",
"B  c #09049B",
"V  c #1B0D99",
"C  c #1A0996",
"Z  c #0A1088",
"A  c #210C89",
"S  c #231584",
"D  c #22138B",
"F  c #26198B",
"G  c #270697",
"H  c #360C99",
"J  c #2A0E8A",
"K  c #1F3799",
"L  c #2C3492",
"P  c #0404A5",
"I  c #0501AE",
"U  c #0804AB",
"Y  c #1303AC",
"T  c #1904A7",
"R  c #0500B4",
"E  c #0100BC",
"W  c #1A02B3",
"Q  c #1500BB",
"!  c #1900BB",
"~  c #1403B2",
"^  c #1017B3",
"/  c #2404A5",
"(  c #3D07A9",
")  c #2213AA",
"_  c #1F33A6",
"`  c #1726A4",
"'  c #2A35AE",
"]  c #5D0786",
"[  c #4B0895",
"{  c #560C99",
"}  c #43138B",
"|  c #640C94",
" . c #6B0C94",
".. c #700F90",
"X. c #680A87",
"o. c #5C318C",
"O. c #5617A4",
"+. c #6907B7",
"@. c #7302B0",
"#. c #195182",
"$. c #175988",
"%. c #185E9E",
"&. c #244582",
"*. c #176896",
"=. c #086C94",
"-. c #195AB7",
";. c #1551A9",
":. c #234FB0",
">. c #1863A4",
",. c #1667A7",
"<. c #166FB6",
"1. c #246BA8",
"2. c #2173B0",
"3. c #6F5695",
"4. c #5954AB",
"5. c #5471AF",
"6. c #0000C3",
"7. c #0000CB",
"8. c #0F00C7",
"9. c #1600C4",
"0. c #1400CC",
"q. c #1904C6",
"w. c #0000D1",
"e. c #0D00D3",
"r. c #1300D4",
"t. c #1200DB",
"y. c #173DCB",
"u. c #0F00ED",
"i. c #7B00C3",
"p. c #7A00D5",
"a. c #1C4FC9",
"s. c #3A56C9",
"d. c #0866C9",
"f. c #116CC4",
"g. c #1F61CB",
"h. c #1973C4",
"j. c #1879CA",
"k. c #1878C6",
"l. c #157AD8",
"z. c #126ACB",
"x. c #2471C9",
"c. c #006DFF",
"v. c #007FFB",
"b. c #177FE1",
"n. c #5447C9",
"m. c #8404AC",
"M. c #8B5C9B",
"N. c #A27CB1",
"B. c #8400CD",
"V. c #1983AF",
"C. c #5E9AA9",
"Z. c #7F8AB6",
"A. c #1A89D7",
"S. c #048ADE",
"D. c #2081C2",
"F. c #368BC3",
"G. c #2091DE",
"H. c #358DD7",
"J. c #1784E3",
"K. c #1685EC",
"L. c #1D8AEC",
"P. c #1989E8",
"I. c #1792EA",
"U. c #0C84FD",
"Y. c #038CFF",
"T. c #0B8EFF",
"R. c #0481FC",
"E. c #178EFF",
"W. c #178EF7",
"Q. c #0B94FE",
"!. c #049CFF",
"~. c #0797FE",
"^. c #1693FF",
"/. c #1991FE",
"(. c #169BFF",
"). c #1A97FA",
"_. c #0F9CEA",
"`. c #3698E8",
"'. c #2596F4",
"]. c #298AE2",
"[. c #05A7FC",
"{. c #16A4FF",
"}. c #19A4FE",
"|. c #16ABFF",
" X c #1BADFF",
".X c #09BBFF",
"XX c #16B3FF",
"oX c #15BAFF",
"OX c #1DB3FA",
"+X c #28A5FF",
"@X c #31A5FD",
"#X c #23B1FF",
"$X c #4691D4",
"%X c #7393C2",
"&X c #5AB8DC",
"*X c #7EAFDB",
"=X c #48BCFF",
"-X c #40A3ED",
";X c #16C3FF",
":X c #19C3FF",
">X c #45CBFF",
",X c #57C9FF",
"<X c #62D1FF",
"1X c #60CAF3",
"2X c #6EF3FF",
"3X c #8F898F",
"4X c #9184AC",
"5X c #AE91B4",
"6X c #ACAEB2",
"7X c #FBFEBC",
"8X c #A59DDD",
"9X c #8FACCD",
"0X c #ACBDC3",
"qX c #ADC9DB",
"wX c #A4DCDD",
"eX c #8BFFFF",
"rX c #A3FBFF",
"tX c #C6FFFF",
"yX c #D1EDEE",
"uX c #FFFFE8",
"iX c #EBECE9",
"pX c None",
/* pixels */
"pXpXpXpXpXpXpXpXpXpXpXpXpXpXpXpXpXpXpXpXpXpXpXpXpXpXpXpXpXpXpXpXpXpXpXpXpXpXpXpXpXpXpXpXpXpXpXpXpXpX",
"pXpXpXpXpXpXpXpXpXpXpXpXpXpXpXpXpXpXpXpXpXpXpXpXpXpXpXpXpXpXpXpXpXpXpXpXpXpXpXpXpXpXpXpXpXpXpXpXpXpX",
"pXpXpXpXpXpXpXpXpXpXpXpXpXpXpXpXpXpXpXpXpXpXpXpXpXpXpXpXpXpXpXpXpXpXpXpXpXpXpXpXpXpXpXpXpXpXpXpXpXpX",
"pXpXpXpXpXpXpXpXpXpXpXpXpXpXpXpXpXpXpXpXpXpXpXpXpXpXpXpXpXpXpXpXpXpXpXpXpXpXpXpXpXpXpXpXpXpXpXpXpXpX",
"pXpXpXpXpXpXpXpXpXpXpXpXpXpXpXpXpXpXpXpXpXpXpXpXpXpXpXpXpXpXpXpXpXpXpXpXpXpXpXpXpXpXpXpXpXpXpXpXpXpX",
"pXpXpXpXpXpXpXpXpXpXpXpXpXpXpXpXpXpXpXpXpXpXpXpXpXpXpXpXpXpXpXpXpXpXpXpXpXpXpXpXpXpXpXpXpXpXpXpXpXpX",
"pXpXpXpXpXpXpXpXpXpXpXpXpXpXpXpXpXpXpXpXpXpXpXpXpXpXpXpXpXpXpXpXpXpXpXpXpXpXpXpXpXpXpXpXpXpXpXpXpXpX",
"pXpXpXpXpXpXpXpXpXpXpXpXpXpXpXpXpXpXpXpXpXpXpXpXpXpXpXpXpXpXpXpXpXpXpXpXpXpXpXpXpXpXpXpXpXpXpXpXpXpX",
"pXpXpXpXpXpXpXpXpXpXpXpXpXpXpXpXpXpXpXpXpXpXpXpXpXpXpXpXpXpXpXpXpXpXpXpXpXpXpXpXpXpXpXpXpXpXpXpXpXpX",
"pXpXpXpXpXpXpXpXpXpXpXpXpXpXpXpXpXpXpXpXpXpXpXpXpXpXpXpXpXpXpXpXpXpXpXpXpXpXpXpXpXpXpXpXpXpXpXpXpXpX",
"pXpXpXpXpXpXpXpXpXpXpXpXpXpXpXpXpXpXpX0 S 7 pXpXpXpXr Z Z d pXpXpXpXpXpXpXpXpXpXpXpXpXpXpXpXpXpXpXpX",
"pXpXpXpXpXpXpXpXpXpXpXy W Q t pXpX7 E w.w.6.U B B R 7.7.w.w.U 4 pXpX; f d pXpXpXpXpXpXpXpXpXpXpXpXpX",
"pXpXpXpXpXpXpXpXpXpXt t.0.E 8XuXf 7.6.R R R E 8.6.E R R R R 7.E k 7Xn.w.r.D pXpXpXpXpXpXpXpXpXpXpXpX",
"pXpXpXpXpXpXpXpXpX4 0.q.Q ; pXZ.6.6.R R R R R R R R R R 6.E R E ^ uX3XP 9.r.t pXpXpXpXpXpXpXpXpXpXpX",
"pXpXpXpXpXpXpXpXpXV 0.q.s pXpXB R P U E E E R R R R E R T H H H C Z pXpX9.9.9.pXpXpXpXpXpXpXpXpXpXpX",
"pXpXpXpXpXpXpXpXpX! 0.V pXpX0 ~ V Y N N B U 6.E R 7.U d X. .| ..m.( q pXt 0.r.S pXpXpXpXpXpXpXpXpXpX",
"pXpXpXpXpXpXpXpXd 0.0.s pX- Y 9.Q V _ _ L q 9 B R N j [ G G / W O.B.} pXpX! q.W pXpXpXpXpXpXpXpXpXpX",
"pXpXpXpXpXpXpXpXS r.W pXpXr e.Q C D.XX|.^.].1.;.a g ' y.a.g.-.q./  .+.pXpXD 0.0.6 pXpXpXpXpXpXpXpXpX",
"pXpXpXpXpXpXpXpXS r.T pXpXV 8.Y K OXT.v.Q.~.}.}.G.W.}.[.[.[.oX:.T { p.j pXe 0.0.t pXpXpXpXpXpXpXpXpX",
"pXpXpXpXpXpXpXpXS t.T pXpXV 0.Y K !.L.qX9X$XY.).^.^.Y.`.%X9X X-.W ( i.{ pXpX9.0.D pXpXpXpXpXpXpXpXpX",
"pXpXpXpXpXpXpXpXf t.W pXpXu 0.~ ` S.yX5X8 3.`.T.).Q.#X3.8 M.wX;.Q } i.+.pXpX! q.V pXpXpXpXpXpXpXpXpX",
"pXpXpXpXpXpXpXpXpX! r.pXpXi W 8.^ F.iXq o.5X$XY.E.Y.`.5X4.8 6X' D | p.{ pXpX! r.D pXpXpXpXpXpXpXpXpX",
"pXpXpXpXpXpXpXpXpXe u.F pXV.-.T Y f.yXN.J 4X`.Y.E.T.'.5Xo.3.0XZ } i.+.z pXpX9.r.e pXpXpXpXpXpXpXpXpX",
"pXpXpXpXpXpXpXpXpXpXd q.+ *.:X_ N f.#XqXZ.H.^.).E.E.U.].5.*X'.b | m.x.=.pXe t.! pXpXpXpXpXpXpXpXpXpX",
"pXpXpXpXpXpXpXpXpXpXpXd 9 l oXA.9 g.!.v.(.Y./.E.E.E.E.T.~.Y.~.2. .O.|.p pX) u.6 pXpXpXpXpXpXpXpXpXpX",
"pXpXpXpXpXpXpXpXpXpXpXpXA : I.oX&.:.{.^.E.E.E.E.E.E.E.^.E.E.(._.j s.[.$ pX0.5 pXpXpXpXpXpXpXpXpXpXpX",
"pXpXpXpXpXpXpXpXpXpXpXpXF # $.oX2.1.(.E.E.E.E.E.E.^.}.).E.E.^.~.k H.=.pX) 5 pXpXpXpXpXpXpXpXpXpXpXpX",
"pXpXpXpXpXpXpXpXpXpXpXG s pX+ I.}.K.^.E.E.(.{.{.|.(.1 * (.^.^.^.).k.o u F pXpXpXpXpXpXpXpXpXpXpXpXpX",
"pXpXpXpXpXpXpXpXpXpX6 s pXpXpX* }.}.E.E.^.>.#.>.b O O k.(.E.E.}.{.& pX) pXpXpXpXpXpXpXpXpXpXpXpXpXpX",
"pXpXpXpXpXpXpXpXpXpXpXpXpXpXpXpX* W.|.^.^.$.% = < %.(.(.E.^.|.L.& pXpXF S pXpXpXpXpXpXpXpXpXpXpXpXpX",
"pXpXpXpXpXpXpXpXpXpXpXpXpXpXpXpXpXo v W.{.XX#X#X X{.(.}. XK.#.+ pXpXpXpXS 5 pXpXpXpXpXpXpXpXpXpXpXpX",
"pXpXpXpXpXpXpXpXpXpXpXpXpXpXpXpXpX% x 2 p 1.&X1XU.K.l.%.x 2 + pXpXpXpXpXpXpXpXpXpXpXpXpXpXpXpXpXpXpX",
"pXpXpXpXpXpXpXpXpXpXpXpXpXpXpXpXpXb ;Xk.3 m m 2 z z x 2 >.{.j.  pXpXpXpXpXpXpXpXpXpXpXpXpXpXpXpXpXpX",
"pXpXpXpXpXpXpXpXpXpXpXpXpXpXpXpXo j.oXv ,.2X<XL.l.K.^.|.<.P.XXx pXpXpXpXpXpXpXpXpXpXpXpXpXpXpXpXpXpX",
"pXpXpXpXpXpXpXpXpXpXpXpXpXpXpXpX< {.(.@ C.tX=XT.T.^.^.{.1 i oXW.O pXpXpXpXpXpXpXpXpXpXpXpXpXpXpXpXpX",
"pXpXpXpXpXpXpXpXpXpXpXpXpXpXpXpX,.oX,.  F.2X=X@X/.E.E.{.x   A.oX*.  pXpXpXpXpXpXpXpXpXpXpXpXpXpXpXpX",
"pXpXpXpXpXpXpXpXpXpXpXpXpXpXpX* (.|.<   d.Y.rXtX+XR.E.}.#.  2 |.{.z pXpXpXpXpXpXpXpXpXpXpXpXpXpXpXpX",
"pXpXpXpXpXpXpXpXpXpXpXpXpXpXpXz ;XA.X pXf.Q.,X<XE.E.E.{.v pXpX>.;X#.pXpXpXpXpXpXpXpXpXpXpXpXpXpXpXpX",
"pXpXpXpXpXpXpXpXpXpXpXpXpXpXpXO v , pXpXf.eX<Xc.E.E.E.}.v pXpX% < + pXpXpXpXpXpXpXpXpXpXpXpXpXpXpXpX",
"pXpXpXpXpXpXpXpXpXpXpXpXpXpXpXpXpXpXpX. f.>X=XU.E.E.E.}.v pXpXpXpXpXpXpXpXpXpXpXpXpXpXpXpXpXpXpXpXpX",
"pXpXpXpXpXpXpXpXpXpXpXpXpXpXpXpXpXpXpX. <.{.R./.E.E.E.}.v pXpXpXpXpXpXpXpXpXpXpXpXpXpXpXpXpXpXpXpXpX",
"pXpXpXpXpXpXpXpXpXpXpXpXpXpXpXpXpXpXpX@ F.rX@X~.|.(.E.{.v pXpXpXpXpXpXpXpXpXpXpXpXpXpXpXpXpXpXpXpXpX",
"pXpXpXpXpXpXpXpXpXpXpXpXpXpXpXpXpXpXpXX x.>X).-.x l.(.}.v pXpXpXpXpXpXpXpXpXpXpXpXpXpXpXpXpXpXpXpXpX",
"pXpXpXpXpXpXpXpXpXpXpXpXpXpXpXpXpXpXpXo h.[.K.o pX< (. X#.pXpXpXpXpXpXpXpXpXpXpXpXpXpXpXpXpXpXpXpXpX",
"pXpXpXpXpXpXpXpXpXpXpXpXpXpXpXpXpXpXpX. h.|.A.+ pX< (.}.v pXpXpXpXpXpXpXpXpXpXpXpXpXpXpXpXpXpXpXpXpX",
"pXpXpXpXpXpXpXpXpXpXpXpXpXpXpXpXpXpXpX. h.|.J.+ pX1 (.}.v pXpXpXpXpXpXpXpXpXpXpXpXpXpXpXpXpXpXpXpXpX",
"pXpXpXpXpXpXpXpXpXpXpXpXpXpXpXpXpXpXpX. h.|.J.O pX1 (.{.v pXpXpXpXpXpXpXpXpXpXpXpXpXpXpXpXpXpXpXpXpX",
"pXpXpXpXpXpXpXpXpXpXpXpXpXpXpXpXpXpXpX. k.|.P.O pX2 }.|.#.pXpXpXpXpXpXpXpXpXpXpXpXpXpXpXpXpXpXpXpXpX",
"pXpXpXpXpXpXpXpXpXpXpXpXpXpXpXpXpXpXpXpX,.:Xk.o pX* (.XXi pXpXpXpXpXpXpXpXpXpXpXpXpXpXpXpXpXpXpXpXpX",
"pXpXpXpXpXpXpXpXpXpXpXpXpXpXpXpXpXpXpXpX& z & pXpXpX, 2 pXpXpXpXpXpXpXpXpXpXpXpXpXpXpXpXpXpXpXpXpXpX"
};
