/* XPM */
static char *result[] = {
/* columns rows colors chars-per-pixel */
"50 50 191 2 ",
"   c #1A0300",
".  c #1A0B03",
"X  c #1A0F0D",
"o  c #1A120C",
"O  c #1A150B",
"+  c #1A1412",
"@  c #1A1816",
"#  c #1A1C1D",
"$  c #1A1F23",
"%  c #1A2126",
"&  c #1A232A",
"*  c #1A2733",
"=  c #1A2933",
"-  c #1A2B3B",
";  c #1A2D46",
":  c #193244",
">  c #19324A",
",  c #193554",
"<  c #193B55",
"1  c #193C5C",
"2  c #19375A",
"3  c #2D2B4E",
"4  c #2D2851",
"5  c #29235F",
"6  c #272757",
"7  c #00006A",
"8  c #1F1C6C",
"9  c #000076",
"0  c #15067D",
"q  c #1A177D",
"w  c #191878",
"e  c #281D6D",
"r  c #271C73",
"t  c #271979",
"y  c #183F63",
"u  c #252066",
"i  c #28357E",
"p  c #3A297D",
"a  c #4E0F4F",
"s  c #4E1D6E",
"d  c #541A76",
"f  c #4B2C74",
"g  c #194364",
"h  c #19456A",
"j  c #19496C",
"k  c #194D7A",
"l  c #194673",
"z  c #2A4470",
"x  c #0D018C",
"c  c #03008D",
"v  c #151484",
"b  c #1A1680",
"n  c #13128A",
"m  c #1A1787",
"M  c #000091",
"N  c #0D0295",
"B  c #02029E",
"V  c #0B029D",
"C  c #0E0A9E",
"Z  c #110E94",
"A  c #1A0A9A",
"S  c #171796",
"D  c #071696",
"F  c #310F8F",
"G  c #22118C",
"H  c #251786",
"J  c #15208F",
"K  c #14249D",
"L  c #193699",
"P  c #362882",
"I  c #0201A3",
"U  c #0800A5",
"Y  c #0C0AA3",
"T  c #0101AE",
"R  c #0908AB",
"E  c #1D09A2",
"W  c #1D05AB",
"Q  c #0301B4",
"!  c #0200BC",
"~  c #0804B5",
"^  c #1403B4",
"/  c #1A02B3",
"(  c #1303BD",
")  c #2108A3",
"_  c #122BA0",
"`  c #173AA9",
"'  c #4D008D",
"]  c #550685",
"[  c #411684",
"{  c #582584",
"}  c #620EAE",
"|  c #5438A4",
" . c #194F83",
".. c #19538B",
"X. c #19598C",
"o. c #185387",
"O. c #1C489C",
"+. c #185D9C",
"@. c #185C92",
"#. c #0D6190",
"$. c #31618F",
"%. c #185EA3",
"&. c #0F45B6",
"*. c #1E5EB5",
"=. c #1862A1",
"-. c #1863AB",
";. c #1965B4",
":. c #186BB3",
">. c #196EBC",
",. c #1D65BF",
"<. c #187ABF",
"1. c #605F97",
"2. c #5543A2",
"3. c #6964AB",
"4. c #0000C2",
"5. c #0000CD",
"6. c #1600C5",
"7. c #1400CD",
"8. c #1900C1",
"9. c #0000D4",
"0. c #0900D7",
"q. c #1300D3",
"w. c #1100DD",
"e. c #0D00EE",
"r. c #1000E1",
"t. c #1D59C8",
"y. c #0C76CF",
"u. c #1877C9",
"i. c #187AD3",
"p. c #177EDB",
"a. c #0C75D4",
"s. c #187CE2",
"d. c #007CFB",
"f. c #A07AB2",
"g. c #778496",
"h. c #6F8CBC",
"j. c #6495AB",
"k. c #1888CF",
"l. c #1A86D9",
"z. c #1794D3",
"x. c #228DD2",
"c. c #209ADB",
"v. c #1885E9",
"b. c #1786EA",
"n. c #1A97EA",
"m. c #0083FE",
"M. c #0B8DFF",
"N. c #058AFF",
"B. c #178CF3",
"V. c #178FFF",
"C. c #1795F7",
"Z. c #1793FF",
"A. c #1A92FF",
"S. c #169BFF",
"D. c #1A98F8",
"F. c #248DE5",
"G. c #2093E2",
"H. c #07ADFF",
"J. c #0FA7F3",
"K. c #17A5FF",
"L. c #1BA2FF",
"P. c #16ABFF",
"I. c #19ACFF",
"U. c #1DAAF5",
"Y. c #0DBAFF",
"T. c #16B2FF",
"R. c #16BBFF",
"E. c #1BB7FC",
"W. c #20A5E7",
"Q. c #21B0E9",
"!. c #36A0F6",
"~. c #3ABAFA",
"^. c #6DBAEF",
"/. c #16C3FF",
"(. c #15C8FF",
"). c #7EC7F4",
"_. c #82AA9C",
"`. c #8382B4",
"'. c #9B8CB3",
"]. c #B2AEAD",
"[. c #8B89C0",
"{. c #86B5DD",
"}. c #B4A5D8",
"|. c #A2CEE5",
" X c #C0C2C2",
".X c #EBCDD6",
"XX c #FDDFDC",
"oX c #E5E6DC",
"OX c #C2E4ED",
"+X c white",
"@X c None",
/* pixels */
"@X@X@X@X@X@X@X@X@X@X@X@X@X@X@X@X@X@X@X@X@X@X@X@X@X@X@X@X@X@X@X@X@X@X@X@X@X@X@X@X@X@X@X@X@X@X@X@X@X@X",
"@X@X@X@X@X@X@X@X@X@X@X@X@X@X@X@X@X@X@X@X@X@X@X@X@X@X@X@X@X@X@X@X@X@X@X@X@X@X@X@X@X@X@X@X@X@X@X@X@X@X",
"@X@X@X@X@X@X@X@X@X@X@X@X@X@X@X@X@X@X@X@X@X@X@X@X@X@X@X@X@X@X@X@X@X@X@X@X@X@X@X@X@X@X@X@X@X@X@X@X@X@X",
"@X@X@X@X@X@X@X@X@X@X@X@X@X@X@X@X@X@X@X@X@X@X@X@X@X@X@X@X@X@X@X@X@X@X@X@X@X@X@X@X@X@X@X@X@X@X@X@X@X@X",
"@X@X@X@X@X@X@X@X@X@X@X@X@X@X@X@X@X@X@X@X@X@X@X@X@X@X@X@X@X@X@X@X@X@X@X@X@X@X@X@X@X@X@X@X@X@X@X@X@X@X",
"@X@X@X@X@X@X@X@X@X@X@X@X@X@X@X@X@X@X@X@X@X@X@X@X@X@X@X@X@X@X@X@X@X@X@X@X@X@X@X@X@X@X@X@X@X@X@X@X@X@X",
"@X@X@X@X@X@X@X@X@X@X@X@X@X@X@X@X@X@X@X@X@X@X@X@X@X@X@X@X@X@X@X@X@X@X@X@X@X@X@X@X@X@X@X@X@X@X@X@X@X@X",
"@X@X@X@X@X@X@X@X@X@X@X@X@X@X@X@X@X@X@X@X@X@X@X@X@X@X@X@X@X@X@X@X@X@X@X@X@X@X@X@X@X@X@X@X@X@X@X@X@X@X",
"@X@X@X@X@X@X@X@X@X@X@X@X@X@X@X@X@X@X@X@X@X@X@X@X@X@X@X@X@X@X@X@X@X@X@X@X@X@X@X@X@X@X@X@X@X@X@X@X@X@X",
"@X@X@X@X@X@X@X@X@X@X@X@X@X@X@X@X@X@X@X@X@X@X@X@X@X@X@X@X@X@X@X@X@X@X@X@X@X@X@X@X@X@X@X@X@X@X@X@X@X@X",
"@X@X@X@X@X@X@X@X@X@X@X@X@X@X@X@X@X@X@X@X@X@Xu q q 8 @X@X@X@X@X@X@X@X@X@X@X@X@X@X@X@X@X@X@X@X@X@X@X@X",
"@X@X@X@X@X@X@X@X@X@X@X@X@X@X@X@X@X@X@X6 n ! 5.5.9.Q M A G A G r @X@X@X@X@X@X@X@X@X@X@X@X@X@X@X@X@X@X",
"@X@X@X@X@X@X@X@X@X@X@X@X@X@X@X@X@X6 Y 5.5.! ~ ! C  X].T w.7.q.q.6.t @X@X@X@X@X@X@X@X@X@X@X@X@X@X@X@X",
"@X@X@X@X@X@X@X@X@X@X@X@X@X@X@X@Xw 9.5.~ Q ~ Q ! v +X+XP Y E E E 6.w.A @X@X@X@X@X@X@X@X@X@X@X@X@X@X@X",
"@X@X@X@X@X@X@X@X@X@X@X@X@X@X@X8 0.! T ! ! ! ! ! T 3.`.S V C C Z H W r.) @X@X@X@X@X@X@X@X@X@X@X@X@X@X",
"@X@X@X@X@X@X@X@X@X@X@X@X@X@X@X! ! ! 4.U V Z Z Z ~ Q I 4.! ! 4.4.R b ) w.) 3 @X@X5 H A e @X@X@X@X@X@X",
"@X@X@X@X@X@X@X@X@X@X@X@X@X@Xq 9.4.I 9 w 0 c T Y m Y 5.! ! ! T T 4.Q q W q.6.W / q.r.7.e.t @X@X@X@X@X",
"@X@X@X@X@X@X@X@X@X@X@X@X@X@XV ! D g.j.y.a.*.S T 4.v v N U A ' ] V 5.Q b W 6.6.7./ 5 @Xu 7.@X@X@X@X@X",
"@X@X@X@X@X@X@X@X@X@X@X@X@XO J &.j.1.}.OXM.T.W.O.I Q z $.p { | 2.i N ! m u E ^ E @X@X@X@Xu G @X@X@X@X",
"@X@X@X@X@X@X@X@X@X@X@X@X@Xg J.~.`.p 7 XX^.d.S.E.O.I R W.P.C.H.Y.Q.k.i ] } F H ( b d d @X@X4 @X@X@X@X",
"@X@X@X@X@X@X@X@X@X@X@X@X. :.H.!.'.3.7 .X).m.V.Z.U.L B K W.T.l.` _ n.E.3 a { s r 0.F @X@X@X@X@X@X@X@X",
"@X@X@X@X@X@X@X@X@X@X@X@X# b.S.Z.h.f f.oXv.M.V.V.S.W.S I K O.V c c 0 I.#.@X@X@X@Xr ^ @X@X@X@X@X@X@X@X",
"@X@X@X@X@X@X@X@X@X@X@X@X- Z.A.N.D.{.|.F.m.A.V.A.B.P.x.x ! I N ;.>.m t.u.@X@X@X@X@X) u @X@X@X@X@X@X@X",
"@X@X@X@X@X@X@X@X@X@X@X@X- Z.Z.A.Z.N.d.N.A.V.V.V.V.V.T.t.v L c.T.I.D.G.-.@X@X@X@X@X4 @X@X@X@X@X@X@X@X",
"@X@X@X@X@X@X@X@X@X@X@X@X& B.Z.Z.V.V.Z.Z.V.V.V.V.V.V.V.S.n.S.S.V.V.Z.P.+.@X@X@X@X@X@X@X@X@X@X@X@X@X@X",
"@X@X@X@X@X@X@X@X@X@X@X@Xo i.L.V.V.V.L.B.B.Z.V.V.V.V.V.V.Z.Z.V.Z.V.V.K.h @X@X@X@X@X@X@X@X@X@X@X@X@X@X",
"@X@X@X@X@X@X@X@X@X@X@X@X@X..R.K.K.P.%.+ u.S.V.V.V.V.V.V.V.V.V.V.V.S.Z.% @X@X@X@X@X@X@X@X@X@X@X@X@X@X",
"@X@X@X@X@X@X@X@X@X@X@X@X@X& X.k h = + @.S.A.V.V.V.V.Z.V.V.V.V.V.V.P.+.@X@X@X@X@X@X@X@X@X@X@X@X@X@X@X",
"@X@X@X@X@X@X@X@X@X@X@X@X@X@X+ j <  .C.K.V.V.V.V.A.V.V.V.V.V.Z.V.L.B.+ @X@X@X@X@X@X@X@X@X@X@X@X@X@X@X",
"@X@X@X@X@X@X@X@X@X@X@X@X@X@X+ l./.K.Z.V.V.V.V.Z.V.V.V.V.V.V.V.S.L.; @X@X@X@X@X@X@X@X@X@X@X@X@X@X@X@X",
"@X@X@X@X@X@X@X@X@X@X@X@X@X@X@X. :.P.S.V.V.V.V.V.V.V.V.V.V.Z.K.S.1 @X@X@X@X@X@X@X@X@X@X@X@X@X@X@X@X@X",
"@X@X@X@X@X@X@X@X@X@X@X@X@X@X@X@X. k C.K.S.Z.Z.V.V.V.Z.Z.K.P.u.* @X@X@X@X@X@X@X@X@X@X@X@X@X@X@X@X@X@X",
"@X@X@X@X@X@X@X@X@X@X@X@X@X@X@X@X@X@X% X.l.Z.S.L.K.K.S.i.=.g . @X@X@X@X@X@X@X@X@X@X@X@X@X@X@X@X@X@X@X",
"@X@X@X@X@X@X@X@X@X@X@X@X@X@X@X@X@X@X@X@X. : j o.k h g j $ @X@X@X@X@X@X@X@X@X@X@X@X@X@X@X@X@X@X@X@X@X",
"@X@X@X@X@X@X@X@X@X@X@X@X@X@X@X@X@X@X@X@X@ u.k.% 2 , 1 R.u.@X@X@X@X@X@X@X@X@X@X@X@X@X@X@X@X@X@X@X@X@X",
"@X@X@X@X@X@X@X@X@X@X@X@X@X@X@X@X@X@X@X@X+.R.B.: K.v.< K.Z.% @X@X@X@X@X@X@X@X@X@X@X@X@X@X@X@X@X@X@X@X",
"@X@X@X@X@X@X@X@X@X@X@X@X@X@X@X@X@X@X@X% Z.T.> ../.:.  s.T.k @X@X@X@X@X@X@X@X@X@X@X@X@X@X@X@X@X@X@X@X",
"@X@X@X@X@X@X@X@X@X@X@X@X@X@X@X@X@X@X. u.R.;.* L.C.1 > k R.p.+ @X@X@X@X@X@X@X@X@X@X@X@X@X@X@X@X@X@X@X",
"@X@X@X@X@X@X@X@X@X@X@X@X@X@X@X@X@X@X+ Z.R.& ;.R...k S.& S.Z.@ @X@X@X@X@X@X@X@X@X@X@X@X@X@X@X@X@X@X@X",
"@X@X@X@X@X@X@X@X@X@X@X@X@X@X@X@X@X@X@X2 , g P.S.= i.T.o.- > @X@X@X@X@X@X@X@X@X@X@X@X@X@X@X@X@X@X@X@X",
"@X@X@X@X@X@X@X@X@X@X@X@X@X@X@X@X@X@X@X@X. A.T.;.  +.P.P.h @X@X@X@X@X@X@X@X@X@X@X@X@X@X@X@X@X@X@X@X@X",
"@X@X@X@X@X@X@X@X@X@X@X@X@X@X@X@X@X@X@X@X%.T.S.= @X@ B.K.Z.# @X@X@X@X@X@X@X@X@X@X@X@X@X@X@X@X@X@X@X@X",
"@X@X@X@X@X@X@X@X@X@X@X@X@X@X@X@X@X@X@X% A.T.=.@X@X@Xk K.P.%.@X@X@X@X@X@X@X@X@X@X@X@X@X@X@X@X@X@X@X@X",
"@X@X@X@X@X@X@X@X@X@X@X@X@X@X@X@X@X@X@X%.T.Z.% @X@X@XX v.K.S.= @X@X@X@X@X@X@X@X@X@X@X@X@X@X@X@X@X@X@X",
"@X@X@X@X@X@X@X@X@X@X@X@X@X@X@X@X@X@X- Z.T.%.@X@X@X@X@Xh K.P.;.  @X@X@X@X@X@X@X@X@X@X@X@X@X@X@X@X@X@X",
"@X@X@X@X@X@X@X@X@X@X@X@X@X@X@X@X@X@X=.(.Z.# @X@X@X@X@X. p.K.S.: @X@X@X@X@X@X@X@X@X@X@X@X@X@X@X@X@X@X",
"@X@X@X@X@X@X@X@X@X@X@X@X@X@X@X@X@X@X1 z.l @X@X@X@X@X@X@X< P.P.:.@X@X@X@X@X@X@X@X@X@X@X@X@X@X@X@X@X@X",
"@X@X@X@X@X@X@X@X@X@X@X@X@X@X@X@X@X@X@XX @X@X@X@X@X@X@X@X. :.R.+.@X@X@X@X@X@X@X@X@X@X@X@X@X@X@X@X@X@X",
"@X@X@X@X@X@X@X@X@X@X@X@X@X@X@X@X@X@X@X@X@X@X@X@X@X@X@X@X@Xo < % @X@X@X@X@X@X@X@X@X@X@X@X@X@X@X@X@X@X",
"@X@X@X@X@X@X@X@X@X@X@X@X@X@X@X@X@X@X@X@X@X@X@X@X@X@X@X@X@X@X@X@X@X@X@X@X@X@X@X@X@X@X@X@X@X@X@X@X@X@X"
};
