/* XPM */
static char *result[] = {
/* columns rows colors chars-per-pixel */
"50 50 193 2 ",
"   c #1A0300",
".  c #1A0C04",
"X  c #1A0F0A",
"o  c #1A120B",
"O  c #1A1612",
"+  c #1A1B1B",
"@  c #1A1818",
"#  c #1A1D21",
"$  c #1A2226",
"%  c #1A222B",
"&  c #1A2B3C",
"*  c #1A2634",
"=  c #1A2F41",
"-  c #193245",
";  c #19354C",
":  c #19384D",
">  c #193652",
",  c #193B54",
"<  c #193D5A",
"1  c #2E294F",
"2  c #282A47",
"3  c #292752",
"4  c #2D2851",
"5  c #000374",
"6  c #11007A",
"7  c #1A177A",
"8  c #1A1C64",
"9  c #2B1F6A",
"0  c #261E69",
"q  c #251973",
"w  c #251A7A",
"e  c #193D63",
"r  c #232166",
"t  c #3C2E7A",
"y  c #273B7E",
"u  c #4C134A",
"i  c #4E1E6A",
"p  c #51007C",
"a  c #4E1B74",
"s  c #5C1979",
"d  c #5D207E",
"f  c #563976",
"g  c #194465",
"h  c #19446C",
"j  c #194D6B",
"k  c #194B7B",
"l  c #194A76",
"z  c #0E577E",
"x  c #18527C",
"c  c #2C4C75",
"v  c #0C008C",
"b  c #150F89",
"n  c #161484",
"m  c #1C1482",
"M  c #14128D",
"N  c #121F88",
"B  c #010092",
"V  c #0A0093",
"C  c #00009C",
"Z  c #0B039E",
"A  c #0E0C9A",
"S  c #110F94",
"D  c #1D0C9D",
"F  c #150995",
"G  c #141B95",
"H  c #131495",
"J  c #231583",
"K  c #251687",
"L  c #301387",
"P  c #210798",
"I  c #172185",
"U  c #13259D",
"Y  c #132A9A",
"T  c #192D91",
"R  c #16389F",
"E  c #22208F",
"W  c #0100A6",
"Q  c #0B04A3",
"!  c #0D0BA2",
"~  c #0102AB",
"^  c #0A08A8",
"/  c #1E0BA2",
"(  c #1C06AA",
")  c #0811AC",
"_  c #1F1DA0",
"`  c #0301B4",
"'  c #0100BC",
"]  c #0804B7",
"[  c #1901B5",
"{  c #1602B8",
"}  c #2009A3",
"|  c #132CA3",
" . c #5A0586",
".. c #451684",
"X. c #502F8B",
"o. c #610EB0",
"O. c #4F3FB1",
"+. c #194E81",
"@. c #195284",
"#. c #19548B",
"$. c #18598A",
"%. c #1E4497",
"&. c #185A95",
"*. c #195B9C",
"=. c #316698",
"-. c #1A52AF",
";. c #1862A4",
":. c #1863A9",
">. c #186DAB",
",. c #1B63B4",
"<. c #196DBD",
"1. c #1A65BA",
"2. c #1871B8",
"3. c #50499F",
"4. c #5A5996",
"5. c #4E4DAD",
"6. c #7270B0",
"7. c #6665A5",
"8. c #0000C2",
"9. c #0000CD",
"0. c #1500C5",
"q. c #1500CA",
"w. c #0000D4",
"e. c #0700D7",
"r. c #1200D3",
"t. c #1200DB",
"y. c #0E00EE",
"u. c #1000E0",
"i. c #1D5FCB",
"p. c #186DC1",
"a. c #1874C7",
"s. c #1975CB",
"d. c #147EDA",
"f. c #177AD5",
"g. c #0679D7",
"h. c #007DFF",
"j. c #057BEC",
"k. c #6880B2",
"l. c #6792A8",
"z. c #1B88CB",
"x. c #1784D4",
"c. c #188AD8",
"v. c #2288CE",
"b. c #0C81E9",
"n. c #1883E3",
"m. c #1785EC",
"M. c #178BEF",
"N. c #1786E6",
"B. c #1D9AE9",
"V. c #0085FF",
"C. c #0A8BFF",
"Z. c #0089FF",
"A. c #1789F4",
"S. c #178FFF",
"D. c #1884F0",
"F. c #1693FF",
"G. c #1992FF",
"H. c #179BFF",
"J. c #1A9EFE",
"K. c #1993F2",
"L. c #3E9CEA",
"P. c #1FA4E5",
"I. c #01A1FF",
"U. c #17A3FF",
"Y. c #16ABFF",
"T. c #1BA7FB",
"R. c #0AB5FC",
"E. c #16B4FF",
"W. c #1BB4FA",
"Q. c #16BCFF",
"!. c #20A4E7",
"~. c #21AEE9",
"^. c #4FA8ED",
"/. c #55ADEE",
"(. c #47BAFB",
"). c #16C3FF",
"_. c #15CCFF",
"`. c #8B9697",
"'. c #9383B9",
"]. c #AB94B4",
"[. c #86B3AA",
"{. c #ACA7AF",
"}. c #CBA2BF",
"|. c #89BCE2",
" X c #CEB7DA",
".X c #90C4E2",
"XX c #B7DDEC",
"oX c #D1D2CA",
"OX c #C4DADE",
"+X c #FDE5DE",
"@X c #FFEBE1",
"#X c white",
"$X c None",
/* pixels */
"$X$X$X$X$X$X$X$X$X$X$X$X$X$X$X$X$X$X$X$X$X$X$X$X$X$X$X$X$X$X$X$X$X$X$X$X$X$X$X$X$X$X$X$X$X$X$X$X$X$X",
"$X$X$X$X$X$X$X$X$X$X$X$X$X$X$X$X$X$X$X$X$X$X$X$X$X$X$X$X$X$X$X$X$X$X$X$X$X$X$X$X$X$X$X$X$X$X$X$X$X$X",
"$X$X$X$X$X$X$X$X$X$X$X$X$X$X$X$X$X$X$X$X$X$X$X$X$X$X$X$X$X$X$X$X$X$X$X$X$X$X$X$X$X$X$X$X$X$X$X$X$X$X",
"$X$X$X$X$X$X$X$X$X$X$X$X$X$X$X$X$X$X$X$X$X$X$X$X$X$X$X$X$X$X$X$X$X$X$X$X$X$X$X$X$X$X$X$X$X$X$X$X$X$X",
"$X$X$X$X$X$X$X$X$X$X$X$X$X$X$X$X$X$X$X$X$X$X$X$X$X$X$X$X$X$X$X$X$X$X$X$X$X$X$X$X$X$X$X$X$X$X$X$X$X$X",
"$X$X$X$X$X$X$X$X$X$X$X$X$X$X$X$X$X$X$X$X$X$X$X$X$X$X$X$X$X$X$X$X$X$X$X$X$X$X$X$X$X$X$X$X$X$X$X$X$X$X",
"$X$X$X$X$X$X$X$X$X$X$X$X$X$X$X$X$X$X$X$X$X$X$X$X$X$X$X$X$X$X$X$X$X$X$X$X$X$X$X$X$X$X$X$X$X$X$X$X$X$X",
"$X$X$X$X$X$X$X$X$X$X$X$X$X$X$X$X$X$X$X$X$X$X$X$X$X$X$X$X$X$X$X$X$X$X$X$X$X$X$X$X$X$X$X$X$X$X$X$X$X$X",
"$X$X$X$X$X$X$X$X$X$X$X$X$X$X$X$X$X$X$X$X$X$X$X$X$X$X$X$X$X$X$X$X$X$X$X$X$X$X$X$X$X$X$X$X$X$X$X$X$X$X",
"$X$X$X$X$X$X$X$X$X$X$X$X$X$X$X$X$X$X$X$X$X$X$X$X$X$X$X$X$X$X$X$X$X$X$X$X$X$X$X$X$X$X$X$X$X$X$X$X$X$X",
"$X$X$X$X$X$X$X$X$X$X$X$X$X$X$X$X$X$X$X$X$X$X8 7 n M 7 $X$X$X$X$X$X$X$X$X$X$X$X$X$X$X$X$X$X$X$X$X$X$X",
"$X$X$X$X$X$X$X$X$X$X$X$X$X$X$X$X$Xw K D D D B ~ w.9.9.' H r $X$X$X$X$X$X$X$X$X$X$X$X$X$X$X$X$X$X$X$X",
"$X$X$X$X$X$X$X$X$X$X$X$X$X$X$XJ q.t.q.q.r.` {.oX_ ` ` ] 9.9.] r $X$X$X$X$X$X$X$X$X$X$X$X$X$X$X$X$X$X",
"$X$X$X$X$X$X$X$X$X$X$X$X$X$X/ u.{ } } / ^ q #X#XE ' ` ` ` ` 8.w.S $X$X$X$X$X$X$X$X$X$X$X$X$X$X$X$X$X",
"$X$X$X$X$X$X$X$X$X$X$X$X$X/ t./ m A ! A Z S 6.7.~ 8.' ] ' ' ` ` e.M $X$X$X$X$X$X$X$X$X$X$X$X$X$X$X$X",
"$X$X$X$X$Xq / K 9 $X$X4 ( t./ m ^ 8.8.' ' 8.W ` ] S M S Z Q ' 8.` 9.3 $X$X$X$X$X$X$X$X$X$X$X$X$X$X$X",
"$X$X$X$XJ y.q.t.t.{ [ 0.r.( 7 ` 9.~ ~ 8.' ' w.^ n ! ~ V m N 5 B ' w.S $X$X$X$X$X$X$X$X$X$X$X$X$X$X$X",
"$X$X$X$X0.r $X4 ( 0.0.0.[ 7 ` 9.Z p  .P Z V m 7 ' ` G ,.d.g.[.`.Y ` ~ $X$X$X$X$X$X$X$X$X$X$X$X$X$X$X",
"$X$X$XK 9 $X$X$X$X/ { ! r w ' V c 5.O.X.t =.c ~ ~ %.!.Y.Z.XX X4.l.-.Y # $X$X$X$X$X$X$X$X$X$X$X$X$X$X",
"$X$X$X1 $X$Xa s m 0.L ..o. .y z.P.R.R.F.Y.!.) W %.W.H.V.^.@X5 w '.(.R.@.$X$X$X$X$X$X$X$X$X$X$X$X$X$X",
"$X$X$X$X$X$X$XL r.r i X.u 2 W.B.U | v.W.!.U C T T.F.S.V./.+X5 3.].L.I.d.o $X$X$X$X$X$X$X$X$X$X$X$X$X",
"$X$X$X$X$X$X$X{ q $X$X$X$Xz U.6 B C V R G W H !.H.S.S.S.j.OX}.f 6.F.H.H.& $X$X$X$X$X$X$X$X$X$X$X$X$X",
"$X$X$X$X$X$X$X} $X$X$X$X$X>.i.N s.2.G C ' v v.U.S.F.S.G.C.b..X|.K.C.F.H.; $X$X$X$X$X$X$X$X$X$X$X$X$X",
"$X$X$X$X$X$X$X1 $X$X$X$X$X&.B.J.U.Y.B.-.N p.T.S.S.S.S.G.G.C.h.V.S.G.F.H.: $X$X$X$X$X$X$X$X$X$X$X$X$X",
"$X$X$X$X$X$X$X$X$X$X$X$X$X+.Y.F.S.S.F.U.B.H.S.S.S.S.S.S.S.F.F.F.S.S.F.F.- $X$X$X$X$X$X$X$X$X$X$X$X$X",
"$X$X$X$X$X$X$X$X$X$X$X$X$X, U.F.S.S.G.S.F.F.S.S.S.S.S.S.A.N.U.F.S.S.H.m.@ $X$X$X$X$X$X$X$X$X$X$X$X$X",
"$X$X$X$X$X$X$X$X$X$X$X$X$XO D.H.S.S.S.S.G.G.S.S.S.F.S.H.N.@ l H.Y.Y.Q.;.$X$X$X$X$X$X$X$X$X$X$X$X$X$X",
"$X$X$X$X$X$X$X$X$X$X$X$X$X$X$.Y.S.S.S.S.S.S.S.S.S.S.S.S.H.2.# $ < g x * $X$X$X$X$X$X$X$X$X$X$X$X$X$X",
"$X$X$X$X$X$X$X$X$X$X$X$X$X$Xo m.U.S.G.S.S.S.S.S.S.S.S.S.G.H.H.*.g x + $X$X$X$X$X$X$X$X$X$X$X$X$X$X$X",
"$X$X$X$X$X$X$X$X$X$X$X$X$X$X$X% H.U.S.S.S.S.S.S.S.S.S.S.S.S.F.U.).M.+ $X$X$X$X$X$X$X$X$X$X$X$X$X$X$X",
"$X$X$X$X$X$X$X$X$X$X$X$X$X$X$X$X& K.U.F.G.S.S.S.S.S.G.S.S.G.H.Y.2.X $X$X$X$X$X$X$X$X$X$X$X$X$X$X$X$X",
"$X$X$X$X$X$X$X$X$X$X$X$X$X$X$X$X$X# >.U.Y.F.F.F.S.S.F.F.H.Y.K.x   $X$X$X$X$X$X$X$X$X$X$X$X$X$X$X$X$X",
"$X$X$X$X$X$X$X$X$X$X$X$X$X$X$X$X$X$X  : &.a.F.U.U.U.F.M.x.$.% $X$X$X$X$X$X$X$X$X$X$X$X$X$X$X$X$X$X$X",
"$X$X$X$X$X$X$X$X$X$X$X$X$X$X$X$X$X$X$X$X+ j < < g k g : . $X$X$X$X$X$X$X$X$X$X$X$X$X$X$X$X$X$X$X$X$X",
"$X$X$X$X$X$X$X$X$X$X$X$X$X$X$X$X$X$X$X$X2.).l - +.+ c.c.% $X$X$X$X$X$X$X$X$X$X$X$X$X$X$X$X$X$X$X$X$X",
"$X$X$X$X$X$X$X$X$X$X$X$X$X$X$X$X$X$X$X+ S.Y.< a.W., s.Q.<.  $X$X$X$X$X$X$X$X$X$X$X$X$X$X$X$X$X$X$X$X",
"$X$X$X$X$X$X$X$X$X$X$X$X$X$X$X$X$X$X$Xh E.D.  &.Q.,.& U.U.; $X$X$X$X$X$X$X$X$X$X$X$X$X$X$X$X$X$X$X$X",
"$X$X$X$X$X$X$X$X$X$X$X$X$X$X$X$X$X$Xo f.Q.@.> < N.E.- &.Q.n.@ $X$X$X$X$X$X$X$X$X$X$X$X$X$X$X$X$X$X$X",
"$X$X$X$X$X$X$X$X$X$X$X$X$X$X$X$X$X$Xo D.U.% F.&.h E.s.$ U.H.# $X$X$X$X$X$X$X$X$X$X$X$X$X$X$X$X$X$X$X",
"$X$X$X$X$X$X$X$X$X$X$X$X$X$X$X$X$X$X$X* * @.Y.A.$ m.E.+.& , $X$X$X$X$X$X$X$X$X$X$X$X$X$X$X$X$X$X$X$X",
"$X$X$X$X$X$X$X$X$X$X$X$X$X$X$X$X$X$X$X$Xe Y.Y.:.  @.E.H.@ $X$X$X$X$X$X$X$X$X$X$X$X$X$X$X$X$X$X$X$X$X",
"$X$X$X$X$X$X$X$X$X$X$X$X$X$X$X$X$X$X$X@ F.Y.F.+ $X@ S.E.a.$X$X$X$X$X$X$X$X$X$X$X$X$X$X$X$X$X$X$X$X$X",
"$X$X$X$X$X$X$X$X$X$X$X$X$X$X$X$X$X$X$X&.Y.Y.#.$X$X$X#.Y.U.- $X$X$X$X$X$X$X$X$X$X$X$X$X$X$X$X$X$X$X$X",
"$X$X$X$X$X$X$X$X$X$X$X$X$X$X$X$X$X$X$ F.U.A.o $X$X$XO A.E.a.  $X$X$X$X$X$X$X$X$X$X$X$X$X$X$X$X$X$X$X",
"$X$X$X$X$X$X$X$X$X$X$X$X$X$X$X$X$X$X:.Y.U.k $X$X$X$X$X+.Y.U.< $X$X$X$X$X$X$X$X$X$X$X$X$X$X$X$X$X$X$X",
"$X$X$X$X$X$X$X$X$X$X$X$X$X$X$X$X$X& H.U.N.o $X$X$X$X$Xo A._.a.  $X$X$X$X$X$X$X$X$X$X$X$X$X$X$X$X$X$X",
"$X$X$X$X$X$X$X$X$X$X$X$X$X$X$X$X$X;.W.Y.g $X$X$X$X$X$X$X> z.h $X$X$X$X$X$X$X$X$X$X$X$X$X$X$X$X$X$X$X",
"$X$X$X$X$X$X$X$X$X$X$X$X$X$X$X$X$X@.Q.<.  $X$X$X$X$X$X$X$X. $X$X$X$X$X$X$X$X$X$X$X$X$X$X$X$X$X$X$X$X",
"$X$X$X$X$X$X$X$X$X$X$X$X$X$X$X$X$X+ - o $X$X$X$X$X$X$X$X$X$X$X$X$X$X$X$X$X$X$X$X$X$X$X$X$X$X$X$X$X$X",
"$X$X$X$X$X$X$X$X$X$X$X$X$X$X$X$X$X$X$X$X$X$X$X$X$X$X$X$X$X$X$X$X$X$X$X$X$X$X$X$X$X$X$X$X$X$X$X$X$X$X"
};
