/* XPM */
static char *result[] = {
/* columns rows colors chars-per-pixel */
"50 50 198 2 ",
"   c #1A0300",
".  c #1A0C01",
"X  c #1A110C",
"o  c #1A1105",
"O  c #1A1414",
"+  c #1A1916",
"@  c #1A1B1B",
"#  c #1A171C",
"$  c #191D24",
"%  c #30162F",
"&  c #1A2125",
"*  c #1A222A",
"=  c #1A2833",
"-  c #192D3B",
";  c #1A2730",
":  c #0D333C",
">  c #19313D",
",  c #1A3144",
"<  c #19334A",
"1  c #193A4F",
"2  c #193953",
"3  c #193D5B",
"4  c #193755",
"5  c #192B41",
"6  c #2C294D",
"7  c #2B2755",
"8  c #2A2558",
"9  c #000063",
"0  c #00017D",
"q  c #020073",
"w  c #1A1A7B",
"e  c #1A1777",
"r  c #13146B",
"t  c #291F66",
"y  c #271D6E",
"u  c #341C6E",
"i  c #2B1D72",
"p  c #251879",
"a  c #25197A",
"s  c #193F62",
"d  c #1C287D",
"f  c #26216B",
"g  c #531B62",
"h  c #5E187B",
"j  c #482164",
"k  c #592177",
"l  c #19435F",
"z  c #194366",
"x  c #19456C",
"c  c #194A6D",
"v  c #194B72",
"b  c #194C7D",
"n  c #184973",
"m  c #195277",
"M  c #33677C",
"N  c #050088",
"B  c #120688",
"V  c #191983",
"C  c #14148A",
"Z  c #1B1483",
"A  c #040094",
"S  c #0B0293",
"D  c #02009D",
"F  c #0C0A9E",
"G  c #0C029A",
"H  c #110D9D",
"J  c #1A0E96",
"K  c #141794",
"L  c #380085",
"P  c #221581",
"I  c #21118C",
"U  c #241881",
"Y  c #3F1585",
"T  c #260793",
"R  c #211193",
"E  c #291094",
"W  c #193093",
"Q  c #0201A5",
"!  c #0C0AA6",
"~  c #0100AD",
"^  c #0B05A4",
"/  c #1D09A3",
"(  c #1B05A8",
")  c #0F1FA5",
"_  c #0300B3",
"`  c #0100BC",
"'  c #1A03B4",
"]  c #1501BE",
"[  c #1A00BC",
"{  c #1605B2",
"}  c #142CA6",
"|  c #1538AB",
" . c #0132B7",
".. c #5D0086",
"X. c #620B95",
"o. c #533090",
"O. c #442785",
"+. c #5711A1",
"@. c #533FB2",
"#. c #195384",
"$. c #18568B",
"%. c #195989",
"&. c #185C97",
"*. c #185D9F",
"=. c #185796",
"-. c #194F87",
";. c #30498D",
":. c #186183",
">. c #18639A",
",. c #1C48A2",
"<. c #1C5DA8",
"1. c #1548B5",
"2. c #1863A5",
"3. c #1864AC",
"4. c #186EAC",
"5. c #1B65B2",
"6. c #186AB5",
"7. c #186DBC",
"8. c #1D67BC",
"9. c #1976BA",
"0. c #2271BB",
"q. c #5F4684",
"w. c #485597",
"e. c #684783",
"r. c #6C6D99",
"t. c #5545A0",
"y. c #4846A5",
"u. c #724DA0",
"i. c #605FB0",
"p. c #6F6CAA",
"a. c #6275AD",
"s. c #0100C4",
"d. c #0000CB",
"f. c #1600C4",
"g. c #1400CD",
"h. c #0000D2",
"j. c #1300D3",
"k. c #1100DB",
"l. c #0D00ED",
"z. c #1871C5",
"x. c #1876CB",
"c. c #1A78C5",
"v. c #0070DC",
"b. c #187CD3",
"n. c #177DDC",
"m. c #177FD3",
"M. c #1966C7",
"N. c #0074EE",
"B. c #1C7DE3",
"V. c #0079F4",
"C. c #8464AF",
"Z. c #9E7DB9",
"A. c #3A8CBE",
"S. c #4E93B7",
"D. c #1780CF",
"F. c #1881D5",
"G. c #1B96DE",
"H. c #2286C6",
"J. c #2293D4",
"K. c #1887E8",
"L. c #1E9AEB",
"P. c #0184FE",
"I. c #048AFE",
"U. c #178FFF",
"Y. c #188FFF",
"T. c #1787F0",
"R. c #0A9AFF",
"E. c #1792F6",
"W. c #1793FF",
"Q. c #1893FF",
"!. c #179BFF",
"~. c #1A98F6",
"^. c #17A4FF",
"/. c #16ACFF",
"(. c #1AACFE",
"). c #1DABF7",
"_. c #07BBFF",
"`. c #16B2FF",
"'. c #16BDFF",
"]. c #1DBAFE",
"[. c #17B2FA",
"{. c #22A9E4",
"}. c #6B95CC",
"|. c #5CA6DF",
" X c #4DA3E5",
".X c #49AAF1",
"XX c #16C8FF",
"oX c #8EA394",
"OX c #8A89AE",
"+X c #AA8CBD",
"@X c #C1BFBA",
"#X c #CECFBC",
"$X c #8BC0E6",
"%X c #FEE6D6",
"&X c #F4F0EA",
"*X c #ECFDF4",
"=X c #F9FFFB",
"-X c None",
/* pixels */
"-X-X-X-X-X-X-X-X-X-X-X-X-X-X-X-X-X-X-X-X-X-X-X-X-X-X-X-X-X-X-X-X-X-X-X-X-X-X-X-X-X-X-X-X-X-X-X-X-X-X",
"-X-X-X-X-X-X-X-X-X-X-X-X-X-X-X-X-X-X-X-X-X-X-X-X-X-X-X-X-X-X-X-X-X-X-X-X-X-X-X-X-X-X-X-X-X-X-X-X-X-X",
"-X-X-X-X-X-X-X-X-X-X-X-X-X-X-X-X-X-X-X-X-X-X-X-X-X-X-X-X-X-X-X-X-X-X-X-X-X-X-X-X-X-X-X-X-X-X-X-X-X-X",
"-X-X-X-X-X-X-X-X-X-X-X-X-X-X-X-X-X-X-X-X-X-X-X-X-X-X-X-X-X-X-X-X-X-X-X-X-X-X-X-X-X-X-X-X-X-X-X-X-X-X",
"-X-X-X-X-X-X-X-X-X-X-X-X-X-X-X-X-X-X-X-X-X-X-X-X-X-X-X-X-X-X-X-X-X-X-X-X-X-X-X-X-X-X-X-X-X-X-X-X-X-X",
"-X-X-X-X-X-X-X-X-X-X-X-X-X-X-X-X-X-X-X-X-X-X-X-X-X-X-X-X-X-X-X-X-X-X-X-X-X-X-X-X-X-X-X-X-X-X-X-X-X-X",
"-X-X-X-X-X-X-X-X-X-X-X-X-X-X-X-X-X-X-X-X-X-X-X-X-X-X-X-X-X-X-X-X-X-X-X-X-X-X-X-X-X-X-X-X-X-X-X-X-X-X",
"-X-X-X-X-X-X-X-X-X-X-X-X-X-X-X-X-X-X-X-X-X-X-X-X-X-X-X-X-X-X-X-X-X-X-X-X-X-X-X-X-X-X-X-X-X-X-X-X-X-X",
"-X-X-X-X-X-X-X-X-X-X-X-X-X-X-X-X-X-X-X-X-X-X-X-X-X-X-X-X-X-X-X-X-X-X-X-X-X-X-X-X-X-X-X-X-X-X-X-X-X-X",
"-X-X-X-X-X-X-X-X-X-X-X-X-X-X-X-X-X-X-X-X-X-X-X-X-X-X-X-X-X-X-X-X-X-X-X-X-X-X-X-X-X-X-X-X-X-X-X-X-X-X",
"-X-X-X-X-X-X-X-X-X-X-X-X-X-X-X-X-X-X-X-X-X-X-X-X-X-X-X-X-X-X-X-X-X-X-X-X-X-X-X-X-X-X-X-X-X-X-X-X-X-X",
"-X-X-X-X-X-X-X-X-X-X-X-X-X-X-X-X-X-X-X-X-X-X-X-X-X-X-X-X-X-X-X-X-X-X-X-X-X-X-X-X-X-X-X-X-X-X-X-X-X-X",
"-X-X-X-X-X-X-X-X-X-X-X-X-X-X-X-X-X-X-X-X-X-X-Xr w Z w 8 -X-X-X-X-X-X-X-X-X-X-X-X-X-X-X-X-X-X-X-X-X-X",
"-X-X-X-X-X-X-X-X-X-X-X-X-X-X-X-X-Xf I R R R S D d.h.d.d.! w -X-X-X-X-X-X-X-X-X-X-X-X-X-X-X-X-X-X-X-X",
"-X-X-X-X-X-X-X-X-X-X-X-X-X-X-Xf ' j.j.g.j.d.t.#Xi.~ _ _ s.h.s.C -X-X-X-X-X-X-X-X-X-X-X-X-X-X-X-X-X-X",
"-X-X-X-X-X-X-X-X-X-X-X-X-X-Xp j.j./ / / ( 0 #X=XOXD _ _ _ _ ` h.s.6 -X-X-X-X-X-X-X-X-X-X-X-X-X-X-X-X",
"-X-X-X-X-X-X-X-X-X-X-X-X-Xa k.[ I J F F H A y.OXF s.` _ ` ` ` _ s.d.-X-X-X-X-X-X-X-X-X-X-X-X-X-X-X-X",
"-X-X-X-X-Xf / R y -X-X6 R j.' Z F ` s.` ` s._ Q ` F J H F G _ s._ h.F -X-X-X-X-X-X-X-X-X-X-X-X-X-X-X",
"-X-X-X-Xt l.g.k.k.] ' f.j.[ Z ^ d._ Q ` ` ` d.` C K ~ ~ B V r 0 _ s.s.6 -X-X-X-X-X-X-X-X-X-X-X-X-X-X",
"-X-X-X-Xf.U -X-X/ g.f.f.[ P F d.~ L ..T ^ G B w ! s.S ,.c.v.A.oXw.A d.r -X-X-X-X-X-X-X-X-X-X-X-X-X-X",
"-X-X-Xp U -X-X-X-XJ { ! w y ~ D d w.@.o.O.;.M C s.C H.(.R..X&Xp.r.S. .f -X-X-X-X-X-X-X-X-X-X-X-X-X-X",
"-X-X-X6 -X-Xj h i ] T O.+.X.i 9.{.[._.R.!.].1._ C J./.U.N.*XZ.9 u.}./.K.$ -X-X-X-X-X-X-X-X-X-X-X-X-X",
"-X-X-X-X-X-X-Xu k.a j k g % G.].| ) 8.).].<.D S H.^.Y.U.N.*XC.q +Xa.R./.n -X-X-X-X-X-X-X-X-X-X-X-X-X",
"-X-X-X-X-X-X-X{ I -X-X-X-X: (.) 0 A N } } ^ G 0./.U.Y.Y.P.|.%Xq.e. XI.^.3.-X-X-X-X-X-X-X-X-X-X-X-X-X",
"-X-X-X-X-X-X-X( -X-X-X-X-Xn B.V z.0.| A ` Q ,.`.W.U.U.U.W.V. X$X XI.Y.^.x.. -X-X-X-X-X-X-X-X-X-X-X-X",
"-X-X-X-X-X-X-X7 -X-X-X-X-Xz E.L.(.^.).3.K W L.W.U.U.U.U.U.Q.P.P.I.Y.Y.!.x.o -X-X-X-X-X-X-X-X-X-X-X-X",
"-X-X-X-X-X-X-X-X-X-X-X-X-X< !.W.Y.U.W.^.L.^.W.U.U.U.U.U.U.W.W.U.U.U.Y.^.7.-X-X-X-X-X-X-X-X-X-X-X-X-X",
"-X-X-X-X-X-X-X-X-X-X-X-X-X& U.!.U.U.U.Q.W.E.U.U.U.U.U.W.W.n.W.^.U.U.Y.^.#.-X-X-X-X-X-X-X-X-X-X-X-X-X",
"-X-X-X-X-X-X-X-X-X-X-X-X-X. 6.^.U.U.U.U.U.U.U.Y.U.U.U.W.^.z X m.^././.^.= -X-X-X-X-X-X-X-X-X-X-X-X-X",
"-X-X-X-X-X-X-X-X-X-X-X-X-X-X, ^.W.U.U.U.U.U.U.W.U.U.U.U.W.E.z O > z m n X -X-X-X-X-X-X-X-X-X-X-X-X-X",
"-X-X-X-X-X-X-X-X-X-X-X-X-X-X  <./.U.Y.U.U.U.Y.W.U.U.U.U.Y.W.^.F.b l 3   -X-X-X-X-X-X-X-X-X-X-X-X-X-X",
"-X-X-X-X-X-X-X-X-X-X-X-X-X-X-X. m./.U.U.U.U.U.U.U.U.U.U.U.U.U.!.`.'.#.-X-X-X-X-X-X-X-X-X-X-X-X-X-X-X",
"-X-X-X-X-X-X-X-X-X-X-X-X-X-X-X-XX c./.!.U.U.W.U.U.U.U.U.U.U.U.^.!.4 -X-X-X-X-X-X-X-X-X-X-X-X-X-X-X-X",
"-X-X-X-X-X-X-X-X-X-X-X-X-X-X-X-X-X. #.~./.!.W.W.W.U.U.W.!./.!.>.@   -X. . -X-X-X-X-X-X-X-X-X-X-X-X-X",
"-X-X-X-X-X-X-X-X-X-X-X-X-X-X-X-X-X-X-X* %.F.W.!.!.^.^.Q.c.#.2 4 2.x.x.z.9.$.@ -X-X-X-X-X-X-X-X-X-X-X",
"-X-X-X-X-X-X-X-X-X-X-X-X-X-X-X-X-X-X-X-X-X. @ 2 1 < 2 z z #.b.`.`.`.`.`.'./.* -X-X-X-X-X-X-X-X-X-X-X",
"-X-X-X-X-X-X-X-X-X-X-X-X-X-X-X-X-X-X-X-X-XO 2.4.#.l * - c v 3 - l x x x v 1 -X-X-X-X-X-X-X-X-X-X-X-X",
"-X-X-X-X-X-X-X-X-X-X-X-X-X-X-X-X-X-X-X-X-X$ !.`.'.'.^.T.b.3.#.3 . -X-X-X-X-X-X-X-X-X-X-X-X-X-X-X-X-X",
"-X-X-X-X-X-X-X-X-X-X-X-X-X-X-X-X-X-X-X-X-X-X+ z #.-.6.W.^.`.XXXXx -X-X-X-X-X-X-X-X-X-X-X-X-X-X-X-X-X",
"-X-X-X-X-X-X-X-X-X-X-X-X-X-X-X-X-X-X-X-X-X-X-.< , :.s $ - x &.&.* -X-X-X-X-X-X-X-X-X-X-X-X-X-X-X-X-X",
"-X-X-X-X-X-X-X-X-X-X-X-X-X-X-X-X-X-X-X-X-X+ ^.n.z `.`.x -X-X-X-X-X-X-X-X-X-X-X-X-X-X-X-X-X-X-X-X-X-X",
"-X-X-X-X-X-X-X-X-X-X-X-X-X-X-X-X-X-X-X-X-X*.^./.< =.`.E.@ -X-X-X-X-X-X-X-X-X-X-X-X-X-X-X-X-X-X-X-X-X",
"-X-X-X-X-X-X-X-X-X-X-X-X-X-X-X-X-X-X-X-X= !.^.E.X & !./.&.-X-X-X-X-X-X-X-X-X-X-X-X-X-X-X-X-X-X-X-X-X",
"-X-X-X-X-X-X-X-X-X-X-X-X-X-X-X-X-X-X-X  7.^./.b -X-X6.`.W.& -X-X-X-X-X-X-X-X-X-X-X-X-X-X-X-X-X-X-X-X",
"-X-X-X-X-X-X-X-X-X-X-X-X-X-X-X-X-X-X-X, ^.^.T.X -X-X= !.`.<.-X-X-X-X-X-X-X-X-X-X-X-X-X-X-X-X-X-X-X-X",
"-X-X-X-X-X-X-X-X-X-X-X-X-X-X-X-X-X-X  x.^.^.c -X-X-X-X3./.!.* -X-X-X-X-X-X-X-X-X-X-X-X-X-X-X-X-X-X-X",
"-X-X-X-X-X-X-X-X-X-X-X-X-X-X-X-X-X-X4 ^.^.K.. -X-X-X-X* W.`.7.. -X-X-X-X-X-X-X-X-X-X-X-X-X-X-X-X-X-X",
"-X-X-X-X-X-X-X-X-X-X-X-X-X-X-X-X-XX n.^.^.< -X-X-X-X-X-X*.'.^.- -X-X-X-X-X-X-X-X-X-X-X-X-X-X-X-X-X-X",
"-X-X-X-X-X-X-X-X-X-X-X-X-X-X-X-X-X3 ^.(.z.  -X-X-X-X-X-X@ m.b.@ -X-X-X-X-X-X-X-X-X-X-X-X-X-X-X-X-X-X",
"-X-X-X-X-X-X-X-X-X-X-X-X-X-X-X-X-X< (.~.* -X-X-X-X-X-X-X-XX X -X-X-X-X-X-X-X-X-X-X-X-X-X-X-X-X-X-X-X"
};
