/* XPM */
static char *result[] = {
/* columns rows colors chars-per-pixel */
"50 50 187 2 ",
"   c #1A0400",
".  c #1A0900",
"X  c #1A0F0A",
"o  c #1A1209",
"O  c #1A1412",
"+  c #1A1B1C",
"@  c #1A1817",
"#  c #1A1925",
"$  c #1A242B",
"%  c #1A2124",
"&  c #1A2634",
"*  c #192C3B",
"=  c #1A2836",
"-  c #1B1C5F",
";  c #1A2C42",
":  c #1A2E48",
">  c #193444",
",  c #1A334A",
"<  c #002354",
"1  c #1A3455",
"2  c #193D5B",
"3  c #1A3952",
"4  c #302E42",
"5  c #29245B",
"6  c #000069",
"7  c #1E1E6F",
"8  c #030B73",
"9  c #160578",
"0  c #1E1C71",
"q  c #1A1679",
"w  c #151175",
"e  c #27196A",
"r  c #0C307F",
"t  c #292065",
"y  c #252B75",
"u  c #631F79",
"i  c #194264",
"p  c #19466B",
"a  c #19496C",
"s  c #194A72",
"d  c #194C7B",
"f  c #19517E",
"g  c #16537F",
"h  c #0B028F",
"j  c #0B0386",
"k  c #150587",
"l  c #14128C",
"z  c #171580",
"x  c #0C0290",
"c  c #01019C",
"v  c #0B039D",
"b  c #0F0B9B",
"n  c #0C0B94",
"m  c #110E92",
"M  c #1F0C96",
"N  c #1E0A9D",
"B  c #16159B",
"V  c #241483",
"C  c #22118B",
"Z  c #331581",
"A  c #200D93",
"S  c #240B9C",
"D  c #360A99",
"F  c #162896",
"G  c #163F9F",
"H  c #1C2A87",
"J  c #312F97",
"K  c #0300A4",
"L  c #0B07A5",
"P  c #0B09A3",
"I  c #0200AC",
"U  c #0904AD",
"Y  c #0B09AA",
"T  c #1B07A6",
"R  c #1D08A2",
"E  c #1B04AA",
"W  c #0300B4",
"Q  c #0200BB",
"!  c #1901BB",
"~  c #1B04B3",
"^  c #0B15B2",
"/  c #2506A7",
"(  c #0F22AF",
")  c #1134B8",
"_  c #2C29A2",
"`  c #490D95",
"'  c #621289",
"]  c #640B9C",
"[  c #680C98",
"{  c #472A8C",
"}  c #194C81",
"|  c #195384",
" . c #195589",
".. c #195A8D",
"X. c #195D94",
"o. c #195E9C",
"O. c #234989",
"+. c #224180",
"@. c #18629C",
"#. c #186596",
"$. c #1A47A8",
"%. c #184EBA",
"&. c #1864A3",
"*. c #1866AA",
"=. c #186FA4",
"-. c #186DB3",
";. c #186DBE",
":. c #1E61B4",
">. c #1873BA",
",. c #1878BD",
"<. c #2369A8",
"1. c #2373B2",
"2. c #644687",
"3. c #5F5DAE",
"4. c #605FA4",
"5. c #7B5CAB",
"6. c #7472A5",
"7. c #7260B2",
"8. c #0100C4",
"9. c #0000CE",
"0. c #0E00CB",
"q. c #1300CA",
"w. c #1701C3",
"e. c #0000D3",
"r. c #0B00D8",
"t. c #1400D3",
"y. c #1548C4",
"u. c #186FC3",
"i. c #0C72CD",
"p. c #187ACD",
"a. c #1874C8",
"s. c #187AD7",
"d. c #197EEE",
"f. c #007EFF",
"g. c #1780BA",
"h. c #2484BE",
"j. c #78A3B5",
"k. c #1881D7",
"l. c #1883DC",
"z. c #1E8CDB",
"x. c #2386CC",
"c. c #2082D2",
"v. c #0981E9",
"b. c #1785E4",
"n. c #1884E4",
"m. c #1784EB",
"M. c #1793EC",
"N. c #058AFF",
"B. c #0E8FFF",
"V. c #0083FF",
"C. c #178FFF",
"Z. c #188FF9",
"A. c #009DFF",
"S. c #1792F6",
"D. c #1793FE",
"F. c #1991FE",
"G. c #179BFF",
"H. c #1897F6",
"J. c #289AE7",
"K. c #17A3FF",
"L. c #16ABFF",
"P. c #19ADFF",
"I. c #1CA5FE",
"U. c #16B3FF",
"Y. c #16BCFF",
"T. c #27ABF3",
"R. c #489ADB",
"E. c #67B4D5",
"W. c #40A2E9",
"Q. c #52B4F6",
"!. c #15C2FF",
"~. c #16D3FF",
"^. c #7DC4EE",
"/. c #8A89B0",
"(. c #A099B3",
"). c #BB93B3",
"_. c #BCA4B8",
"`. c #D3B8C8",
"'. c #8CCBED",
"]. c #9ED6F5",
"[. c #AFD5E3",
"{. c #CBD9D9",
"}. c #EFF0DC",
"|. c #FFFFD0",
" X c #F2E9E1",
".X c #FFFFFD",
"XX c None",
/* pixels */
"XXXXXXXXXXXXXXXXXXXXXXXXXXXXXXXXXXXXXXXXXXXXXXXXXXXXXXXXXXXXXXXXXXXXXXXXXXXXXXXXXXXXXXXXXXXXXXXXXXXX",
"XXXXXXXXXXXXXXXXXXXXXXXXXXXXXXXXXXXXXXXXXXXXXXXXXXXXXXXXXXXXXXXXXXXXXXXXXXXXXXXXXXXXXXXXXXXXXXXXXXXX",
"XXXXXXXXXXXXXXXXXXXXXXXXXXXXXXXXXXXXXXXXXXXXXXXXXXXXXXXXXXXXXXXXXXXXXXXXXXXXXXXXXXXXXXXXXXXXXXXXXXXX",
"XXXXXXXXXXXXXXXXXXXXXXXXXXXXXXXXXXXXXXXXXXXXXXXXXXXXXXXXXXXXXXXXXXXXXXXXXXXXXXXXXXXXXXXXXXXXXXXXXXXX",
"XXXXXXXXXXXXXXXXXXXXXXXXXXXXXXXXXXXXXXXXXXXXXXXXXXXXXXXXXXXXXXXXXXXXXXXXXXXXXXXXXXXXXXXXXXXXXXXXXXXX",
"XXXXXXXXXXXXXXXXXXXXXXXXXXXXXXXXXXXXXXXXXXXXXXXXXXXXXXXXXXXXXXXXXXXXXXXXXXXXXXXXXXXXXXXXXXXXXXXXXXXX",
"XXXXXXXXXXXXXXXXXXXXXXXXXXXXXXXXXXXXXXXXXXXXXXXXXXXXXXXXXXXXXXXXXXXXXXXXXXXXXXXXXXXXXXXXXXXXXXXXXXXX",
"XXXXXXXXXXXXXXXXXXXXXXXXXXXXXXXXXXXXXXXXXXXXXXXXXXXXXXXXXXXXXXXXXXXXXXXXXXXXXXXXXXXXXXXXXXXXXXXXXXXX",
"XXXXXXXXXXXXXXXXXXXXXXXXXXXXXXXXXXXXXXXXXXXXXXXXXXXXXXXXXXXXXXXXXXXXXXXXXXXXXXXXXXXXXXXXXXXXXXXXXXXX",
"XXXXXXXXXXXXXXXXXXXXXXXXXXXXXXXXXXXXXXXXXXXXXXXXXXXXXXXXXXXXXXXXXXXXXXXXXXXXXXXXXXXXXXXXXXXXXXXXXXXX",
"XXXXXXXXXXXXXXXXXXXXXXXXXXXXXXXXXXXXXXXXXXXXXXXXXXXXXXXXXXXXXXXXXXXXXXXXXXXXXXXXXXXXXXXXXXXXXXXXXXXX",
"XXXXXXXXXXXXXXXXXXXXXXXXXXXXXXXXXXXXXXXXXXXXXX- k l l z 5 XXXXXXXXXXXXXXXXXXXXXXXXXXXXXXXXXXXXXXXXXX",
"XXXXXXXXXXXXXXXXXXXXXXXXXXXXXXXXXX5 S ! w.~ T h K 9.9.9.8.L 0 XXXXXXXXXXXXXXXXXXXXXXXXXXXXXXXXXXXXXX",
"XXXXXXXXXXXXXXXXXXE ! C XXXXXXXXN t.~ T R T K (.|._ W W W 8.e.Q q XXXXXXXXXXXXXXXXXXXXXXXXXXXXXXXXXX",
"XXXXXXXXXXXXXXXXR V e q.t.A A t.! l m L v c w }..XJ W W W W W Q e.Y XXXXXXXXXXXXXXXXXXXXXXXXXXXXXXXX",
"XXXXXXXXXXXXXX5 XXXXXX4 R q.q.V 0 W 8.Q Q 8.I 3.3.I 8.W U W 8.8.W e.P XXXXXXXXXXXXXXXXXXXXXXXXXXXXXX",
"XXXXXXXXXXXXXXXXXXC T N M M C 5 U 8.W Q W W Q I W U m P v k j k W Q e.7 XXXXXXXXXXXXXXXXXXXXXXXXXXXX",
"XXXXXXXXXXXXXXS r.9.0.q.0.q.M P 8.Q K v W Q Q 8.b m K j 9 y r < 8 W e.Y XXXXXXXXXXXXXXXXXXXXXXXXXXXX",
"XXXXXXXXXXXX~ 0.D ` Z S / / M Q 8.P 1.h.$.^ ( H x K q O.x.f.W.[.j.G c I # XXXXXXXXXXXXXXXXXXXXXXXXXX",
"XXXXXXXXXXV ! XXXX' [ ] ] u e K b +.F B $.*.<.l x :.J.K.A.J. X5.{ E.i.%.1 XXXXXXXXXXXXXXXXXXXXXXXXXX",
"XXXXXXXXXXt XXXXXXXXXXXXXXXX> m.x.O.) y.F j j n k.L.G.C.f.[._.6 7.6.T.!.,.. XXXXXXXXXXXXXXXXXXXXXXXX",
"XXXXXXXXXXXXXXXXXXXXXXXXXXXXg Y.G.S.P.L.G.s.%.z.I.C.C.C.f.'.`.6 5./.S.G.S.$ XXXXXXXXXXXXXXXXXXXXXXXX",
"XXXXXXXXXXXXXXXXXXXXXXXXXXXX*.K.D.D.C.C.F.G.P.D.Z.C.C.C.B.v.{.).2.R.N.F.G.> XXXXXXXXXXXXXXXXXXXXXXXX",
"XXXXXXXXXXXXXXXXXXXXXXXXXXXX-.K.C.C.C.C.C.F.F.C.C.C.C.C.D.N.d.^.Q.N.D.F.G.> XXXXXXXXXXXXXXXXXXXXXXXX",
"XXXXXXXXXXXXXXXXXXXXXXXXXXXXo.K.C.C.C.C.C.C.C.C.C.C.C.C.C.F.B.V.N.F.F.D.D.* XXXXXXXXXXXXXXXXXXXXXXXX",
"XXXXXXXXXXXXXXXXXXXXXXXXXXXXa L.C.C.C.C.C.C.C.C.C.C.C.C.C.G.K.C.C.D.C.G.l.@ XXXXXXXXXXXXXXXXXXXXXXXX",
"XXXXXXXXXXXXXXXXXXXXXXXXXXXX$ S.G.C.C.C.C.C.C.C.D.C.C.C.G.;.o.L.G.D.D.U.@.XXXXXXXXXXXXXXXXXXXXXXXXXX",
"XXXXXXXXXXXXXXXXXXXXXXXXXXXXXX@.L.C.C.C.C.D.C.D.C.C.C.C.G.a.  , n.D.G.D.* XXXXXXXXXXXXXXXXXXXXXXXXXX",
"XXXXXXXXXXXXXXXXXXXXXXXXXXXXXX# M.K.C.C.C.C.C.C.C.C.C.C.C.G.b.; + * 2 = XXXXXXXXXXXXXXXXXXXXXXXXXXXX",
"XXXXXXXXXXXXXXXXXXXXXXXXXXXXXXXX: K.G.C.C.C.C.C.C.F.D.C.F.C.G.K.m.n.p   XXXXXXXXXXXXXXXXXXXXXXXXXXXX",
"XXXXXXXXXXXXXXXXXXXXXXXXXXXXXXXXXX; S.L.D.C.C.C.C.C.C.C.C.C.D.G.U.p.+ XXXXXXXXXXXXXXXXXXXXXXXXXXXXXX",
"XXXXXXXXXXXXXXXXXXXXXXXXXXXXXXXXXXXX+ ;.K.K.G.D.C.C.C.D.D.K.L.S.s   XXXXXXXXXXXXXXXXXXXXXXXXXXXXXXXX",
"XXXXXXXXXXXXXXXXXXXXXXXXXXXXXXXXXXXXXX  , X.u.F.K.K.G.F.C.s.| @ XXXXXXXXXXXXXXXXXXXXXXXXXXXXXXXXXXXX",
"XXXXXXXXXXXXXXXXXXXXXXXXXXXXXXXXXXXXXXXXXX= s p , i | s $ . XXXXXXXXXXXXXXXXXXXXXXXXXXXXXXXXXXXXXXXX",
"XXXXXXXXXXXXXXXXXXXXXXXXXXXXXXXXXXXXXXXX  >.!.}   @ o.G. .XXXXXXXXXXXXXXXXXXXXXXXXXXXXXXXXXXXXXXXXXX",
"XXXXXXXXXXXXXXXXXXXXXXXXXXXXXXXXXXXXXXXX& G.K., k.>.a L.K.* XXXXXXXXXXXXXXXXXXXXXXXXXXXXXXXXXXXXXXXX",
"XXXXXXXXXXXXXXXXXXXXXXXXXXXXXXXXXXXXXXXXf Y.*.3 L.K.O &.Y.-.  XXXXXXXXXXXXXXXXXXXXXXXXXXXXXXXXXXXXXX",
"XXXXXXXXXXXXXXXXXXXXXXXXXXXXXXXXXXXXXXO k.U.2 ..Y.a # 2 G.L.2 XXXXXXXXXXXXXXXXXXXXXXXXXXXXXXXXXXXXXX",
"XXXXXXXXXXXXXXXXXXXXXXXXXXXXXXXXXXXXXX> Y.M.; K.&., U.2 d ~.g.  XXXXXXXXXXXXXXXXXXXXXXXXXXXXXXXXXXXX",
"XXXXXXXXXXXXXXXXXXXXXXXXXXXXXXXXXXXXXXO | : #.S.  =.U.k.* a.d XXXXXXXXXXXXXXXXXXXXXXXXXXXXXXXXXXXXXX",
"XXXXXXXXXXXXXXXXXXXXXXXXXXXXXXXXXXXXXX@ s -.K.$ XX| K.L.p   XXXXXXXXXXXXXXXXXXXXXXXXXXXXXXXXXXXXXXXX",
"XXXXXXXXXXXXXXXXXXXXXXXXXXXXXXXXXXXX  >.Y.U.1 XXXX= G.L.-.XXXXXXXXXXXXXXXXXXXXXXXXXXXXXXXXXXXXXXXXXX",
"XXXXXXXXXXXXXXXXXXXXXXXXXXXXXXXXXX   .P.L.f XXXXXXo p.K.Z.% XXXXXXXXXXXXXXXXXXXXXXXXXXXXXXXXXXXXXXXX",
"XXXXXXXXXXXXXXXXXXXXXXXXXXXXXXXXXXp L.U.-.  XXXXXXXX .L.K.i XXXXXXXXXXXXXXXXXXXXXXXXXXXXXXXXXXXXXXXX",
"XXXXXXXXXXXXXXXXXXXXXXXXXXXXXXXXXX..!.k.X XXXXXXXXXX> G.L.@.XXXXXXXXXXXXXXXXXXXXXXXXXXXXXXXXXXXXXXXX",
"XXXXXXXXXXXXXXXXXXXXXXXXXXXXXXXXXX+ 2 # XXXXXXXXXXXXo k.L.n.@ XXXXXXXXXXXXXXXXXXXXXXXXXXXXXXXXXXXXXX",
"XXXXXXXXXXXXXXXXXXXXXXXXXXXXXXXXXXXXXXXXXXXXXXXXXXXXXXX.U.G.> XXXXXXXXXXXXXXXXXXXXXXXXXXXXXXXXXXXXXX",
"XXXXXXXXXXXXXXXXXXXXXXXXXXXXXXXXXXXXXXXXXXXXXXXXXXXXXX$ G.L.> XXXXXXXXXXXXXXXXXXXXXXXXXXXXXXXXXXXXXX",
"XXXXXXXXXXXXXXXXXXXXXXXXXXXXXXXXXXXXXXXXXXXXXXXXXXXXXXXX> p XXXXXXXXXXXXXXXXXXXXXXXXXXXXXXXXXXXXXXXX",
"XXXXXXXXXXXXXXXXXXXXXXXXXXXXXXXXXXXXXXXXXXXXXXXXXXXXXXXXXXXXXXXXXXXXXXXXXXXXXXXXXXXXXXXXXXXXXXXXXXXX"
};
